G04 (created by PCBNEW (2013-07-07 BZR 4022)-stable) date 3/1/2014 3:20:10 PM*
%MOIN*%
G04 Gerber Fmt 3.4, Leading zero omitted, Abs format*
%FSLAX34Y34*%
G01*
G70*
G90*
G04 APERTURE LIST*
%ADD10C,0.00590551*%
%ADD11C,0.001*%
G04 APERTURE END LIST*
G54D10*
G54D11*
X60450Y14500D02*
G75*
G03X55950Y19000I-4500J0D01*
G74*
G01*
X55950Y10000D02*
G75*
G03X60450Y14500I0J4500D01*
G74*
G01*
X54850Y10000D02*
X55950Y10000D01*
X54850Y19000D02*
X54850Y10000D01*
X54850Y19000D02*
X55950Y19000D01*
X13950Y0D02*
X13950Y9000D01*
X50950Y0D02*
X13950Y0D01*
X50950Y9000D02*
X50950Y0D01*
X13950Y9000D02*
X50950Y9000D01*
X13950Y10000D02*
X13950Y19000D01*
X50950Y10000D02*
X13950Y10000D01*
X50950Y19000D02*
X50950Y10000D01*
X13950Y19000D02*
X50950Y19000D01*
X4500Y19000D02*
G75*
G03X0Y14500I0J-4500D01*
G74*
G01*
X0Y14500D02*
G75*
G03X4500Y10000I4500J0D01*
G74*
G01*
X10000Y10000D02*
X4500Y10000D01*
X10000Y19000D02*
X10000Y10000D01*
X10000Y19000D02*
X4500Y19000D01*
X22650Y4500D02*
G75*
G03X22650Y4500I-1150J0D01*
G74*
G01*
X44550Y4500D02*
G75*
G03X44550Y4500I-1150J0D01*
G74*
G01*
M02*
