G04 (created by PCBNEW (2013-07-07 BZR 4022)-stable) date 2/22/2014 5:21:18 PM*
%MOIN*%
G04 Gerber Fmt 3.4, Leading zero omitted, Abs format*
%FSLAX34Y34*%
G01*
G70*
G90*
G04 APERTURE LIST*
%ADD10C,0.00590551*%
%ADD11R,0.055X0.055*%
%ADD12C,0.055*%
%ADD13C,0.025*%
%ADD14C,0.023622*%
%ADD15C,0.146*%
%ADD16C,0.125*%
%ADD17C,0.03*%
%ADD18C,0.01*%
%ADD19C,0.006*%
G04 APERTURE END LIST*
G54D10*
G54D11*
X31800Y17450D03*
G54D12*
X31800Y18450D03*
X32800Y17450D03*
X32800Y18450D03*
X33800Y17450D03*
X33800Y18450D03*
X34800Y17450D03*
X34800Y18450D03*
X35800Y17450D03*
X35800Y18450D03*
X36800Y17450D03*
X36800Y18450D03*
X37800Y17450D03*
X37800Y18450D03*
G54D11*
X55450Y17000D03*
G54D12*
X55450Y16000D03*
X55450Y15000D03*
X55450Y14000D03*
X55450Y13000D03*
X55450Y12000D03*
G54D11*
X14450Y12000D03*
G54D12*
X14450Y13000D03*
X14450Y14000D03*
X14450Y15000D03*
X14450Y16000D03*
X14450Y17000D03*
G54D13*
X24550Y12500D03*
X24746Y12696D03*
X24746Y12303D03*
X24353Y12303D03*
X24353Y12696D03*
G54D11*
X50450Y18500D03*
G54D12*
X49450Y18500D03*
X49450Y17500D03*
X50450Y17500D03*
G54D11*
X9400Y17500D03*
G54D12*
X8400Y17500D03*
X8400Y18500D03*
X9400Y18500D03*
G54D11*
X9400Y10500D03*
G54D12*
X8400Y10500D03*
X8400Y11500D03*
X9400Y11500D03*
G54D11*
X50450Y11500D03*
G54D12*
X49450Y11500D03*
X49450Y10500D03*
X50450Y10500D03*
G54D11*
X14550Y18500D03*
G54D12*
X15550Y18500D03*
G54D11*
X14550Y10500D03*
G54D12*
X15550Y10500D03*
G54D11*
X42900Y18300D03*
G54D12*
X43900Y18300D03*
G54D11*
X42900Y17300D03*
G54D12*
X43900Y17300D03*
G54D11*
X42900Y16300D03*
G54D12*
X43900Y16300D03*
G54D11*
X14550Y8500D03*
G54D12*
X15550Y8500D03*
G54D11*
X14550Y500D03*
G54D12*
X15550Y500D03*
G54D11*
X42900Y6300D03*
G54D12*
X43900Y6300D03*
G54D11*
X42900Y7300D03*
G54D12*
X43900Y7300D03*
G54D11*
X42900Y8300D03*
G54D12*
X43900Y8300D03*
G54D14*
X24554Y16295D03*
X24200Y16295D03*
X23845Y16295D03*
X23845Y16650D03*
X24200Y16650D03*
X24554Y16650D03*
X24554Y17004D03*
X24200Y17004D03*
X23845Y17004D03*
G54D15*
X21500Y14500D03*
X43400Y14500D03*
G54D16*
X18100Y14500D03*
X46800Y14500D03*
G54D11*
X29950Y10900D03*
G54D12*
X29950Y11900D03*
X29950Y12900D03*
G54D11*
X31450Y10900D03*
G54D12*
X32450Y10900D03*
G54D13*
X27800Y14750D03*
X27603Y14553D03*
X27603Y14946D03*
X27996Y14946D03*
X27996Y14553D03*
G54D17*
X22000Y11875D03*
X22500Y11870D03*
X23000Y11875D03*
X56050Y13500D03*
X3525Y13575D03*
X6825Y11775D03*
X7200Y16625D03*
X4250Y16750D03*
X40250Y14232D03*
X41450Y4000D03*
X45500Y8182D03*
X41350Y11432D03*
X41250Y13417D03*
X41800Y16167D03*
X45783Y15750D03*
X45932Y12500D03*
X29400Y15417D03*
X22132Y16750D03*
X19300Y12817D03*
X19000Y15250D03*
X15617Y17000D03*
X16032Y15050D03*
X46767Y13150D03*
X26232Y18650D03*
X23400Y18667D03*
X19950Y18450D03*
X21550Y17900D03*
X44400Y13750D03*
X23394Y17775D03*
X7200Y12375D03*
X4225Y14150D03*
X56000Y14050D03*
X47050Y15900D03*
X43500Y13550D03*
X41800Y15632D03*
X25132Y18650D03*
X7225Y11975D03*
X4125Y14500D03*
X47475Y15900D03*
X43250Y13250D03*
X41150Y15632D03*
X24567Y18650D03*
X25532Y17400D03*
X39600Y16600D03*
X38850Y16850D03*
X25800Y17950D03*
X49000Y13525D03*
X25400Y18050D03*
X39200Y16600D03*
X47975Y15900D03*
X20600Y18000D03*
X19850Y15150D03*
X19950Y18050D03*
X19800Y16050D03*
X20150Y15450D03*
X16674Y13318D03*
X16674Y14381D03*
X19850Y15650D03*
X42200Y13900D03*
X42550Y13550D03*
X41400Y10250D03*
X30500Y16050D03*
X30850Y13075D03*
X22667Y17250D03*
X39132Y13700D03*
X43175Y11150D03*
X43550Y11100D03*
X19675Y13950D03*
X45450Y11200D03*
X31250Y13075D03*
X44917Y16125D03*
X45750Y10600D03*
X44550Y11050D03*
X44900Y11150D03*
X44650Y13450D03*
X48600Y10275D03*
X46775Y10650D03*
X35950Y14300D03*
X36450Y14800D03*
X40450Y17400D03*
X43950Y13700D03*
X41675Y12925D03*
X43000Y12175D03*
X44525Y12225D03*
X36775Y13600D03*
X40583Y10375D03*
X45600Y12750D03*
X23367Y12700D03*
X24400Y11300D03*
X7450Y16325D03*
X7725Y17775D03*
X8250Y16300D03*
X7850Y15075D03*
X8650Y16325D03*
X8975Y13400D03*
X8300Y12725D03*
X7750Y12725D03*
X5300Y17007D03*
X4700Y16175D03*
X4050Y17200D03*
X5000Y16425D03*
X5450Y16150D03*
X5700Y16425D03*
X5725Y12500D03*
X5525Y12800D03*
X5150Y12650D03*
X1204Y15011D03*
X2650Y15125D03*
X4750Y12650D03*
X2650Y12507D03*
X58125Y16325D03*
X57825Y16125D03*
X58425Y14875D03*
X58700Y15125D03*
X58700Y13825D03*
X58425Y14100D03*
X55075Y17925D03*
X55075Y10950D03*
X4175Y12575D03*
X7150Y12750D03*
X41725Y13300D03*
X44200Y11150D03*
X39750Y15332D03*
X41975Y12175D03*
X42350Y12175D03*
X39050Y15332D03*
X15250Y11450D03*
X30775Y12533D03*
X39525Y11950D03*
X40583Y11125D03*
X20525Y14675D03*
X46232Y13150D03*
X33395Y12900D03*
X48750Y15400D03*
X41350Y11967D03*
X40533Y13075D03*
X40250Y14767D03*
X40500Y16167D03*
X38550Y14767D03*
X28750Y14882D03*
X28932Y16050D03*
X27550Y17800D03*
X26067Y16750D03*
X22267Y12700D03*
X22832Y12700D03*
X22832Y13350D03*
X22132Y15750D03*
X22132Y17250D03*
X22250Y18650D03*
X17700Y13467D03*
X19200Y11900D03*
X16300Y13850D03*
X21567Y17250D03*
X20600Y18400D03*
X21767Y13350D03*
X23400Y15550D03*
X21232Y13350D03*
X25532Y16750D03*
X23100Y15750D03*
X19725Y13225D03*
X20150Y15950D03*
X19950Y18850D03*
X39667Y12700D03*
X19300Y13950D03*
X31625Y13200D03*
X45500Y14750D03*
X38667Y11750D03*
X32550Y14750D03*
X20500Y14300D03*
X39717Y10750D03*
X32275Y12825D03*
X32032Y13700D03*
X20250Y13232D03*
G54D18*
X7200Y12375D02*
X7448Y12375D01*
X9650Y16250D02*
X8400Y17500D01*
X9650Y12525D02*
X9650Y16250D01*
X8850Y11725D02*
X9650Y12525D01*
X8850Y11325D02*
X8850Y11725D01*
X8575Y11050D02*
X8850Y11325D01*
X8225Y11050D02*
X8575Y11050D01*
X7950Y11325D02*
X8225Y11050D01*
X7950Y11873D02*
X7950Y11325D01*
X7448Y12375D02*
X7950Y11873D01*
X7200Y12375D02*
X7100Y12375D01*
X5125Y14350D02*
X4425Y14350D01*
X7100Y12375D02*
X5125Y14350D01*
X4225Y14150D02*
X4425Y14350D01*
X7225Y11975D02*
X7614Y11975D01*
X8850Y18049D02*
X8400Y18500D01*
X8850Y17275D02*
X8850Y18049D01*
X9810Y16316D02*
X8850Y17275D01*
X9810Y12458D02*
X9810Y16316D01*
X9010Y11658D02*
X9810Y12458D01*
X9010Y11258D02*
X9010Y11658D01*
X8641Y10889D02*
X9010Y11258D01*
X8158Y10889D02*
X8641Y10889D01*
X7789Y11258D02*
X8158Y10889D01*
X7789Y11800D02*
X7789Y11258D01*
X7614Y11975D02*
X7789Y11800D01*
X7225Y11975D02*
X6850Y12350D01*
X3950Y14325D02*
X4125Y14500D01*
X3950Y14025D02*
X3950Y14325D01*
X4100Y13875D02*
X3950Y14025D01*
X4325Y13875D02*
X4100Y13875D01*
X4639Y14189D02*
X4325Y13875D01*
X5058Y14189D02*
X4639Y14189D01*
X6850Y12398D02*
X5058Y14189D01*
X6850Y12350D02*
X6850Y12398D01*
X8250Y15475D02*
X8250Y16300D01*
X7850Y15075D02*
X8250Y15475D01*
X5300Y17007D02*
X5492Y17007D01*
X7750Y14750D02*
X7750Y12725D01*
X5492Y17007D02*
X7750Y14750D01*
X4225Y17200D02*
X4050Y17200D01*
X5000Y16425D02*
X4225Y17200D01*
X1204Y15011D02*
X2489Y13726D01*
X4639Y12139D02*
X5150Y12650D01*
X2635Y12139D02*
X4639Y12139D01*
X2375Y12400D02*
X2635Y12139D01*
X2375Y12625D02*
X2375Y12400D01*
X2489Y12739D02*
X2375Y12625D01*
X2489Y13726D02*
X2489Y12739D01*
X2650Y12507D02*
X2650Y15125D01*
X4750Y12650D02*
X4400Y12300D01*
X2857Y12300D02*
X2650Y12507D01*
X4400Y12300D02*
X2857Y12300D01*
X55075Y17925D02*
X55000Y17850D01*
X55000Y11025D02*
X55075Y10950D01*
X55000Y17850D02*
X55000Y11025D01*
X4175Y12575D02*
X4175Y13573D01*
X6951Y12750D02*
X7150Y12750D01*
X5191Y14510D02*
X6951Y12750D01*
X4489Y14510D02*
X5191Y14510D01*
X4225Y14775D02*
X4489Y14510D01*
X4025Y14775D02*
X4225Y14775D01*
X3850Y14600D02*
X4025Y14775D01*
X3850Y14451D02*
X3850Y14600D01*
X3789Y14391D02*
X3850Y14451D01*
X3789Y13958D02*
X3789Y14391D01*
X4175Y13573D02*
X3789Y13958D01*
X7150Y12750D02*
X7300Y12750D01*
X8400Y11650D02*
X8400Y11500D01*
X7300Y12750D02*
X8400Y11650D01*
G54D10*
G36*
X50720Y10230D02*
X49753Y10230D01*
X49758Y10234D01*
X49803Y10298D01*
X49836Y10371D01*
X49853Y10448D01*
X49855Y10539D01*
X49855Y11539D01*
X49855Y17539D01*
X49839Y17617D01*
X49809Y17691D01*
X49765Y17757D01*
X49709Y17813D01*
X49643Y17857D01*
X49570Y17888D01*
X49492Y17904D01*
X49413Y17905D01*
X49335Y17890D01*
X49261Y17860D01*
X49194Y17817D01*
X49138Y17761D01*
X49093Y17696D01*
X49062Y17623D01*
X49045Y17545D01*
X49044Y17465D01*
X49058Y17387D01*
X49088Y17313D01*
X49131Y17247D01*
X49186Y17190D01*
X49251Y17144D01*
X49324Y17112D01*
X49401Y17095D01*
X49481Y17094D01*
X49559Y17108D01*
X49633Y17136D01*
X49700Y17179D01*
X49758Y17234D01*
X49803Y17298D01*
X49836Y17371D01*
X49853Y17448D01*
X49855Y17539D01*
X49855Y11539D01*
X49839Y11617D01*
X49809Y11691D01*
X49765Y11757D01*
X49709Y11813D01*
X49643Y11857D01*
X49570Y11888D01*
X49492Y11904D01*
X49413Y11905D01*
X49335Y11890D01*
X49280Y11868D01*
X49280Y13552D01*
X49269Y13606D01*
X49248Y13657D01*
X49218Y13702D01*
X49179Y13741D01*
X49133Y13772D01*
X49083Y13793D01*
X49029Y13804D01*
X48974Y13805D01*
X48920Y13794D01*
X48869Y13774D01*
X48823Y13744D01*
X48784Y13705D01*
X48753Y13660D01*
X48731Y13610D01*
X48720Y13556D01*
X48719Y13501D01*
X48729Y13447D01*
X48749Y13396D01*
X48779Y13350D01*
X48817Y13310D01*
X48862Y13279D01*
X48913Y13257D01*
X48966Y13245D01*
X49021Y13244D01*
X49075Y13254D01*
X49126Y13273D01*
X49173Y13303D01*
X49212Y13341D01*
X49244Y13386D01*
X49266Y13436D01*
X49279Y13489D01*
X49280Y13552D01*
X49280Y11868D01*
X49261Y11860D01*
X49194Y11817D01*
X49138Y11761D01*
X49093Y11696D01*
X49062Y11623D01*
X49045Y11545D01*
X49044Y11465D01*
X49058Y11387D01*
X49088Y11313D01*
X49131Y11247D01*
X49186Y11190D01*
X49251Y11144D01*
X49324Y11112D01*
X49401Y11095D01*
X49481Y11094D01*
X49559Y11108D01*
X49633Y11136D01*
X49700Y11179D01*
X49758Y11234D01*
X49803Y11298D01*
X49836Y11371D01*
X49853Y11448D01*
X49855Y11539D01*
X49855Y10539D01*
X49839Y10617D01*
X49809Y10691D01*
X49765Y10757D01*
X49709Y10813D01*
X49643Y10857D01*
X49570Y10888D01*
X49492Y10904D01*
X49413Y10905D01*
X49335Y10890D01*
X49261Y10860D01*
X49194Y10817D01*
X49138Y10761D01*
X49093Y10696D01*
X49062Y10623D01*
X49045Y10545D01*
X49044Y10465D01*
X49058Y10387D01*
X49088Y10313D01*
X49131Y10247D01*
X49147Y10230D01*
X48876Y10230D01*
X48879Y10239D01*
X48880Y10302D01*
X48869Y10356D01*
X48848Y10407D01*
X48818Y10452D01*
X48779Y10491D01*
X48733Y10522D01*
X48683Y10543D01*
X48629Y10554D01*
X48574Y10555D01*
X48520Y10544D01*
X48469Y10524D01*
X48423Y10494D01*
X48384Y10455D01*
X48353Y10410D01*
X48331Y10360D01*
X48320Y10306D01*
X48319Y10251D01*
X48323Y10230D01*
X48255Y10230D01*
X48255Y15927D01*
X48244Y15981D01*
X48223Y16032D01*
X48193Y16077D01*
X48154Y16116D01*
X48108Y16147D01*
X48058Y16168D01*
X48004Y16179D01*
X47949Y16180D01*
X47895Y16169D01*
X47844Y16149D01*
X47798Y16119D01*
X47759Y16080D01*
X47728Y16035D01*
X47725Y16027D01*
X47723Y16032D01*
X47693Y16077D01*
X47654Y16116D01*
X47608Y16147D01*
X47558Y16168D01*
X47504Y16179D01*
X47449Y16180D01*
X47395Y16169D01*
X47344Y16149D01*
X47298Y16119D01*
X47262Y16083D01*
X47229Y16116D01*
X47183Y16147D01*
X47133Y16168D01*
X47079Y16179D01*
X47024Y16180D01*
X46970Y16169D01*
X46919Y16149D01*
X46873Y16119D01*
X46834Y16080D01*
X46803Y16035D01*
X46781Y15985D01*
X46770Y15931D01*
X46769Y15876D01*
X46779Y15822D01*
X46799Y15771D01*
X46829Y15725D01*
X46867Y15685D01*
X46912Y15654D01*
X46963Y15632D01*
X47016Y15620D01*
X47071Y15619D01*
X47125Y15629D01*
X47176Y15648D01*
X47223Y15678D01*
X47262Y15716D01*
X47263Y15716D01*
X47292Y15685D01*
X47337Y15654D01*
X47388Y15632D01*
X47441Y15620D01*
X47496Y15619D01*
X47550Y15629D01*
X47601Y15648D01*
X47648Y15678D01*
X47687Y15716D01*
X47719Y15761D01*
X47724Y15771D01*
X47724Y15771D01*
X47754Y15725D01*
X47792Y15685D01*
X47837Y15654D01*
X47888Y15632D01*
X47941Y15620D01*
X47996Y15619D01*
X48050Y15629D01*
X48101Y15648D01*
X48148Y15678D01*
X48187Y15716D01*
X48219Y15761D01*
X48241Y15811D01*
X48254Y15864D01*
X48255Y15927D01*
X48255Y10230D01*
X47055Y10230D01*
X47055Y10677D01*
X47047Y10715D01*
X47047Y13177D01*
X47036Y13231D01*
X47015Y13282D01*
X46985Y13327D01*
X46946Y13366D01*
X46901Y13397D01*
X46850Y13418D01*
X46796Y13429D01*
X46742Y13430D01*
X46688Y13419D01*
X46637Y13399D01*
X46591Y13369D01*
X46551Y13330D01*
X46520Y13285D01*
X46499Y13235D01*
X46487Y13181D01*
X46487Y13126D01*
X46497Y13072D01*
X46517Y13021D01*
X46547Y12975D01*
X46585Y12935D01*
X46630Y12904D01*
X46680Y12882D01*
X46734Y12870D01*
X46789Y12869D01*
X46843Y12879D01*
X46894Y12898D01*
X46940Y12928D01*
X46980Y12966D01*
X47012Y13011D01*
X47034Y13061D01*
X47046Y13114D01*
X47047Y13177D01*
X47047Y10715D01*
X47044Y10731D01*
X47023Y10782D01*
X46993Y10827D01*
X46954Y10866D01*
X46908Y10897D01*
X46858Y10918D01*
X46804Y10929D01*
X46749Y10930D01*
X46695Y10919D01*
X46644Y10899D01*
X46598Y10869D01*
X46559Y10830D01*
X46528Y10785D01*
X46506Y10735D01*
X46495Y10681D01*
X46494Y10626D01*
X46504Y10572D01*
X46524Y10521D01*
X46554Y10475D01*
X46592Y10435D01*
X46637Y10404D01*
X46688Y10382D01*
X46741Y10370D01*
X46796Y10369D01*
X46850Y10379D01*
X46901Y10398D01*
X46948Y10428D01*
X46987Y10466D01*
X47019Y10511D01*
X47041Y10561D01*
X47054Y10614D01*
X47055Y10677D01*
X47055Y10230D01*
X46212Y10230D01*
X46212Y12527D01*
X46201Y12581D01*
X46180Y12632D01*
X46150Y12677D01*
X46111Y12716D01*
X46066Y12747D01*
X46063Y12748D01*
X46063Y15777D01*
X46052Y15831D01*
X46031Y15882D01*
X46001Y15927D01*
X45962Y15966D01*
X45916Y15997D01*
X45866Y16018D01*
X45812Y16029D01*
X45757Y16030D01*
X45703Y16019D01*
X45652Y15999D01*
X45606Y15969D01*
X45567Y15930D01*
X45536Y15885D01*
X45514Y15835D01*
X45503Y15781D01*
X45502Y15726D01*
X45512Y15672D01*
X45532Y15621D01*
X45562Y15575D01*
X45600Y15535D01*
X45645Y15504D01*
X45696Y15482D01*
X45749Y15470D01*
X45804Y15469D01*
X45858Y15479D01*
X45909Y15498D01*
X45956Y15528D01*
X45995Y15566D01*
X46027Y15611D01*
X46049Y15661D01*
X46062Y15714D01*
X46063Y15777D01*
X46063Y12748D01*
X46015Y12768D01*
X45961Y12779D01*
X45907Y12780D01*
X45879Y12775D01*
X45880Y12777D01*
X45869Y12831D01*
X45848Y12882D01*
X45818Y12927D01*
X45780Y12966D01*
X45780Y14777D01*
X45769Y14831D01*
X45748Y14882D01*
X45718Y14927D01*
X45679Y14966D01*
X45633Y14997D01*
X45583Y15018D01*
X45529Y15029D01*
X45474Y15030D01*
X45420Y15019D01*
X45369Y14999D01*
X45323Y14969D01*
X45284Y14930D01*
X45253Y14885D01*
X45231Y14835D01*
X45220Y14781D01*
X45219Y14726D01*
X45229Y14672D01*
X45249Y14621D01*
X45279Y14575D01*
X45317Y14535D01*
X45362Y14504D01*
X45413Y14482D01*
X45466Y14470D01*
X45521Y14469D01*
X45575Y14479D01*
X45626Y14498D01*
X45673Y14528D01*
X45712Y14566D01*
X45744Y14611D01*
X45766Y14661D01*
X45779Y14714D01*
X45780Y14777D01*
X45780Y12966D01*
X45779Y12966D01*
X45733Y12997D01*
X45683Y13018D01*
X45629Y13029D01*
X45574Y13030D01*
X45520Y13019D01*
X45469Y12999D01*
X45423Y12969D01*
X45384Y12930D01*
X45353Y12885D01*
X45331Y12835D01*
X45320Y12781D01*
X45319Y12726D01*
X45329Y12672D01*
X45349Y12621D01*
X45379Y12575D01*
X45417Y12535D01*
X45462Y12504D01*
X45513Y12482D01*
X45566Y12470D01*
X45621Y12469D01*
X45652Y12474D01*
X45662Y12422D01*
X45682Y12371D01*
X45712Y12325D01*
X45750Y12285D01*
X45795Y12254D01*
X45845Y12232D01*
X45899Y12220D01*
X45954Y12219D01*
X46008Y12229D01*
X46059Y12248D01*
X46105Y12278D01*
X46145Y12316D01*
X46177Y12361D01*
X46199Y12411D01*
X46211Y12464D01*
X46212Y12527D01*
X46212Y10230D01*
X46030Y10230D01*
X46030Y10627D01*
X46019Y10681D01*
X45998Y10732D01*
X45968Y10777D01*
X45929Y10816D01*
X45883Y10847D01*
X45833Y10868D01*
X45779Y10879D01*
X45730Y10880D01*
X45730Y11227D01*
X45719Y11281D01*
X45698Y11332D01*
X45668Y11377D01*
X45629Y11416D01*
X45583Y11447D01*
X45533Y11468D01*
X45479Y11479D01*
X45424Y11480D01*
X45370Y11469D01*
X45319Y11449D01*
X45273Y11419D01*
X45234Y11380D01*
X45203Y11335D01*
X45197Y11320D01*
X45197Y16152D01*
X45186Y16206D01*
X45165Y16257D01*
X45135Y16302D01*
X45096Y16341D01*
X45050Y16372D01*
X45000Y16393D01*
X44946Y16404D01*
X44891Y16405D01*
X44837Y16394D01*
X44786Y16374D01*
X44740Y16344D01*
X44701Y16305D01*
X44670Y16260D01*
X44648Y16210D01*
X44637Y16156D01*
X44636Y16101D01*
X44646Y16047D01*
X44666Y15996D01*
X44696Y15950D01*
X44734Y15910D01*
X44779Y15879D01*
X44830Y15857D01*
X44883Y15845D01*
X44938Y15844D01*
X44992Y15854D01*
X45043Y15873D01*
X45090Y15903D01*
X45129Y15941D01*
X45161Y15986D01*
X45183Y16036D01*
X45196Y16089D01*
X45197Y16152D01*
X45197Y11320D01*
X45181Y11285D01*
X45170Y11231D01*
X45170Y11226D01*
X45169Y11231D01*
X45148Y11282D01*
X45118Y11327D01*
X45079Y11366D01*
X45033Y11397D01*
X44983Y11418D01*
X44930Y11429D01*
X44930Y13477D01*
X44919Y13531D01*
X44898Y13582D01*
X44868Y13627D01*
X44829Y13666D01*
X44783Y13697D01*
X44733Y13718D01*
X44679Y13729D01*
X44679Y13729D01*
X44680Y13777D01*
X44669Y13831D01*
X44648Y13882D01*
X44618Y13927D01*
X44579Y13966D01*
X44533Y13997D01*
X44483Y14018D01*
X44429Y14029D01*
X44374Y14030D01*
X44320Y14019D01*
X44305Y14013D01*
X44305Y17339D01*
X44305Y18339D01*
X44289Y18417D01*
X44259Y18491D01*
X44215Y18557D01*
X44159Y18613D01*
X44093Y18657D01*
X44020Y18688D01*
X43942Y18704D01*
X43863Y18705D01*
X43785Y18690D01*
X43711Y18660D01*
X43644Y18617D01*
X43588Y18561D01*
X43543Y18496D01*
X43512Y18423D01*
X43495Y18345D01*
X43494Y18265D01*
X43508Y18187D01*
X43538Y18113D01*
X43581Y18047D01*
X43636Y17990D01*
X43701Y17944D01*
X43774Y17912D01*
X43851Y17895D01*
X43931Y17894D01*
X44009Y17908D01*
X44083Y17936D01*
X44150Y17979D01*
X44208Y18034D01*
X44253Y18098D01*
X44286Y18171D01*
X44303Y18248D01*
X44305Y18339D01*
X44305Y17339D01*
X44289Y17417D01*
X44259Y17491D01*
X44215Y17557D01*
X44159Y17613D01*
X44093Y17657D01*
X44020Y17688D01*
X43942Y17704D01*
X43863Y17705D01*
X43785Y17690D01*
X43711Y17660D01*
X43644Y17617D01*
X43588Y17561D01*
X43543Y17496D01*
X43512Y17423D01*
X43495Y17345D01*
X43494Y17265D01*
X43508Y17187D01*
X43538Y17113D01*
X43581Y17047D01*
X43636Y16990D01*
X43701Y16944D01*
X43774Y16912D01*
X43851Y16895D01*
X43931Y16894D01*
X44009Y16908D01*
X44083Y16936D01*
X44150Y16979D01*
X44208Y17034D01*
X44253Y17098D01*
X44286Y17171D01*
X44303Y17248D01*
X44305Y17339D01*
X44305Y14013D01*
X44269Y13999D01*
X44223Y13969D01*
X44184Y13930D01*
X44156Y13889D01*
X44129Y13916D01*
X44083Y13947D01*
X44067Y13954D01*
X44151Y14073D01*
X44219Y14227D01*
X44257Y14391D01*
X44260Y14584D01*
X44227Y14749D01*
X44163Y14905D01*
X44069Y15046D01*
X43950Y15165D01*
X43811Y15260D01*
X43655Y15325D01*
X43490Y15359D01*
X43321Y15360D01*
X43305Y15357D01*
X43305Y16036D01*
X43305Y17036D01*
X43305Y18036D01*
X43305Y18587D01*
X43300Y18612D01*
X43290Y18636D01*
X43276Y18657D01*
X43258Y18675D01*
X43237Y18689D01*
X43213Y18699D01*
X43188Y18704D01*
X43163Y18705D01*
X42612Y18705D01*
X42587Y18700D01*
X42563Y18690D01*
X42542Y18676D01*
X42524Y18658D01*
X42510Y18637D01*
X42500Y18613D01*
X42495Y18588D01*
X42494Y18563D01*
X42494Y18012D01*
X42499Y17987D01*
X42509Y17963D01*
X42523Y17942D01*
X42541Y17924D01*
X42562Y17910D01*
X42586Y17900D01*
X42611Y17895D01*
X42636Y17894D01*
X43187Y17894D01*
X43212Y17899D01*
X43236Y17909D01*
X43257Y17923D01*
X43275Y17941D01*
X43289Y17962D01*
X43299Y17986D01*
X43304Y18011D01*
X43305Y18036D01*
X43305Y17036D01*
X43305Y17587D01*
X43300Y17612D01*
X43290Y17636D01*
X43276Y17657D01*
X43258Y17675D01*
X43237Y17689D01*
X43213Y17699D01*
X43188Y17704D01*
X43163Y17705D01*
X42612Y17705D01*
X42587Y17700D01*
X42563Y17690D01*
X42542Y17676D01*
X42524Y17658D01*
X42510Y17637D01*
X42500Y17613D01*
X42495Y17588D01*
X42494Y17563D01*
X42494Y17012D01*
X42499Y16987D01*
X42509Y16963D01*
X42523Y16942D01*
X42541Y16924D01*
X42562Y16910D01*
X42586Y16900D01*
X42611Y16895D01*
X42636Y16894D01*
X43187Y16894D01*
X43212Y16899D01*
X43236Y16909D01*
X43257Y16923D01*
X43275Y16941D01*
X43289Y16962D01*
X43299Y16986D01*
X43304Y17011D01*
X43305Y17036D01*
X43305Y16036D01*
X43305Y16587D01*
X43300Y16612D01*
X43290Y16636D01*
X43276Y16657D01*
X43258Y16675D01*
X43237Y16689D01*
X43213Y16699D01*
X43188Y16704D01*
X43163Y16705D01*
X42612Y16705D01*
X42587Y16700D01*
X42563Y16690D01*
X42542Y16676D01*
X42524Y16658D01*
X42510Y16637D01*
X42500Y16613D01*
X42495Y16588D01*
X42494Y16563D01*
X42494Y16012D01*
X42499Y15987D01*
X42509Y15963D01*
X42523Y15942D01*
X42541Y15924D01*
X42562Y15910D01*
X42586Y15900D01*
X42611Y15895D01*
X42636Y15894D01*
X43187Y15894D01*
X43212Y15899D01*
X43236Y15909D01*
X43257Y15923D01*
X43275Y15941D01*
X43289Y15962D01*
X43299Y15986D01*
X43304Y16011D01*
X43305Y16036D01*
X43305Y15357D01*
X43156Y15329D01*
X42999Y15265D01*
X42858Y15173D01*
X42738Y15055D01*
X42642Y14916D01*
X42576Y14761D01*
X42541Y14596D01*
X42538Y14427D01*
X42569Y14261D01*
X42631Y14104D01*
X42722Y13963D01*
X42839Y13841D01*
X42978Y13745D01*
X43132Y13678D01*
X43240Y13654D01*
X43231Y13635D01*
X43220Y13581D01*
X43219Y13529D01*
X43170Y13519D01*
X43119Y13499D01*
X43073Y13469D01*
X43034Y13430D01*
X43003Y13385D01*
X42981Y13335D01*
X42970Y13281D01*
X42969Y13226D01*
X42979Y13172D01*
X42999Y13121D01*
X43029Y13075D01*
X43067Y13035D01*
X43112Y13004D01*
X43163Y12982D01*
X43216Y12970D01*
X43271Y12969D01*
X43325Y12979D01*
X43376Y12998D01*
X43423Y13028D01*
X43462Y13066D01*
X43494Y13111D01*
X43516Y13161D01*
X43529Y13214D01*
X43529Y13270D01*
X43575Y13279D01*
X43626Y13298D01*
X43673Y13328D01*
X43712Y13366D01*
X43744Y13411D01*
X43766Y13461D01*
X43771Y13482D01*
X43812Y13454D01*
X43863Y13432D01*
X43916Y13420D01*
X43971Y13419D01*
X44025Y13429D01*
X44076Y13448D01*
X44123Y13478D01*
X44162Y13516D01*
X44194Y13560D01*
X44217Y13535D01*
X44262Y13504D01*
X44313Y13482D01*
X44366Y13470D01*
X44370Y13470D01*
X44369Y13426D01*
X44379Y13372D01*
X44399Y13321D01*
X44429Y13275D01*
X44467Y13235D01*
X44512Y13204D01*
X44563Y13182D01*
X44616Y13170D01*
X44671Y13169D01*
X44725Y13179D01*
X44776Y13198D01*
X44823Y13228D01*
X44862Y13266D01*
X44894Y13311D01*
X44916Y13361D01*
X44929Y13414D01*
X44930Y13477D01*
X44930Y11429D01*
X44929Y11429D01*
X44874Y11430D01*
X44820Y11419D01*
X44805Y11413D01*
X44805Y12252D01*
X44794Y12306D01*
X44773Y12357D01*
X44743Y12402D01*
X44704Y12441D01*
X44658Y12472D01*
X44608Y12493D01*
X44554Y12504D01*
X44499Y12505D01*
X44445Y12494D01*
X44394Y12474D01*
X44348Y12444D01*
X44309Y12405D01*
X44278Y12360D01*
X44256Y12310D01*
X44245Y12256D01*
X44244Y12201D01*
X44254Y12147D01*
X44274Y12096D01*
X44304Y12050D01*
X44342Y12010D01*
X44387Y11979D01*
X44438Y11957D01*
X44491Y11945D01*
X44546Y11944D01*
X44600Y11954D01*
X44651Y11973D01*
X44698Y12003D01*
X44737Y12041D01*
X44769Y12086D01*
X44791Y12136D01*
X44804Y12189D01*
X44805Y12252D01*
X44805Y11413D01*
X44769Y11399D01*
X44723Y11369D01*
X44684Y11330D01*
X44666Y11304D01*
X44633Y11318D01*
X44579Y11329D01*
X44524Y11330D01*
X44470Y11319D01*
X44433Y11304D01*
X44418Y11327D01*
X44379Y11366D01*
X44333Y11397D01*
X44283Y11418D01*
X44229Y11429D01*
X44174Y11430D01*
X44120Y11419D01*
X44069Y11399D01*
X44023Y11369D01*
X43984Y11330D01*
X43953Y11285D01*
X43931Y11235D01*
X43920Y11181D01*
X43919Y11126D01*
X43929Y11072D01*
X43949Y11021D01*
X43979Y10975D01*
X44017Y10935D01*
X44062Y10904D01*
X44113Y10882D01*
X44166Y10870D01*
X44221Y10869D01*
X44275Y10879D01*
X44316Y10894D01*
X44329Y10875D01*
X44367Y10835D01*
X44412Y10804D01*
X44463Y10782D01*
X44516Y10770D01*
X44571Y10769D01*
X44625Y10779D01*
X44676Y10798D01*
X44723Y10828D01*
X44762Y10866D01*
X44783Y10895D01*
X44813Y10882D01*
X44866Y10870D01*
X44921Y10869D01*
X44975Y10879D01*
X45026Y10898D01*
X45073Y10928D01*
X45112Y10966D01*
X45144Y11011D01*
X45166Y11061D01*
X45179Y11114D01*
X45179Y11123D01*
X45179Y11122D01*
X45199Y11071D01*
X45229Y11025D01*
X45267Y10985D01*
X45312Y10954D01*
X45363Y10932D01*
X45416Y10920D01*
X45471Y10919D01*
X45525Y10929D01*
X45576Y10948D01*
X45623Y10978D01*
X45662Y11016D01*
X45694Y11061D01*
X45716Y11111D01*
X45729Y11164D01*
X45730Y11227D01*
X45730Y10880D01*
X45724Y10880D01*
X45670Y10869D01*
X45619Y10849D01*
X45573Y10819D01*
X45534Y10780D01*
X45503Y10735D01*
X45481Y10685D01*
X45470Y10631D01*
X45469Y10576D01*
X45479Y10522D01*
X45499Y10471D01*
X45529Y10425D01*
X45567Y10385D01*
X45612Y10354D01*
X45663Y10332D01*
X45716Y10320D01*
X45771Y10319D01*
X45825Y10329D01*
X45876Y10348D01*
X45923Y10378D01*
X45962Y10416D01*
X45994Y10461D01*
X46016Y10511D01*
X46029Y10564D01*
X46030Y10627D01*
X46030Y10230D01*
X43830Y10230D01*
X43830Y11127D01*
X43819Y11181D01*
X43798Y11232D01*
X43768Y11277D01*
X43729Y11316D01*
X43683Y11347D01*
X43633Y11368D01*
X43579Y11379D01*
X43524Y11380D01*
X43470Y11369D01*
X43419Y11349D01*
X43390Y11330D01*
X43354Y11366D01*
X43308Y11397D01*
X43280Y11409D01*
X43280Y12202D01*
X43269Y12256D01*
X43248Y12307D01*
X43218Y12352D01*
X43179Y12391D01*
X43133Y12422D01*
X43083Y12443D01*
X43029Y12454D01*
X42974Y12455D01*
X42920Y12444D01*
X42869Y12424D01*
X42830Y12398D01*
X42830Y13577D01*
X42819Y13631D01*
X42798Y13682D01*
X42768Y13727D01*
X42729Y13766D01*
X42683Y13797D01*
X42633Y13818D01*
X42579Y13829D01*
X42524Y13830D01*
X42470Y13819D01*
X42468Y13819D01*
X42479Y13864D01*
X42480Y13927D01*
X42469Y13981D01*
X42448Y14032D01*
X42418Y14077D01*
X42379Y14116D01*
X42333Y14147D01*
X42283Y14168D01*
X42229Y14179D01*
X42174Y14180D01*
X42120Y14169D01*
X42080Y14153D01*
X42080Y15659D01*
X42069Y15713D01*
X42048Y15764D01*
X42018Y15810D01*
X41979Y15849D01*
X41933Y15879D01*
X41885Y15900D01*
X41926Y15916D01*
X41973Y15945D01*
X42012Y15983D01*
X42044Y16028D01*
X42066Y16078D01*
X42079Y16132D01*
X42080Y16194D01*
X42069Y16248D01*
X42048Y16299D01*
X42018Y16345D01*
X41979Y16384D01*
X41933Y16414D01*
X41883Y16436D01*
X41829Y16447D01*
X41774Y16447D01*
X41720Y16437D01*
X41669Y16416D01*
X41623Y16386D01*
X41584Y16348D01*
X41553Y16303D01*
X41531Y16252D01*
X41520Y16198D01*
X41519Y16143D01*
X41529Y16089D01*
X41549Y16038D01*
X41579Y15992D01*
X41617Y15953D01*
X41662Y15921D01*
X41713Y15899D01*
X41713Y15899D01*
X41669Y15881D01*
X41623Y15851D01*
X41584Y15813D01*
X41553Y15768D01*
X41531Y15717D01*
X41520Y15663D01*
X41519Y15608D01*
X41529Y15554D01*
X41549Y15503D01*
X41579Y15457D01*
X41617Y15418D01*
X41662Y15386D01*
X41713Y15364D01*
X41766Y15353D01*
X41821Y15351D01*
X41875Y15361D01*
X41926Y15381D01*
X41973Y15410D01*
X42012Y15448D01*
X42044Y15493D01*
X42066Y15543D01*
X42079Y15597D01*
X42080Y15659D01*
X42080Y14153D01*
X42069Y14149D01*
X42023Y14119D01*
X41984Y14080D01*
X41953Y14035D01*
X41931Y13985D01*
X41920Y13931D01*
X41919Y13876D01*
X41929Y13822D01*
X41949Y13771D01*
X41979Y13725D01*
X42017Y13685D01*
X42062Y13654D01*
X42113Y13632D01*
X42166Y13620D01*
X42221Y13619D01*
X42275Y13629D01*
X42280Y13631D01*
X42270Y13581D01*
X42269Y13526D01*
X42279Y13472D01*
X42299Y13421D01*
X42329Y13375D01*
X42367Y13335D01*
X42412Y13304D01*
X42463Y13282D01*
X42516Y13270D01*
X42571Y13269D01*
X42625Y13279D01*
X42676Y13298D01*
X42723Y13328D01*
X42762Y13366D01*
X42794Y13411D01*
X42816Y13461D01*
X42829Y13514D01*
X42830Y13577D01*
X42830Y12398D01*
X42823Y12394D01*
X42784Y12355D01*
X42753Y12310D01*
X42731Y12260D01*
X42720Y12206D01*
X42719Y12151D01*
X42729Y12097D01*
X42749Y12046D01*
X42779Y12000D01*
X42817Y11960D01*
X42862Y11929D01*
X42913Y11907D01*
X42966Y11895D01*
X43021Y11894D01*
X43075Y11904D01*
X43126Y11923D01*
X43173Y11953D01*
X43212Y11991D01*
X43244Y12036D01*
X43266Y12086D01*
X43279Y12139D01*
X43280Y12202D01*
X43280Y11409D01*
X43258Y11418D01*
X43204Y11429D01*
X43149Y11430D01*
X43095Y11419D01*
X43044Y11399D01*
X42998Y11369D01*
X42959Y11330D01*
X42928Y11285D01*
X42906Y11235D01*
X42895Y11181D01*
X42894Y11126D01*
X42904Y11072D01*
X42924Y11021D01*
X42954Y10975D01*
X42992Y10935D01*
X43037Y10904D01*
X43088Y10882D01*
X43141Y10870D01*
X43196Y10869D01*
X43250Y10879D01*
X43301Y10898D01*
X43334Y10919D01*
X43367Y10885D01*
X43412Y10854D01*
X43463Y10832D01*
X43516Y10820D01*
X43571Y10819D01*
X43625Y10829D01*
X43676Y10848D01*
X43723Y10878D01*
X43762Y10916D01*
X43794Y10961D01*
X43816Y11011D01*
X43829Y11064D01*
X43830Y11127D01*
X43830Y10230D01*
X42630Y10230D01*
X42630Y12202D01*
X42619Y12256D01*
X42598Y12307D01*
X42568Y12352D01*
X42529Y12391D01*
X42483Y12422D01*
X42433Y12443D01*
X42379Y12454D01*
X42324Y12455D01*
X42270Y12444D01*
X42219Y12424D01*
X42173Y12394D01*
X42162Y12383D01*
X42154Y12391D01*
X42108Y12422D01*
X42058Y12443D01*
X42005Y12454D01*
X42005Y13327D01*
X41994Y13381D01*
X41973Y13432D01*
X41943Y13477D01*
X41904Y13516D01*
X41858Y13547D01*
X41808Y13568D01*
X41754Y13579D01*
X41699Y13580D01*
X41645Y13569D01*
X41594Y13549D01*
X41548Y13519D01*
X41520Y13491D01*
X41519Y13498D01*
X41498Y13549D01*
X41468Y13595D01*
X41430Y13633D01*
X41430Y15659D01*
X41419Y15713D01*
X41398Y15764D01*
X41368Y15810D01*
X41329Y15849D01*
X41283Y15879D01*
X41233Y15901D01*
X41179Y15912D01*
X41124Y15912D01*
X41070Y15902D01*
X41019Y15881D01*
X40973Y15851D01*
X40934Y15813D01*
X40903Y15768D01*
X40881Y15717D01*
X40870Y15663D01*
X40869Y15608D01*
X40879Y15554D01*
X40899Y15503D01*
X40929Y15457D01*
X40967Y15418D01*
X41012Y15386D01*
X41063Y15364D01*
X41116Y15353D01*
X41171Y15351D01*
X41225Y15361D01*
X41276Y15381D01*
X41323Y15410D01*
X41362Y15448D01*
X41394Y15493D01*
X41416Y15543D01*
X41429Y15597D01*
X41430Y15659D01*
X41430Y13633D01*
X41429Y13634D01*
X41383Y13664D01*
X41333Y13686D01*
X41279Y13697D01*
X41224Y13697D01*
X41170Y13687D01*
X41119Y13666D01*
X41073Y13636D01*
X41034Y13598D01*
X41003Y13553D01*
X40981Y13502D01*
X40970Y13448D01*
X40969Y13393D01*
X40979Y13339D01*
X40999Y13288D01*
X41029Y13242D01*
X41067Y13203D01*
X41112Y13171D01*
X41163Y13149D01*
X41216Y13138D01*
X41271Y13136D01*
X41325Y13146D01*
X41376Y13166D01*
X41423Y13195D01*
X41454Y13225D01*
X41454Y13222D01*
X41474Y13171D01*
X41494Y13140D01*
X41459Y13105D01*
X41428Y13060D01*
X41406Y13010D01*
X41395Y12956D01*
X41394Y12901D01*
X41404Y12847D01*
X41424Y12796D01*
X41454Y12750D01*
X41492Y12710D01*
X41537Y12679D01*
X41588Y12657D01*
X41641Y12645D01*
X41696Y12644D01*
X41750Y12654D01*
X41801Y12673D01*
X41848Y12703D01*
X41887Y12741D01*
X41919Y12786D01*
X41941Y12836D01*
X41954Y12889D01*
X41955Y12952D01*
X41944Y13006D01*
X41923Y13057D01*
X41905Y13084D01*
X41937Y13116D01*
X41969Y13161D01*
X41991Y13211D01*
X42004Y13264D01*
X42005Y13327D01*
X42005Y12454D01*
X42004Y12454D01*
X41949Y12455D01*
X41895Y12444D01*
X41844Y12424D01*
X41798Y12394D01*
X41759Y12355D01*
X41728Y12310D01*
X41706Y12260D01*
X41695Y12206D01*
X41694Y12151D01*
X41704Y12097D01*
X41724Y12046D01*
X41754Y12000D01*
X41792Y11960D01*
X41837Y11929D01*
X41888Y11907D01*
X41941Y11895D01*
X41996Y11894D01*
X42050Y11904D01*
X42101Y11923D01*
X42148Y11953D01*
X42162Y11966D01*
X42167Y11960D01*
X42212Y11929D01*
X42263Y11907D01*
X42316Y11895D01*
X42371Y11894D01*
X42425Y11904D01*
X42476Y11923D01*
X42523Y11953D01*
X42562Y11991D01*
X42594Y12036D01*
X42616Y12086D01*
X42629Y12139D01*
X42630Y12202D01*
X42630Y10230D01*
X41679Y10230D01*
X41680Y10277D01*
X41669Y10331D01*
X41648Y10382D01*
X41630Y10409D01*
X41630Y11459D01*
X41619Y11513D01*
X41598Y11564D01*
X41568Y11610D01*
X41529Y11649D01*
X41483Y11679D01*
X41433Y11701D01*
X41379Y11712D01*
X41324Y11712D01*
X41270Y11702D01*
X41219Y11681D01*
X41173Y11651D01*
X41134Y11613D01*
X41103Y11568D01*
X41081Y11517D01*
X41070Y11463D01*
X41069Y11408D01*
X41079Y11354D01*
X41099Y11303D01*
X41129Y11257D01*
X41167Y11218D01*
X41212Y11186D01*
X41263Y11164D01*
X41316Y11153D01*
X41371Y11151D01*
X41425Y11161D01*
X41476Y11181D01*
X41523Y11210D01*
X41562Y11248D01*
X41594Y11293D01*
X41616Y11343D01*
X41629Y11397D01*
X41630Y11459D01*
X41630Y10409D01*
X41618Y10427D01*
X41579Y10466D01*
X41533Y10497D01*
X41483Y10518D01*
X41429Y10529D01*
X41374Y10530D01*
X41320Y10519D01*
X41269Y10499D01*
X41223Y10469D01*
X41184Y10430D01*
X41153Y10385D01*
X41131Y10335D01*
X41120Y10281D01*
X41119Y10230D01*
X40823Y10230D01*
X40827Y10236D01*
X40849Y10286D01*
X40862Y10339D01*
X40863Y10402D01*
X40852Y10456D01*
X40831Y10507D01*
X40801Y10552D01*
X40762Y10591D01*
X40730Y10613D01*
X40730Y17427D01*
X40719Y17481D01*
X40698Y17532D01*
X40668Y17577D01*
X40629Y17616D01*
X40583Y17647D01*
X40533Y17668D01*
X40479Y17679D01*
X40424Y17680D01*
X40370Y17669D01*
X40319Y17649D01*
X40273Y17619D01*
X40234Y17580D01*
X40203Y17535D01*
X40181Y17485D01*
X40170Y17431D01*
X40169Y17376D01*
X40179Y17322D01*
X40199Y17271D01*
X40229Y17225D01*
X40267Y17185D01*
X40312Y17154D01*
X40363Y17132D01*
X40416Y17120D01*
X40471Y17119D01*
X40525Y17129D01*
X40576Y17148D01*
X40623Y17178D01*
X40662Y17216D01*
X40694Y17261D01*
X40716Y17311D01*
X40729Y17364D01*
X40730Y17427D01*
X40730Y10613D01*
X40716Y10622D01*
X40666Y10643D01*
X40612Y10654D01*
X40557Y10655D01*
X40530Y10649D01*
X40530Y14259D01*
X40519Y14313D01*
X40498Y14364D01*
X40468Y14410D01*
X40429Y14449D01*
X40383Y14479D01*
X40333Y14501D01*
X40279Y14512D01*
X40224Y14512D01*
X40170Y14502D01*
X40119Y14481D01*
X40073Y14451D01*
X40034Y14413D01*
X40030Y14406D01*
X40030Y15359D01*
X40019Y15413D01*
X39998Y15464D01*
X39968Y15510D01*
X39929Y15549D01*
X39883Y15579D01*
X39880Y15581D01*
X39880Y16627D01*
X39869Y16681D01*
X39848Y16732D01*
X39818Y16777D01*
X39779Y16816D01*
X39733Y16847D01*
X39683Y16868D01*
X39629Y16879D01*
X39574Y16880D01*
X39520Y16869D01*
X39469Y16849D01*
X39423Y16819D01*
X39399Y16796D01*
X39379Y16816D01*
X39333Y16847D01*
X39283Y16868D01*
X39229Y16879D01*
X39174Y16880D01*
X39129Y16871D01*
X39130Y16877D01*
X39119Y16931D01*
X39098Y16982D01*
X39068Y17027D01*
X39029Y17066D01*
X38983Y17097D01*
X38933Y17118D01*
X38879Y17129D01*
X38824Y17130D01*
X38770Y17119D01*
X38719Y17099D01*
X38673Y17069D01*
X38634Y17030D01*
X38603Y16985D01*
X38581Y16935D01*
X38570Y16881D01*
X38569Y16826D01*
X38579Y16772D01*
X38599Y16721D01*
X38629Y16675D01*
X38667Y16635D01*
X38712Y16604D01*
X38763Y16582D01*
X38816Y16570D01*
X38871Y16569D01*
X38919Y16577D01*
X38919Y16576D01*
X38929Y16522D01*
X38949Y16471D01*
X38979Y16425D01*
X39017Y16385D01*
X39062Y16354D01*
X39113Y16332D01*
X39166Y16320D01*
X39221Y16319D01*
X39275Y16329D01*
X39326Y16348D01*
X39373Y16378D01*
X39400Y16403D01*
X39417Y16385D01*
X39462Y16354D01*
X39513Y16332D01*
X39566Y16320D01*
X39621Y16319D01*
X39675Y16329D01*
X39726Y16348D01*
X39773Y16378D01*
X39812Y16416D01*
X39844Y16461D01*
X39866Y16511D01*
X39879Y16564D01*
X39880Y16627D01*
X39880Y15581D01*
X39833Y15601D01*
X39779Y15612D01*
X39724Y15612D01*
X39670Y15602D01*
X39619Y15581D01*
X39573Y15551D01*
X39534Y15513D01*
X39503Y15468D01*
X39481Y15417D01*
X39470Y15363D01*
X39469Y15308D01*
X39479Y15254D01*
X39499Y15203D01*
X39529Y15157D01*
X39567Y15118D01*
X39612Y15086D01*
X39663Y15064D01*
X39716Y15053D01*
X39771Y15051D01*
X39825Y15061D01*
X39876Y15081D01*
X39923Y15110D01*
X39962Y15148D01*
X39994Y15193D01*
X40016Y15243D01*
X40029Y15297D01*
X40030Y15359D01*
X40030Y14406D01*
X40003Y14368D01*
X39981Y14317D01*
X39970Y14263D01*
X39969Y14208D01*
X39979Y14154D01*
X39999Y14103D01*
X40029Y14057D01*
X40067Y14018D01*
X40112Y13986D01*
X40163Y13964D01*
X40216Y13953D01*
X40271Y13951D01*
X40325Y13961D01*
X40376Y13981D01*
X40423Y14010D01*
X40462Y14048D01*
X40494Y14093D01*
X40516Y14143D01*
X40529Y14197D01*
X40530Y14259D01*
X40530Y10649D01*
X40503Y10644D01*
X40452Y10624D01*
X40406Y10594D01*
X40367Y10555D01*
X40336Y10510D01*
X40314Y10460D01*
X40303Y10406D01*
X40302Y10351D01*
X40312Y10297D01*
X40332Y10246D01*
X40343Y10230D01*
X39997Y10230D01*
X39997Y10777D01*
X39986Y10831D01*
X39965Y10882D01*
X39947Y10909D01*
X39947Y12727D01*
X39936Y12781D01*
X39915Y12832D01*
X39885Y12877D01*
X39846Y12916D01*
X39800Y12947D01*
X39750Y12968D01*
X39696Y12979D01*
X39641Y12980D01*
X39587Y12969D01*
X39536Y12949D01*
X39490Y12919D01*
X39451Y12880D01*
X39420Y12835D01*
X39412Y12817D01*
X39412Y13727D01*
X39401Y13781D01*
X39380Y13832D01*
X39350Y13877D01*
X39330Y13898D01*
X39330Y15359D01*
X39319Y15413D01*
X39298Y15464D01*
X39268Y15510D01*
X39229Y15549D01*
X39183Y15579D01*
X39133Y15601D01*
X39079Y15612D01*
X39024Y15612D01*
X38970Y15602D01*
X38919Y15581D01*
X38873Y15551D01*
X38834Y15513D01*
X38803Y15468D01*
X38781Y15417D01*
X38770Y15363D01*
X38769Y15308D01*
X38779Y15254D01*
X38799Y15203D01*
X38829Y15157D01*
X38867Y15118D01*
X38912Y15086D01*
X38963Y15064D01*
X39016Y15053D01*
X39071Y15051D01*
X39125Y15061D01*
X39176Y15081D01*
X39223Y15110D01*
X39262Y15148D01*
X39294Y15193D01*
X39316Y15243D01*
X39329Y15297D01*
X39330Y15359D01*
X39330Y13898D01*
X39311Y13916D01*
X39266Y13947D01*
X39215Y13968D01*
X39161Y13979D01*
X39107Y13980D01*
X39053Y13969D01*
X39002Y13949D01*
X38956Y13919D01*
X38916Y13880D01*
X38885Y13835D01*
X38864Y13785D01*
X38852Y13731D01*
X38852Y13676D01*
X38862Y13622D01*
X38882Y13571D01*
X38912Y13525D01*
X38950Y13485D01*
X38995Y13454D01*
X39045Y13432D01*
X39099Y13420D01*
X39154Y13419D01*
X39208Y13429D01*
X39259Y13448D01*
X39305Y13478D01*
X39345Y13516D01*
X39377Y13561D01*
X39399Y13611D01*
X39411Y13664D01*
X39412Y13727D01*
X39412Y12817D01*
X39398Y12785D01*
X39387Y12731D01*
X39386Y12676D01*
X39396Y12622D01*
X39416Y12571D01*
X39446Y12525D01*
X39484Y12485D01*
X39529Y12454D01*
X39580Y12432D01*
X39633Y12420D01*
X39688Y12419D01*
X39742Y12429D01*
X39793Y12448D01*
X39840Y12478D01*
X39879Y12516D01*
X39911Y12561D01*
X39933Y12611D01*
X39946Y12664D01*
X39947Y12727D01*
X39947Y10909D01*
X39935Y10927D01*
X39896Y10966D01*
X39850Y10997D01*
X39800Y11018D01*
X39746Y11029D01*
X39691Y11030D01*
X39637Y11019D01*
X39586Y10999D01*
X39540Y10969D01*
X39501Y10930D01*
X39470Y10885D01*
X39448Y10835D01*
X39437Y10781D01*
X39436Y10726D01*
X39446Y10672D01*
X39466Y10621D01*
X39496Y10575D01*
X39534Y10535D01*
X39579Y10504D01*
X39630Y10482D01*
X39683Y10470D01*
X39738Y10469D01*
X39792Y10479D01*
X39843Y10498D01*
X39890Y10528D01*
X39929Y10566D01*
X39961Y10611D01*
X39983Y10661D01*
X39996Y10714D01*
X39997Y10777D01*
X39997Y10230D01*
X38947Y10230D01*
X38947Y11777D01*
X38936Y11831D01*
X38915Y11882D01*
X38885Y11927D01*
X38846Y11966D01*
X38800Y11997D01*
X38750Y12018D01*
X38696Y12029D01*
X38641Y12030D01*
X38587Y12019D01*
X38536Y11999D01*
X38490Y11969D01*
X38451Y11930D01*
X38420Y11885D01*
X38398Y11835D01*
X38387Y11781D01*
X38386Y11726D01*
X38396Y11672D01*
X38416Y11621D01*
X38446Y11575D01*
X38484Y11535D01*
X38529Y11504D01*
X38580Y11482D01*
X38633Y11470D01*
X38688Y11469D01*
X38742Y11479D01*
X38793Y11498D01*
X38840Y11528D01*
X38879Y11566D01*
X38911Y11611D01*
X38933Y11661D01*
X38946Y11714D01*
X38947Y11777D01*
X38947Y10230D01*
X38205Y10230D01*
X38205Y17489D01*
X38189Y17567D01*
X38159Y17641D01*
X38115Y17707D01*
X38059Y17763D01*
X37993Y17807D01*
X37920Y17838D01*
X37842Y17854D01*
X37763Y17855D01*
X37685Y17840D01*
X37611Y17810D01*
X37544Y17767D01*
X37488Y17711D01*
X37443Y17646D01*
X37412Y17573D01*
X37395Y17495D01*
X37394Y17415D01*
X37408Y17337D01*
X37438Y17263D01*
X37481Y17197D01*
X37536Y17140D01*
X37601Y17094D01*
X37674Y17062D01*
X37751Y17045D01*
X37831Y17044D01*
X37909Y17058D01*
X37983Y17086D01*
X38050Y17129D01*
X38108Y17184D01*
X38153Y17248D01*
X38186Y17321D01*
X38203Y17398D01*
X38205Y17489D01*
X38205Y10230D01*
X37205Y10230D01*
X37205Y17489D01*
X37189Y17567D01*
X37159Y17641D01*
X37115Y17707D01*
X37059Y17763D01*
X36993Y17807D01*
X36920Y17838D01*
X36842Y17854D01*
X36763Y17855D01*
X36685Y17840D01*
X36611Y17810D01*
X36544Y17767D01*
X36488Y17711D01*
X36443Y17646D01*
X36412Y17573D01*
X36395Y17495D01*
X36394Y17415D01*
X36408Y17337D01*
X36438Y17263D01*
X36481Y17197D01*
X36536Y17140D01*
X36601Y17094D01*
X36674Y17062D01*
X36751Y17045D01*
X36831Y17044D01*
X36909Y17058D01*
X36983Y17086D01*
X37050Y17129D01*
X37108Y17184D01*
X37153Y17248D01*
X37186Y17321D01*
X37203Y17398D01*
X37205Y17489D01*
X37205Y10230D01*
X37055Y10230D01*
X37055Y13627D01*
X37044Y13681D01*
X37023Y13732D01*
X36993Y13777D01*
X36954Y13816D01*
X36908Y13847D01*
X36858Y13868D01*
X36804Y13879D01*
X36749Y13880D01*
X36730Y13876D01*
X36730Y14827D01*
X36719Y14881D01*
X36698Y14932D01*
X36668Y14977D01*
X36629Y15016D01*
X36583Y15047D01*
X36533Y15068D01*
X36479Y15079D01*
X36424Y15080D01*
X36370Y15069D01*
X36319Y15049D01*
X36273Y15019D01*
X36234Y14980D01*
X36203Y14935D01*
X36181Y14885D01*
X36170Y14831D01*
X36169Y14776D01*
X36179Y14722D01*
X36199Y14671D01*
X36229Y14625D01*
X36267Y14585D01*
X36312Y14554D01*
X36363Y14532D01*
X36416Y14520D01*
X36471Y14519D01*
X36525Y14529D01*
X36576Y14548D01*
X36623Y14578D01*
X36662Y14616D01*
X36694Y14661D01*
X36716Y14711D01*
X36729Y14764D01*
X36730Y14827D01*
X36730Y13876D01*
X36695Y13869D01*
X36644Y13849D01*
X36598Y13819D01*
X36559Y13780D01*
X36528Y13735D01*
X36506Y13685D01*
X36495Y13631D01*
X36494Y13576D01*
X36504Y13522D01*
X36524Y13471D01*
X36554Y13425D01*
X36592Y13385D01*
X36637Y13354D01*
X36688Y13332D01*
X36741Y13320D01*
X36796Y13319D01*
X36850Y13329D01*
X36901Y13348D01*
X36948Y13378D01*
X36987Y13416D01*
X37019Y13461D01*
X37041Y13511D01*
X37054Y13564D01*
X37055Y13627D01*
X37055Y10230D01*
X36230Y10230D01*
X36230Y14327D01*
X36219Y14381D01*
X36198Y14432D01*
X36168Y14477D01*
X36129Y14516D01*
X36083Y14547D01*
X36033Y14568D01*
X35979Y14579D01*
X35924Y14580D01*
X35870Y14569D01*
X35819Y14549D01*
X35773Y14519D01*
X35734Y14480D01*
X35703Y14435D01*
X35681Y14385D01*
X35670Y14331D01*
X35669Y14276D01*
X35679Y14222D01*
X35699Y14171D01*
X35729Y14125D01*
X35767Y14085D01*
X35812Y14054D01*
X35863Y14032D01*
X35916Y14020D01*
X35971Y14019D01*
X36025Y14029D01*
X36076Y14048D01*
X36123Y14078D01*
X36162Y14116D01*
X36194Y14161D01*
X36216Y14211D01*
X36229Y14264D01*
X36230Y14327D01*
X36230Y10230D01*
X35205Y10230D01*
X35205Y17489D01*
X35189Y17567D01*
X35159Y17641D01*
X35115Y17707D01*
X35059Y17763D01*
X34993Y17807D01*
X34920Y17838D01*
X34842Y17854D01*
X34763Y17855D01*
X34685Y17840D01*
X34611Y17810D01*
X34544Y17767D01*
X34488Y17711D01*
X34443Y17646D01*
X34412Y17573D01*
X34395Y17495D01*
X34394Y17415D01*
X34408Y17337D01*
X34438Y17263D01*
X34481Y17197D01*
X34536Y17140D01*
X34601Y17094D01*
X34674Y17062D01*
X34751Y17045D01*
X34831Y17044D01*
X34909Y17058D01*
X34983Y17086D01*
X35050Y17129D01*
X35108Y17184D01*
X35153Y17248D01*
X35186Y17321D01*
X35203Y17398D01*
X35205Y17489D01*
X35205Y10230D01*
X34205Y10230D01*
X34205Y17489D01*
X34189Y17567D01*
X34159Y17641D01*
X34115Y17707D01*
X34059Y17763D01*
X33993Y17807D01*
X33920Y17838D01*
X33842Y17854D01*
X33763Y17855D01*
X33685Y17840D01*
X33611Y17810D01*
X33544Y17767D01*
X33488Y17711D01*
X33443Y17646D01*
X33412Y17573D01*
X33395Y17495D01*
X33394Y17415D01*
X33408Y17337D01*
X33438Y17263D01*
X33481Y17197D01*
X33536Y17140D01*
X33601Y17094D01*
X33674Y17062D01*
X33751Y17045D01*
X33831Y17044D01*
X33909Y17058D01*
X33983Y17086D01*
X34050Y17129D01*
X34108Y17184D01*
X34153Y17248D01*
X34186Y17321D01*
X34203Y17398D01*
X34205Y17489D01*
X34205Y10230D01*
X33205Y10230D01*
X33205Y17489D01*
X33189Y17567D01*
X33159Y17641D01*
X33115Y17707D01*
X33059Y17763D01*
X32993Y17807D01*
X32920Y17838D01*
X32842Y17854D01*
X32763Y17855D01*
X32685Y17840D01*
X32611Y17810D01*
X32544Y17767D01*
X32488Y17711D01*
X32443Y17646D01*
X32412Y17573D01*
X32395Y17495D01*
X32394Y17415D01*
X32408Y17337D01*
X32438Y17263D01*
X32481Y17197D01*
X32536Y17140D01*
X32601Y17094D01*
X32674Y17062D01*
X32751Y17045D01*
X32831Y17044D01*
X32909Y17058D01*
X32983Y17086D01*
X33050Y17129D01*
X33108Y17184D01*
X33153Y17248D01*
X33186Y17321D01*
X33203Y17398D01*
X33205Y17489D01*
X33205Y10230D01*
X32855Y10230D01*
X32855Y10939D01*
X32839Y11017D01*
X32830Y11040D01*
X32830Y14777D01*
X32819Y14831D01*
X32798Y14882D01*
X32768Y14927D01*
X32729Y14966D01*
X32683Y14997D01*
X32633Y15018D01*
X32579Y15029D01*
X32524Y15030D01*
X32470Y15019D01*
X32419Y14999D01*
X32373Y14969D01*
X32334Y14930D01*
X32303Y14885D01*
X32281Y14835D01*
X32270Y14781D01*
X32269Y14726D01*
X32279Y14672D01*
X32299Y14621D01*
X32329Y14575D01*
X32367Y14535D01*
X32412Y14504D01*
X32463Y14482D01*
X32516Y14470D01*
X32571Y14469D01*
X32625Y14479D01*
X32676Y14498D01*
X32723Y14528D01*
X32762Y14566D01*
X32794Y14611D01*
X32816Y14661D01*
X32829Y14714D01*
X32830Y14777D01*
X32830Y11040D01*
X32809Y11091D01*
X32765Y11157D01*
X32709Y11213D01*
X32643Y11257D01*
X32570Y11288D01*
X32555Y11291D01*
X32555Y12852D01*
X32544Y12906D01*
X32523Y12957D01*
X32493Y13002D01*
X32454Y13041D01*
X32408Y13072D01*
X32358Y13093D01*
X32312Y13103D01*
X32312Y13727D01*
X32301Y13781D01*
X32280Y13832D01*
X32250Y13877D01*
X32211Y13916D01*
X32205Y13921D01*
X32205Y17186D01*
X32205Y17737D01*
X32200Y17762D01*
X32190Y17786D01*
X32176Y17807D01*
X32158Y17825D01*
X32137Y17839D01*
X32113Y17849D01*
X32088Y17854D01*
X32063Y17855D01*
X31512Y17855D01*
X31487Y17850D01*
X31463Y17840D01*
X31442Y17826D01*
X31424Y17808D01*
X31410Y17787D01*
X31400Y17763D01*
X31395Y17738D01*
X31394Y17713D01*
X31394Y17162D01*
X31399Y17137D01*
X31409Y17113D01*
X31423Y17092D01*
X31441Y17074D01*
X31462Y17060D01*
X31486Y17050D01*
X31511Y17045D01*
X31536Y17044D01*
X32087Y17044D01*
X32112Y17049D01*
X32136Y17059D01*
X32157Y17073D01*
X32175Y17091D01*
X32189Y17112D01*
X32199Y17136D01*
X32204Y17161D01*
X32205Y17186D01*
X32205Y13921D01*
X32166Y13947D01*
X32115Y13968D01*
X32061Y13979D01*
X32007Y13980D01*
X31953Y13969D01*
X31902Y13949D01*
X31856Y13919D01*
X31816Y13880D01*
X31785Y13835D01*
X31764Y13785D01*
X31752Y13731D01*
X31752Y13676D01*
X31762Y13622D01*
X31782Y13571D01*
X31812Y13525D01*
X31850Y13485D01*
X31895Y13454D01*
X31945Y13432D01*
X31999Y13420D01*
X32054Y13419D01*
X32108Y13429D01*
X32159Y13448D01*
X32205Y13478D01*
X32245Y13516D01*
X32277Y13561D01*
X32299Y13611D01*
X32311Y13664D01*
X32312Y13727D01*
X32312Y13103D01*
X32304Y13104D01*
X32249Y13105D01*
X32195Y13094D01*
X32144Y13074D01*
X32098Y13044D01*
X32059Y13005D01*
X32028Y12960D01*
X32006Y12910D01*
X31995Y12856D01*
X31994Y12801D01*
X32004Y12747D01*
X32024Y12696D01*
X32054Y12650D01*
X32092Y12610D01*
X32137Y12579D01*
X32188Y12557D01*
X32241Y12545D01*
X32296Y12544D01*
X32350Y12554D01*
X32401Y12573D01*
X32448Y12603D01*
X32487Y12641D01*
X32519Y12686D01*
X32541Y12736D01*
X32554Y12789D01*
X32555Y12852D01*
X32555Y11291D01*
X32492Y11304D01*
X32413Y11305D01*
X32335Y11290D01*
X32261Y11260D01*
X32194Y11217D01*
X32138Y11161D01*
X32093Y11096D01*
X32062Y11023D01*
X32045Y10945D01*
X32044Y10865D01*
X32058Y10787D01*
X32088Y10713D01*
X32131Y10647D01*
X32186Y10590D01*
X32251Y10544D01*
X32324Y10512D01*
X32401Y10495D01*
X32481Y10494D01*
X32559Y10508D01*
X32633Y10536D01*
X32700Y10579D01*
X32758Y10634D01*
X32803Y10698D01*
X32836Y10771D01*
X32853Y10848D01*
X32855Y10939D01*
X32855Y10230D01*
X31905Y10230D01*
X31905Y13227D01*
X31894Y13281D01*
X31873Y13332D01*
X31843Y13377D01*
X31804Y13416D01*
X31758Y13447D01*
X31708Y13468D01*
X31654Y13479D01*
X31599Y13480D01*
X31545Y13469D01*
X31494Y13449D01*
X31448Y13419D01*
X31409Y13380D01*
X31378Y13335D01*
X31374Y13326D01*
X31333Y13343D01*
X31279Y13354D01*
X31224Y13355D01*
X31170Y13344D01*
X31119Y13324D01*
X31073Y13294D01*
X31049Y13271D01*
X31029Y13291D01*
X30983Y13322D01*
X30933Y13343D01*
X30879Y13354D01*
X30824Y13355D01*
X30780Y13346D01*
X30780Y16077D01*
X30769Y16131D01*
X30748Y16182D01*
X30718Y16227D01*
X30679Y16266D01*
X30633Y16297D01*
X30583Y16318D01*
X30529Y16329D01*
X30474Y16330D01*
X30420Y16319D01*
X30369Y16299D01*
X30323Y16269D01*
X30284Y16230D01*
X30253Y16185D01*
X30231Y16135D01*
X30220Y16081D01*
X30219Y16026D01*
X30229Y15972D01*
X30249Y15921D01*
X30279Y15875D01*
X30317Y15835D01*
X30362Y15804D01*
X30413Y15782D01*
X30466Y15770D01*
X30521Y15769D01*
X30575Y15779D01*
X30626Y15798D01*
X30673Y15828D01*
X30712Y15866D01*
X30744Y15911D01*
X30766Y15961D01*
X30779Y16014D01*
X30780Y16077D01*
X30780Y13346D01*
X30770Y13344D01*
X30719Y13324D01*
X30673Y13294D01*
X30634Y13255D01*
X30603Y13210D01*
X30581Y13160D01*
X30570Y13106D01*
X30569Y13051D01*
X30579Y12997D01*
X30599Y12946D01*
X30629Y12900D01*
X30667Y12860D01*
X30712Y12829D01*
X30763Y12807D01*
X30816Y12795D01*
X30871Y12794D01*
X30925Y12804D01*
X30976Y12823D01*
X31023Y12853D01*
X31050Y12878D01*
X31067Y12860D01*
X31112Y12829D01*
X31163Y12807D01*
X31216Y12795D01*
X31271Y12794D01*
X31325Y12804D01*
X31376Y12823D01*
X31423Y12853D01*
X31462Y12891D01*
X31494Y12936D01*
X31500Y12948D01*
X31538Y12932D01*
X31591Y12920D01*
X31646Y12919D01*
X31700Y12929D01*
X31751Y12948D01*
X31798Y12978D01*
X31837Y13016D01*
X31869Y13061D01*
X31891Y13111D01*
X31904Y13164D01*
X31905Y13227D01*
X31905Y10230D01*
X31855Y10230D01*
X31855Y10636D01*
X31855Y11187D01*
X31850Y11212D01*
X31840Y11236D01*
X31826Y11257D01*
X31808Y11275D01*
X31787Y11289D01*
X31763Y11299D01*
X31738Y11304D01*
X31713Y11305D01*
X31162Y11305D01*
X31137Y11300D01*
X31113Y11290D01*
X31092Y11276D01*
X31074Y11258D01*
X31060Y11237D01*
X31050Y11213D01*
X31045Y11188D01*
X31044Y11163D01*
X31044Y10612D01*
X31049Y10587D01*
X31059Y10563D01*
X31073Y10542D01*
X31091Y10524D01*
X31112Y10510D01*
X31136Y10500D01*
X31161Y10495D01*
X31186Y10494D01*
X31737Y10494D01*
X31762Y10499D01*
X31786Y10509D01*
X31807Y10523D01*
X31825Y10541D01*
X31839Y10562D01*
X31849Y10586D01*
X31854Y10611D01*
X31855Y10636D01*
X31855Y10230D01*
X30355Y10230D01*
X30355Y10636D01*
X30355Y11109D01*
X30355Y11939D01*
X30355Y12939D01*
X30339Y13017D01*
X30309Y13091D01*
X30265Y13157D01*
X30209Y13213D01*
X30143Y13257D01*
X30070Y13288D01*
X29992Y13304D01*
X29913Y13305D01*
X29835Y13290D01*
X29761Y13260D01*
X29694Y13217D01*
X29680Y13202D01*
X29680Y15444D01*
X29669Y15498D01*
X29648Y15549D01*
X29618Y15595D01*
X29579Y15634D01*
X29533Y15664D01*
X29483Y15686D01*
X29429Y15697D01*
X29374Y15697D01*
X29320Y15687D01*
X29269Y15666D01*
X29223Y15636D01*
X29184Y15598D01*
X29153Y15553D01*
X29131Y15502D01*
X29120Y15448D01*
X29119Y15393D01*
X29129Y15339D01*
X29149Y15288D01*
X29179Y15242D01*
X29217Y15203D01*
X29262Y15171D01*
X29313Y15149D01*
X29366Y15138D01*
X29421Y15136D01*
X29475Y15146D01*
X29526Y15166D01*
X29573Y15195D01*
X29612Y15233D01*
X29644Y15278D01*
X29666Y15328D01*
X29679Y15382D01*
X29680Y15444D01*
X29680Y13202D01*
X29638Y13161D01*
X29593Y13096D01*
X29562Y13023D01*
X29545Y12945D01*
X29544Y12865D01*
X29558Y12787D01*
X29588Y12713D01*
X29631Y12647D01*
X29686Y12590D01*
X29751Y12544D01*
X29824Y12512D01*
X29901Y12495D01*
X29981Y12494D01*
X30059Y12508D01*
X30133Y12536D01*
X30200Y12579D01*
X30258Y12634D01*
X30303Y12698D01*
X30336Y12771D01*
X30353Y12848D01*
X30355Y12939D01*
X30355Y11939D01*
X30339Y12017D01*
X30309Y12091D01*
X30265Y12157D01*
X30209Y12213D01*
X30143Y12257D01*
X30070Y12288D01*
X29992Y12304D01*
X29913Y12305D01*
X29835Y12290D01*
X29761Y12260D01*
X29694Y12217D01*
X29638Y12161D01*
X29593Y12096D01*
X29562Y12023D01*
X29545Y11945D01*
X29544Y11865D01*
X29558Y11787D01*
X29588Y11713D01*
X29631Y11647D01*
X29686Y11590D01*
X29751Y11544D01*
X29824Y11512D01*
X29901Y11495D01*
X29981Y11494D01*
X30059Y11508D01*
X30133Y11536D01*
X30200Y11579D01*
X30258Y11634D01*
X30303Y11698D01*
X30336Y11771D01*
X30353Y11848D01*
X30355Y11939D01*
X30355Y11109D01*
X30355Y11187D01*
X30350Y11212D01*
X30340Y11236D01*
X30326Y11257D01*
X30308Y11275D01*
X30287Y11289D01*
X30263Y11299D01*
X30238Y11304D01*
X30213Y11305D01*
X29662Y11305D01*
X29637Y11300D01*
X29613Y11290D01*
X29592Y11276D01*
X29574Y11258D01*
X29560Y11237D01*
X29550Y11213D01*
X29545Y11188D01*
X29544Y11163D01*
X29544Y10612D01*
X29549Y10587D01*
X29559Y10563D01*
X29573Y10542D01*
X29591Y10524D01*
X29612Y10510D01*
X29636Y10500D01*
X29661Y10495D01*
X29686Y10494D01*
X30237Y10494D01*
X30262Y10499D01*
X30286Y10509D01*
X30307Y10523D01*
X30325Y10541D01*
X30339Y10562D01*
X30349Y10586D01*
X30354Y10611D01*
X30355Y10636D01*
X30355Y10230D01*
X26080Y10230D01*
X26080Y17977D01*
X26069Y18031D01*
X26048Y18082D01*
X26018Y18127D01*
X25979Y18166D01*
X25933Y18197D01*
X25883Y18218D01*
X25829Y18229D01*
X25774Y18230D01*
X25720Y18219D01*
X25669Y18199D01*
X25646Y18184D01*
X25618Y18227D01*
X25579Y18266D01*
X25533Y18297D01*
X25483Y18318D01*
X25429Y18329D01*
X25374Y18330D01*
X25320Y18319D01*
X25269Y18299D01*
X25223Y18269D01*
X25184Y18230D01*
X25153Y18185D01*
X25131Y18135D01*
X25120Y18081D01*
X25119Y18026D01*
X25129Y17972D01*
X25149Y17921D01*
X25179Y17875D01*
X25217Y17835D01*
X25262Y17804D01*
X25313Y17782D01*
X25366Y17770D01*
X25421Y17769D01*
X25475Y17779D01*
X25526Y17798D01*
X25553Y17815D01*
X25579Y17775D01*
X25617Y17735D01*
X25662Y17704D01*
X25713Y17682D01*
X25766Y17670D01*
X25821Y17669D01*
X25875Y17679D01*
X25926Y17698D01*
X25973Y17728D01*
X26012Y17766D01*
X26044Y17811D01*
X26066Y17861D01*
X26079Y17914D01*
X26080Y17977D01*
X26080Y10230D01*
X25812Y10230D01*
X25812Y16777D01*
X25812Y17427D01*
X25801Y17481D01*
X25780Y17532D01*
X25750Y17577D01*
X25711Y17616D01*
X25666Y17647D01*
X25615Y17668D01*
X25561Y17679D01*
X25507Y17680D01*
X25453Y17669D01*
X25402Y17649D01*
X25356Y17619D01*
X25316Y17580D01*
X25285Y17535D01*
X25264Y17485D01*
X25252Y17431D01*
X25252Y17376D01*
X25262Y17322D01*
X25282Y17271D01*
X25312Y17225D01*
X25350Y17185D01*
X25395Y17154D01*
X25445Y17132D01*
X25499Y17120D01*
X25554Y17119D01*
X25608Y17129D01*
X25659Y17148D01*
X25705Y17178D01*
X25745Y17216D01*
X25777Y17261D01*
X25799Y17311D01*
X25811Y17364D01*
X25812Y17427D01*
X25812Y16777D01*
X25801Y16831D01*
X25780Y16882D01*
X25750Y16927D01*
X25711Y16966D01*
X25666Y16997D01*
X25615Y17018D01*
X25561Y17029D01*
X25507Y17030D01*
X25453Y17019D01*
X25402Y16999D01*
X25356Y16969D01*
X25316Y16930D01*
X25285Y16885D01*
X25264Y16835D01*
X25252Y16781D01*
X25252Y16726D01*
X25262Y16672D01*
X25282Y16621D01*
X25312Y16575D01*
X25350Y16535D01*
X25395Y16504D01*
X25445Y16482D01*
X25499Y16470D01*
X25554Y16469D01*
X25608Y16479D01*
X25659Y16498D01*
X25705Y16528D01*
X25745Y16566D01*
X25777Y16611D01*
X25799Y16661D01*
X25811Y16714D01*
X25812Y16777D01*
X25812Y10230D01*
X24680Y10230D01*
X24680Y11327D01*
X24669Y11381D01*
X24648Y11432D01*
X24618Y11477D01*
X24579Y11516D01*
X24533Y11547D01*
X24483Y11568D01*
X24429Y11579D01*
X24374Y11580D01*
X24320Y11569D01*
X24269Y11549D01*
X24223Y11519D01*
X24184Y11480D01*
X24153Y11435D01*
X24131Y11385D01*
X24120Y11331D01*
X24119Y11276D01*
X24129Y11222D01*
X24149Y11171D01*
X24179Y11125D01*
X24217Y11085D01*
X24262Y11054D01*
X24313Y11032D01*
X24366Y11020D01*
X24421Y11019D01*
X24475Y11029D01*
X24526Y11048D01*
X24573Y11078D01*
X24612Y11116D01*
X24644Y11161D01*
X24666Y11211D01*
X24679Y11264D01*
X24680Y11327D01*
X24680Y10230D01*
X23680Y10230D01*
X23680Y15577D01*
X23674Y15603D01*
X23674Y17802D01*
X23664Y17856D01*
X23643Y17907D01*
X23612Y17952D01*
X23574Y17991D01*
X23528Y18022D01*
X23478Y18043D01*
X23424Y18054D01*
X23369Y18055D01*
X23315Y18044D01*
X23264Y18024D01*
X23218Y17994D01*
X23179Y17955D01*
X23148Y17910D01*
X23126Y17860D01*
X23115Y17806D01*
X23114Y17751D01*
X23124Y17697D01*
X23144Y17646D01*
X23174Y17600D01*
X23212Y17560D01*
X23257Y17529D01*
X23307Y17507D01*
X23361Y17495D01*
X23416Y17494D01*
X23470Y17504D01*
X23521Y17523D01*
X23568Y17553D01*
X23607Y17591D01*
X23639Y17636D01*
X23661Y17686D01*
X23674Y17739D01*
X23674Y17802D01*
X23674Y15603D01*
X23669Y15631D01*
X23648Y15682D01*
X23618Y15727D01*
X23579Y15766D01*
X23533Y15797D01*
X23483Y15818D01*
X23429Y15829D01*
X23374Y15830D01*
X23369Y15829D01*
X23369Y15831D01*
X23348Y15882D01*
X23318Y15927D01*
X23279Y15966D01*
X23233Y15997D01*
X23183Y16018D01*
X23129Y16029D01*
X23074Y16030D01*
X23020Y16019D01*
X22969Y15999D01*
X22947Y15984D01*
X22947Y17277D01*
X22936Y17331D01*
X22915Y17382D01*
X22885Y17427D01*
X22846Y17466D01*
X22801Y17497D01*
X22750Y17518D01*
X22696Y17529D01*
X22642Y17530D01*
X22588Y17519D01*
X22537Y17499D01*
X22491Y17469D01*
X22451Y17430D01*
X22420Y17385D01*
X22399Y17335D01*
X22387Y17281D01*
X22387Y17226D01*
X22397Y17172D01*
X22417Y17121D01*
X22447Y17075D01*
X22485Y17035D01*
X22530Y17004D01*
X22580Y16982D01*
X22634Y16970D01*
X22689Y16969D01*
X22743Y16979D01*
X22794Y16998D01*
X22840Y17028D01*
X22880Y17066D01*
X22912Y17111D01*
X22934Y17161D01*
X22946Y17214D01*
X22947Y17277D01*
X22947Y15984D01*
X22923Y15969D01*
X22884Y15930D01*
X22853Y15885D01*
X22831Y15835D01*
X22820Y15781D01*
X22819Y15726D01*
X22829Y15672D01*
X22849Y15621D01*
X22879Y15575D01*
X22917Y15535D01*
X22962Y15504D01*
X23013Y15482D01*
X23066Y15470D01*
X23121Y15469D01*
X23130Y15470D01*
X23149Y15421D01*
X23179Y15375D01*
X23217Y15335D01*
X23262Y15304D01*
X23313Y15282D01*
X23366Y15270D01*
X23421Y15269D01*
X23475Y15279D01*
X23526Y15298D01*
X23573Y15328D01*
X23612Y15366D01*
X23644Y15411D01*
X23666Y15461D01*
X23679Y15514D01*
X23680Y15577D01*
X23680Y10230D01*
X23647Y10230D01*
X23647Y12727D01*
X23636Y12781D01*
X23615Y12832D01*
X23585Y12877D01*
X23546Y12916D01*
X23501Y12947D01*
X23450Y12968D01*
X23396Y12979D01*
X23342Y12980D01*
X23288Y12969D01*
X23237Y12949D01*
X23191Y12919D01*
X23151Y12880D01*
X23120Y12835D01*
X23099Y12785D01*
X23087Y12731D01*
X23087Y12676D01*
X23097Y12622D01*
X23117Y12571D01*
X23147Y12525D01*
X23185Y12485D01*
X23230Y12454D01*
X23280Y12432D01*
X23334Y12420D01*
X23389Y12419D01*
X23443Y12429D01*
X23494Y12448D01*
X23540Y12478D01*
X23580Y12516D01*
X23612Y12561D01*
X23634Y12611D01*
X23646Y12664D01*
X23647Y12727D01*
X23647Y10230D01*
X23280Y10230D01*
X23280Y11902D01*
X23269Y11956D01*
X23248Y12007D01*
X23218Y12052D01*
X23179Y12091D01*
X23133Y12122D01*
X23083Y12143D01*
X23029Y12154D01*
X22974Y12155D01*
X22920Y12144D01*
X22869Y12124D01*
X22823Y12094D01*
X22784Y12055D01*
X22753Y12010D01*
X22749Y12000D01*
X22748Y12002D01*
X22718Y12048D01*
X22679Y12087D01*
X22633Y12117D01*
X22583Y12139D01*
X22529Y12150D01*
X22474Y12150D01*
X22420Y12140D01*
X22412Y12137D01*
X22412Y16777D01*
X22401Y16831D01*
X22380Y16882D01*
X22350Y16927D01*
X22311Y16966D01*
X22266Y16997D01*
X22215Y17018D01*
X22161Y17029D01*
X22107Y17030D01*
X22053Y17019D01*
X22002Y16999D01*
X21956Y16969D01*
X21916Y16930D01*
X21885Y16885D01*
X21864Y16835D01*
X21852Y16781D01*
X21852Y16726D01*
X21862Y16672D01*
X21882Y16621D01*
X21912Y16575D01*
X21950Y16535D01*
X21995Y16504D01*
X22045Y16482D01*
X22099Y16470D01*
X22154Y16469D01*
X22208Y16479D01*
X22259Y16498D01*
X22305Y16528D01*
X22345Y16566D01*
X22377Y16611D01*
X22399Y16661D01*
X22411Y16714D01*
X22412Y16777D01*
X22412Y12137D01*
X22369Y12119D01*
X22360Y12113D01*
X22360Y14584D01*
X22327Y14749D01*
X22263Y14905D01*
X22169Y15046D01*
X22050Y15165D01*
X21911Y15260D01*
X21830Y15294D01*
X21830Y17927D01*
X21819Y17981D01*
X21798Y18032D01*
X21768Y18077D01*
X21729Y18116D01*
X21683Y18147D01*
X21633Y18168D01*
X21579Y18179D01*
X21524Y18180D01*
X21470Y18169D01*
X21419Y18149D01*
X21373Y18119D01*
X21334Y18080D01*
X21303Y18035D01*
X21281Y17985D01*
X21270Y17931D01*
X21269Y17876D01*
X21279Y17822D01*
X21299Y17771D01*
X21329Y17725D01*
X21367Y17685D01*
X21412Y17654D01*
X21463Y17632D01*
X21516Y17620D01*
X21571Y17619D01*
X21625Y17629D01*
X21676Y17648D01*
X21723Y17678D01*
X21762Y17716D01*
X21794Y17761D01*
X21816Y17811D01*
X21829Y17864D01*
X21830Y17927D01*
X21830Y15294D01*
X21755Y15325D01*
X21590Y15359D01*
X21421Y15360D01*
X21256Y15329D01*
X21099Y15265D01*
X20958Y15173D01*
X20880Y15096D01*
X20880Y18027D01*
X20869Y18081D01*
X20848Y18132D01*
X20818Y18177D01*
X20779Y18216D01*
X20733Y18247D01*
X20683Y18268D01*
X20629Y18279D01*
X20574Y18280D01*
X20520Y18269D01*
X20469Y18249D01*
X20423Y18219D01*
X20384Y18180D01*
X20353Y18135D01*
X20331Y18085D01*
X20320Y18031D01*
X20319Y17976D01*
X20329Y17922D01*
X20349Y17871D01*
X20379Y17825D01*
X20417Y17785D01*
X20462Y17754D01*
X20513Y17732D01*
X20566Y17720D01*
X20621Y17719D01*
X20675Y17729D01*
X20726Y17748D01*
X20773Y17778D01*
X20812Y17816D01*
X20844Y17861D01*
X20866Y17911D01*
X20879Y17964D01*
X20880Y18027D01*
X20880Y15096D01*
X20838Y15055D01*
X20742Y14916D01*
X20676Y14761D01*
X20641Y14596D01*
X20640Y14543D01*
X20633Y14547D01*
X20583Y14568D01*
X20529Y14579D01*
X20474Y14580D01*
X20430Y14571D01*
X20430Y15477D01*
X20419Y15531D01*
X20398Y15582D01*
X20368Y15627D01*
X20329Y15666D01*
X20283Y15697D01*
X20278Y15699D01*
X20323Y15728D01*
X20362Y15766D01*
X20394Y15811D01*
X20416Y15861D01*
X20429Y15914D01*
X20430Y15977D01*
X20419Y16031D01*
X20398Y16082D01*
X20368Y16127D01*
X20329Y16166D01*
X20283Y16197D01*
X20233Y16218D01*
X20179Y16229D01*
X20124Y16230D01*
X20070Y16219D01*
X20033Y16204D01*
X20018Y16227D01*
X19979Y16266D01*
X19933Y16297D01*
X19883Y16318D01*
X19829Y16329D01*
X19774Y16330D01*
X19720Y16319D01*
X19669Y16299D01*
X19623Y16269D01*
X19584Y16230D01*
X19553Y16185D01*
X19531Y16135D01*
X19520Y16081D01*
X19519Y16026D01*
X19529Y15972D01*
X19549Y15921D01*
X19579Y15875D01*
X19617Y15835D01*
X19631Y15826D01*
X19603Y15785D01*
X19581Y15735D01*
X19570Y15681D01*
X19569Y15626D01*
X19579Y15572D01*
X19599Y15521D01*
X19629Y15475D01*
X19667Y15435D01*
X19712Y15404D01*
X19722Y15400D01*
X19719Y15399D01*
X19673Y15369D01*
X19634Y15330D01*
X19603Y15285D01*
X19581Y15235D01*
X19570Y15181D01*
X19569Y15126D01*
X19579Y15072D01*
X19599Y15021D01*
X19629Y14975D01*
X19667Y14935D01*
X19712Y14904D01*
X19763Y14882D01*
X19816Y14870D01*
X19871Y14869D01*
X19925Y14879D01*
X19976Y14898D01*
X20023Y14928D01*
X20062Y14966D01*
X20094Y15011D01*
X20116Y15061D01*
X20129Y15114D01*
X20129Y15170D01*
X20171Y15169D01*
X20225Y15179D01*
X20276Y15198D01*
X20323Y15228D01*
X20362Y15266D01*
X20394Y15311D01*
X20416Y15361D01*
X20429Y15414D01*
X20430Y15477D01*
X20430Y14571D01*
X20420Y14569D01*
X20369Y14549D01*
X20323Y14519D01*
X20284Y14480D01*
X20253Y14435D01*
X20231Y14385D01*
X20220Y14331D01*
X20219Y14276D01*
X20229Y14222D01*
X20249Y14171D01*
X20279Y14125D01*
X20317Y14085D01*
X20362Y14054D01*
X20413Y14032D01*
X20466Y14020D01*
X20521Y14019D01*
X20575Y14029D01*
X20626Y14048D01*
X20673Y14078D01*
X20712Y14116D01*
X20721Y14128D01*
X20731Y14104D01*
X20822Y13963D01*
X20939Y13841D01*
X21078Y13745D01*
X21232Y13678D01*
X21397Y13641D01*
X21566Y13638D01*
X21732Y13667D01*
X21889Y13728D01*
X22032Y13819D01*
X22154Y13935D01*
X22251Y14073D01*
X22319Y14227D01*
X22357Y14391D01*
X22360Y14584D01*
X22360Y12113D01*
X22323Y12089D01*
X22284Y12051D01*
X22253Y12006D01*
X22251Y12000D01*
X22248Y12007D01*
X22218Y12052D01*
X22179Y12091D01*
X22133Y12122D01*
X22083Y12143D01*
X22047Y12151D01*
X22047Y13377D01*
X22036Y13431D01*
X22015Y13482D01*
X21985Y13527D01*
X21946Y13566D01*
X21901Y13597D01*
X21850Y13618D01*
X21796Y13629D01*
X21742Y13630D01*
X21688Y13619D01*
X21637Y13599D01*
X21591Y13569D01*
X21551Y13530D01*
X21520Y13485D01*
X21499Y13436D01*
X21480Y13482D01*
X21450Y13527D01*
X21411Y13566D01*
X21366Y13597D01*
X21315Y13618D01*
X21261Y13629D01*
X21207Y13630D01*
X21153Y13619D01*
X21102Y13599D01*
X21056Y13569D01*
X21016Y13530D01*
X20985Y13485D01*
X20964Y13435D01*
X20952Y13381D01*
X20952Y13326D01*
X20962Y13272D01*
X20982Y13221D01*
X21012Y13175D01*
X21050Y13135D01*
X21095Y13104D01*
X21145Y13082D01*
X21199Y13070D01*
X21254Y13069D01*
X21308Y13079D01*
X21359Y13098D01*
X21405Y13128D01*
X21445Y13166D01*
X21477Y13211D01*
X21499Y13261D01*
X21500Y13264D01*
X21517Y13221D01*
X21547Y13175D01*
X21585Y13135D01*
X21630Y13104D01*
X21680Y13082D01*
X21734Y13070D01*
X21789Y13069D01*
X21843Y13079D01*
X21894Y13098D01*
X21940Y13128D01*
X21980Y13166D01*
X22012Y13211D01*
X22034Y13261D01*
X22046Y13314D01*
X22047Y13377D01*
X22047Y12151D01*
X22029Y12154D01*
X21974Y12155D01*
X21920Y12144D01*
X21869Y12124D01*
X21823Y12094D01*
X21784Y12055D01*
X21753Y12010D01*
X21731Y11960D01*
X21720Y11906D01*
X21719Y11851D01*
X21729Y11797D01*
X21749Y11746D01*
X21779Y11700D01*
X21817Y11660D01*
X21862Y11629D01*
X21913Y11607D01*
X21966Y11595D01*
X22021Y11594D01*
X22075Y11604D01*
X22126Y11623D01*
X22173Y11653D01*
X22212Y11691D01*
X22244Y11736D01*
X22248Y11744D01*
X22249Y11741D01*
X22279Y11695D01*
X22317Y11656D01*
X22362Y11624D01*
X22413Y11602D01*
X22466Y11591D01*
X22521Y11589D01*
X22575Y11599D01*
X22626Y11619D01*
X22673Y11648D01*
X22712Y11686D01*
X22744Y11731D01*
X22750Y11745D01*
X22779Y11700D01*
X22817Y11660D01*
X22862Y11629D01*
X22913Y11607D01*
X22966Y11595D01*
X23021Y11594D01*
X23075Y11604D01*
X23126Y11623D01*
X23173Y11653D01*
X23212Y11691D01*
X23244Y11736D01*
X23266Y11786D01*
X23279Y11839D01*
X23280Y11902D01*
X23280Y10230D01*
X20530Y10230D01*
X20530Y13259D01*
X20519Y13313D01*
X20498Y13364D01*
X20468Y13410D01*
X20429Y13449D01*
X20383Y13479D01*
X20333Y13501D01*
X20279Y13512D01*
X20224Y13512D01*
X20170Y13502D01*
X20119Y13481D01*
X20073Y13451D01*
X20034Y13413D01*
X20003Y13368D01*
X19985Y13326D01*
X19973Y13357D01*
X19955Y13384D01*
X19955Y13977D01*
X19944Y14031D01*
X19923Y14082D01*
X19893Y14127D01*
X19854Y14166D01*
X19808Y14197D01*
X19758Y14218D01*
X19704Y14229D01*
X19649Y14230D01*
X19595Y14219D01*
X19544Y14199D01*
X19498Y14169D01*
X19487Y14158D01*
X19479Y14166D01*
X19433Y14197D01*
X19383Y14218D01*
X19329Y14229D01*
X19280Y14230D01*
X19280Y15277D01*
X19269Y15331D01*
X19248Y15382D01*
X19218Y15427D01*
X19179Y15466D01*
X19133Y15497D01*
X19083Y15518D01*
X19029Y15529D01*
X18974Y15530D01*
X18920Y15519D01*
X18869Y15499D01*
X18823Y15469D01*
X18784Y15430D01*
X18753Y15385D01*
X18731Y15335D01*
X18720Y15281D01*
X18719Y15226D01*
X18729Y15172D01*
X18749Y15121D01*
X18779Y15075D01*
X18817Y15035D01*
X18862Y15004D01*
X18913Y14982D01*
X18966Y14970D01*
X19021Y14969D01*
X19075Y14979D01*
X19126Y14998D01*
X19173Y15028D01*
X19212Y15066D01*
X19244Y15111D01*
X19266Y15161D01*
X19279Y15214D01*
X19280Y15277D01*
X19280Y14230D01*
X19274Y14230D01*
X19220Y14219D01*
X19169Y14199D01*
X19123Y14169D01*
X19084Y14130D01*
X19053Y14085D01*
X19031Y14035D01*
X19020Y13981D01*
X19019Y13926D01*
X19029Y13872D01*
X19049Y13821D01*
X19079Y13775D01*
X19117Y13735D01*
X19162Y13704D01*
X19213Y13682D01*
X19266Y13670D01*
X19321Y13669D01*
X19375Y13679D01*
X19426Y13698D01*
X19473Y13728D01*
X19487Y13741D01*
X19492Y13735D01*
X19537Y13704D01*
X19588Y13682D01*
X19641Y13670D01*
X19696Y13669D01*
X19750Y13679D01*
X19801Y13698D01*
X19848Y13728D01*
X19887Y13766D01*
X19919Y13811D01*
X19941Y13861D01*
X19954Y13914D01*
X19955Y13977D01*
X19955Y13384D01*
X19943Y13402D01*
X19904Y13441D01*
X19858Y13472D01*
X19808Y13493D01*
X19754Y13504D01*
X19699Y13505D01*
X19645Y13494D01*
X19594Y13474D01*
X19548Y13444D01*
X19509Y13405D01*
X19478Y13360D01*
X19456Y13310D01*
X19445Y13256D01*
X19444Y13201D01*
X19454Y13147D01*
X19474Y13096D01*
X19504Y13050D01*
X19542Y13010D01*
X19587Y12979D01*
X19638Y12957D01*
X19691Y12945D01*
X19746Y12944D01*
X19800Y12954D01*
X19851Y12973D01*
X19898Y13003D01*
X19937Y13041D01*
X19969Y13086D01*
X19989Y13130D01*
X19999Y13103D01*
X20029Y13057D01*
X20067Y13018D01*
X20112Y12986D01*
X20163Y12964D01*
X20216Y12953D01*
X20271Y12951D01*
X20325Y12961D01*
X20376Y12981D01*
X20423Y13010D01*
X20462Y13048D01*
X20494Y13093D01*
X20516Y13143D01*
X20529Y13197D01*
X20530Y13259D01*
X20530Y10230D01*
X19580Y10230D01*
X19580Y12844D01*
X19569Y12898D01*
X19548Y12949D01*
X19518Y12994D01*
X19479Y13033D01*
X19433Y13064D01*
X19383Y13085D01*
X19329Y13096D01*
X19274Y13097D01*
X19220Y13086D01*
X19169Y13066D01*
X19123Y13036D01*
X19084Y12997D01*
X19053Y12952D01*
X19031Y12902D01*
X19020Y12848D01*
X19019Y12793D01*
X19029Y12739D01*
X19049Y12688D01*
X19079Y12642D01*
X19117Y12602D01*
X19162Y12571D01*
X19213Y12549D01*
X19266Y12537D01*
X19321Y12536D01*
X19375Y12546D01*
X19426Y12565D01*
X19473Y12595D01*
X19512Y12633D01*
X19544Y12678D01*
X19566Y12728D01*
X19579Y12781D01*
X19580Y12844D01*
X19580Y10230D01*
X18855Y10230D01*
X18855Y14574D01*
X18826Y14719D01*
X18769Y14856D01*
X18687Y14979D01*
X18583Y15084D01*
X18460Y15167D01*
X18324Y15224D01*
X18179Y15254D01*
X18031Y15255D01*
X17885Y15227D01*
X17748Y15172D01*
X17624Y15091D01*
X17518Y14987D01*
X17435Y14865D01*
X17376Y14729D01*
X17346Y14584D01*
X17344Y14436D01*
X17370Y14290D01*
X17425Y14153D01*
X17505Y14028D01*
X17608Y13922D01*
X17729Y13837D01*
X17865Y13778D01*
X18010Y13746D01*
X18158Y13743D01*
X18304Y13769D01*
X18442Y13822D01*
X18567Y13902D01*
X18674Y14004D01*
X18759Y14125D01*
X18819Y14260D01*
X18852Y14404D01*
X18855Y14574D01*
X18855Y10230D01*
X16954Y10230D01*
X16954Y13345D01*
X16954Y14408D01*
X16943Y14462D01*
X16922Y14513D01*
X16892Y14559D01*
X16853Y14598D01*
X16807Y14628D01*
X16757Y14650D01*
X16703Y14661D01*
X16648Y14661D01*
X16594Y14651D01*
X16543Y14630D01*
X16497Y14600D01*
X16458Y14562D01*
X16427Y14517D01*
X16405Y14466D01*
X16394Y14412D01*
X16393Y14357D01*
X16403Y14303D01*
X16423Y14252D01*
X16453Y14206D01*
X16491Y14167D01*
X16536Y14135D01*
X16587Y14113D01*
X16640Y14102D01*
X16695Y14100D01*
X16749Y14110D01*
X16800Y14130D01*
X16847Y14159D01*
X16887Y14197D01*
X16918Y14242D01*
X16940Y14292D01*
X16953Y14346D01*
X16954Y14408D01*
X16954Y13345D01*
X16943Y13399D01*
X16922Y13450D01*
X16892Y13496D01*
X16853Y13535D01*
X16807Y13565D01*
X16757Y13587D01*
X16703Y13598D01*
X16648Y13598D01*
X16594Y13588D01*
X16543Y13567D01*
X16497Y13537D01*
X16458Y13499D01*
X16427Y13454D01*
X16405Y13403D01*
X16394Y13349D01*
X16393Y13294D01*
X16403Y13240D01*
X16423Y13189D01*
X16453Y13143D01*
X16491Y13104D01*
X16536Y13072D01*
X16587Y13050D01*
X16640Y13039D01*
X16695Y13037D01*
X16749Y13047D01*
X16800Y13067D01*
X16847Y13096D01*
X16887Y13134D01*
X16918Y13179D01*
X16940Y13229D01*
X16953Y13283D01*
X16954Y13345D01*
X16954Y10230D01*
X16312Y10230D01*
X16312Y15077D01*
X16301Y15131D01*
X16280Y15182D01*
X16250Y15227D01*
X16211Y15266D01*
X16166Y15297D01*
X16115Y15318D01*
X16061Y15329D01*
X16007Y15330D01*
X15953Y15319D01*
X15902Y15299D01*
X15897Y15296D01*
X15897Y17027D01*
X15886Y17081D01*
X15865Y17132D01*
X15835Y17177D01*
X15796Y17216D01*
X15751Y17247D01*
X15700Y17268D01*
X15646Y17279D01*
X15592Y17280D01*
X15538Y17269D01*
X15487Y17249D01*
X15441Y17219D01*
X15401Y17180D01*
X15370Y17135D01*
X15349Y17085D01*
X15337Y17031D01*
X15337Y16976D01*
X15347Y16922D01*
X15367Y16871D01*
X15397Y16825D01*
X15435Y16785D01*
X15480Y16754D01*
X15530Y16732D01*
X15584Y16720D01*
X15639Y16719D01*
X15693Y16729D01*
X15744Y16748D01*
X15790Y16778D01*
X15830Y16816D01*
X15862Y16861D01*
X15884Y16911D01*
X15896Y16964D01*
X15897Y17027D01*
X15897Y15296D01*
X15856Y15269D01*
X15816Y15230D01*
X15785Y15185D01*
X15764Y15135D01*
X15752Y15081D01*
X15752Y15026D01*
X15762Y14972D01*
X15782Y14921D01*
X15812Y14875D01*
X15850Y14835D01*
X15895Y14804D01*
X15945Y14782D01*
X15999Y14770D01*
X16054Y14769D01*
X16108Y14779D01*
X16159Y14798D01*
X16205Y14828D01*
X16245Y14866D01*
X16277Y14911D01*
X16299Y14961D01*
X16311Y15014D01*
X16312Y15077D01*
X16312Y10230D01*
X15853Y10230D01*
X15858Y10234D01*
X15903Y10298D01*
X15936Y10371D01*
X15953Y10448D01*
X15955Y10539D01*
X15939Y10617D01*
X15909Y10691D01*
X15865Y10757D01*
X15809Y10813D01*
X15743Y10857D01*
X15670Y10888D01*
X15592Y10904D01*
X15513Y10905D01*
X15435Y10890D01*
X15361Y10860D01*
X15294Y10817D01*
X15238Y10761D01*
X15193Y10696D01*
X15162Y10623D01*
X15145Y10545D01*
X15144Y10465D01*
X15158Y10387D01*
X15188Y10313D01*
X15231Y10247D01*
X15247Y10230D01*
X14955Y10230D01*
X14955Y10236D01*
X14955Y10787D01*
X14950Y10812D01*
X14940Y10836D01*
X14926Y10857D01*
X14908Y10875D01*
X14887Y10889D01*
X14863Y10899D01*
X14838Y10904D01*
X14813Y10905D01*
X14262Y10905D01*
X14237Y10900D01*
X14213Y10890D01*
X14192Y10876D01*
X14180Y10863D01*
X14180Y11594D01*
X14186Y11594D01*
X14737Y11594D01*
X14762Y11599D01*
X14786Y11609D01*
X14807Y11623D01*
X14825Y11641D01*
X14839Y11662D01*
X14849Y11686D01*
X14854Y11711D01*
X14855Y11736D01*
X14855Y12287D01*
X14850Y12312D01*
X14840Y12336D01*
X14826Y12357D01*
X14808Y12375D01*
X14787Y12389D01*
X14763Y12399D01*
X14738Y12404D01*
X14713Y12405D01*
X14180Y12405D01*
X14180Y12696D01*
X14186Y12690D01*
X14251Y12644D01*
X14324Y12612D01*
X14401Y12595D01*
X14481Y12594D01*
X14559Y12608D01*
X14633Y12636D01*
X14700Y12679D01*
X14758Y12734D01*
X14803Y12798D01*
X14836Y12871D01*
X14853Y12948D01*
X14855Y13039D01*
X14839Y13117D01*
X14809Y13191D01*
X14765Y13257D01*
X14709Y13313D01*
X14643Y13357D01*
X14570Y13388D01*
X14492Y13404D01*
X14413Y13405D01*
X14335Y13390D01*
X14261Y13360D01*
X14194Y13317D01*
X14180Y13302D01*
X14180Y13696D01*
X14186Y13690D01*
X14251Y13644D01*
X14324Y13612D01*
X14401Y13595D01*
X14481Y13594D01*
X14559Y13608D01*
X14633Y13636D01*
X14700Y13679D01*
X14758Y13734D01*
X14803Y13798D01*
X14836Y13871D01*
X14853Y13948D01*
X14855Y14039D01*
X14839Y14117D01*
X14809Y14191D01*
X14765Y14257D01*
X14709Y14313D01*
X14643Y14357D01*
X14570Y14388D01*
X14492Y14404D01*
X14413Y14405D01*
X14335Y14390D01*
X14261Y14360D01*
X14194Y14317D01*
X14180Y14302D01*
X14180Y14696D01*
X14186Y14690D01*
X14251Y14644D01*
X14324Y14612D01*
X14401Y14595D01*
X14481Y14594D01*
X14559Y14608D01*
X14633Y14636D01*
X14700Y14679D01*
X14758Y14734D01*
X14803Y14798D01*
X14836Y14871D01*
X14853Y14948D01*
X14855Y15039D01*
X14839Y15117D01*
X14809Y15191D01*
X14765Y15257D01*
X14709Y15313D01*
X14643Y15357D01*
X14570Y15388D01*
X14492Y15404D01*
X14413Y15405D01*
X14335Y15390D01*
X14261Y15360D01*
X14194Y15317D01*
X14180Y15302D01*
X14180Y15696D01*
X14186Y15690D01*
X14251Y15644D01*
X14324Y15612D01*
X14401Y15595D01*
X14481Y15594D01*
X14559Y15608D01*
X14633Y15636D01*
X14700Y15679D01*
X14758Y15734D01*
X14803Y15798D01*
X14836Y15871D01*
X14853Y15948D01*
X14855Y16039D01*
X14839Y16117D01*
X14809Y16191D01*
X14765Y16257D01*
X14709Y16313D01*
X14643Y16357D01*
X14570Y16388D01*
X14492Y16404D01*
X14413Y16405D01*
X14335Y16390D01*
X14261Y16360D01*
X14194Y16317D01*
X14180Y16302D01*
X14180Y18136D01*
X14191Y18124D01*
X14212Y18110D01*
X14236Y18100D01*
X14261Y18095D01*
X14286Y18094D01*
X14837Y18094D01*
X14862Y18099D01*
X14886Y18109D01*
X14907Y18123D01*
X14925Y18141D01*
X14939Y18162D01*
X14949Y18186D01*
X14954Y18211D01*
X14955Y18236D01*
X14955Y18770D01*
X15246Y18770D01*
X15238Y18761D01*
X15193Y18696D01*
X15162Y18623D01*
X15145Y18545D01*
X15144Y18465D01*
X15158Y18387D01*
X15188Y18313D01*
X15231Y18247D01*
X15286Y18190D01*
X15351Y18144D01*
X15424Y18112D01*
X15501Y18095D01*
X15581Y18094D01*
X15659Y18108D01*
X15733Y18136D01*
X15800Y18179D01*
X15858Y18234D01*
X15903Y18298D01*
X15936Y18371D01*
X15953Y18448D01*
X15955Y18539D01*
X15939Y18617D01*
X15909Y18691D01*
X15865Y18757D01*
X15852Y18770D01*
X19680Y18770D01*
X19699Y18721D01*
X19729Y18675D01*
X19753Y18649D01*
X19734Y18630D01*
X19703Y18585D01*
X19681Y18535D01*
X19670Y18481D01*
X19669Y18426D01*
X19679Y18372D01*
X19699Y18321D01*
X19729Y18275D01*
X19753Y18249D01*
X19734Y18230D01*
X19703Y18185D01*
X19681Y18135D01*
X19670Y18081D01*
X19669Y18026D01*
X19679Y17972D01*
X19699Y17921D01*
X19729Y17875D01*
X19767Y17835D01*
X19812Y17804D01*
X19863Y17782D01*
X19916Y17770D01*
X19971Y17769D01*
X20025Y17779D01*
X20076Y17798D01*
X20123Y17828D01*
X20162Y17866D01*
X20194Y17911D01*
X20216Y17961D01*
X20229Y18014D01*
X20230Y18077D01*
X20219Y18131D01*
X20198Y18182D01*
X20168Y18227D01*
X20146Y18249D01*
X20162Y18266D01*
X20194Y18311D01*
X20216Y18361D01*
X20229Y18414D01*
X20230Y18477D01*
X20219Y18531D01*
X20198Y18582D01*
X20168Y18627D01*
X20146Y18649D01*
X20162Y18666D01*
X20194Y18711D01*
X20216Y18761D01*
X20218Y18770D01*
X23139Y18770D01*
X23131Y18752D01*
X23120Y18698D01*
X23119Y18643D01*
X23129Y18589D01*
X23149Y18538D01*
X23179Y18492D01*
X23217Y18453D01*
X23262Y18421D01*
X23313Y18399D01*
X23366Y18388D01*
X23421Y18386D01*
X23475Y18396D01*
X23526Y18416D01*
X23573Y18445D01*
X23612Y18483D01*
X23644Y18528D01*
X23666Y18578D01*
X23679Y18632D01*
X23680Y18694D01*
X23669Y18748D01*
X23660Y18770D01*
X24314Y18770D01*
X24299Y18735D01*
X24287Y18681D01*
X24287Y18626D01*
X24297Y18572D01*
X24317Y18521D01*
X24347Y18475D01*
X24385Y18435D01*
X24430Y18404D01*
X24480Y18382D01*
X24534Y18370D01*
X24589Y18369D01*
X24643Y18379D01*
X24694Y18398D01*
X24740Y18428D01*
X24780Y18466D01*
X24812Y18511D01*
X24834Y18561D01*
X24846Y18614D01*
X24847Y18677D01*
X24836Y18731D01*
X24820Y18770D01*
X24879Y18770D01*
X24864Y18735D01*
X24852Y18681D01*
X24852Y18626D01*
X24862Y18572D01*
X24882Y18521D01*
X24912Y18475D01*
X24950Y18435D01*
X24995Y18404D01*
X25045Y18382D01*
X25099Y18370D01*
X25154Y18369D01*
X25208Y18379D01*
X25259Y18398D01*
X25305Y18428D01*
X25345Y18466D01*
X25377Y18511D01*
X25399Y18561D01*
X25411Y18614D01*
X25412Y18677D01*
X25401Y18731D01*
X25385Y18770D01*
X25979Y18770D01*
X25964Y18735D01*
X25952Y18681D01*
X25952Y18626D01*
X25962Y18572D01*
X25982Y18521D01*
X26012Y18475D01*
X26050Y18435D01*
X26095Y18404D01*
X26145Y18382D01*
X26199Y18370D01*
X26254Y18369D01*
X26308Y18379D01*
X26359Y18398D01*
X26405Y18428D01*
X26445Y18466D01*
X26477Y18511D01*
X26499Y18561D01*
X26511Y18614D01*
X26512Y18677D01*
X26501Y18731D01*
X26485Y18770D01*
X31549Y18770D01*
X31544Y18767D01*
X31488Y18711D01*
X31443Y18646D01*
X31412Y18573D01*
X31395Y18495D01*
X31394Y18415D01*
X31408Y18337D01*
X31438Y18263D01*
X31481Y18197D01*
X31536Y18140D01*
X31601Y18094D01*
X31674Y18062D01*
X31751Y18045D01*
X31831Y18044D01*
X31909Y18058D01*
X31983Y18086D01*
X32050Y18129D01*
X32108Y18184D01*
X32153Y18248D01*
X32186Y18321D01*
X32203Y18398D01*
X32205Y18489D01*
X32189Y18567D01*
X32159Y18641D01*
X32115Y18707D01*
X32059Y18763D01*
X32049Y18770D01*
X32549Y18770D01*
X32544Y18767D01*
X32488Y18711D01*
X32443Y18646D01*
X32412Y18573D01*
X32395Y18495D01*
X32394Y18415D01*
X32408Y18337D01*
X32438Y18263D01*
X32481Y18197D01*
X32536Y18140D01*
X32601Y18094D01*
X32674Y18062D01*
X32751Y18045D01*
X32831Y18044D01*
X32909Y18058D01*
X32983Y18086D01*
X33050Y18129D01*
X33108Y18184D01*
X33153Y18248D01*
X33186Y18321D01*
X33203Y18398D01*
X33205Y18489D01*
X33189Y18567D01*
X33159Y18641D01*
X33115Y18707D01*
X33059Y18763D01*
X33049Y18770D01*
X33549Y18770D01*
X33544Y18767D01*
X33488Y18711D01*
X33443Y18646D01*
X33412Y18573D01*
X33395Y18495D01*
X33394Y18415D01*
X33408Y18337D01*
X33438Y18263D01*
X33481Y18197D01*
X33536Y18140D01*
X33601Y18094D01*
X33674Y18062D01*
X33751Y18045D01*
X33831Y18044D01*
X33909Y18058D01*
X33983Y18086D01*
X34050Y18129D01*
X34108Y18184D01*
X34153Y18248D01*
X34186Y18321D01*
X34203Y18398D01*
X34205Y18489D01*
X34189Y18567D01*
X34159Y18641D01*
X34115Y18707D01*
X34059Y18763D01*
X34049Y18770D01*
X34549Y18770D01*
X34544Y18767D01*
X34488Y18711D01*
X34443Y18646D01*
X34412Y18573D01*
X34395Y18495D01*
X34394Y18415D01*
X34408Y18337D01*
X34438Y18263D01*
X34481Y18197D01*
X34536Y18140D01*
X34601Y18094D01*
X34674Y18062D01*
X34751Y18045D01*
X34831Y18044D01*
X34909Y18058D01*
X34983Y18086D01*
X35050Y18129D01*
X35108Y18184D01*
X35153Y18248D01*
X35186Y18321D01*
X35203Y18398D01*
X35205Y18489D01*
X35189Y18567D01*
X35159Y18641D01*
X35115Y18707D01*
X35059Y18763D01*
X35049Y18770D01*
X35549Y18770D01*
X35544Y18767D01*
X35488Y18711D01*
X35443Y18646D01*
X35412Y18573D01*
X35395Y18495D01*
X35394Y18415D01*
X35408Y18337D01*
X35438Y18263D01*
X35481Y18197D01*
X35536Y18140D01*
X35601Y18094D01*
X35674Y18062D01*
X35751Y18045D01*
X35831Y18044D01*
X35909Y18058D01*
X35983Y18086D01*
X36050Y18129D01*
X36108Y18184D01*
X36153Y18248D01*
X36186Y18321D01*
X36203Y18398D01*
X36205Y18489D01*
X36189Y18567D01*
X36159Y18641D01*
X36115Y18707D01*
X36059Y18763D01*
X36049Y18770D01*
X36549Y18770D01*
X36544Y18767D01*
X36488Y18711D01*
X36443Y18646D01*
X36412Y18573D01*
X36395Y18495D01*
X36394Y18415D01*
X36408Y18337D01*
X36438Y18263D01*
X36481Y18197D01*
X36536Y18140D01*
X36601Y18094D01*
X36674Y18062D01*
X36751Y18045D01*
X36831Y18044D01*
X36909Y18058D01*
X36983Y18086D01*
X37050Y18129D01*
X37108Y18184D01*
X37153Y18248D01*
X37186Y18321D01*
X37203Y18398D01*
X37205Y18489D01*
X37189Y18567D01*
X37159Y18641D01*
X37115Y18707D01*
X37059Y18763D01*
X37049Y18770D01*
X37549Y18770D01*
X37544Y18767D01*
X37488Y18711D01*
X37443Y18646D01*
X37412Y18573D01*
X37395Y18495D01*
X37394Y18415D01*
X37408Y18337D01*
X37438Y18263D01*
X37481Y18197D01*
X37536Y18140D01*
X37601Y18094D01*
X37674Y18062D01*
X37751Y18045D01*
X37831Y18044D01*
X37909Y18058D01*
X37983Y18086D01*
X38050Y18129D01*
X38108Y18184D01*
X38153Y18248D01*
X38186Y18321D01*
X38203Y18398D01*
X38205Y18489D01*
X38189Y18567D01*
X38159Y18641D01*
X38115Y18707D01*
X38059Y18763D01*
X38049Y18770D01*
X49146Y18770D01*
X49138Y18761D01*
X49093Y18696D01*
X49062Y18623D01*
X49045Y18545D01*
X49044Y18465D01*
X49058Y18387D01*
X49088Y18313D01*
X49131Y18247D01*
X49186Y18190D01*
X49251Y18144D01*
X49324Y18112D01*
X49401Y18095D01*
X49481Y18094D01*
X49559Y18108D01*
X49633Y18136D01*
X49700Y18179D01*
X49758Y18234D01*
X49803Y18298D01*
X49836Y18371D01*
X49853Y18448D01*
X49855Y18539D01*
X49839Y18617D01*
X49809Y18691D01*
X49765Y18757D01*
X49752Y18770D01*
X50044Y18770D01*
X50044Y18763D01*
X50044Y18212D01*
X50049Y18187D01*
X50059Y18163D01*
X50073Y18142D01*
X50091Y18124D01*
X50112Y18110D01*
X50136Y18100D01*
X50161Y18095D01*
X50186Y18094D01*
X50720Y18094D01*
X50720Y17802D01*
X50709Y17813D01*
X50643Y17857D01*
X50570Y17888D01*
X50492Y17904D01*
X50413Y17905D01*
X50335Y17890D01*
X50261Y17860D01*
X50194Y17817D01*
X50138Y17761D01*
X50093Y17696D01*
X50062Y17623D01*
X50045Y17545D01*
X50044Y17465D01*
X50058Y17387D01*
X50088Y17313D01*
X50131Y17247D01*
X50186Y17190D01*
X50251Y17144D01*
X50324Y17112D01*
X50401Y17095D01*
X50481Y17094D01*
X50559Y17108D01*
X50633Y17136D01*
X50700Y17179D01*
X50720Y17197D01*
X50720Y10230D01*
X50720Y10230D01*
G37*
G54D19*
X50720Y10230D02*
X49753Y10230D01*
X49758Y10234D01*
X49803Y10298D01*
X49836Y10371D01*
X49853Y10448D01*
X49855Y10539D01*
X49855Y11539D01*
X49855Y17539D01*
X49839Y17617D01*
X49809Y17691D01*
X49765Y17757D01*
X49709Y17813D01*
X49643Y17857D01*
X49570Y17888D01*
X49492Y17904D01*
X49413Y17905D01*
X49335Y17890D01*
X49261Y17860D01*
X49194Y17817D01*
X49138Y17761D01*
X49093Y17696D01*
X49062Y17623D01*
X49045Y17545D01*
X49044Y17465D01*
X49058Y17387D01*
X49088Y17313D01*
X49131Y17247D01*
X49186Y17190D01*
X49251Y17144D01*
X49324Y17112D01*
X49401Y17095D01*
X49481Y17094D01*
X49559Y17108D01*
X49633Y17136D01*
X49700Y17179D01*
X49758Y17234D01*
X49803Y17298D01*
X49836Y17371D01*
X49853Y17448D01*
X49855Y17539D01*
X49855Y11539D01*
X49839Y11617D01*
X49809Y11691D01*
X49765Y11757D01*
X49709Y11813D01*
X49643Y11857D01*
X49570Y11888D01*
X49492Y11904D01*
X49413Y11905D01*
X49335Y11890D01*
X49280Y11868D01*
X49280Y13552D01*
X49269Y13606D01*
X49248Y13657D01*
X49218Y13702D01*
X49179Y13741D01*
X49133Y13772D01*
X49083Y13793D01*
X49029Y13804D01*
X48974Y13805D01*
X48920Y13794D01*
X48869Y13774D01*
X48823Y13744D01*
X48784Y13705D01*
X48753Y13660D01*
X48731Y13610D01*
X48720Y13556D01*
X48719Y13501D01*
X48729Y13447D01*
X48749Y13396D01*
X48779Y13350D01*
X48817Y13310D01*
X48862Y13279D01*
X48913Y13257D01*
X48966Y13245D01*
X49021Y13244D01*
X49075Y13254D01*
X49126Y13273D01*
X49173Y13303D01*
X49212Y13341D01*
X49244Y13386D01*
X49266Y13436D01*
X49279Y13489D01*
X49280Y13552D01*
X49280Y11868D01*
X49261Y11860D01*
X49194Y11817D01*
X49138Y11761D01*
X49093Y11696D01*
X49062Y11623D01*
X49045Y11545D01*
X49044Y11465D01*
X49058Y11387D01*
X49088Y11313D01*
X49131Y11247D01*
X49186Y11190D01*
X49251Y11144D01*
X49324Y11112D01*
X49401Y11095D01*
X49481Y11094D01*
X49559Y11108D01*
X49633Y11136D01*
X49700Y11179D01*
X49758Y11234D01*
X49803Y11298D01*
X49836Y11371D01*
X49853Y11448D01*
X49855Y11539D01*
X49855Y10539D01*
X49839Y10617D01*
X49809Y10691D01*
X49765Y10757D01*
X49709Y10813D01*
X49643Y10857D01*
X49570Y10888D01*
X49492Y10904D01*
X49413Y10905D01*
X49335Y10890D01*
X49261Y10860D01*
X49194Y10817D01*
X49138Y10761D01*
X49093Y10696D01*
X49062Y10623D01*
X49045Y10545D01*
X49044Y10465D01*
X49058Y10387D01*
X49088Y10313D01*
X49131Y10247D01*
X49147Y10230D01*
X48876Y10230D01*
X48879Y10239D01*
X48880Y10302D01*
X48869Y10356D01*
X48848Y10407D01*
X48818Y10452D01*
X48779Y10491D01*
X48733Y10522D01*
X48683Y10543D01*
X48629Y10554D01*
X48574Y10555D01*
X48520Y10544D01*
X48469Y10524D01*
X48423Y10494D01*
X48384Y10455D01*
X48353Y10410D01*
X48331Y10360D01*
X48320Y10306D01*
X48319Y10251D01*
X48323Y10230D01*
X48255Y10230D01*
X48255Y15927D01*
X48244Y15981D01*
X48223Y16032D01*
X48193Y16077D01*
X48154Y16116D01*
X48108Y16147D01*
X48058Y16168D01*
X48004Y16179D01*
X47949Y16180D01*
X47895Y16169D01*
X47844Y16149D01*
X47798Y16119D01*
X47759Y16080D01*
X47728Y16035D01*
X47725Y16027D01*
X47723Y16032D01*
X47693Y16077D01*
X47654Y16116D01*
X47608Y16147D01*
X47558Y16168D01*
X47504Y16179D01*
X47449Y16180D01*
X47395Y16169D01*
X47344Y16149D01*
X47298Y16119D01*
X47262Y16083D01*
X47229Y16116D01*
X47183Y16147D01*
X47133Y16168D01*
X47079Y16179D01*
X47024Y16180D01*
X46970Y16169D01*
X46919Y16149D01*
X46873Y16119D01*
X46834Y16080D01*
X46803Y16035D01*
X46781Y15985D01*
X46770Y15931D01*
X46769Y15876D01*
X46779Y15822D01*
X46799Y15771D01*
X46829Y15725D01*
X46867Y15685D01*
X46912Y15654D01*
X46963Y15632D01*
X47016Y15620D01*
X47071Y15619D01*
X47125Y15629D01*
X47176Y15648D01*
X47223Y15678D01*
X47262Y15716D01*
X47263Y15716D01*
X47292Y15685D01*
X47337Y15654D01*
X47388Y15632D01*
X47441Y15620D01*
X47496Y15619D01*
X47550Y15629D01*
X47601Y15648D01*
X47648Y15678D01*
X47687Y15716D01*
X47719Y15761D01*
X47724Y15771D01*
X47724Y15771D01*
X47754Y15725D01*
X47792Y15685D01*
X47837Y15654D01*
X47888Y15632D01*
X47941Y15620D01*
X47996Y15619D01*
X48050Y15629D01*
X48101Y15648D01*
X48148Y15678D01*
X48187Y15716D01*
X48219Y15761D01*
X48241Y15811D01*
X48254Y15864D01*
X48255Y15927D01*
X48255Y10230D01*
X47055Y10230D01*
X47055Y10677D01*
X47047Y10715D01*
X47047Y13177D01*
X47036Y13231D01*
X47015Y13282D01*
X46985Y13327D01*
X46946Y13366D01*
X46901Y13397D01*
X46850Y13418D01*
X46796Y13429D01*
X46742Y13430D01*
X46688Y13419D01*
X46637Y13399D01*
X46591Y13369D01*
X46551Y13330D01*
X46520Y13285D01*
X46499Y13235D01*
X46487Y13181D01*
X46487Y13126D01*
X46497Y13072D01*
X46517Y13021D01*
X46547Y12975D01*
X46585Y12935D01*
X46630Y12904D01*
X46680Y12882D01*
X46734Y12870D01*
X46789Y12869D01*
X46843Y12879D01*
X46894Y12898D01*
X46940Y12928D01*
X46980Y12966D01*
X47012Y13011D01*
X47034Y13061D01*
X47046Y13114D01*
X47047Y13177D01*
X47047Y10715D01*
X47044Y10731D01*
X47023Y10782D01*
X46993Y10827D01*
X46954Y10866D01*
X46908Y10897D01*
X46858Y10918D01*
X46804Y10929D01*
X46749Y10930D01*
X46695Y10919D01*
X46644Y10899D01*
X46598Y10869D01*
X46559Y10830D01*
X46528Y10785D01*
X46506Y10735D01*
X46495Y10681D01*
X46494Y10626D01*
X46504Y10572D01*
X46524Y10521D01*
X46554Y10475D01*
X46592Y10435D01*
X46637Y10404D01*
X46688Y10382D01*
X46741Y10370D01*
X46796Y10369D01*
X46850Y10379D01*
X46901Y10398D01*
X46948Y10428D01*
X46987Y10466D01*
X47019Y10511D01*
X47041Y10561D01*
X47054Y10614D01*
X47055Y10677D01*
X47055Y10230D01*
X46212Y10230D01*
X46212Y12527D01*
X46201Y12581D01*
X46180Y12632D01*
X46150Y12677D01*
X46111Y12716D01*
X46066Y12747D01*
X46063Y12748D01*
X46063Y15777D01*
X46052Y15831D01*
X46031Y15882D01*
X46001Y15927D01*
X45962Y15966D01*
X45916Y15997D01*
X45866Y16018D01*
X45812Y16029D01*
X45757Y16030D01*
X45703Y16019D01*
X45652Y15999D01*
X45606Y15969D01*
X45567Y15930D01*
X45536Y15885D01*
X45514Y15835D01*
X45503Y15781D01*
X45502Y15726D01*
X45512Y15672D01*
X45532Y15621D01*
X45562Y15575D01*
X45600Y15535D01*
X45645Y15504D01*
X45696Y15482D01*
X45749Y15470D01*
X45804Y15469D01*
X45858Y15479D01*
X45909Y15498D01*
X45956Y15528D01*
X45995Y15566D01*
X46027Y15611D01*
X46049Y15661D01*
X46062Y15714D01*
X46063Y15777D01*
X46063Y12748D01*
X46015Y12768D01*
X45961Y12779D01*
X45907Y12780D01*
X45879Y12775D01*
X45880Y12777D01*
X45869Y12831D01*
X45848Y12882D01*
X45818Y12927D01*
X45780Y12966D01*
X45780Y14777D01*
X45769Y14831D01*
X45748Y14882D01*
X45718Y14927D01*
X45679Y14966D01*
X45633Y14997D01*
X45583Y15018D01*
X45529Y15029D01*
X45474Y15030D01*
X45420Y15019D01*
X45369Y14999D01*
X45323Y14969D01*
X45284Y14930D01*
X45253Y14885D01*
X45231Y14835D01*
X45220Y14781D01*
X45219Y14726D01*
X45229Y14672D01*
X45249Y14621D01*
X45279Y14575D01*
X45317Y14535D01*
X45362Y14504D01*
X45413Y14482D01*
X45466Y14470D01*
X45521Y14469D01*
X45575Y14479D01*
X45626Y14498D01*
X45673Y14528D01*
X45712Y14566D01*
X45744Y14611D01*
X45766Y14661D01*
X45779Y14714D01*
X45780Y14777D01*
X45780Y12966D01*
X45779Y12966D01*
X45733Y12997D01*
X45683Y13018D01*
X45629Y13029D01*
X45574Y13030D01*
X45520Y13019D01*
X45469Y12999D01*
X45423Y12969D01*
X45384Y12930D01*
X45353Y12885D01*
X45331Y12835D01*
X45320Y12781D01*
X45319Y12726D01*
X45329Y12672D01*
X45349Y12621D01*
X45379Y12575D01*
X45417Y12535D01*
X45462Y12504D01*
X45513Y12482D01*
X45566Y12470D01*
X45621Y12469D01*
X45652Y12474D01*
X45662Y12422D01*
X45682Y12371D01*
X45712Y12325D01*
X45750Y12285D01*
X45795Y12254D01*
X45845Y12232D01*
X45899Y12220D01*
X45954Y12219D01*
X46008Y12229D01*
X46059Y12248D01*
X46105Y12278D01*
X46145Y12316D01*
X46177Y12361D01*
X46199Y12411D01*
X46211Y12464D01*
X46212Y12527D01*
X46212Y10230D01*
X46030Y10230D01*
X46030Y10627D01*
X46019Y10681D01*
X45998Y10732D01*
X45968Y10777D01*
X45929Y10816D01*
X45883Y10847D01*
X45833Y10868D01*
X45779Y10879D01*
X45730Y10880D01*
X45730Y11227D01*
X45719Y11281D01*
X45698Y11332D01*
X45668Y11377D01*
X45629Y11416D01*
X45583Y11447D01*
X45533Y11468D01*
X45479Y11479D01*
X45424Y11480D01*
X45370Y11469D01*
X45319Y11449D01*
X45273Y11419D01*
X45234Y11380D01*
X45203Y11335D01*
X45197Y11320D01*
X45197Y16152D01*
X45186Y16206D01*
X45165Y16257D01*
X45135Y16302D01*
X45096Y16341D01*
X45050Y16372D01*
X45000Y16393D01*
X44946Y16404D01*
X44891Y16405D01*
X44837Y16394D01*
X44786Y16374D01*
X44740Y16344D01*
X44701Y16305D01*
X44670Y16260D01*
X44648Y16210D01*
X44637Y16156D01*
X44636Y16101D01*
X44646Y16047D01*
X44666Y15996D01*
X44696Y15950D01*
X44734Y15910D01*
X44779Y15879D01*
X44830Y15857D01*
X44883Y15845D01*
X44938Y15844D01*
X44992Y15854D01*
X45043Y15873D01*
X45090Y15903D01*
X45129Y15941D01*
X45161Y15986D01*
X45183Y16036D01*
X45196Y16089D01*
X45197Y16152D01*
X45197Y11320D01*
X45181Y11285D01*
X45170Y11231D01*
X45170Y11226D01*
X45169Y11231D01*
X45148Y11282D01*
X45118Y11327D01*
X45079Y11366D01*
X45033Y11397D01*
X44983Y11418D01*
X44930Y11429D01*
X44930Y13477D01*
X44919Y13531D01*
X44898Y13582D01*
X44868Y13627D01*
X44829Y13666D01*
X44783Y13697D01*
X44733Y13718D01*
X44679Y13729D01*
X44679Y13729D01*
X44680Y13777D01*
X44669Y13831D01*
X44648Y13882D01*
X44618Y13927D01*
X44579Y13966D01*
X44533Y13997D01*
X44483Y14018D01*
X44429Y14029D01*
X44374Y14030D01*
X44320Y14019D01*
X44305Y14013D01*
X44305Y17339D01*
X44305Y18339D01*
X44289Y18417D01*
X44259Y18491D01*
X44215Y18557D01*
X44159Y18613D01*
X44093Y18657D01*
X44020Y18688D01*
X43942Y18704D01*
X43863Y18705D01*
X43785Y18690D01*
X43711Y18660D01*
X43644Y18617D01*
X43588Y18561D01*
X43543Y18496D01*
X43512Y18423D01*
X43495Y18345D01*
X43494Y18265D01*
X43508Y18187D01*
X43538Y18113D01*
X43581Y18047D01*
X43636Y17990D01*
X43701Y17944D01*
X43774Y17912D01*
X43851Y17895D01*
X43931Y17894D01*
X44009Y17908D01*
X44083Y17936D01*
X44150Y17979D01*
X44208Y18034D01*
X44253Y18098D01*
X44286Y18171D01*
X44303Y18248D01*
X44305Y18339D01*
X44305Y17339D01*
X44289Y17417D01*
X44259Y17491D01*
X44215Y17557D01*
X44159Y17613D01*
X44093Y17657D01*
X44020Y17688D01*
X43942Y17704D01*
X43863Y17705D01*
X43785Y17690D01*
X43711Y17660D01*
X43644Y17617D01*
X43588Y17561D01*
X43543Y17496D01*
X43512Y17423D01*
X43495Y17345D01*
X43494Y17265D01*
X43508Y17187D01*
X43538Y17113D01*
X43581Y17047D01*
X43636Y16990D01*
X43701Y16944D01*
X43774Y16912D01*
X43851Y16895D01*
X43931Y16894D01*
X44009Y16908D01*
X44083Y16936D01*
X44150Y16979D01*
X44208Y17034D01*
X44253Y17098D01*
X44286Y17171D01*
X44303Y17248D01*
X44305Y17339D01*
X44305Y14013D01*
X44269Y13999D01*
X44223Y13969D01*
X44184Y13930D01*
X44156Y13889D01*
X44129Y13916D01*
X44083Y13947D01*
X44067Y13954D01*
X44151Y14073D01*
X44219Y14227D01*
X44257Y14391D01*
X44260Y14584D01*
X44227Y14749D01*
X44163Y14905D01*
X44069Y15046D01*
X43950Y15165D01*
X43811Y15260D01*
X43655Y15325D01*
X43490Y15359D01*
X43321Y15360D01*
X43305Y15357D01*
X43305Y16036D01*
X43305Y17036D01*
X43305Y18036D01*
X43305Y18587D01*
X43300Y18612D01*
X43290Y18636D01*
X43276Y18657D01*
X43258Y18675D01*
X43237Y18689D01*
X43213Y18699D01*
X43188Y18704D01*
X43163Y18705D01*
X42612Y18705D01*
X42587Y18700D01*
X42563Y18690D01*
X42542Y18676D01*
X42524Y18658D01*
X42510Y18637D01*
X42500Y18613D01*
X42495Y18588D01*
X42494Y18563D01*
X42494Y18012D01*
X42499Y17987D01*
X42509Y17963D01*
X42523Y17942D01*
X42541Y17924D01*
X42562Y17910D01*
X42586Y17900D01*
X42611Y17895D01*
X42636Y17894D01*
X43187Y17894D01*
X43212Y17899D01*
X43236Y17909D01*
X43257Y17923D01*
X43275Y17941D01*
X43289Y17962D01*
X43299Y17986D01*
X43304Y18011D01*
X43305Y18036D01*
X43305Y17036D01*
X43305Y17587D01*
X43300Y17612D01*
X43290Y17636D01*
X43276Y17657D01*
X43258Y17675D01*
X43237Y17689D01*
X43213Y17699D01*
X43188Y17704D01*
X43163Y17705D01*
X42612Y17705D01*
X42587Y17700D01*
X42563Y17690D01*
X42542Y17676D01*
X42524Y17658D01*
X42510Y17637D01*
X42500Y17613D01*
X42495Y17588D01*
X42494Y17563D01*
X42494Y17012D01*
X42499Y16987D01*
X42509Y16963D01*
X42523Y16942D01*
X42541Y16924D01*
X42562Y16910D01*
X42586Y16900D01*
X42611Y16895D01*
X42636Y16894D01*
X43187Y16894D01*
X43212Y16899D01*
X43236Y16909D01*
X43257Y16923D01*
X43275Y16941D01*
X43289Y16962D01*
X43299Y16986D01*
X43304Y17011D01*
X43305Y17036D01*
X43305Y16036D01*
X43305Y16587D01*
X43300Y16612D01*
X43290Y16636D01*
X43276Y16657D01*
X43258Y16675D01*
X43237Y16689D01*
X43213Y16699D01*
X43188Y16704D01*
X43163Y16705D01*
X42612Y16705D01*
X42587Y16700D01*
X42563Y16690D01*
X42542Y16676D01*
X42524Y16658D01*
X42510Y16637D01*
X42500Y16613D01*
X42495Y16588D01*
X42494Y16563D01*
X42494Y16012D01*
X42499Y15987D01*
X42509Y15963D01*
X42523Y15942D01*
X42541Y15924D01*
X42562Y15910D01*
X42586Y15900D01*
X42611Y15895D01*
X42636Y15894D01*
X43187Y15894D01*
X43212Y15899D01*
X43236Y15909D01*
X43257Y15923D01*
X43275Y15941D01*
X43289Y15962D01*
X43299Y15986D01*
X43304Y16011D01*
X43305Y16036D01*
X43305Y15357D01*
X43156Y15329D01*
X42999Y15265D01*
X42858Y15173D01*
X42738Y15055D01*
X42642Y14916D01*
X42576Y14761D01*
X42541Y14596D01*
X42538Y14427D01*
X42569Y14261D01*
X42631Y14104D01*
X42722Y13963D01*
X42839Y13841D01*
X42978Y13745D01*
X43132Y13678D01*
X43240Y13654D01*
X43231Y13635D01*
X43220Y13581D01*
X43219Y13529D01*
X43170Y13519D01*
X43119Y13499D01*
X43073Y13469D01*
X43034Y13430D01*
X43003Y13385D01*
X42981Y13335D01*
X42970Y13281D01*
X42969Y13226D01*
X42979Y13172D01*
X42999Y13121D01*
X43029Y13075D01*
X43067Y13035D01*
X43112Y13004D01*
X43163Y12982D01*
X43216Y12970D01*
X43271Y12969D01*
X43325Y12979D01*
X43376Y12998D01*
X43423Y13028D01*
X43462Y13066D01*
X43494Y13111D01*
X43516Y13161D01*
X43529Y13214D01*
X43529Y13270D01*
X43575Y13279D01*
X43626Y13298D01*
X43673Y13328D01*
X43712Y13366D01*
X43744Y13411D01*
X43766Y13461D01*
X43771Y13482D01*
X43812Y13454D01*
X43863Y13432D01*
X43916Y13420D01*
X43971Y13419D01*
X44025Y13429D01*
X44076Y13448D01*
X44123Y13478D01*
X44162Y13516D01*
X44194Y13560D01*
X44217Y13535D01*
X44262Y13504D01*
X44313Y13482D01*
X44366Y13470D01*
X44370Y13470D01*
X44369Y13426D01*
X44379Y13372D01*
X44399Y13321D01*
X44429Y13275D01*
X44467Y13235D01*
X44512Y13204D01*
X44563Y13182D01*
X44616Y13170D01*
X44671Y13169D01*
X44725Y13179D01*
X44776Y13198D01*
X44823Y13228D01*
X44862Y13266D01*
X44894Y13311D01*
X44916Y13361D01*
X44929Y13414D01*
X44930Y13477D01*
X44930Y11429D01*
X44929Y11429D01*
X44874Y11430D01*
X44820Y11419D01*
X44805Y11413D01*
X44805Y12252D01*
X44794Y12306D01*
X44773Y12357D01*
X44743Y12402D01*
X44704Y12441D01*
X44658Y12472D01*
X44608Y12493D01*
X44554Y12504D01*
X44499Y12505D01*
X44445Y12494D01*
X44394Y12474D01*
X44348Y12444D01*
X44309Y12405D01*
X44278Y12360D01*
X44256Y12310D01*
X44245Y12256D01*
X44244Y12201D01*
X44254Y12147D01*
X44274Y12096D01*
X44304Y12050D01*
X44342Y12010D01*
X44387Y11979D01*
X44438Y11957D01*
X44491Y11945D01*
X44546Y11944D01*
X44600Y11954D01*
X44651Y11973D01*
X44698Y12003D01*
X44737Y12041D01*
X44769Y12086D01*
X44791Y12136D01*
X44804Y12189D01*
X44805Y12252D01*
X44805Y11413D01*
X44769Y11399D01*
X44723Y11369D01*
X44684Y11330D01*
X44666Y11304D01*
X44633Y11318D01*
X44579Y11329D01*
X44524Y11330D01*
X44470Y11319D01*
X44433Y11304D01*
X44418Y11327D01*
X44379Y11366D01*
X44333Y11397D01*
X44283Y11418D01*
X44229Y11429D01*
X44174Y11430D01*
X44120Y11419D01*
X44069Y11399D01*
X44023Y11369D01*
X43984Y11330D01*
X43953Y11285D01*
X43931Y11235D01*
X43920Y11181D01*
X43919Y11126D01*
X43929Y11072D01*
X43949Y11021D01*
X43979Y10975D01*
X44017Y10935D01*
X44062Y10904D01*
X44113Y10882D01*
X44166Y10870D01*
X44221Y10869D01*
X44275Y10879D01*
X44316Y10894D01*
X44329Y10875D01*
X44367Y10835D01*
X44412Y10804D01*
X44463Y10782D01*
X44516Y10770D01*
X44571Y10769D01*
X44625Y10779D01*
X44676Y10798D01*
X44723Y10828D01*
X44762Y10866D01*
X44783Y10895D01*
X44813Y10882D01*
X44866Y10870D01*
X44921Y10869D01*
X44975Y10879D01*
X45026Y10898D01*
X45073Y10928D01*
X45112Y10966D01*
X45144Y11011D01*
X45166Y11061D01*
X45179Y11114D01*
X45179Y11123D01*
X45179Y11122D01*
X45199Y11071D01*
X45229Y11025D01*
X45267Y10985D01*
X45312Y10954D01*
X45363Y10932D01*
X45416Y10920D01*
X45471Y10919D01*
X45525Y10929D01*
X45576Y10948D01*
X45623Y10978D01*
X45662Y11016D01*
X45694Y11061D01*
X45716Y11111D01*
X45729Y11164D01*
X45730Y11227D01*
X45730Y10880D01*
X45724Y10880D01*
X45670Y10869D01*
X45619Y10849D01*
X45573Y10819D01*
X45534Y10780D01*
X45503Y10735D01*
X45481Y10685D01*
X45470Y10631D01*
X45469Y10576D01*
X45479Y10522D01*
X45499Y10471D01*
X45529Y10425D01*
X45567Y10385D01*
X45612Y10354D01*
X45663Y10332D01*
X45716Y10320D01*
X45771Y10319D01*
X45825Y10329D01*
X45876Y10348D01*
X45923Y10378D01*
X45962Y10416D01*
X45994Y10461D01*
X46016Y10511D01*
X46029Y10564D01*
X46030Y10627D01*
X46030Y10230D01*
X43830Y10230D01*
X43830Y11127D01*
X43819Y11181D01*
X43798Y11232D01*
X43768Y11277D01*
X43729Y11316D01*
X43683Y11347D01*
X43633Y11368D01*
X43579Y11379D01*
X43524Y11380D01*
X43470Y11369D01*
X43419Y11349D01*
X43390Y11330D01*
X43354Y11366D01*
X43308Y11397D01*
X43280Y11409D01*
X43280Y12202D01*
X43269Y12256D01*
X43248Y12307D01*
X43218Y12352D01*
X43179Y12391D01*
X43133Y12422D01*
X43083Y12443D01*
X43029Y12454D01*
X42974Y12455D01*
X42920Y12444D01*
X42869Y12424D01*
X42830Y12398D01*
X42830Y13577D01*
X42819Y13631D01*
X42798Y13682D01*
X42768Y13727D01*
X42729Y13766D01*
X42683Y13797D01*
X42633Y13818D01*
X42579Y13829D01*
X42524Y13830D01*
X42470Y13819D01*
X42468Y13819D01*
X42479Y13864D01*
X42480Y13927D01*
X42469Y13981D01*
X42448Y14032D01*
X42418Y14077D01*
X42379Y14116D01*
X42333Y14147D01*
X42283Y14168D01*
X42229Y14179D01*
X42174Y14180D01*
X42120Y14169D01*
X42080Y14153D01*
X42080Y15659D01*
X42069Y15713D01*
X42048Y15764D01*
X42018Y15810D01*
X41979Y15849D01*
X41933Y15879D01*
X41885Y15900D01*
X41926Y15916D01*
X41973Y15945D01*
X42012Y15983D01*
X42044Y16028D01*
X42066Y16078D01*
X42079Y16132D01*
X42080Y16194D01*
X42069Y16248D01*
X42048Y16299D01*
X42018Y16345D01*
X41979Y16384D01*
X41933Y16414D01*
X41883Y16436D01*
X41829Y16447D01*
X41774Y16447D01*
X41720Y16437D01*
X41669Y16416D01*
X41623Y16386D01*
X41584Y16348D01*
X41553Y16303D01*
X41531Y16252D01*
X41520Y16198D01*
X41519Y16143D01*
X41529Y16089D01*
X41549Y16038D01*
X41579Y15992D01*
X41617Y15953D01*
X41662Y15921D01*
X41713Y15899D01*
X41713Y15899D01*
X41669Y15881D01*
X41623Y15851D01*
X41584Y15813D01*
X41553Y15768D01*
X41531Y15717D01*
X41520Y15663D01*
X41519Y15608D01*
X41529Y15554D01*
X41549Y15503D01*
X41579Y15457D01*
X41617Y15418D01*
X41662Y15386D01*
X41713Y15364D01*
X41766Y15353D01*
X41821Y15351D01*
X41875Y15361D01*
X41926Y15381D01*
X41973Y15410D01*
X42012Y15448D01*
X42044Y15493D01*
X42066Y15543D01*
X42079Y15597D01*
X42080Y15659D01*
X42080Y14153D01*
X42069Y14149D01*
X42023Y14119D01*
X41984Y14080D01*
X41953Y14035D01*
X41931Y13985D01*
X41920Y13931D01*
X41919Y13876D01*
X41929Y13822D01*
X41949Y13771D01*
X41979Y13725D01*
X42017Y13685D01*
X42062Y13654D01*
X42113Y13632D01*
X42166Y13620D01*
X42221Y13619D01*
X42275Y13629D01*
X42280Y13631D01*
X42270Y13581D01*
X42269Y13526D01*
X42279Y13472D01*
X42299Y13421D01*
X42329Y13375D01*
X42367Y13335D01*
X42412Y13304D01*
X42463Y13282D01*
X42516Y13270D01*
X42571Y13269D01*
X42625Y13279D01*
X42676Y13298D01*
X42723Y13328D01*
X42762Y13366D01*
X42794Y13411D01*
X42816Y13461D01*
X42829Y13514D01*
X42830Y13577D01*
X42830Y12398D01*
X42823Y12394D01*
X42784Y12355D01*
X42753Y12310D01*
X42731Y12260D01*
X42720Y12206D01*
X42719Y12151D01*
X42729Y12097D01*
X42749Y12046D01*
X42779Y12000D01*
X42817Y11960D01*
X42862Y11929D01*
X42913Y11907D01*
X42966Y11895D01*
X43021Y11894D01*
X43075Y11904D01*
X43126Y11923D01*
X43173Y11953D01*
X43212Y11991D01*
X43244Y12036D01*
X43266Y12086D01*
X43279Y12139D01*
X43280Y12202D01*
X43280Y11409D01*
X43258Y11418D01*
X43204Y11429D01*
X43149Y11430D01*
X43095Y11419D01*
X43044Y11399D01*
X42998Y11369D01*
X42959Y11330D01*
X42928Y11285D01*
X42906Y11235D01*
X42895Y11181D01*
X42894Y11126D01*
X42904Y11072D01*
X42924Y11021D01*
X42954Y10975D01*
X42992Y10935D01*
X43037Y10904D01*
X43088Y10882D01*
X43141Y10870D01*
X43196Y10869D01*
X43250Y10879D01*
X43301Y10898D01*
X43334Y10919D01*
X43367Y10885D01*
X43412Y10854D01*
X43463Y10832D01*
X43516Y10820D01*
X43571Y10819D01*
X43625Y10829D01*
X43676Y10848D01*
X43723Y10878D01*
X43762Y10916D01*
X43794Y10961D01*
X43816Y11011D01*
X43829Y11064D01*
X43830Y11127D01*
X43830Y10230D01*
X42630Y10230D01*
X42630Y12202D01*
X42619Y12256D01*
X42598Y12307D01*
X42568Y12352D01*
X42529Y12391D01*
X42483Y12422D01*
X42433Y12443D01*
X42379Y12454D01*
X42324Y12455D01*
X42270Y12444D01*
X42219Y12424D01*
X42173Y12394D01*
X42162Y12383D01*
X42154Y12391D01*
X42108Y12422D01*
X42058Y12443D01*
X42005Y12454D01*
X42005Y13327D01*
X41994Y13381D01*
X41973Y13432D01*
X41943Y13477D01*
X41904Y13516D01*
X41858Y13547D01*
X41808Y13568D01*
X41754Y13579D01*
X41699Y13580D01*
X41645Y13569D01*
X41594Y13549D01*
X41548Y13519D01*
X41520Y13491D01*
X41519Y13498D01*
X41498Y13549D01*
X41468Y13595D01*
X41430Y13633D01*
X41430Y15659D01*
X41419Y15713D01*
X41398Y15764D01*
X41368Y15810D01*
X41329Y15849D01*
X41283Y15879D01*
X41233Y15901D01*
X41179Y15912D01*
X41124Y15912D01*
X41070Y15902D01*
X41019Y15881D01*
X40973Y15851D01*
X40934Y15813D01*
X40903Y15768D01*
X40881Y15717D01*
X40870Y15663D01*
X40869Y15608D01*
X40879Y15554D01*
X40899Y15503D01*
X40929Y15457D01*
X40967Y15418D01*
X41012Y15386D01*
X41063Y15364D01*
X41116Y15353D01*
X41171Y15351D01*
X41225Y15361D01*
X41276Y15381D01*
X41323Y15410D01*
X41362Y15448D01*
X41394Y15493D01*
X41416Y15543D01*
X41429Y15597D01*
X41430Y15659D01*
X41430Y13633D01*
X41429Y13634D01*
X41383Y13664D01*
X41333Y13686D01*
X41279Y13697D01*
X41224Y13697D01*
X41170Y13687D01*
X41119Y13666D01*
X41073Y13636D01*
X41034Y13598D01*
X41003Y13553D01*
X40981Y13502D01*
X40970Y13448D01*
X40969Y13393D01*
X40979Y13339D01*
X40999Y13288D01*
X41029Y13242D01*
X41067Y13203D01*
X41112Y13171D01*
X41163Y13149D01*
X41216Y13138D01*
X41271Y13136D01*
X41325Y13146D01*
X41376Y13166D01*
X41423Y13195D01*
X41454Y13225D01*
X41454Y13222D01*
X41474Y13171D01*
X41494Y13140D01*
X41459Y13105D01*
X41428Y13060D01*
X41406Y13010D01*
X41395Y12956D01*
X41394Y12901D01*
X41404Y12847D01*
X41424Y12796D01*
X41454Y12750D01*
X41492Y12710D01*
X41537Y12679D01*
X41588Y12657D01*
X41641Y12645D01*
X41696Y12644D01*
X41750Y12654D01*
X41801Y12673D01*
X41848Y12703D01*
X41887Y12741D01*
X41919Y12786D01*
X41941Y12836D01*
X41954Y12889D01*
X41955Y12952D01*
X41944Y13006D01*
X41923Y13057D01*
X41905Y13084D01*
X41937Y13116D01*
X41969Y13161D01*
X41991Y13211D01*
X42004Y13264D01*
X42005Y13327D01*
X42005Y12454D01*
X42004Y12454D01*
X41949Y12455D01*
X41895Y12444D01*
X41844Y12424D01*
X41798Y12394D01*
X41759Y12355D01*
X41728Y12310D01*
X41706Y12260D01*
X41695Y12206D01*
X41694Y12151D01*
X41704Y12097D01*
X41724Y12046D01*
X41754Y12000D01*
X41792Y11960D01*
X41837Y11929D01*
X41888Y11907D01*
X41941Y11895D01*
X41996Y11894D01*
X42050Y11904D01*
X42101Y11923D01*
X42148Y11953D01*
X42162Y11966D01*
X42167Y11960D01*
X42212Y11929D01*
X42263Y11907D01*
X42316Y11895D01*
X42371Y11894D01*
X42425Y11904D01*
X42476Y11923D01*
X42523Y11953D01*
X42562Y11991D01*
X42594Y12036D01*
X42616Y12086D01*
X42629Y12139D01*
X42630Y12202D01*
X42630Y10230D01*
X41679Y10230D01*
X41680Y10277D01*
X41669Y10331D01*
X41648Y10382D01*
X41630Y10409D01*
X41630Y11459D01*
X41619Y11513D01*
X41598Y11564D01*
X41568Y11610D01*
X41529Y11649D01*
X41483Y11679D01*
X41433Y11701D01*
X41379Y11712D01*
X41324Y11712D01*
X41270Y11702D01*
X41219Y11681D01*
X41173Y11651D01*
X41134Y11613D01*
X41103Y11568D01*
X41081Y11517D01*
X41070Y11463D01*
X41069Y11408D01*
X41079Y11354D01*
X41099Y11303D01*
X41129Y11257D01*
X41167Y11218D01*
X41212Y11186D01*
X41263Y11164D01*
X41316Y11153D01*
X41371Y11151D01*
X41425Y11161D01*
X41476Y11181D01*
X41523Y11210D01*
X41562Y11248D01*
X41594Y11293D01*
X41616Y11343D01*
X41629Y11397D01*
X41630Y11459D01*
X41630Y10409D01*
X41618Y10427D01*
X41579Y10466D01*
X41533Y10497D01*
X41483Y10518D01*
X41429Y10529D01*
X41374Y10530D01*
X41320Y10519D01*
X41269Y10499D01*
X41223Y10469D01*
X41184Y10430D01*
X41153Y10385D01*
X41131Y10335D01*
X41120Y10281D01*
X41119Y10230D01*
X40823Y10230D01*
X40827Y10236D01*
X40849Y10286D01*
X40862Y10339D01*
X40863Y10402D01*
X40852Y10456D01*
X40831Y10507D01*
X40801Y10552D01*
X40762Y10591D01*
X40730Y10613D01*
X40730Y17427D01*
X40719Y17481D01*
X40698Y17532D01*
X40668Y17577D01*
X40629Y17616D01*
X40583Y17647D01*
X40533Y17668D01*
X40479Y17679D01*
X40424Y17680D01*
X40370Y17669D01*
X40319Y17649D01*
X40273Y17619D01*
X40234Y17580D01*
X40203Y17535D01*
X40181Y17485D01*
X40170Y17431D01*
X40169Y17376D01*
X40179Y17322D01*
X40199Y17271D01*
X40229Y17225D01*
X40267Y17185D01*
X40312Y17154D01*
X40363Y17132D01*
X40416Y17120D01*
X40471Y17119D01*
X40525Y17129D01*
X40576Y17148D01*
X40623Y17178D01*
X40662Y17216D01*
X40694Y17261D01*
X40716Y17311D01*
X40729Y17364D01*
X40730Y17427D01*
X40730Y10613D01*
X40716Y10622D01*
X40666Y10643D01*
X40612Y10654D01*
X40557Y10655D01*
X40530Y10649D01*
X40530Y14259D01*
X40519Y14313D01*
X40498Y14364D01*
X40468Y14410D01*
X40429Y14449D01*
X40383Y14479D01*
X40333Y14501D01*
X40279Y14512D01*
X40224Y14512D01*
X40170Y14502D01*
X40119Y14481D01*
X40073Y14451D01*
X40034Y14413D01*
X40030Y14406D01*
X40030Y15359D01*
X40019Y15413D01*
X39998Y15464D01*
X39968Y15510D01*
X39929Y15549D01*
X39883Y15579D01*
X39880Y15581D01*
X39880Y16627D01*
X39869Y16681D01*
X39848Y16732D01*
X39818Y16777D01*
X39779Y16816D01*
X39733Y16847D01*
X39683Y16868D01*
X39629Y16879D01*
X39574Y16880D01*
X39520Y16869D01*
X39469Y16849D01*
X39423Y16819D01*
X39399Y16796D01*
X39379Y16816D01*
X39333Y16847D01*
X39283Y16868D01*
X39229Y16879D01*
X39174Y16880D01*
X39129Y16871D01*
X39130Y16877D01*
X39119Y16931D01*
X39098Y16982D01*
X39068Y17027D01*
X39029Y17066D01*
X38983Y17097D01*
X38933Y17118D01*
X38879Y17129D01*
X38824Y17130D01*
X38770Y17119D01*
X38719Y17099D01*
X38673Y17069D01*
X38634Y17030D01*
X38603Y16985D01*
X38581Y16935D01*
X38570Y16881D01*
X38569Y16826D01*
X38579Y16772D01*
X38599Y16721D01*
X38629Y16675D01*
X38667Y16635D01*
X38712Y16604D01*
X38763Y16582D01*
X38816Y16570D01*
X38871Y16569D01*
X38919Y16577D01*
X38919Y16576D01*
X38929Y16522D01*
X38949Y16471D01*
X38979Y16425D01*
X39017Y16385D01*
X39062Y16354D01*
X39113Y16332D01*
X39166Y16320D01*
X39221Y16319D01*
X39275Y16329D01*
X39326Y16348D01*
X39373Y16378D01*
X39400Y16403D01*
X39417Y16385D01*
X39462Y16354D01*
X39513Y16332D01*
X39566Y16320D01*
X39621Y16319D01*
X39675Y16329D01*
X39726Y16348D01*
X39773Y16378D01*
X39812Y16416D01*
X39844Y16461D01*
X39866Y16511D01*
X39879Y16564D01*
X39880Y16627D01*
X39880Y15581D01*
X39833Y15601D01*
X39779Y15612D01*
X39724Y15612D01*
X39670Y15602D01*
X39619Y15581D01*
X39573Y15551D01*
X39534Y15513D01*
X39503Y15468D01*
X39481Y15417D01*
X39470Y15363D01*
X39469Y15308D01*
X39479Y15254D01*
X39499Y15203D01*
X39529Y15157D01*
X39567Y15118D01*
X39612Y15086D01*
X39663Y15064D01*
X39716Y15053D01*
X39771Y15051D01*
X39825Y15061D01*
X39876Y15081D01*
X39923Y15110D01*
X39962Y15148D01*
X39994Y15193D01*
X40016Y15243D01*
X40029Y15297D01*
X40030Y15359D01*
X40030Y14406D01*
X40003Y14368D01*
X39981Y14317D01*
X39970Y14263D01*
X39969Y14208D01*
X39979Y14154D01*
X39999Y14103D01*
X40029Y14057D01*
X40067Y14018D01*
X40112Y13986D01*
X40163Y13964D01*
X40216Y13953D01*
X40271Y13951D01*
X40325Y13961D01*
X40376Y13981D01*
X40423Y14010D01*
X40462Y14048D01*
X40494Y14093D01*
X40516Y14143D01*
X40529Y14197D01*
X40530Y14259D01*
X40530Y10649D01*
X40503Y10644D01*
X40452Y10624D01*
X40406Y10594D01*
X40367Y10555D01*
X40336Y10510D01*
X40314Y10460D01*
X40303Y10406D01*
X40302Y10351D01*
X40312Y10297D01*
X40332Y10246D01*
X40343Y10230D01*
X39997Y10230D01*
X39997Y10777D01*
X39986Y10831D01*
X39965Y10882D01*
X39947Y10909D01*
X39947Y12727D01*
X39936Y12781D01*
X39915Y12832D01*
X39885Y12877D01*
X39846Y12916D01*
X39800Y12947D01*
X39750Y12968D01*
X39696Y12979D01*
X39641Y12980D01*
X39587Y12969D01*
X39536Y12949D01*
X39490Y12919D01*
X39451Y12880D01*
X39420Y12835D01*
X39412Y12817D01*
X39412Y13727D01*
X39401Y13781D01*
X39380Y13832D01*
X39350Y13877D01*
X39330Y13898D01*
X39330Y15359D01*
X39319Y15413D01*
X39298Y15464D01*
X39268Y15510D01*
X39229Y15549D01*
X39183Y15579D01*
X39133Y15601D01*
X39079Y15612D01*
X39024Y15612D01*
X38970Y15602D01*
X38919Y15581D01*
X38873Y15551D01*
X38834Y15513D01*
X38803Y15468D01*
X38781Y15417D01*
X38770Y15363D01*
X38769Y15308D01*
X38779Y15254D01*
X38799Y15203D01*
X38829Y15157D01*
X38867Y15118D01*
X38912Y15086D01*
X38963Y15064D01*
X39016Y15053D01*
X39071Y15051D01*
X39125Y15061D01*
X39176Y15081D01*
X39223Y15110D01*
X39262Y15148D01*
X39294Y15193D01*
X39316Y15243D01*
X39329Y15297D01*
X39330Y15359D01*
X39330Y13898D01*
X39311Y13916D01*
X39266Y13947D01*
X39215Y13968D01*
X39161Y13979D01*
X39107Y13980D01*
X39053Y13969D01*
X39002Y13949D01*
X38956Y13919D01*
X38916Y13880D01*
X38885Y13835D01*
X38864Y13785D01*
X38852Y13731D01*
X38852Y13676D01*
X38862Y13622D01*
X38882Y13571D01*
X38912Y13525D01*
X38950Y13485D01*
X38995Y13454D01*
X39045Y13432D01*
X39099Y13420D01*
X39154Y13419D01*
X39208Y13429D01*
X39259Y13448D01*
X39305Y13478D01*
X39345Y13516D01*
X39377Y13561D01*
X39399Y13611D01*
X39411Y13664D01*
X39412Y13727D01*
X39412Y12817D01*
X39398Y12785D01*
X39387Y12731D01*
X39386Y12676D01*
X39396Y12622D01*
X39416Y12571D01*
X39446Y12525D01*
X39484Y12485D01*
X39529Y12454D01*
X39580Y12432D01*
X39633Y12420D01*
X39688Y12419D01*
X39742Y12429D01*
X39793Y12448D01*
X39840Y12478D01*
X39879Y12516D01*
X39911Y12561D01*
X39933Y12611D01*
X39946Y12664D01*
X39947Y12727D01*
X39947Y10909D01*
X39935Y10927D01*
X39896Y10966D01*
X39850Y10997D01*
X39800Y11018D01*
X39746Y11029D01*
X39691Y11030D01*
X39637Y11019D01*
X39586Y10999D01*
X39540Y10969D01*
X39501Y10930D01*
X39470Y10885D01*
X39448Y10835D01*
X39437Y10781D01*
X39436Y10726D01*
X39446Y10672D01*
X39466Y10621D01*
X39496Y10575D01*
X39534Y10535D01*
X39579Y10504D01*
X39630Y10482D01*
X39683Y10470D01*
X39738Y10469D01*
X39792Y10479D01*
X39843Y10498D01*
X39890Y10528D01*
X39929Y10566D01*
X39961Y10611D01*
X39983Y10661D01*
X39996Y10714D01*
X39997Y10777D01*
X39997Y10230D01*
X38947Y10230D01*
X38947Y11777D01*
X38936Y11831D01*
X38915Y11882D01*
X38885Y11927D01*
X38846Y11966D01*
X38800Y11997D01*
X38750Y12018D01*
X38696Y12029D01*
X38641Y12030D01*
X38587Y12019D01*
X38536Y11999D01*
X38490Y11969D01*
X38451Y11930D01*
X38420Y11885D01*
X38398Y11835D01*
X38387Y11781D01*
X38386Y11726D01*
X38396Y11672D01*
X38416Y11621D01*
X38446Y11575D01*
X38484Y11535D01*
X38529Y11504D01*
X38580Y11482D01*
X38633Y11470D01*
X38688Y11469D01*
X38742Y11479D01*
X38793Y11498D01*
X38840Y11528D01*
X38879Y11566D01*
X38911Y11611D01*
X38933Y11661D01*
X38946Y11714D01*
X38947Y11777D01*
X38947Y10230D01*
X38205Y10230D01*
X38205Y17489D01*
X38189Y17567D01*
X38159Y17641D01*
X38115Y17707D01*
X38059Y17763D01*
X37993Y17807D01*
X37920Y17838D01*
X37842Y17854D01*
X37763Y17855D01*
X37685Y17840D01*
X37611Y17810D01*
X37544Y17767D01*
X37488Y17711D01*
X37443Y17646D01*
X37412Y17573D01*
X37395Y17495D01*
X37394Y17415D01*
X37408Y17337D01*
X37438Y17263D01*
X37481Y17197D01*
X37536Y17140D01*
X37601Y17094D01*
X37674Y17062D01*
X37751Y17045D01*
X37831Y17044D01*
X37909Y17058D01*
X37983Y17086D01*
X38050Y17129D01*
X38108Y17184D01*
X38153Y17248D01*
X38186Y17321D01*
X38203Y17398D01*
X38205Y17489D01*
X38205Y10230D01*
X37205Y10230D01*
X37205Y17489D01*
X37189Y17567D01*
X37159Y17641D01*
X37115Y17707D01*
X37059Y17763D01*
X36993Y17807D01*
X36920Y17838D01*
X36842Y17854D01*
X36763Y17855D01*
X36685Y17840D01*
X36611Y17810D01*
X36544Y17767D01*
X36488Y17711D01*
X36443Y17646D01*
X36412Y17573D01*
X36395Y17495D01*
X36394Y17415D01*
X36408Y17337D01*
X36438Y17263D01*
X36481Y17197D01*
X36536Y17140D01*
X36601Y17094D01*
X36674Y17062D01*
X36751Y17045D01*
X36831Y17044D01*
X36909Y17058D01*
X36983Y17086D01*
X37050Y17129D01*
X37108Y17184D01*
X37153Y17248D01*
X37186Y17321D01*
X37203Y17398D01*
X37205Y17489D01*
X37205Y10230D01*
X37055Y10230D01*
X37055Y13627D01*
X37044Y13681D01*
X37023Y13732D01*
X36993Y13777D01*
X36954Y13816D01*
X36908Y13847D01*
X36858Y13868D01*
X36804Y13879D01*
X36749Y13880D01*
X36730Y13876D01*
X36730Y14827D01*
X36719Y14881D01*
X36698Y14932D01*
X36668Y14977D01*
X36629Y15016D01*
X36583Y15047D01*
X36533Y15068D01*
X36479Y15079D01*
X36424Y15080D01*
X36370Y15069D01*
X36319Y15049D01*
X36273Y15019D01*
X36234Y14980D01*
X36203Y14935D01*
X36181Y14885D01*
X36170Y14831D01*
X36169Y14776D01*
X36179Y14722D01*
X36199Y14671D01*
X36229Y14625D01*
X36267Y14585D01*
X36312Y14554D01*
X36363Y14532D01*
X36416Y14520D01*
X36471Y14519D01*
X36525Y14529D01*
X36576Y14548D01*
X36623Y14578D01*
X36662Y14616D01*
X36694Y14661D01*
X36716Y14711D01*
X36729Y14764D01*
X36730Y14827D01*
X36730Y13876D01*
X36695Y13869D01*
X36644Y13849D01*
X36598Y13819D01*
X36559Y13780D01*
X36528Y13735D01*
X36506Y13685D01*
X36495Y13631D01*
X36494Y13576D01*
X36504Y13522D01*
X36524Y13471D01*
X36554Y13425D01*
X36592Y13385D01*
X36637Y13354D01*
X36688Y13332D01*
X36741Y13320D01*
X36796Y13319D01*
X36850Y13329D01*
X36901Y13348D01*
X36948Y13378D01*
X36987Y13416D01*
X37019Y13461D01*
X37041Y13511D01*
X37054Y13564D01*
X37055Y13627D01*
X37055Y10230D01*
X36230Y10230D01*
X36230Y14327D01*
X36219Y14381D01*
X36198Y14432D01*
X36168Y14477D01*
X36129Y14516D01*
X36083Y14547D01*
X36033Y14568D01*
X35979Y14579D01*
X35924Y14580D01*
X35870Y14569D01*
X35819Y14549D01*
X35773Y14519D01*
X35734Y14480D01*
X35703Y14435D01*
X35681Y14385D01*
X35670Y14331D01*
X35669Y14276D01*
X35679Y14222D01*
X35699Y14171D01*
X35729Y14125D01*
X35767Y14085D01*
X35812Y14054D01*
X35863Y14032D01*
X35916Y14020D01*
X35971Y14019D01*
X36025Y14029D01*
X36076Y14048D01*
X36123Y14078D01*
X36162Y14116D01*
X36194Y14161D01*
X36216Y14211D01*
X36229Y14264D01*
X36230Y14327D01*
X36230Y10230D01*
X35205Y10230D01*
X35205Y17489D01*
X35189Y17567D01*
X35159Y17641D01*
X35115Y17707D01*
X35059Y17763D01*
X34993Y17807D01*
X34920Y17838D01*
X34842Y17854D01*
X34763Y17855D01*
X34685Y17840D01*
X34611Y17810D01*
X34544Y17767D01*
X34488Y17711D01*
X34443Y17646D01*
X34412Y17573D01*
X34395Y17495D01*
X34394Y17415D01*
X34408Y17337D01*
X34438Y17263D01*
X34481Y17197D01*
X34536Y17140D01*
X34601Y17094D01*
X34674Y17062D01*
X34751Y17045D01*
X34831Y17044D01*
X34909Y17058D01*
X34983Y17086D01*
X35050Y17129D01*
X35108Y17184D01*
X35153Y17248D01*
X35186Y17321D01*
X35203Y17398D01*
X35205Y17489D01*
X35205Y10230D01*
X34205Y10230D01*
X34205Y17489D01*
X34189Y17567D01*
X34159Y17641D01*
X34115Y17707D01*
X34059Y17763D01*
X33993Y17807D01*
X33920Y17838D01*
X33842Y17854D01*
X33763Y17855D01*
X33685Y17840D01*
X33611Y17810D01*
X33544Y17767D01*
X33488Y17711D01*
X33443Y17646D01*
X33412Y17573D01*
X33395Y17495D01*
X33394Y17415D01*
X33408Y17337D01*
X33438Y17263D01*
X33481Y17197D01*
X33536Y17140D01*
X33601Y17094D01*
X33674Y17062D01*
X33751Y17045D01*
X33831Y17044D01*
X33909Y17058D01*
X33983Y17086D01*
X34050Y17129D01*
X34108Y17184D01*
X34153Y17248D01*
X34186Y17321D01*
X34203Y17398D01*
X34205Y17489D01*
X34205Y10230D01*
X33205Y10230D01*
X33205Y17489D01*
X33189Y17567D01*
X33159Y17641D01*
X33115Y17707D01*
X33059Y17763D01*
X32993Y17807D01*
X32920Y17838D01*
X32842Y17854D01*
X32763Y17855D01*
X32685Y17840D01*
X32611Y17810D01*
X32544Y17767D01*
X32488Y17711D01*
X32443Y17646D01*
X32412Y17573D01*
X32395Y17495D01*
X32394Y17415D01*
X32408Y17337D01*
X32438Y17263D01*
X32481Y17197D01*
X32536Y17140D01*
X32601Y17094D01*
X32674Y17062D01*
X32751Y17045D01*
X32831Y17044D01*
X32909Y17058D01*
X32983Y17086D01*
X33050Y17129D01*
X33108Y17184D01*
X33153Y17248D01*
X33186Y17321D01*
X33203Y17398D01*
X33205Y17489D01*
X33205Y10230D01*
X32855Y10230D01*
X32855Y10939D01*
X32839Y11017D01*
X32830Y11040D01*
X32830Y14777D01*
X32819Y14831D01*
X32798Y14882D01*
X32768Y14927D01*
X32729Y14966D01*
X32683Y14997D01*
X32633Y15018D01*
X32579Y15029D01*
X32524Y15030D01*
X32470Y15019D01*
X32419Y14999D01*
X32373Y14969D01*
X32334Y14930D01*
X32303Y14885D01*
X32281Y14835D01*
X32270Y14781D01*
X32269Y14726D01*
X32279Y14672D01*
X32299Y14621D01*
X32329Y14575D01*
X32367Y14535D01*
X32412Y14504D01*
X32463Y14482D01*
X32516Y14470D01*
X32571Y14469D01*
X32625Y14479D01*
X32676Y14498D01*
X32723Y14528D01*
X32762Y14566D01*
X32794Y14611D01*
X32816Y14661D01*
X32829Y14714D01*
X32830Y14777D01*
X32830Y11040D01*
X32809Y11091D01*
X32765Y11157D01*
X32709Y11213D01*
X32643Y11257D01*
X32570Y11288D01*
X32555Y11291D01*
X32555Y12852D01*
X32544Y12906D01*
X32523Y12957D01*
X32493Y13002D01*
X32454Y13041D01*
X32408Y13072D01*
X32358Y13093D01*
X32312Y13103D01*
X32312Y13727D01*
X32301Y13781D01*
X32280Y13832D01*
X32250Y13877D01*
X32211Y13916D01*
X32205Y13921D01*
X32205Y17186D01*
X32205Y17737D01*
X32200Y17762D01*
X32190Y17786D01*
X32176Y17807D01*
X32158Y17825D01*
X32137Y17839D01*
X32113Y17849D01*
X32088Y17854D01*
X32063Y17855D01*
X31512Y17855D01*
X31487Y17850D01*
X31463Y17840D01*
X31442Y17826D01*
X31424Y17808D01*
X31410Y17787D01*
X31400Y17763D01*
X31395Y17738D01*
X31394Y17713D01*
X31394Y17162D01*
X31399Y17137D01*
X31409Y17113D01*
X31423Y17092D01*
X31441Y17074D01*
X31462Y17060D01*
X31486Y17050D01*
X31511Y17045D01*
X31536Y17044D01*
X32087Y17044D01*
X32112Y17049D01*
X32136Y17059D01*
X32157Y17073D01*
X32175Y17091D01*
X32189Y17112D01*
X32199Y17136D01*
X32204Y17161D01*
X32205Y17186D01*
X32205Y13921D01*
X32166Y13947D01*
X32115Y13968D01*
X32061Y13979D01*
X32007Y13980D01*
X31953Y13969D01*
X31902Y13949D01*
X31856Y13919D01*
X31816Y13880D01*
X31785Y13835D01*
X31764Y13785D01*
X31752Y13731D01*
X31752Y13676D01*
X31762Y13622D01*
X31782Y13571D01*
X31812Y13525D01*
X31850Y13485D01*
X31895Y13454D01*
X31945Y13432D01*
X31999Y13420D01*
X32054Y13419D01*
X32108Y13429D01*
X32159Y13448D01*
X32205Y13478D01*
X32245Y13516D01*
X32277Y13561D01*
X32299Y13611D01*
X32311Y13664D01*
X32312Y13727D01*
X32312Y13103D01*
X32304Y13104D01*
X32249Y13105D01*
X32195Y13094D01*
X32144Y13074D01*
X32098Y13044D01*
X32059Y13005D01*
X32028Y12960D01*
X32006Y12910D01*
X31995Y12856D01*
X31994Y12801D01*
X32004Y12747D01*
X32024Y12696D01*
X32054Y12650D01*
X32092Y12610D01*
X32137Y12579D01*
X32188Y12557D01*
X32241Y12545D01*
X32296Y12544D01*
X32350Y12554D01*
X32401Y12573D01*
X32448Y12603D01*
X32487Y12641D01*
X32519Y12686D01*
X32541Y12736D01*
X32554Y12789D01*
X32555Y12852D01*
X32555Y11291D01*
X32492Y11304D01*
X32413Y11305D01*
X32335Y11290D01*
X32261Y11260D01*
X32194Y11217D01*
X32138Y11161D01*
X32093Y11096D01*
X32062Y11023D01*
X32045Y10945D01*
X32044Y10865D01*
X32058Y10787D01*
X32088Y10713D01*
X32131Y10647D01*
X32186Y10590D01*
X32251Y10544D01*
X32324Y10512D01*
X32401Y10495D01*
X32481Y10494D01*
X32559Y10508D01*
X32633Y10536D01*
X32700Y10579D01*
X32758Y10634D01*
X32803Y10698D01*
X32836Y10771D01*
X32853Y10848D01*
X32855Y10939D01*
X32855Y10230D01*
X31905Y10230D01*
X31905Y13227D01*
X31894Y13281D01*
X31873Y13332D01*
X31843Y13377D01*
X31804Y13416D01*
X31758Y13447D01*
X31708Y13468D01*
X31654Y13479D01*
X31599Y13480D01*
X31545Y13469D01*
X31494Y13449D01*
X31448Y13419D01*
X31409Y13380D01*
X31378Y13335D01*
X31374Y13326D01*
X31333Y13343D01*
X31279Y13354D01*
X31224Y13355D01*
X31170Y13344D01*
X31119Y13324D01*
X31073Y13294D01*
X31049Y13271D01*
X31029Y13291D01*
X30983Y13322D01*
X30933Y13343D01*
X30879Y13354D01*
X30824Y13355D01*
X30780Y13346D01*
X30780Y16077D01*
X30769Y16131D01*
X30748Y16182D01*
X30718Y16227D01*
X30679Y16266D01*
X30633Y16297D01*
X30583Y16318D01*
X30529Y16329D01*
X30474Y16330D01*
X30420Y16319D01*
X30369Y16299D01*
X30323Y16269D01*
X30284Y16230D01*
X30253Y16185D01*
X30231Y16135D01*
X30220Y16081D01*
X30219Y16026D01*
X30229Y15972D01*
X30249Y15921D01*
X30279Y15875D01*
X30317Y15835D01*
X30362Y15804D01*
X30413Y15782D01*
X30466Y15770D01*
X30521Y15769D01*
X30575Y15779D01*
X30626Y15798D01*
X30673Y15828D01*
X30712Y15866D01*
X30744Y15911D01*
X30766Y15961D01*
X30779Y16014D01*
X30780Y16077D01*
X30780Y13346D01*
X30770Y13344D01*
X30719Y13324D01*
X30673Y13294D01*
X30634Y13255D01*
X30603Y13210D01*
X30581Y13160D01*
X30570Y13106D01*
X30569Y13051D01*
X30579Y12997D01*
X30599Y12946D01*
X30629Y12900D01*
X30667Y12860D01*
X30712Y12829D01*
X30763Y12807D01*
X30816Y12795D01*
X30871Y12794D01*
X30925Y12804D01*
X30976Y12823D01*
X31023Y12853D01*
X31050Y12878D01*
X31067Y12860D01*
X31112Y12829D01*
X31163Y12807D01*
X31216Y12795D01*
X31271Y12794D01*
X31325Y12804D01*
X31376Y12823D01*
X31423Y12853D01*
X31462Y12891D01*
X31494Y12936D01*
X31500Y12948D01*
X31538Y12932D01*
X31591Y12920D01*
X31646Y12919D01*
X31700Y12929D01*
X31751Y12948D01*
X31798Y12978D01*
X31837Y13016D01*
X31869Y13061D01*
X31891Y13111D01*
X31904Y13164D01*
X31905Y13227D01*
X31905Y10230D01*
X31855Y10230D01*
X31855Y10636D01*
X31855Y11187D01*
X31850Y11212D01*
X31840Y11236D01*
X31826Y11257D01*
X31808Y11275D01*
X31787Y11289D01*
X31763Y11299D01*
X31738Y11304D01*
X31713Y11305D01*
X31162Y11305D01*
X31137Y11300D01*
X31113Y11290D01*
X31092Y11276D01*
X31074Y11258D01*
X31060Y11237D01*
X31050Y11213D01*
X31045Y11188D01*
X31044Y11163D01*
X31044Y10612D01*
X31049Y10587D01*
X31059Y10563D01*
X31073Y10542D01*
X31091Y10524D01*
X31112Y10510D01*
X31136Y10500D01*
X31161Y10495D01*
X31186Y10494D01*
X31737Y10494D01*
X31762Y10499D01*
X31786Y10509D01*
X31807Y10523D01*
X31825Y10541D01*
X31839Y10562D01*
X31849Y10586D01*
X31854Y10611D01*
X31855Y10636D01*
X31855Y10230D01*
X30355Y10230D01*
X30355Y10636D01*
X30355Y11109D01*
X30355Y11939D01*
X30355Y12939D01*
X30339Y13017D01*
X30309Y13091D01*
X30265Y13157D01*
X30209Y13213D01*
X30143Y13257D01*
X30070Y13288D01*
X29992Y13304D01*
X29913Y13305D01*
X29835Y13290D01*
X29761Y13260D01*
X29694Y13217D01*
X29680Y13202D01*
X29680Y15444D01*
X29669Y15498D01*
X29648Y15549D01*
X29618Y15595D01*
X29579Y15634D01*
X29533Y15664D01*
X29483Y15686D01*
X29429Y15697D01*
X29374Y15697D01*
X29320Y15687D01*
X29269Y15666D01*
X29223Y15636D01*
X29184Y15598D01*
X29153Y15553D01*
X29131Y15502D01*
X29120Y15448D01*
X29119Y15393D01*
X29129Y15339D01*
X29149Y15288D01*
X29179Y15242D01*
X29217Y15203D01*
X29262Y15171D01*
X29313Y15149D01*
X29366Y15138D01*
X29421Y15136D01*
X29475Y15146D01*
X29526Y15166D01*
X29573Y15195D01*
X29612Y15233D01*
X29644Y15278D01*
X29666Y15328D01*
X29679Y15382D01*
X29680Y15444D01*
X29680Y13202D01*
X29638Y13161D01*
X29593Y13096D01*
X29562Y13023D01*
X29545Y12945D01*
X29544Y12865D01*
X29558Y12787D01*
X29588Y12713D01*
X29631Y12647D01*
X29686Y12590D01*
X29751Y12544D01*
X29824Y12512D01*
X29901Y12495D01*
X29981Y12494D01*
X30059Y12508D01*
X30133Y12536D01*
X30200Y12579D01*
X30258Y12634D01*
X30303Y12698D01*
X30336Y12771D01*
X30353Y12848D01*
X30355Y12939D01*
X30355Y11939D01*
X30339Y12017D01*
X30309Y12091D01*
X30265Y12157D01*
X30209Y12213D01*
X30143Y12257D01*
X30070Y12288D01*
X29992Y12304D01*
X29913Y12305D01*
X29835Y12290D01*
X29761Y12260D01*
X29694Y12217D01*
X29638Y12161D01*
X29593Y12096D01*
X29562Y12023D01*
X29545Y11945D01*
X29544Y11865D01*
X29558Y11787D01*
X29588Y11713D01*
X29631Y11647D01*
X29686Y11590D01*
X29751Y11544D01*
X29824Y11512D01*
X29901Y11495D01*
X29981Y11494D01*
X30059Y11508D01*
X30133Y11536D01*
X30200Y11579D01*
X30258Y11634D01*
X30303Y11698D01*
X30336Y11771D01*
X30353Y11848D01*
X30355Y11939D01*
X30355Y11109D01*
X30355Y11187D01*
X30350Y11212D01*
X30340Y11236D01*
X30326Y11257D01*
X30308Y11275D01*
X30287Y11289D01*
X30263Y11299D01*
X30238Y11304D01*
X30213Y11305D01*
X29662Y11305D01*
X29637Y11300D01*
X29613Y11290D01*
X29592Y11276D01*
X29574Y11258D01*
X29560Y11237D01*
X29550Y11213D01*
X29545Y11188D01*
X29544Y11163D01*
X29544Y10612D01*
X29549Y10587D01*
X29559Y10563D01*
X29573Y10542D01*
X29591Y10524D01*
X29612Y10510D01*
X29636Y10500D01*
X29661Y10495D01*
X29686Y10494D01*
X30237Y10494D01*
X30262Y10499D01*
X30286Y10509D01*
X30307Y10523D01*
X30325Y10541D01*
X30339Y10562D01*
X30349Y10586D01*
X30354Y10611D01*
X30355Y10636D01*
X30355Y10230D01*
X26080Y10230D01*
X26080Y17977D01*
X26069Y18031D01*
X26048Y18082D01*
X26018Y18127D01*
X25979Y18166D01*
X25933Y18197D01*
X25883Y18218D01*
X25829Y18229D01*
X25774Y18230D01*
X25720Y18219D01*
X25669Y18199D01*
X25646Y18184D01*
X25618Y18227D01*
X25579Y18266D01*
X25533Y18297D01*
X25483Y18318D01*
X25429Y18329D01*
X25374Y18330D01*
X25320Y18319D01*
X25269Y18299D01*
X25223Y18269D01*
X25184Y18230D01*
X25153Y18185D01*
X25131Y18135D01*
X25120Y18081D01*
X25119Y18026D01*
X25129Y17972D01*
X25149Y17921D01*
X25179Y17875D01*
X25217Y17835D01*
X25262Y17804D01*
X25313Y17782D01*
X25366Y17770D01*
X25421Y17769D01*
X25475Y17779D01*
X25526Y17798D01*
X25553Y17815D01*
X25579Y17775D01*
X25617Y17735D01*
X25662Y17704D01*
X25713Y17682D01*
X25766Y17670D01*
X25821Y17669D01*
X25875Y17679D01*
X25926Y17698D01*
X25973Y17728D01*
X26012Y17766D01*
X26044Y17811D01*
X26066Y17861D01*
X26079Y17914D01*
X26080Y17977D01*
X26080Y10230D01*
X25812Y10230D01*
X25812Y16777D01*
X25812Y17427D01*
X25801Y17481D01*
X25780Y17532D01*
X25750Y17577D01*
X25711Y17616D01*
X25666Y17647D01*
X25615Y17668D01*
X25561Y17679D01*
X25507Y17680D01*
X25453Y17669D01*
X25402Y17649D01*
X25356Y17619D01*
X25316Y17580D01*
X25285Y17535D01*
X25264Y17485D01*
X25252Y17431D01*
X25252Y17376D01*
X25262Y17322D01*
X25282Y17271D01*
X25312Y17225D01*
X25350Y17185D01*
X25395Y17154D01*
X25445Y17132D01*
X25499Y17120D01*
X25554Y17119D01*
X25608Y17129D01*
X25659Y17148D01*
X25705Y17178D01*
X25745Y17216D01*
X25777Y17261D01*
X25799Y17311D01*
X25811Y17364D01*
X25812Y17427D01*
X25812Y16777D01*
X25801Y16831D01*
X25780Y16882D01*
X25750Y16927D01*
X25711Y16966D01*
X25666Y16997D01*
X25615Y17018D01*
X25561Y17029D01*
X25507Y17030D01*
X25453Y17019D01*
X25402Y16999D01*
X25356Y16969D01*
X25316Y16930D01*
X25285Y16885D01*
X25264Y16835D01*
X25252Y16781D01*
X25252Y16726D01*
X25262Y16672D01*
X25282Y16621D01*
X25312Y16575D01*
X25350Y16535D01*
X25395Y16504D01*
X25445Y16482D01*
X25499Y16470D01*
X25554Y16469D01*
X25608Y16479D01*
X25659Y16498D01*
X25705Y16528D01*
X25745Y16566D01*
X25777Y16611D01*
X25799Y16661D01*
X25811Y16714D01*
X25812Y16777D01*
X25812Y10230D01*
X24680Y10230D01*
X24680Y11327D01*
X24669Y11381D01*
X24648Y11432D01*
X24618Y11477D01*
X24579Y11516D01*
X24533Y11547D01*
X24483Y11568D01*
X24429Y11579D01*
X24374Y11580D01*
X24320Y11569D01*
X24269Y11549D01*
X24223Y11519D01*
X24184Y11480D01*
X24153Y11435D01*
X24131Y11385D01*
X24120Y11331D01*
X24119Y11276D01*
X24129Y11222D01*
X24149Y11171D01*
X24179Y11125D01*
X24217Y11085D01*
X24262Y11054D01*
X24313Y11032D01*
X24366Y11020D01*
X24421Y11019D01*
X24475Y11029D01*
X24526Y11048D01*
X24573Y11078D01*
X24612Y11116D01*
X24644Y11161D01*
X24666Y11211D01*
X24679Y11264D01*
X24680Y11327D01*
X24680Y10230D01*
X23680Y10230D01*
X23680Y15577D01*
X23674Y15603D01*
X23674Y17802D01*
X23664Y17856D01*
X23643Y17907D01*
X23612Y17952D01*
X23574Y17991D01*
X23528Y18022D01*
X23478Y18043D01*
X23424Y18054D01*
X23369Y18055D01*
X23315Y18044D01*
X23264Y18024D01*
X23218Y17994D01*
X23179Y17955D01*
X23148Y17910D01*
X23126Y17860D01*
X23115Y17806D01*
X23114Y17751D01*
X23124Y17697D01*
X23144Y17646D01*
X23174Y17600D01*
X23212Y17560D01*
X23257Y17529D01*
X23307Y17507D01*
X23361Y17495D01*
X23416Y17494D01*
X23470Y17504D01*
X23521Y17523D01*
X23568Y17553D01*
X23607Y17591D01*
X23639Y17636D01*
X23661Y17686D01*
X23674Y17739D01*
X23674Y17802D01*
X23674Y15603D01*
X23669Y15631D01*
X23648Y15682D01*
X23618Y15727D01*
X23579Y15766D01*
X23533Y15797D01*
X23483Y15818D01*
X23429Y15829D01*
X23374Y15830D01*
X23369Y15829D01*
X23369Y15831D01*
X23348Y15882D01*
X23318Y15927D01*
X23279Y15966D01*
X23233Y15997D01*
X23183Y16018D01*
X23129Y16029D01*
X23074Y16030D01*
X23020Y16019D01*
X22969Y15999D01*
X22947Y15984D01*
X22947Y17277D01*
X22936Y17331D01*
X22915Y17382D01*
X22885Y17427D01*
X22846Y17466D01*
X22801Y17497D01*
X22750Y17518D01*
X22696Y17529D01*
X22642Y17530D01*
X22588Y17519D01*
X22537Y17499D01*
X22491Y17469D01*
X22451Y17430D01*
X22420Y17385D01*
X22399Y17335D01*
X22387Y17281D01*
X22387Y17226D01*
X22397Y17172D01*
X22417Y17121D01*
X22447Y17075D01*
X22485Y17035D01*
X22530Y17004D01*
X22580Y16982D01*
X22634Y16970D01*
X22689Y16969D01*
X22743Y16979D01*
X22794Y16998D01*
X22840Y17028D01*
X22880Y17066D01*
X22912Y17111D01*
X22934Y17161D01*
X22946Y17214D01*
X22947Y17277D01*
X22947Y15984D01*
X22923Y15969D01*
X22884Y15930D01*
X22853Y15885D01*
X22831Y15835D01*
X22820Y15781D01*
X22819Y15726D01*
X22829Y15672D01*
X22849Y15621D01*
X22879Y15575D01*
X22917Y15535D01*
X22962Y15504D01*
X23013Y15482D01*
X23066Y15470D01*
X23121Y15469D01*
X23130Y15470D01*
X23149Y15421D01*
X23179Y15375D01*
X23217Y15335D01*
X23262Y15304D01*
X23313Y15282D01*
X23366Y15270D01*
X23421Y15269D01*
X23475Y15279D01*
X23526Y15298D01*
X23573Y15328D01*
X23612Y15366D01*
X23644Y15411D01*
X23666Y15461D01*
X23679Y15514D01*
X23680Y15577D01*
X23680Y10230D01*
X23647Y10230D01*
X23647Y12727D01*
X23636Y12781D01*
X23615Y12832D01*
X23585Y12877D01*
X23546Y12916D01*
X23501Y12947D01*
X23450Y12968D01*
X23396Y12979D01*
X23342Y12980D01*
X23288Y12969D01*
X23237Y12949D01*
X23191Y12919D01*
X23151Y12880D01*
X23120Y12835D01*
X23099Y12785D01*
X23087Y12731D01*
X23087Y12676D01*
X23097Y12622D01*
X23117Y12571D01*
X23147Y12525D01*
X23185Y12485D01*
X23230Y12454D01*
X23280Y12432D01*
X23334Y12420D01*
X23389Y12419D01*
X23443Y12429D01*
X23494Y12448D01*
X23540Y12478D01*
X23580Y12516D01*
X23612Y12561D01*
X23634Y12611D01*
X23646Y12664D01*
X23647Y12727D01*
X23647Y10230D01*
X23280Y10230D01*
X23280Y11902D01*
X23269Y11956D01*
X23248Y12007D01*
X23218Y12052D01*
X23179Y12091D01*
X23133Y12122D01*
X23083Y12143D01*
X23029Y12154D01*
X22974Y12155D01*
X22920Y12144D01*
X22869Y12124D01*
X22823Y12094D01*
X22784Y12055D01*
X22753Y12010D01*
X22749Y12000D01*
X22748Y12002D01*
X22718Y12048D01*
X22679Y12087D01*
X22633Y12117D01*
X22583Y12139D01*
X22529Y12150D01*
X22474Y12150D01*
X22420Y12140D01*
X22412Y12137D01*
X22412Y16777D01*
X22401Y16831D01*
X22380Y16882D01*
X22350Y16927D01*
X22311Y16966D01*
X22266Y16997D01*
X22215Y17018D01*
X22161Y17029D01*
X22107Y17030D01*
X22053Y17019D01*
X22002Y16999D01*
X21956Y16969D01*
X21916Y16930D01*
X21885Y16885D01*
X21864Y16835D01*
X21852Y16781D01*
X21852Y16726D01*
X21862Y16672D01*
X21882Y16621D01*
X21912Y16575D01*
X21950Y16535D01*
X21995Y16504D01*
X22045Y16482D01*
X22099Y16470D01*
X22154Y16469D01*
X22208Y16479D01*
X22259Y16498D01*
X22305Y16528D01*
X22345Y16566D01*
X22377Y16611D01*
X22399Y16661D01*
X22411Y16714D01*
X22412Y16777D01*
X22412Y12137D01*
X22369Y12119D01*
X22360Y12113D01*
X22360Y14584D01*
X22327Y14749D01*
X22263Y14905D01*
X22169Y15046D01*
X22050Y15165D01*
X21911Y15260D01*
X21830Y15294D01*
X21830Y17927D01*
X21819Y17981D01*
X21798Y18032D01*
X21768Y18077D01*
X21729Y18116D01*
X21683Y18147D01*
X21633Y18168D01*
X21579Y18179D01*
X21524Y18180D01*
X21470Y18169D01*
X21419Y18149D01*
X21373Y18119D01*
X21334Y18080D01*
X21303Y18035D01*
X21281Y17985D01*
X21270Y17931D01*
X21269Y17876D01*
X21279Y17822D01*
X21299Y17771D01*
X21329Y17725D01*
X21367Y17685D01*
X21412Y17654D01*
X21463Y17632D01*
X21516Y17620D01*
X21571Y17619D01*
X21625Y17629D01*
X21676Y17648D01*
X21723Y17678D01*
X21762Y17716D01*
X21794Y17761D01*
X21816Y17811D01*
X21829Y17864D01*
X21830Y17927D01*
X21830Y15294D01*
X21755Y15325D01*
X21590Y15359D01*
X21421Y15360D01*
X21256Y15329D01*
X21099Y15265D01*
X20958Y15173D01*
X20880Y15096D01*
X20880Y18027D01*
X20869Y18081D01*
X20848Y18132D01*
X20818Y18177D01*
X20779Y18216D01*
X20733Y18247D01*
X20683Y18268D01*
X20629Y18279D01*
X20574Y18280D01*
X20520Y18269D01*
X20469Y18249D01*
X20423Y18219D01*
X20384Y18180D01*
X20353Y18135D01*
X20331Y18085D01*
X20320Y18031D01*
X20319Y17976D01*
X20329Y17922D01*
X20349Y17871D01*
X20379Y17825D01*
X20417Y17785D01*
X20462Y17754D01*
X20513Y17732D01*
X20566Y17720D01*
X20621Y17719D01*
X20675Y17729D01*
X20726Y17748D01*
X20773Y17778D01*
X20812Y17816D01*
X20844Y17861D01*
X20866Y17911D01*
X20879Y17964D01*
X20880Y18027D01*
X20880Y15096D01*
X20838Y15055D01*
X20742Y14916D01*
X20676Y14761D01*
X20641Y14596D01*
X20640Y14543D01*
X20633Y14547D01*
X20583Y14568D01*
X20529Y14579D01*
X20474Y14580D01*
X20430Y14571D01*
X20430Y15477D01*
X20419Y15531D01*
X20398Y15582D01*
X20368Y15627D01*
X20329Y15666D01*
X20283Y15697D01*
X20278Y15699D01*
X20323Y15728D01*
X20362Y15766D01*
X20394Y15811D01*
X20416Y15861D01*
X20429Y15914D01*
X20430Y15977D01*
X20419Y16031D01*
X20398Y16082D01*
X20368Y16127D01*
X20329Y16166D01*
X20283Y16197D01*
X20233Y16218D01*
X20179Y16229D01*
X20124Y16230D01*
X20070Y16219D01*
X20033Y16204D01*
X20018Y16227D01*
X19979Y16266D01*
X19933Y16297D01*
X19883Y16318D01*
X19829Y16329D01*
X19774Y16330D01*
X19720Y16319D01*
X19669Y16299D01*
X19623Y16269D01*
X19584Y16230D01*
X19553Y16185D01*
X19531Y16135D01*
X19520Y16081D01*
X19519Y16026D01*
X19529Y15972D01*
X19549Y15921D01*
X19579Y15875D01*
X19617Y15835D01*
X19631Y15826D01*
X19603Y15785D01*
X19581Y15735D01*
X19570Y15681D01*
X19569Y15626D01*
X19579Y15572D01*
X19599Y15521D01*
X19629Y15475D01*
X19667Y15435D01*
X19712Y15404D01*
X19722Y15400D01*
X19719Y15399D01*
X19673Y15369D01*
X19634Y15330D01*
X19603Y15285D01*
X19581Y15235D01*
X19570Y15181D01*
X19569Y15126D01*
X19579Y15072D01*
X19599Y15021D01*
X19629Y14975D01*
X19667Y14935D01*
X19712Y14904D01*
X19763Y14882D01*
X19816Y14870D01*
X19871Y14869D01*
X19925Y14879D01*
X19976Y14898D01*
X20023Y14928D01*
X20062Y14966D01*
X20094Y15011D01*
X20116Y15061D01*
X20129Y15114D01*
X20129Y15170D01*
X20171Y15169D01*
X20225Y15179D01*
X20276Y15198D01*
X20323Y15228D01*
X20362Y15266D01*
X20394Y15311D01*
X20416Y15361D01*
X20429Y15414D01*
X20430Y15477D01*
X20430Y14571D01*
X20420Y14569D01*
X20369Y14549D01*
X20323Y14519D01*
X20284Y14480D01*
X20253Y14435D01*
X20231Y14385D01*
X20220Y14331D01*
X20219Y14276D01*
X20229Y14222D01*
X20249Y14171D01*
X20279Y14125D01*
X20317Y14085D01*
X20362Y14054D01*
X20413Y14032D01*
X20466Y14020D01*
X20521Y14019D01*
X20575Y14029D01*
X20626Y14048D01*
X20673Y14078D01*
X20712Y14116D01*
X20721Y14128D01*
X20731Y14104D01*
X20822Y13963D01*
X20939Y13841D01*
X21078Y13745D01*
X21232Y13678D01*
X21397Y13641D01*
X21566Y13638D01*
X21732Y13667D01*
X21889Y13728D01*
X22032Y13819D01*
X22154Y13935D01*
X22251Y14073D01*
X22319Y14227D01*
X22357Y14391D01*
X22360Y14584D01*
X22360Y12113D01*
X22323Y12089D01*
X22284Y12051D01*
X22253Y12006D01*
X22251Y12000D01*
X22248Y12007D01*
X22218Y12052D01*
X22179Y12091D01*
X22133Y12122D01*
X22083Y12143D01*
X22047Y12151D01*
X22047Y13377D01*
X22036Y13431D01*
X22015Y13482D01*
X21985Y13527D01*
X21946Y13566D01*
X21901Y13597D01*
X21850Y13618D01*
X21796Y13629D01*
X21742Y13630D01*
X21688Y13619D01*
X21637Y13599D01*
X21591Y13569D01*
X21551Y13530D01*
X21520Y13485D01*
X21499Y13436D01*
X21480Y13482D01*
X21450Y13527D01*
X21411Y13566D01*
X21366Y13597D01*
X21315Y13618D01*
X21261Y13629D01*
X21207Y13630D01*
X21153Y13619D01*
X21102Y13599D01*
X21056Y13569D01*
X21016Y13530D01*
X20985Y13485D01*
X20964Y13435D01*
X20952Y13381D01*
X20952Y13326D01*
X20962Y13272D01*
X20982Y13221D01*
X21012Y13175D01*
X21050Y13135D01*
X21095Y13104D01*
X21145Y13082D01*
X21199Y13070D01*
X21254Y13069D01*
X21308Y13079D01*
X21359Y13098D01*
X21405Y13128D01*
X21445Y13166D01*
X21477Y13211D01*
X21499Y13261D01*
X21500Y13264D01*
X21517Y13221D01*
X21547Y13175D01*
X21585Y13135D01*
X21630Y13104D01*
X21680Y13082D01*
X21734Y13070D01*
X21789Y13069D01*
X21843Y13079D01*
X21894Y13098D01*
X21940Y13128D01*
X21980Y13166D01*
X22012Y13211D01*
X22034Y13261D01*
X22046Y13314D01*
X22047Y13377D01*
X22047Y12151D01*
X22029Y12154D01*
X21974Y12155D01*
X21920Y12144D01*
X21869Y12124D01*
X21823Y12094D01*
X21784Y12055D01*
X21753Y12010D01*
X21731Y11960D01*
X21720Y11906D01*
X21719Y11851D01*
X21729Y11797D01*
X21749Y11746D01*
X21779Y11700D01*
X21817Y11660D01*
X21862Y11629D01*
X21913Y11607D01*
X21966Y11595D01*
X22021Y11594D01*
X22075Y11604D01*
X22126Y11623D01*
X22173Y11653D01*
X22212Y11691D01*
X22244Y11736D01*
X22248Y11744D01*
X22249Y11741D01*
X22279Y11695D01*
X22317Y11656D01*
X22362Y11624D01*
X22413Y11602D01*
X22466Y11591D01*
X22521Y11589D01*
X22575Y11599D01*
X22626Y11619D01*
X22673Y11648D01*
X22712Y11686D01*
X22744Y11731D01*
X22750Y11745D01*
X22779Y11700D01*
X22817Y11660D01*
X22862Y11629D01*
X22913Y11607D01*
X22966Y11595D01*
X23021Y11594D01*
X23075Y11604D01*
X23126Y11623D01*
X23173Y11653D01*
X23212Y11691D01*
X23244Y11736D01*
X23266Y11786D01*
X23279Y11839D01*
X23280Y11902D01*
X23280Y10230D01*
X20530Y10230D01*
X20530Y13259D01*
X20519Y13313D01*
X20498Y13364D01*
X20468Y13410D01*
X20429Y13449D01*
X20383Y13479D01*
X20333Y13501D01*
X20279Y13512D01*
X20224Y13512D01*
X20170Y13502D01*
X20119Y13481D01*
X20073Y13451D01*
X20034Y13413D01*
X20003Y13368D01*
X19985Y13326D01*
X19973Y13357D01*
X19955Y13384D01*
X19955Y13977D01*
X19944Y14031D01*
X19923Y14082D01*
X19893Y14127D01*
X19854Y14166D01*
X19808Y14197D01*
X19758Y14218D01*
X19704Y14229D01*
X19649Y14230D01*
X19595Y14219D01*
X19544Y14199D01*
X19498Y14169D01*
X19487Y14158D01*
X19479Y14166D01*
X19433Y14197D01*
X19383Y14218D01*
X19329Y14229D01*
X19280Y14230D01*
X19280Y15277D01*
X19269Y15331D01*
X19248Y15382D01*
X19218Y15427D01*
X19179Y15466D01*
X19133Y15497D01*
X19083Y15518D01*
X19029Y15529D01*
X18974Y15530D01*
X18920Y15519D01*
X18869Y15499D01*
X18823Y15469D01*
X18784Y15430D01*
X18753Y15385D01*
X18731Y15335D01*
X18720Y15281D01*
X18719Y15226D01*
X18729Y15172D01*
X18749Y15121D01*
X18779Y15075D01*
X18817Y15035D01*
X18862Y15004D01*
X18913Y14982D01*
X18966Y14970D01*
X19021Y14969D01*
X19075Y14979D01*
X19126Y14998D01*
X19173Y15028D01*
X19212Y15066D01*
X19244Y15111D01*
X19266Y15161D01*
X19279Y15214D01*
X19280Y15277D01*
X19280Y14230D01*
X19274Y14230D01*
X19220Y14219D01*
X19169Y14199D01*
X19123Y14169D01*
X19084Y14130D01*
X19053Y14085D01*
X19031Y14035D01*
X19020Y13981D01*
X19019Y13926D01*
X19029Y13872D01*
X19049Y13821D01*
X19079Y13775D01*
X19117Y13735D01*
X19162Y13704D01*
X19213Y13682D01*
X19266Y13670D01*
X19321Y13669D01*
X19375Y13679D01*
X19426Y13698D01*
X19473Y13728D01*
X19487Y13741D01*
X19492Y13735D01*
X19537Y13704D01*
X19588Y13682D01*
X19641Y13670D01*
X19696Y13669D01*
X19750Y13679D01*
X19801Y13698D01*
X19848Y13728D01*
X19887Y13766D01*
X19919Y13811D01*
X19941Y13861D01*
X19954Y13914D01*
X19955Y13977D01*
X19955Y13384D01*
X19943Y13402D01*
X19904Y13441D01*
X19858Y13472D01*
X19808Y13493D01*
X19754Y13504D01*
X19699Y13505D01*
X19645Y13494D01*
X19594Y13474D01*
X19548Y13444D01*
X19509Y13405D01*
X19478Y13360D01*
X19456Y13310D01*
X19445Y13256D01*
X19444Y13201D01*
X19454Y13147D01*
X19474Y13096D01*
X19504Y13050D01*
X19542Y13010D01*
X19587Y12979D01*
X19638Y12957D01*
X19691Y12945D01*
X19746Y12944D01*
X19800Y12954D01*
X19851Y12973D01*
X19898Y13003D01*
X19937Y13041D01*
X19969Y13086D01*
X19989Y13130D01*
X19999Y13103D01*
X20029Y13057D01*
X20067Y13018D01*
X20112Y12986D01*
X20163Y12964D01*
X20216Y12953D01*
X20271Y12951D01*
X20325Y12961D01*
X20376Y12981D01*
X20423Y13010D01*
X20462Y13048D01*
X20494Y13093D01*
X20516Y13143D01*
X20529Y13197D01*
X20530Y13259D01*
X20530Y10230D01*
X19580Y10230D01*
X19580Y12844D01*
X19569Y12898D01*
X19548Y12949D01*
X19518Y12994D01*
X19479Y13033D01*
X19433Y13064D01*
X19383Y13085D01*
X19329Y13096D01*
X19274Y13097D01*
X19220Y13086D01*
X19169Y13066D01*
X19123Y13036D01*
X19084Y12997D01*
X19053Y12952D01*
X19031Y12902D01*
X19020Y12848D01*
X19019Y12793D01*
X19029Y12739D01*
X19049Y12688D01*
X19079Y12642D01*
X19117Y12602D01*
X19162Y12571D01*
X19213Y12549D01*
X19266Y12537D01*
X19321Y12536D01*
X19375Y12546D01*
X19426Y12565D01*
X19473Y12595D01*
X19512Y12633D01*
X19544Y12678D01*
X19566Y12728D01*
X19579Y12781D01*
X19580Y12844D01*
X19580Y10230D01*
X18855Y10230D01*
X18855Y14574D01*
X18826Y14719D01*
X18769Y14856D01*
X18687Y14979D01*
X18583Y15084D01*
X18460Y15167D01*
X18324Y15224D01*
X18179Y15254D01*
X18031Y15255D01*
X17885Y15227D01*
X17748Y15172D01*
X17624Y15091D01*
X17518Y14987D01*
X17435Y14865D01*
X17376Y14729D01*
X17346Y14584D01*
X17344Y14436D01*
X17370Y14290D01*
X17425Y14153D01*
X17505Y14028D01*
X17608Y13922D01*
X17729Y13837D01*
X17865Y13778D01*
X18010Y13746D01*
X18158Y13743D01*
X18304Y13769D01*
X18442Y13822D01*
X18567Y13902D01*
X18674Y14004D01*
X18759Y14125D01*
X18819Y14260D01*
X18852Y14404D01*
X18855Y14574D01*
X18855Y10230D01*
X16954Y10230D01*
X16954Y13345D01*
X16954Y14408D01*
X16943Y14462D01*
X16922Y14513D01*
X16892Y14559D01*
X16853Y14598D01*
X16807Y14628D01*
X16757Y14650D01*
X16703Y14661D01*
X16648Y14661D01*
X16594Y14651D01*
X16543Y14630D01*
X16497Y14600D01*
X16458Y14562D01*
X16427Y14517D01*
X16405Y14466D01*
X16394Y14412D01*
X16393Y14357D01*
X16403Y14303D01*
X16423Y14252D01*
X16453Y14206D01*
X16491Y14167D01*
X16536Y14135D01*
X16587Y14113D01*
X16640Y14102D01*
X16695Y14100D01*
X16749Y14110D01*
X16800Y14130D01*
X16847Y14159D01*
X16887Y14197D01*
X16918Y14242D01*
X16940Y14292D01*
X16953Y14346D01*
X16954Y14408D01*
X16954Y13345D01*
X16943Y13399D01*
X16922Y13450D01*
X16892Y13496D01*
X16853Y13535D01*
X16807Y13565D01*
X16757Y13587D01*
X16703Y13598D01*
X16648Y13598D01*
X16594Y13588D01*
X16543Y13567D01*
X16497Y13537D01*
X16458Y13499D01*
X16427Y13454D01*
X16405Y13403D01*
X16394Y13349D01*
X16393Y13294D01*
X16403Y13240D01*
X16423Y13189D01*
X16453Y13143D01*
X16491Y13104D01*
X16536Y13072D01*
X16587Y13050D01*
X16640Y13039D01*
X16695Y13037D01*
X16749Y13047D01*
X16800Y13067D01*
X16847Y13096D01*
X16887Y13134D01*
X16918Y13179D01*
X16940Y13229D01*
X16953Y13283D01*
X16954Y13345D01*
X16954Y10230D01*
X16312Y10230D01*
X16312Y15077D01*
X16301Y15131D01*
X16280Y15182D01*
X16250Y15227D01*
X16211Y15266D01*
X16166Y15297D01*
X16115Y15318D01*
X16061Y15329D01*
X16007Y15330D01*
X15953Y15319D01*
X15902Y15299D01*
X15897Y15296D01*
X15897Y17027D01*
X15886Y17081D01*
X15865Y17132D01*
X15835Y17177D01*
X15796Y17216D01*
X15751Y17247D01*
X15700Y17268D01*
X15646Y17279D01*
X15592Y17280D01*
X15538Y17269D01*
X15487Y17249D01*
X15441Y17219D01*
X15401Y17180D01*
X15370Y17135D01*
X15349Y17085D01*
X15337Y17031D01*
X15337Y16976D01*
X15347Y16922D01*
X15367Y16871D01*
X15397Y16825D01*
X15435Y16785D01*
X15480Y16754D01*
X15530Y16732D01*
X15584Y16720D01*
X15639Y16719D01*
X15693Y16729D01*
X15744Y16748D01*
X15790Y16778D01*
X15830Y16816D01*
X15862Y16861D01*
X15884Y16911D01*
X15896Y16964D01*
X15897Y17027D01*
X15897Y15296D01*
X15856Y15269D01*
X15816Y15230D01*
X15785Y15185D01*
X15764Y15135D01*
X15752Y15081D01*
X15752Y15026D01*
X15762Y14972D01*
X15782Y14921D01*
X15812Y14875D01*
X15850Y14835D01*
X15895Y14804D01*
X15945Y14782D01*
X15999Y14770D01*
X16054Y14769D01*
X16108Y14779D01*
X16159Y14798D01*
X16205Y14828D01*
X16245Y14866D01*
X16277Y14911D01*
X16299Y14961D01*
X16311Y15014D01*
X16312Y15077D01*
X16312Y10230D01*
X15853Y10230D01*
X15858Y10234D01*
X15903Y10298D01*
X15936Y10371D01*
X15953Y10448D01*
X15955Y10539D01*
X15939Y10617D01*
X15909Y10691D01*
X15865Y10757D01*
X15809Y10813D01*
X15743Y10857D01*
X15670Y10888D01*
X15592Y10904D01*
X15513Y10905D01*
X15435Y10890D01*
X15361Y10860D01*
X15294Y10817D01*
X15238Y10761D01*
X15193Y10696D01*
X15162Y10623D01*
X15145Y10545D01*
X15144Y10465D01*
X15158Y10387D01*
X15188Y10313D01*
X15231Y10247D01*
X15247Y10230D01*
X14955Y10230D01*
X14955Y10236D01*
X14955Y10787D01*
X14950Y10812D01*
X14940Y10836D01*
X14926Y10857D01*
X14908Y10875D01*
X14887Y10889D01*
X14863Y10899D01*
X14838Y10904D01*
X14813Y10905D01*
X14262Y10905D01*
X14237Y10900D01*
X14213Y10890D01*
X14192Y10876D01*
X14180Y10863D01*
X14180Y11594D01*
X14186Y11594D01*
X14737Y11594D01*
X14762Y11599D01*
X14786Y11609D01*
X14807Y11623D01*
X14825Y11641D01*
X14839Y11662D01*
X14849Y11686D01*
X14854Y11711D01*
X14855Y11736D01*
X14855Y12287D01*
X14850Y12312D01*
X14840Y12336D01*
X14826Y12357D01*
X14808Y12375D01*
X14787Y12389D01*
X14763Y12399D01*
X14738Y12404D01*
X14713Y12405D01*
X14180Y12405D01*
X14180Y12696D01*
X14186Y12690D01*
X14251Y12644D01*
X14324Y12612D01*
X14401Y12595D01*
X14481Y12594D01*
X14559Y12608D01*
X14633Y12636D01*
X14700Y12679D01*
X14758Y12734D01*
X14803Y12798D01*
X14836Y12871D01*
X14853Y12948D01*
X14855Y13039D01*
X14839Y13117D01*
X14809Y13191D01*
X14765Y13257D01*
X14709Y13313D01*
X14643Y13357D01*
X14570Y13388D01*
X14492Y13404D01*
X14413Y13405D01*
X14335Y13390D01*
X14261Y13360D01*
X14194Y13317D01*
X14180Y13302D01*
X14180Y13696D01*
X14186Y13690D01*
X14251Y13644D01*
X14324Y13612D01*
X14401Y13595D01*
X14481Y13594D01*
X14559Y13608D01*
X14633Y13636D01*
X14700Y13679D01*
X14758Y13734D01*
X14803Y13798D01*
X14836Y13871D01*
X14853Y13948D01*
X14855Y14039D01*
X14839Y14117D01*
X14809Y14191D01*
X14765Y14257D01*
X14709Y14313D01*
X14643Y14357D01*
X14570Y14388D01*
X14492Y14404D01*
X14413Y14405D01*
X14335Y14390D01*
X14261Y14360D01*
X14194Y14317D01*
X14180Y14302D01*
X14180Y14696D01*
X14186Y14690D01*
X14251Y14644D01*
X14324Y14612D01*
X14401Y14595D01*
X14481Y14594D01*
X14559Y14608D01*
X14633Y14636D01*
X14700Y14679D01*
X14758Y14734D01*
X14803Y14798D01*
X14836Y14871D01*
X14853Y14948D01*
X14855Y15039D01*
X14839Y15117D01*
X14809Y15191D01*
X14765Y15257D01*
X14709Y15313D01*
X14643Y15357D01*
X14570Y15388D01*
X14492Y15404D01*
X14413Y15405D01*
X14335Y15390D01*
X14261Y15360D01*
X14194Y15317D01*
X14180Y15302D01*
X14180Y15696D01*
X14186Y15690D01*
X14251Y15644D01*
X14324Y15612D01*
X14401Y15595D01*
X14481Y15594D01*
X14559Y15608D01*
X14633Y15636D01*
X14700Y15679D01*
X14758Y15734D01*
X14803Y15798D01*
X14836Y15871D01*
X14853Y15948D01*
X14855Y16039D01*
X14839Y16117D01*
X14809Y16191D01*
X14765Y16257D01*
X14709Y16313D01*
X14643Y16357D01*
X14570Y16388D01*
X14492Y16404D01*
X14413Y16405D01*
X14335Y16390D01*
X14261Y16360D01*
X14194Y16317D01*
X14180Y16302D01*
X14180Y18136D01*
X14191Y18124D01*
X14212Y18110D01*
X14236Y18100D01*
X14261Y18095D01*
X14286Y18094D01*
X14837Y18094D01*
X14862Y18099D01*
X14886Y18109D01*
X14907Y18123D01*
X14925Y18141D01*
X14939Y18162D01*
X14949Y18186D01*
X14954Y18211D01*
X14955Y18236D01*
X14955Y18770D01*
X15246Y18770D01*
X15238Y18761D01*
X15193Y18696D01*
X15162Y18623D01*
X15145Y18545D01*
X15144Y18465D01*
X15158Y18387D01*
X15188Y18313D01*
X15231Y18247D01*
X15286Y18190D01*
X15351Y18144D01*
X15424Y18112D01*
X15501Y18095D01*
X15581Y18094D01*
X15659Y18108D01*
X15733Y18136D01*
X15800Y18179D01*
X15858Y18234D01*
X15903Y18298D01*
X15936Y18371D01*
X15953Y18448D01*
X15955Y18539D01*
X15939Y18617D01*
X15909Y18691D01*
X15865Y18757D01*
X15852Y18770D01*
X19680Y18770D01*
X19699Y18721D01*
X19729Y18675D01*
X19753Y18649D01*
X19734Y18630D01*
X19703Y18585D01*
X19681Y18535D01*
X19670Y18481D01*
X19669Y18426D01*
X19679Y18372D01*
X19699Y18321D01*
X19729Y18275D01*
X19753Y18249D01*
X19734Y18230D01*
X19703Y18185D01*
X19681Y18135D01*
X19670Y18081D01*
X19669Y18026D01*
X19679Y17972D01*
X19699Y17921D01*
X19729Y17875D01*
X19767Y17835D01*
X19812Y17804D01*
X19863Y17782D01*
X19916Y17770D01*
X19971Y17769D01*
X20025Y17779D01*
X20076Y17798D01*
X20123Y17828D01*
X20162Y17866D01*
X20194Y17911D01*
X20216Y17961D01*
X20229Y18014D01*
X20230Y18077D01*
X20219Y18131D01*
X20198Y18182D01*
X20168Y18227D01*
X20146Y18249D01*
X20162Y18266D01*
X20194Y18311D01*
X20216Y18361D01*
X20229Y18414D01*
X20230Y18477D01*
X20219Y18531D01*
X20198Y18582D01*
X20168Y18627D01*
X20146Y18649D01*
X20162Y18666D01*
X20194Y18711D01*
X20216Y18761D01*
X20218Y18770D01*
X23139Y18770D01*
X23131Y18752D01*
X23120Y18698D01*
X23119Y18643D01*
X23129Y18589D01*
X23149Y18538D01*
X23179Y18492D01*
X23217Y18453D01*
X23262Y18421D01*
X23313Y18399D01*
X23366Y18388D01*
X23421Y18386D01*
X23475Y18396D01*
X23526Y18416D01*
X23573Y18445D01*
X23612Y18483D01*
X23644Y18528D01*
X23666Y18578D01*
X23679Y18632D01*
X23680Y18694D01*
X23669Y18748D01*
X23660Y18770D01*
X24314Y18770D01*
X24299Y18735D01*
X24287Y18681D01*
X24287Y18626D01*
X24297Y18572D01*
X24317Y18521D01*
X24347Y18475D01*
X24385Y18435D01*
X24430Y18404D01*
X24480Y18382D01*
X24534Y18370D01*
X24589Y18369D01*
X24643Y18379D01*
X24694Y18398D01*
X24740Y18428D01*
X24780Y18466D01*
X24812Y18511D01*
X24834Y18561D01*
X24846Y18614D01*
X24847Y18677D01*
X24836Y18731D01*
X24820Y18770D01*
X24879Y18770D01*
X24864Y18735D01*
X24852Y18681D01*
X24852Y18626D01*
X24862Y18572D01*
X24882Y18521D01*
X24912Y18475D01*
X24950Y18435D01*
X24995Y18404D01*
X25045Y18382D01*
X25099Y18370D01*
X25154Y18369D01*
X25208Y18379D01*
X25259Y18398D01*
X25305Y18428D01*
X25345Y18466D01*
X25377Y18511D01*
X25399Y18561D01*
X25411Y18614D01*
X25412Y18677D01*
X25401Y18731D01*
X25385Y18770D01*
X25979Y18770D01*
X25964Y18735D01*
X25952Y18681D01*
X25952Y18626D01*
X25962Y18572D01*
X25982Y18521D01*
X26012Y18475D01*
X26050Y18435D01*
X26095Y18404D01*
X26145Y18382D01*
X26199Y18370D01*
X26254Y18369D01*
X26308Y18379D01*
X26359Y18398D01*
X26405Y18428D01*
X26445Y18466D01*
X26477Y18511D01*
X26499Y18561D01*
X26511Y18614D01*
X26512Y18677D01*
X26501Y18731D01*
X26485Y18770D01*
X31549Y18770D01*
X31544Y18767D01*
X31488Y18711D01*
X31443Y18646D01*
X31412Y18573D01*
X31395Y18495D01*
X31394Y18415D01*
X31408Y18337D01*
X31438Y18263D01*
X31481Y18197D01*
X31536Y18140D01*
X31601Y18094D01*
X31674Y18062D01*
X31751Y18045D01*
X31831Y18044D01*
X31909Y18058D01*
X31983Y18086D01*
X32050Y18129D01*
X32108Y18184D01*
X32153Y18248D01*
X32186Y18321D01*
X32203Y18398D01*
X32205Y18489D01*
X32189Y18567D01*
X32159Y18641D01*
X32115Y18707D01*
X32059Y18763D01*
X32049Y18770D01*
X32549Y18770D01*
X32544Y18767D01*
X32488Y18711D01*
X32443Y18646D01*
X32412Y18573D01*
X32395Y18495D01*
X32394Y18415D01*
X32408Y18337D01*
X32438Y18263D01*
X32481Y18197D01*
X32536Y18140D01*
X32601Y18094D01*
X32674Y18062D01*
X32751Y18045D01*
X32831Y18044D01*
X32909Y18058D01*
X32983Y18086D01*
X33050Y18129D01*
X33108Y18184D01*
X33153Y18248D01*
X33186Y18321D01*
X33203Y18398D01*
X33205Y18489D01*
X33189Y18567D01*
X33159Y18641D01*
X33115Y18707D01*
X33059Y18763D01*
X33049Y18770D01*
X33549Y18770D01*
X33544Y18767D01*
X33488Y18711D01*
X33443Y18646D01*
X33412Y18573D01*
X33395Y18495D01*
X33394Y18415D01*
X33408Y18337D01*
X33438Y18263D01*
X33481Y18197D01*
X33536Y18140D01*
X33601Y18094D01*
X33674Y18062D01*
X33751Y18045D01*
X33831Y18044D01*
X33909Y18058D01*
X33983Y18086D01*
X34050Y18129D01*
X34108Y18184D01*
X34153Y18248D01*
X34186Y18321D01*
X34203Y18398D01*
X34205Y18489D01*
X34189Y18567D01*
X34159Y18641D01*
X34115Y18707D01*
X34059Y18763D01*
X34049Y18770D01*
X34549Y18770D01*
X34544Y18767D01*
X34488Y18711D01*
X34443Y18646D01*
X34412Y18573D01*
X34395Y18495D01*
X34394Y18415D01*
X34408Y18337D01*
X34438Y18263D01*
X34481Y18197D01*
X34536Y18140D01*
X34601Y18094D01*
X34674Y18062D01*
X34751Y18045D01*
X34831Y18044D01*
X34909Y18058D01*
X34983Y18086D01*
X35050Y18129D01*
X35108Y18184D01*
X35153Y18248D01*
X35186Y18321D01*
X35203Y18398D01*
X35205Y18489D01*
X35189Y18567D01*
X35159Y18641D01*
X35115Y18707D01*
X35059Y18763D01*
X35049Y18770D01*
X35549Y18770D01*
X35544Y18767D01*
X35488Y18711D01*
X35443Y18646D01*
X35412Y18573D01*
X35395Y18495D01*
X35394Y18415D01*
X35408Y18337D01*
X35438Y18263D01*
X35481Y18197D01*
X35536Y18140D01*
X35601Y18094D01*
X35674Y18062D01*
X35751Y18045D01*
X35831Y18044D01*
X35909Y18058D01*
X35983Y18086D01*
X36050Y18129D01*
X36108Y18184D01*
X36153Y18248D01*
X36186Y18321D01*
X36203Y18398D01*
X36205Y18489D01*
X36189Y18567D01*
X36159Y18641D01*
X36115Y18707D01*
X36059Y18763D01*
X36049Y18770D01*
X36549Y18770D01*
X36544Y18767D01*
X36488Y18711D01*
X36443Y18646D01*
X36412Y18573D01*
X36395Y18495D01*
X36394Y18415D01*
X36408Y18337D01*
X36438Y18263D01*
X36481Y18197D01*
X36536Y18140D01*
X36601Y18094D01*
X36674Y18062D01*
X36751Y18045D01*
X36831Y18044D01*
X36909Y18058D01*
X36983Y18086D01*
X37050Y18129D01*
X37108Y18184D01*
X37153Y18248D01*
X37186Y18321D01*
X37203Y18398D01*
X37205Y18489D01*
X37189Y18567D01*
X37159Y18641D01*
X37115Y18707D01*
X37059Y18763D01*
X37049Y18770D01*
X37549Y18770D01*
X37544Y18767D01*
X37488Y18711D01*
X37443Y18646D01*
X37412Y18573D01*
X37395Y18495D01*
X37394Y18415D01*
X37408Y18337D01*
X37438Y18263D01*
X37481Y18197D01*
X37536Y18140D01*
X37601Y18094D01*
X37674Y18062D01*
X37751Y18045D01*
X37831Y18044D01*
X37909Y18058D01*
X37983Y18086D01*
X38050Y18129D01*
X38108Y18184D01*
X38153Y18248D01*
X38186Y18321D01*
X38203Y18398D01*
X38205Y18489D01*
X38189Y18567D01*
X38159Y18641D01*
X38115Y18707D01*
X38059Y18763D01*
X38049Y18770D01*
X49146Y18770D01*
X49138Y18761D01*
X49093Y18696D01*
X49062Y18623D01*
X49045Y18545D01*
X49044Y18465D01*
X49058Y18387D01*
X49088Y18313D01*
X49131Y18247D01*
X49186Y18190D01*
X49251Y18144D01*
X49324Y18112D01*
X49401Y18095D01*
X49481Y18094D01*
X49559Y18108D01*
X49633Y18136D01*
X49700Y18179D01*
X49758Y18234D01*
X49803Y18298D01*
X49836Y18371D01*
X49853Y18448D01*
X49855Y18539D01*
X49839Y18617D01*
X49809Y18691D01*
X49765Y18757D01*
X49752Y18770D01*
X50044Y18770D01*
X50044Y18763D01*
X50044Y18212D01*
X50049Y18187D01*
X50059Y18163D01*
X50073Y18142D01*
X50091Y18124D01*
X50112Y18110D01*
X50136Y18100D01*
X50161Y18095D01*
X50186Y18094D01*
X50720Y18094D01*
X50720Y17802D01*
X50709Y17813D01*
X50643Y17857D01*
X50570Y17888D01*
X50492Y17904D01*
X50413Y17905D01*
X50335Y17890D01*
X50261Y17860D01*
X50194Y17817D01*
X50138Y17761D01*
X50093Y17696D01*
X50062Y17623D01*
X50045Y17545D01*
X50044Y17465D01*
X50058Y17387D01*
X50088Y17313D01*
X50131Y17247D01*
X50186Y17190D01*
X50251Y17144D01*
X50324Y17112D01*
X50401Y17095D01*
X50481Y17094D01*
X50559Y17108D01*
X50633Y17136D01*
X50700Y17179D01*
X50720Y17197D01*
X50720Y10230D01*
M02*
