G04 (created by PCBNEW (2013-07-07 BZR 4022)-stable) date 3/1/2014 5:06:07 PM*
%MOIN*%
G04 Gerber Fmt 3.4, Leading zero omitted, Abs format*
%FSLAX34Y34*%
G01*
G70*
G90*
G04 APERTURE LIST*
%ADD10C,0.00590551*%
%ADD11C,0.006*%
%ADD12C,0.01*%
%ADD13C,0.0031*%
%ADD14C,0.008*%
%ADD15C,0.005*%
%ADD16R,0.069X0.069*%
%ADD17C,0.069*%
%ADD18R,0.0652X0.073*%
%ADD19R,0.04X0.0495*%
%ADD20R,0.0494331X0.0494331*%
%ADD21R,0.0494331X0.0573071*%
%ADD22O,0.0533701X0.0250236*%
%ADD23O,0.0250236X0.0533701*%
%ADD24R,0.0809291X0.0809291*%
%ADD25C,0.043*%
%ADD26R,0.100614X0.0809291*%
%ADD27O,0.0237244X0.0533701*%
%ADD28R,0.073X0.0652*%
%ADD29C,0.024*%
%ADD30R,0.0495X0.04*%
%ADD31R,0.045X0.057*%
%ADD32R,0.0455X0.0534*%
%ADD33C,0.16*%
%ADD34C,0.139*%
%ADD35R,0.0305354X0.0226614*%
%ADD36O,0.0250236X0.0529764*%
%ADD37O,0.0529764X0.0250236*%
%ADD38R,0.120299X0.120299*%
%ADD39C,0.037622*%
%ADD40R,0.037622X0.0305354*%
%ADD41R,0.033685X0.0277795*%
%ADD42R,0.025811X0.029748*%
%ADD43R,0.0919528X0.110457*%
%ADD44R,0.0309291X0.0289606*%
%ADD45R,0.0415591X0.025811*%
%ADD46R,0.037622X0.0573071*%
%ADD47R,0.0277795X0.0238425*%
%ADD48R,0.025811X0.0464803*%
%ADD49R,0.035X0.03*%
%ADD50R,0.0494331X0.100614*%
%ADD51R,0.199039X0.0966772*%
%ADD52R,0.059X0.039*%
%ADD53R,0.064X0.029*%
%ADD54R,0.0534X0.0455*%
%ADD55R,0.0416X0.0534*%
%ADD56R,0.0534X0.0416*%
%ADD57R,0.0612441X0.17148*%
%ADD58R,0.0691181X0.0687244*%
%ADD59R,0.205339X0.146283*%
%ADD60C,0.029*%
%ADD61R,0.0305X0.0719*%
%ADD62R,0.0691181X0.029748*%
%ADD63R,0.0888031X0.0868346*%
%ADD64R,0.0888031X0.104551*%
%ADD65C,0.044*%
G04 APERTURE END LIST*
G54D10*
G54D11*
X500Y500D02*
X500Y1500D01*
X500Y500D02*
X1500Y500D01*
X1400Y1000D02*
G75*
G03X1400Y1000I-400J0D01*
G74*
G01*
X500Y1500D02*
X1500Y1500D01*
X1500Y1500D02*
X1500Y500D01*
X500Y500D02*
X0Y500D01*
X500Y500D02*
X500Y0D01*
X10500Y39500D02*
X5000Y39500D01*
X10500Y30500D02*
X10500Y39500D01*
X5000Y30500D02*
X10500Y30500D01*
X500Y35000D02*
G75*
G03X5000Y30500I4500J0D01*
G74*
G01*
X5000Y39500D02*
G75*
G03X500Y35000I0J-4500D01*
G74*
G01*
X6000Y20500D02*
X7100Y20500D01*
X6000Y29500D02*
X6000Y20500D01*
X7100Y29500D02*
X6000Y29500D01*
X11600Y25000D02*
G75*
G03X7100Y29500I-4500J0D01*
G74*
G01*
X7100Y20500D02*
G75*
G03X11600Y25000I0J4500D01*
G74*
G01*
X10500Y19500D02*
X5000Y19500D01*
X10500Y10500D02*
X10500Y19500D01*
X5000Y10500D02*
X10500Y10500D01*
X500Y15000D02*
G75*
G03X5000Y10500I4500J0D01*
G74*
G01*
X5000Y19500D02*
G75*
G03X500Y15000I0J-4500D01*
G74*
G01*
X6000Y500D02*
X7100Y500D01*
X7100Y9500D02*
X6000Y9500D01*
X11600Y5000D02*
G75*
G03X7100Y9500I-4500J0D01*
G74*
G01*
X7100Y500D02*
G75*
G03X11600Y5000I0J4500D01*
G74*
G01*
X6000Y9500D02*
X6000Y500D01*
X51450Y39500D02*
X51450Y500D01*
X14450Y500D02*
X14450Y39500D01*
X51450Y500D02*
X14450Y500D01*
X51450Y9500D02*
X51450Y500D01*
X14450Y9500D02*
X51450Y9500D01*
X14450Y10500D02*
X14450Y9500D01*
X51450Y10500D02*
X14450Y10500D01*
X51450Y19500D02*
X51450Y10500D01*
X14450Y19500D02*
X51450Y19500D01*
X14450Y20500D02*
X14450Y19500D01*
X51450Y20500D02*
X14450Y20500D01*
X51450Y29500D02*
X51450Y20500D01*
X14450Y29500D02*
X51450Y29500D01*
X14450Y30500D02*
X14450Y29500D01*
X51450Y30500D02*
X14450Y30500D01*
X51450Y39500D02*
X51450Y30500D01*
X14450Y39500D02*
X51450Y39500D01*
G54D12*
X45326Y39052D02*
X45516Y39052D01*
X45288Y38938D02*
X45421Y39338D01*
X45554Y38938D01*
X45688Y38976D02*
X45707Y38957D01*
X45688Y38938D01*
X45669Y38957D01*
X45688Y38976D01*
X45688Y38938D01*
X46164Y38957D02*
X46221Y38938D01*
X46316Y38938D01*
X46354Y38957D01*
X46373Y38976D01*
X46392Y39014D01*
X46392Y39052D01*
X46373Y39090D01*
X46354Y39109D01*
X46316Y39128D01*
X46240Y39147D01*
X46202Y39166D01*
X46183Y39185D01*
X46164Y39223D01*
X46164Y39261D01*
X46183Y39300D01*
X46202Y39319D01*
X46240Y39338D01*
X46335Y39338D01*
X46392Y39319D01*
X46735Y38938D02*
X46735Y39147D01*
X46716Y39185D01*
X46678Y39204D01*
X46602Y39204D01*
X46564Y39185D01*
X46735Y38957D02*
X46697Y38938D01*
X46602Y38938D01*
X46564Y38957D01*
X46545Y38995D01*
X46545Y39033D01*
X46564Y39071D01*
X46602Y39090D01*
X46697Y39090D01*
X46735Y39109D01*
X46926Y38938D02*
X46926Y39204D01*
X46926Y39166D02*
X46945Y39185D01*
X46983Y39204D01*
X47040Y39204D01*
X47078Y39185D01*
X47097Y39147D01*
X47097Y38938D01*
X47097Y39147D02*
X47116Y39185D01*
X47154Y39204D01*
X47211Y39204D01*
X47250Y39185D01*
X47269Y39147D01*
X47269Y38938D01*
X47630Y38938D02*
X47630Y39147D01*
X47611Y39185D01*
X47573Y39204D01*
X47497Y39204D01*
X47459Y39185D01*
X47630Y38957D02*
X47592Y38938D01*
X47497Y38938D01*
X47459Y38957D01*
X47440Y38995D01*
X47440Y39033D01*
X47459Y39071D01*
X47497Y39090D01*
X47592Y39090D01*
X47630Y39109D01*
X47821Y39204D02*
X47821Y38938D01*
X47821Y39166D02*
X47840Y39185D01*
X47878Y39204D01*
X47935Y39204D01*
X47973Y39185D01*
X47992Y39147D01*
X47992Y38938D01*
X48183Y38938D02*
X48183Y39204D01*
X48183Y39338D02*
X48164Y39319D01*
X48183Y39300D01*
X48202Y39319D01*
X48183Y39338D01*
X48183Y39300D01*
X48526Y38957D02*
X48488Y38938D01*
X48411Y38938D01*
X48373Y38957D01*
X48354Y38995D01*
X48354Y39147D01*
X48373Y39185D01*
X48411Y39204D01*
X48488Y39204D01*
X48526Y39185D01*
X48545Y39147D01*
X48545Y39109D01*
X48354Y39071D01*
X48888Y39204D02*
X48888Y38880D01*
X48869Y38842D01*
X48850Y38823D01*
X48811Y38804D01*
X48754Y38804D01*
X48716Y38823D01*
X48888Y38957D02*
X48850Y38938D01*
X48773Y38938D01*
X48735Y38957D01*
X48716Y38976D01*
X48697Y39014D01*
X48697Y39128D01*
X48716Y39166D01*
X48735Y39185D01*
X48773Y39204D01*
X48850Y39204D01*
X48888Y39185D01*
X49135Y38938D02*
X49097Y38957D01*
X49078Y38976D01*
X49059Y39014D01*
X49059Y39128D01*
X49078Y39166D01*
X49097Y39185D01*
X49135Y39204D01*
X49192Y39204D01*
X49230Y39185D01*
X49250Y39166D01*
X49269Y39128D01*
X49269Y39014D01*
X49250Y38976D01*
X49230Y38957D01*
X49192Y38938D01*
X49135Y38938D01*
X45573Y38278D02*
X45440Y38468D01*
X45345Y38278D02*
X45345Y38678D01*
X45497Y38678D01*
X45535Y38659D01*
X45554Y38640D01*
X45573Y38601D01*
X45573Y38544D01*
X45554Y38506D01*
X45535Y38487D01*
X45497Y38468D01*
X45345Y38468D01*
X45897Y38297D02*
X45859Y38278D01*
X45783Y38278D01*
X45745Y38297D01*
X45726Y38335D01*
X45726Y38487D01*
X45745Y38525D01*
X45783Y38544D01*
X45859Y38544D01*
X45897Y38525D01*
X45916Y38487D01*
X45916Y38449D01*
X45726Y38411D01*
X46050Y38544D02*
X46145Y38278D01*
X46240Y38544D01*
X46392Y38316D02*
X46411Y38297D01*
X46392Y38278D01*
X46373Y38297D01*
X46392Y38316D01*
X46392Y38278D01*
X47097Y38278D02*
X46869Y38278D01*
X46983Y38278D02*
X46983Y38678D01*
X46945Y38620D01*
X46907Y38582D01*
X46869Y38563D01*
X47269Y38316D02*
X47288Y38297D01*
X47269Y38278D01*
X47250Y38297D01*
X47269Y38316D01*
X47269Y38278D01*
X47535Y38678D02*
X47573Y38678D01*
X47611Y38659D01*
X47630Y38640D01*
X47650Y38601D01*
X47669Y38525D01*
X47669Y38430D01*
X47650Y38354D01*
X47630Y38316D01*
X47611Y38297D01*
X47573Y38278D01*
X47535Y38278D01*
X47497Y38297D01*
X47478Y38316D01*
X47459Y38354D01*
X47440Y38430D01*
X47440Y38525D01*
X47459Y38601D01*
X47478Y38640D01*
X47497Y38659D01*
X47535Y38678D01*
X45421Y38018D02*
X45459Y38018D01*
X45497Y37999D01*
X45516Y37980D01*
X45535Y37941D01*
X45554Y37865D01*
X45554Y37770D01*
X45535Y37694D01*
X45516Y37656D01*
X45497Y37637D01*
X45459Y37618D01*
X45421Y37618D01*
X45383Y37637D01*
X45364Y37656D01*
X45345Y37694D01*
X45326Y37770D01*
X45326Y37865D01*
X45345Y37941D01*
X45364Y37980D01*
X45383Y37999D01*
X45421Y38018D01*
X45707Y37980D02*
X45726Y37999D01*
X45764Y38018D01*
X45859Y38018D01*
X45897Y37999D01*
X45916Y37980D01*
X45935Y37941D01*
X45935Y37903D01*
X45916Y37846D01*
X45688Y37618D01*
X45935Y37618D01*
X46107Y37770D02*
X46411Y37770D01*
X46583Y37980D02*
X46602Y37999D01*
X46640Y38018D01*
X46735Y38018D01*
X46773Y37999D01*
X46792Y37980D01*
X46811Y37941D01*
X46811Y37903D01*
X46792Y37846D01*
X46564Y37618D01*
X46811Y37618D01*
X47059Y38018D02*
X47097Y38018D01*
X47135Y37999D01*
X47154Y37980D01*
X47173Y37941D01*
X47192Y37865D01*
X47192Y37770D01*
X47173Y37694D01*
X47154Y37656D01*
X47135Y37637D01*
X47097Y37618D01*
X47059Y37618D01*
X47021Y37637D01*
X47002Y37656D01*
X46983Y37694D01*
X46964Y37770D01*
X46964Y37865D01*
X46983Y37941D01*
X47002Y37980D01*
X47021Y37999D01*
X47059Y38018D01*
X47573Y37618D02*
X47345Y37618D01*
X47459Y37618D02*
X47459Y38018D01*
X47421Y37960D01*
X47383Y37922D01*
X47345Y37903D01*
X47916Y37884D02*
X47916Y37618D01*
X47821Y38037D02*
X47726Y37751D01*
X47973Y37751D01*
G54D11*
X500Y38500D02*
X500Y39500D01*
X500Y39500D02*
X1500Y39500D01*
X500Y30500D02*
X500Y31500D01*
X500Y30500D02*
X1500Y30500D01*
X1400Y31000D02*
G75*
G03X1400Y31000I-400J0D01*
G74*
G01*
X1400Y39000D02*
G75*
G03X1400Y39000I-400J0D01*
G74*
G01*
X1500Y39500D02*
X1500Y38500D01*
X1500Y38500D02*
X500Y38500D01*
X500Y31500D02*
X1500Y31500D01*
X1500Y31500D02*
X1500Y30500D01*
X0Y39500D02*
X500Y39500D01*
X500Y39500D02*
X500Y40000D01*
X500Y30500D02*
X0Y30500D01*
X500Y30500D02*
X500Y30000D01*
G54D12*
X28509Y33638D02*
X28757Y33638D01*
X28623Y33485D01*
X28680Y33485D01*
X28719Y33466D01*
X28738Y33447D01*
X28757Y33409D01*
X28757Y33314D01*
X28738Y33276D01*
X28719Y33257D01*
X28680Y33238D01*
X28566Y33238D01*
X28528Y33257D01*
X28509Y33276D01*
X28928Y33276D02*
X28947Y33257D01*
X28928Y33238D01*
X28909Y33257D01*
X28928Y33276D01*
X28928Y33238D01*
X29080Y33638D02*
X29328Y33638D01*
X29195Y33485D01*
X29252Y33485D01*
X29290Y33466D01*
X29309Y33447D01*
X29328Y33409D01*
X29328Y33314D01*
X29309Y33276D01*
X29290Y33257D01*
X29252Y33238D01*
X29138Y33238D01*
X29100Y33257D01*
X29080Y33276D01*
X29442Y33638D02*
X29576Y33238D01*
X29709Y33638D01*
X28528Y31600D02*
X28547Y31619D01*
X28585Y31638D01*
X28680Y31638D01*
X28719Y31619D01*
X28738Y31600D01*
X28757Y31561D01*
X28757Y31523D01*
X28738Y31466D01*
X28509Y31238D01*
X28757Y31238D01*
X28928Y31276D02*
X28947Y31257D01*
X28928Y31238D01*
X28909Y31257D01*
X28928Y31276D01*
X28928Y31238D01*
X29309Y31638D02*
X29119Y31638D01*
X29100Y31447D01*
X29119Y31466D01*
X29157Y31485D01*
X29252Y31485D01*
X29290Y31466D01*
X29309Y31447D01*
X29328Y31409D01*
X29328Y31314D01*
X29309Y31276D01*
X29290Y31257D01*
X29252Y31238D01*
X29157Y31238D01*
X29119Y31257D01*
X29100Y31276D01*
X29442Y31638D02*
X29576Y31238D01*
X29709Y31638D01*
X28528Y11600D02*
X28547Y11619D01*
X28585Y11638D01*
X28680Y11638D01*
X28719Y11619D01*
X28738Y11600D01*
X28757Y11561D01*
X28757Y11523D01*
X28738Y11466D01*
X28509Y11238D01*
X28757Y11238D01*
X28928Y11276D02*
X28947Y11257D01*
X28928Y11238D01*
X28909Y11257D01*
X28928Y11276D01*
X28928Y11238D01*
X29309Y11638D02*
X29119Y11638D01*
X29100Y11447D01*
X29119Y11466D01*
X29157Y11485D01*
X29252Y11485D01*
X29290Y11466D01*
X29309Y11447D01*
X29328Y11409D01*
X29328Y11314D01*
X29309Y11276D01*
X29290Y11257D01*
X29252Y11238D01*
X29157Y11238D01*
X29119Y11257D01*
X29100Y11276D01*
X29442Y11638D02*
X29576Y11238D01*
X29709Y11638D01*
X28509Y13638D02*
X28757Y13638D01*
X28623Y13485D01*
X28680Y13485D01*
X28719Y13466D01*
X28738Y13447D01*
X28757Y13409D01*
X28757Y13314D01*
X28738Y13276D01*
X28719Y13257D01*
X28680Y13238D01*
X28566Y13238D01*
X28528Y13257D01*
X28509Y13276D01*
X28928Y13276D02*
X28947Y13257D01*
X28928Y13238D01*
X28909Y13257D01*
X28928Y13276D01*
X28928Y13238D01*
X29080Y13638D02*
X29328Y13638D01*
X29195Y13485D01*
X29252Y13485D01*
X29290Y13466D01*
X29309Y13447D01*
X29328Y13409D01*
X29328Y13314D01*
X29309Y13276D01*
X29290Y13257D01*
X29252Y13238D01*
X29138Y13238D01*
X29100Y13257D01*
X29080Y13276D01*
X29442Y13638D02*
X29576Y13238D01*
X29709Y13638D01*
G54D11*
X500Y10500D02*
X500Y10000D01*
X500Y10500D02*
X0Y10500D01*
X500Y19500D02*
X500Y20000D01*
X0Y19500D02*
X500Y19500D01*
X1500Y11500D02*
X1500Y10500D01*
X500Y11500D02*
X1500Y11500D01*
X1500Y18500D02*
X500Y18500D01*
X1500Y19500D02*
X1500Y18500D01*
X1400Y19000D02*
G75*
G03X1400Y19000I-400J0D01*
G74*
G01*
X1400Y11000D02*
G75*
G03X1400Y11000I-400J0D01*
G74*
G01*
X500Y10500D02*
X1500Y10500D01*
X500Y10500D02*
X500Y11500D01*
X500Y19500D02*
X1500Y19500D01*
X500Y18500D02*
X500Y19500D01*
G54D12*
X45326Y19052D02*
X45516Y19052D01*
X45288Y18938D02*
X45421Y19338D01*
X45554Y18938D01*
X45688Y18976D02*
X45707Y18957D01*
X45688Y18938D01*
X45669Y18957D01*
X45688Y18976D01*
X45688Y18938D01*
X46164Y18957D02*
X46221Y18938D01*
X46316Y18938D01*
X46354Y18957D01*
X46373Y18976D01*
X46392Y19014D01*
X46392Y19052D01*
X46373Y19090D01*
X46354Y19109D01*
X46316Y19128D01*
X46240Y19147D01*
X46202Y19166D01*
X46183Y19185D01*
X46164Y19223D01*
X46164Y19261D01*
X46183Y19300D01*
X46202Y19319D01*
X46240Y19338D01*
X46335Y19338D01*
X46392Y19319D01*
X46735Y18938D02*
X46735Y19147D01*
X46716Y19185D01*
X46678Y19204D01*
X46602Y19204D01*
X46564Y19185D01*
X46735Y18957D02*
X46697Y18938D01*
X46602Y18938D01*
X46564Y18957D01*
X46545Y18995D01*
X46545Y19033D01*
X46564Y19071D01*
X46602Y19090D01*
X46697Y19090D01*
X46735Y19109D01*
X46926Y18938D02*
X46926Y19204D01*
X46926Y19166D02*
X46945Y19185D01*
X46983Y19204D01*
X47040Y19204D01*
X47078Y19185D01*
X47097Y19147D01*
X47097Y18938D01*
X47097Y19147D02*
X47116Y19185D01*
X47154Y19204D01*
X47211Y19204D01*
X47250Y19185D01*
X47269Y19147D01*
X47269Y18938D01*
X47630Y18938D02*
X47630Y19147D01*
X47611Y19185D01*
X47573Y19204D01*
X47497Y19204D01*
X47459Y19185D01*
X47630Y18957D02*
X47592Y18938D01*
X47497Y18938D01*
X47459Y18957D01*
X47440Y18995D01*
X47440Y19033D01*
X47459Y19071D01*
X47497Y19090D01*
X47592Y19090D01*
X47630Y19109D01*
X47821Y19204D02*
X47821Y18938D01*
X47821Y19166D02*
X47840Y19185D01*
X47878Y19204D01*
X47935Y19204D01*
X47973Y19185D01*
X47992Y19147D01*
X47992Y18938D01*
X48183Y18938D02*
X48183Y19204D01*
X48183Y19338D02*
X48164Y19319D01*
X48183Y19300D01*
X48202Y19319D01*
X48183Y19338D01*
X48183Y19300D01*
X48526Y18957D02*
X48488Y18938D01*
X48411Y18938D01*
X48373Y18957D01*
X48354Y18995D01*
X48354Y19147D01*
X48373Y19185D01*
X48411Y19204D01*
X48488Y19204D01*
X48526Y19185D01*
X48545Y19147D01*
X48545Y19109D01*
X48354Y19071D01*
X48888Y19204D02*
X48888Y18880D01*
X48869Y18842D01*
X48850Y18823D01*
X48811Y18804D01*
X48754Y18804D01*
X48716Y18823D01*
X48888Y18957D02*
X48850Y18938D01*
X48773Y18938D01*
X48735Y18957D01*
X48716Y18976D01*
X48697Y19014D01*
X48697Y19128D01*
X48716Y19166D01*
X48735Y19185D01*
X48773Y19204D01*
X48850Y19204D01*
X48888Y19185D01*
X49135Y18938D02*
X49097Y18957D01*
X49078Y18976D01*
X49059Y19014D01*
X49059Y19128D01*
X49078Y19166D01*
X49097Y19185D01*
X49135Y19204D01*
X49192Y19204D01*
X49230Y19185D01*
X49250Y19166D01*
X49269Y19128D01*
X49269Y19014D01*
X49250Y18976D01*
X49230Y18957D01*
X49192Y18938D01*
X49135Y18938D01*
X45573Y18278D02*
X45440Y18468D01*
X45345Y18278D02*
X45345Y18678D01*
X45497Y18678D01*
X45535Y18659D01*
X45554Y18640D01*
X45573Y18601D01*
X45573Y18544D01*
X45554Y18506D01*
X45535Y18487D01*
X45497Y18468D01*
X45345Y18468D01*
X45897Y18297D02*
X45859Y18278D01*
X45783Y18278D01*
X45745Y18297D01*
X45726Y18335D01*
X45726Y18487D01*
X45745Y18525D01*
X45783Y18544D01*
X45859Y18544D01*
X45897Y18525D01*
X45916Y18487D01*
X45916Y18449D01*
X45726Y18411D01*
X46050Y18544D02*
X46145Y18278D01*
X46240Y18544D01*
X46392Y18316D02*
X46411Y18297D01*
X46392Y18278D01*
X46373Y18297D01*
X46392Y18316D01*
X46392Y18278D01*
X47097Y18278D02*
X46869Y18278D01*
X46983Y18278D02*
X46983Y18678D01*
X46945Y18620D01*
X46907Y18582D01*
X46869Y18563D01*
X47269Y18316D02*
X47288Y18297D01*
X47269Y18278D01*
X47250Y18297D01*
X47269Y18316D01*
X47269Y18278D01*
X47535Y18678D02*
X47573Y18678D01*
X47611Y18659D01*
X47630Y18640D01*
X47650Y18601D01*
X47669Y18525D01*
X47669Y18430D01*
X47650Y18354D01*
X47630Y18316D01*
X47611Y18297D01*
X47573Y18278D01*
X47535Y18278D01*
X47497Y18297D01*
X47478Y18316D01*
X47459Y18354D01*
X47440Y18430D01*
X47440Y18525D01*
X47459Y18601D01*
X47478Y18640D01*
X47497Y18659D01*
X47535Y18678D01*
X45421Y18018D02*
X45459Y18018D01*
X45497Y17999D01*
X45516Y17980D01*
X45535Y17941D01*
X45554Y17865D01*
X45554Y17770D01*
X45535Y17694D01*
X45516Y17656D01*
X45497Y17637D01*
X45459Y17618D01*
X45421Y17618D01*
X45383Y17637D01*
X45364Y17656D01*
X45345Y17694D01*
X45326Y17770D01*
X45326Y17865D01*
X45345Y17941D01*
X45364Y17980D01*
X45383Y17999D01*
X45421Y18018D01*
X45707Y17980D02*
X45726Y17999D01*
X45764Y18018D01*
X45859Y18018D01*
X45897Y17999D01*
X45916Y17980D01*
X45935Y17941D01*
X45935Y17903D01*
X45916Y17846D01*
X45688Y17618D01*
X45935Y17618D01*
X46107Y17770D02*
X46411Y17770D01*
X46583Y17980D02*
X46602Y17999D01*
X46640Y18018D01*
X46735Y18018D01*
X46773Y17999D01*
X46792Y17980D01*
X46811Y17941D01*
X46811Y17903D01*
X46792Y17846D01*
X46564Y17618D01*
X46811Y17618D01*
X47059Y18018D02*
X47097Y18018D01*
X47135Y17999D01*
X47154Y17980D01*
X47173Y17941D01*
X47192Y17865D01*
X47192Y17770D01*
X47173Y17694D01*
X47154Y17656D01*
X47135Y17637D01*
X47097Y17618D01*
X47059Y17618D01*
X47021Y17637D01*
X47002Y17656D01*
X46983Y17694D01*
X46964Y17770D01*
X46964Y17865D01*
X46983Y17941D01*
X47002Y17980D01*
X47021Y17999D01*
X47059Y18018D01*
X47573Y17618D02*
X47345Y17618D01*
X47459Y17618D02*
X47459Y18018D01*
X47421Y17960D01*
X47383Y17922D01*
X47345Y17903D01*
X47916Y17884D02*
X47916Y17618D01*
X47821Y18037D02*
X47726Y17751D01*
X47973Y17751D01*
G54D10*
X32800Y36700D02*
X32300Y36450D01*
X32300Y36450D02*
X31800Y36700D01*
X31800Y36700D02*
X32300Y36950D01*
X32300Y36950D02*
X32800Y36700D01*
X40300Y39500D02*
X40300Y36700D01*
X40300Y36700D02*
X30300Y36700D01*
X30300Y36700D02*
X30300Y39500D01*
X37854Y36691D02*
X37854Y36391D01*
X37854Y35801D02*
X37854Y35901D01*
X37854Y36691D02*
X37554Y36691D01*
X37754Y35801D02*
X37854Y35801D01*
X36292Y36691D02*
X36292Y36591D01*
X36292Y35801D02*
X36392Y35801D01*
X36292Y35801D02*
X36292Y35901D01*
X36292Y36691D02*
X36392Y36691D01*
X34716Y36405D02*
X34716Y36305D01*
X34716Y35850D02*
X34616Y35850D01*
X34716Y36405D02*
X34616Y36405D01*
X34716Y35850D02*
X34716Y35950D01*
X33721Y36405D02*
X33721Y36305D01*
X33721Y36405D02*
X33821Y36405D01*
X33721Y35950D02*
X33721Y35850D01*
X33721Y35850D02*
X33821Y35850D01*
X35635Y35980D02*
X35635Y36512D01*
X35163Y35980D02*
X35163Y36512D01*
X35163Y36512D02*
X35872Y36512D01*
X35872Y36512D02*
X35872Y35980D01*
X35872Y35980D02*
X35163Y35980D01*
X33616Y36628D02*
X33616Y35628D01*
X33616Y35628D02*
X31616Y35628D01*
X31616Y35628D02*
X31616Y36628D01*
X31616Y36628D02*
X33616Y36628D01*
X24550Y32045D02*
X24550Y32145D01*
X24550Y32045D02*
X24650Y32045D01*
X28899Y36205D02*
X28899Y36105D01*
X28899Y36205D02*
X28799Y36205D01*
X16195Y31544D02*
X16095Y31544D01*
X15305Y31544D02*
X15405Y31544D01*
X16195Y31544D02*
X16195Y31644D01*
X15305Y31644D02*
X15305Y31544D01*
X16195Y33106D02*
X16095Y33106D01*
X15305Y33106D02*
X15305Y33006D01*
X15305Y33106D02*
X15405Y33106D01*
X16195Y33106D02*
X16195Y33006D01*
X16195Y33144D02*
X16095Y33144D01*
X15305Y33144D02*
X15405Y33144D01*
X16195Y33144D02*
X16195Y33244D01*
X15305Y33244D02*
X15305Y33144D01*
X16195Y34706D02*
X16095Y34706D01*
X15305Y34706D02*
X15305Y34606D01*
X15305Y34706D02*
X15405Y34706D01*
X16195Y34706D02*
X16195Y34606D01*
X16195Y34744D02*
X16095Y34744D01*
X15305Y34744D02*
X15405Y34744D01*
X16195Y34744D02*
X16195Y34844D01*
X15305Y34844D02*
X15305Y34744D01*
X16195Y36306D02*
X16095Y36306D01*
X15305Y36306D02*
X15305Y36206D01*
X15305Y36306D02*
X15405Y36306D01*
X16195Y36306D02*
X16195Y36206D01*
X24800Y38400D02*
G75*
G03X24800Y38400I-200J0D01*
G74*
G01*
X23750Y37650D02*
G75*
G03X23750Y37650I-200J0D01*
G74*
G01*
X23750Y37250D02*
G75*
G03X23750Y37250I-200J0D01*
G74*
G01*
X43725Y30625D02*
G75*
G03X43725Y30625I-200J0D01*
G74*
G01*
X47550Y33000D02*
G75*
G03X47550Y33000I-200J0D01*
G74*
G01*
X49050Y31000D02*
G75*
G03X49050Y31000I-200J0D01*
G74*
G01*
X41825Y30750D02*
G75*
G03X41825Y30750I-200J0D01*
G74*
G01*
X23950Y35650D02*
G75*
G03X23950Y35650I-200J0D01*
G74*
G01*
X49150Y33350D02*
G75*
G03X49150Y33350I-200J0D01*
G74*
G01*
X49599Y32900D02*
G75*
G03X49599Y32900I-199J0D01*
G74*
G01*
X49150Y36150D02*
G75*
G03X49150Y36150I-200J0D01*
G74*
G01*
X48850Y34450D02*
G75*
G03X48850Y34450I-200J0D01*
G74*
G01*
X47000Y32500D02*
G75*
G03X47000Y32500I-200J0D01*
G74*
G01*
X50150Y37400D02*
G75*
G03X50150Y37400I-200J0D01*
G74*
G01*
X24450Y38850D02*
G75*
G03X24450Y38850I-200J0D01*
G74*
G01*
X24600Y38600D02*
G75*
G03X24600Y38600I-200J0D01*
G74*
G01*
X24800Y35650D02*
G75*
G03X24800Y35650I-200J0D01*
G74*
G01*
X49250Y31100D02*
G75*
G03X49250Y31100I-200J0D01*
G74*
G01*
X25050Y31400D02*
G75*
G03X25050Y31400I-200J0D01*
G74*
G01*
X17297Y35827D02*
X17297Y35727D01*
X17297Y35272D02*
X17197Y35272D01*
X17297Y35827D02*
X17197Y35827D01*
X17297Y35272D02*
X17297Y35372D01*
X16302Y35827D02*
X16302Y35727D01*
X16302Y35827D02*
X16402Y35827D01*
X16302Y35372D02*
X16302Y35272D01*
X16302Y35272D02*
X16402Y35272D01*
X17297Y33427D02*
X17297Y33327D01*
X17297Y32872D02*
X17197Y32872D01*
X17297Y33427D02*
X17197Y33427D01*
X17297Y32872D02*
X17297Y32972D01*
X16302Y33427D02*
X16302Y33327D01*
X16302Y33427D02*
X16402Y33427D01*
X16302Y32972D02*
X16302Y32872D01*
X16302Y32872D02*
X16402Y32872D01*
X40022Y25497D02*
X40122Y25497D01*
X40577Y25497D02*
X40577Y25397D01*
X40022Y25497D02*
X40022Y25397D01*
X40577Y25497D02*
X40477Y25497D01*
X40022Y24502D02*
X40122Y24502D01*
X40022Y24502D02*
X40022Y24602D01*
X40477Y24502D02*
X40577Y24502D01*
X40577Y24502D02*
X40577Y24602D01*
X41927Y35902D02*
X41827Y35902D01*
X41372Y35902D02*
X41372Y36002D01*
X41927Y35902D02*
X41927Y36002D01*
X41372Y35902D02*
X41472Y35902D01*
X41927Y36897D02*
X41827Y36897D01*
X41927Y36897D02*
X41927Y36797D01*
X41472Y36897D02*
X41372Y36897D01*
X41372Y36897D02*
X41372Y36797D01*
X42577Y35902D02*
X42477Y35902D01*
X42022Y35902D02*
X42022Y36002D01*
X42577Y35902D02*
X42577Y36002D01*
X42022Y35902D02*
X42122Y35902D01*
X42577Y36897D02*
X42477Y36897D01*
X42577Y36897D02*
X42577Y36797D01*
X42122Y36897D02*
X42022Y36897D01*
X42022Y36897D02*
X42022Y36797D01*
X39272Y36597D02*
X39372Y36597D01*
X39827Y36597D02*
X39827Y36497D01*
X39272Y36597D02*
X39272Y36497D01*
X39827Y36597D02*
X39727Y36597D01*
X39272Y35602D02*
X39372Y35602D01*
X39272Y35602D02*
X39272Y35702D01*
X39727Y35602D02*
X39827Y35602D01*
X39827Y35602D02*
X39827Y35702D01*
X40397Y34477D02*
X40397Y34377D01*
X40397Y33922D02*
X40297Y33922D01*
X40397Y34477D02*
X40297Y34477D01*
X40397Y33922D02*
X40397Y34022D01*
X39402Y34477D02*
X39402Y34377D01*
X39402Y34477D02*
X39502Y34477D01*
X39402Y34022D02*
X39402Y33922D01*
X39402Y33922D02*
X39502Y33922D01*
X39972Y36597D02*
X40072Y36597D01*
X40527Y36597D02*
X40527Y36497D01*
X39972Y36597D02*
X39972Y36497D01*
X40527Y36597D02*
X40427Y36597D01*
X39972Y35602D02*
X40072Y35602D01*
X39972Y35602D02*
X39972Y35702D01*
X40427Y35602D02*
X40527Y35602D01*
X40527Y35602D02*
X40527Y35702D01*
X45252Y33922D02*
X45252Y34022D01*
X45252Y34477D02*
X45352Y34477D01*
X45252Y33922D02*
X45352Y33922D01*
X45252Y34477D02*
X45252Y34377D01*
X46247Y33922D02*
X46247Y34022D01*
X46247Y33922D02*
X46147Y33922D01*
X46247Y34377D02*
X46247Y34477D01*
X46247Y34477D02*
X46147Y34477D01*
X32302Y33922D02*
X32302Y34022D01*
X32302Y34477D02*
X32402Y34477D01*
X32302Y33922D02*
X32402Y33922D01*
X32302Y34477D02*
X32302Y34377D01*
X33297Y33922D02*
X33297Y34022D01*
X33297Y33922D02*
X33197Y33922D01*
X33297Y34377D02*
X33297Y34477D01*
X33297Y34477D02*
X33197Y34477D01*
X21027Y33502D02*
X20927Y33502D01*
X20472Y33502D02*
X20472Y33602D01*
X21027Y33502D02*
X21027Y33602D01*
X20472Y33502D02*
X20572Y33502D01*
X21027Y34497D02*
X20927Y34497D01*
X21027Y34497D02*
X21027Y34397D01*
X20572Y34497D02*
X20472Y34497D01*
X20472Y34497D02*
X20472Y34397D01*
X45072Y29447D02*
X45172Y29447D01*
X45627Y29447D02*
X45627Y29347D01*
X45072Y29447D02*
X45072Y29347D01*
X45627Y29447D02*
X45527Y29447D01*
X45072Y28452D02*
X45172Y28452D01*
X45072Y28452D02*
X45072Y28552D01*
X45527Y28452D02*
X45627Y28452D01*
X45627Y28452D02*
X45627Y28552D01*
X43552Y21422D02*
X43552Y21522D01*
X43552Y21977D02*
X43652Y21977D01*
X43552Y21422D02*
X43652Y21422D01*
X43552Y21977D02*
X43552Y21877D01*
X44547Y21422D02*
X44547Y21522D01*
X44547Y21422D02*
X44447Y21422D01*
X44547Y21877D02*
X44547Y21977D01*
X44547Y21977D02*
X44447Y21977D01*
X42827Y23152D02*
X42727Y23152D01*
X42272Y23152D02*
X42272Y23252D01*
X42827Y23152D02*
X42827Y23252D01*
X42272Y23152D02*
X42372Y23152D01*
X42827Y24147D02*
X42727Y24147D01*
X42827Y24147D02*
X42827Y24047D01*
X42372Y24147D02*
X42272Y24147D01*
X42272Y24147D02*
X42272Y24047D01*
X46322Y27247D02*
X46422Y27247D01*
X46877Y27247D02*
X46877Y27147D01*
X46322Y27247D02*
X46322Y27147D01*
X46877Y27247D02*
X46777Y27247D01*
X46322Y26252D02*
X46422Y26252D01*
X46322Y26252D02*
X46322Y26352D01*
X46777Y26252D02*
X46877Y26252D01*
X46877Y26252D02*
X46877Y26352D01*
X45402Y23722D02*
X45402Y23822D01*
X45402Y24277D02*
X45502Y24277D01*
X45402Y23722D02*
X45502Y23722D01*
X45402Y24277D02*
X45402Y24177D01*
X46397Y23722D02*
X46397Y23822D01*
X46397Y23722D02*
X46297Y23722D01*
X46397Y24177D02*
X46397Y24277D01*
X46397Y24277D02*
X46297Y24277D01*
X30197Y37477D02*
X30197Y37377D01*
X30197Y36922D02*
X30097Y36922D01*
X30197Y37477D02*
X30097Y37477D01*
X30197Y36922D02*
X30197Y37022D01*
X29202Y37477D02*
X29202Y37377D01*
X29202Y37477D02*
X29302Y37477D01*
X29202Y37022D02*
X29202Y36922D01*
X29202Y36922D02*
X29302Y36922D01*
X47197Y33277D02*
X47197Y33177D01*
X47197Y32722D02*
X47097Y32722D01*
X47197Y33277D02*
X47097Y33277D01*
X47197Y32722D02*
X47197Y32822D01*
X46202Y33277D02*
X46202Y33177D01*
X46202Y33277D02*
X46302Y33277D01*
X46202Y32822D02*
X46202Y32722D01*
X46202Y32722D02*
X46302Y32722D01*
X24177Y38402D02*
X24077Y38402D01*
X23622Y38402D02*
X23622Y38502D01*
X24177Y38402D02*
X24177Y38502D01*
X23622Y38402D02*
X23722Y38402D01*
X24177Y39397D02*
X24077Y39397D01*
X24177Y39397D02*
X24177Y39297D01*
X23722Y39397D02*
X23622Y39397D01*
X23622Y39397D02*
X23622Y39297D01*
X25297Y39427D02*
X25297Y39327D01*
X25297Y38872D02*
X25197Y38872D01*
X25297Y39427D02*
X25197Y39427D01*
X25297Y38872D02*
X25297Y38972D01*
X24302Y39427D02*
X24302Y39327D01*
X24302Y39427D02*
X24402Y39427D01*
X24302Y38972D02*
X24302Y38872D01*
X24302Y38872D02*
X24402Y38872D01*
X25402Y38872D02*
X25402Y38972D01*
X25402Y39427D02*
X25502Y39427D01*
X25402Y38872D02*
X25502Y38872D01*
X25402Y39427D02*
X25402Y39327D01*
X26397Y38872D02*
X26397Y38972D01*
X26397Y38872D02*
X26297Y38872D01*
X26397Y39327D02*
X26397Y39427D01*
X26397Y39427D02*
X26297Y39427D01*
X18572Y34197D02*
X18672Y34197D01*
X19127Y34197D02*
X19127Y34097D01*
X18572Y34197D02*
X18572Y34097D01*
X19127Y34197D02*
X19027Y34197D01*
X18572Y33202D02*
X18672Y33202D01*
X18572Y33202D02*
X18572Y33302D01*
X19027Y33202D02*
X19127Y33202D01*
X19127Y33202D02*
X19127Y33302D01*
X17922Y34197D02*
X18022Y34197D01*
X18477Y34197D02*
X18477Y34097D01*
X17922Y34197D02*
X17922Y34097D01*
X18477Y34197D02*
X18377Y34197D01*
X17922Y33202D02*
X18022Y33202D01*
X17922Y33202D02*
X17922Y33302D01*
X18377Y33202D02*
X18477Y33202D01*
X18477Y33202D02*
X18477Y33302D01*
X20902Y32822D02*
X20902Y32922D01*
X20902Y33377D02*
X21002Y33377D01*
X20902Y32822D02*
X21002Y32822D01*
X20902Y33377D02*
X20902Y33277D01*
X21897Y32822D02*
X21897Y32922D01*
X21897Y32822D02*
X21797Y32822D01*
X21897Y33277D02*
X21897Y33377D01*
X21897Y33377D02*
X21797Y33377D01*
X23397Y36527D02*
X23397Y36427D01*
X23397Y35972D02*
X23297Y35972D01*
X23397Y36527D02*
X23297Y36527D01*
X23397Y35972D02*
X23397Y36072D01*
X22402Y36527D02*
X22402Y36427D01*
X22402Y36527D02*
X22502Y36527D01*
X22402Y36072D02*
X22402Y35972D01*
X22402Y35972D02*
X22502Y35972D01*
X23397Y37527D02*
X23397Y37427D01*
X23397Y36972D02*
X23297Y36972D01*
X23397Y37527D02*
X23297Y37527D01*
X23397Y36972D02*
X23397Y37072D01*
X22402Y37527D02*
X22402Y37427D01*
X22402Y37527D02*
X22502Y37527D01*
X22402Y37072D02*
X22402Y36972D01*
X22402Y36972D02*
X22502Y36972D01*
X27497Y39427D02*
X27497Y39327D01*
X27497Y38872D02*
X27397Y38872D01*
X27497Y39427D02*
X27397Y39427D01*
X27497Y38872D02*
X27497Y38972D01*
X26502Y39427D02*
X26502Y39327D01*
X26502Y39427D02*
X26602Y39427D01*
X26502Y38972D02*
X26502Y38872D01*
X26502Y38872D02*
X26602Y38872D01*
X22402Y36472D02*
X22402Y36572D01*
X22402Y37027D02*
X22502Y37027D01*
X22402Y36472D02*
X22502Y36472D01*
X22402Y37027D02*
X22402Y36927D01*
X23397Y36472D02*
X23397Y36572D01*
X23397Y36472D02*
X23297Y36472D01*
X23397Y36927D02*
X23397Y37027D01*
X23397Y37027D02*
X23297Y37027D01*
X22497Y34127D02*
X22497Y34027D01*
X22497Y33572D02*
X22397Y33572D01*
X22497Y34127D02*
X22397Y34127D01*
X22497Y33572D02*
X22497Y33672D01*
X21502Y34127D02*
X21502Y34027D01*
X21502Y34127D02*
X21602Y34127D01*
X21502Y33672D02*
X21502Y33572D01*
X21502Y33572D02*
X21602Y33572D01*
X26997Y32627D02*
X26997Y32527D01*
X26997Y32072D02*
X26897Y32072D01*
X26997Y32627D02*
X26897Y32627D01*
X26997Y32072D02*
X26997Y32172D01*
X26002Y32627D02*
X26002Y32527D01*
X26002Y32627D02*
X26102Y32627D01*
X26002Y32172D02*
X26002Y32072D01*
X26002Y32072D02*
X26102Y32072D01*
X25972Y31897D02*
X26072Y31897D01*
X26527Y31897D02*
X26527Y31797D01*
X25972Y31897D02*
X25972Y31797D01*
X26527Y31897D02*
X26427Y31897D01*
X25972Y30902D02*
X26072Y30902D01*
X25972Y30902D02*
X25972Y31002D01*
X26427Y30902D02*
X26527Y30902D01*
X26527Y30902D02*
X26527Y31002D01*
X15352Y36222D02*
X15352Y36322D01*
X15352Y36777D02*
X15452Y36777D01*
X15352Y36222D02*
X15452Y36222D01*
X15352Y36777D02*
X15352Y36677D01*
X16347Y36222D02*
X16347Y36322D01*
X16347Y36222D02*
X16247Y36222D01*
X16347Y36677D02*
X16347Y36777D01*
X16347Y36777D02*
X16247Y36777D01*
X25072Y31897D02*
X25172Y31897D01*
X25627Y31897D02*
X25627Y31797D01*
X25072Y31897D02*
X25072Y31797D01*
X25627Y31897D02*
X25527Y31897D01*
X25072Y30902D02*
X25172Y30902D01*
X25072Y30902D02*
X25072Y31002D01*
X25527Y30902D02*
X25627Y30902D01*
X25627Y30902D02*
X25627Y31002D01*
X20902Y32122D02*
X20902Y32222D01*
X20902Y32677D02*
X21002Y32677D01*
X20902Y32122D02*
X21002Y32122D01*
X20902Y32677D02*
X20902Y32577D01*
X21897Y32122D02*
X21897Y32222D01*
X21897Y32122D02*
X21797Y32122D01*
X21897Y32577D02*
X21897Y32677D01*
X21897Y32677D02*
X21797Y32677D01*
X29622Y36147D02*
X29722Y36147D01*
X30177Y36147D02*
X30177Y36047D01*
X29622Y36147D02*
X29622Y36047D01*
X30177Y36147D02*
X30077Y36147D01*
X29622Y35152D02*
X29722Y35152D01*
X29622Y35152D02*
X29622Y35252D01*
X30077Y35152D02*
X30177Y35152D01*
X30177Y35152D02*
X30177Y35252D01*
X40722Y25497D02*
X40822Y25497D01*
X41277Y25497D02*
X41277Y25397D01*
X40722Y25497D02*
X40722Y25397D01*
X41277Y25497D02*
X41177Y25497D01*
X40722Y24502D02*
X40822Y24502D01*
X40722Y24502D02*
X40722Y24602D01*
X41177Y24502D02*
X41277Y24502D01*
X41277Y24502D02*
X41277Y24602D01*
X42027Y33152D02*
X41927Y33152D01*
X41472Y33152D02*
X41472Y33252D01*
X42027Y33152D02*
X42027Y33252D01*
X41472Y33152D02*
X41572Y33152D01*
X42027Y34147D02*
X41927Y34147D01*
X42027Y34147D02*
X42027Y34047D01*
X41572Y34147D02*
X41472Y34147D01*
X41472Y34147D02*
X41472Y34047D01*
X40722Y36897D02*
X40822Y36897D01*
X41277Y36897D02*
X41277Y36797D01*
X40722Y36897D02*
X40722Y36797D01*
X41277Y36897D02*
X41177Y36897D01*
X40722Y35902D02*
X40822Y35902D01*
X40722Y35902D02*
X40722Y36002D01*
X41177Y35902D02*
X41277Y35902D01*
X41277Y35902D02*
X41277Y36002D01*
X46047Y26677D02*
X46047Y26577D01*
X46047Y26122D02*
X45947Y26122D01*
X46047Y26677D02*
X45947Y26677D01*
X46047Y26122D02*
X46047Y26222D01*
X45052Y26677D02*
X45052Y26577D01*
X45052Y26677D02*
X45152Y26677D01*
X45052Y26222D02*
X45052Y26122D01*
X45052Y26122D02*
X45152Y26122D01*
X40472Y35497D02*
X40572Y35497D01*
X41027Y35497D02*
X41027Y35397D01*
X40472Y35497D02*
X40472Y35397D01*
X41027Y35497D02*
X40927Y35497D01*
X40472Y34502D02*
X40572Y34502D01*
X40472Y34502D02*
X40472Y34602D01*
X40927Y34502D02*
X41027Y34502D01*
X41027Y34502D02*
X41027Y34602D01*
X41572Y32697D02*
X41672Y32697D01*
X42127Y32697D02*
X42127Y32597D01*
X41572Y32697D02*
X41572Y32597D01*
X42127Y32697D02*
X42027Y32697D01*
X41572Y31702D02*
X41672Y31702D01*
X41572Y31702D02*
X41572Y31802D01*
X42027Y31702D02*
X42127Y31702D01*
X42127Y31702D02*
X42127Y31802D01*
X38772Y35497D02*
X38872Y35497D01*
X39327Y35497D02*
X39327Y35397D01*
X38772Y35497D02*
X38772Y35397D01*
X39327Y35497D02*
X39227Y35497D01*
X38772Y34502D02*
X38872Y34502D01*
X38772Y34502D02*
X38772Y34602D01*
X39227Y34502D02*
X39327Y34502D01*
X39327Y34502D02*
X39327Y34602D01*
X45722Y29447D02*
X45822Y29447D01*
X46277Y29447D02*
X46277Y29347D01*
X45722Y29447D02*
X45722Y29347D01*
X46277Y29447D02*
X46177Y29447D01*
X45722Y28452D02*
X45822Y28452D01*
X45722Y28452D02*
X45722Y28552D01*
X46177Y28452D02*
X46277Y28452D01*
X46277Y28452D02*
X46277Y28552D01*
X42177Y23152D02*
X42077Y23152D01*
X41622Y23152D02*
X41622Y23252D01*
X42177Y23152D02*
X42177Y23252D01*
X41622Y23152D02*
X41722Y23152D01*
X42177Y24147D02*
X42077Y24147D01*
X42177Y24147D02*
X42177Y24047D01*
X41722Y24147D02*
X41622Y24147D01*
X41622Y24147D02*
X41622Y24047D01*
X46172Y21777D02*
X46172Y21677D01*
X46172Y21222D02*
X46072Y21222D01*
X46172Y21777D02*
X46072Y21777D01*
X46172Y21222D02*
X46172Y21322D01*
X45177Y21777D02*
X45177Y21677D01*
X45177Y21777D02*
X45277Y21777D01*
X45177Y21322D02*
X45177Y21222D01*
X45177Y21222D02*
X45277Y21222D01*
X43552Y22122D02*
X43552Y22222D01*
X43552Y22677D02*
X43652Y22677D01*
X43552Y22122D02*
X43652Y22122D01*
X43552Y22677D02*
X43552Y22577D01*
X44547Y22122D02*
X44547Y22222D01*
X44547Y22122D02*
X44447Y22122D01*
X44547Y22577D02*
X44547Y22677D01*
X44547Y22677D02*
X44447Y22677D01*
X45897Y23627D02*
X45897Y23527D01*
X45897Y23072D02*
X45797Y23072D01*
X45897Y23627D02*
X45797Y23627D01*
X45897Y23072D02*
X45897Y23172D01*
X44902Y23627D02*
X44902Y23527D01*
X44902Y23627D02*
X45002Y23627D01*
X44902Y23172D02*
X44902Y23072D01*
X44902Y23072D02*
X45002Y23072D01*
X41452Y25872D02*
X41452Y25972D01*
X41452Y26427D02*
X41552Y26427D01*
X41452Y25872D02*
X41552Y25872D01*
X41452Y26427D02*
X41452Y26327D01*
X42447Y25872D02*
X42447Y25972D01*
X42447Y25872D02*
X42347Y25872D01*
X42447Y26327D02*
X42447Y26427D01*
X42447Y26427D02*
X42347Y26427D01*
X46877Y27352D02*
X46777Y27352D01*
X46322Y27352D02*
X46322Y27452D01*
X46877Y27352D02*
X46877Y27452D01*
X46322Y27352D02*
X46422Y27352D01*
X46877Y28347D02*
X46777Y28347D01*
X46877Y28347D02*
X46877Y28247D01*
X46422Y28347D02*
X46322Y28347D01*
X46322Y28347D02*
X46322Y28247D01*
X29177Y38097D02*
X29177Y38197D01*
X29177Y38652D02*
X29277Y38652D01*
X29177Y38097D02*
X29277Y38097D01*
X29177Y38652D02*
X29177Y38552D01*
X30172Y38097D02*
X30172Y38197D01*
X30172Y38097D02*
X30072Y38097D01*
X30172Y38552D02*
X30172Y38652D01*
X30172Y38652D02*
X30072Y38652D01*
X29177Y38797D02*
X29177Y38897D01*
X29177Y39352D02*
X29277Y39352D01*
X29177Y38797D02*
X29277Y38797D01*
X29177Y39352D02*
X29177Y39252D01*
X30172Y38797D02*
X30172Y38897D01*
X30172Y38797D02*
X30072Y38797D01*
X30172Y39252D02*
X30172Y39352D01*
X30172Y39352D02*
X30072Y39352D01*
X29202Y36272D02*
X29202Y36372D01*
X29202Y36827D02*
X29302Y36827D01*
X29202Y36272D02*
X29302Y36272D01*
X29202Y36827D02*
X29202Y36727D01*
X30197Y36272D02*
X30197Y36372D01*
X30197Y36272D02*
X30097Y36272D01*
X30197Y36727D02*
X30197Y36827D01*
X30197Y36827D02*
X30097Y36827D01*
X22297Y38027D02*
X22297Y37927D01*
X22297Y37472D02*
X22197Y37472D01*
X22297Y38027D02*
X22197Y38027D01*
X22297Y37472D02*
X22297Y37572D01*
X21302Y38027D02*
X21302Y37927D01*
X21302Y38027D02*
X21402Y38027D01*
X21302Y37572D02*
X21302Y37472D01*
X21302Y37472D02*
X21402Y37472D01*
X46502Y33372D02*
X46502Y33472D01*
X46502Y33927D02*
X46602Y33927D01*
X46502Y33372D02*
X46602Y33372D01*
X46502Y33927D02*
X46502Y33827D01*
X47497Y33372D02*
X47497Y33472D01*
X47497Y33372D02*
X47397Y33372D01*
X47497Y33827D02*
X47497Y33927D01*
X47497Y33927D02*
X47397Y33927D01*
X26797Y38177D02*
X26797Y38077D01*
X26797Y37622D02*
X26697Y37622D01*
X26797Y38177D02*
X26697Y38177D01*
X26797Y37622D02*
X26797Y37722D01*
X25802Y38177D02*
X25802Y38077D01*
X25802Y38177D02*
X25902Y38177D01*
X25802Y37722D02*
X25802Y37622D01*
X25802Y37622D02*
X25902Y37622D01*
X27427Y36752D02*
X27327Y36752D01*
X26872Y36752D02*
X26872Y36852D01*
X27427Y36752D02*
X27427Y36852D01*
X26872Y36752D02*
X26972Y36752D01*
X27427Y37747D02*
X27327Y37747D01*
X27427Y37747D02*
X27427Y37647D01*
X26972Y37747D02*
X26872Y37747D01*
X26872Y37747D02*
X26872Y37647D01*
X23477Y34902D02*
X23377Y34902D01*
X22922Y34902D02*
X22922Y35002D01*
X23477Y34902D02*
X23477Y35002D01*
X22922Y34902D02*
X23022Y34902D01*
X23477Y35897D02*
X23377Y35897D01*
X23477Y35897D02*
X23477Y35797D01*
X23022Y35897D02*
X22922Y35897D01*
X22922Y35897D02*
X22922Y35797D01*
X26797Y36827D02*
X26797Y36727D01*
X26797Y36272D02*
X26697Y36272D01*
X26797Y36827D02*
X26697Y36827D01*
X26797Y36272D02*
X26797Y36372D01*
X25802Y36827D02*
X25802Y36727D01*
X25802Y36827D02*
X25902Y36827D01*
X25802Y36372D02*
X25802Y36272D01*
X25802Y36272D02*
X25902Y36272D01*
X26797Y37527D02*
X26797Y37427D01*
X26797Y36972D02*
X26697Y36972D01*
X26797Y37527D02*
X26697Y37527D01*
X26797Y36972D02*
X26797Y37072D01*
X25802Y37527D02*
X25802Y37427D01*
X25802Y37527D02*
X25902Y37527D01*
X25802Y37072D02*
X25802Y36972D01*
X25802Y36972D02*
X25902Y36972D01*
X23102Y34222D02*
X23102Y34322D01*
X23102Y34777D02*
X23202Y34777D01*
X23102Y34222D02*
X23202Y34222D01*
X23102Y34777D02*
X23102Y34677D01*
X24097Y34222D02*
X24097Y34322D01*
X24097Y34222D02*
X23997Y34222D01*
X24097Y34677D02*
X24097Y34777D01*
X24097Y34777D02*
X23997Y34777D01*
X23102Y33572D02*
X23102Y33672D01*
X23102Y34127D02*
X23202Y34127D01*
X23102Y33572D02*
X23202Y33572D01*
X23102Y34127D02*
X23102Y34027D01*
X24097Y33572D02*
X24097Y33672D01*
X24097Y33572D02*
X23997Y33572D01*
X24097Y34027D02*
X24097Y34127D01*
X24097Y34127D02*
X23997Y34127D01*
X22402Y37472D02*
X22402Y37572D01*
X22402Y38027D02*
X22502Y38027D01*
X22402Y37472D02*
X22502Y37472D01*
X22402Y38027D02*
X22402Y37927D01*
X23397Y37472D02*
X23397Y37572D01*
X23397Y37472D02*
X23297Y37472D01*
X23397Y37927D02*
X23397Y38027D01*
X23397Y38027D02*
X23297Y38027D01*
X29527Y35152D02*
X29427Y35152D01*
X28972Y35152D02*
X28972Y35252D01*
X29527Y35152D02*
X29527Y35252D01*
X28972Y35152D02*
X29072Y35152D01*
X29527Y36147D02*
X29427Y36147D01*
X29527Y36147D02*
X29527Y36047D01*
X29072Y36147D02*
X28972Y36147D01*
X28972Y36147D02*
X28972Y36047D01*
X22997Y33477D02*
X22997Y33377D01*
X22997Y32922D02*
X22897Y32922D01*
X22997Y33477D02*
X22897Y33477D01*
X22997Y32922D02*
X22997Y33022D01*
X22002Y33477D02*
X22002Y33377D01*
X22002Y33477D02*
X22102Y33477D01*
X22002Y33022D02*
X22002Y32922D01*
X22002Y32922D02*
X22102Y32922D01*
X26997Y33927D02*
X26997Y33827D01*
X26997Y33372D02*
X26897Y33372D01*
X26997Y33927D02*
X26897Y33927D01*
X26997Y33372D02*
X26997Y33472D01*
X26002Y33927D02*
X26002Y33827D01*
X26002Y33927D02*
X26102Y33927D01*
X26002Y33472D02*
X26002Y33372D01*
X26002Y33372D02*
X26102Y33372D01*
X26997Y33277D02*
X26997Y33177D01*
X26997Y32722D02*
X26897Y32722D01*
X26997Y33277D02*
X26897Y33277D01*
X26997Y32722D02*
X26997Y32822D01*
X26002Y33277D02*
X26002Y33177D01*
X26002Y33277D02*
X26102Y33277D01*
X26002Y32822D02*
X26002Y32722D01*
X26002Y32722D02*
X26102Y32722D01*
X23102Y32922D02*
X23102Y33022D01*
X23102Y33477D02*
X23202Y33477D01*
X23102Y32922D02*
X23202Y32922D01*
X23102Y33477D02*
X23102Y33377D01*
X24097Y32922D02*
X24097Y33022D01*
X24097Y32922D02*
X23997Y32922D01*
X24097Y33377D02*
X24097Y33477D01*
X24097Y33477D02*
X23997Y33477D01*
X15352Y37222D02*
X15352Y37322D01*
X15352Y37777D02*
X15452Y37777D01*
X15352Y37222D02*
X15452Y37222D01*
X15352Y37777D02*
X15352Y37677D01*
X16347Y37222D02*
X16347Y37322D01*
X16347Y37222D02*
X16247Y37222D01*
X16347Y37677D02*
X16347Y37777D01*
X16347Y37777D02*
X16247Y37777D01*
X27022Y36647D02*
X27122Y36647D01*
X27577Y36647D02*
X27577Y36547D01*
X27022Y36647D02*
X27022Y36547D01*
X27577Y36647D02*
X27477Y36647D01*
X27022Y35652D02*
X27122Y35652D01*
X27022Y35652D02*
X27022Y35752D01*
X27477Y35652D02*
X27577Y35652D01*
X27577Y35652D02*
X27577Y35752D01*
X3390Y36777D02*
X3490Y36777D01*
X3390Y36777D02*
X3390Y36677D01*
X3490Y36777D02*
X3390Y36677D01*
X3110Y35923D02*
X3010Y35923D01*
X3110Y35923D02*
X3110Y36023D01*
X3010Y35923D02*
X3110Y36023D01*
X10210Y22323D02*
X10110Y22323D01*
X10210Y22323D02*
X10210Y22423D01*
X10110Y22323D02*
X10210Y22423D01*
X7490Y24977D02*
X7590Y24977D01*
X7490Y24977D02*
X7490Y24877D01*
X7590Y24977D02*
X7490Y24877D01*
X7490Y28577D02*
X7590Y28577D01*
X7490Y28577D02*
X7490Y28477D01*
X7590Y28577D02*
X7490Y28477D01*
X10210Y25923D02*
X10110Y25923D01*
X10210Y25923D02*
X10210Y26023D01*
X10110Y25923D02*
X10210Y26023D01*
X3390Y34977D02*
X3490Y34977D01*
X3390Y34977D02*
X3390Y34877D01*
X3490Y34977D02*
X3390Y34877D01*
X3110Y32323D02*
X3010Y32323D01*
X3110Y32323D02*
X3110Y32423D01*
X3010Y32323D02*
X3110Y32423D01*
X6340Y38577D02*
X6440Y38577D01*
X6340Y38577D02*
X6340Y38477D01*
X6440Y38577D02*
X6340Y38477D01*
X6340Y34977D02*
X6440Y34977D01*
X6340Y34977D02*
X6340Y34877D01*
X6440Y34977D02*
X6340Y34877D01*
X9060Y35923D02*
X8960Y35923D01*
X9060Y35923D02*
X9060Y36023D01*
X8960Y35923D02*
X9060Y36023D01*
X7490Y23177D02*
X7590Y23177D01*
X7490Y23177D02*
X7490Y23077D01*
X7590Y23177D02*
X7490Y23077D01*
X3390Y33177D02*
X3490Y33177D01*
X3390Y33177D02*
X3390Y33077D01*
X3490Y33177D02*
X3390Y33077D01*
X7490Y26777D02*
X7590Y26777D01*
X7490Y26777D02*
X7490Y26677D01*
X7590Y26777D02*
X7490Y26677D01*
X6340Y36777D02*
X6440Y36777D01*
X6340Y36777D02*
X6340Y36677D01*
X6440Y36777D02*
X6340Y36677D01*
X6340Y33177D02*
X6440Y33177D01*
X6340Y33177D02*
X6340Y33077D01*
X6440Y33177D02*
X6340Y33077D01*
X3390Y38577D02*
X3490Y38577D01*
X3390Y38577D02*
X3390Y38477D01*
X3490Y38577D02*
X3390Y38477D01*
X9060Y32323D02*
X8960Y32323D01*
X9060Y32323D02*
X9060Y32423D01*
X8960Y32323D02*
X9060Y32423D01*
X31450Y30900D02*
X31450Y31900D01*
X31450Y31900D02*
X33450Y31900D01*
X33450Y31900D02*
X33450Y30900D01*
X33450Y30900D02*
X31450Y30900D01*
X29950Y30900D02*
X29950Y33900D01*
X29950Y33900D02*
X30950Y33900D01*
X30950Y30900D02*
X30950Y33900D01*
X29950Y30900D02*
X30950Y30900D01*
G54D13*
X32175Y32738D02*
G75*
G03X32175Y32738I-62J0D01*
G74*
G01*
X31150Y32400D02*
X31150Y32800D01*
X32175Y32400D02*
X32175Y32800D01*
X31150Y32800D02*
X32175Y32800D01*
X32175Y32400D02*
X31150Y32400D01*
G54D10*
X48910Y34649D02*
X48910Y34749D01*
X48910Y34649D02*
X48810Y34649D01*
X25397Y38300D02*
X25397Y38200D01*
X25397Y38300D02*
X25297Y38300D01*
X42900Y28300D02*
X42900Y29300D01*
X42900Y29300D02*
X44900Y29300D01*
X44900Y29300D02*
X44900Y28300D01*
X44900Y28300D02*
X42900Y28300D01*
X42900Y27300D02*
X42900Y28300D01*
X42900Y28300D02*
X44900Y28300D01*
X44900Y28300D02*
X44900Y27300D01*
X44900Y27300D02*
X42900Y27300D01*
X42900Y26300D02*
X42900Y27300D01*
X42900Y27300D02*
X44900Y27300D01*
X44900Y27300D02*
X44900Y26300D01*
X44900Y26300D02*
X42900Y26300D01*
X14550Y20500D02*
X14550Y21500D01*
X14550Y21500D02*
X16550Y21500D01*
X16550Y21500D02*
X16550Y20500D01*
X16550Y20500D02*
X14550Y20500D01*
X14550Y28500D02*
X14550Y29500D01*
X14550Y29500D02*
X16550Y29500D01*
X16550Y29500D02*
X16550Y28500D01*
X16550Y28500D02*
X14550Y28500D01*
X42830Y36300D02*
X42830Y37300D01*
X42830Y37300D02*
X44970Y37300D01*
X44970Y37300D02*
X44970Y36300D01*
X44970Y36300D02*
X42830Y36300D01*
X42830Y37300D02*
X42830Y38300D01*
X42830Y38300D02*
X44970Y38300D01*
X44970Y38300D02*
X44970Y37300D01*
X44970Y37300D02*
X42830Y37300D01*
X42830Y38300D02*
X42830Y39300D01*
X42830Y39300D02*
X44970Y39300D01*
X44970Y39300D02*
X44970Y38300D01*
X44970Y38300D02*
X42830Y38300D01*
X14480Y30500D02*
X14480Y31500D01*
X14480Y31500D02*
X16620Y31500D01*
X16620Y31500D02*
X16620Y30500D01*
X16620Y30500D02*
X14480Y30500D01*
X14480Y38500D02*
X14480Y39500D01*
X14480Y39500D02*
X16620Y39500D01*
X16620Y39500D02*
X16620Y38500D01*
X16620Y38500D02*
X14480Y38500D01*
X49328Y32300D02*
X49398Y32371D01*
X49398Y32371D02*
X49328Y32442D01*
X21092Y38411D02*
X20992Y38411D01*
X21092Y38411D02*
X21092Y38511D01*
X19748Y38203D02*
X19648Y38203D01*
X19648Y38203D02*
X19648Y38103D01*
X21319Y35745D02*
X21219Y35745D01*
X21319Y35745D02*
X21319Y35845D01*
X17442Y35247D02*
X17442Y35147D01*
X17442Y35247D02*
X17342Y35247D01*
X40375Y34604D02*
X40275Y34604D01*
X40375Y34604D02*
X40375Y34704D01*
X41147Y34199D02*
X41147Y34299D01*
X41147Y34199D02*
X41247Y34199D01*
X17855Y34190D02*
X17755Y34190D01*
X17855Y34190D02*
X17855Y34090D01*
X17445Y34190D02*
X17445Y34090D01*
X17445Y34190D02*
X17545Y34190D01*
X17445Y33510D02*
X17545Y33510D01*
X17445Y33510D02*
X17445Y33610D01*
X17855Y33510D02*
X17755Y33510D01*
X17855Y33510D02*
X17855Y33610D01*
X22595Y33610D02*
X22695Y33610D01*
X22595Y33610D02*
X22595Y33710D01*
X23005Y33610D02*
X23005Y33710D01*
X23005Y33610D02*
X22905Y33610D01*
X23005Y34290D02*
X22905Y34290D01*
X23005Y34290D02*
X23005Y34190D01*
X22595Y34290D02*
X22695Y34290D01*
X22595Y34290D02*
X22595Y34190D01*
X21405Y37406D02*
X21505Y37406D01*
X22295Y37406D02*
X22195Y37406D01*
X21405Y37406D02*
X21405Y37306D01*
X22295Y37306D02*
X22295Y37406D01*
X21405Y35844D02*
X21505Y35844D01*
X22295Y35844D02*
X22295Y35944D01*
X22295Y35844D02*
X22195Y35844D01*
X21405Y35844D02*
X21405Y35944D01*
X28828Y36356D02*
X27844Y36356D01*
X27844Y36356D02*
X27844Y37143D01*
X27844Y37143D02*
X28828Y37143D01*
X28828Y37143D02*
X28828Y36356D01*
X26707Y35875D02*
X26707Y34103D01*
X26707Y34103D02*
X25092Y34103D01*
X25092Y34103D02*
X25092Y35875D01*
X25092Y35875D02*
X26707Y35875D01*
X22192Y30874D02*
X22192Y32646D01*
X22192Y32646D02*
X23807Y32646D01*
X23807Y32646D02*
X23807Y30874D01*
X23807Y30874D02*
X22192Y30874D01*
X19294Y31955D02*
X19294Y32255D01*
X19294Y32845D02*
X19294Y32745D01*
X19294Y31955D02*
X19594Y31955D01*
X19394Y32845D02*
X19294Y32845D01*
X20856Y31955D02*
X20856Y32055D01*
X20856Y32845D02*
X20756Y32845D01*
X20856Y32845D02*
X20856Y32745D01*
X20856Y31955D02*
X20756Y31955D01*
X28495Y37894D02*
X28195Y37894D01*
X27605Y37894D02*
X27705Y37894D01*
X28495Y37894D02*
X28495Y38194D01*
X27605Y37994D02*
X27605Y37894D01*
X28495Y39456D02*
X28395Y39456D01*
X27605Y39456D02*
X27605Y39356D01*
X27605Y39456D02*
X27705Y39456D01*
X28495Y39456D02*
X28495Y39356D01*
X28944Y34155D02*
X28944Y34455D01*
X28944Y35045D02*
X28944Y34945D01*
X28944Y34155D02*
X29244Y34155D01*
X29044Y35045D02*
X28944Y35045D01*
X30506Y34155D02*
X30506Y34255D01*
X30506Y35045D02*
X30406Y35045D01*
X30506Y35045D02*
X30506Y34945D01*
X30506Y34155D02*
X30406Y34155D01*
X45550Y35525D02*
X45750Y35525D01*
X32600Y35525D02*
X32800Y35525D01*
X20050Y35525D02*
X20250Y35525D01*
G54D14*
X23075Y38625D02*
X22600Y38125D01*
X23075Y38125D02*
X23075Y39375D01*
X23075Y39375D02*
X21825Y39375D01*
X21825Y39375D02*
X21825Y38125D01*
X21825Y38125D02*
X23075Y38125D01*
G54D13*
X20325Y33888D02*
G75*
G03X20325Y33888I-62J0D01*
G74*
G01*
X19300Y33550D02*
X19300Y33950D01*
X20325Y33550D02*
X20325Y33950D01*
X19300Y33950D02*
X20325Y33950D01*
X20325Y33550D02*
X19300Y33550D01*
X31550Y34537D02*
G75*
G03X31550Y34537I-62J0D01*
G74*
G01*
X31150Y35500D02*
X31550Y35500D01*
X31150Y34475D02*
X31550Y34475D01*
X31550Y35500D02*
X31550Y34475D01*
X31150Y34475D02*
X31150Y35500D01*
X39800Y31787D02*
G75*
G03X39800Y31787I-62J0D01*
G74*
G01*
X39400Y32750D02*
X39800Y32750D01*
X39400Y31725D02*
X39800Y31725D01*
X39800Y32750D02*
X39800Y31725D01*
X39400Y31725D02*
X39400Y32750D01*
X40850Y30787D02*
G75*
G03X40850Y30787I-62J0D01*
G74*
G01*
X40450Y31750D02*
X40850Y31750D01*
X40450Y30725D02*
X40850Y30725D01*
X40850Y31750D02*
X40850Y30725D01*
X40450Y30725D02*
X40450Y31750D01*
X40800Y32737D02*
G75*
G03X40800Y32737I-62J0D01*
G74*
G01*
X40400Y33700D02*
X40800Y33700D01*
X40400Y32675D02*
X40800Y32675D01*
X40800Y33700D02*
X40800Y32675D01*
X40400Y32675D02*
X40400Y33700D01*
X45774Y36713D02*
G75*
G03X45774Y36713I-62J0D01*
G74*
G01*
X46050Y35750D02*
X45650Y35750D01*
X46050Y36775D02*
X45650Y36775D01*
X45650Y35750D02*
X45650Y36775D01*
X46050Y36775D02*
X46050Y35750D01*
G54D15*
X45450Y27250D02*
X45150Y27450D01*
X46150Y27250D02*
X45125Y27250D01*
X45125Y27250D02*
X45125Y27850D01*
X45125Y27850D02*
X46150Y27850D01*
X46150Y27850D02*
X46150Y27250D01*
X45700Y22200D02*
X45500Y21900D01*
X45700Y22900D02*
X45700Y21875D01*
X45700Y21875D02*
X45100Y21875D01*
X45100Y21875D02*
X45100Y22900D01*
X45100Y22900D02*
X45700Y22900D01*
X42150Y25300D02*
X42450Y25100D01*
X41450Y25300D02*
X42475Y25300D01*
X42475Y25300D02*
X42475Y24700D01*
X42475Y24700D02*
X41450Y24700D01*
X41450Y24700D02*
X41450Y25300D01*
G54D10*
X38462Y31037D02*
X33737Y31037D01*
X33737Y31037D02*
X33737Y35762D01*
X33737Y35762D02*
X38462Y35762D01*
X38462Y35762D02*
X38462Y31037D01*
G54D15*
X46100Y33050D02*
X42200Y33050D01*
X42200Y33050D02*
X42200Y31250D01*
X42200Y31250D02*
X46100Y31250D01*
X46100Y31250D02*
X46100Y33050D01*
X42661Y31550D02*
G75*
G03X42661Y31550I-111J0D01*
G74*
G01*
G54D10*
X51218Y33523D02*
X51454Y33267D01*
X51454Y33267D02*
X51454Y36732D01*
X51454Y36732D02*
X51218Y36476D01*
X51218Y33523D02*
X51218Y36476D01*
X51218Y36476D02*
X49250Y36476D01*
X49250Y36476D02*
X49250Y33523D01*
X49250Y33523D02*
X51218Y33523D01*
X51218Y13523D02*
X51454Y13267D01*
X51454Y13267D02*
X51454Y16732D01*
X51454Y16732D02*
X51218Y16476D01*
X51218Y13523D02*
X51218Y16476D01*
X51218Y16476D02*
X49250Y16476D01*
X49250Y16476D02*
X49250Y13523D01*
X49250Y13523D02*
X51218Y13523D01*
G54D15*
X46100Y13050D02*
X42200Y13050D01*
X42200Y13050D02*
X42200Y11250D01*
X42200Y11250D02*
X46100Y11250D01*
X46100Y11250D02*
X46100Y13050D01*
X42661Y11550D02*
G75*
G03X42661Y11550I-111J0D01*
G74*
G01*
G54D10*
X38462Y11037D02*
X33737Y11037D01*
X33737Y11037D02*
X33737Y15762D01*
X33737Y15762D02*
X38462Y15762D01*
X38462Y15762D02*
X38462Y11037D01*
G54D15*
X42150Y5300D02*
X42450Y5100D01*
X41450Y5300D02*
X42475Y5300D01*
X42475Y5300D02*
X42475Y4700D01*
X42475Y4700D02*
X41450Y4700D01*
X41450Y4700D02*
X41450Y5300D01*
X45700Y2200D02*
X45500Y1900D01*
X45700Y2900D02*
X45700Y1875D01*
X45700Y1875D02*
X45100Y1875D01*
X45100Y1875D02*
X45100Y2900D01*
X45100Y2900D02*
X45700Y2900D01*
X45450Y7250D02*
X45150Y7450D01*
X46150Y7250D02*
X45125Y7250D01*
X45125Y7250D02*
X45125Y7850D01*
X45125Y7850D02*
X46150Y7850D01*
X46150Y7850D02*
X46150Y7250D01*
G54D13*
X45774Y16713D02*
G75*
G03X45774Y16713I-62J0D01*
G74*
G01*
X46050Y15750D02*
X45650Y15750D01*
X46050Y16775D02*
X45650Y16775D01*
X45650Y15750D02*
X45650Y16775D01*
X46050Y16775D02*
X46050Y15750D01*
X40800Y12737D02*
G75*
G03X40800Y12737I-62J0D01*
G74*
G01*
X40400Y13700D02*
X40800Y13700D01*
X40400Y12675D02*
X40800Y12675D01*
X40800Y13700D02*
X40800Y12675D01*
X40400Y12675D02*
X40400Y13700D01*
X40850Y10787D02*
G75*
G03X40850Y10787I-62J0D01*
G74*
G01*
X40450Y11750D02*
X40850Y11750D01*
X40450Y10725D02*
X40850Y10725D01*
X40850Y11750D02*
X40850Y10725D01*
X40450Y10725D02*
X40450Y11750D01*
X39800Y11787D02*
G75*
G03X39800Y11787I-62J0D01*
G74*
G01*
X39400Y12750D02*
X39800Y12750D01*
X39400Y11725D02*
X39800Y11725D01*
X39800Y12750D02*
X39800Y11725D01*
X39400Y11725D02*
X39400Y12750D01*
X31550Y14537D02*
G75*
G03X31550Y14537I-62J0D01*
G74*
G01*
X31150Y15500D02*
X31550Y15500D01*
X31150Y14475D02*
X31550Y14475D01*
X31550Y15500D02*
X31550Y14475D01*
X31150Y14475D02*
X31150Y15500D01*
X20325Y13888D02*
G75*
G03X20325Y13888I-62J0D01*
G74*
G01*
X19300Y13550D02*
X19300Y13950D01*
X20325Y13550D02*
X20325Y13950D01*
X19300Y13950D02*
X20325Y13950D01*
X20325Y13550D02*
X19300Y13550D01*
G54D14*
X23075Y18625D02*
X22600Y18125D01*
X23075Y18125D02*
X23075Y19375D01*
X23075Y19375D02*
X21825Y19375D01*
X21825Y19375D02*
X21825Y18125D01*
X21825Y18125D02*
X23075Y18125D01*
G54D10*
X20050Y15525D02*
X20250Y15525D01*
X32600Y15525D02*
X32800Y15525D01*
X45550Y15525D02*
X45750Y15525D01*
X28944Y14155D02*
X28944Y14455D01*
X28944Y15045D02*
X28944Y14945D01*
X28944Y14155D02*
X29244Y14155D01*
X29044Y15045D02*
X28944Y15045D01*
X30506Y14155D02*
X30506Y14255D01*
X30506Y15045D02*
X30406Y15045D01*
X30506Y15045D02*
X30506Y14945D01*
X30506Y14155D02*
X30406Y14155D01*
X28495Y17894D02*
X28195Y17894D01*
X27605Y17894D02*
X27705Y17894D01*
X28495Y17894D02*
X28495Y18194D01*
X27605Y17994D02*
X27605Y17894D01*
X28495Y19456D02*
X28395Y19456D01*
X27605Y19456D02*
X27605Y19356D01*
X27605Y19456D02*
X27705Y19456D01*
X28495Y19456D02*
X28495Y19356D01*
X19294Y11955D02*
X19294Y12255D01*
X19294Y12845D02*
X19294Y12745D01*
X19294Y11955D02*
X19594Y11955D01*
X19394Y12845D02*
X19294Y12845D01*
X20856Y11955D02*
X20856Y12055D01*
X20856Y12845D02*
X20756Y12845D01*
X20856Y12845D02*
X20856Y12745D01*
X20856Y11955D02*
X20756Y11955D01*
X22192Y10874D02*
X22192Y12646D01*
X22192Y12646D02*
X23807Y12646D01*
X23807Y12646D02*
X23807Y10874D01*
X23807Y10874D02*
X22192Y10874D01*
X26707Y15875D02*
X26707Y14103D01*
X26707Y14103D02*
X25092Y14103D01*
X25092Y14103D02*
X25092Y15875D01*
X25092Y15875D02*
X26707Y15875D01*
X28828Y16356D02*
X27844Y16356D01*
X27844Y16356D02*
X27844Y17143D01*
X27844Y17143D02*
X28828Y17143D01*
X28828Y17143D02*
X28828Y16356D01*
X21405Y17406D02*
X21505Y17406D01*
X22295Y17406D02*
X22195Y17406D01*
X21405Y17406D02*
X21405Y17306D01*
X22295Y17306D02*
X22295Y17406D01*
X21405Y15844D02*
X21505Y15844D01*
X22295Y15844D02*
X22295Y15944D01*
X22295Y15844D02*
X22195Y15844D01*
X21405Y15844D02*
X21405Y15944D01*
X32800Y16700D02*
X32300Y16450D01*
X32300Y16450D02*
X31800Y16700D01*
X31800Y16700D02*
X32300Y16950D01*
X32300Y16950D02*
X32800Y16700D01*
X30300Y20200D02*
X40300Y20200D01*
X40300Y20200D02*
X40300Y16700D01*
X40300Y16700D02*
X30300Y16700D01*
X30300Y16700D02*
X30300Y20200D01*
X22595Y13610D02*
X22695Y13610D01*
X22595Y13610D02*
X22595Y13710D01*
X23005Y13610D02*
X23005Y13710D01*
X23005Y13610D02*
X22905Y13610D01*
X23005Y14290D02*
X22905Y14290D01*
X23005Y14290D02*
X23005Y14190D01*
X22595Y14290D02*
X22695Y14290D01*
X22595Y14290D02*
X22595Y14190D01*
X17855Y14190D02*
X17755Y14190D01*
X17855Y14190D02*
X17855Y14090D01*
X17445Y14190D02*
X17445Y14090D01*
X17445Y14190D02*
X17545Y14190D01*
X17445Y13510D02*
X17545Y13510D01*
X17445Y13510D02*
X17445Y13610D01*
X17855Y13510D02*
X17755Y13510D01*
X17855Y13510D02*
X17855Y13610D01*
X41147Y14199D02*
X41147Y14299D01*
X41147Y14199D02*
X41247Y14199D01*
X40375Y14604D02*
X40275Y14604D01*
X40375Y14604D02*
X40375Y14704D01*
X17442Y15247D02*
X17442Y15147D01*
X17442Y15247D02*
X17342Y15247D01*
X21319Y15745D02*
X21219Y15745D01*
X21319Y15745D02*
X21319Y15845D01*
X19748Y18203D02*
X19648Y18203D01*
X19648Y18203D02*
X19648Y18103D01*
X21092Y18411D02*
X20992Y18411D01*
X21092Y18411D02*
X21092Y18511D01*
X49328Y12300D02*
X49398Y12371D01*
X49398Y12371D02*
X49328Y12442D01*
X14480Y18500D02*
X14480Y19500D01*
X14480Y19500D02*
X16620Y19500D01*
X16620Y19500D02*
X16620Y18500D01*
X16620Y18500D02*
X14480Y18500D01*
X14480Y10500D02*
X14480Y11500D01*
X14480Y11500D02*
X16620Y11500D01*
X16620Y11500D02*
X16620Y10500D01*
X16620Y10500D02*
X14480Y10500D01*
X42830Y18300D02*
X42830Y19300D01*
X42830Y19300D02*
X44970Y19300D01*
X44970Y19300D02*
X44970Y18300D01*
X44970Y18300D02*
X42830Y18300D01*
X42830Y17300D02*
X42830Y18300D01*
X42830Y18300D02*
X44970Y18300D01*
X44970Y18300D02*
X44970Y17300D01*
X44970Y17300D02*
X42830Y17300D01*
X42830Y16300D02*
X42830Y17300D01*
X42830Y17300D02*
X44970Y17300D01*
X44970Y17300D02*
X44970Y16300D01*
X44970Y16300D02*
X42830Y16300D01*
X14550Y8500D02*
X14550Y9500D01*
X14550Y9500D02*
X16550Y9500D01*
X16550Y9500D02*
X16550Y8500D01*
X16550Y8500D02*
X14550Y8500D01*
X14550Y500D02*
X14550Y1500D01*
X14550Y1500D02*
X16550Y1500D01*
X16550Y1500D02*
X16550Y500D01*
X16550Y500D02*
X14550Y500D01*
X42900Y6300D02*
X42900Y7300D01*
X42900Y7300D02*
X44900Y7300D01*
X44900Y7300D02*
X44900Y6300D01*
X44900Y6300D02*
X42900Y6300D01*
X42900Y7300D02*
X42900Y8300D01*
X42900Y8300D02*
X44900Y8300D01*
X44900Y8300D02*
X44900Y7300D01*
X44900Y7300D02*
X42900Y7300D01*
X42900Y8300D02*
X42900Y9300D01*
X42900Y9300D02*
X44900Y9300D01*
X44900Y9300D02*
X44900Y8300D01*
X44900Y8300D02*
X42900Y8300D01*
X25397Y18300D02*
X25397Y18200D01*
X25397Y18300D02*
X25297Y18300D01*
X48910Y14649D02*
X48910Y14749D01*
X48910Y14649D02*
X48810Y14649D01*
G54D13*
X32175Y12738D02*
G75*
G03X32175Y12738I-62J0D01*
G74*
G01*
X31150Y12400D02*
X31150Y12800D01*
X32175Y12400D02*
X32175Y12800D01*
X31150Y12800D02*
X32175Y12800D01*
X32175Y12400D02*
X31150Y12400D01*
G54D10*
X29950Y10900D02*
X29950Y13900D01*
X29950Y13900D02*
X30950Y13900D01*
X30950Y10900D02*
X30950Y13900D01*
X29950Y10900D02*
X30950Y10900D01*
X31450Y10900D02*
X31450Y11900D01*
X31450Y11900D02*
X33450Y11900D01*
X33450Y11900D02*
X33450Y10900D01*
X33450Y10900D02*
X31450Y10900D01*
X9060Y12323D02*
X8960Y12323D01*
X9060Y12323D02*
X9060Y12423D01*
X8960Y12323D02*
X9060Y12423D01*
X3390Y18577D02*
X3490Y18577D01*
X3390Y18577D02*
X3390Y18477D01*
X3490Y18577D02*
X3390Y18477D01*
X6340Y13177D02*
X6440Y13177D01*
X6340Y13177D02*
X6340Y13077D01*
X6440Y13177D02*
X6340Y13077D01*
X6340Y16777D02*
X6440Y16777D01*
X6340Y16777D02*
X6340Y16677D01*
X6440Y16777D02*
X6340Y16677D01*
X7490Y6777D02*
X7590Y6777D01*
X7490Y6777D02*
X7490Y6677D01*
X7590Y6777D02*
X7490Y6677D01*
X3390Y13177D02*
X3490Y13177D01*
X3390Y13177D02*
X3390Y13077D01*
X3490Y13177D02*
X3390Y13077D01*
X7490Y3177D02*
X7590Y3177D01*
X7490Y3177D02*
X7490Y3077D01*
X7590Y3177D02*
X7490Y3077D01*
X9060Y15923D02*
X8960Y15923D01*
X9060Y15923D02*
X9060Y16023D01*
X8960Y15923D02*
X9060Y16023D01*
X6340Y14977D02*
X6440Y14977D01*
X6340Y14977D02*
X6340Y14877D01*
X6440Y14977D02*
X6340Y14877D01*
X6340Y18577D02*
X6440Y18577D01*
X6340Y18577D02*
X6340Y18477D01*
X6440Y18577D02*
X6340Y18477D01*
X3110Y12323D02*
X3010Y12323D01*
X3110Y12323D02*
X3110Y12423D01*
X3010Y12323D02*
X3110Y12423D01*
X3390Y14977D02*
X3490Y14977D01*
X3390Y14977D02*
X3390Y14877D01*
X3490Y14977D02*
X3390Y14877D01*
X10210Y5923D02*
X10110Y5923D01*
X10210Y5923D02*
X10210Y6023D01*
X10110Y5923D02*
X10210Y6023D01*
X7490Y8577D02*
X7590Y8577D01*
X7490Y8577D02*
X7490Y8477D01*
X7590Y8577D02*
X7490Y8477D01*
X7490Y4977D02*
X7590Y4977D01*
X7490Y4977D02*
X7490Y4877D01*
X7590Y4977D02*
X7490Y4877D01*
X10210Y2323D02*
X10110Y2323D01*
X10210Y2323D02*
X10210Y2423D01*
X10110Y2323D02*
X10210Y2423D01*
X3110Y15923D02*
X3010Y15923D01*
X3110Y15923D02*
X3110Y16023D01*
X3010Y15923D02*
X3110Y16023D01*
X3390Y16777D02*
X3490Y16777D01*
X3390Y16777D02*
X3390Y16677D01*
X3490Y16777D02*
X3390Y16677D01*
X27022Y16647D02*
X27122Y16647D01*
X27577Y16647D02*
X27577Y16547D01*
X27022Y16647D02*
X27022Y16547D01*
X27577Y16647D02*
X27477Y16647D01*
X27022Y15652D02*
X27122Y15652D01*
X27022Y15652D02*
X27022Y15752D01*
X27477Y15652D02*
X27577Y15652D01*
X27577Y15652D02*
X27577Y15752D01*
X15352Y17222D02*
X15352Y17322D01*
X15352Y17777D02*
X15452Y17777D01*
X15352Y17222D02*
X15452Y17222D01*
X15352Y17777D02*
X15352Y17677D01*
X16347Y17222D02*
X16347Y17322D01*
X16347Y17222D02*
X16247Y17222D01*
X16347Y17677D02*
X16347Y17777D01*
X16347Y17777D02*
X16247Y17777D01*
X23102Y12922D02*
X23102Y13022D01*
X23102Y13477D02*
X23202Y13477D01*
X23102Y12922D02*
X23202Y12922D01*
X23102Y13477D02*
X23102Y13377D01*
X24097Y12922D02*
X24097Y13022D01*
X24097Y12922D02*
X23997Y12922D01*
X24097Y13377D02*
X24097Y13477D01*
X24097Y13477D02*
X23997Y13477D01*
X26997Y13277D02*
X26997Y13177D01*
X26997Y12722D02*
X26897Y12722D01*
X26997Y13277D02*
X26897Y13277D01*
X26997Y12722D02*
X26997Y12822D01*
X26002Y13277D02*
X26002Y13177D01*
X26002Y13277D02*
X26102Y13277D01*
X26002Y12822D02*
X26002Y12722D01*
X26002Y12722D02*
X26102Y12722D01*
X26997Y13927D02*
X26997Y13827D01*
X26997Y13372D02*
X26897Y13372D01*
X26997Y13927D02*
X26897Y13927D01*
X26997Y13372D02*
X26997Y13472D01*
X26002Y13927D02*
X26002Y13827D01*
X26002Y13927D02*
X26102Y13927D01*
X26002Y13472D02*
X26002Y13372D01*
X26002Y13372D02*
X26102Y13372D01*
X22997Y13477D02*
X22997Y13377D01*
X22997Y12922D02*
X22897Y12922D01*
X22997Y13477D02*
X22897Y13477D01*
X22997Y12922D02*
X22997Y13022D01*
X22002Y13477D02*
X22002Y13377D01*
X22002Y13477D02*
X22102Y13477D01*
X22002Y13022D02*
X22002Y12922D01*
X22002Y12922D02*
X22102Y12922D01*
X29527Y15152D02*
X29427Y15152D01*
X28972Y15152D02*
X28972Y15252D01*
X29527Y15152D02*
X29527Y15252D01*
X28972Y15152D02*
X29072Y15152D01*
X29527Y16147D02*
X29427Y16147D01*
X29527Y16147D02*
X29527Y16047D01*
X29072Y16147D02*
X28972Y16147D01*
X28972Y16147D02*
X28972Y16047D01*
X22402Y17472D02*
X22402Y17572D01*
X22402Y18027D02*
X22502Y18027D01*
X22402Y17472D02*
X22502Y17472D01*
X22402Y18027D02*
X22402Y17927D01*
X23397Y17472D02*
X23397Y17572D01*
X23397Y17472D02*
X23297Y17472D01*
X23397Y17927D02*
X23397Y18027D01*
X23397Y18027D02*
X23297Y18027D01*
X23102Y13572D02*
X23102Y13672D01*
X23102Y14127D02*
X23202Y14127D01*
X23102Y13572D02*
X23202Y13572D01*
X23102Y14127D02*
X23102Y14027D01*
X24097Y13572D02*
X24097Y13672D01*
X24097Y13572D02*
X23997Y13572D01*
X24097Y14027D02*
X24097Y14127D01*
X24097Y14127D02*
X23997Y14127D01*
X23102Y14222D02*
X23102Y14322D01*
X23102Y14777D02*
X23202Y14777D01*
X23102Y14222D02*
X23202Y14222D01*
X23102Y14777D02*
X23102Y14677D01*
X24097Y14222D02*
X24097Y14322D01*
X24097Y14222D02*
X23997Y14222D01*
X24097Y14677D02*
X24097Y14777D01*
X24097Y14777D02*
X23997Y14777D01*
X26797Y17527D02*
X26797Y17427D01*
X26797Y16972D02*
X26697Y16972D01*
X26797Y17527D02*
X26697Y17527D01*
X26797Y16972D02*
X26797Y17072D01*
X25802Y17527D02*
X25802Y17427D01*
X25802Y17527D02*
X25902Y17527D01*
X25802Y17072D02*
X25802Y16972D01*
X25802Y16972D02*
X25902Y16972D01*
X26797Y16827D02*
X26797Y16727D01*
X26797Y16272D02*
X26697Y16272D01*
X26797Y16827D02*
X26697Y16827D01*
X26797Y16272D02*
X26797Y16372D01*
X25802Y16827D02*
X25802Y16727D01*
X25802Y16827D02*
X25902Y16827D01*
X25802Y16372D02*
X25802Y16272D01*
X25802Y16272D02*
X25902Y16272D01*
X23477Y14902D02*
X23377Y14902D01*
X22922Y14902D02*
X22922Y15002D01*
X23477Y14902D02*
X23477Y15002D01*
X22922Y14902D02*
X23022Y14902D01*
X23477Y15897D02*
X23377Y15897D01*
X23477Y15897D02*
X23477Y15797D01*
X23022Y15897D02*
X22922Y15897D01*
X22922Y15897D02*
X22922Y15797D01*
X27427Y16752D02*
X27327Y16752D01*
X26872Y16752D02*
X26872Y16852D01*
X27427Y16752D02*
X27427Y16852D01*
X26872Y16752D02*
X26972Y16752D01*
X27427Y17747D02*
X27327Y17747D01*
X27427Y17747D02*
X27427Y17647D01*
X26972Y17747D02*
X26872Y17747D01*
X26872Y17747D02*
X26872Y17647D01*
X26797Y18177D02*
X26797Y18077D01*
X26797Y17622D02*
X26697Y17622D01*
X26797Y18177D02*
X26697Y18177D01*
X26797Y17622D02*
X26797Y17722D01*
X25802Y18177D02*
X25802Y18077D01*
X25802Y18177D02*
X25902Y18177D01*
X25802Y17722D02*
X25802Y17622D01*
X25802Y17622D02*
X25902Y17622D01*
X46502Y13372D02*
X46502Y13472D01*
X46502Y13927D02*
X46602Y13927D01*
X46502Y13372D02*
X46602Y13372D01*
X46502Y13927D02*
X46502Y13827D01*
X47497Y13372D02*
X47497Y13472D01*
X47497Y13372D02*
X47397Y13372D01*
X47497Y13827D02*
X47497Y13927D01*
X47497Y13927D02*
X47397Y13927D01*
X22297Y18027D02*
X22297Y17927D01*
X22297Y17472D02*
X22197Y17472D01*
X22297Y18027D02*
X22197Y18027D01*
X22297Y17472D02*
X22297Y17572D01*
X21302Y18027D02*
X21302Y17927D01*
X21302Y18027D02*
X21402Y18027D01*
X21302Y17572D02*
X21302Y17472D01*
X21302Y17472D02*
X21402Y17472D01*
X29202Y16272D02*
X29202Y16372D01*
X29202Y16827D02*
X29302Y16827D01*
X29202Y16272D02*
X29302Y16272D01*
X29202Y16827D02*
X29202Y16727D01*
X30197Y16272D02*
X30197Y16372D01*
X30197Y16272D02*
X30097Y16272D01*
X30197Y16727D02*
X30197Y16827D01*
X30197Y16827D02*
X30097Y16827D01*
X29177Y18797D02*
X29177Y18897D01*
X29177Y19352D02*
X29277Y19352D01*
X29177Y18797D02*
X29277Y18797D01*
X29177Y19352D02*
X29177Y19252D01*
X30172Y18797D02*
X30172Y18897D01*
X30172Y18797D02*
X30072Y18797D01*
X30172Y19252D02*
X30172Y19352D01*
X30172Y19352D02*
X30072Y19352D01*
X29177Y18097D02*
X29177Y18197D01*
X29177Y18652D02*
X29277Y18652D01*
X29177Y18097D02*
X29277Y18097D01*
X29177Y18652D02*
X29177Y18552D01*
X30172Y18097D02*
X30172Y18197D01*
X30172Y18097D02*
X30072Y18097D01*
X30172Y18552D02*
X30172Y18652D01*
X30172Y18652D02*
X30072Y18652D01*
X46877Y7352D02*
X46777Y7352D01*
X46322Y7352D02*
X46322Y7452D01*
X46877Y7352D02*
X46877Y7452D01*
X46322Y7352D02*
X46422Y7352D01*
X46877Y8347D02*
X46777Y8347D01*
X46877Y8347D02*
X46877Y8247D01*
X46422Y8347D02*
X46322Y8347D01*
X46322Y8347D02*
X46322Y8247D01*
X41452Y5872D02*
X41452Y5972D01*
X41452Y6427D02*
X41552Y6427D01*
X41452Y5872D02*
X41552Y5872D01*
X41452Y6427D02*
X41452Y6327D01*
X42447Y5872D02*
X42447Y5972D01*
X42447Y5872D02*
X42347Y5872D01*
X42447Y6327D02*
X42447Y6427D01*
X42447Y6427D02*
X42347Y6427D01*
X45897Y3627D02*
X45897Y3527D01*
X45897Y3072D02*
X45797Y3072D01*
X45897Y3627D02*
X45797Y3627D01*
X45897Y3072D02*
X45897Y3172D01*
X44902Y3627D02*
X44902Y3527D01*
X44902Y3627D02*
X45002Y3627D01*
X44902Y3172D02*
X44902Y3072D01*
X44902Y3072D02*
X45002Y3072D01*
X43552Y2122D02*
X43552Y2222D01*
X43552Y2677D02*
X43652Y2677D01*
X43552Y2122D02*
X43652Y2122D01*
X43552Y2677D02*
X43552Y2577D01*
X44547Y2122D02*
X44547Y2222D01*
X44547Y2122D02*
X44447Y2122D01*
X44547Y2577D02*
X44547Y2677D01*
X44547Y2677D02*
X44447Y2677D01*
X46172Y1777D02*
X46172Y1677D01*
X46172Y1222D02*
X46072Y1222D01*
X46172Y1777D02*
X46072Y1777D01*
X46172Y1222D02*
X46172Y1322D01*
X45177Y1777D02*
X45177Y1677D01*
X45177Y1777D02*
X45277Y1777D01*
X45177Y1322D02*
X45177Y1222D01*
X45177Y1222D02*
X45277Y1222D01*
X42177Y3152D02*
X42077Y3152D01*
X41622Y3152D02*
X41622Y3252D01*
X42177Y3152D02*
X42177Y3252D01*
X41622Y3152D02*
X41722Y3152D01*
X42177Y4147D02*
X42077Y4147D01*
X42177Y4147D02*
X42177Y4047D01*
X41722Y4147D02*
X41622Y4147D01*
X41622Y4147D02*
X41622Y4047D01*
X45722Y9447D02*
X45822Y9447D01*
X46277Y9447D02*
X46277Y9347D01*
X45722Y9447D02*
X45722Y9347D01*
X46277Y9447D02*
X46177Y9447D01*
X45722Y8452D02*
X45822Y8452D01*
X45722Y8452D02*
X45722Y8552D01*
X46177Y8452D02*
X46277Y8452D01*
X46277Y8452D02*
X46277Y8552D01*
X38772Y15497D02*
X38872Y15497D01*
X39327Y15497D02*
X39327Y15397D01*
X38772Y15497D02*
X38772Y15397D01*
X39327Y15497D02*
X39227Y15497D01*
X38772Y14502D02*
X38872Y14502D01*
X38772Y14502D02*
X38772Y14602D01*
X39227Y14502D02*
X39327Y14502D01*
X39327Y14502D02*
X39327Y14602D01*
X41572Y12697D02*
X41672Y12697D01*
X42127Y12697D02*
X42127Y12597D01*
X41572Y12697D02*
X41572Y12597D01*
X42127Y12697D02*
X42027Y12697D01*
X41572Y11702D02*
X41672Y11702D01*
X41572Y11702D02*
X41572Y11802D01*
X42027Y11702D02*
X42127Y11702D01*
X42127Y11702D02*
X42127Y11802D01*
X40472Y15497D02*
X40572Y15497D01*
X41027Y15497D02*
X41027Y15397D01*
X40472Y15497D02*
X40472Y15397D01*
X41027Y15497D02*
X40927Y15497D01*
X40472Y14502D02*
X40572Y14502D01*
X40472Y14502D02*
X40472Y14602D01*
X40927Y14502D02*
X41027Y14502D01*
X41027Y14502D02*
X41027Y14602D01*
X46047Y6677D02*
X46047Y6577D01*
X46047Y6122D02*
X45947Y6122D01*
X46047Y6677D02*
X45947Y6677D01*
X46047Y6122D02*
X46047Y6222D01*
X45052Y6677D02*
X45052Y6577D01*
X45052Y6677D02*
X45152Y6677D01*
X45052Y6222D02*
X45052Y6122D01*
X45052Y6122D02*
X45152Y6122D01*
X40722Y16897D02*
X40822Y16897D01*
X41277Y16897D02*
X41277Y16797D01*
X40722Y16897D02*
X40722Y16797D01*
X41277Y16897D02*
X41177Y16897D01*
X40722Y15902D02*
X40822Y15902D01*
X40722Y15902D02*
X40722Y16002D01*
X41177Y15902D02*
X41277Y15902D01*
X41277Y15902D02*
X41277Y16002D01*
X42027Y13152D02*
X41927Y13152D01*
X41472Y13152D02*
X41472Y13252D01*
X42027Y13152D02*
X42027Y13252D01*
X41472Y13152D02*
X41572Y13152D01*
X42027Y14147D02*
X41927Y14147D01*
X42027Y14147D02*
X42027Y14047D01*
X41572Y14147D02*
X41472Y14147D01*
X41472Y14147D02*
X41472Y14047D01*
X40722Y5497D02*
X40822Y5497D01*
X41277Y5497D02*
X41277Y5397D01*
X40722Y5497D02*
X40722Y5397D01*
X41277Y5497D02*
X41177Y5497D01*
X40722Y4502D02*
X40822Y4502D01*
X40722Y4502D02*
X40722Y4602D01*
X41177Y4502D02*
X41277Y4502D01*
X41277Y4502D02*
X41277Y4602D01*
X29622Y16147D02*
X29722Y16147D01*
X30177Y16147D02*
X30177Y16047D01*
X29622Y16147D02*
X29622Y16047D01*
X30177Y16147D02*
X30077Y16147D01*
X29622Y15152D02*
X29722Y15152D01*
X29622Y15152D02*
X29622Y15252D01*
X30077Y15152D02*
X30177Y15152D01*
X30177Y15152D02*
X30177Y15252D01*
X20902Y12122D02*
X20902Y12222D01*
X20902Y12677D02*
X21002Y12677D01*
X20902Y12122D02*
X21002Y12122D01*
X20902Y12677D02*
X20902Y12577D01*
X21897Y12122D02*
X21897Y12222D01*
X21897Y12122D02*
X21797Y12122D01*
X21897Y12577D02*
X21897Y12677D01*
X21897Y12677D02*
X21797Y12677D01*
X25072Y11897D02*
X25172Y11897D01*
X25627Y11897D02*
X25627Y11797D01*
X25072Y11897D02*
X25072Y11797D01*
X25627Y11897D02*
X25527Y11897D01*
X25072Y10902D02*
X25172Y10902D01*
X25072Y10902D02*
X25072Y11002D01*
X25527Y10902D02*
X25627Y10902D01*
X25627Y10902D02*
X25627Y11002D01*
X15352Y16222D02*
X15352Y16322D01*
X15352Y16777D02*
X15452Y16777D01*
X15352Y16222D02*
X15452Y16222D01*
X15352Y16777D02*
X15352Y16677D01*
X16347Y16222D02*
X16347Y16322D01*
X16347Y16222D02*
X16247Y16222D01*
X16347Y16677D02*
X16347Y16777D01*
X16347Y16777D02*
X16247Y16777D01*
X25972Y11897D02*
X26072Y11897D01*
X26527Y11897D02*
X26527Y11797D01*
X25972Y11897D02*
X25972Y11797D01*
X26527Y11897D02*
X26427Y11897D01*
X25972Y10902D02*
X26072Y10902D01*
X25972Y10902D02*
X25972Y11002D01*
X26427Y10902D02*
X26527Y10902D01*
X26527Y10902D02*
X26527Y11002D01*
X26997Y12627D02*
X26997Y12527D01*
X26997Y12072D02*
X26897Y12072D01*
X26997Y12627D02*
X26897Y12627D01*
X26997Y12072D02*
X26997Y12172D01*
X26002Y12627D02*
X26002Y12527D01*
X26002Y12627D02*
X26102Y12627D01*
X26002Y12172D02*
X26002Y12072D01*
X26002Y12072D02*
X26102Y12072D01*
X22497Y14127D02*
X22497Y14027D01*
X22497Y13572D02*
X22397Y13572D01*
X22497Y14127D02*
X22397Y14127D01*
X22497Y13572D02*
X22497Y13672D01*
X21502Y14127D02*
X21502Y14027D01*
X21502Y14127D02*
X21602Y14127D01*
X21502Y13672D02*
X21502Y13572D01*
X21502Y13572D02*
X21602Y13572D01*
X22402Y16472D02*
X22402Y16572D01*
X22402Y17027D02*
X22502Y17027D01*
X22402Y16472D02*
X22502Y16472D01*
X22402Y17027D02*
X22402Y16927D01*
X23397Y16472D02*
X23397Y16572D01*
X23397Y16472D02*
X23297Y16472D01*
X23397Y16927D02*
X23397Y17027D01*
X23397Y17027D02*
X23297Y17027D01*
X27497Y19427D02*
X27497Y19327D01*
X27497Y18872D02*
X27397Y18872D01*
X27497Y19427D02*
X27397Y19427D01*
X27497Y18872D02*
X27497Y18972D01*
X26502Y19427D02*
X26502Y19327D01*
X26502Y19427D02*
X26602Y19427D01*
X26502Y18972D02*
X26502Y18872D01*
X26502Y18872D02*
X26602Y18872D01*
X23397Y17527D02*
X23397Y17427D01*
X23397Y16972D02*
X23297Y16972D01*
X23397Y17527D02*
X23297Y17527D01*
X23397Y16972D02*
X23397Y17072D01*
X22402Y17527D02*
X22402Y17427D01*
X22402Y17527D02*
X22502Y17527D01*
X22402Y17072D02*
X22402Y16972D01*
X22402Y16972D02*
X22502Y16972D01*
X23397Y16527D02*
X23397Y16427D01*
X23397Y15972D02*
X23297Y15972D01*
X23397Y16527D02*
X23297Y16527D01*
X23397Y15972D02*
X23397Y16072D01*
X22402Y16527D02*
X22402Y16427D01*
X22402Y16527D02*
X22502Y16527D01*
X22402Y16072D02*
X22402Y15972D01*
X22402Y15972D02*
X22502Y15972D01*
X20902Y12822D02*
X20902Y12922D01*
X20902Y13377D02*
X21002Y13377D01*
X20902Y12822D02*
X21002Y12822D01*
X20902Y13377D02*
X20902Y13277D01*
X21897Y12822D02*
X21897Y12922D01*
X21897Y12822D02*
X21797Y12822D01*
X21897Y13277D02*
X21897Y13377D01*
X21897Y13377D02*
X21797Y13377D01*
X17922Y14197D02*
X18022Y14197D01*
X18477Y14197D02*
X18477Y14097D01*
X17922Y14197D02*
X17922Y14097D01*
X18477Y14197D02*
X18377Y14197D01*
X17922Y13202D02*
X18022Y13202D01*
X17922Y13202D02*
X17922Y13302D01*
X18377Y13202D02*
X18477Y13202D01*
X18477Y13202D02*
X18477Y13302D01*
X18572Y14197D02*
X18672Y14197D01*
X19127Y14197D02*
X19127Y14097D01*
X18572Y14197D02*
X18572Y14097D01*
X19127Y14197D02*
X19027Y14197D01*
X18572Y13202D02*
X18672Y13202D01*
X18572Y13202D02*
X18572Y13302D01*
X19027Y13202D02*
X19127Y13202D01*
X19127Y13202D02*
X19127Y13302D01*
X25402Y18872D02*
X25402Y18972D01*
X25402Y19427D02*
X25502Y19427D01*
X25402Y18872D02*
X25502Y18872D01*
X25402Y19427D02*
X25402Y19327D01*
X26397Y18872D02*
X26397Y18972D01*
X26397Y18872D02*
X26297Y18872D01*
X26397Y19327D02*
X26397Y19427D01*
X26397Y19427D02*
X26297Y19427D01*
X25297Y19427D02*
X25297Y19327D01*
X25297Y18872D02*
X25197Y18872D01*
X25297Y19427D02*
X25197Y19427D01*
X25297Y18872D02*
X25297Y18972D01*
X24302Y19427D02*
X24302Y19327D01*
X24302Y19427D02*
X24402Y19427D01*
X24302Y18972D02*
X24302Y18872D01*
X24302Y18872D02*
X24402Y18872D01*
X24177Y18402D02*
X24077Y18402D01*
X23622Y18402D02*
X23622Y18502D01*
X24177Y18402D02*
X24177Y18502D01*
X23622Y18402D02*
X23722Y18402D01*
X24177Y19397D02*
X24077Y19397D01*
X24177Y19397D02*
X24177Y19297D01*
X23722Y19397D02*
X23622Y19397D01*
X23622Y19397D02*
X23622Y19297D01*
X47197Y13277D02*
X47197Y13177D01*
X47197Y12722D02*
X47097Y12722D01*
X47197Y13277D02*
X47097Y13277D01*
X47197Y12722D02*
X47197Y12822D01*
X46202Y13277D02*
X46202Y13177D01*
X46202Y13277D02*
X46302Y13277D01*
X46202Y12822D02*
X46202Y12722D01*
X46202Y12722D02*
X46302Y12722D01*
X30197Y17477D02*
X30197Y17377D01*
X30197Y16922D02*
X30097Y16922D01*
X30197Y17477D02*
X30097Y17477D01*
X30197Y16922D02*
X30197Y17022D01*
X29202Y17477D02*
X29202Y17377D01*
X29202Y17477D02*
X29302Y17477D01*
X29202Y17022D02*
X29202Y16922D01*
X29202Y16922D02*
X29302Y16922D01*
X45402Y3722D02*
X45402Y3822D01*
X45402Y4277D02*
X45502Y4277D01*
X45402Y3722D02*
X45502Y3722D01*
X45402Y4277D02*
X45402Y4177D01*
X46397Y3722D02*
X46397Y3822D01*
X46397Y3722D02*
X46297Y3722D01*
X46397Y4177D02*
X46397Y4277D01*
X46397Y4277D02*
X46297Y4277D01*
X46322Y7247D02*
X46422Y7247D01*
X46877Y7247D02*
X46877Y7147D01*
X46322Y7247D02*
X46322Y7147D01*
X46877Y7247D02*
X46777Y7247D01*
X46322Y6252D02*
X46422Y6252D01*
X46322Y6252D02*
X46322Y6352D01*
X46777Y6252D02*
X46877Y6252D01*
X46877Y6252D02*
X46877Y6352D01*
X42827Y3152D02*
X42727Y3152D01*
X42272Y3152D02*
X42272Y3252D01*
X42827Y3152D02*
X42827Y3252D01*
X42272Y3152D02*
X42372Y3152D01*
X42827Y4147D02*
X42727Y4147D01*
X42827Y4147D02*
X42827Y4047D01*
X42372Y4147D02*
X42272Y4147D01*
X42272Y4147D02*
X42272Y4047D01*
X43552Y1422D02*
X43552Y1522D01*
X43552Y1977D02*
X43652Y1977D01*
X43552Y1422D02*
X43652Y1422D01*
X43552Y1977D02*
X43552Y1877D01*
X44547Y1422D02*
X44547Y1522D01*
X44547Y1422D02*
X44447Y1422D01*
X44547Y1877D02*
X44547Y1977D01*
X44547Y1977D02*
X44447Y1977D01*
X45072Y9447D02*
X45172Y9447D01*
X45627Y9447D02*
X45627Y9347D01*
X45072Y9447D02*
X45072Y9347D01*
X45627Y9447D02*
X45527Y9447D01*
X45072Y8452D02*
X45172Y8452D01*
X45072Y8452D02*
X45072Y8552D01*
X45527Y8452D02*
X45627Y8452D01*
X45627Y8452D02*
X45627Y8552D01*
X21027Y13502D02*
X20927Y13502D01*
X20472Y13502D02*
X20472Y13602D01*
X21027Y13502D02*
X21027Y13602D01*
X20472Y13502D02*
X20572Y13502D01*
X21027Y14497D02*
X20927Y14497D01*
X21027Y14497D02*
X21027Y14397D01*
X20572Y14497D02*
X20472Y14497D01*
X20472Y14497D02*
X20472Y14397D01*
X32302Y13922D02*
X32302Y14022D01*
X32302Y14477D02*
X32402Y14477D01*
X32302Y13922D02*
X32402Y13922D01*
X32302Y14477D02*
X32302Y14377D01*
X33297Y13922D02*
X33297Y14022D01*
X33297Y13922D02*
X33197Y13922D01*
X33297Y14377D02*
X33297Y14477D01*
X33297Y14477D02*
X33197Y14477D01*
X45252Y13922D02*
X45252Y14022D01*
X45252Y14477D02*
X45352Y14477D01*
X45252Y13922D02*
X45352Y13922D01*
X45252Y14477D02*
X45252Y14377D01*
X46247Y13922D02*
X46247Y14022D01*
X46247Y13922D02*
X46147Y13922D01*
X46247Y14377D02*
X46247Y14477D01*
X46247Y14477D02*
X46147Y14477D01*
X39972Y16597D02*
X40072Y16597D01*
X40527Y16597D02*
X40527Y16497D01*
X39972Y16597D02*
X39972Y16497D01*
X40527Y16597D02*
X40427Y16597D01*
X39972Y15602D02*
X40072Y15602D01*
X39972Y15602D02*
X39972Y15702D01*
X40427Y15602D02*
X40527Y15602D01*
X40527Y15602D02*
X40527Y15702D01*
X40397Y14477D02*
X40397Y14377D01*
X40397Y13922D02*
X40297Y13922D01*
X40397Y14477D02*
X40297Y14477D01*
X40397Y13922D02*
X40397Y14022D01*
X39402Y14477D02*
X39402Y14377D01*
X39402Y14477D02*
X39502Y14477D01*
X39402Y14022D02*
X39402Y13922D01*
X39402Y13922D02*
X39502Y13922D01*
X39272Y16597D02*
X39372Y16597D01*
X39827Y16597D02*
X39827Y16497D01*
X39272Y16597D02*
X39272Y16497D01*
X39827Y16597D02*
X39727Y16597D01*
X39272Y15602D02*
X39372Y15602D01*
X39272Y15602D02*
X39272Y15702D01*
X39727Y15602D02*
X39827Y15602D01*
X39827Y15602D02*
X39827Y15702D01*
X42577Y15902D02*
X42477Y15902D01*
X42022Y15902D02*
X42022Y16002D01*
X42577Y15902D02*
X42577Y16002D01*
X42022Y15902D02*
X42122Y15902D01*
X42577Y16897D02*
X42477Y16897D01*
X42577Y16897D02*
X42577Y16797D01*
X42122Y16897D02*
X42022Y16897D01*
X42022Y16897D02*
X42022Y16797D01*
X41927Y15902D02*
X41827Y15902D01*
X41372Y15902D02*
X41372Y16002D01*
X41927Y15902D02*
X41927Y16002D01*
X41372Y15902D02*
X41472Y15902D01*
X41927Y16897D02*
X41827Y16897D01*
X41927Y16897D02*
X41927Y16797D01*
X41472Y16897D02*
X41372Y16897D01*
X41372Y16897D02*
X41372Y16797D01*
X40022Y5497D02*
X40122Y5497D01*
X40577Y5497D02*
X40577Y5397D01*
X40022Y5497D02*
X40022Y5397D01*
X40577Y5497D02*
X40477Y5497D01*
X40022Y4502D02*
X40122Y4502D01*
X40022Y4502D02*
X40022Y4602D01*
X40477Y4502D02*
X40577Y4502D01*
X40577Y4502D02*
X40577Y4602D01*
X17297Y13427D02*
X17297Y13327D01*
X17297Y12872D02*
X17197Y12872D01*
X17297Y13427D02*
X17197Y13427D01*
X17297Y12872D02*
X17297Y12972D01*
X16302Y13427D02*
X16302Y13327D01*
X16302Y13427D02*
X16402Y13427D01*
X16302Y12972D02*
X16302Y12872D01*
X16302Y12872D02*
X16402Y12872D01*
X17297Y15827D02*
X17297Y15727D01*
X17297Y15272D02*
X17197Y15272D01*
X17297Y15827D02*
X17197Y15827D01*
X17297Y15272D02*
X17297Y15372D01*
X16302Y15827D02*
X16302Y15727D01*
X16302Y15827D02*
X16402Y15827D01*
X16302Y15372D02*
X16302Y15272D01*
X16302Y15272D02*
X16402Y15272D01*
X25050Y11400D02*
G75*
G03X25050Y11400I-200J0D01*
G74*
G01*
X49250Y11100D02*
G75*
G03X49250Y11100I-200J0D01*
G74*
G01*
X24800Y15650D02*
G75*
G03X24800Y15650I-200J0D01*
G74*
G01*
X24600Y18600D02*
G75*
G03X24600Y18600I-200J0D01*
G74*
G01*
X24450Y18850D02*
G75*
G03X24450Y18850I-200J0D01*
G74*
G01*
X50150Y17400D02*
G75*
G03X50150Y17400I-200J0D01*
G74*
G01*
X47000Y12500D02*
G75*
G03X47000Y12500I-200J0D01*
G74*
G01*
X48850Y14450D02*
G75*
G03X48850Y14450I-200J0D01*
G74*
G01*
X49150Y16150D02*
G75*
G03X49150Y16150I-200J0D01*
G74*
G01*
X49599Y12900D02*
G75*
G03X49599Y12900I-199J0D01*
G74*
G01*
X49150Y13350D02*
G75*
G03X49150Y13350I-200J0D01*
G74*
G01*
X23950Y15650D02*
G75*
G03X23950Y15650I-200J0D01*
G74*
G01*
X41825Y10750D02*
G75*
G03X41825Y10750I-200J0D01*
G74*
G01*
X49050Y11000D02*
G75*
G03X49050Y11000I-200J0D01*
G74*
G01*
X47550Y13000D02*
G75*
G03X47550Y13000I-200J0D01*
G74*
G01*
X43725Y10625D02*
G75*
G03X43725Y10625I-200J0D01*
G74*
G01*
X23750Y17250D02*
G75*
G03X23750Y17250I-200J0D01*
G74*
G01*
X23750Y17650D02*
G75*
G03X23750Y17650I-200J0D01*
G74*
G01*
X24800Y18400D02*
G75*
G03X24800Y18400I-200J0D01*
G74*
G01*
X16195Y14744D02*
X16095Y14744D01*
X15305Y14744D02*
X15405Y14744D01*
X16195Y14744D02*
X16195Y14844D01*
X15305Y14844D02*
X15305Y14744D01*
X16195Y16306D02*
X16095Y16306D01*
X15305Y16306D02*
X15305Y16206D01*
X15305Y16306D02*
X15405Y16306D01*
X16195Y16306D02*
X16195Y16206D01*
X16195Y13144D02*
X16095Y13144D01*
X15305Y13144D02*
X15405Y13144D01*
X16195Y13144D02*
X16195Y13244D01*
X15305Y13244D02*
X15305Y13144D01*
X16195Y14706D02*
X16095Y14706D01*
X15305Y14706D02*
X15305Y14606D01*
X15305Y14706D02*
X15405Y14706D01*
X16195Y14706D02*
X16195Y14606D01*
X16195Y11544D02*
X16095Y11544D01*
X15305Y11544D02*
X15405Y11544D01*
X16195Y11544D02*
X16195Y11644D01*
X15305Y11644D02*
X15305Y11544D01*
X16195Y13106D02*
X16095Y13106D01*
X15305Y13106D02*
X15305Y13006D01*
X15305Y13106D02*
X15405Y13106D01*
X16195Y13106D02*
X16195Y13006D01*
X28899Y16205D02*
X28899Y16105D01*
X28899Y16205D02*
X28799Y16205D01*
X24550Y12045D02*
X24550Y12145D01*
X24550Y12045D02*
X24650Y12045D01*
X33616Y16628D02*
X33616Y15628D01*
X33616Y15628D02*
X31616Y15628D01*
X31616Y15628D02*
X31616Y16628D01*
X31616Y16628D02*
X33616Y16628D01*
X35635Y15980D02*
X35635Y16512D01*
X35163Y15980D02*
X35163Y16512D01*
X35163Y16512D02*
X35872Y16512D01*
X35872Y16512D02*
X35872Y15980D01*
X35872Y15980D02*
X35163Y15980D01*
X34716Y16405D02*
X34716Y16305D01*
X34716Y15850D02*
X34616Y15850D01*
X34716Y16405D02*
X34616Y16405D01*
X34716Y15850D02*
X34716Y15950D01*
X33721Y16405D02*
X33721Y16305D01*
X33721Y16405D02*
X33821Y16405D01*
X33721Y15950D02*
X33721Y15850D01*
X33721Y15850D02*
X33821Y15850D01*
X37854Y16691D02*
X37854Y16391D01*
X37854Y15801D02*
X37854Y15901D01*
X37854Y16691D02*
X37554Y16691D01*
X37754Y15801D02*
X37854Y15801D01*
X36292Y16691D02*
X36292Y16591D01*
X36292Y15801D02*
X36392Y15801D01*
X36292Y15801D02*
X36292Y15901D01*
X36292Y16691D02*
X36392Y16691D01*
%LPC*%
G54D16*
X32300Y37950D03*
G54D17*
X32300Y38950D03*
X33300Y37950D03*
X33300Y38950D03*
X34300Y37950D03*
X34300Y38950D03*
X35300Y37950D03*
X35300Y38950D03*
X36300Y37950D03*
X36300Y38950D03*
X37300Y37950D03*
X37300Y38950D03*
X38300Y37950D03*
X38300Y38950D03*
G54D18*
X36698Y36246D03*
X37448Y36246D03*
G54D19*
X33951Y36128D03*
X34486Y36128D03*
G54D20*
X35045Y36246D03*
G54D21*
X35990Y36246D03*
G54D16*
X33116Y36128D03*
G54D17*
X32116Y36128D03*
G54D16*
X6600Y27500D03*
G54D17*
X6600Y26500D03*
X6600Y25500D03*
X6600Y24500D03*
X6600Y23500D03*
X6600Y22500D03*
G54D16*
X9900Y38000D03*
G54D17*
X8900Y38000D03*
X8900Y39000D03*
X9900Y39000D03*
G54D16*
X9900Y31000D03*
G54D17*
X8900Y31000D03*
X8900Y32000D03*
X9900Y32000D03*
G54D22*
X25658Y32704D03*
X25658Y32901D03*
X25658Y33098D03*
X25658Y33295D03*
X24441Y33295D03*
X24441Y33098D03*
X24441Y32901D03*
X24441Y32704D03*
G54D23*
X24754Y32391D03*
X24951Y32391D03*
X25148Y32391D03*
X25345Y32391D03*
X25345Y33608D03*
X25148Y33608D03*
X24951Y33608D03*
X24754Y33608D03*
G54D24*
X25050Y33000D03*
G54D25*
X25050Y33000D03*
X25246Y33196D03*
X25246Y32803D03*
X24853Y32803D03*
X24853Y33196D03*
G54D26*
X28300Y35250D03*
G54D25*
X28300Y35250D03*
X28103Y35053D03*
X28103Y35446D03*
X28496Y35446D03*
X28496Y35053D03*
G54D27*
X28378Y35858D03*
X28221Y35858D03*
X28063Y35858D03*
X27906Y35858D03*
X28693Y35858D03*
X28536Y35858D03*
X27906Y34641D03*
X28063Y34641D03*
X28221Y34641D03*
X28378Y34641D03*
X28536Y34641D03*
X28693Y34641D03*
G54D28*
X15750Y32700D03*
X15750Y31950D03*
X15750Y34300D03*
X15750Y33550D03*
X15750Y35900D03*
X15750Y35150D03*
G54D29*
X24600Y38400D03*
X23550Y37650D03*
X23550Y37250D03*
X43525Y30625D03*
X47350Y33000D03*
X48850Y31000D03*
X41625Y30750D03*
X23750Y35650D03*
X48950Y33350D03*
X49400Y32900D03*
X48950Y36150D03*
X48650Y34450D03*
X46800Y32500D03*
X49950Y37400D03*
X24250Y38850D03*
X24400Y38600D03*
X24600Y35650D03*
X49050Y31100D03*
X24850Y31400D03*
G54D19*
X16532Y35550D03*
X17067Y35550D03*
X16532Y33150D03*
X17067Y33150D03*
G54D30*
X40300Y24732D03*
X40300Y25267D03*
X41650Y36667D03*
X41650Y36132D03*
X42300Y36667D03*
X42300Y36132D03*
X39550Y35832D03*
X39550Y36367D03*
G54D19*
X39632Y34200D03*
X40167Y34200D03*
G54D30*
X40250Y35832D03*
X40250Y36367D03*
G54D19*
X46017Y34200D03*
X45482Y34200D03*
X33067Y34200D03*
X32532Y34200D03*
G54D30*
X20750Y34267D03*
X20750Y33732D03*
X45350Y28682D03*
X45350Y29217D03*
G54D19*
X44317Y21700D03*
X43782Y21700D03*
G54D30*
X42550Y23917D03*
X42550Y23382D03*
X46600Y26482D03*
X46600Y27017D03*
G54D19*
X46167Y24000D03*
X45632Y24000D03*
X29432Y37200D03*
X29967Y37200D03*
X46432Y33000D03*
X46967Y33000D03*
G54D30*
X23900Y39167D03*
X23900Y38632D03*
G54D19*
X24532Y39150D03*
X25067Y39150D03*
X26167Y39150D03*
X25632Y39150D03*
G54D30*
X18850Y33432D03*
X18850Y33967D03*
X18200Y33432D03*
X18200Y33967D03*
G54D19*
X21667Y33100D03*
X21132Y33100D03*
X22632Y36250D03*
X23167Y36250D03*
X22632Y37250D03*
X23167Y37250D03*
X26732Y39150D03*
X27267Y39150D03*
X23167Y36750D03*
X22632Y36750D03*
X21732Y33850D03*
X22267Y33850D03*
X26232Y32350D03*
X26767Y32350D03*
G54D30*
X26250Y31132D03*
X26250Y31667D03*
G54D19*
X16117Y36500D03*
X15582Y36500D03*
G54D30*
X25350Y31132D03*
X25350Y31667D03*
G54D19*
X21667Y32400D03*
X21132Y32400D03*
G54D30*
X29900Y35382D03*
X29900Y35917D03*
X41000Y24732D03*
X41000Y25267D03*
X41750Y33917D03*
X41750Y33382D03*
X41000Y36132D03*
X41000Y36667D03*
G54D19*
X45282Y26400D03*
X45817Y26400D03*
G54D30*
X40750Y34732D03*
X40750Y35267D03*
X41850Y31932D03*
X41850Y32467D03*
X39050Y34732D03*
X39050Y35267D03*
X46000Y28682D03*
X46000Y29217D03*
X41900Y23917D03*
X41900Y23382D03*
G54D19*
X45407Y21500D03*
X45942Y21500D03*
X44317Y22400D03*
X43782Y22400D03*
X45132Y23350D03*
X45667Y23350D03*
X42217Y26150D03*
X41682Y26150D03*
G54D30*
X46600Y28117D03*
X46600Y27582D03*
G54D19*
X29942Y38375D03*
X29407Y38375D03*
X29942Y39075D03*
X29407Y39075D03*
X29967Y36550D03*
X29432Y36550D03*
X21532Y37750D03*
X22067Y37750D03*
X47267Y33650D03*
X46732Y33650D03*
X26032Y37900D03*
X26567Y37900D03*
G54D30*
X27150Y37517D03*
X27150Y36982D03*
X23200Y35667D03*
X23200Y35132D03*
G54D19*
X26032Y36550D03*
X26567Y36550D03*
X26032Y37250D03*
X26567Y37250D03*
X23867Y34500D03*
X23332Y34500D03*
X23867Y33850D03*
X23332Y33850D03*
X23167Y37750D03*
X22632Y37750D03*
G54D30*
X29250Y35917D03*
X29250Y35382D03*
G54D19*
X22232Y33200D03*
X22767Y33200D03*
X26232Y33650D03*
X26767Y33650D03*
X26232Y33000D03*
X26767Y33000D03*
X23867Y33200D03*
X23332Y33200D03*
X16117Y37500D03*
X15582Y37500D03*
G54D30*
X27300Y35882D03*
X27300Y36417D03*
G54D31*
X4295Y36411D03*
X3695Y36411D03*
X3695Y35381D03*
X4295Y35381D03*
X2204Y36288D03*
X2804Y36288D03*
X2804Y37318D03*
X2204Y37318D03*
X9304Y22688D03*
X9904Y22688D03*
X9904Y23718D03*
X9304Y23718D03*
X8395Y24611D03*
X7795Y24611D03*
X7795Y23581D03*
X8395Y23581D03*
X8395Y28211D03*
X7795Y28211D03*
X7795Y27181D03*
X8395Y27181D03*
X9304Y26288D03*
X9904Y26288D03*
X9904Y27318D03*
X9304Y27318D03*
X4295Y34611D03*
X3695Y34611D03*
X3695Y33581D03*
X4295Y33581D03*
X2204Y32688D03*
X2804Y32688D03*
X2804Y33718D03*
X2204Y33718D03*
X7245Y38211D03*
X6645Y38211D03*
X6645Y37181D03*
X7245Y37181D03*
X7245Y34611D03*
X6645Y34611D03*
X6645Y33581D03*
X7245Y33581D03*
X8154Y36288D03*
X8754Y36288D03*
X8754Y37318D03*
X8154Y37318D03*
X8395Y22811D03*
X7795Y22811D03*
X7795Y21781D03*
X8395Y21781D03*
X4295Y32811D03*
X3695Y32811D03*
X3695Y31781D03*
X4295Y31781D03*
X8395Y26411D03*
X7795Y26411D03*
X7795Y25381D03*
X8395Y25381D03*
X7245Y36411D03*
X6645Y36411D03*
X6645Y35381D03*
X7245Y35381D03*
X7245Y32811D03*
X6645Y32811D03*
X6645Y31781D03*
X7245Y31781D03*
X4295Y38211D03*
X3695Y38211D03*
X3695Y37181D03*
X4295Y37181D03*
X8154Y32688D03*
X8754Y32688D03*
X8754Y33718D03*
X8154Y33718D03*
G54D16*
X31950Y31400D03*
G54D17*
X32950Y31400D03*
G54D16*
X30450Y31400D03*
G54D17*
X30450Y32400D03*
X30450Y33400D03*
G54D32*
X31650Y32167D03*
X31275Y33033D03*
X32025Y33033D03*
G54D33*
X22000Y35000D03*
X43900Y35000D03*
G54D34*
X18600Y35000D03*
X47300Y35000D03*
G54D35*
X48677Y34842D03*
X48677Y35000D03*
X48677Y35157D03*
X48422Y35157D03*
X48422Y35000D03*
X48422Y34842D03*
G54D36*
X25192Y37955D03*
X24995Y37955D03*
X24798Y37955D03*
X24601Y37955D03*
X24404Y37955D03*
X24207Y37955D03*
X24207Y36344D03*
X24404Y36344D03*
X24601Y36344D03*
X24798Y36344D03*
X24995Y36344D03*
X25192Y36344D03*
G54D37*
X23894Y37642D03*
X23894Y37445D03*
X23894Y37248D03*
X23894Y37051D03*
X23894Y36854D03*
X23894Y36657D03*
X25505Y36657D03*
X25505Y36854D03*
X25505Y37051D03*
X25505Y37248D03*
X25505Y37445D03*
X25505Y37642D03*
G54D38*
X24700Y37150D03*
G54D39*
X25054Y36795D03*
X24700Y36795D03*
X24345Y36795D03*
X24345Y37150D03*
X24700Y37150D03*
X25054Y37150D03*
X25054Y37504D03*
X24700Y37504D03*
X24345Y37504D03*
G54D16*
X43400Y28800D03*
G54D17*
X44400Y28800D03*
G54D16*
X43400Y27800D03*
G54D17*
X44400Y27800D03*
G54D16*
X43400Y26800D03*
G54D17*
X44400Y26800D03*
G54D16*
X15050Y21000D03*
G54D17*
X16050Y21000D03*
G54D16*
X15050Y29000D03*
G54D17*
X16050Y29000D03*
G54D16*
X43400Y36800D03*
G54D17*
X44400Y36800D03*
G54D16*
X43400Y37800D03*
G54D17*
X44400Y37800D03*
G54D16*
X43400Y38800D03*
G54D17*
X44400Y38800D03*
G54D16*
X15050Y31000D03*
G54D17*
X16050Y31000D03*
G54D16*
X15050Y39000D03*
G54D17*
X16050Y39000D03*
G54D10*
G36*
X49285Y32371D02*
X48992Y32077D01*
X48823Y32246D01*
X49117Y32540D01*
X49285Y32371D01*
X49285Y32371D01*
G37*
G36*
X49146Y32510D02*
X48852Y32216D01*
X48684Y32385D01*
X48978Y32679D01*
X49146Y32510D01*
X49146Y32510D01*
G37*
G36*
X49007Y32649D02*
X48713Y32355D01*
X48545Y32524D01*
X48839Y32818D01*
X49007Y32649D01*
X49007Y32649D01*
G37*
G36*
X48868Y32789D02*
X48574Y32495D01*
X48405Y32663D01*
X48699Y32957D01*
X48868Y32789D01*
X48868Y32789D01*
G37*
G36*
X48729Y32928D02*
X48435Y32634D01*
X48266Y32802D01*
X48560Y33096D01*
X48729Y32928D01*
X48729Y32928D01*
G37*
G36*
X48590Y33067D02*
X48296Y32773D01*
X48127Y32942D01*
X48421Y33235D01*
X48590Y33067D01*
X48590Y33067D01*
G37*
G36*
X47476Y31953D02*
X47182Y31659D01*
X47014Y31828D01*
X47307Y32122D01*
X47476Y31953D01*
X47476Y31953D01*
G37*
G36*
X47615Y31814D02*
X47321Y31520D01*
X47153Y31689D01*
X47447Y31983D01*
X47615Y31814D01*
X47615Y31814D01*
G37*
G36*
X47754Y31675D02*
X47460Y31381D01*
X47292Y31550D01*
X47586Y31844D01*
X47754Y31675D01*
X47754Y31675D01*
G37*
G36*
X47894Y31536D02*
X47600Y31242D01*
X47431Y31410D01*
X47725Y31704D01*
X47894Y31536D01*
X47894Y31536D01*
G37*
G36*
X48033Y31397D02*
X47739Y31103D01*
X47570Y31271D01*
X47864Y31565D01*
X48033Y31397D01*
X48033Y31397D01*
G37*
G36*
X48172Y31257D02*
X47878Y30964D01*
X47709Y31132D01*
X48003Y31426D01*
X48172Y31257D01*
X48172Y31257D01*
G37*
G36*
X47878Y33235D02*
X48172Y32942D01*
X48003Y32773D01*
X47709Y33067D01*
X47878Y33235D01*
X47878Y33235D01*
G37*
G36*
X47739Y33096D02*
X48033Y32802D01*
X47864Y32634D01*
X47570Y32928D01*
X47739Y33096D01*
X47739Y33096D01*
G37*
G36*
X47600Y32957D02*
X47894Y32663D01*
X47725Y32495D01*
X47431Y32789D01*
X47600Y32957D01*
X47600Y32957D01*
G37*
G36*
X47460Y32818D02*
X47754Y32524D01*
X47586Y32355D01*
X47292Y32649D01*
X47460Y32818D01*
X47460Y32818D01*
G37*
G36*
X47321Y32679D02*
X47615Y32385D01*
X47447Y32216D01*
X47153Y32510D01*
X47321Y32679D01*
X47321Y32679D01*
G37*
G36*
X47182Y32540D02*
X47476Y32246D01*
X47307Y32077D01*
X47014Y32371D01*
X47182Y32540D01*
X47182Y32540D01*
G37*
G36*
X48296Y31426D02*
X48590Y31132D01*
X48421Y30964D01*
X48127Y31257D01*
X48296Y31426D01*
X48296Y31426D01*
G37*
G36*
X48435Y31565D02*
X48729Y31271D01*
X48560Y31103D01*
X48266Y31397D01*
X48435Y31565D01*
X48435Y31565D01*
G37*
G36*
X48574Y31704D02*
X48868Y31410D01*
X48699Y31242D01*
X48405Y31536D01*
X48574Y31704D01*
X48574Y31704D01*
G37*
G36*
X48713Y31844D02*
X49007Y31550D01*
X48839Y31381D01*
X48545Y31675D01*
X48713Y31844D01*
X48713Y31844D01*
G37*
G36*
X48852Y31983D02*
X49146Y31689D01*
X48978Y31520D01*
X48684Y31814D01*
X48852Y31983D01*
X48852Y31983D01*
G37*
G36*
X48992Y32122D02*
X49285Y31828D01*
X49117Y31659D01*
X48823Y31953D01*
X48992Y32122D01*
X48992Y32122D01*
G37*
G36*
X49014Y32100D02*
X48150Y31235D01*
X47285Y32100D01*
X48150Y32964D01*
X49014Y32100D01*
X49014Y32100D01*
G37*
G54D16*
X50950Y32000D03*
G54D17*
X49950Y32000D03*
X49950Y31000D03*
X50950Y31000D03*
G54D16*
X50950Y39000D03*
G54D17*
X49950Y39000D03*
X49950Y38000D03*
X50950Y38000D03*
G54D40*
X20824Y38644D03*
X20824Y38900D03*
X20824Y39155D03*
X20075Y39155D03*
X20075Y38900D03*
X20075Y38644D03*
G54D41*
X19898Y37983D03*
X19898Y37727D03*
X19898Y37472D03*
X19898Y37216D03*
G54D42*
X21040Y37983D03*
X21040Y37727D03*
X21040Y37472D03*
X21040Y37216D03*
G54D43*
X20591Y37600D03*
G54D44*
X20450Y38157D03*
X20450Y37042D03*
G54D45*
X21031Y35954D03*
X21031Y36151D03*
X21031Y36348D03*
X21031Y36545D03*
X19968Y36545D03*
X19968Y36348D03*
X19968Y36151D03*
X19968Y35954D03*
G54D46*
X17174Y34881D03*
X16800Y34881D03*
X16425Y34881D03*
X16425Y33818D03*
X16800Y33818D03*
X17174Y33818D03*
G54D47*
X40155Y34803D03*
X40155Y35000D03*
X40155Y35196D03*
X39644Y35196D03*
X39644Y34803D03*
G54D48*
X41356Y34511D03*
X41553Y34511D03*
X41750Y34511D03*
X41946Y34511D03*
X42143Y34511D03*
X42143Y35488D03*
X41946Y35488D03*
X41750Y35488D03*
X41553Y35488D03*
X41356Y35488D03*
G54D49*
X17650Y33690D03*
X17650Y34010D03*
X22800Y34110D03*
X22800Y33790D03*
G54D16*
X14950Y32500D03*
G54D17*
X14950Y33500D03*
X14950Y34500D03*
X14950Y35500D03*
X14950Y36500D03*
X14950Y37500D03*
G54D28*
X21850Y36250D03*
X21850Y37000D03*
G54D50*
X28750Y36750D03*
X27923Y36750D03*
G54D51*
X25900Y35600D03*
X25900Y34379D03*
X23000Y31150D03*
X23000Y32370D03*
G54D18*
X20450Y32400D03*
X19700Y32400D03*
G54D28*
X28050Y39050D03*
X28050Y38300D03*
G54D18*
X30100Y34600D03*
X29350Y34600D03*
G54D52*
X45450Y34800D03*
X46000Y34800D03*
X46000Y35250D03*
X45450Y35250D03*
X32500Y34800D03*
X33050Y34800D03*
X33050Y35250D03*
X32500Y35250D03*
X19950Y34800D03*
X20500Y34800D03*
X20500Y35250D03*
X19950Y35250D03*
G54D53*
X23300Y38366D03*
X23300Y38622D03*
X23300Y38878D03*
X23300Y39134D03*
X21600Y39134D03*
X21600Y38878D03*
X21600Y38622D03*
X21600Y38366D03*
G54D32*
X19800Y33317D03*
X19425Y34183D03*
X20175Y34183D03*
G54D54*
X30917Y35000D03*
X31783Y35375D03*
X31783Y34625D03*
X39167Y32250D03*
X40033Y32625D03*
X40033Y31875D03*
X40217Y31250D03*
X41083Y31625D03*
X41083Y30875D03*
X40167Y33200D03*
X41033Y33575D03*
X41033Y32825D03*
X46283Y36250D03*
X45417Y35875D03*
X45417Y36625D03*
G54D55*
X45275Y28050D03*
X45650Y28050D03*
X46025Y28050D03*
X46025Y27050D03*
X45650Y27050D03*
X45275Y27050D03*
G54D56*
X44900Y22025D03*
X44900Y22400D03*
X44900Y22775D03*
X45900Y22775D03*
X45900Y22400D03*
X45900Y22025D03*
G54D55*
X42325Y24500D03*
X41950Y24500D03*
X41575Y24500D03*
X41575Y25500D03*
X41950Y25500D03*
X42325Y25500D03*
G54D57*
X38304Y33400D03*
X33895Y33400D03*
G54D58*
X16950Y38700D03*
X16950Y37975D03*
G54D59*
X18517Y38337D03*
G54D58*
X19200Y36400D03*
X19200Y37124D03*
G54D59*
X17632Y36762D03*
G54D60*
X46950Y26000D03*
X46950Y24000D03*
X39750Y25000D03*
G54D61*
X44022Y31048D03*
X44278Y31048D03*
X44534Y31048D03*
X44790Y31048D03*
X43258Y33250D03*
X43254Y31048D03*
X43510Y31048D03*
X43766Y31048D03*
X45046Y33252D03*
X44790Y33252D03*
X44534Y33252D03*
X44278Y33252D03*
X44022Y33252D03*
X43766Y33252D03*
X45046Y31048D03*
X43510Y33250D03*
X42998Y31048D03*
X45302Y31048D03*
X45302Y33252D03*
X42998Y33252D03*
X42743Y31048D03*
X45557Y31048D03*
X45557Y33252D03*
X42743Y33252D03*
X42487Y31048D03*
X45813Y31048D03*
X45813Y33252D03*
X42487Y33252D03*
G54D62*
X49250Y34488D03*
X49250Y34744D03*
X49250Y35000D03*
X49250Y35255D03*
X49250Y35511D03*
G54D63*
X50372Y34557D03*
X50372Y35442D03*
G54D64*
X50372Y33523D03*
X50372Y36476D03*
G54D62*
X49250Y14488D03*
X49250Y14744D03*
X49250Y15000D03*
X49250Y15255D03*
X49250Y15511D03*
G54D63*
X50372Y14557D03*
X50372Y15442D03*
G54D64*
X50372Y13523D03*
X50372Y16476D03*
G54D61*
X44022Y11048D03*
X44278Y11048D03*
X44534Y11048D03*
X44790Y11048D03*
X43258Y13250D03*
X43254Y11048D03*
X43510Y11048D03*
X43766Y11048D03*
X45046Y13252D03*
X44790Y13252D03*
X44534Y13252D03*
X44278Y13252D03*
X44022Y13252D03*
X43766Y13252D03*
X45046Y11048D03*
X43510Y13250D03*
X42998Y11048D03*
X45302Y11048D03*
X45302Y13252D03*
X42998Y13252D03*
X42743Y11048D03*
X45557Y11048D03*
X45557Y13252D03*
X42743Y13252D03*
X42487Y11048D03*
X45813Y11048D03*
X45813Y13252D03*
X42487Y13252D03*
G54D60*
X39750Y5000D03*
X46950Y4000D03*
X46950Y6000D03*
G54D58*
X19200Y16400D03*
X19200Y17124D03*
G54D59*
X17632Y16762D03*
G54D58*
X16950Y18700D03*
X16950Y17975D03*
G54D59*
X18517Y18337D03*
G54D57*
X38304Y13400D03*
X33895Y13400D03*
G54D55*
X42325Y4500D03*
X41950Y4500D03*
X41575Y4500D03*
X41575Y5500D03*
X41950Y5500D03*
X42325Y5500D03*
G54D56*
X44900Y2025D03*
X44900Y2400D03*
X44900Y2775D03*
X45900Y2775D03*
X45900Y2400D03*
X45900Y2025D03*
G54D55*
X45275Y8050D03*
X45650Y8050D03*
X46025Y8050D03*
X46025Y7050D03*
X45650Y7050D03*
X45275Y7050D03*
G54D54*
X46283Y16250D03*
X45417Y15875D03*
X45417Y16625D03*
X40167Y13200D03*
X41033Y13575D03*
X41033Y12825D03*
X40217Y11250D03*
X41083Y11625D03*
X41083Y10875D03*
X39167Y12250D03*
X40033Y12625D03*
X40033Y11875D03*
X30917Y15000D03*
X31783Y15375D03*
X31783Y14625D03*
G54D32*
X19800Y13317D03*
X19425Y14183D03*
X20175Y14183D03*
G54D53*
X23300Y18366D03*
X23300Y18622D03*
X23300Y18878D03*
X23300Y19134D03*
X21600Y19134D03*
X21600Y18878D03*
X21600Y18622D03*
X21600Y18366D03*
G54D52*
X19950Y14800D03*
X20500Y14800D03*
X20500Y15250D03*
X19950Y15250D03*
X32500Y14800D03*
X33050Y14800D03*
X33050Y15250D03*
X32500Y15250D03*
X45450Y14800D03*
X46000Y14800D03*
X46000Y15250D03*
X45450Y15250D03*
G54D18*
X30100Y14600D03*
X29350Y14600D03*
G54D28*
X28050Y19050D03*
X28050Y18300D03*
G54D18*
X20450Y12400D03*
X19700Y12400D03*
G54D51*
X23000Y11150D03*
X23000Y12370D03*
X25900Y15600D03*
X25900Y14379D03*
G54D50*
X28750Y16750D03*
X27923Y16750D03*
G54D28*
X21850Y16250D03*
X21850Y17000D03*
G54D16*
X32300Y17950D03*
G54D17*
X32300Y18950D03*
X33300Y17950D03*
X33300Y18950D03*
X34300Y17950D03*
X34300Y18950D03*
X35300Y17950D03*
X35300Y18950D03*
X36300Y17950D03*
X36300Y18950D03*
X37300Y17950D03*
X37300Y18950D03*
X38300Y17950D03*
X38300Y18950D03*
G54D16*
X14950Y12500D03*
G54D17*
X14950Y13500D03*
X14950Y14500D03*
X14950Y15500D03*
X14950Y16500D03*
X14950Y17500D03*
G54D49*
X22800Y14110D03*
X22800Y13790D03*
X17650Y13690D03*
X17650Y14010D03*
G54D48*
X41356Y14511D03*
X41553Y14511D03*
X41750Y14511D03*
X41946Y14511D03*
X42143Y14511D03*
X42143Y15488D03*
X41946Y15488D03*
X41750Y15488D03*
X41553Y15488D03*
X41356Y15488D03*
G54D47*
X40155Y14803D03*
X40155Y15000D03*
X40155Y15196D03*
X39644Y15196D03*
X39644Y14803D03*
G54D46*
X17174Y14881D03*
X16800Y14881D03*
X16425Y14881D03*
X16425Y13818D03*
X16800Y13818D03*
X17174Y13818D03*
G54D45*
X21031Y15954D03*
X21031Y16151D03*
X21031Y16348D03*
X21031Y16545D03*
X19968Y16545D03*
X19968Y16348D03*
X19968Y16151D03*
X19968Y15954D03*
G54D41*
X19898Y17983D03*
X19898Y17727D03*
X19898Y17472D03*
X19898Y17216D03*
G54D42*
X21040Y17983D03*
X21040Y17727D03*
X21040Y17472D03*
X21040Y17216D03*
G54D43*
X20591Y17600D03*
G54D44*
X20450Y18157D03*
X20450Y17042D03*
G54D40*
X20824Y18644D03*
X20824Y18900D03*
X20824Y19155D03*
X20075Y19155D03*
X20075Y18900D03*
X20075Y18644D03*
G54D16*
X50950Y19000D03*
G54D17*
X49950Y19000D03*
X49950Y18000D03*
X50950Y18000D03*
G54D16*
X50950Y12000D03*
G54D17*
X49950Y12000D03*
X49950Y11000D03*
X50950Y11000D03*
G54D10*
G36*
X49285Y12371D02*
X48992Y12077D01*
X48823Y12246D01*
X49117Y12540D01*
X49285Y12371D01*
X49285Y12371D01*
G37*
G36*
X49146Y12510D02*
X48852Y12216D01*
X48684Y12385D01*
X48978Y12679D01*
X49146Y12510D01*
X49146Y12510D01*
G37*
G36*
X49007Y12649D02*
X48713Y12355D01*
X48545Y12524D01*
X48839Y12818D01*
X49007Y12649D01*
X49007Y12649D01*
G37*
G36*
X48868Y12789D02*
X48574Y12495D01*
X48405Y12663D01*
X48699Y12957D01*
X48868Y12789D01*
X48868Y12789D01*
G37*
G36*
X48729Y12928D02*
X48435Y12634D01*
X48266Y12802D01*
X48560Y13096D01*
X48729Y12928D01*
X48729Y12928D01*
G37*
G36*
X48590Y13067D02*
X48296Y12773D01*
X48127Y12942D01*
X48421Y13235D01*
X48590Y13067D01*
X48590Y13067D01*
G37*
G36*
X47476Y11953D02*
X47182Y11659D01*
X47014Y11828D01*
X47307Y12122D01*
X47476Y11953D01*
X47476Y11953D01*
G37*
G36*
X47615Y11814D02*
X47321Y11520D01*
X47153Y11689D01*
X47447Y11983D01*
X47615Y11814D01*
X47615Y11814D01*
G37*
G36*
X47754Y11675D02*
X47460Y11381D01*
X47292Y11550D01*
X47586Y11844D01*
X47754Y11675D01*
X47754Y11675D01*
G37*
G36*
X47894Y11536D02*
X47600Y11242D01*
X47431Y11410D01*
X47725Y11704D01*
X47894Y11536D01*
X47894Y11536D01*
G37*
G36*
X48033Y11397D02*
X47739Y11103D01*
X47570Y11271D01*
X47864Y11565D01*
X48033Y11397D01*
X48033Y11397D01*
G37*
G36*
X48172Y11257D02*
X47878Y10964D01*
X47709Y11132D01*
X48003Y11426D01*
X48172Y11257D01*
X48172Y11257D01*
G37*
G36*
X47878Y13235D02*
X48172Y12942D01*
X48003Y12773D01*
X47709Y13067D01*
X47878Y13235D01*
X47878Y13235D01*
G37*
G36*
X47739Y13096D02*
X48033Y12802D01*
X47864Y12634D01*
X47570Y12928D01*
X47739Y13096D01*
X47739Y13096D01*
G37*
G36*
X47600Y12957D02*
X47894Y12663D01*
X47725Y12495D01*
X47431Y12789D01*
X47600Y12957D01*
X47600Y12957D01*
G37*
G36*
X47460Y12818D02*
X47754Y12524D01*
X47586Y12355D01*
X47292Y12649D01*
X47460Y12818D01*
X47460Y12818D01*
G37*
G36*
X47321Y12679D02*
X47615Y12385D01*
X47447Y12216D01*
X47153Y12510D01*
X47321Y12679D01*
X47321Y12679D01*
G37*
G36*
X47182Y12540D02*
X47476Y12246D01*
X47307Y12077D01*
X47014Y12371D01*
X47182Y12540D01*
X47182Y12540D01*
G37*
G36*
X48296Y11426D02*
X48590Y11132D01*
X48421Y10964D01*
X48127Y11257D01*
X48296Y11426D01*
X48296Y11426D01*
G37*
G36*
X48435Y11565D02*
X48729Y11271D01*
X48560Y11103D01*
X48266Y11397D01*
X48435Y11565D01*
X48435Y11565D01*
G37*
G36*
X48574Y11704D02*
X48868Y11410D01*
X48699Y11242D01*
X48405Y11536D01*
X48574Y11704D01*
X48574Y11704D01*
G37*
G36*
X48713Y11844D02*
X49007Y11550D01*
X48839Y11381D01*
X48545Y11675D01*
X48713Y11844D01*
X48713Y11844D01*
G37*
G36*
X48852Y11983D02*
X49146Y11689D01*
X48978Y11520D01*
X48684Y11814D01*
X48852Y11983D01*
X48852Y11983D01*
G37*
G36*
X48992Y12122D02*
X49285Y11828D01*
X49117Y11659D01*
X48823Y11953D01*
X48992Y12122D01*
X48992Y12122D01*
G37*
G36*
X49014Y12100D02*
X48150Y11235D01*
X47285Y12100D01*
X48150Y12964D01*
X49014Y12100D01*
X49014Y12100D01*
G37*
G54D16*
X15050Y19000D03*
G54D17*
X16050Y19000D03*
G54D16*
X15050Y11000D03*
G54D17*
X16050Y11000D03*
G54D16*
X43400Y18800D03*
G54D17*
X44400Y18800D03*
G54D16*
X43400Y17800D03*
G54D17*
X44400Y17800D03*
G54D16*
X43400Y16800D03*
G54D17*
X44400Y16800D03*
G54D16*
X15050Y9000D03*
G54D17*
X16050Y9000D03*
G54D16*
X15050Y1000D03*
G54D17*
X16050Y1000D03*
G54D16*
X43400Y6800D03*
G54D17*
X44400Y6800D03*
G54D16*
X43400Y7800D03*
G54D17*
X44400Y7800D03*
G54D16*
X43400Y8800D03*
G54D17*
X44400Y8800D03*
G54D36*
X25192Y17955D03*
X24995Y17955D03*
X24798Y17955D03*
X24601Y17955D03*
X24404Y17955D03*
X24207Y17955D03*
X24207Y16344D03*
X24404Y16344D03*
X24601Y16344D03*
X24798Y16344D03*
X24995Y16344D03*
X25192Y16344D03*
G54D37*
X23894Y17642D03*
X23894Y17445D03*
X23894Y17248D03*
X23894Y17051D03*
X23894Y16854D03*
X23894Y16657D03*
X25505Y16657D03*
X25505Y16854D03*
X25505Y17051D03*
X25505Y17248D03*
X25505Y17445D03*
X25505Y17642D03*
G54D38*
X24700Y17150D03*
G54D39*
X25054Y16795D03*
X24700Y16795D03*
X24345Y16795D03*
X24345Y17150D03*
X24700Y17150D03*
X25054Y17150D03*
X25054Y17504D03*
X24700Y17504D03*
X24345Y17504D03*
G54D35*
X48677Y14842D03*
X48677Y15000D03*
X48677Y15157D03*
X48422Y15157D03*
X48422Y15000D03*
X48422Y14842D03*
G54D33*
X22000Y15000D03*
X43900Y15000D03*
G54D34*
X18600Y15000D03*
X47300Y15000D03*
G54D32*
X31650Y12167D03*
X31275Y13033D03*
X32025Y13033D03*
G54D16*
X30450Y11400D03*
G54D17*
X30450Y12400D03*
X30450Y13400D03*
G54D16*
X31950Y11400D03*
G54D17*
X32950Y11400D03*
G54D31*
X8154Y12688D03*
X8754Y12688D03*
X8754Y13718D03*
X8154Y13718D03*
X4295Y18211D03*
X3695Y18211D03*
X3695Y17181D03*
X4295Y17181D03*
X7245Y12811D03*
X6645Y12811D03*
X6645Y11781D03*
X7245Y11781D03*
X7245Y16411D03*
X6645Y16411D03*
X6645Y15381D03*
X7245Y15381D03*
X8395Y6411D03*
X7795Y6411D03*
X7795Y5381D03*
X8395Y5381D03*
X4295Y12811D03*
X3695Y12811D03*
X3695Y11781D03*
X4295Y11781D03*
X8395Y2811D03*
X7795Y2811D03*
X7795Y1781D03*
X8395Y1781D03*
X8154Y16288D03*
X8754Y16288D03*
X8754Y17318D03*
X8154Y17318D03*
X7245Y14611D03*
X6645Y14611D03*
X6645Y13581D03*
X7245Y13581D03*
X7245Y18211D03*
X6645Y18211D03*
X6645Y17181D03*
X7245Y17181D03*
X2204Y12688D03*
X2804Y12688D03*
X2804Y13718D03*
X2204Y13718D03*
X4295Y14611D03*
X3695Y14611D03*
X3695Y13581D03*
X4295Y13581D03*
X9304Y6288D03*
X9904Y6288D03*
X9904Y7318D03*
X9304Y7318D03*
X8395Y8211D03*
X7795Y8211D03*
X7795Y7181D03*
X8395Y7181D03*
X8395Y4611D03*
X7795Y4611D03*
X7795Y3581D03*
X8395Y3581D03*
X9304Y2688D03*
X9904Y2688D03*
X9904Y3718D03*
X9304Y3718D03*
X2204Y16288D03*
X2804Y16288D03*
X2804Y17318D03*
X2204Y17318D03*
X4295Y16411D03*
X3695Y16411D03*
X3695Y15381D03*
X4295Y15381D03*
G54D30*
X27300Y15882D03*
X27300Y16417D03*
G54D19*
X16117Y17500D03*
X15582Y17500D03*
X23867Y13200D03*
X23332Y13200D03*
X26232Y13000D03*
X26767Y13000D03*
X26232Y13650D03*
X26767Y13650D03*
X22232Y13200D03*
X22767Y13200D03*
G54D30*
X29250Y15917D03*
X29250Y15382D03*
G54D19*
X23167Y17750D03*
X22632Y17750D03*
X23867Y13850D03*
X23332Y13850D03*
X23867Y14500D03*
X23332Y14500D03*
X26032Y17250D03*
X26567Y17250D03*
X26032Y16550D03*
X26567Y16550D03*
G54D30*
X23200Y15667D03*
X23200Y15132D03*
X27150Y17517D03*
X27150Y16982D03*
G54D19*
X26032Y17900D03*
X26567Y17900D03*
X47267Y13650D03*
X46732Y13650D03*
X21532Y17750D03*
X22067Y17750D03*
X29967Y16550D03*
X29432Y16550D03*
X29942Y19075D03*
X29407Y19075D03*
X29942Y18375D03*
X29407Y18375D03*
G54D30*
X46600Y8117D03*
X46600Y7582D03*
G54D19*
X42217Y6150D03*
X41682Y6150D03*
X45132Y3350D03*
X45667Y3350D03*
X44317Y2400D03*
X43782Y2400D03*
X45407Y1500D03*
X45942Y1500D03*
G54D30*
X41900Y3917D03*
X41900Y3382D03*
X46000Y8682D03*
X46000Y9217D03*
X39050Y14732D03*
X39050Y15267D03*
X41850Y11932D03*
X41850Y12467D03*
X40750Y14732D03*
X40750Y15267D03*
G54D19*
X45282Y6400D03*
X45817Y6400D03*
G54D30*
X41000Y16132D03*
X41000Y16667D03*
X41750Y13917D03*
X41750Y13382D03*
X41000Y4732D03*
X41000Y5267D03*
X29900Y15382D03*
X29900Y15917D03*
G54D19*
X21667Y12400D03*
X21132Y12400D03*
G54D30*
X25350Y11132D03*
X25350Y11667D03*
G54D19*
X16117Y16500D03*
X15582Y16500D03*
G54D30*
X26250Y11132D03*
X26250Y11667D03*
G54D19*
X26232Y12350D03*
X26767Y12350D03*
X21732Y13850D03*
X22267Y13850D03*
X23167Y16750D03*
X22632Y16750D03*
X26732Y19150D03*
X27267Y19150D03*
X22632Y17250D03*
X23167Y17250D03*
X22632Y16250D03*
X23167Y16250D03*
X21667Y13100D03*
X21132Y13100D03*
G54D30*
X18200Y13432D03*
X18200Y13967D03*
X18850Y13432D03*
X18850Y13967D03*
G54D19*
X26167Y19150D03*
X25632Y19150D03*
X24532Y19150D03*
X25067Y19150D03*
G54D30*
X23900Y19167D03*
X23900Y18632D03*
G54D19*
X46432Y13000D03*
X46967Y13000D03*
X29432Y17200D03*
X29967Y17200D03*
X46167Y4000D03*
X45632Y4000D03*
G54D30*
X46600Y6482D03*
X46600Y7017D03*
X42550Y3917D03*
X42550Y3382D03*
G54D19*
X44317Y1700D03*
X43782Y1700D03*
G54D30*
X45350Y8682D03*
X45350Y9217D03*
X20750Y14267D03*
X20750Y13732D03*
G54D19*
X33067Y14200D03*
X32532Y14200D03*
X46017Y14200D03*
X45482Y14200D03*
G54D30*
X40250Y15832D03*
X40250Y16367D03*
G54D19*
X39632Y14200D03*
X40167Y14200D03*
G54D30*
X39550Y15832D03*
X39550Y16367D03*
X42300Y16667D03*
X42300Y16132D03*
X41650Y16667D03*
X41650Y16132D03*
X40300Y4732D03*
X40300Y5267D03*
G54D19*
X16532Y13150D03*
X17067Y13150D03*
X16532Y15550D03*
X17067Y15550D03*
G54D29*
X24850Y11400D03*
X49050Y11100D03*
X24600Y15650D03*
X24400Y18600D03*
X24250Y18850D03*
X49950Y17400D03*
X46800Y12500D03*
X48650Y14450D03*
X48950Y16150D03*
X49400Y12900D03*
X48950Y13350D03*
X23750Y15650D03*
X41625Y10750D03*
X48850Y11000D03*
X47350Y13000D03*
X43525Y10625D03*
X23550Y17250D03*
X23550Y17650D03*
X24600Y18400D03*
G54D28*
X15750Y15900D03*
X15750Y15150D03*
X15750Y14300D03*
X15750Y13550D03*
X15750Y12700D03*
X15750Y11950D03*
G54D26*
X28300Y15250D03*
G54D25*
X28300Y15250D03*
X28103Y15053D03*
X28103Y15446D03*
X28496Y15446D03*
X28496Y15053D03*
G54D27*
X28378Y15858D03*
X28221Y15858D03*
X28063Y15858D03*
X27906Y15858D03*
X28693Y15858D03*
X28536Y15858D03*
X27906Y14641D03*
X28063Y14641D03*
X28221Y14641D03*
X28378Y14641D03*
X28536Y14641D03*
X28693Y14641D03*
G54D22*
X25658Y12704D03*
X25658Y12901D03*
X25658Y13098D03*
X25658Y13295D03*
X24441Y13295D03*
X24441Y13098D03*
X24441Y12901D03*
X24441Y12704D03*
G54D23*
X24754Y12391D03*
X24951Y12391D03*
X25148Y12391D03*
X25345Y12391D03*
X25345Y13608D03*
X25148Y13608D03*
X24951Y13608D03*
X24754Y13608D03*
G54D24*
X25050Y13000D03*
G54D25*
X25050Y13000D03*
X25246Y13196D03*
X25246Y12803D03*
X24853Y12803D03*
X24853Y13196D03*
G54D16*
X9900Y11000D03*
G54D17*
X8900Y11000D03*
X8900Y12000D03*
X9900Y12000D03*
G54D16*
X9900Y18000D03*
G54D17*
X8900Y18000D03*
X8900Y19000D03*
X9900Y19000D03*
G54D16*
X6600Y7500D03*
G54D17*
X6600Y6500D03*
X6600Y5500D03*
X6600Y4500D03*
X6600Y3500D03*
X6600Y2500D03*
G54D16*
X33116Y16128D03*
G54D17*
X32116Y16128D03*
G54D20*
X35045Y16246D03*
G54D21*
X35990Y16246D03*
G54D19*
X33951Y16128D03*
X34486Y16128D03*
G54D18*
X36698Y16246D03*
X37448Y16246D03*
G54D65*
X23500Y32375D03*
X23000Y32370D03*
X22500Y32375D03*
X22500Y12375D03*
X23000Y12370D03*
X23500Y12375D03*
X22050Y38400D03*
X20450Y38950D03*
X23900Y39167D03*
X26732Y39150D03*
X47267Y33650D03*
X16532Y35550D03*
X16117Y37500D03*
X19500Y35750D03*
X19800Y33317D03*
X22632Y37250D03*
X29900Y35917D03*
X46432Y33000D03*
X46283Y36250D03*
X42300Y36667D03*
X41750Y33917D03*
X41850Y31932D03*
X46000Y28682D03*
X41950Y24500D03*
X40750Y34732D03*
X4750Y37250D03*
X7700Y37125D03*
X7325Y32275D03*
X4025Y34075D03*
X7200Y24000D03*
X7200Y4000D03*
X4025Y14075D03*
X7325Y12275D03*
X7700Y17125D03*
X4750Y17250D03*
X40750Y14732D03*
X41950Y4500D03*
X46000Y8682D03*
X41850Y11932D03*
X41750Y13917D03*
X42300Y16667D03*
X46283Y16250D03*
X46432Y13000D03*
X29900Y15917D03*
X22632Y17250D03*
X19800Y13317D03*
X19500Y15750D03*
X16117Y17500D03*
X16532Y15550D03*
X47267Y13650D03*
X26732Y19150D03*
X23900Y19167D03*
X20450Y18950D03*
X22050Y18400D03*
X23894Y38275D03*
X44900Y34250D03*
X44900Y14250D03*
X23894Y18275D03*
X25632Y39150D03*
X42300Y36132D03*
X44000Y34050D03*
X47550Y36400D03*
X7150Y24550D03*
X4725Y34650D03*
X7700Y32875D03*
X7700Y12875D03*
X4725Y14650D03*
X7150Y4550D03*
X47550Y16400D03*
X44000Y14050D03*
X42300Y16132D03*
X25632Y19150D03*
X25067Y39150D03*
X41650Y36132D03*
X43750Y33750D03*
X47975Y36400D03*
X4625Y35000D03*
X7725Y32475D03*
X7725Y12475D03*
X4625Y15000D03*
X47975Y16400D03*
X43750Y13750D03*
X41650Y16132D03*
X25067Y19150D03*
X40100Y37100D03*
X26032Y37900D03*
X35990Y36246D03*
X35990Y16246D03*
X26032Y17900D03*
X40100Y17100D03*
X26300Y38450D03*
X39350Y37350D03*
X39350Y17350D03*
X26300Y18450D03*
X48475Y36400D03*
X39700Y37100D03*
X25900Y38550D03*
X49500Y34025D03*
X49500Y14025D03*
X25900Y18550D03*
X39700Y17100D03*
X48475Y16400D03*
X20350Y35650D03*
X21100Y38500D03*
X21100Y18500D03*
X20350Y15650D03*
X20300Y36550D03*
X20450Y38550D03*
X20450Y18550D03*
X20300Y16550D03*
X17174Y33818D03*
X20650Y35950D03*
X20650Y15950D03*
X17174Y13818D03*
X20350Y36150D03*
X17174Y34881D03*
X17174Y14881D03*
X20350Y16150D03*
X42700Y34400D03*
X42700Y14400D03*
X43050Y34050D03*
X43050Y14050D03*
X23167Y37750D03*
X31350Y33575D03*
X31000Y36550D03*
X41900Y30750D03*
X41900Y10750D03*
X31000Y16550D03*
X31350Y13575D03*
X23167Y17750D03*
X43675Y31650D03*
X39632Y34200D03*
X39632Y14200D03*
X43675Y11650D03*
X20175Y34450D03*
X44050Y31600D03*
X44050Y11600D03*
X20175Y14450D03*
X31750Y33575D03*
X45950Y31700D03*
X45950Y11700D03*
X31750Y13575D03*
X46250Y31100D03*
X45417Y36625D03*
X45417Y16625D03*
X46250Y11100D03*
X45050Y31550D03*
X45050Y11550D03*
X45400Y31650D03*
X45400Y11650D03*
X45150Y33950D03*
X45150Y13950D03*
X47275Y31150D03*
X49100Y30775D03*
X49100Y10775D03*
X47275Y11150D03*
X44450Y34200D03*
X36450Y34800D03*
X36950Y35300D03*
X40950Y37900D03*
X40950Y17900D03*
X36950Y15300D03*
X36450Y14800D03*
X44450Y14200D03*
X43500Y32675D03*
X42175Y33425D03*
X42175Y13425D03*
X43500Y12675D03*
X37275Y34100D03*
X45025Y32725D03*
X45025Y12725D03*
X37275Y14100D03*
X46100Y33250D03*
X41083Y30875D03*
X41083Y10875D03*
X46100Y13250D03*
X24900Y31800D03*
X23867Y33200D03*
X23867Y13200D03*
X24900Y11800D03*
X7950Y36825D03*
X7950Y16825D03*
X8225Y38275D03*
X8225Y18275D03*
X8350Y35575D03*
X8750Y36800D03*
X8750Y16800D03*
X8350Y15575D03*
X9150Y36825D03*
X9150Y16825D03*
X9475Y33900D03*
X9475Y13900D03*
X8800Y33225D03*
X8800Y13225D03*
X5800Y37507D03*
X8250Y33225D03*
X8250Y13225D03*
X5800Y17507D03*
X5200Y36675D03*
X5200Y16675D03*
X5500Y36925D03*
X4550Y37700D03*
X4550Y17700D03*
X5500Y16925D03*
X5950Y36650D03*
X5950Y16650D03*
X6200Y36925D03*
X6200Y16925D03*
X6225Y33000D03*
X6225Y13000D03*
X6025Y33300D03*
X6025Y13300D03*
X1704Y35511D03*
X5650Y33150D03*
X5650Y13150D03*
X1704Y15511D03*
X3150Y33007D03*
X5250Y33150D03*
X3150Y35625D03*
X3150Y15625D03*
X5250Y13150D03*
X3150Y13007D03*
X9275Y26825D03*
X9275Y6825D03*
X8975Y26625D03*
X8975Y6625D03*
X9575Y25375D03*
X9575Y5375D03*
X9850Y25625D03*
X9850Y5625D03*
X9850Y24325D03*
X9850Y4325D03*
X9575Y24600D03*
X9575Y4600D03*
X6225Y21450D03*
X6225Y28425D03*
X6225Y8425D03*
X6225Y1450D03*
X7650Y33250D03*
X4675Y33075D03*
X4675Y13075D03*
X7650Y13250D03*
X44700Y31650D03*
X42225Y33800D03*
X42225Y13800D03*
X44700Y11650D03*
X42475Y32675D03*
X40250Y35832D03*
X40250Y15832D03*
X42475Y12675D03*
X39550Y35832D03*
X42850Y32675D03*
X42850Y12675D03*
X39550Y15832D03*
X21100Y38900D03*
X22067Y37750D03*
X16800Y34350D03*
X19700Y32400D03*
X18200Y33967D03*
X22750Y39150D03*
X22632Y37750D03*
X22632Y36250D03*
X23332Y33850D03*
X23332Y33200D03*
X22767Y33200D03*
X26567Y37250D03*
X29432Y36550D03*
X29250Y35382D03*
X39050Y35267D03*
X41000Y36667D03*
X40750Y35267D03*
X41033Y33575D03*
X41850Y32467D03*
X49250Y35900D03*
X33895Y33400D03*
X46732Y33650D03*
X21025Y35175D03*
X41083Y31625D03*
X40025Y32450D03*
X31275Y33033D03*
X15750Y31950D03*
X29407Y38375D03*
X37448Y36246D03*
X37448Y16246D03*
X29407Y18375D03*
X15750Y11950D03*
X31275Y13033D03*
X40025Y12450D03*
X41083Y11625D03*
X21025Y15175D03*
X46732Y13650D03*
X33895Y13400D03*
X49250Y15900D03*
X41850Y12467D03*
X41033Y13575D03*
X40750Y15267D03*
X41000Y16667D03*
X39050Y15267D03*
X29250Y15382D03*
X29432Y16550D03*
X26567Y17250D03*
X22767Y13200D03*
X23332Y13200D03*
X23332Y13850D03*
X22632Y16250D03*
X22632Y17750D03*
X22750Y19150D03*
X18200Y13967D03*
X19700Y12400D03*
X16800Y14350D03*
X22067Y17750D03*
X21100Y18900D03*
X20225Y33725D03*
X23600Y36250D03*
X23600Y16250D03*
X20225Y13725D03*
X23900Y36050D03*
X22267Y33850D03*
X22267Y13850D03*
X23900Y16050D03*
X26032Y37250D03*
X21732Y33850D03*
X21732Y13850D03*
X26032Y17250D03*
X20450Y39350D03*
X20650Y36450D03*
X20650Y16450D03*
X20450Y19350D03*
X32125Y33700D03*
X19800Y34450D03*
X40167Y33200D03*
X40167Y13200D03*
X19800Y14450D03*
X32125Y13700D03*
X21000Y34800D03*
X33050Y35250D03*
X39167Y32250D03*
X46000Y35250D03*
X46000Y15250D03*
X39167Y12250D03*
X33050Y15250D03*
X21000Y14800D03*
X20750Y33732D03*
X32532Y34200D03*
X32775Y33325D03*
X40217Y31250D03*
X40217Y11250D03*
X32775Y13325D03*
X32532Y14200D03*
X20750Y13732D03*
M02*
