M48
;DRILL file {Pcbnew (2013-07-07 BZR 4022)-stable} date 3/1/2014 3:20:29 PM
;FORMAT={2:4/ absolute / inch / suppress leading zeros}
FMAT,2
INCH,TZ
T1C0.012
T2C0.015
T3C0.035
T4C0.105
T5C0.126
%
G90
G05
M72
T1
X23846Y17004
X23846Y16650
X23846Y16296
X24200Y17004
X24200Y16650
X24200Y16296
X24554Y17004
X24554Y16650
X24554Y16296
T2
X1205Y15012
X2650Y15125
X2650Y12508
X3525Y13575
X4050Y17200
X4125Y14500
X4175Y12575
X4225Y14150
X4250Y16750
X4700Y16175
X4750Y12650
X5000Y16425
X5150Y12650
X5300Y17008
X5450Y16150
X5525Y12800
X5700Y16425
X5725Y12500
X6825Y11775
X7150Y12750
X7200Y16625
X7200Y12375
X7225Y11975
X7450Y16325
X7725Y17775
X7750Y12725
X7850Y15075
X8250Y16300
X8300Y12725
X8650Y16325
X8975Y13400
X15250Y11450
X15618Y17000
X16033Y15050
X16300Y13850
X16674Y14381
X16674Y13319
X17700Y13467
X19000Y15250
X19200Y11900
X19300Y13950
X19300Y12817
X19675Y13950
X19725Y13225
X19800Y16050
X19850Y15650
X19850Y15150
X19950Y18850
X19950Y18450
X19950Y18050
X20150Y15950
X20150Y15450
X20250Y13233
X20500Y14300
X20525Y14675
X20600Y18400
X20600Y18000
X21233Y13350
X21550Y17900
X21568Y17250
X21768Y13350
X22000Y11875
X22133Y17250
X22133Y16750
X22133Y15750
X22250Y18650
X22268Y12700
X22500Y11870
X22668Y17250
X22832Y13350
X22832Y12700
X23000Y11875
X23100Y15750
X23368Y12700
X23395Y17775
X23400Y18668
X23400Y15550
X24353Y12697
X24353Y12303
X24400Y11300
X24550Y12500
X24568Y18650
X24747Y12697
X24747Y12303
X25132Y18650
X25400Y18050
X25533Y17400
X25533Y16750
X25800Y17950
X26068Y16750
X26233Y18650
X27603Y14947
X27603Y14553
X27800Y14750
X27997Y14947
X27997Y14553
X28750Y14883
X28908Y17875
X28933Y16050
X29400Y15418
X30500Y16050
X30775Y12533
X30850Y13075
X31250Y13075
X31625Y13200
X32033Y13700
X32275Y12825
X32550Y14750
X33395Y12900
X35490Y15746
X35950Y14300
X36450Y14800
X36775Y13600
X36949Y15746
X38550Y14768
X38667Y11750
X38850Y16850
X39050Y15333
X39133Y13700
X39200Y16600
X39525Y11950
X39600Y16600
X39667Y12700
X39717Y10750
X39750Y15333
X40250Y14768
X40250Y14233
X40450Y17400
X40500Y16168
X40533Y13075
X40583Y11125
X40583Y10375
X41150Y15633
X41250Y13418
X41350Y11968
X41350Y11433
X41400Y10250
X41450Y4000
X41675Y12925
X41725Y13300
X41800Y16168
X41800Y15633
X41975Y12175
X42200Y13900
X42350Y12175
X42550Y13550
X43000Y12175
X43175Y11150
X43250Y13250
X43500Y13550
X43550Y11100
X43950Y13700
X44200Y11150
X44400Y13750
X44525Y12225
X44550Y11050
X44650Y13450
X44900Y11150
X44917Y16125
X45450Y11200
X45500Y14750
X45500Y8183
X45600Y12750
X45750Y10600
X45783Y15750
X45933Y12500
X46232Y13150
X46768Y13150
X46775Y10650
X47050Y15900
X47475Y15900
X47975Y15900
X48600Y10275
X48750Y15400
X49000Y13525
X55075Y17925
X55075Y10950
X56000Y14050
X56050Y13500
X57825Y16125
X58125Y16325
X58425Y14875
X58425Y14100
X58700Y15125
X58700Y13825
T3
X8400Y18500
X8400Y17500
X8400Y11500
X8400Y10500
X9400Y18500
X9400Y17500
X9400Y11500
X9400Y10500
X14450Y17000
X14450Y16000
X14450Y15000
X14450Y14000
X14450Y13000
X14450Y12000
X14550Y18500
X14550Y10500
X14550Y8500
X14550Y500
X15550Y18500
X15550Y10500
X15550Y8500
X15550Y500
X29950Y12900
X29950Y11900
X29950Y10900
X31450Y10900
X31616Y15628
X31800Y18450
X31800Y17450
X32450Y10900
X32616Y15628
X32800Y18450
X32800Y17450
X33800Y18450
X33800Y17450
X34800Y18450
X34800Y17450
X35800Y18450
X35800Y17450
X36800Y18450
X36800Y17450
X37800Y18450
X37800Y17450
X42900Y18300
X42900Y17300
X42900Y16300
X42900Y8300
X42900Y7300
X42900Y6300
X43900Y18300
X43900Y17300
X43900Y16300
X43900Y8300
X43900Y7300
X43900Y6300
X49450Y18500
X49450Y17500
X49450Y11500
X49450Y10500
X50450Y18500
X50450Y17500
X50450Y11500
X50450Y10500
X55450Y17000
X55450Y16000
X55450Y15000
X55450Y14000
X55450Y13000
X55450Y12000
T4
X18100Y14500
X46800Y14500
T5
X21500Y14500
X43400Y14500
T0
M30
