G04 (created by PCBNEW (2013-07-07 BZR 4022)-stable) date 2/23/2014 11:45:34 PM*
%MOIN*%
G04 Gerber Fmt 3.4, Leading zero omitted, Abs format*
%FSLAX34Y34*%
G01*
G70*
G90*
G04 APERTURE LIST*
%ADD10C,0.00590551*%
%ADD11R,0.0551181X0.015748*%
%ADD12R,0.0748031X0.0728346*%
%ADD13R,0.0748031X0.0905512*%
%ADD14R,0.0165X0.0579*%
%ADD15C,0.015*%
%ADD16R,0.0551181X0.0547244*%
%ADD17R,0.191339X0.132283*%
%ADD18R,0.0472441X0.15748*%
%ADD19R,0.0276X0.0394*%
%ADD20R,0.0394X0.0276*%
%ADD21R,0.0394X0.0315*%
%ADD22R,0.0315X0.0394*%
%ADD23R,0.05X0.015*%
%ADD24R,0.045X0.025*%
%ADD25R,0.0512X0.059*%
%ADD26R,0.059X0.0512*%
%ADD27R,0.185039X0.0826772*%
%ADD28R,0.0354331X0.0866142*%
%ADD29R,0.055X0.055*%
%ADD30C,0.055*%
%ADD31R,0.021X0.016*%
%ADD32R,0.011811X0.0324803*%
%ADD33R,0.0137795X0.00984252*%
%ADD34R,0.023622X0.0433071*%
%ADD35R,0.0275591X0.011811*%
%ADD36R,0.019685X0.0137795*%
%ADD37R,0.011811X0.015748*%
%ADD38R,0.0779528X0.0964567*%
%ADD39R,0.0169291X0.0149606*%
%ADD40R,0.023622X0.0165354*%
%ADD41O,0.0110236X0.0389764*%
%ADD42O,0.0389764X0.0110236*%
%ADD43R,0.106299X0.106299*%
%ADD44C,0.023622*%
%ADD45R,0.0165354X0.00866142*%
%ADD46C,0.146*%
%ADD47C,0.125*%
%ADD48R,0.031X0.043*%
%ADD49R,0.0355X0.026*%
%ADD50R,0.026X0.0355*%
%ADD51C,0.01*%
%ADD52R,0.0866142X0.0669291*%
%ADD53C,0.029*%
%ADD54O,0.00972441X0.0393701*%
%ADD55O,0.0393701X0.0110236*%
%ADD56O,0.0110236X0.0393701*%
%ADD57R,0.0669291X0.0669291*%
%ADD58C,0.03*%
%ADD59C,0.006*%
%ADD60C,0.01*%
%ADD61C,0.02*%
G04 APERTURE END LIST*
G54D10*
G54D11*
X48750Y13988D03*
X48750Y14244D03*
X48750Y14500D03*
X48750Y14755D03*
X48750Y15011D03*
G54D12*
X49872Y14057D03*
X49872Y14942D03*
G54D13*
X49872Y13023D03*
X49872Y15976D03*
G54D14*
X43522Y10548D03*
X43778Y10548D03*
X44034Y10548D03*
X44290Y10548D03*
X42758Y12750D03*
X42754Y10548D03*
X43010Y10548D03*
X43266Y10548D03*
X44546Y12752D03*
X44290Y12752D03*
X44034Y12752D03*
X43778Y12752D03*
X43522Y12752D03*
X43266Y12752D03*
X44546Y10548D03*
X43010Y12750D03*
X42498Y10548D03*
X44802Y10548D03*
X44802Y12752D03*
X42498Y12752D03*
X42243Y10548D03*
X45057Y10548D03*
X45057Y12752D03*
X42243Y12752D03*
X41987Y10548D03*
X45313Y10548D03*
X45313Y12752D03*
X41987Y12752D03*
G54D15*
X39250Y4500D03*
X46450Y3500D03*
X46450Y5500D03*
G54D16*
X18700Y15900D03*
X18700Y16624D03*
G54D17*
X17132Y16262D03*
G54D16*
X16450Y18200D03*
X16450Y17475D03*
G54D17*
X18017Y17837D03*
G54D18*
X37804Y12900D03*
X33395Y12900D03*
G54D19*
X41825Y4000D03*
X41450Y4000D03*
X41075Y4000D03*
X41075Y5000D03*
X41450Y5000D03*
X41825Y5000D03*
G54D20*
X44400Y1525D03*
X44400Y1900D03*
X44400Y2275D03*
X45400Y2275D03*
X45400Y1900D03*
X45400Y1525D03*
G54D19*
X44775Y7550D03*
X45150Y7550D03*
X45525Y7550D03*
X45525Y6550D03*
X45150Y6550D03*
X44775Y6550D03*
G54D21*
X45783Y15750D03*
X44917Y15375D03*
X44917Y16125D03*
X39667Y12700D03*
X40533Y13075D03*
X40533Y12325D03*
X39717Y10750D03*
X40583Y11125D03*
X40583Y10375D03*
X38667Y11750D03*
X39533Y12125D03*
X39533Y11375D03*
X30417Y14500D03*
X31283Y14875D03*
X31283Y14125D03*
G54D22*
X19300Y12817D03*
X18925Y13683D03*
X19675Y13683D03*
G54D23*
X22800Y17866D03*
X22800Y18122D03*
X22800Y18378D03*
X22800Y18634D03*
X21100Y18634D03*
X21100Y18378D03*
X21100Y18122D03*
X21100Y17866D03*
G54D24*
X19450Y14300D03*
X20000Y14300D03*
X20000Y14750D03*
X19450Y14750D03*
X32000Y14300D03*
X32550Y14300D03*
X32550Y14750D03*
X32000Y14750D03*
X44950Y14300D03*
X45500Y14300D03*
X45500Y14750D03*
X44950Y14750D03*
G54D25*
X29600Y14100D03*
X28850Y14100D03*
G54D26*
X27550Y18550D03*
X27550Y17800D03*
G54D25*
X19950Y11900D03*
X19200Y11900D03*
G54D27*
X22500Y10650D03*
X22500Y11870D03*
X25400Y15100D03*
X25400Y13879D03*
G54D28*
X28250Y16250D03*
X27423Y16250D03*
G54D26*
X21350Y15750D03*
X21350Y16500D03*
G54D29*
X31800Y17450D03*
G54D30*
X31800Y18450D03*
X32800Y17450D03*
X32800Y18450D03*
X33800Y17450D03*
X33800Y18450D03*
X34800Y17450D03*
X34800Y18450D03*
X35800Y17450D03*
X35800Y18450D03*
X36800Y17450D03*
X36800Y18450D03*
X37800Y17450D03*
X37800Y18450D03*
G54D29*
X14450Y12000D03*
G54D30*
X14450Y13000D03*
X14450Y14000D03*
X14450Y15000D03*
X14450Y16000D03*
X14450Y17000D03*
G54D31*
X22300Y13610D03*
X22300Y13290D03*
X17150Y13190D03*
X17150Y13510D03*
G54D32*
X40856Y14011D03*
X41053Y14011D03*
X41250Y14011D03*
X41446Y14011D03*
X41643Y14011D03*
X41643Y14988D03*
X41446Y14988D03*
X41250Y14988D03*
X41053Y14988D03*
X40856Y14988D03*
G54D33*
X39655Y14303D03*
X39655Y14500D03*
X39655Y14696D03*
X39144Y14696D03*
X39144Y14303D03*
G54D34*
X16674Y14381D03*
X16300Y14381D03*
X15925Y14381D03*
X15925Y13318D03*
X16300Y13318D03*
X16674Y13318D03*
G54D35*
X20531Y15454D03*
X20531Y15651D03*
X20531Y15848D03*
X20531Y16045D03*
X19468Y16045D03*
X19468Y15848D03*
X19468Y15651D03*
X19468Y15454D03*
G54D36*
X19398Y17483D03*
X19398Y17227D03*
X19398Y16972D03*
X19398Y16716D03*
G54D37*
X20540Y17483D03*
X20540Y17227D03*
X20540Y16972D03*
X20540Y16716D03*
G54D38*
X20091Y17100D03*
G54D39*
X19950Y17657D03*
X19950Y16542D03*
G54D40*
X20324Y18144D03*
X20324Y18400D03*
X20324Y18655D03*
X19575Y18655D03*
X19575Y18400D03*
X19575Y18144D03*
G54D29*
X50450Y18500D03*
G54D30*
X49450Y18500D03*
X49450Y17500D03*
X50450Y17500D03*
G54D29*
X50450Y11500D03*
G54D30*
X49450Y11500D03*
X49450Y10500D03*
X50450Y10500D03*
G54D10*
G36*
X48686Y11871D02*
X48492Y11676D01*
X48422Y11746D01*
X48617Y11941D01*
X48686Y11871D01*
X48686Y11871D01*
G37*
G36*
X48547Y12010D02*
X48352Y11815D01*
X48283Y11885D01*
X48478Y12080D01*
X48547Y12010D01*
X48547Y12010D01*
G37*
G36*
X48408Y12149D02*
X48213Y11954D01*
X48144Y12024D01*
X48339Y12219D01*
X48408Y12149D01*
X48408Y12149D01*
G37*
G36*
X48269Y12289D02*
X48074Y12094D01*
X48004Y12163D01*
X48199Y12358D01*
X48269Y12289D01*
X48269Y12289D01*
G37*
G36*
X48130Y12428D02*
X47935Y12233D01*
X47865Y12302D01*
X48060Y12497D01*
X48130Y12428D01*
X48130Y12428D01*
G37*
G36*
X47991Y12567D02*
X47796Y12372D01*
X47726Y12442D01*
X47921Y12636D01*
X47991Y12567D01*
X47991Y12567D01*
G37*
G36*
X46877Y11453D02*
X46682Y11258D01*
X46613Y11328D01*
X46807Y11523D01*
X46877Y11453D01*
X46877Y11453D01*
G37*
G36*
X47016Y11314D02*
X46821Y11119D01*
X46752Y11189D01*
X46947Y11384D01*
X47016Y11314D01*
X47016Y11314D01*
G37*
G36*
X47155Y11175D02*
X46960Y10980D01*
X46891Y11050D01*
X47086Y11245D01*
X47155Y11175D01*
X47155Y11175D01*
G37*
G36*
X47295Y11036D02*
X47100Y10841D01*
X47030Y10910D01*
X47225Y11105D01*
X47295Y11036D01*
X47295Y11036D01*
G37*
G36*
X47434Y10897D02*
X47239Y10702D01*
X47169Y10771D01*
X47364Y10966D01*
X47434Y10897D01*
X47434Y10897D01*
G37*
G36*
X47573Y10757D02*
X47378Y10563D01*
X47308Y10632D01*
X47503Y10827D01*
X47573Y10757D01*
X47573Y10757D01*
G37*
G36*
X47378Y12636D02*
X47573Y12442D01*
X47503Y12372D01*
X47308Y12567D01*
X47378Y12636D01*
X47378Y12636D01*
G37*
G36*
X47239Y12497D02*
X47434Y12302D01*
X47364Y12233D01*
X47169Y12428D01*
X47239Y12497D01*
X47239Y12497D01*
G37*
G36*
X47100Y12358D02*
X47295Y12163D01*
X47225Y12094D01*
X47030Y12289D01*
X47100Y12358D01*
X47100Y12358D01*
G37*
G36*
X46960Y12219D02*
X47155Y12024D01*
X47086Y11954D01*
X46891Y12149D01*
X46960Y12219D01*
X46960Y12219D01*
G37*
G36*
X46821Y12080D02*
X47016Y11885D01*
X46947Y11815D01*
X46752Y12010D01*
X46821Y12080D01*
X46821Y12080D01*
G37*
G36*
X46682Y11941D02*
X46877Y11746D01*
X46807Y11676D01*
X46613Y11871D01*
X46682Y11941D01*
X46682Y11941D01*
G37*
G36*
X47796Y10827D02*
X47991Y10632D01*
X47921Y10563D01*
X47726Y10757D01*
X47796Y10827D01*
X47796Y10827D01*
G37*
G36*
X47935Y10966D02*
X48130Y10771D01*
X48060Y10702D01*
X47865Y10897D01*
X47935Y10966D01*
X47935Y10966D01*
G37*
G36*
X48074Y11105D02*
X48269Y10910D01*
X48199Y10841D01*
X48004Y11036D01*
X48074Y11105D01*
X48074Y11105D01*
G37*
G36*
X48213Y11245D02*
X48408Y11050D01*
X48339Y10980D01*
X48144Y11175D01*
X48213Y11245D01*
X48213Y11245D01*
G37*
G36*
X48352Y11384D02*
X48547Y11189D01*
X48478Y11119D01*
X48283Y11314D01*
X48352Y11384D01*
X48352Y11384D01*
G37*
G36*
X48492Y11523D02*
X48686Y11328D01*
X48617Y11258D01*
X48422Y11453D01*
X48492Y11523D01*
X48492Y11523D01*
G37*
G36*
X48415Y11600D02*
X47650Y10834D01*
X46884Y11600D01*
X47650Y12365D01*
X48415Y11600D01*
X48415Y11600D01*
G37*
G54D29*
X14550Y18500D03*
G54D30*
X15550Y18500D03*
G54D29*
X14550Y10500D03*
G54D30*
X15550Y10500D03*
G54D29*
X42900Y18300D03*
G54D30*
X43900Y18300D03*
G54D29*
X42900Y17300D03*
G54D30*
X43900Y17300D03*
G54D29*
X42900Y16300D03*
G54D30*
X43900Y16300D03*
G54D29*
X14550Y8500D03*
G54D30*
X15550Y8500D03*
G54D29*
X14550Y500D03*
G54D30*
X15550Y500D03*
G54D29*
X42900Y6300D03*
G54D30*
X43900Y6300D03*
G54D29*
X42900Y7300D03*
G54D30*
X43900Y7300D03*
G54D29*
X42900Y8300D03*
G54D30*
X43900Y8300D03*
G54D41*
X24692Y17455D03*
X24495Y17455D03*
X24298Y17455D03*
X24101Y17455D03*
X23904Y17455D03*
X23707Y17455D03*
X23707Y15844D03*
X23904Y15844D03*
X24101Y15844D03*
X24298Y15844D03*
X24495Y15844D03*
X24692Y15844D03*
G54D42*
X23394Y17142D03*
X23394Y16945D03*
X23394Y16748D03*
X23394Y16551D03*
X23394Y16354D03*
X23394Y16157D03*
X25005Y16157D03*
X25005Y16354D03*
X25005Y16551D03*
X25005Y16748D03*
X25005Y16945D03*
X25005Y17142D03*
G54D43*
X24200Y16650D03*
G54D44*
X24554Y16295D03*
X24200Y16295D03*
X23845Y16295D03*
X23845Y16650D03*
X24200Y16650D03*
X24554Y16650D03*
X24554Y17004D03*
X24200Y17004D03*
X23845Y17004D03*
G54D45*
X48177Y14342D03*
X48177Y14500D03*
X48177Y14657D03*
X47922Y14657D03*
X47922Y14500D03*
X47922Y14342D03*
G54D46*
X21500Y14500D03*
X43400Y14500D03*
G54D47*
X18100Y14500D03*
X46800Y14500D03*
G54D22*
X31150Y11667D03*
X30775Y12533D03*
X31525Y12533D03*
G54D29*
X29950Y10900D03*
G54D30*
X29950Y11900D03*
X29950Y12900D03*
G54D29*
X31450Y10900D03*
G54D30*
X32450Y10900D03*
G54D48*
X7654Y12188D03*
X8254Y12188D03*
X8254Y13218D03*
X7654Y13218D03*
X3795Y17711D03*
X3195Y17711D03*
X3195Y16681D03*
X3795Y16681D03*
X6745Y12311D03*
X6145Y12311D03*
X6145Y11281D03*
X6745Y11281D03*
X6745Y15911D03*
X6145Y15911D03*
X6145Y14881D03*
X6745Y14881D03*
X57245Y15911D03*
X56645Y15911D03*
X56645Y14881D03*
X57245Y14881D03*
X3795Y12311D03*
X3195Y12311D03*
X3195Y11281D03*
X3795Y11281D03*
X57245Y12311D03*
X56645Y12311D03*
X56645Y11281D03*
X57245Y11281D03*
X7654Y15788D03*
X8254Y15788D03*
X8254Y16818D03*
X7654Y16818D03*
X6745Y14111D03*
X6145Y14111D03*
X6145Y13081D03*
X6745Y13081D03*
X6745Y17711D03*
X6145Y17711D03*
X6145Y16681D03*
X6745Y16681D03*
X1704Y12188D03*
X2304Y12188D03*
X2304Y13218D03*
X1704Y13218D03*
X3795Y14111D03*
X3195Y14111D03*
X3195Y13081D03*
X3795Y13081D03*
X58154Y15788D03*
X58754Y15788D03*
X58754Y16818D03*
X58154Y16818D03*
X57245Y17711D03*
X56645Y17711D03*
X56645Y16681D03*
X57245Y16681D03*
X57245Y14111D03*
X56645Y14111D03*
X56645Y13081D03*
X57245Y13081D03*
X58154Y12188D03*
X58754Y12188D03*
X58754Y13218D03*
X58154Y13218D03*
X1704Y15788D03*
X2304Y15788D03*
X2304Y16818D03*
X1704Y16818D03*
X3795Y15911D03*
X3195Y15911D03*
X3195Y14881D03*
X3795Y14881D03*
G54D49*
X26800Y15382D03*
X26800Y15917D03*
G54D50*
X15617Y17000D03*
X15082Y17000D03*
X23367Y12700D03*
X22832Y12700D03*
X25732Y12500D03*
X26267Y12500D03*
X25732Y13150D03*
X26267Y13150D03*
X21732Y12700D03*
X22267Y12700D03*
G54D49*
X28750Y15417D03*
X28750Y14882D03*
G54D50*
X22667Y17250D03*
X22132Y17250D03*
X23367Y13350D03*
X22832Y13350D03*
X23367Y14000D03*
X22832Y14000D03*
X25532Y16750D03*
X26067Y16750D03*
X25532Y16050D03*
X26067Y16050D03*
G54D49*
X22700Y15167D03*
X22700Y14632D03*
X26650Y17017D03*
X26650Y16482D03*
G54D50*
X25532Y17400D03*
X26067Y17400D03*
X46767Y13150D03*
X46232Y13150D03*
X21032Y17250D03*
X21567Y17250D03*
X29467Y16050D03*
X28932Y16050D03*
X29442Y18575D03*
X28907Y18575D03*
X29442Y17875D03*
X28907Y17875D03*
G54D49*
X46100Y7617D03*
X46100Y7082D03*
G54D50*
X41717Y5650D03*
X41182Y5650D03*
X44632Y2850D03*
X45167Y2850D03*
X43817Y1900D03*
X43282Y1900D03*
X44907Y1000D03*
X45442Y1000D03*
G54D49*
X41400Y3417D03*
X41400Y2882D03*
X45500Y8182D03*
X45500Y8717D03*
X38550Y14232D03*
X38550Y14767D03*
X41350Y11432D03*
X41350Y11967D03*
X40250Y14232D03*
X40250Y14767D03*
G54D50*
X44782Y5900D03*
X45317Y5900D03*
G54D49*
X40500Y15632D03*
X40500Y16167D03*
X41250Y13417D03*
X41250Y12882D03*
X40500Y4232D03*
X40500Y4767D03*
X29400Y14882D03*
X29400Y15417D03*
G54D50*
X21167Y11900D03*
X20632Y11900D03*
G54D49*
X24850Y10632D03*
X24850Y11167D03*
G54D50*
X15617Y16000D03*
X15082Y16000D03*
G54D49*
X25750Y10632D03*
X25750Y11167D03*
G54D50*
X25732Y11850D03*
X26267Y11850D03*
X21232Y13350D03*
X21767Y13350D03*
X22667Y16250D03*
X22132Y16250D03*
X26232Y18650D03*
X26767Y18650D03*
X22132Y16750D03*
X22667Y16750D03*
X22132Y15750D03*
X22667Y15750D03*
X21167Y12600D03*
X20632Y12600D03*
G54D49*
X17700Y12932D03*
X17700Y13467D03*
X18350Y12932D03*
X18350Y13467D03*
G54D50*
X25667Y18650D03*
X25132Y18650D03*
X24032Y18650D03*
X24567Y18650D03*
G54D49*
X23400Y18667D03*
X23400Y18132D03*
G54D50*
X45932Y12500D03*
X46467Y12500D03*
X28932Y16700D03*
X29467Y16700D03*
X45667Y3500D03*
X45132Y3500D03*
G54D49*
X46100Y5982D03*
X46100Y6517D03*
X42050Y3417D03*
X42050Y2882D03*
G54D50*
X43817Y1200D03*
X43282Y1200D03*
G54D49*
X44850Y8182D03*
X44850Y8717D03*
X20250Y13767D03*
X20250Y13232D03*
G54D50*
X32567Y13700D03*
X32032Y13700D03*
X45517Y13700D03*
X44982Y13700D03*
G54D49*
X39750Y15332D03*
X39750Y15867D03*
G54D50*
X39132Y13700D03*
X39667Y13700D03*
G54D49*
X39050Y15332D03*
X39050Y15867D03*
X41800Y16167D03*
X41800Y15632D03*
X41150Y16167D03*
X41150Y15632D03*
X39800Y4232D03*
X39800Y4767D03*
G54D50*
X16032Y12650D03*
X16567Y12650D03*
X16032Y15050D03*
X16567Y15050D03*
G54D51*
X24350Y10900D03*
X48550Y10600D03*
X24100Y15150D03*
X23900Y18100D03*
X23750Y18350D03*
X49450Y16900D03*
X46300Y12000D03*
X48150Y13950D03*
X48450Y15650D03*
X48900Y12400D03*
X48450Y12850D03*
X23250Y15150D03*
X41125Y10250D03*
X48350Y10500D03*
X46850Y12500D03*
X43025Y10125D03*
X23050Y16750D03*
X23050Y17150D03*
X24100Y17900D03*
G54D26*
X15250Y15400D03*
X15250Y14650D03*
X15250Y13800D03*
X15250Y13050D03*
X15250Y12200D03*
X15250Y11450D03*
G54D52*
X27800Y14750D03*
G54D53*
X27800Y14750D03*
X27603Y14553D03*
X27603Y14946D03*
X27996Y14946D03*
X27996Y14553D03*
G54D54*
X27878Y15358D03*
X27721Y15358D03*
X27563Y15358D03*
X27406Y15358D03*
X28193Y15358D03*
X28036Y15358D03*
X27406Y14141D03*
X27563Y14141D03*
X27721Y14141D03*
X27878Y14141D03*
X28036Y14141D03*
X28193Y14141D03*
G54D55*
X25158Y12204D03*
X25158Y12401D03*
X25158Y12598D03*
X25158Y12795D03*
X23941Y12795D03*
X23941Y12598D03*
X23941Y12401D03*
X23941Y12204D03*
G54D56*
X24254Y11891D03*
X24451Y11891D03*
X24648Y11891D03*
X24845Y11891D03*
X24845Y13108D03*
X24648Y13108D03*
X24451Y13108D03*
X24254Y13108D03*
G54D57*
X24550Y12500D03*
G54D53*
X24550Y12500D03*
X24746Y12696D03*
X24746Y12303D03*
X24353Y12303D03*
X24353Y12696D03*
G54D29*
X9400Y10500D03*
G54D30*
X8400Y10500D03*
X8400Y11500D03*
X9400Y11500D03*
G54D29*
X9400Y17500D03*
G54D30*
X8400Y17500D03*
X8400Y18500D03*
X9400Y18500D03*
G54D29*
X55450Y17000D03*
G54D30*
X55450Y16000D03*
X55450Y15000D03*
X55450Y14000D03*
X55450Y13000D03*
X55450Y12000D03*
G54D58*
X22000Y11875D03*
X22500Y11870D03*
X23000Y11875D03*
X56050Y13500D03*
X3525Y13575D03*
X6825Y11775D03*
X7200Y16625D03*
X4250Y16750D03*
X40250Y14232D03*
X41450Y4000D03*
X45500Y8182D03*
X41350Y11432D03*
X41250Y13417D03*
X41800Y16167D03*
X45783Y15750D03*
X45932Y12500D03*
X29400Y15417D03*
X22132Y16750D03*
X19300Y12817D03*
X19000Y15250D03*
X15617Y17000D03*
X16032Y15050D03*
X46767Y13150D03*
X26232Y18650D03*
X23400Y18667D03*
X19950Y18450D03*
X21550Y17900D03*
X44400Y13750D03*
X23394Y17775D03*
X7200Y12375D03*
X4225Y14150D03*
X56000Y14050D03*
X47050Y15900D03*
X43500Y13550D03*
X41800Y15632D03*
X25132Y18650D03*
X7225Y11975D03*
X4125Y14500D03*
X47475Y15900D03*
X43250Y13250D03*
X41150Y15632D03*
X24567Y18650D03*
X25532Y17400D03*
X39600Y16600D03*
X38850Y16850D03*
X25800Y17950D03*
X49000Y13525D03*
X25400Y18050D03*
X39200Y16600D03*
X47975Y15900D03*
X20600Y18000D03*
X19850Y15150D03*
X19950Y18050D03*
X19800Y16050D03*
X20150Y15450D03*
X16674Y13318D03*
X16674Y14381D03*
X19850Y15650D03*
X42200Y13900D03*
X42550Y13550D03*
X41400Y10250D03*
X30500Y16050D03*
X30850Y13075D03*
X22667Y17250D03*
X39132Y13700D03*
X43175Y11150D03*
X43550Y11100D03*
X19675Y13950D03*
X45450Y11200D03*
X31250Y13075D03*
X44917Y16125D03*
X45750Y10600D03*
X44550Y11050D03*
X44900Y11150D03*
X44650Y13450D03*
X48600Y10275D03*
X46775Y10650D03*
X35950Y14300D03*
X36450Y14800D03*
X40450Y17400D03*
X43950Y13700D03*
X41675Y12925D03*
X43000Y12175D03*
X44525Y12225D03*
X36775Y13600D03*
X40583Y10375D03*
X45600Y12750D03*
X23367Y12700D03*
X24400Y11300D03*
X7450Y16325D03*
X7725Y17775D03*
X8250Y16300D03*
X7850Y15075D03*
X8650Y16325D03*
X8975Y13400D03*
X8300Y12725D03*
X7750Y12725D03*
X5300Y17007D03*
X4700Y16175D03*
X4050Y17200D03*
X5000Y16425D03*
X5450Y16150D03*
X5700Y16425D03*
X5725Y12500D03*
X5525Y12800D03*
X5150Y12650D03*
X1204Y15011D03*
X2650Y15125D03*
X4750Y12650D03*
X2650Y12507D03*
X58125Y16325D03*
X57825Y16125D03*
X58425Y14875D03*
X58700Y15125D03*
X58700Y13825D03*
X58425Y14100D03*
X55075Y17925D03*
X55075Y10950D03*
X4175Y12575D03*
X7150Y12750D03*
X41725Y13300D03*
X44200Y11150D03*
X39750Y15332D03*
X41975Y12175D03*
X42350Y12175D03*
X39050Y15332D03*
X15250Y11450D03*
X30775Y12533D03*
X39525Y11950D03*
X40583Y11125D03*
X20525Y14675D03*
X46232Y13150D03*
X33395Y12900D03*
X48750Y15400D03*
X41350Y11967D03*
X40533Y13075D03*
X40250Y14767D03*
X40500Y16167D03*
X38550Y14767D03*
X28750Y14882D03*
X28932Y16050D03*
X27550Y17800D03*
X26067Y16750D03*
X22267Y12700D03*
X22832Y12700D03*
X22832Y13350D03*
X22132Y15750D03*
X22132Y17250D03*
X22250Y18650D03*
X17700Y13467D03*
X19200Y11900D03*
X16300Y13850D03*
X21567Y17250D03*
X20600Y18400D03*
X21767Y13350D03*
X23400Y15550D03*
X21232Y13350D03*
X25532Y16750D03*
X23100Y15750D03*
X19725Y13225D03*
X20150Y15950D03*
X19950Y18850D03*
X39667Y12700D03*
X19300Y13950D03*
X31625Y13200D03*
X45500Y14750D03*
X38667Y11750D03*
X32550Y14750D03*
X20500Y14300D03*
X39717Y10750D03*
X32275Y12825D03*
X32032Y13700D03*
X20250Y13232D03*
G54D59*
X24850Y10632D02*
X24317Y10100D01*
X21167Y10232D02*
X21167Y11900D01*
X21300Y10100D02*
X21167Y10232D01*
X21350Y10100D02*
X21300Y10100D01*
X21450Y10100D02*
X21350Y10100D01*
X24317Y10100D02*
X21450Y10100D01*
X25750Y10632D02*
X24850Y10632D01*
G54D60*
X56050Y13500D02*
X55350Y13500D01*
X55050Y15600D02*
X55450Y16000D01*
X55050Y13800D02*
X55050Y15600D01*
X55350Y13500D02*
X55050Y13800D01*
G54D59*
X16032Y12650D02*
X16032Y12207D01*
X14850Y12600D02*
X14450Y13000D01*
X14850Y11900D02*
X14850Y12600D01*
X14925Y11825D02*
X14850Y11900D01*
X15650Y11825D02*
X14925Y11825D01*
X16032Y12207D02*
X15650Y11825D01*
X39655Y14303D02*
X40179Y14303D01*
X40250Y14232D02*
X40179Y14303D01*
X41400Y3417D02*
X41400Y3950D01*
X41450Y4000D02*
X41400Y3950D01*
X44400Y1900D02*
X44825Y1900D01*
X44850Y5350D02*
X43900Y6300D01*
X44850Y3225D02*
X44850Y5350D01*
X44875Y3200D02*
X44850Y3225D01*
X44875Y1950D02*
X44875Y3200D01*
X44825Y1900D02*
X44875Y1950D01*
X45150Y7832D02*
X45500Y8182D01*
X45150Y7550D02*
X45150Y7832D01*
X41987Y10548D02*
X41987Y10795D01*
X41350Y11432D02*
X41987Y10795D01*
X41250Y14011D02*
X41250Y13417D01*
X41150Y16167D02*
X41800Y16167D01*
X40500Y15632D02*
X40615Y15632D01*
X40615Y15632D02*
X41150Y16167D01*
X28932Y16700D02*
X28932Y16682D01*
X28750Y15550D02*
X28750Y15417D01*
X28600Y15700D02*
X28750Y15550D01*
X28600Y16350D02*
X28600Y15700D01*
X28932Y16682D02*
X28600Y16350D01*
X29442Y18575D02*
X29442Y17875D01*
X29442Y17875D02*
X29200Y17632D01*
X29200Y17632D02*
X29200Y16967D01*
X29200Y16967D02*
X28932Y16700D01*
X30417Y14500D02*
X30417Y14833D01*
X29832Y15417D02*
X29400Y15417D01*
X30417Y14833D02*
X29832Y15417D01*
X19468Y15454D02*
X19204Y15454D01*
X19204Y15454D02*
X19000Y15250D01*
X15617Y16000D02*
X15617Y17000D01*
X47441Y12504D02*
X46795Y13150D01*
X46767Y13150D02*
X46795Y13150D01*
X40500Y15632D02*
X40500Y15450D01*
X41053Y15246D02*
X41053Y14988D01*
X40950Y15350D02*
X41053Y15246D01*
X40600Y15350D02*
X40950Y15350D01*
X40500Y15450D02*
X40600Y15350D01*
X47858Y12504D02*
X47997Y12365D01*
X47441Y12504D02*
X47858Y12504D01*
X44400Y1900D02*
X43817Y1900D01*
X28193Y14141D02*
X28251Y14200D01*
X28251Y14200D02*
X28300Y14200D01*
X28193Y15358D02*
X28235Y15400D01*
X28235Y15400D02*
X28350Y15400D01*
X25667Y18650D02*
X26232Y18650D01*
X23417Y18650D02*
X23400Y18667D01*
X24032Y18650D02*
X23417Y18650D01*
X19575Y18400D02*
X19900Y18400D01*
X19900Y18400D02*
X19950Y18450D01*
X21100Y17866D02*
X21516Y17866D01*
X21516Y17866D02*
X21550Y17900D01*
X16032Y12650D02*
X16300Y12917D01*
X16300Y12917D02*
X16300Y13318D01*
X22800Y18378D02*
X22228Y18378D01*
X22228Y18378D02*
X21950Y18100D01*
X21350Y15750D02*
X21800Y15750D01*
X21416Y18634D02*
X21100Y18634D01*
X21950Y18100D02*
X21416Y18634D01*
X21950Y17750D02*
X21950Y18100D01*
X21850Y17650D02*
X21950Y17750D01*
X21850Y15800D02*
X21850Y17650D01*
X21800Y15750D02*
X21850Y15800D01*
X44550Y12756D02*
X44546Y12752D01*
X44550Y13200D02*
X44550Y12756D01*
X44400Y13350D02*
X44550Y13200D01*
X44400Y13400D02*
X44400Y13350D01*
X44400Y13750D02*
X44400Y13400D01*
X23394Y17142D02*
X23394Y17775D01*
X23394Y17775D02*
X23394Y18127D01*
X23394Y18127D02*
X23400Y18132D01*
X23050Y17150D02*
X23050Y16945D01*
X23050Y16945D02*
X23045Y16945D01*
X22667Y16750D02*
X22850Y16750D01*
X23045Y16945D02*
X23394Y16945D01*
X22850Y16750D02*
X23045Y16945D01*
X55450Y14600D02*
X55450Y15000D01*
X56000Y14050D02*
X55450Y14600D01*
X41800Y15632D02*
X42057Y15632D01*
X42550Y16725D02*
X46200Y16725D01*
X42475Y16650D02*
X42550Y16725D01*
X42475Y16050D02*
X42475Y16650D01*
X42057Y15632D02*
X42475Y16050D01*
X46225Y16725D02*
X47050Y15900D01*
X46200Y16725D02*
X46225Y16725D01*
X43522Y13528D02*
X43522Y12752D01*
X43522Y13528D02*
X43500Y13550D01*
X41800Y15350D02*
X41700Y15250D01*
X41800Y15632D02*
X41800Y15350D01*
X41643Y14988D02*
X41650Y14994D01*
X41650Y15200D02*
X41650Y14994D01*
X41700Y15250D02*
X41650Y15200D01*
X25132Y18382D02*
X25000Y18250D01*
X25000Y18250D02*
X24650Y18250D01*
X24650Y18250D02*
X24625Y18225D01*
X24625Y18225D02*
X24025Y18225D01*
X24025Y18225D02*
X23904Y18104D01*
X23904Y17455D02*
X23904Y18104D01*
X25132Y18650D02*
X25132Y18382D01*
X23750Y18350D02*
X23850Y18250D01*
X44670Y16845D02*
X46529Y16845D01*
X41182Y15632D02*
X41450Y15900D01*
X41450Y15900D02*
X42155Y15900D01*
X42155Y15900D02*
X42354Y16099D01*
X42354Y16099D02*
X42354Y16699D01*
X42354Y16699D02*
X42500Y16845D01*
X42500Y16845D02*
X44670Y16845D01*
X41150Y15632D02*
X41182Y15632D01*
X46529Y16845D02*
X47475Y15900D01*
X43266Y12752D02*
X43266Y13234D01*
X43266Y13234D02*
X43250Y13250D01*
X24300Y18350D02*
X24400Y18350D01*
X41446Y14988D02*
X41446Y15335D01*
X41150Y15632D02*
X41446Y15335D01*
X24567Y18367D02*
X24550Y18350D01*
X24567Y18650D02*
X24567Y18367D01*
X24550Y18350D02*
X24400Y18350D01*
X24400Y18350D02*
X23950Y18350D01*
X23950Y18350D02*
X23850Y18250D01*
X23850Y18250D02*
X23707Y18107D01*
X23707Y17455D02*
X23707Y18107D01*
X24100Y17900D02*
X24101Y17898D01*
X24101Y17898D02*
X24101Y17455D01*
X24100Y17900D02*
X24100Y17950D01*
X24100Y17950D02*
X24100Y17900D01*
X24101Y17455D02*
X24100Y17456D01*
X24100Y17456D02*
X24100Y18050D01*
X24100Y18050D02*
X24150Y18100D01*
X24150Y18100D02*
X24700Y18100D01*
X26417Y18300D02*
X26767Y18650D01*
X25300Y18300D02*
X26417Y18300D01*
X25100Y18100D02*
X25300Y18300D01*
X25050Y18100D02*
X25100Y18100D01*
X24700Y18100D02*
X25050Y18100D01*
X24700Y18100D02*
X24700Y18100D01*
X27550Y18550D02*
X27450Y18650D01*
X27450Y18650D02*
X26767Y18650D01*
X44075Y17725D02*
X44190Y17725D01*
X42050Y16600D02*
X42475Y17025D01*
X42475Y17025D02*
X42475Y17625D01*
X42475Y17625D02*
X42575Y17725D01*
X42575Y17725D02*
X44075Y17725D01*
X39600Y16600D02*
X42050Y16600D01*
X47657Y14342D02*
X47922Y14342D01*
X47625Y14375D02*
X47657Y14342D01*
X47625Y15700D02*
X47625Y14375D01*
X47725Y15800D02*
X47625Y15700D01*
X47725Y16000D02*
X47725Y15800D01*
X46759Y16965D02*
X47725Y16000D01*
X44950Y16965D02*
X46759Y16965D01*
X44190Y17725D02*
X44950Y16965D01*
X48150Y13950D02*
X47900Y14200D01*
X47900Y14320D02*
X47922Y14342D01*
X47900Y14200D02*
X47900Y14320D01*
X48750Y13988D02*
X48188Y13988D01*
X48188Y13988D02*
X48150Y13950D01*
X47302Y12365D02*
X47284Y12365D01*
X48750Y13600D02*
X48750Y13988D01*
X48600Y13450D02*
X48750Y13600D01*
X47100Y13450D02*
X48600Y13450D01*
X46500Y13450D02*
X47100Y13450D01*
X46500Y12850D02*
X46500Y13450D01*
X46800Y12850D02*
X46500Y12850D01*
X47284Y12365D02*
X46800Y12850D01*
X49270Y14479D02*
X49270Y15704D01*
X46875Y17250D02*
X45050Y17250D01*
X47975Y16150D02*
X46875Y17250D01*
X48825Y16150D02*
X47975Y16150D01*
X49270Y15704D02*
X48825Y16150D01*
X41040Y16840D02*
X41950Y16840D01*
X41950Y16840D02*
X42229Y17119D01*
X42229Y17119D02*
X42229Y17719D01*
X42229Y17719D02*
X42475Y17964D01*
X42475Y17964D02*
X42475Y18675D01*
X42475Y18675D02*
X42525Y18725D01*
X42525Y18725D02*
X44075Y18725D01*
X44075Y18725D02*
X44325Y18475D01*
X44325Y18475D02*
X44325Y17929D01*
X44325Y17929D02*
X45004Y17250D01*
X45004Y17250D02*
X45050Y17250D01*
X38850Y16850D02*
X39275Y16850D01*
X24495Y17455D02*
X24500Y17459D01*
X25650Y17800D02*
X25800Y17950D01*
X25600Y17800D02*
X25650Y17800D01*
X24500Y17800D02*
X25600Y17800D01*
X24500Y17459D02*
X24500Y17800D01*
X39899Y16840D02*
X41040Y16840D01*
X39769Y16970D02*
X39899Y16840D01*
X39395Y16970D02*
X39769Y16970D01*
X39275Y16850D02*
X39395Y16970D01*
X45050Y17250D02*
X45125Y17250D01*
X48900Y12400D02*
X48744Y12555D01*
X48744Y12555D02*
X48744Y12555D01*
X48276Y12087D02*
X48639Y12450D01*
X48639Y12450D02*
X48744Y12555D01*
X48744Y12555D02*
X49270Y13080D01*
X48770Y14479D02*
X48750Y14500D01*
X49270Y14479D02*
X48770Y14479D01*
X49270Y14429D02*
X49270Y14479D01*
X49270Y14200D02*
X49270Y14429D01*
X49270Y13080D02*
X49270Y14200D01*
G54D60*
X47922Y14500D02*
X48177Y14500D01*
X48177Y14500D02*
X48750Y14500D01*
G54D59*
X48750Y14244D02*
X48276Y14244D01*
X48276Y14244D02*
X48177Y14342D01*
X49000Y13525D02*
X49000Y13100D01*
X49000Y13100D02*
X48600Y12700D01*
X49150Y13775D02*
X49150Y13675D01*
X41250Y16720D02*
X42000Y16720D01*
X39450Y16850D02*
X39695Y16850D01*
X39695Y16850D02*
X39720Y16850D01*
X39720Y16850D02*
X39850Y16720D01*
X39850Y16720D02*
X41250Y16720D01*
X25400Y18050D02*
X25300Y17950D01*
X25150Y17950D02*
X25300Y17950D01*
X25150Y17950D02*
X24750Y17950D01*
X39200Y16600D02*
X39450Y16850D01*
X47975Y15925D02*
X47975Y15900D01*
X47815Y16084D02*
X47975Y15925D01*
X47809Y16084D02*
X47815Y16084D01*
X47784Y16109D02*
X47809Y16084D01*
X47759Y16134D02*
X47784Y16109D01*
X47584Y16309D02*
X47759Y16134D01*
X46809Y17085D02*
X47584Y16309D01*
X45000Y17085D02*
X46809Y17085D01*
X44942Y17142D02*
X45000Y17085D01*
X44942Y17142D02*
X44942Y17142D01*
X44239Y17845D02*
X44942Y17142D01*
X42525Y17845D02*
X44239Y17845D01*
X42350Y17669D02*
X42525Y17845D01*
X42350Y17069D02*
X42350Y17669D01*
X42000Y16720D02*
X42350Y17069D01*
X49150Y13675D02*
X49000Y13525D01*
X48450Y12850D02*
X48600Y12700D01*
X48600Y12700D02*
X48610Y12700D01*
X48610Y12700D02*
X48137Y12226D01*
X48750Y14244D02*
X48755Y14250D01*
X49150Y14250D02*
X49150Y13775D01*
X49150Y13775D02*
X49150Y13750D01*
X48755Y14250D02*
X49150Y14250D01*
X24300Y17950D02*
X24298Y17948D01*
X24300Y17950D02*
X24750Y17950D01*
X24298Y17948D02*
X24298Y17455D01*
X24750Y17950D02*
X24750Y17950D01*
X24298Y17455D02*
X24300Y17456D01*
X22667Y16250D02*
X22667Y16267D01*
X23098Y16748D02*
X23394Y16748D01*
X23018Y16748D02*
X23098Y16748D01*
X22900Y16630D02*
X23018Y16748D01*
X22900Y16500D02*
X22900Y16630D01*
X22667Y16267D02*
X22900Y16500D01*
X20531Y15454D02*
X20226Y15150D01*
X20226Y15150D02*
X19850Y15150D01*
X20324Y18144D02*
X20505Y18144D01*
X20528Y18122D02*
X20650Y18122D01*
X20650Y18122D02*
X21100Y18122D01*
X20505Y18144D02*
X20528Y18122D01*
X19398Y16716D02*
X19216Y16716D01*
X19198Y15651D02*
X19468Y15651D01*
X19150Y15700D02*
X19198Y15651D01*
X19150Y15800D02*
X19150Y15700D01*
X19150Y16650D02*
X19150Y15800D01*
X19216Y16716D02*
X19150Y16650D01*
X19398Y17227D02*
X19527Y17227D01*
X19255Y18655D02*
X19575Y18655D01*
X19100Y18500D02*
X19255Y18655D01*
X19100Y18200D02*
X19100Y18500D01*
X19600Y17700D02*
X19100Y18200D01*
X19600Y17300D02*
X19600Y17700D01*
X19527Y17227D02*
X19600Y17300D01*
X21100Y18378D02*
X21472Y18378D01*
X21432Y17650D02*
X21032Y17250D01*
X21650Y17650D02*
X21432Y17650D01*
X21800Y17800D02*
X21650Y17650D01*
X21800Y18050D02*
X21800Y17800D01*
X21472Y18378D02*
X21800Y18050D01*
X19575Y18144D02*
X19855Y18144D01*
X19855Y18144D02*
X19950Y18050D01*
X19905Y18094D02*
X19950Y18050D01*
X19800Y16050D02*
X19795Y16045D01*
X19468Y16045D02*
X19795Y16045D01*
X20531Y15651D02*
X20351Y15651D01*
X20351Y15651D02*
X20150Y15450D01*
X16567Y12867D02*
X16674Y12974D01*
X16674Y12974D02*
X16674Y13318D01*
X16567Y12650D02*
X16567Y12867D01*
X19468Y15848D02*
X19651Y15848D01*
X16600Y15017D02*
X16567Y15050D01*
X16674Y14675D02*
X16674Y14381D01*
X16600Y14750D02*
X16674Y14675D01*
X16600Y15017D02*
X16600Y14750D01*
X19651Y15848D02*
X19850Y15650D01*
X42200Y13525D02*
X42200Y13900D01*
X42758Y13217D02*
X42675Y13300D01*
X42675Y13300D02*
X42425Y13300D01*
X42425Y13300D02*
X42200Y13525D01*
X42758Y12750D02*
X42758Y13217D01*
X43010Y13165D02*
X42875Y13300D01*
X42875Y13300D02*
X42875Y13425D01*
X42875Y13425D02*
X42750Y13550D01*
X42750Y13550D02*
X42550Y13550D01*
X43010Y13165D02*
X43010Y12750D01*
X29467Y16700D02*
X31050Y16700D01*
X31050Y16700D02*
X31800Y17450D01*
X29467Y16050D02*
X29467Y16700D01*
X42754Y10548D02*
X42754Y11154D01*
X48250Y10400D02*
X48350Y10500D01*
X46600Y10400D02*
X48250Y10400D01*
X45550Y11450D02*
X46600Y10400D01*
X43050Y11450D02*
X45550Y11450D01*
X42754Y11154D02*
X43050Y11450D01*
X47997Y10834D02*
X48332Y10500D01*
X48332Y10500D02*
X48350Y10500D01*
X48450Y15650D02*
X49150Y15650D01*
X48755Y14750D02*
X48750Y14755D01*
X49150Y14750D02*
X48755Y14750D01*
X49150Y15650D02*
X49150Y14750D01*
X46884Y11947D02*
X46732Y12100D01*
X46400Y12100D02*
X46300Y12000D01*
X46732Y12100D02*
X46400Y12100D01*
X46467Y12500D02*
X46889Y12500D01*
X46889Y12500D02*
X47162Y12226D01*
X30850Y15700D02*
X30500Y16050D01*
X30850Y13075D02*
X30850Y15700D01*
X41125Y10250D02*
X41400Y10250D01*
X42243Y10193D02*
X42243Y10548D01*
X42150Y10100D02*
X42243Y10193D01*
X41550Y10100D02*
X42150Y10100D01*
X41400Y10250D02*
X41550Y10100D01*
X22800Y17700D02*
X22667Y17567D01*
X22800Y17866D02*
X22800Y17700D01*
X22667Y17567D02*
X22667Y17250D01*
X22800Y18122D02*
X22800Y17866D01*
X39132Y14291D02*
X39132Y13700D01*
X39144Y14303D02*
X39132Y14291D01*
X43010Y10985D02*
X43010Y10548D01*
X43010Y10985D02*
X43175Y11150D01*
X43010Y10548D02*
X43025Y10533D01*
X43025Y10533D02*
X43025Y10125D01*
X38550Y14232D02*
X38620Y14303D01*
X38620Y14303D02*
X39144Y14303D01*
X43778Y11072D02*
X43750Y11100D01*
X43750Y11100D02*
X43550Y11100D01*
X43778Y11072D02*
X43778Y10548D01*
X19675Y13683D02*
X19675Y13950D01*
X31283Y14125D02*
X31283Y13108D01*
X45057Y10907D02*
X45350Y11200D01*
X45350Y11200D02*
X45450Y11200D01*
X45057Y10907D02*
X45057Y10548D01*
X31283Y13108D02*
X31250Y13075D01*
X45698Y10548D02*
X45750Y10600D01*
X45313Y10548D02*
X45698Y10548D01*
X39350Y11700D02*
X39725Y11700D01*
X44802Y11877D02*
X44625Y11700D01*
X39325Y11725D02*
X38150Y12900D01*
X39350Y11700D02*
X39325Y11725D01*
X37804Y12900D02*
X38150Y12900D01*
X44802Y11877D02*
X44802Y12752D01*
X44615Y11690D02*
X44625Y11700D01*
X42940Y11690D02*
X44615Y11690D01*
X42925Y11675D02*
X42940Y11690D01*
X41050Y11675D02*
X42925Y11675D01*
X40975Y11600D02*
X41050Y11675D01*
X40975Y10900D02*
X40975Y11600D01*
X40825Y10750D02*
X40975Y10900D01*
X40225Y10750D02*
X40825Y10750D01*
X39950Y10475D02*
X40225Y10750D01*
X39475Y10475D02*
X39950Y10475D01*
X39375Y10575D02*
X39475Y10475D01*
X39375Y10975D02*
X39375Y10575D01*
X39450Y11050D02*
X39375Y10975D01*
X39750Y11050D02*
X39450Y11050D01*
X39850Y11150D02*
X39750Y11050D01*
X39850Y11575D02*
X39850Y11150D01*
X39725Y11700D02*
X39850Y11575D01*
X44546Y11046D02*
X44550Y11050D01*
X44546Y10548D02*
X44546Y11046D01*
X42900Y6300D02*
X42367Y6300D01*
X42367Y6300D02*
X41717Y5650D01*
X41825Y5000D02*
X41825Y5542D01*
X41825Y5542D02*
X41717Y5650D01*
X44907Y1000D02*
X44200Y1000D01*
X44050Y850D02*
X43650Y850D01*
X44200Y1000D02*
X44050Y850D01*
X45400Y1525D02*
X45100Y1525D01*
X44907Y1332D02*
X44907Y1000D01*
X45100Y1525D02*
X44907Y1332D01*
X44802Y11052D02*
X44900Y11150D01*
X44802Y10548D02*
X44802Y11052D01*
X43400Y6800D02*
X42900Y7300D01*
X43650Y850D02*
X43550Y950D01*
X43550Y950D02*
X43550Y2800D01*
X43550Y2800D02*
X44700Y3950D01*
X44700Y3950D02*
X44700Y5000D01*
X44700Y5000D02*
X43850Y5850D01*
X43850Y5850D02*
X43650Y5850D01*
X43650Y5850D02*
X43400Y6100D01*
X43400Y6100D02*
X43400Y6800D01*
X45057Y13193D02*
X44900Y13350D01*
X44900Y13350D02*
X44750Y13350D01*
X44750Y13350D02*
X44650Y13450D01*
X45057Y12752D02*
X45057Y13193D01*
X44775Y6550D02*
X44775Y6525D01*
X43400Y7800D02*
X42900Y8300D01*
X44150Y7800D02*
X43400Y7800D01*
X44300Y7650D02*
X44150Y7800D01*
X44300Y7000D02*
X44300Y7650D01*
X44775Y6525D02*
X44300Y7000D01*
X44775Y6550D02*
X44775Y5907D01*
X44775Y5907D02*
X44782Y5900D01*
X43300Y11570D02*
X45599Y11570D01*
X42498Y11073D02*
X42995Y11570D01*
X42995Y11570D02*
X43300Y11570D01*
X42498Y10548D02*
X42498Y11073D01*
X48600Y10550D02*
X48550Y10600D01*
X48600Y10275D02*
X48600Y10550D01*
X46519Y10650D02*
X46775Y10650D01*
X45599Y11570D02*
X46519Y10650D01*
X48137Y10973D02*
X48510Y10600D01*
X48510Y10600D02*
X48550Y10600D01*
X32783Y12533D02*
X31525Y12533D01*
X32950Y12700D02*
X32783Y12533D01*
X32950Y13800D02*
X32950Y12700D01*
X33050Y13900D02*
X32950Y13800D01*
X35550Y13900D02*
X33050Y13900D01*
X35950Y14300D02*
X35550Y13900D01*
X38740Y17090D02*
X36450Y14800D01*
X40140Y17090D02*
X38740Y17090D01*
X40450Y17400D02*
X40140Y17090D01*
X43778Y12752D02*
X43778Y13528D01*
X43778Y13528D02*
X43950Y13700D01*
X40658Y12450D02*
X41450Y12450D01*
X41450Y12450D02*
X41675Y12675D01*
X41675Y12675D02*
X41675Y12925D01*
X40533Y12325D02*
X40658Y12450D01*
X44034Y12259D02*
X44034Y12752D01*
X43950Y12175D02*
X44034Y12259D01*
X43000Y12175D02*
X43950Y12175D01*
X39533Y11375D02*
X37830Y11375D01*
X44290Y12460D02*
X44290Y12752D01*
X44525Y12225D02*
X44290Y12460D01*
X37229Y13145D02*
X36775Y13600D01*
X37229Y11975D02*
X37229Y13145D01*
X37830Y11375D02*
X37229Y11975D01*
X45313Y12752D02*
X45598Y12752D01*
X45600Y12750D02*
X45598Y12752D01*
X27406Y15358D02*
X27563Y15358D01*
X27406Y14141D02*
X27398Y14150D01*
X27398Y14150D02*
X27250Y14150D01*
X28036Y14141D02*
X28036Y13886D01*
X27900Y13750D02*
X26950Y13750D01*
X28036Y13886D02*
X27900Y13750D01*
X24650Y11890D02*
X24650Y11600D01*
X24650Y11600D02*
X24650Y11550D01*
X24650Y11550D02*
X24400Y11300D01*
X24648Y11891D02*
X24650Y11890D01*
X24850Y11167D02*
X24582Y10900D01*
X24582Y10900D02*
X24350Y10900D01*
X24845Y11891D02*
X24845Y11172D01*
X24845Y11172D02*
X24850Y11167D01*
G54D60*
X7450Y16325D02*
X7717Y16325D01*
X7717Y16325D02*
X8254Y15788D01*
X7725Y17775D02*
X7650Y17775D01*
X6145Y18220D02*
X6145Y17711D01*
X6375Y18450D02*
X6145Y18220D01*
X6975Y18450D02*
X6375Y18450D01*
X7650Y17775D02*
X6975Y18450D01*
X6145Y15911D02*
X6145Y15704D01*
X7425Y15075D02*
X7850Y15075D01*
X7100Y15400D02*
X7425Y15075D01*
X6450Y15400D02*
X7100Y15400D01*
X6145Y15704D02*
X6450Y15400D01*
X6145Y14111D02*
X6145Y13854D01*
X8650Y15025D02*
X8650Y16325D01*
X7200Y13575D02*
X8650Y15025D01*
X6425Y13575D02*
X7200Y13575D01*
X6145Y13854D02*
X6425Y13575D01*
X6145Y12311D02*
X6336Y12311D01*
X8975Y13950D02*
X8975Y13400D01*
X8625Y14300D02*
X8975Y13950D01*
X8151Y14300D02*
X8625Y14300D01*
X7266Y13414D02*
X8151Y14300D01*
X6500Y13414D02*
X7266Y13414D01*
X6425Y13339D02*
X6500Y13414D01*
X6425Y12400D02*
X6425Y13339D01*
X6336Y12311D02*
X6425Y12400D01*
X8254Y12679D02*
X8254Y12188D01*
X8300Y12725D02*
X8254Y12679D01*
X5300Y17007D02*
X5300Y17000D01*
X4700Y16175D02*
X4700Y15550D01*
X2667Y15425D02*
X2304Y15788D01*
X4575Y15425D02*
X2667Y15425D01*
X4700Y15550D02*
X4575Y15425D01*
X4050Y17200D02*
X3707Y17200D01*
X3707Y17200D02*
X3195Y17711D01*
X5450Y16150D02*
X5450Y16350D01*
X3195Y15889D02*
X3195Y15911D01*
X3500Y15585D02*
X3195Y15889D01*
X4400Y15585D02*
X3500Y15585D01*
X4524Y15709D02*
X4400Y15585D01*
X4524Y15925D02*
X4524Y15709D01*
X4425Y16025D02*
X4524Y15925D01*
X4425Y16300D02*
X4425Y16025D01*
X4550Y16425D02*
X4425Y16300D01*
X4625Y16425D02*
X4550Y16425D01*
X4900Y16700D02*
X4625Y16425D01*
X5100Y16700D02*
X4900Y16700D01*
X5450Y16350D02*
X5100Y16700D01*
X5700Y16425D02*
X5725Y16400D01*
X3475Y14391D02*
X3195Y14111D01*
X3475Y15150D02*
X3475Y14391D01*
X3589Y15264D02*
X3475Y15150D01*
X4964Y15264D02*
X3589Y15264D01*
X5725Y16025D02*
X4964Y15264D01*
X5725Y16400D02*
X5725Y16025D01*
X5725Y12500D02*
X5725Y12625D01*
X3522Y11985D02*
X3195Y12311D01*
X4375Y11985D02*
X3522Y11985D01*
X4475Y12085D02*
X4375Y11985D01*
X4475Y12800D02*
X4475Y12085D01*
X4750Y13075D02*
X4475Y12800D01*
X5650Y13075D02*
X4750Y13075D01*
X5800Y12925D02*
X5650Y13075D01*
X5800Y12700D02*
X5800Y12925D01*
X5725Y12625D02*
X5800Y12700D01*
X2304Y12188D02*
X2304Y12020D01*
X5425Y12700D02*
X5525Y12800D01*
X5425Y12350D02*
X5425Y12700D01*
X4900Y11825D02*
X5425Y12350D01*
X2500Y11825D02*
X4900Y11825D01*
X2304Y12020D02*
X2500Y11825D01*
X1204Y15004D02*
X1204Y15011D01*
X1204Y15004D02*
X1200Y15000D01*
X2650Y12507D02*
X2650Y12500D01*
X58754Y16145D02*
X58754Y15788D01*
X58575Y16325D02*
X58754Y16145D01*
X58125Y16325D02*
X58575Y16325D01*
X57825Y16125D02*
X57825Y16800D01*
X57182Y17175D02*
X56645Y17711D01*
X57450Y17175D02*
X57182Y17175D01*
X57825Y16800D02*
X57450Y17175D01*
X58425Y14875D02*
X58050Y14875D01*
X57157Y15400D02*
X56645Y15911D01*
X57525Y15400D02*
X57157Y15400D01*
X58050Y14875D02*
X57525Y15400D01*
X58700Y15125D02*
X58700Y14775D01*
X57575Y14500D02*
X57033Y14500D01*
X57033Y14500D02*
X56645Y14111D01*
X58425Y14500D02*
X57575Y14500D01*
X58700Y14775D02*
X58425Y14500D01*
X58700Y15125D02*
X58675Y15150D01*
X58700Y13825D02*
X57725Y13825D01*
X56925Y12591D02*
X56645Y12311D01*
X56925Y13475D02*
X56925Y12591D01*
X57000Y13550D02*
X56925Y13475D01*
X57450Y13550D02*
X57000Y13550D01*
X57725Y13825D02*
X57450Y13550D01*
X58700Y13825D02*
X58725Y13825D01*
X58425Y14100D02*
X58800Y14100D01*
X59025Y12458D02*
X58754Y12188D01*
X59025Y13875D02*
X59025Y12458D01*
X58800Y14100D02*
X59025Y13875D01*
X55075Y10950D02*
X55100Y10975D01*
G54D59*
X49450Y17500D02*
X49450Y16900D01*
G54D61*
X14450Y16000D02*
X15082Y16000D01*
G54D59*
X41643Y13381D02*
X41725Y13300D01*
X41643Y14011D02*
X41643Y13706D01*
X41643Y13706D02*
X41643Y13381D01*
X44290Y11060D02*
X44200Y11150D01*
X44290Y10548D02*
X44290Y11060D01*
X39655Y14696D02*
X39655Y15238D01*
X39750Y15332D02*
X39655Y15238D01*
X42243Y12443D02*
X41975Y12175D01*
X42243Y12443D02*
X42243Y12752D01*
X42498Y12323D02*
X42350Y12175D01*
X42498Y12323D02*
X42498Y12752D01*
X39144Y14696D02*
X39144Y15238D01*
X39050Y15332D02*
X39144Y15238D01*
X39533Y12125D02*
X39525Y12117D01*
X39525Y12117D02*
X39525Y11950D01*
X20850Y15200D02*
X20850Y15000D01*
X20804Y16045D02*
X20850Y16000D01*
X20850Y16000D02*
X20850Y15200D01*
X20531Y16045D02*
X20804Y16045D01*
X20850Y15000D02*
X20525Y14675D01*
X48415Y11947D02*
X48667Y12200D01*
X49750Y12200D02*
X50450Y11500D01*
X48667Y12200D02*
X49750Y12200D01*
X39655Y14500D02*
X39400Y14500D01*
X39400Y14500D02*
X39400Y14425D01*
X48750Y15011D02*
X48750Y15400D01*
X43282Y1900D02*
X43282Y2767D01*
X42600Y6800D02*
X41525Y7875D01*
X43150Y6800D02*
X42600Y6800D01*
X43275Y6675D02*
X43150Y6800D01*
X43275Y5900D02*
X43275Y6675D01*
X43225Y5850D02*
X43275Y5900D01*
X42925Y5850D02*
X43225Y5850D01*
X42100Y5025D02*
X42925Y5850D01*
X42100Y3950D02*
X42100Y5025D01*
X42150Y3900D02*
X42100Y3950D01*
X43282Y2767D02*
X42150Y3900D01*
X45442Y1000D02*
X45442Y742D01*
X43282Y942D02*
X43282Y1200D01*
X43575Y650D02*
X43282Y942D01*
X45350Y650D02*
X43575Y650D01*
X45442Y742D02*
X45350Y650D01*
X45400Y1900D02*
X45700Y1900D01*
X45750Y1307D02*
X45442Y1000D01*
X45750Y1850D02*
X45750Y1307D01*
X45700Y1900D02*
X45750Y1850D01*
X41182Y5650D02*
X41182Y7532D01*
X41182Y7532D02*
X41525Y7875D01*
X43450Y8750D02*
X43900Y8300D01*
X41525Y7875D02*
X42400Y8750D01*
X42400Y8750D02*
X43450Y8750D01*
X44585Y7110D02*
X44475Y7220D01*
X44475Y7220D02*
X44475Y7725D01*
X44475Y7725D02*
X43900Y8300D01*
X45150Y6550D02*
X45150Y7050D01*
X44645Y7050D02*
X44585Y7110D01*
X44585Y7110D02*
X44570Y7125D01*
X45150Y7050D02*
X44645Y7050D01*
X44850Y8717D02*
X45500Y8717D01*
X43900Y8300D02*
X44317Y8717D01*
X44317Y8717D02*
X44850Y8717D01*
X41400Y2882D02*
X42050Y2882D01*
X41400Y2882D02*
X40917Y2882D01*
X41450Y4650D02*
X41300Y4500D01*
X41300Y4500D02*
X40250Y4500D01*
X40250Y4500D02*
X40150Y4400D01*
X40150Y4400D02*
X40150Y3650D01*
X40150Y3650D02*
X40917Y2882D01*
X41450Y4650D02*
X41450Y5000D01*
X43282Y1900D02*
X43282Y1200D01*
X24692Y15844D02*
X24200Y16337D01*
X24200Y16337D02*
X24200Y16650D01*
X24495Y15844D02*
X24692Y15844D01*
X41987Y12752D02*
X41987Y12604D01*
X41350Y11967D02*
X41987Y12604D01*
X41250Y12882D02*
X40725Y12882D01*
X40725Y12882D02*
X40533Y13075D01*
X40856Y14011D02*
X40856Y13398D01*
X40856Y13398D02*
X40533Y13075D01*
X40856Y14011D02*
X41053Y14011D01*
X41446Y14011D02*
X41446Y14203D01*
X41053Y14203D02*
X41053Y14011D01*
X41150Y14300D02*
X41053Y14203D01*
X41350Y14300D02*
X41150Y14300D01*
X41446Y14203D02*
X41350Y14300D01*
X40856Y14750D02*
X40267Y14750D01*
X40267Y14750D02*
X40250Y14767D01*
X41250Y14988D02*
X41250Y14750D01*
X40856Y14743D02*
X40856Y14750D01*
X40856Y14750D02*
X40856Y14988D01*
X40900Y14700D02*
X40856Y14743D01*
X41200Y14700D02*
X40900Y14700D01*
X41250Y14750D02*
X41200Y14700D01*
X39750Y15867D02*
X40050Y16167D01*
X40500Y16167D02*
X40050Y16167D01*
X39750Y15867D02*
X39050Y15867D01*
X39050Y15867D02*
X38767Y15867D01*
X38767Y15867D02*
X38667Y15867D01*
X38667Y15867D02*
X38550Y15750D01*
X38550Y15750D02*
X38550Y14767D01*
X47922Y14657D02*
X48177Y14657D01*
X48177Y14657D02*
X48177Y14777D01*
X48177Y14777D02*
X48177Y14827D01*
X48177Y14827D02*
X48227Y14827D01*
X48227Y14827D02*
X48400Y15000D01*
X48400Y15000D02*
X48738Y15000D01*
X48738Y15000D02*
X48750Y15011D01*
X28850Y14100D02*
X28750Y14200D01*
X28750Y14200D02*
X28750Y14882D01*
X28907Y17875D02*
X27625Y17875D01*
X27625Y17875D02*
X27550Y17800D01*
X28907Y18575D02*
X28907Y17875D01*
X26650Y16750D02*
X26067Y16750D01*
X26650Y16482D02*
X26650Y16067D01*
X26650Y16067D02*
X26800Y15917D01*
X26950Y17300D02*
X27050Y17300D01*
X27050Y17300D02*
X27550Y17800D01*
X26650Y16482D02*
X26650Y16750D01*
X26067Y17400D02*
X26850Y17400D01*
X26900Y16750D02*
X26650Y16750D01*
X26950Y16800D02*
X26900Y16750D01*
X26950Y17300D02*
X26950Y16800D01*
X26850Y17400D02*
X26950Y17300D01*
X22132Y16250D02*
X22132Y15750D01*
X22800Y18634D02*
X22266Y18634D01*
X22266Y18634D02*
X22250Y18650D01*
X26267Y13150D02*
X26450Y13150D01*
X26450Y11850D02*
X26267Y11850D01*
X26500Y11900D02*
X26450Y11850D01*
X26500Y13100D02*
X26500Y11900D01*
X26450Y13150D02*
X26500Y13100D01*
X17150Y13510D02*
X17657Y13510D01*
X17657Y13510D02*
X17700Y13467D01*
X20632Y12600D02*
X19900Y12600D01*
X19900Y12600D02*
X19200Y11900D01*
X16300Y14381D02*
X16300Y13850D01*
X41450Y5000D02*
X41450Y5382D01*
X41450Y5382D02*
X41182Y5650D01*
X45150Y6550D02*
X45150Y6300D01*
X45300Y5917D02*
X45317Y5900D01*
X45300Y6150D02*
X45300Y5917D01*
X45150Y6300D02*
X45300Y6150D01*
X39667Y13700D02*
X39400Y13967D01*
X39400Y13967D02*
X39400Y14425D01*
X39400Y14425D02*
X39400Y14500D01*
X38550Y14767D02*
X38817Y14500D01*
X39982Y14500D02*
X40250Y14767D01*
X39400Y14500D02*
X39982Y14500D01*
X38817Y14500D02*
X39400Y14500D01*
X27878Y14141D02*
X27878Y14671D01*
X27878Y14671D02*
X27800Y14750D01*
X27721Y14141D02*
X27721Y14671D01*
X27721Y14671D02*
X27800Y14750D01*
X27563Y14141D02*
X27563Y14513D01*
X27563Y14513D02*
X27800Y14750D01*
X27878Y15358D02*
X27878Y14828D01*
X27878Y14828D02*
X27800Y14750D01*
X23941Y12401D02*
X24451Y12401D01*
X24451Y12401D02*
X24550Y12500D01*
X23941Y12598D02*
X24451Y12598D01*
X24451Y12598D02*
X24550Y12500D01*
X25158Y12401D02*
X24648Y12401D01*
X24648Y12401D02*
X24550Y12500D01*
X25158Y12401D02*
X25350Y12401D01*
X26267Y11932D02*
X26267Y11850D01*
X26023Y12176D02*
X26267Y11932D01*
X25576Y12176D02*
X26023Y12176D01*
X25350Y12401D02*
X25576Y12176D01*
X20324Y18400D02*
X20600Y18400D01*
G54D61*
X14450Y17000D02*
X15082Y17000D01*
G54D59*
X20000Y14300D02*
X20000Y14017D01*
X20000Y14017D02*
X20250Y13767D01*
X25005Y16551D02*
X25198Y16551D01*
X25717Y16400D02*
X26067Y16050D01*
X25350Y16400D02*
X25717Y16400D01*
X25198Y16551D02*
X25350Y16400D01*
X25005Y16945D02*
X25245Y16945D01*
X26617Y17050D02*
X26650Y17017D01*
X25350Y17050D02*
X26617Y17050D01*
X25245Y16945D02*
X25350Y17050D01*
X23394Y15555D02*
X23400Y15550D01*
X23394Y16157D02*
X23394Y15555D01*
X21767Y13350D02*
X21500Y13082D01*
X21167Y12917D02*
X21167Y12600D01*
X21300Y13050D02*
X21167Y12917D01*
X21500Y13050D02*
X21300Y13050D01*
X21500Y13082D02*
X21500Y13050D01*
X22300Y13610D02*
X22027Y13610D01*
X22027Y13610D02*
X21767Y13350D01*
X23150Y16551D02*
X23121Y16551D01*
X22909Y15992D02*
X22667Y15750D01*
X22909Y16340D02*
X22909Y15992D01*
X23121Y16551D02*
X22909Y16340D01*
X23150Y16551D02*
X23394Y16551D01*
X18350Y12932D02*
X18832Y12450D01*
X20832Y12950D02*
X21232Y13350D01*
X20375Y12950D02*
X20832Y12950D01*
X20145Y12720D02*
X20375Y12950D01*
X19850Y12720D02*
X20145Y12720D01*
X19580Y12450D02*
X19850Y12720D01*
X18832Y12450D02*
X19580Y12450D01*
X25530Y16748D02*
X25532Y16750D01*
X25005Y16748D02*
X25530Y16748D01*
X18350Y13467D02*
X18592Y13225D01*
X23104Y16354D02*
X23050Y16300D01*
X23104Y16354D02*
X23394Y16354D01*
X23050Y15800D02*
X23100Y15750D01*
X23050Y16300D02*
X23050Y15800D01*
X18592Y13225D02*
X19725Y13225D01*
X18350Y13467D02*
X18482Y13467D01*
X17815Y12932D02*
X18350Y13467D01*
X17700Y12932D02*
X17815Y12932D01*
X17150Y13190D02*
X17150Y13050D01*
X17267Y12932D02*
X17700Y12932D01*
X17150Y13050D02*
X17267Y12932D01*
X25158Y12795D02*
X25972Y12795D01*
X25972Y12795D02*
X26267Y12500D01*
X25732Y11850D02*
X25732Y11185D01*
X25732Y11185D02*
X25750Y11167D01*
X25158Y12204D02*
X25377Y12204D01*
X25377Y12204D02*
X25732Y11850D01*
X19950Y11900D02*
X20632Y11900D01*
X25158Y12598D02*
X25634Y12598D01*
X25634Y12598D02*
X25732Y12500D01*
X24845Y13108D02*
X25690Y13108D01*
X25690Y13108D02*
X25732Y13150D01*
X24451Y11891D02*
X24254Y11891D01*
X24254Y11891D02*
X23012Y10650D01*
X23012Y10650D02*
X22500Y10650D01*
X20324Y18655D02*
X20144Y18655D01*
X20251Y15848D02*
X20150Y15950D01*
X20251Y15848D02*
X20531Y15848D01*
X20144Y18655D02*
X19950Y18850D01*
X15925Y14381D02*
X15518Y14381D01*
X15518Y14381D02*
X15250Y14650D01*
X15250Y14650D02*
X15250Y13800D01*
X15250Y13050D02*
X15250Y12200D01*
X15250Y13050D02*
X15657Y13050D01*
X15657Y13050D02*
X15925Y13318D01*
X19398Y17483D02*
X18371Y17483D01*
X18371Y17483D02*
X18017Y17837D01*
X19398Y16972D02*
X19047Y16972D01*
X19047Y16972D02*
X18700Y16624D01*
X15250Y15400D02*
X15532Y15400D01*
X15682Y15550D02*
X16420Y15550D01*
X16420Y15550D02*
X17132Y16262D01*
X15532Y15400D02*
X15682Y15550D01*
X29400Y14882D02*
X29600Y14682D01*
X29600Y14682D02*
X29600Y14100D01*
X27721Y15358D02*
X27721Y15578D01*
X27423Y15876D02*
X27423Y16250D01*
X27721Y15578D02*
X27423Y15876D01*
X28036Y15358D02*
X28036Y15586D01*
X28250Y15800D02*
X28250Y16250D01*
X28036Y15586D02*
X28250Y15800D01*
X43817Y1200D02*
X44142Y1525D01*
X44142Y1525D02*
X44400Y1525D01*
X44400Y2275D02*
X44632Y2507D01*
X44632Y2507D02*
X44632Y2850D01*
X45667Y3500D02*
X46450Y3500D01*
X45167Y2850D02*
X45132Y2885D01*
X45132Y2885D02*
X45132Y3500D01*
X45167Y2850D02*
X45400Y2617D01*
X45400Y2617D02*
X45400Y2275D01*
X39800Y4232D02*
X39532Y4500D01*
X39532Y4500D02*
X39250Y4500D01*
X41825Y4000D02*
X42050Y3775D01*
X42050Y3775D02*
X42050Y3417D01*
X40500Y4232D02*
X40732Y4000D01*
X40732Y4000D02*
X41075Y4000D01*
X40500Y4767D02*
X40732Y5000D01*
X40732Y5000D02*
X41075Y5000D01*
X39800Y4767D02*
X40500Y4767D01*
X45525Y7550D02*
X46032Y7550D01*
X46032Y7550D02*
X46100Y7617D01*
X44850Y8182D02*
X44775Y8107D01*
X44775Y8107D02*
X44775Y7550D01*
X46100Y5982D02*
X46100Y5600D01*
X46200Y5500D02*
X46450Y5500D01*
X46100Y5600D02*
X46200Y5500D01*
X45525Y6550D02*
X46067Y6550D01*
X46067Y6550D02*
X46100Y6517D01*
X46100Y7082D02*
X46100Y6517D01*
X31283Y14875D02*
X31408Y14750D01*
X31408Y14750D02*
X32000Y14750D01*
X44917Y15375D02*
X44950Y15342D01*
X44950Y15342D02*
X44950Y14750D01*
X18925Y13683D02*
X19050Y13808D01*
X19300Y14750D02*
X19450Y14750D01*
X19050Y14500D02*
X19300Y14750D01*
X19050Y13808D02*
X19050Y14500D01*
X39667Y12700D02*
X40125Y13158D01*
X44675Y14300D02*
X44950Y14300D01*
X44425Y14550D02*
X44675Y14300D01*
X44425Y15025D02*
X44425Y14550D01*
X43950Y15500D02*
X44425Y15025D01*
X42725Y15500D02*
X43950Y15500D01*
X41800Y14575D02*
X42725Y15500D01*
X40775Y14575D02*
X41800Y14575D01*
X40575Y14375D02*
X40775Y14575D01*
X40575Y13900D02*
X40575Y14375D01*
X40125Y13450D02*
X40575Y13900D01*
X40125Y13425D02*
X40125Y13450D01*
X40125Y13158D02*
X40125Y13425D01*
X19450Y14300D02*
X19450Y14100D01*
X19450Y14100D02*
X19300Y13950D01*
X31625Y13925D02*
X32000Y14300D01*
X31625Y13200D02*
X31625Y13925D01*
X34175Y14750D02*
X36000Y14750D01*
X32550Y14750D02*
X34175Y14750D01*
X37350Y12025D02*
X37625Y11750D01*
X37350Y13400D02*
X37350Y12025D01*
X36000Y14750D02*
X37350Y13400D01*
X37625Y11750D02*
X38667Y11750D01*
X20000Y14750D02*
X20000Y14550D01*
X20275Y14525D02*
X20500Y14300D01*
X20025Y14525D02*
X20275Y14525D01*
X20000Y14550D02*
X20025Y14525D01*
G54D60*
X29950Y11900D02*
X30950Y10900D01*
X30950Y10900D02*
X31450Y10900D01*
X31150Y11667D02*
X31683Y11667D01*
X31683Y11667D02*
X32450Y10900D01*
G54D59*
X44982Y13700D02*
X44825Y13700D01*
X42674Y15280D02*
X42674Y15279D01*
X42774Y15379D02*
X42674Y15280D01*
X42825Y15379D02*
X42774Y15379D01*
X43900Y15379D02*
X42825Y15379D01*
X44304Y14975D02*
X43900Y15379D01*
X44304Y14220D02*
X44304Y14975D01*
X44825Y13700D02*
X44304Y14220D01*
X40787Y14412D02*
X40829Y14454D01*
X40695Y13850D02*
X40695Y14225D01*
X40695Y14225D02*
X40695Y14225D01*
X40695Y14225D02*
X40695Y14320D01*
X40695Y14320D02*
X40787Y14412D01*
X39717Y10750D02*
X39717Y10842D01*
X40245Y13400D02*
X40684Y13840D01*
X40245Y11370D02*
X40245Y13400D01*
X39717Y10842D02*
X40245Y11370D01*
X40684Y13840D02*
X40695Y13850D01*
X42610Y15215D02*
X42674Y15279D01*
X42674Y15279D02*
X42675Y15279D01*
X42609Y15215D02*
X42610Y15215D01*
X41849Y14454D02*
X42609Y15215D01*
X40829Y14454D02*
X41849Y14454D01*
X32032Y13067D02*
X32275Y12825D01*
X32032Y13700D02*
X32032Y13067D01*
X45500Y14300D02*
X45517Y14282D01*
X45517Y14282D02*
X45517Y13700D01*
X32550Y14300D02*
X32567Y14282D01*
X32567Y14282D02*
X32567Y13700D01*
G54D10*
G36*
X9830Y10169D02*
X9825Y10169D01*
X9825Y17238D01*
X9825Y17789D01*
X9819Y17818D01*
X9808Y17845D01*
X9791Y17870D01*
X9771Y17891D01*
X9746Y17907D01*
X9719Y17918D01*
X9690Y17924D01*
X9661Y17925D01*
X9110Y17925D01*
X9081Y17919D01*
X9054Y17908D01*
X9029Y17891D01*
X9008Y17871D01*
X8992Y17846D01*
X8981Y17819D01*
X8975Y17790D01*
X8974Y17761D01*
X8974Y17210D01*
X8980Y17181D01*
X8991Y17154D01*
X9008Y17129D01*
X9028Y17108D01*
X9053Y17092D01*
X9080Y17081D01*
X9109Y17075D01*
X9138Y17074D01*
X9689Y17074D01*
X9718Y17080D01*
X9745Y17091D01*
X9770Y17108D01*
X9791Y17128D01*
X9807Y17153D01*
X9818Y17180D01*
X9824Y17209D01*
X9825Y17238D01*
X9825Y10169D01*
X9275Y10169D01*
X9275Y13429D01*
X9263Y13487D01*
X9241Y13541D01*
X9208Y13590D01*
X9175Y13624D01*
X9175Y13950D01*
X9173Y13968D01*
X9171Y13986D01*
X9171Y13987D01*
X9171Y13988D01*
X9165Y14006D01*
X9160Y14024D01*
X9160Y14025D01*
X9159Y14026D01*
X9151Y14042D01*
X9142Y14058D01*
X9142Y14059D01*
X9141Y14060D01*
X9129Y14075D01*
X9118Y14089D01*
X9116Y14090D01*
X9116Y14090D01*
X9116Y14090D01*
X9116Y14091D01*
X8766Y14441D01*
X8752Y14453D01*
X8737Y14465D01*
X8737Y14465D01*
X8736Y14466D01*
X8719Y14474D01*
X8703Y14483D01*
X8702Y14484D01*
X8701Y14484D01*
X8684Y14490D01*
X8666Y14495D01*
X8665Y14495D01*
X8664Y14496D01*
X8646Y14497D01*
X8627Y14499D01*
X8625Y14499D01*
X8625Y14499D01*
X8625Y14499D01*
X8625Y14500D01*
X8407Y14500D01*
X8791Y14883D01*
X8803Y14897D01*
X8815Y14912D01*
X8815Y14912D01*
X8816Y14913D01*
X8824Y14930D01*
X8833Y14946D01*
X8834Y14947D01*
X8834Y14948D01*
X8840Y14965D01*
X8845Y14983D01*
X8845Y14984D01*
X8846Y14985D01*
X8847Y15003D01*
X8849Y15022D01*
X8849Y15024D01*
X8849Y15024D01*
X8849Y15024D01*
X8850Y15025D01*
X8850Y16101D01*
X8878Y16128D01*
X8912Y16176D01*
X8936Y16229D01*
X8949Y16287D01*
X8950Y16354D01*
X8938Y16412D01*
X8916Y16466D01*
X8883Y16515D01*
X8842Y16557D01*
X8825Y16568D01*
X8825Y17541D01*
X8808Y17623D01*
X8777Y17700D01*
X8730Y17769D01*
X8672Y17829D01*
X8603Y17875D01*
X8526Y17907D01*
X8444Y17924D01*
X8361Y17925D01*
X8279Y17909D01*
X8202Y17878D01*
X8132Y17832D01*
X8072Y17774D01*
X8025Y17705D01*
X8025Y17703D01*
X8025Y17804D01*
X8013Y17862D01*
X7991Y17916D01*
X7958Y17965D01*
X7917Y18007D01*
X7868Y18040D01*
X7814Y18062D01*
X7756Y18074D01*
X7697Y18075D01*
X7643Y18064D01*
X7116Y18591D01*
X7102Y18603D01*
X7087Y18615D01*
X7087Y18615D01*
X7086Y18616D01*
X7069Y18624D01*
X7053Y18633D01*
X7052Y18634D01*
X7051Y18634D01*
X7034Y18640D01*
X7016Y18645D01*
X7015Y18645D01*
X7014Y18646D01*
X6996Y18647D01*
X6977Y18649D01*
X6975Y18649D01*
X6975Y18649D01*
X6975Y18649D01*
X6975Y18650D01*
X6375Y18650D01*
X6356Y18648D01*
X6338Y18646D01*
X6337Y18646D01*
X6336Y18646D01*
X6318Y18640D01*
X6300Y18635D01*
X6299Y18635D01*
X6298Y18634D01*
X6282Y18626D01*
X6266Y18617D01*
X6265Y18617D01*
X6264Y18616D01*
X6249Y18604D01*
X6235Y18593D01*
X6234Y18591D01*
X6234Y18591D01*
X6234Y18591D01*
X6233Y18591D01*
X6003Y18361D01*
X5992Y18347D01*
X5980Y18333D01*
X5979Y18332D01*
X5979Y18331D01*
X5970Y18315D01*
X5961Y18299D01*
X5961Y18298D01*
X5960Y18297D01*
X5955Y18279D01*
X5949Y18261D01*
X5949Y18260D01*
X5949Y18259D01*
X5947Y18241D01*
X5945Y18223D01*
X5945Y18221D01*
X5945Y18220D01*
X5945Y18220D01*
X5945Y18220D01*
X5945Y18070D01*
X5919Y18059D01*
X5895Y18043D01*
X5874Y18022D01*
X5857Y17998D01*
X5846Y17971D01*
X5840Y17942D01*
X5840Y17913D01*
X5840Y17482D01*
X5845Y17453D01*
X5857Y17426D01*
X5873Y17401D01*
X5894Y17380D01*
X5918Y17364D01*
X5945Y17352D01*
X5974Y17346D01*
X6003Y17346D01*
X6314Y17346D01*
X6343Y17352D01*
X6371Y17363D01*
X6395Y17380D01*
X6416Y17400D01*
X6432Y17425D01*
X6444Y17452D01*
X6450Y17481D01*
X6450Y17510D01*
X6450Y17941D01*
X6444Y17970D01*
X6433Y17997D01*
X6417Y18022D01*
X6396Y18042D01*
X6371Y18059D01*
X6345Y18070D01*
X6345Y18137D01*
X6457Y18250D01*
X6892Y18250D01*
X7431Y17710D01*
X7435Y17691D01*
X7456Y17637D01*
X7488Y17587D01*
X7529Y17545D01*
X7577Y17511D01*
X7631Y17488D01*
X7689Y17475D01*
X7748Y17474D01*
X7806Y17484D01*
X7860Y17505D01*
X7910Y17537D01*
X7953Y17578D01*
X7987Y17626D01*
X8011Y17679D01*
X8024Y17737D01*
X8025Y17804D01*
X8025Y17703D01*
X7992Y17629D01*
X7975Y17547D01*
X7974Y17464D01*
X7989Y17382D01*
X8020Y17304D01*
X8065Y17234D01*
X8123Y17174D01*
X8191Y17127D01*
X8268Y17093D01*
X8349Y17075D01*
X8432Y17074D01*
X8514Y17088D01*
X8592Y17118D01*
X8662Y17163D01*
X8723Y17220D01*
X8771Y17289D01*
X8805Y17365D01*
X8823Y17446D01*
X8825Y17541D01*
X8825Y16568D01*
X8793Y16590D01*
X8739Y16612D01*
X8681Y16624D01*
X8622Y16625D01*
X8564Y16614D01*
X8510Y16592D01*
X8461Y16559D01*
X8436Y16535D01*
X8393Y16565D01*
X8339Y16587D01*
X8281Y16599D01*
X8222Y16600D01*
X8164Y16589D01*
X8110Y16567D01*
X8061Y16534D01*
X8019Y16493D01*
X7985Y16445D01*
X7962Y16391D01*
X7957Y16368D01*
X7859Y16466D01*
X7845Y16478D01*
X7830Y16490D01*
X7829Y16490D01*
X7829Y16491D01*
X7812Y16499D01*
X7796Y16508D01*
X7795Y16509D01*
X7794Y16509D01*
X7777Y16515D01*
X7759Y16520D01*
X7758Y16520D01*
X7757Y16521D01*
X7739Y16522D01*
X7720Y16524D01*
X7718Y16524D01*
X7718Y16524D01*
X7718Y16524D01*
X7717Y16525D01*
X7674Y16525D01*
X7642Y16557D01*
X7593Y16590D01*
X7539Y16612D01*
X7499Y16621D01*
X7500Y16654D01*
X7488Y16712D01*
X7466Y16766D01*
X7433Y16815D01*
X7392Y16857D01*
X7343Y16890D01*
X7289Y16912D01*
X7231Y16924D01*
X7172Y16925D01*
X7114Y16914D01*
X7060Y16892D01*
X7011Y16859D01*
X6969Y16818D01*
X6935Y16770D01*
X6912Y16716D01*
X6900Y16658D01*
X6899Y16599D01*
X6910Y16541D01*
X6931Y16487D01*
X6963Y16437D01*
X7004Y16395D01*
X7052Y16361D01*
X7106Y16338D01*
X7150Y16328D01*
X7149Y16299D01*
X7160Y16241D01*
X7181Y16187D01*
X7213Y16137D01*
X7254Y16095D01*
X7302Y16061D01*
X7356Y16038D01*
X7414Y16025D01*
X7473Y16024D01*
X7531Y16034D01*
X7585Y16055D01*
X7635Y16087D01*
X7654Y16105D01*
X7949Y15810D01*
X7949Y15558D01*
X7955Y15529D01*
X7966Y15502D01*
X7982Y15477D01*
X8003Y15457D01*
X8028Y15440D01*
X8055Y15429D01*
X8083Y15423D01*
X8113Y15423D01*
X8424Y15423D01*
X8450Y15428D01*
X8450Y15107D01*
X8150Y14807D01*
X8150Y15104D01*
X8138Y15162D01*
X8116Y15216D01*
X8083Y15265D01*
X8042Y15307D01*
X7993Y15340D01*
X7939Y15362D01*
X7881Y15374D01*
X7822Y15375D01*
X7764Y15364D01*
X7710Y15342D01*
X7661Y15309D01*
X7625Y15275D01*
X7507Y15275D01*
X7241Y15541D01*
X7227Y15553D01*
X7212Y15565D01*
X7212Y15565D01*
X7211Y15566D01*
X7194Y15574D01*
X7178Y15583D01*
X7177Y15584D01*
X7176Y15584D01*
X7159Y15590D01*
X7141Y15595D01*
X7140Y15595D01*
X7139Y15596D01*
X7121Y15597D01*
X7102Y15599D01*
X7100Y15599D01*
X7100Y15599D01*
X7100Y15599D01*
X7100Y15600D01*
X6532Y15600D01*
X6450Y15682D01*
X6450Y15710D01*
X6450Y16141D01*
X6444Y16170D01*
X6433Y16197D01*
X6417Y16222D01*
X6396Y16242D01*
X6371Y16259D01*
X6344Y16270D01*
X6316Y16276D01*
X6286Y16276D01*
X5975Y16276D01*
X5960Y16273D01*
X5962Y16276D01*
X5986Y16329D01*
X5999Y16387D01*
X6000Y16454D01*
X5988Y16512D01*
X5966Y16566D01*
X5933Y16615D01*
X5892Y16657D01*
X5843Y16690D01*
X5789Y16712D01*
X5731Y16724D01*
X5672Y16725D01*
X5614Y16714D01*
X5560Y16692D01*
X5511Y16659D01*
X5469Y16618D01*
X5467Y16615D01*
X5367Y16715D01*
X5381Y16717D01*
X5435Y16738D01*
X5485Y16770D01*
X5528Y16810D01*
X5562Y16858D01*
X5586Y16912D01*
X5599Y16970D01*
X5600Y17037D01*
X5588Y17095D01*
X5566Y17149D01*
X5533Y17198D01*
X5492Y17240D01*
X5443Y17273D01*
X5389Y17295D01*
X5331Y17307D01*
X5272Y17308D01*
X5214Y17297D01*
X5160Y17275D01*
X5111Y17242D01*
X5069Y17201D01*
X5035Y17153D01*
X5012Y17099D01*
X5000Y17041D01*
X4999Y16982D01*
X5010Y16924D01*
X5020Y16900D01*
X4900Y16900D01*
X4881Y16898D01*
X4863Y16896D01*
X4862Y16896D01*
X4861Y16896D01*
X4843Y16890D01*
X4825Y16885D01*
X4824Y16885D01*
X4823Y16884D01*
X4807Y16876D01*
X4791Y16867D01*
X4790Y16867D01*
X4789Y16866D01*
X4774Y16854D01*
X4760Y16843D01*
X4759Y16841D01*
X4759Y16841D01*
X4759Y16841D01*
X4758Y16841D01*
X4541Y16624D01*
X4531Y16623D01*
X4521Y16622D01*
X4536Y16654D01*
X4549Y16712D01*
X4550Y16779D01*
X4538Y16837D01*
X4516Y16891D01*
X4483Y16940D01*
X4442Y16982D01*
X4393Y17015D01*
X4339Y17037D01*
X4307Y17044D01*
X4312Y17051D01*
X4336Y17104D01*
X4349Y17162D01*
X4350Y17229D01*
X4338Y17287D01*
X4316Y17341D01*
X4283Y17390D01*
X4242Y17432D01*
X4193Y17465D01*
X4139Y17487D01*
X4081Y17499D01*
X4022Y17500D01*
X3964Y17489D01*
X3910Y17467D01*
X3861Y17434D01*
X3825Y17400D01*
X3789Y17400D01*
X3500Y17689D01*
X3500Y17941D01*
X3494Y17970D01*
X3483Y17997D01*
X3467Y18022D01*
X3446Y18042D01*
X3421Y18059D01*
X3394Y18070D01*
X3366Y18076D01*
X3336Y18076D01*
X3025Y18076D01*
X2996Y18071D01*
X2969Y18059D01*
X2945Y18043D01*
X2924Y18022D01*
X2907Y17998D01*
X2896Y17971D01*
X2890Y17942D01*
X2890Y17913D01*
X2890Y17482D01*
X2895Y17453D01*
X2907Y17426D01*
X2923Y17401D01*
X2944Y17380D01*
X2968Y17364D01*
X2995Y17352D01*
X3024Y17346D01*
X3053Y17346D01*
X3277Y17346D01*
X3565Y17058D01*
X3579Y17046D01*
X3594Y17034D01*
X3595Y17034D01*
X3595Y17033D01*
X3612Y17025D01*
X3628Y17016D01*
X3629Y17015D01*
X3630Y17015D01*
X3647Y17009D01*
X3665Y17004D01*
X3666Y17004D01*
X3667Y17003D01*
X3685Y17002D01*
X3704Y17000D01*
X3706Y17000D01*
X3706Y17000D01*
X3706Y17000D01*
X3707Y17000D01*
X3826Y17000D01*
X3854Y16970D01*
X3902Y16936D01*
X3956Y16913D01*
X3992Y16905D01*
X3985Y16895D01*
X3962Y16841D01*
X3950Y16783D01*
X3949Y16724D01*
X3960Y16666D01*
X3981Y16612D01*
X4013Y16562D01*
X4054Y16520D01*
X4102Y16486D01*
X4156Y16463D01*
X4214Y16450D01*
X4273Y16449D01*
X4295Y16453D01*
X4283Y16441D01*
X4271Y16427D01*
X4259Y16412D01*
X4259Y16412D01*
X4258Y16411D01*
X4250Y16394D01*
X4241Y16378D01*
X4240Y16377D01*
X4240Y16376D01*
X4234Y16359D01*
X4229Y16341D01*
X4229Y16340D01*
X4228Y16339D01*
X4227Y16321D01*
X4225Y16302D01*
X4225Y16300D01*
X4225Y16300D01*
X4225Y16300D01*
X4225Y16300D01*
X4225Y16025D01*
X4226Y16006D01*
X4228Y15988D01*
X4228Y15987D01*
X4228Y15986D01*
X4234Y15968D01*
X4239Y15950D01*
X4239Y15949D01*
X4240Y15948D01*
X4248Y15932D01*
X4257Y15916D01*
X4257Y15915D01*
X4258Y15914D01*
X4270Y15899D01*
X4281Y15885D01*
X4283Y15884D01*
X4283Y15884D01*
X4283Y15884D01*
X4283Y15883D01*
X4324Y15842D01*
X4324Y15792D01*
X4317Y15785D01*
X3582Y15785D01*
X3500Y15867D01*
X3500Y16141D01*
X3494Y16170D01*
X3483Y16197D01*
X3467Y16222D01*
X3446Y16242D01*
X3421Y16259D01*
X3394Y16270D01*
X3366Y16276D01*
X3336Y16276D01*
X3025Y16276D01*
X2996Y16271D01*
X2969Y16259D01*
X2945Y16243D01*
X2924Y16222D01*
X2907Y16198D01*
X2896Y16171D01*
X2890Y16142D01*
X2890Y16113D01*
X2890Y15682D01*
X2895Y15653D01*
X2907Y15626D01*
X2907Y15625D01*
X2750Y15625D01*
X2609Y15765D01*
X2609Y16017D01*
X2604Y16046D01*
X2592Y16073D01*
X2576Y16098D01*
X2555Y16119D01*
X2531Y16135D01*
X2504Y16147D01*
X2475Y16153D01*
X2446Y16153D01*
X2135Y16153D01*
X2106Y16147D01*
X2078Y16136D01*
X2054Y16119D01*
X2033Y16099D01*
X2017Y16074D01*
X2005Y16047D01*
X1999Y16018D01*
X1999Y15989D01*
X1999Y15558D01*
X2005Y15529D01*
X2016Y15502D01*
X2032Y15477D01*
X2053Y15457D01*
X2078Y15440D01*
X2105Y15429D01*
X2133Y15423D01*
X2163Y15423D01*
X2386Y15423D01*
X2455Y15354D01*
X2419Y15318D01*
X2385Y15270D01*
X2362Y15216D01*
X2350Y15158D01*
X2349Y15099D01*
X2360Y15041D01*
X2381Y14987D01*
X2413Y14937D01*
X2454Y14895D01*
X2502Y14861D01*
X2556Y14838D01*
X2614Y14825D01*
X2673Y14824D01*
X2731Y14834D01*
X2785Y14855D01*
X2835Y14887D01*
X2878Y14928D01*
X2912Y14976D01*
X2936Y15029D01*
X2949Y15087D01*
X2950Y15154D01*
X2938Y15212D01*
X2933Y15225D01*
X3289Y15225D01*
X3284Y15209D01*
X3279Y15191D01*
X3279Y15190D01*
X3278Y15189D01*
X3277Y15171D01*
X3275Y15152D01*
X3275Y15150D01*
X3275Y15150D01*
X3275Y15150D01*
X3275Y15150D01*
X3275Y14476D01*
X3025Y14476D01*
X2996Y14471D01*
X2969Y14459D01*
X2945Y14443D01*
X2924Y14422D01*
X2907Y14398D01*
X2896Y14371D01*
X2890Y14342D01*
X2890Y14313D01*
X2890Y13882D01*
X2895Y13853D01*
X2907Y13826D01*
X2923Y13801D01*
X2944Y13780D01*
X2968Y13764D01*
X2995Y13752D01*
X3024Y13746D01*
X3053Y13746D01*
X3279Y13746D01*
X3260Y13720D01*
X3237Y13666D01*
X3225Y13608D01*
X3224Y13549D01*
X3235Y13491D01*
X3256Y13437D01*
X3288Y13387D01*
X3329Y13345D01*
X3377Y13311D01*
X3431Y13288D01*
X3489Y13275D01*
X3548Y13274D01*
X3606Y13284D01*
X3660Y13305D01*
X3710Y13337D01*
X3753Y13378D01*
X3787Y13426D01*
X3811Y13479D01*
X3824Y13537D01*
X3825Y13604D01*
X3813Y13662D01*
X3791Y13716D01*
X3758Y13765D01*
X3717Y13807D01*
X3668Y13840D01*
X3614Y13862D01*
X3556Y13874D01*
X3498Y13875D01*
X3500Y13881D01*
X3500Y13910D01*
X3500Y14134D01*
X3616Y14250D01*
X3628Y14264D01*
X3640Y14278D01*
X3640Y14279D01*
X3641Y14280D01*
X3649Y14296D01*
X3658Y14312D01*
X3659Y14313D01*
X3659Y14314D01*
X3665Y14332D01*
X3670Y14349D01*
X3670Y14351D01*
X3671Y14352D01*
X3672Y14370D01*
X3674Y14388D01*
X3674Y14390D01*
X3674Y14390D01*
X3674Y14390D01*
X3675Y14391D01*
X3675Y15064D01*
X4964Y15064D01*
X4983Y15066D01*
X5001Y15068D01*
X5002Y15068D01*
X5003Y15068D01*
X5021Y15074D01*
X5039Y15079D01*
X5040Y15079D01*
X5041Y15080D01*
X5057Y15088D01*
X5073Y15097D01*
X5074Y15097D01*
X5075Y15098D01*
X5090Y15110D01*
X5104Y15121D01*
X5105Y15123D01*
X5105Y15123D01*
X5105Y15123D01*
X5106Y15123D01*
X5840Y15857D01*
X5840Y15682D01*
X5845Y15653D01*
X5857Y15626D01*
X5873Y15601D01*
X5894Y15580D01*
X5918Y15564D01*
X5945Y15552D01*
X5974Y15546D01*
X6003Y15546D01*
X6020Y15546D01*
X6308Y15258D01*
X6322Y15246D01*
X6337Y15234D01*
X6337Y15234D01*
X6338Y15233D01*
X6355Y15225D01*
X6371Y15216D01*
X6372Y15215D01*
X6373Y15215D01*
X6390Y15209D01*
X6408Y15204D01*
X6409Y15204D01*
X6410Y15203D01*
X6428Y15202D01*
X6447Y15200D01*
X6449Y15200D01*
X6449Y15200D01*
X6449Y15200D01*
X6450Y15200D01*
X7017Y15200D01*
X7283Y14933D01*
X7297Y14921D01*
X7312Y14909D01*
X7312Y14909D01*
X7313Y14908D01*
X7330Y14900D01*
X7346Y14891D01*
X7347Y14890D01*
X7348Y14890D01*
X7365Y14884D01*
X7383Y14879D01*
X7384Y14879D01*
X7385Y14878D01*
X7403Y14877D01*
X7422Y14875D01*
X7424Y14875D01*
X7424Y14875D01*
X7424Y14875D01*
X7425Y14875D01*
X7626Y14875D01*
X7654Y14845D01*
X7702Y14811D01*
X7756Y14788D01*
X7814Y14775D01*
X7873Y14774D01*
X7931Y14784D01*
X7985Y14805D01*
X8035Y14837D01*
X8078Y14878D01*
X8112Y14926D01*
X8136Y14979D01*
X8149Y15037D01*
X8150Y15104D01*
X8150Y14807D01*
X7117Y13775D01*
X6507Y13775D01*
X6440Y13842D01*
X6444Y13852D01*
X6450Y13881D01*
X6450Y13910D01*
X6450Y14341D01*
X6444Y14370D01*
X6433Y14397D01*
X6417Y14422D01*
X6396Y14442D01*
X6371Y14459D01*
X6344Y14470D01*
X6316Y14476D01*
X6286Y14476D01*
X5975Y14476D01*
X5946Y14471D01*
X5919Y14459D01*
X5895Y14443D01*
X5874Y14422D01*
X5857Y14398D01*
X5846Y14371D01*
X5840Y14342D01*
X5840Y14313D01*
X5840Y13882D01*
X5845Y13853D01*
X5857Y13826D01*
X5873Y13801D01*
X5894Y13780D01*
X5918Y13764D01*
X5945Y13752D01*
X5974Y13746D01*
X5976Y13746D01*
X5977Y13745D01*
X5978Y13744D01*
X5978Y13744D01*
X5990Y13729D01*
X6001Y13715D01*
X6003Y13713D01*
X6003Y13713D01*
X6003Y13713D01*
X6003Y13713D01*
X6261Y13455D01*
X6259Y13452D01*
X6259Y13452D01*
X6258Y13451D01*
X6250Y13434D01*
X6241Y13418D01*
X6240Y13417D01*
X6240Y13416D01*
X6234Y13399D01*
X6229Y13381D01*
X6229Y13380D01*
X6228Y13379D01*
X6227Y13361D01*
X6225Y13342D01*
X6225Y13340D01*
X6225Y13340D01*
X6225Y13340D01*
X6225Y13339D01*
X6225Y12676D01*
X5997Y12676D01*
X5997Y12678D01*
X5999Y12697D01*
X5999Y12699D01*
X5999Y12699D01*
X5999Y12699D01*
X6000Y12700D01*
X6000Y12925D01*
X5998Y12943D01*
X5996Y12961D01*
X5996Y12962D01*
X5996Y12963D01*
X5990Y12981D01*
X5985Y12999D01*
X5985Y13000D01*
X5984Y13001D01*
X5976Y13017D01*
X5967Y13033D01*
X5967Y13034D01*
X5966Y13035D01*
X5954Y13050D01*
X5943Y13064D01*
X5941Y13065D01*
X5941Y13065D01*
X5941Y13065D01*
X5941Y13066D01*
X5791Y13216D01*
X5777Y13228D01*
X5762Y13240D01*
X5762Y13240D01*
X5761Y13241D01*
X5744Y13249D01*
X5728Y13258D01*
X5727Y13259D01*
X5726Y13259D01*
X5709Y13265D01*
X5691Y13270D01*
X5690Y13270D01*
X5689Y13271D01*
X5671Y13272D01*
X5652Y13274D01*
X5650Y13274D01*
X5650Y13274D01*
X5650Y13274D01*
X5650Y13275D01*
X4750Y13275D01*
X4731Y13273D01*
X4713Y13271D01*
X4712Y13271D01*
X4711Y13271D01*
X4693Y13265D01*
X4675Y13260D01*
X4674Y13260D01*
X4673Y13259D01*
X4657Y13251D01*
X4641Y13242D01*
X4640Y13242D01*
X4639Y13241D01*
X4624Y13229D01*
X4610Y13218D01*
X4609Y13216D01*
X4609Y13216D01*
X4609Y13216D01*
X4608Y13216D01*
X4525Y13132D01*
X4525Y14179D01*
X4513Y14237D01*
X4491Y14291D01*
X4458Y14340D01*
X4417Y14382D01*
X4404Y14390D01*
X4411Y14404D01*
X4424Y14462D01*
X4425Y14529D01*
X4413Y14587D01*
X4391Y14641D01*
X4358Y14690D01*
X4317Y14732D01*
X4268Y14765D01*
X4214Y14787D01*
X4156Y14799D01*
X4097Y14800D01*
X4039Y14789D01*
X3985Y14767D01*
X3936Y14734D01*
X3894Y14693D01*
X3860Y14645D01*
X3837Y14591D01*
X3825Y14533D01*
X3824Y14474D01*
X3835Y14416D01*
X3856Y14362D01*
X3888Y14312D01*
X3929Y14270D01*
X3945Y14259D01*
X3937Y14241D01*
X3925Y14183D01*
X3924Y14124D01*
X3935Y14066D01*
X3956Y14012D01*
X3988Y13962D01*
X4029Y13920D01*
X4077Y13886D01*
X4131Y13863D01*
X4189Y13850D01*
X4248Y13849D01*
X4306Y13859D01*
X4360Y13880D01*
X4410Y13912D01*
X4453Y13953D01*
X4487Y14001D01*
X4511Y14054D01*
X4524Y14112D01*
X4525Y14179D01*
X4525Y13132D01*
X4333Y12941D01*
X4321Y12927D01*
X4309Y12912D01*
X4309Y12912D01*
X4308Y12911D01*
X4300Y12894D01*
X4291Y12878D01*
X4290Y12877D01*
X4290Y12876D01*
X4284Y12859D01*
X4283Y12854D01*
X4264Y12862D01*
X4206Y12874D01*
X4147Y12875D01*
X4089Y12864D01*
X4035Y12842D01*
X3986Y12809D01*
X3944Y12768D01*
X3910Y12720D01*
X3887Y12666D01*
X3875Y12608D01*
X3874Y12549D01*
X3885Y12491D01*
X3906Y12437D01*
X3938Y12387D01*
X3979Y12345D01*
X4027Y12311D01*
X4081Y12288D01*
X4139Y12275D01*
X4198Y12274D01*
X4256Y12284D01*
X4275Y12291D01*
X4275Y12185D01*
X3604Y12185D01*
X3500Y12289D01*
X3500Y12541D01*
X3494Y12570D01*
X3483Y12597D01*
X3467Y12622D01*
X3446Y12642D01*
X3421Y12659D01*
X3394Y12670D01*
X3366Y12676D01*
X3336Y12676D01*
X3025Y12676D01*
X2996Y12671D01*
X2969Y12659D01*
X2945Y12643D01*
X2926Y12624D01*
X2916Y12649D01*
X2883Y12698D01*
X2842Y12740D01*
X2793Y12773D01*
X2739Y12795D01*
X2681Y12807D01*
X2622Y12808D01*
X2564Y12797D01*
X2510Y12775D01*
X2461Y12742D01*
X2419Y12701D01*
X2385Y12653D01*
X2362Y12599D01*
X2352Y12553D01*
X2135Y12553D01*
X2106Y12547D01*
X2078Y12536D01*
X2054Y12519D01*
X2033Y12499D01*
X2017Y12474D01*
X2005Y12447D01*
X1999Y12418D01*
X1999Y12389D01*
X1999Y11958D01*
X2005Y11929D01*
X2016Y11902D01*
X2032Y11877D01*
X2053Y11857D01*
X2078Y11840D01*
X2105Y11829D01*
X2133Y11823D01*
X2163Y11823D01*
X2219Y11823D01*
X2358Y11683D01*
X2372Y11671D01*
X2387Y11659D01*
X2387Y11659D01*
X2388Y11658D01*
X2404Y11650D01*
X2421Y11641D01*
X2422Y11640D01*
X2423Y11640D01*
X2440Y11634D01*
X2458Y11629D01*
X2459Y11629D01*
X2460Y11628D01*
X2478Y11627D01*
X2497Y11625D01*
X2499Y11625D01*
X2499Y11625D01*
X2499Y11625D01*
X2500Y11625D01*
X4900Y11625D01*
X4918Y11626D01*
X4936Y11628D01*
X4937Y11628D01*
X4938Y11628D01*
X4956Y11634D01*
X4974Y11639D01*
X4975Y11639D01*
X4976Y11640D01*
X4992Y11648D01*
X5008Y11657D01*
X5009Y11657D01*
X5010Y11658D01*
X5025Y11670D01*
X5039Y11681D01*
X5040Y11683D01*
X5040Y11683D01*
X5040Y11683D01*
X5041Y11683D01*
X5566Y12208D01*
X5578Y12222D01*
X5586Y12233D01*
X5631Y12213D01*
X5689Y12200D01*
X5748Y12199D01*
X5806Y12209D01*
X5840Y12222D01*
X5840Y12082D01*
X5845Y12053D01*
X5857Y12026D01*
X5873Y12001D01*
X5894Y11980D01*
X5918Y11964D01*
X5945Y11952D01*
X5974Y11946D01*
X6003Y11946D01*
X6314Y11946D01*
X6343Y11952D01*
X6371Y11963D01*
X6395Y11980D01*
X6416Y12000D01*
X6432Y12025D01*
X6444Y12052D01*
X6450Y12081D01*
X6450Y12110D01*
X6450Y12147D01*
X6461Y12156D01*
X6476Y12168D01*
X6477Y12169D01*
X6477Y12169D01*
X6477Y12169D01*
X6478Y12170D01*
X6566Y12258D01*
X6578Y12272D01*
X6590Y12287D01*
X6590Y12287D01*
X6591Y12288D01*
X6599Y12304D01*
X6608Y12321D01*
X6609Y12322D01*
X6609Y12323D01*
X6615Y12340D01*
X6620Y12358D01*
X6620Y12359D01*
X6621Y12360D01*
X6622Y12378D01*
X6624Y12397D01*
X6624Y12399D01*
X6624Y12399D01*
X6624Y12399D01*
X6625Y12400D01*
X6625Y13214D01*
X7266Y13214D01*
X7284Y13216D01*
X7303Y13218D01*
X7304Y13218D01*
X7305Y13218D01*
X7322Y13224D01*
X7340Y13229D01*
X7341Y13229D01*
X7342Y13230D01*
X7358Y13238D01*
X7375Y13247D01*
X7376Y13247D01*
X7376Y13248D01*
X7391Y13260D01*
X7405Y13271D01*
X7407Y13273D01*
X7407Y13273D01*
X7407Y13273D01*
X7407Y13273D01*
X8234Y14100D01*
X8542Y14100D01*
X8775Y13867D01*
X8775Y13624D01*
X8744Y13593D01*
X8710Y13545D01*
X8687Y13491D01*
X8675Y13433D01*
X8674Y13374D01*
X8685Y13316D01*
X8706Y13262D01*
X8738Y13212D01*
X8779Y13170D01*
X8827Y13136D01*
X8881Y13113D01*
X8939Y13100D01*
X8998Y13099D01*
X9056Y13109D01*
X9110Y13130D01*
X9160Y13162D01*
X9203Y13203D01*
X9237Y13251D01*
X9261Y13304D01*
X9274Y13362D01*
X9275Y13429D01*
X9275Y10169D01*
X8669Y10169D01*
X8723Y10220D01*
X8771Y10289D01*
X8805Y10365D01*
X8823Y10446D01*
X8825Y10541D01*
X8825Y11541D01*
X8808Y11623D01*
X8777Y11700D01*
X8730Y11769D01*
X8672Y11829D01*
X8603Y11875D01*
X8542Y11901D01*
X8542Y11901D01*
X8553Y11928D01*
X8559Y11957D01*
X8559Y11986D01*
X8559Y12417D01*
X8554Y12446D01*
X8542Y12473D01*
X8526Y12498D01*
X8512Y12512D01*
X8528Y12528D01*
X8562Y12576D01*
X8586Y12629D01*
X8599Y12687D01*
X8600Y12754D01*
X8588Y12812D01*
X8566Y12866D01*
X8533Y12915D01*
X8492Y12957D01*
X8443Y12990D01*
X8389Y13012D01*
X8331Y13024D01*
X8272Y13025D01*
X8214Y13014D01*
X8160Y12992D01*
X8111Y12959D01*
X8069Y12918D01*
X8035Y12870D01*
X8025Y12845D01*
X8016Y12866D01*
X7983Y12915D01*
X7942Y12957D01*
X7893Y12990D01*
X7839Y13012D01*
X7781Y13024D01*
X7722Y13025D01*
X7664Y13014D01*
X7610Y12992D01*
X7561Y12959D01*
X7519Y12918D01*
X7485Y12870D01*
X7462Y12816D01*
X7450Y12758D01*
X7449Y12699D01*
X7460Y12641D01*
X7481Y12587D01*
X7513Y12537D01*
X7554Y12495D01*
X7602Y12461D01*
X7656Y12438D01*
X7714Y12425D01*
X7773Y12424D01*
X7831Y12434D01*
X7885Y12455D01*
X7935Y12487D01*
X7978Y12528D01*
X8012Y12576D01*
X8024Y12604D01*
X8031Y12587D01*
X8054Y12551D01*
X8054Y12546D01*
X8028Y12536D01*
X8004Y12519D01*
X7983Y12499D01*
X7967Y12474D01*
X7955Y12447D01*
X7949Y12418D01*
X7949Y12389D01*
X7949Y11958D01*
X7955Y11929D01*
X7966Y11902D01*
X7982Y11877D01*
X8003Y11857D01*
X8028Y11840D01*
X8055Y11829D01*
X8083Y11823D01*
X8113Y11823D01*
X8122Y11823D01*
X8072Y11774D01*
X8025Y11705D01*
X7992Y11629D01*
X7975Y11547D01*
X7974Y11464D01*
X7989Y11382D01*
X8020Y11304D01*
X8065Y11234D01*
X8123Y11174D01*
X8191Y11127D01*
X8268Y11093D01*
X8349Y11075D01*
X8432Y11074D01*
X8514Y11088D01*
X8592Y11118D01*
X8662Y11163D01*
X8723Y11220D01*
X8771Y11289D01*
X8805Y11365D01*
X8823Y11446D01*
X8825Y11541D01*
X8825Y10541D01*
X8808Y10623D01*
X8777Y10700D01*
X8730Y10769D01*
X8672Y10829D01*
X8603Y10875D01*
X8526Y10907D01*
X8444Y10924D01*
X8361Y10925D01*
X8279Y10909D01*
X8202Y10878D01*
X8132Y10832D01*
X8072Y10774D01*
X8025Y10705D01*
X7992Y10629D01*
X7975Y10547D01*
X7974Y10464D01*
X7989Y10382D01*
X8020Y10304D01*
X8065Y10234D01*
X8123Y10174D01*
X8130Y10169D01*
X7525Y10169D01*
X7525Y12004D01*
X7513Y12062D01*
X7491Y12116D01*
X7458Y12165D01*
X7435Y12188D01*
X7462Y12226D01*
X7486Y12279D01*
X7499Y12337D01*
X7500Y12404D01*
X7488Y12462D01*
X7466Y12516D01*
X7433Y12565D01*
X7406Y12592D01*
X7412Y12601D01*
X7436Y12654D01*
X7449Y12712D01*
X7450Y12779D01*
X7438Y12837D01*
X7416Y12891D01*
X7383Y12940D01*
X7342Y12982D01*
X7293Y13015D01*
X7239Y13037D01*
X7181Y13049D01*
X7122Y13050D01*
X7064Y13039D01*
X7010Y13017D01*
X6961Y12984D01*
X6919Y12943D01*
X6885Y12895D01*
X6862Y12841D01*
X6850Y12783D01*
X6849Y12724D01*
X6860Y12666D01*
X6881Y12612D01*
X6913Y12562D01*
X6943Y12531D01*
X6935Y12520D01*
X6912Y12466D01*
X6900Y12408D01*
X6899Y12349D01*
X6910Y12291D01*
X6931Y12237D01*
X6963Y12187D01*
X6989Y12161D01*
X6960Y12120D01*
X6937Y12066D01*
X6935Y12054D01*
X6914Y12062D01*
X6856Y12074D01*
X6797Y12075D01*
X6739Y12064D01*
X6685Y12042D01*
X6636Y12009D01*
X6594Y11968D01*
X6560Y11920D01*
X6537Y11866D01*
X6525Y11808D01*
X6524Y11749D01*
X6535Y11691D01*
X6556Y11637D01*
X6588Y11587D01*
X6629Y11545D01*
X6677Y11511D01*
X6731Y11488D01*
X6789Y11475D01*
X6848Y11474D01*
X6906Y11484D01*
X6960Y11505D01*
X7010Y11537D01*
X7053Y11578D01*
X7087Y11626D01*
X7111Y11679D01*
X7114Y11695D01*
X7131Y11688D01*
X7189Y11675D01*
X7248Y11674D01*
X7306Y11684D01*
X7360Y11705D01*
X7410Y11737D01*
X7453Y11778D01*
X7487Y11826D01*
X7511Y11879D01*
X7524Y11937D01*
X7525Y12004D01*
X7525Y10169D01*
X4508Y10169D01*
X3659Y10252D01*
X2850Y10497D01*
X2104Y10893D01*
X1504Y11382D01*
X1504Y15041D01*
X1493Y15098D01*
X1470Y15153D01*
X1438Y15202D01*
X1396Y15244D01*
X1348Y15276D01*
X1293Y15299D01*
X1236Y15311D01*
X1177Y15312D01*
X1119Y15300D01*
X1065Y15278D01*
X1015Y15246D01*
X973Y15205D01*
X940Y15157D01*
X917Y15102D01*
X905Y15045D01*
X904Y14986D01*
X914Y14928D01*
X936Y14874D01*
X968Y14824D01*
X1009Y14782D01*
X1057Y14748D01*
X1111Y14725D01*
X1169Y14712D01*
X1227Y14711D01*
X1285Y14721D01*
X1340Y14742D01*
X1390Y14774D01*
X1432Y14814D01*
X1466Y14862D01*
X1490Y14916D01*
X1503Y14974D01*
X1504Y15041D01*
X1504Y11382D01*
X1449Y11427D01*
X910Y12078D01*
X508Y12822D01*
X258Y13629D01*
X169Y14477D01*
X169Y14491D01*
X252Y15340D01*
X497Y16149D01*
X893Y16895D01*
X1427Y17550D01*
X2078Y18089D01*
X2822Y18491D01*
X3629Y18741D01*
X4477Y18830D01*
X4500Y18830D01*
X8129Y18830D01*
X8072Y18774D01*
X8025Y18705D01*
X7992Y18629D01*
X7975Y18547D01*
X7974Y18464D01*
X7989Y18382D01*
X8020Y18304D01*
X8065Y18234D01*
X8123Y18174D01*
X8191Y18127D01*
X8268Y18093D01*
X8349Y18075D01*
X8432Y18074D01*
X8514Y18088D01*
X8592Y18118D01*
X8662Y18163D01*
X8723Y18220D01*
X8771Y18289D01*
X8805Y18365D01*
X8823Y18446D01*
X8825Y18541D01*
X8808Y18623D01*
X8777Y18700D01*
X8730Y18769D01*
X8672Y18829D01*
X8670Y18830D01*
X9129Y18830D01*
X9072Y18774D01*
X9025Y18705D01*
X8992Y18629D01*
X8975Y18547D01*
X8974Y18464D01*
X8989Y18382D01*
X9020Y18304D01*
X9065Y18234D01*
X9123Y18174D01*
X9191Y18127D01*
X9268Y18093D01*
X9349Y18075D01*
X9432Y18074D01*
X9514Y18088D01*
X9592Y18118D01*
X9662Y18163D01*
X9723Y18220D01*
X9771Y18289D01*
X9805Y18365D01*
X9823Y18446D01*
X9825Y18541D01*
X9808Y18623D01*
X9777Y18700D01*
X9730Y18769D01*
X9672Y18829D01*
X9670Y18830D01*
X9830Y18830D01*
X9830Y17500D01*
X9830Y11500D01*
X9830Y10169D01*
X9830Y10169D01*
G37*
G54D60*
X9830Y10169D02*
X9825Y10169D01*
X9825Y17238D01*
X9825Y17789D01*
X9819Y17818D01*
X9808Y17845D01*
X9791Y17870D01*
X9771Y17891D01*
X9746Y17907D01*
X9719Y17918D01*
X9690Y17924D01*
X9661Y17925D01*
X9110Y17925D01*
X9081Y17919D01*
X9054Y17908D01*
X9029Y17891D01*
X9008Y17871D01*
X8992Y17846D01*
X8981Y17819D01*
X8975Y17790D01*
X8974Y17761D01*
X8974Y17210D01*
X8980Y17181D01*
X8991Y17154D01*
X9008Y17129D01*
X9028Y17108D01*
X9053Y17092D01*
X9080Y17081D01*
X9109Y17075D01*
X9138Y17074D01*
X9689Y17074D01*
X9718Y17080D01*
X9745Y17091D01*
X9770Y17108D01*
X9791Y17128D01*
X9807Y17153D01*
X9818Y17180D01*
X9824Y17209D01*
X9825Y17238D01*
X9825Y10169D01*
X9275Y10169D01*
X9275Y13429D01*
X9263Y13487D01*
X9241Y13541D01*
X9208Y13590D01*
X9175Y13624D01*
X9175Y13950D01*
X9173Y13968D01*
X9171Y13986D01*
X9171Y13987D01*
X9171Y13988D01*
X9165Y14006D01*
X9160Y14024D01*
X9160Y14025D01*
X9159Y14026D01*
X9151Y14042D01*
X9142Y14058D01*
X9142Y14059D01*
X9141Y14060D01*
X9129Y14075D01*
X9118Y14089D01*
X9116Y14090D01*
X9116Y14090D01*
X9116Y14090D01*
X9116Y14091D01*
X8766Y14441D01*
X8752Y14453D01*
X8737Y14465D01*
X8737Y14465D01*
X8736Y14466D01*
X8719Y14474D01*
X8703Y14483D01*
X8702Y14484D01*
X8701Y14484D01*
X8684Y14490D01*
X8666Y14495D01*
X8665Y14495D01*
X8664Y14496D01*
X8646Y14497D01*
X8627Y14499D01*
X8625Y14499D01*
X8625Y14499D01*
X8625Y14499D01*
X8625Y14500D01*
X8407Y14500D01*
X8791Y14883D01*
X8803Y14897D01*
X8815Y14912D01*
X8815Y14912D01*
X8816Y14913D01*
X8824Y14930D01*
X8833Y14946D01*
X8834Y14947D01*
X8834Y14948D01*
X8840Y14965D01*
X8845Y14983D01*
X8845Y14984D01*
X8846Y14985D01*
X8847Y15003D01*
X8849Y15022D01*
X8849Y15024D01*
X8849Y15024D01*
X8849Y15024D01*
X8850Y15025D01*
X8850Y16101D01*
X8878Y16128D01*
X8912Y16176D01*
X8936Y16229D01*
X8949Y16287D01*
X8950Y16354D01*
X8938Y16412D01*
X8916Y16466D01*
X8883Y16515D01*
X8842Y16557D01*
X8825Y16568D01*
X8825Y17541D01*
X8808Y17623D01*
X8777Y17700D01*
X8730Y17769D01*
X8672Y17829D01*
X8603Y17875D01*
X8526Y17907D01*
X8444Y17924D01*
X8361Y17925D01*
X8279Y17909D01*
X8202Y17878D01*
X8132Y17832D01*
X8072Y17774D01*
X8025Y17705D01*
X8025Y17703D01*
X8025Y17804D01*
X8013Y17862D01*
X7991Y17916D01*
X7958Y17965D01*
X7917Y18007D01*
X7868Y18040D01*
X7814Y18062D01*
X7756Y18074D01*
X7697Y18075D01*
X7643Y18064D01*
X7116Y18591D01*
X7102Y18603D01*
X7087Y18615D01*
X7087Y18615D01*
X7086Y18616D01*
X7069Y18624D01*
X7053Y18633D01*
X7052Y18634D01*
X7051Y18634D01*
X7034Y18640D01*
X7016Y18645D01*
X7015Y18645D01*
X7014Y18646D01*
X6996Y18647D01*
X6977Y18649D01*
X6975Y18649D01*
X6975Y18649D01*
X6975Y18649D01*
X6975Y18650D01*
X6375Y18650D01*
X6356Y18648D01*
X6338Y18646D01*
X6337Y18646D01*
X6336Y18646D01*
X6318Y18640D01*
X6300Y18635D01*
X6299Y18635D01*
X6298Y18634D01*
X6282Y18626D01*
X6266Y18617D01*
X6265Y18617D01*
X6264Y18616D01*
X6249Y18604D01*
X6235Y18593D01*
X6234Y18591D01*
X6234Y18591D01*
X6234Y18591D01*
X6233Y18591D01*
X6003Y18361D01*
X5992Y18347D01*
X5980Y18333D01*
X5979Y18332D01*
X5979Y18331D01*
X5970Y18315D01*
X5961Y18299D01*
X5961Y18298D01*
X5960Y18297D01*
X5955Y18279D01*
X5949Y18261D01*
X5949Y18260D01*
X5949Y18259D01*
X5947Y18241D01*
X5945Y18223D01*
X5945Y18221D01*
X5945Y18220D01*
X5945Y18220D01*
X5945Y18220D01*
X5945Y18070D01*
X5919Y18059D01*
X5895Y18043D01*
X5874Y18022D01*
X5857Y17998D01*
X5846Y17971D01*
X5840Y17942D01*
X5840Y17913D01*
X5840Y17482D01*
X5845Y17453D01*
X5857Y17426D01*
X5873Y17401D01*
X5894Y17380D01*
X5918Y17364D01*
X5945Y17352D01*
X5974Y17346D01*
X6003Y17346D01*
X6314Y17346D01*
X6343Y17352D01*
X6371Y17363D01*
X6395Y17380D01*
X6416Y17400D01*
X6432Y17425D01*
X6444Y17452D01*
X6450Y17481D01*
X6450Y17510D01*
X6450Y17941D01*
X6444Y17970D01*
X6433Y17997D01*
X6417Y18022D01*
X6396Y18042D01*
X6371Y18059D01*
X6345Y18070D01*
X6345Y18137D01*
X6457Y18250D01*
X6892Y18250D01*
X7431Y17710D01*
X7435Y17691D01*
X7456Y17637D01*
X7488Y17587D01*
X7529Y17545D01*
X7577Y17511D01*
X7631Y17488D01*
X7689Y17475D01*
X7748Y17474D01*
X7806Y17484D01*
X7860Y17505D01*
X7910Y17537D01*
X7953Y17578D01*
X7987Y17626D01*
X8011Y17679D01*
X8024Y17737D01*
X8025Y17804D01*
X8025Y17703D01*
X7992Y17629D01*
X7975Y17547D01*
X7974Y17464D01*
X7989Y17382D01*
X8020Y17304D01*
X8065Y17234D01*
X8123Y17174D01*
X8191Y17127D01*
X8268Y17093D01*
X8349Y17075D01*
X8432Y17074D01*
X8514Y17088D01*
X8592Y17118D01*
X8662Y17163D01*
X8723Y17220D01*
X8771Y17289D01*
X8805Y17365D01*
X8823Y17446D01*
X8825Y17541D01*
X8825Y16568D01*
X8793Y16590D01*
X8739Y16612D01*
X8681Y16624D01*
X8622Y16625D01*
X8564Y16614D01*
X8510Y16592D01*
X8461Y16559D01*
X8436Y16535D01*
X8393Y16565D01*
X8339Y16587D01*
X8281Y16599D01*
X8222Y16600D01*
X8164Y16589D01*
X8110Y16567D01*
X8061Y16534D01*
X8019Y16493D01*
X7985Y16445D01*
X7962Y16391D01*
X7957Y16368D01*
X7859Y16466D01*
X7845Y16478D01*
X7830Y16490D01*
X7829Y16490D01*
X7829Y16491D01*
X7812Y16499D01*
X7796Y16508D01*
X7795Y16509D01*
X7794Y16509D01*
X7777Y16515D01*
X7759Y16520D01*
X7758Y16520D01*
X7757Y16521D01*
X7739Y16522D01*
X7720Y16524D01*
X7718Y16524D01*
X7718Y16524D01*
X7718Y16524D01*
X7717Y16525D01*
X7674Y16525D01*
X7642Y16557D01*
X7593Y16590D01*
X7539Y16612D01*
X7499Y16621D01*
X7500Y16654D01*
X7488Y16712D01*
X7466Y16766D01*
X7433Y16815D01*
X7392Y16857D01*
X7343Y16890D01*
X7289Y16912D01*
X7231Y16924D01*
X7172Y16925D01*
X7114Y16914D01*
X7060Y16892D01*
X7011Y16859D01*
X6969Y16818D01*
X6935Y16770D01*
X6912Y16716D01*
X6900Y16658D01*
X6899Y16599D01*
X6910Y16541D01*
X6931Y16487D01*
X6963Y16437D01*
X7004Y16395D01*
X7052Y16361D01*
X7106Y16338D01*
X7150Y16328D01*
X7149Y16299D01*
X7160Y16241D01*
X7181Y16187D01*
X7213Y16137D01*
X7254Y16095D01*
X7302Y16061D01*
X7356Y16038D01*
X7414Y16025D01*
X7473Y16024D01*
X7531Y16034D01*
X7585Y16055D01*
X7635Y16087D01*
X7654Y16105D01*
X7949Y15810D01*
X7949Y15558D01*
X7955Y15529D01*
X7966Y15502D01*
X7982Y15477D01*
X8003Y15457D01*
X8028Y15440D01*
X8055Y15429D01*
X8083Y15423D01*
X8113Y15423D01*
X8424Y15423D01*
X8450Y15428D01*
X8450Y15107D01*
X8150Y14807D01*
X8150Y15104D01*
X8138Y15162D01*
X8116Y15216D01*
X8083Y15265D01*
X8042Y15307D01*
X7993Y15340D01*
X7939Y15362D01*
X7881Y15374D01*
X7822Y15375D01*
X7764Y15364D01*
X7710Y15342D01*
X7661Y15309D01*
X7625Y15275D01*
X7507Y15275D01*
X7241Y15541D01*
X7227Y15553D01*
X7212Y15565D01*
X7212Y15565D01*
X7211Y15566D01*
X7194Y15574D01*
X7178Y15583D01*
X7177Y15584D01*
X7176Y15584D01*
X7159Y15590D01*
X7141Y15595D01*
X7140Y15595D01*
X7139Y15596D01*
X7121Y15597D01*
X7102Y15599D01*
X7100Y15599D01*
X7100Y15599D01*
X7100Y15599D01*
X7100Y15600D01*
X6532Y15600D01*
X6450Y15682D01*
X6450Y15710D01*
X6450Y16141D01*
X6444Y16170D01*
X6433Y16197D01*
X6417Y16222D01*
X6396Y16242D01*
X6371Y16259D01*
X6344Y16270D01*
X6316Y16276D01*
X6286Y16276D01*
X5975Y16276D01*
X5960Y16273D01*
X5962Y16276D01*
X5986Y16329D01*
X5999Y16387D01*
X6000Y16454D01*
X5988Y16512D01*
X5966Y16566D01*
X5933Y16615D01*
X5892Y16657D01*
X5843Y16690D01*
X5789Y16712D01*
X5731Y16724D01*
X5672Y16725D01*
X5614Y16714D01*
X5560Y16692D01*
X5511Y16659D01*
X5469Y16618D01*
X5467Y16615D01*
X5367Y16715D01*
X5381Y16717D01*
X5435Y16738D01*
X5485Y16770D01*
X5528Y16810D01*
X5562Y16858D01*
X5586Y16912D01*
X5599Y16970D01*
X5600Y17037D01*
X5588Y17095D01*
X5566Y17149D01*
X5533Y17198D01*
X5492Y17240D01*
X5443Y17273D01*
X5389Y17295D01*
X5331Y17307D01*
X5272Y17308D01*
X5214Y17297D01*
X5160Y17275D01*
X5111Y17242D01*
X5069Y17201D01*
X5035Y17153D01*
X5012Y17099D01*
X5000Y17041D01*
X4999Y16982D01*
X5010Y16924D01*
X5020Y16900D01*
X4900Y16900D01*
X4881Y16898D01*
X4863Y16896D01*
X4862Y16896D01*
X4861Y16896D01*
X4843Y16890D01*
X4825Y16885D01*
X4824Y16885D01*
X4823Y16884D01*
X4807Y16876D01*
X4791Y16867D01*
X4790Y16867D01*
X4789Y16866D01*
X4774Y16854D01*
X4760Y16843D01*
X4759Y16841D01*
X4759Y16841D01*
X4759Y16841D01*
X4758Y16841D01*
X4541Y16624D01*
X4531Y16623D01*
X4521Y16622D01*
X4536Y16654D01*
X4549Y16712D01*
X4550Y16779D01*
X4538Y16837D01*
X4516Y16891D01*
X4483Y16940D01*
X4442Y16982D01*
X4393Y17015D01*
X4339Y17037D01*
X4307Y17044D01*
X4312Y17051D01*
X4336Y17104D01*
X4349Y17162D01*
X4350Y17229D01*
X4338Y17287D01*
X4316Y17341D01*
X4283Y17390D01*
X4242Y17432D01*
X4193Y17465D01*
X4139Y17487D01*
X4081Y17499D01*
X4022Y17500D01*
X3964Y17489D01*
X3910Y17467D01*
X3861Y17434D01*
X3825Y17400D01*
X3789Y17400D01*
X3500Y17689D01*
X3500Y17941D01*
X3494Y17970D01*
X3483Y17997D01*
X3467Y18022D01*
X3446Y18042D01*
X3421Y18059D01*
X3394Y18070D01*
X3366Y18076D01*
X3336Y18076D01*
X3025Y18076D01*
X2996Y18071D01*
X2969Y18059D01*
X2945Y18043D01*
X2924Y18022D01*
X2907Y17998D01*
X2896Y17971D01*
X2890Y17942D01*
X2890Y17913D01*
X2890Y17482D01*
X2895Y17453D01*
X2907Y17426D01*
X2923Y17401D01*
X2944Y17380D01*
X2968Y17364D01*
X2995Y17352D01*
X3024Y17346D01*
X3053Y17346D01*
X3277Y17346D01*
X3565Y17058D01*
X3579Y17046D01*
X3594Y17034D01*
X3595Y17034D01*
X3595Y17033D01*
X3612Y17025D01*
X3628Y17016D01*
X3629Y17015D01*
X3630Y17015D01*
X3647Y17009D01*
X3665Y17004D01*
X3666Y17004D01*
X3667Y17003D01*
X3685Y17002D01*
X3704Y17000D01*
X3706Y17000D01*
X3706Y17000D01*
X3706Y17000D01*
X3707Y17000D01*
X3826Y17000D01*
X3854Y16970D01*
X3902Y16936D01*
X3956Y16913D01*
X3992Y16905D01*
X3985Y16895D01*
X3962Y16841D01*
X3950Y16783D01*
X3949Y16724D01*
X3960Y16666D01*
X3981Y16612D01*
X4013Y16562D01*
X4054Y16520D01*
X4102Y16486D01*
X4156Y16463D01*
X4214Y16450D01*
X4273Y16449D01*
X4295Y16453D01*
X4283Y16441D01*
X4271Y16427D01*
X4259Y16412D01*
X4259Y16412D01*
X4258Y16411D01*
X4250Y16394D01*
X4241Y16378D01*
X4240Y16377D01*
X4240Y16376D01*
X4234Y16359D01*
X4229Y16341D01*
X4229Y16340D01*
X4228Y16339D01*
X4227Y16321D01*
X4225Y16302D01*
X4225Y16300D01*
X4225Y16300D01*
X4225Y16300D01*
X4225Y16300D01*
X4225Y16025D01*
X4226Y16006D01*
X4228Y15988D01*
X4228Y15987D01*
X4228Y15986D01*
X4234Y15968D01*
X4239Y15950D01*
X4239Y15949D01*
X4240Y15948D01*
X4248Y15932D01*
X4257Y15916D01*
X4257Y15915D01*
X4258Y15914D01*
X4270Y15899D01*
X4281Y15885D01*
X4283Y15884D01*
X4283Y15884D01*
X4283Y15884D01*
X4283Y15883D01*
X4324Y15842D01*
X4324Y15792D01*
X4317Y15785D01*
X3582Y15785D01*
X3500Y15867D01*
X3500Y16141D01*
X3494Y16170D01*
X3483Y16197D01*
X3467Y16222D01*
X3446Y16242D01*
X3421Y16259D01*
X3394Y16270D01*
X3366Y16276D01*
X3336Y16276D01*
X3025Y16276D01*
X2996Y16271D01*
X2969Y16259D01*
X2945Y16243D01*
X2924Y16222D01*
X2907Y16198D01*
X2896Y16171D01*
X2890Y16142D01*
X2890Y16113D01*
X2890Y15682D01*
X2895Y15653D01*
X2907Y15626D01*
X2907Y15625D01*
X2750Y15625D01*
X2609Y15765D01*
X2609Y16017D01*
X2604Y16046D01*
X2592Y16073D01*
X2576Y16098D01*
X2555Y16119D01*
X2531Y16135D01*
X2504Y16147D01*
X2475Y16153D01*
X2446Y16153D01*
X2135Y16153D01*
X2106Y16147D01*
X2078Y16136D01*
X2054Y16119D01*
X2033Y16099D01*
X2017Y16074D01*
X2005Y16047D01*
X1999Y16018D01*
X1999Y15989D01*
X1999Y15558D01*
X2005Y15529D01*
X2016Y15502D01*
X2032Y15477D01*
X2053Y15457D01*
X2078Y15440D01*
X2105Y15429D01*
X2133Y15423D01*
X2163Y15423D01*
X2386Y15423D01*
X2455Y15354D01*
X2419Y15318D01*
X2385Y15270D01*
X2362Y15216D01*
X2350Y15158D01*
X2349Y15099D01*
X2360Y15041D01*
X2381Y14987D01*
X2413Y14937D01*
X2454Y14895D01*
X2502Y14861D01*
X2556Y14838D01*
X2614Y14825D01*
X2673Y14824D01*
X2731Y14834D01*
X2785Y14855D01*
X2835Y14887D01*
X2878Y14928D01*
X2912Y14976D01*
X2936Y15029D01*
X2949Y15087D01*
X2950Y15154D01*
X2938Y15212D01*
X2933Y15225D01*
X3289Y15225D01*
X3284Y15209D01*
X3279Y15191D01*
X3279Y15190D01*
X3278Y15189D01*
X3277Y15171D01*
X3275Y15152D01*
X3275Y15150D01*
X3275Y15150D01*
X3275Y15150D01*
X3275Y15150D01*
X3275Y14476D01*
X3025Y14476D01*
X2996Y14471D01*
X2969Y14459D01*
X2945Y14443D01*
X2924Y14422D01*
X2907Y14398D01*
X2896Y14371D01*
X2890Y14342D01*
X2890Y14313D01*
X2890Y13882D01*
X2895Y13853D01*
X2907Y13826D01*
X2923Y13801D01*
X2944Y13780D01*
X2968Y13764D01*
X2995Y13752D01*
X3024Y13746D01*
X3053Y13746D01*
X3279Y13746D01*
X3260Y13720D01*
X3237Y13666D01*
X3225Y13608D01*
X3224Y13549D01*
X3235Y13491D01*
X3256Y13437D01*
X3288Y13387D01*
X3329Y13345D01*
X3377Y13311D01*
X3431Y13288D01*
X3489Y13275D01*
X3548Y13274D01*
X3606Y13284D01*
X3660Y13305D01*
X3710Y13337D01*
X3753Y13378D01*
X3787Y13426D01*
X3811Y13479D01*
X3824Y13537D01*
X3825Y13604D01*
X3813Y13662D01*
X3791Y13716D01*
X3758Y13765D01*
X3717Y13807D01*
X3668Y13840D01*
X3614Y13862D01*
X3556Y13874D01*
X3498Y13875D01*
X3500Y13881D01*
X3500Y13910D01*
X3500Y14134D01*
X3616Y14250D01*
X3628Y14264D01*
X3640Y14278D01*
X3640Y14279D01*
X3641Y14280D01*
X3649Y14296D01*
X3658Y14312D01*
X3659Y14313D01*
X3659Y14314D01*
X3665Y14332D01*
X3670Y14349D01*
X3670Y14351D01*
X3671Y14352D01*
X3672Y14370D01*
X3674Y14388D01*
X3674Y14390D01*
X3674Y14390D01*
X3674Y14390D01*
X3675Y14391D01*
X3675Y15064D01*
X4964Y15064D01*
X4983Y15066D01*
X5001Y15068D01*
X5002Y15068D01*
X5003Y15068D01*
X5021Y15074D01*
X5039Y15079D01*
X5040Y15079D01*
X5041Y15080D01*
X5057Y15088D01*
X5073Y15097D01*
X5074Y15097D01*
X5075Y15098D01*
X5090Y15110D01*
X5104Y15121D01*
X5105Y15123D01*
X5105Y15123D01*
X5105Y15123D01*
X5106Y15123D01*
X5840Y15857D01*
X5840Y15682D01*
X5845Y15653D01*
X5857Y15626D01*
X5873Y15601D01*
X5894Y15580D01*
X5918Y15564D01*
X5945Y15552D01*
X5974Y15546D01*
X6003Y15546D01*
X6020Y15546D01*
X6308Y15258D01*
X6322Y15246D01*
X6337Y15234D01*
X6337Y15234D01*
X6338Y15233D01*
X6355Y15225D01*
X6371Y15216D01*
X6372Y15215D01*
X6373Y15215D01*
X6390Y15209D01*
X6408Y15204D01*
X6409Y15204D01*
X6410Y15203D01*
X6428Y15202D01*
X6447Y15200D01*
X6449Y15200D01*
X6449Y15200D01*
X6449Y15200D01*
X6450Y15200D01*
X7017Y15200D01*
X7283Y14933D01*
X7297Y14921D01*
X7312Y14909D01*
X7312Y14909D01*
X7313Y14908D01*
X7330Y14900D01*
X7346Y14891D01*
X7347Y14890D01*
X7348Y14890D01*
X7365Y14884D01*
X7383Y14879D01*
X7384Y14879D01*
X7385Y14878D01*
X7403Y14877D01*
X7422Y14875D01*
X7424Y14875D01*
X7424Y14875D01*
X7424Y14875D01*
X7425Y14875D01*
X7626Y14875D01*
X7654Y14845D01*
X7702Y14811D01*
X7756Y14788D01*
X7814Y14775D01*
X7873Y14774D01*
X7931Y14784D01*
X7985Y14805D01*
X8035Y14837D01*
X8078Y14878D01*
X8112Y14926D01*
X8136Y14979D01*
X8149Y15037D01*
X8150Y15104D01*
X8150Y14807D01*
X7117Y13775D01*
X6507Y13775D01*
X6440Y13842D01*
X6444Y13852D01*
X6450Y13881D01*
X6450Y13910D01*
X6450Y14341D01*
X6444Y14370D01*
X6433Y14397D01*
X6417Y14422D01*
X6396Y14442D01*
X6371Y14459D01*
X6344Y14470D01*
X6316Y14476D01*
X6286Y14476D01*
X5975Y14476D01*
X5946Y14471D01*
X5919Y14459D01*
X5895Y14443D01*
X5874Y14422D01*
X5857Y14398D01*
X5846Y14371D01*
X5840Y14342D01*
X5840Y14313D01*
X5840Y13882D01*
X5845Y13853D01*
X5857Y13826D01*
X5873Y13801D01*
X5894Y13780D01*
X5918Y13764D01*
X5945Y13752D01*
X5974Y13746D01*
X5976Y13746D01*
X5977Y13745D01*
X5978Y13744D01*
X5978Y13744D01*
X5990Y13729D01*
X6001Y13715D01*
X6003Y13713D01*
X6003Y13713D01*
X6003Y13713D01*
X6003Y13713D01*
X6261Y13455D01*
X6259Y13452D01*
X6259Y13452D01*
X6258Y13451D01*
X6250Y13434D01*
X6241Y13418D01*
X6240Y13417D01*
X6240Y13416D01*
X6234Y13399D01*
X6229Y13381D01*
X6229Y13380D01*
X6228Y13379D01*
X6227Y13361D01*
X6225Y13342D01*
X6225Y13340D01*
X6225Y13340D01*
X6225Y13340D01*
X6225Y13339D01*
X6225Y12676D01*
X5997Y12676D01*
X5997Y12678D01*
X5999Y12697D01*
X5999Y12699D01*
X5999Y12699D01*
X5999Y12699D01*
X6000Y12700D01*
X6000Y12925D01*
X5998Y12943D01*
X5996Y12961D01*
X5996Y12962D01*
X5996Y12963D01*
X5990Y12981D01*
X5985Y12999D01*
X5985Y13000D01*
X5984Y13001D01*
X5976Y13017D01*
X5967Y13033D01*
X5967Y13034D01*
X5966Y13035D01*
X5954Y13050D01*
X5943Y13064D01*
X5941Y13065D01*
X5941Y13065D01*
X5941Y13065D01*
X5941Y13066D01*
X5791Y13216D01*
X5777Y13228D01*
X5762Y13240D01*
X5762Y13240D01*
X5761Y13241D01*
X5744Y13249D01*
X5728Y13258D01*
X5727Y13259D01*
X5726Y13259D01*
X5709Y13265D01*
X5691Y13270D01*
X5690Y13270D01*
X5689Y13271D01*
X5671Y13272D01*
X5652Y13274D01*
X5650Y13274D01*
X5650Y13274D01*
X5650Y13274D01*
X5650Y13275D01*
X4750Y13275D01*
X4731Y13273D01*
X4713Y13271D01*
X4712Y13271D01*
X4711Y13271D01*
X4693Y13265D01*
X4675Y13260D01*
X4674Y13260D01*
X4673Y13259D01*
X4657Y13251D01*
X4641Y13242D01*
X4640Y13242D01*
X4639Y13241D01*
X4624Y13229D01*
X4610Y13218D01*
X4609Y13216D01*
X4609Y13216D01*
X4609Y13216D01*
X4608Y13216D01*
X4525Y13132D01*
X4525Y14179D01*
X4513Y14237D01*
X4491Y14291D01*
X4458Y14340D01*
X4417Y14382D01*
X4404Y14390D01*
X4411Y14404D01*
X4424Y14462D01*
X4425Y14529D01*
X4413Y14587D01*
X4391Y14641D01*
X4358Y14690D01*
X4317Y14732D01*
X4268Y14765D01*
X4214Y14787D01*
X4156Y14799D01*
X4097Y14800D01*
X4039Y14789D01*
X3985Y14767D01*
X3936Y14734D01*
X3894Y14693D01*
X3860Y14645D01*
X3837Y14591D01*
X3825Y14533D01*
X3824Y14474D01*
X3835Y14416D01*
X3856Y14362D01*
X3888Y14312D01*
X3929Y14270D01*
X3945Y14259D01*
X3937Y14241D01*
X3925Y14183D01*
X3924Y14124D01*
X3935Y14066D01*
X3956Y14012D01*
X3988Y13962D01*
X4029Y13920D01*
X4077Y13886D01*
X4131Y13863D01*
X4189Y13850D01*
X4248Y13849D01*
X4306Y13859D01*
X4360Y13880D01*
X4410Y13912D01*
X4453Y13953D01*
X4487Y14001D01*
X4511Y14054D01*
X4524Y14112D01*
X4525Y14179D01*
X4525Y13132D01*
X4333Y12941D01*
X4321Y12927D01*
X4309Y12912D01*
X4309Y12912D01*
X4308Y12911D01*
X4300Y12894D01*
X4291Y12878D01*
X4290Y12877D01*
X4290Y12876D01*
X4284Y12859D01*
X4283Y12854D01*
X4264Y12862D01*
X4206Y12874D01*
X4147Y12875D01*
X4089Y12864D01*
X4035Y12842D01*
X3986Y12809D01*
X3944Y12768D01*
X3910Y12720D01*
X3887Y12666D01*
X3875Y12608D01*
X3874Y12549D01*
X3885Y12491D01*
X3906Y12437D01*
X3938Y12387D01*
X3979Y12345D01*
X4027Y12311D01*
X4081Y12288D01*
X4139Y12275D01*
X4198Y12274D01*
X4256Y12284D01*
X4275Y12291D01*
X4275Y12185D01*
X3604Y12185D01*
X3500Y12289D01*
X3500Y12541D01*
X3494Y12570D01*
X3483Y12597D01*
X3467Y12622D01*
X3446Y12642D01*
X3421Y12659D01*
X3394Y12670D01*
X3366Y12676D01*
X3336Y12676D01*
X3025Y12676D01*
X2996Y12671D01*
X2969Y12659D01*
X2945Y12643D01*
X2926Y12624D01*
X2916Y12649D01*
X2883Y12698D01*
X2842Y12740D01*
X2793Y12773D01*
X2739Y12795D01*
X2681Y12807D01*
X2622Y12808D01*
X2564Y12797D01*
X2510Y12775D01*
X2461Y12742D01*
X2419Y12701D01*
X2385Y12653D01*
X2362Y12599D01*
X2352Y12553D01*
X2135Y12553D01*
X2106Y12547D01*
X2078Y12536D01*
X2054Y12519D01*
X2033Y12499D01*
X2017Y12474D01*
X2005Y12447D01*
X1999Y12418D01*
X1999Y12389D01*
X1999Y11958D01*
X2005Y11929D01*
X2016Y11902D01*
X2032Y11877D01*
X2053Y11857D01*
X2078Y11840D01*
X2105Y11829D01*
X2133Y11823D01*
X2163Y11823D01*
X2219Y11823D01*
X2358Y11683D01*
X2372Y11671D01*
X2387Y11659D01*
X2387Y11659D01*
X2388Y11658D01*
X2404Y11650D01*
X2421Y11641D01*
X2422Y11640D01*
X2423Y11640D01*
X2440Y11634D01*
X2458Y11629D01*
X2459Y11629D01*
X2460Y11628D01*
X2478Y11627D01*
X2497Y11625D01*
X2499Y11625D01*
X2499Y11625D01*
X2499Y11625D01*
X2500Y11625D01*
X4900Y11625D01*
X4918Y11626D01*
X4936Y11628D01*
X4937Y11628D01*
X4938Y11628D01*
X4956Y11634D01*
X4974Y11639D01*
X4975Y11639D01*
X4976Y11640D01*
X4992Y11648D01*
X5008Y11657D01*
X5009Y11657D01*
X5010Y11658D01*
X5025Y11670D01*
X5039Y11681D01*
X5040Y11683D01*
X5040Y11683D01*
X5040Y11683D01*
X5041Y11683D01*
X5566Y12208D01*
X5578Y12222D01*
X5586Y12233D01*
X5631Y12213D01*
X5689Y12200D01*
X5748Y12199D01*
X5806Y12209D01*
X5840Y12222D01*
X5840Y12082D01*
X5845Y12053D01*
X5857Y12026D01*
X5873Y12001D01*
X5894Y11980D01*
X5918Y11964D01*
X5945Y11952D01*
X5974Y11946D01*
X6003Y11946D01*
X6314Y11946D01*
X6343Y11952D01*
X6371Y11963D01*
X6395Y11980D01*
X6416Y12000D01*
X6432Y12025D01*
X6444Y12052D01*
X6450Y12081D01*
X6450Y12110D01*
X6450Y12147D01*
X6461Y12156D01*
X6476Y12168D01*
X6477Y12169D01*
X6477Y12169D01*
X6477Y12169D01*
X6478Y12170D01*
X6566Y12258D01*
X6578Y12272D01*
X6590Y12287D01*
X6590Y12287D01*
X6591Y12288D01*
X6599Y12304D01*
X6608Y12321D01*
X6609Y12322D01*
X6609Y12323D01*
X6615Y12340D01*
X6620Y12358D01*
X6620Y12359D01*
X6621Y12360D01*
X6622Y12378D01*
X6624Y12397D01*
X6624Y12399D01*
X6624Y12399D01*
X6624Y12399D01*
X6625Y12400D01*
X6625Y13214D01*
X7266Y13214D01*
X7284Y13216D01*
X7303Y13218D01*
X7304Y13218D01*
X7305Y13218D01*
X7322Y13224D01*
X7340Y13229D01*
X7341Y13229D01*
X7342Y13230D01*
X7358Y13238D01*
X7375Y13247D01*
X7376Y13247D01*
X7376Y13248D01*
X7391Y13260D01*
X7405Y13271D01*
X7407Y13273D01*
X7407Y13273D01*
X7407Y13273D01*
X7407Y13273D01*
X8234Y14100D01*
X8542Y14100D01*
X8775Y13867D01*
X8775Y13624D01*
X8744Y13593D01*
X8710Y13545D01*
X8687Y13491D01*
X8675Y13433D01*
X8674Y13374D01*
X8685Y13316D01*
X8706Y13262D01*
X8738Y13212D01*
X8779Y13170D01*
X8827Y13136D01*
X8881Y13113D01*
X8939Y13100D01*
X8998Y13099D01*
X9056Y13109D01*
X9110Y13130D01*
X9160Y13162D01*
X9203Y13203D01*
X9237Y13251D01*
X9261Y13304D01*
X9274Y13362D01*
X9275Y13429D01*
X9275Y10169D01*
X8669Y10169D01*
X8723Y10220D01*
X8771Y10289D01*
X8805Y10365D01*
X8823Y10446D01*
X8825Y10541D01*
X8825Y11541D01*
X8808Y11623D01*
X8777Y11700D01*
X8730Y11769D01*
X8672Y11829D01*
X8603Y11875D01*
X8542Y11901D01*
X8542Y11901D01*
X8553Y11928D01*
X8559Y11957D01*
X8559Y11986D01*
X8559Y12417D01*
X8554Y12446D01*
X8542Y12473D01*
X8526Y12498D01*
X8512Y12512D01*
X8528Y12528D01*
X8562Y12576D01*
X8586Y12629D01*
X8599Y12687D01*
X8600Y12754D01*
X8588Y12812D01*
X8566Y12866D01*
X8533Y12915D01*
X8492Y12957D01*
X8443Y12990D01*
X8389Y13012D01*
X8331Y13024D01*
X8272Y13025D01*
X8214Y13014D01*
X8160Y12992D01*
X8111Y12959D01*
X8069Y12918D01*
X8035Y12870D01*
X8025Y12845D01*
X8016Y12866D01*
X7983Y12915D01*
X7942Y12957D01*
X7893Y12990D01*
X7839Y13012D01*
X7781Y13024D01*
X7722Y13025D01*
X7664Y13014D01*
X7610Y12992D01*
X7561Y12959D01*
X7519Y12918D01*
X7485Y12870D01*
X7462Y12816D01*
X7450Y12758D01*
X7449Y12699D01*
X7460Y12641D01*
X7481Y12587D01*
X7513Y12537D01*
X7554Y12495D01*
X7602Y12461D01*
X7656Y12438D01*
X7714Y12425D01*
X7773Y12424D01*
X7831Y12434D01*
X7885Y12455D01*
X7935Y12487D01*
X7978Y12528D01*
X8012Y12576D01*
X8024Y12604D01*
X8031Y12587D01*
X8054Y12551D01*
X8054Y12546D01*
X8028Y12536D01*
X8004Y12519D01*
X7983Y12499D01*
X7967Y12474D01*
X7955Y12447D01*
X7949Y12418D01*
X7949Y12389D01*
X7949Y11958D01*
X7955Y11929D01*
X7966Y11902D01*
X7982Y11877D01*
X8003Y11857D01*
X8028Y11840D01*
X8055Y11829D01*
X8083Y11823D01*
X8113Y11823D01*
X8122Y11823D01*
X8072Y11774D01*
X8025Y11705D01*
X7992Y11629D01*
X7975Y11547D01*
X7974Y11464D01*
X7989Y11382D01*
X8020Y11304D01*
X8065Y11234D01*
X8123Y11174D01*
X8191Y11127D01*
X8268Y11093D01*
X8349Y11075D01*
X8432Y11074D01*
X8514Y11088D01*
X8592Y11118D01*
X8662Y11163D01*
X8723Y11220D01*
X8771Y11289D01*
X8805Y11365D01*
X8823Y11446D01*
X8825Y11541D01*
X8825Y10541D01*
X8808Y10623D01*
X8777Y10700D01*
X8730Y10769D01*
X8672Y10829D01*
X8603Y10875D01*
X8526Y10907D01*
X8444Y10924D01*
X8361Y10925D01*
X8279Y10909D01*
X8202Y10878D01*
X8132Y10832D01*
X8072Y10774D01*
X8025Y10705D01*
X7992Y10629D01*
X7975Y10547D01*
X7974Y10464D01*
X7989Y10382D01*
X8020Y10304D01*
X8065Y10234D01*
X8123Y10174D01*
X8130Y10169D01*
X7525Y10169D01*
X7525Y12004D01*
X7513Y12062D01*
X7491Y12116D01*
X7458Y12165D01*
X7435Y12188D01*
X7462Y12226D01*
X7486Y12279D01*
X7499Y12337D01*
X7500Y12404D01*
X7488Y12462D01*
X7466Y12516D01*
X7433Y12565D01*
X7406Y12592D01*
X7412Y12601D01*
X7436Y12654D01*
X7449Y12712D01*
X7450Y12779D01*
X7438Y12837D01*
X7416Y12891D01*
X7383Y12940D01*
X7342Y12982D01*
X7293Y13015D01*
X7239Y13037D01*
X7181Y13049D01*
X7122Y13050D01*
X7064Y13039D01*
X7010Y13017D01*
X6961Y12984D01*
X6919Y12943D01*
X6885Y12895D01*
X6862Y12841D01*
X6850Y12783D01*
X6849Y12724D01*
X6860Y12666D01*
X6881Y12612D01*
X6913Y12562D01*
X6943Y12531D01*
X6935Y12520D01*
X6912Y12466D01*
X6900Y12408D01*
X6899Y12349D01*
X6910Y12291D01*
X6931Y12237D01*
X6963Y12187D01*
X6989Y12161D01*
X6960Y12120D01*
X6937Y12066D01*
X6935Y12054D01*
X6914Y12062D01*
X6856Y12074D01*
X6797Y12075D01*
X6739Y12064D01*
X6685Y12042D01*
X6636Y12009D01*
X6594Y11968D01*
X6560Y11920D01*
X6537Y11866D01*
X6525Y11808D01*
X6524Y11749D01*
X6535Y11691D01*
X6556Y11637D01*
X6588Y11587D01*
X6629Y11545D01*
X6677Y11511D01*
X6731Y11488D01*
X6789Y11475D01*
X6848Y11474D01*
X6906Y11484D01*
X6960Y11505D01*
X7010Y11537D01*
X7053Y11578D01*
X7087Y11626D01*
X7111Y11679D01*
X7114Y11695D01*
X7131Y11688D01*
X7189Y11675D01*
X7248Y11674D01*
X7306Y11684D01*
X7360Y11705D01*
X7410Y11737D01*
X7453Y11778D01*
X7487Y11826D01*
X7511Y11879D01*
X7524Y11937D01*
X7525Y12004D01*
X7525Y10169D01*
X4508Y10169D01*
X3659Y10252D01*
X2850Y10497D01*
X2104Y10893D01*
X1504Y11382D01*
X1504Y15041D01*
X1493Y15098D01*
X1470Y15153D01*
X1438Y15202D01*
X1396Y15244D01*
X1348Y15276D01*
X1293Y15299D01*
X1236Y15311D01*
X1177Y15312D01*
X1119Y15300D01*
X1065Y15278D01*
X1015Y15246D01*
X973Y15205D01*
X940Y15157D01*
X917Y15102D01*
X905Y15045D01*
X904Y14986D01*
X914Y14928D01*
X936Y14874D01*
X968Y14824D01*
X1009Y14782D01*
X1057Y14748D01*
X1111Y14725D01*
X1169Y14712D01*
X1227Y14711D01*
X1285Y14721D01*
X1340Y14742D01*
X1390Y14774D01*
X1432Y14814D01*
X1466Y14862D01*
X1490Y14916D01*
X1503Y14974D01*
X1504Y15041D01*
X1504Y11382D01*
X1449Y11427D01*
X910Y12078D01*
X508Y12822D01*
X258Y13629D01*
X169Y14477D01*
X169Y14491D01*
X252Y15340D01*
X497Y16149D01*
X893Y16895D01*
X1427Y17550D01*
X2078Y18089D01*
X2822Y18491D01*
X3629Y18741D01*
X4477Y18830D01*
X4500Y18830D01*
X8129Y18830D01*
X8072Y18774D01*
X8025Y18705D01*
X7992Y18629D01*
X7975Y18547D01*
X7974Y18464D01*
X7989Y18382D01*
X8020Y18304D01*
X8065Y18234D01*
X8123Y18174D01*
X8191Y18127D01*
X8268Y18093D01*
X8349Y18075D01*
X8432Y18074D01*
X8514Y18088D01*
X8592Y18118D01*
X8662Y18163D01*
X8723Y18220D01*
X8771Y18289D01*
X8805Y18365D01*
X8823Y18446D01*
X8825Y18541D01*
X8808Y18623D01*
X8777Y18700D01*
X8730Y18769D01*
X8672Y18829D01*
X8670Y18830D01*
X9129Y18830D01*
X9072Y18774D01*
X9025Y18705D01*
X8992Y18629D01*
X8975Y18547D01*
X8974Y18464D01*
X8989Y18382D01*
X9020Y18304D01*
X9065Y18234D01*
X9123Y18174D01*
X9191Y18127D01*
X9268Y18093D01*
X9349Y18075D01*
X9432Y18074D01*
X9514Y18088D01*
X9592Y18118D01*
X9662Y18163D01*
X9723Y18220D01*
X9771Y18289D01*
X9805Y18365D01*
X9823Y18446D01*
X9825Y18541D01*
X9808Y18623D01*
X9777Y18700D01*
X9730Y18769D01*
X9672Y18829D01*
X9670Y18830D01*
X9830Y18830D01*
X9830Y17500D01*
X9830Y11500D01*
X9830Y10169D01*
G54D10*
G36*
X18870Y14010D02*
X18754Y14010D01*
X18729Y14005D01*
X18706Y13995D01*
X18684Y13981D01*
X18666Y13963D01*
X18652Y13942D01*
X18642Y13918D01*
X18637Y13893D01*
X18637Y13868D01*
X18637Y13730D01*
X17798Y13730D01*
X17783Y13736D01*
X17729Y13747D01*
X17674Y13747D01*
X17620Y13737D01*
X17602Y13730D01*
X17380Y13730D01*
X17380Y14562D01*
X16827Y15114D01*
X16827Y15240D01*
X16822Y15265D01*
X16812Y15288D01*
X16798Y15310D01*
X16780Y15328D01*
X16759Y15342D01*
X16736Y15352D01*
X16711Y15357D01*
X16685Y15357D01*
X16584Y15357D01*
X16412Y15530D01*
X16100Y15530D01*
X16080Y15530D01*
X16080Y17950D01*
X16080Y18570D01*
X16820Y18570D01*
X16820Y17020D01*
X18170Y17020D01*
X18170Y15487D01*
X18378Y15278D01*
X18870Y14787D01*
X18870Y14010D01*
X18870Y14010D01*
G37*
G54D59*
X18870Y14010D02*
X18754Y14010D01*
X18729Y14005D01*
X18706Y13995D01*
X18684Y13981D01*
X18666Y13963D01*
X18652Y13942D01*
X18642Y13918D01*
X18637Y13893D01*
X18637Y13868D01*
X18637Y13730D01*
X17798Y13730D01*
X17783Y13736D01*
X17729Y13747D01*
X17674Y13747D01*
X17620Y13737D01*
X17602Y13730D01*
X17380Y13730D01*
X17380Y14562D01*
X16827Y15114D01*
X16827Y15240D01*
X16822Y15265D01*
X16812Y15288D01*
X16798Y15310D01*
X16780Y15328D01*
X16759Y15342D01*
X16736Y15352D01*
X16711Y15357D01*
X16685Y15357D01*
X16584Y15357D01*
X16412Y15530D01*
X16100Y15530D01*
X16080Y15530D01*
X16080Y17950D01*
X16080Y18570D01*
X16820Y18570D01*
X16820Y17020D01*
X18170Y17020D01*
X18170Y15487D01*
X18378Y15278D01*
X18870Y14787D01*
X18870Y14010D01*
G54D10*
G36*
X19380Y17430D02*
X18970Y17430D01*
X18970Y17180D01*
X16980Y17180D01*
X16980Y18570D01*
X18956Y18570D01*
X18952Y18563D01*
X18952Y18562D01*
X18952Y18561D01*
X18947Y18547D01*
X18943Y18533D01*
X18943Y18532D01*
X18943Y18531D01*
X18941Y18516D01*
X18940Y18502D01*
X18940Y18500D01*
X18940Y18500D01*
X18940Y18500D01*
X18940Y18500D01*
X18940Y18200D01*
X18941Y18185D01*
X18942Y18170D01*
X18942Y18169D01*
X18943Y18168D01*
X18947Y18154D01*
X18951Y18140D01*
X18951Y18139D01*
X18952Y18139D01*
X18959Y18125D01*
X18965Y18112D01*
X18966Y18112D01*
X18966Y18111D01*
X18976Y18099D01*
X18985Y18088D01*
X18986Y18087D01*
X18986Y18087D01*
X18986Y18087D01*
X18986Y18086D01*
X19380Y17693D01*
X19380Y17430D01*
X19380Y17430D01*
G37*
G54D59*
X19380Y17430D02*
X18970Y17430D01*
X18970Y17180D01*
X16980Y17180D01*
X16980Y18570D01*
X18956Y18570D01*
X18952Y18563D01*
X18952Y18562D01*
X18952Y18561D01*
X18947Y18547D01*
X18943Y18533D01*
X18943Y18532D01*
X18943Y18531D01*
X18941Y18516D01*
X18940Y18502D01*
X18940Y18500D01*
X18940Y18500D01*
X18940Y18500D01*
X18940Y18500D01*
X18940Y18200D01*
X18941Y18185D01*
X18942Y18170D01*
X18942Y18169D01*
X18943Y18168D01*
X18947Y18154D01*
X18951Y18140D01*
X18951Y18139D01*
X18952Y18139D01*
X18959Y18125D01*
X18965Y18112D01*
X18966Y18112D01*
X18966Y18111D01*
X18976Y18099D01*
X18985Y18088D01*
X18986Y18087D01*
X18986Y18087D01*
X18986Y18087D01*
X18986Y18086D01*
X19380Y17693D01*
X19380Y17430D01*
G54D10*
G36*
X19370Y16930D02*
X19187Y16930D01*
X19020Y16762D01*
X19020Y16742D01*
X19017Y16740D01*
X19017Y16739D01*
X19017Y16739D01*
X19010Y16725D01*
X19002Y16713D01*
X19002Y16712D01*
X19002Y16711D01*
X18997Y16697D01*
X18993Y16683D01*
X18993Y16682D01*
X18993Y16681D01*
X18991Y16666D01*
X18990Y16652D01*
X18990Y16650D01*
X18990Y16650D01*
X18990Y16650D01*
X18990Y16650D01*
X18990Y15800D01*
X18990Y15700D01*
X18991Y15685D01*
X18992Y15670D01*
X18992Y15669D01*
X18993Y15668D01*
X18997Y15654D01*
X19001Y15640D01*
X19001Y15639D01*
X19002Y15639D01*
X19009Y15625D01*
X19015Y15612D01*
X19016Y15612D01*
X19016Y15611D01*
X19020Y15607D01*
X19020Y15530D01*
X19002Y15530D01*
X18974Y15530D01*
X18973Y15530D01*
X18380Y15530D01*
X18380Y17020D01*
X18700Y17020D01*
X19370Y17020D01*
X19370Y16930D01*
X19370Y16930D01*
G37*
G54D59*
X19370Y16930D02*
X19187Y16930D01*
X19020Y16762D01*
X19020Y16742D01*
X19017Y16740D01*
X19017Y16739D01*
X19017Y16739D01*
X19010Y16725D01*
X19002Y16713D01*
X19002Y16712D01*
X19002Y16711D01*
X18997Y16697D01*
X18993Y16683D01*
X18993Y16682D01*
X18993Y16681D01*
X18991Y16666D01*
X18990Y16652D01*
X18990Y16650D01*
X18990Y16650D01*
X18990Y16650D01*
X18990Y16650D01*
X18990Y15800D01*
X18990Y15700D01*
X18991Y15685D01*
X18992Y15670D01*
X18992Y15669D01*
X18993Y15668D01*
X18997Y15654D01*
X19001Y15640D01*
X19001Y15639D01*
X19002Y15639D01*
X19009Y15625D01*
X19015Y15612D01*
X19016Y15612D01*
X19016Y15611D01*
X19020Y15607D01*
X19020Y15530D01*
X19002Y15530D01*
X18974Y15530D01*
X18973Y15530D01*
X18380Y15530D01*
X18380Y17020D01*
X18700Y17020D01*
X19370Y17020D01*
X19370Y16930D01*
G54D10*
G36*
X21620Y16180D02*
X20912Y16180D01*
X20712Y16380D01*
X19680Y16380D01*
X19680Y16400D01*
X19680Y17153D01*
X19713Y17186D01*
X19722Y17198D01*
X19732Y17209D01*
X19732Y17210D01*
X19732Y17210D01*
X19739Y17224D01*
X19747Y17236D01*
X19747Y17237D01*
X19747Y17238D01*
X19752Y17252D01*
X19756Y17266D01*
X19756Y17267D01*
X19756Y17268D01*
X19758Y17283D01*
X19759Y17297D01*
X19759Y17299D01*
X19759Y17299D01*
X19759Y17299D01*
X19760Y17300D01*
X19760Y17700D01*
X19758Y17714D01*
X19758Y17720D01*
X20596Y17720D01*
X20621Y17719D01*
X20624Y17720D01*
X20640Y17720D01*
X20990Y17470D01*
X21270Y17470D01*
X21270Y16987D01*
X21387Y16870D01*
X21620Y16870D01*
X21620Y16180D01*
X21620Y16180D01*
G37*
G54D59*
X21620Y16180D02*
X20912Y16180D01*
X20712Y16380D01*
X19680Y16380D01*
X19680Y16400D01*
X19680Y17153D01*
X19713Y17186D01*
X19722Y17198D01*
X19732Y17209D01*
X19732Y17210D01*
X19732Y17210D01*
X19739Y17224D01*
X19747Y17236D01*
X19747Y17237D01*
X19747Y17238D01*
X19752Y17252D01*
X19756Y17266D01*
X19756Y17267D01*
X19756Y17268D01*
X19758Y17283D01*
X19759Y17297D01*
X19759Y17299D01*
X19759Y17299D01*
X19759Y17299D01*
X19760Y17300D01*
X19760Y17700D01*
X19758Y17714D01*
X19758Y17720D01*
X20596Y17720D01*
X20621Y17719D01*
X20624Y17720D01*
X20640Y17720D01*
X20990Y17470D01*
X21270Y17470D01*
X21270Y16987D01*
X21387Y16870D01*
X21620Y16870D01*
X21620Y16180D01*
G54D10*
G36*
X23920Y15512D02*
X23778Y15371D01*
X23437Y15030D01*
X22200Y15030D01*
X22180Y15030D01*
X22169Y15046D01*
X22050Y15165D01*
X21911Y15260D01*
X21755Y15325D01*
X21590Y15359D01*
X21421Y15360D01*
X21256Y15329D01*
X21099Y15265D01*
X21030Y15220D01*
X21030Y16000D01*
X21030Y16020D01*
X21870Y16020D01*
X21870Y15848D01*
X21864Y15835D01*
X21852Y15781D01*
X21852Y15726D01*
X21862Y15672D01*
X21870Y15652D01*
X21870Y15470D01*
X21921Y15470D01*
X21940Y15457D01*
X21963Y15447D01*
X21988Y15442D01*
X22014Y15442D01*
X22275Y15442D01*
X22300Y15447D01*
X22323Y15457D01*
X22343Y15470D01*
X22456Y15470D01*
X22475Y15457D01*
X22498Y15447D01*
X22523Y15442D01*
X22549Y15442D01*
X22810Y15442D01*
X22835Y15447D01*
X22858Y15457D01*
X22878Y15470D01*
X23096Y15470D01*
X23121Y15469D01*
X23124Y15470D01*
X23130Y15470D01*
X23149Y15421D01*
X23179Y15375D01*
X23217Y15335D01*
X23262Y15304D01*
X23313Y15282D01*
X23366Y15270D01*
X23421Y15269D01*
X23475Y15279D01*
X23526Y15298D01*
X23573Y15328D01*
X23612Y15366D01*
X23644Y15411D01*
X23666Y15461D01*
X23679Y15514D01*
X23680Y15577D01*
X23669Y15631D01*
X23648Y15682D01*
X23630Y15709D01*
X23630Y15970D01*
X23916Y15970D01*
X23916Y15703D01*
X23919Y15667D01*
X23920Y15667D01*
X23920Y15512D01*
X23920Y15512D01*
G37*
G54D59*
X23920Y15512D02*
X23778Y15371D01*
X23437Y15030D01*
X22200Y15030D01*
X22180Y15030D01*
X22169Y15046D01*
X22050Y15165D01*
X21911Y15260D01*
X21755Y15325D01*
X21590Y15359D01*
X21421Y15360D01*
X21256Y15329D01*
X21099Y15265D01*
X21030Y15220D01*
X21030Y16000D01*
X21030Y16020D01*
X21870Y16020D01*
X21870Y15848D01*
X21864Y15835D01*
X21852Y15781D01*
X21852Y15726D01*
X21862Y15672D01*
X21870Y15652D01*
X21870Y15470D01*
X21921Y15470D01*
X21940Y15457D01*
X21963Y15447D01*
X21988Y15442D01*
X22014Y15442D01*
X22275Y15442D01*
X22300Y15447D01*
X22323Y15457D01*
X22343Y15470D01*
X22456Y15470D01*
X22475Y15457D01*
X22498Y15447D01*
X22523Y15442D01*
X22549Y15442D01*
X22810Y15442D01*
X22835Y15447D01*
X22858Y15457D01*
X22878Y15470D01*
X23096Y15470D01*
X23121Y15469D01*
X23124Y15470D01*
X23130Y15470D01*
X23149Y15421D01*
X23179Y15375D01*
X23217Y15335D01*
X23262Y15304D01*
X23313Y15282D01*
X23366Y15270D01*
X23421Y15269D01*
X23475Y15279D01*
X23526Y15298D01*
X23573Y15328D01*
X23612Y15366D01*
X23644Y15411D01*
X23666Y15461D01*
X23679Y15514D01*
X23680Y15577D01*
X23669Y15631D01*
X23648Y15682D01*
X23630Y15709D01*
X23630Y15970D01*
X23916Y15970D01*
X23916Y15703D01*
X23919Y15667D01*
X23920Y15667D01*
X23920Y15512D01*
G54D10*
G36*
X24720Y15730D02*
X24483Y15730D01*
X24483Y15986D01*
X24480Y16022D01*
X24480Y16022D01*
X24480Y16062D01*
X24447Y16094D01*
X24429Y16116D01*
X24406Y16135D01*
X24380Y16162D01*
X24380Y16170D01*
X24670Y16170D01*
X24670Y16087D01*
X24720Y16037D01*
X24720Y15750D01*
X24720Y15730D01*
X24720Y15730D01*
G37*
G54D59*
X24720Y15730D02*
X24483Y15730D01*
X24483Y15986D01*
X24480Y16022D01*
X24480Y16022D01*
X24480Y16062D01*
X24447Y16094D01*
X24429Y16116D01*
X24406Y16135D01*
X24380Y16162D01*
X24380Y16170D01*
X24670Y16170D01*
X24670Y16087D01*
X24720Y16037D01*
X24720Y15750D01*
X24720Y15730D01*
G54D10*
G36*
X25670Y17230D02*
X25337Y17230D01*
X25312Y17205D01*
X25304Y17202D01*
X25290Y17198D01*
X25289Y17198D01*
X25289Y17197D01*
X25275Y17190D01*
X25262Y17184D01*
X25262Y17183D01*
X25261Y17183D01*
X25249Y17173D01*
X25238Y17164D01*
X25237Y17163D01*
X25237Y17163D01*
X25237Y17163D01*
X25236Y17163D01*
X25203Y17130D01*
X25152Y17130D01*
X25149Y17130D01*
X25146Y17130D01*
X24880Y17130D01*
X24880Y17212D01*
X24841Y17251D01*
X24832Y17264D01*
X24814Y17282D01*
X24800Y17291D01*
X24762Y17330D01*
X24680Y17330D01*
X24680Y17596D01*
X24680Y17600D01*
X24680Y17620D01*
X25670Y17620D01*
X25670Y17230D01*
X25670Y17230D01*
G37*
G54D59*
X25670Y17230D02*
X25337Y17230D01*
X25312Y17205D01*
X25304Y17202D01*
X25290Y17198D01*
X25289Y17198D01*
X25289Y17197D01*
X25275Y17190D01*
X25262Y17184D01*
X25262Y17183D01*
X25261Y17183D01*
X25249Y17173D01*
X25238Y17164D01*
X25237Y17163D01*
X25237Y17163D01*
X25237Y17163D01*
X25236Y17163D01*
X25203Y17130D01*
X25152Y17130D01*
X25149Y17130D01*
X25146Y17130D01*
X24880Y17130D01*
X24880Y17212D01*
X24841Y17251D01*
X24832Y17264D01*
X24814Y17282D01*
X24800Y17291D01*
X24762Y17330D01*
X24680Y17330D01*
X24680Y17596D01*
X24680Y17600D01*
X24680Y17620D01*
X25670Y17620D01*
X25670Y17230D01*
G54D10*
G36*
X24070Y12162D02*
X24028Y12121D01*
X23470Y11562D01*
X23470Y11430D01*
X21512Y11430D01*
X21321Y11621D01*
X21262Y11680D01*
X21030Y11680D01*
X21030Y12120D01*
X21262Y12120D01*
X21580Y12437D01*
X21580Y12912D01*
X21587Y12916D01*
X21588Y12916D01*
X21588Y12916D01*
X21592Y12920D01*
X21920Y12920D01*
X21920Y12437D01*
X22037Y12320D01*
X23487Y12320D01*
X23587Y12220D01*
X23764Y12220D01*
X23795Y12216D01*
X23798Y12216D01*
X24070Y12216D01*
X24070Y12162D01*
X24070Y12162D01*
G37*
G54D59*
X24070Y12162D02*
X24028Y12121D01*
X23470Y11562D01*
X23470Y11430D01*
X21512Y11430D01*
X21321Y11621D01*
X21262Y11680D01*
X21030Y11680D01*
X21030Y12120D01*
X21262Y12120D01*
X21580Y12437D01*
X21580Y12912D01*
X21587Y12916D01*
X21588Y12916D01*
X21588Y12916D01*
X21592Y12920D01*
X21920Y12920D01*
X21920Y12437D01*
X22037Y12320D01*
X23487Y12320D01*
X23587Y12220D01*
X23764Y12220D01*
X23795Y12216D01*
X23798Y12216D01*
X24070Y12216D01*
X24070Y12162D01*
G54D10*
G36*
X24470Y11630D02*
X24337Y11630D01*
X24232Y11525D01*
X24223Y11519D01*
X24184Y11480D01*
X24175Y11468D01*
X24070Y11362D01*
X24070Y10260D01*
X21530Y10260D01*
X21530Y11270D01*
X23630Y11270D01*
X23630Y11487D01*
X24162Y12020D01*
X24463Y12020D01*
X24463Y11748D01*
X24466Y11712D01*
X24470Y11701D01*
X24470Y11700D01*
X24470Y11630D01*
X24470Y11630D01*
G37*
G54D59*
X24470Y11630D02*
X24337Y11630D01*
X24232Y11525D01*
X24223Y11519D01*
X24184Y11480D01*
X24175Y11468D01*
X24070Y11362D01*
X24070Y10260D01*
X21530Y10260D01*
X21530Y11270D01*
X23630Y11270D01*
X23630Y11487D01*
X24162Y12020D01*
X24463Y12020D01*
X24463Y11748D01*
X24466Y11712D01*
X24470Y11701D01*
X24470Y11700D01*
X24470Y11630D01*
G54D10*
G36*
X27543Y15520D02*
X27542Y15510D01*
X27542Y15508D01*
X27542Y15230D01*
X27337Y15230D01*
X27308Y15201D01*
X27305Y15199D01*
X27284Y15185D01*
X27266Y15167D01*
X27252Y15146D01*
X27250Y15142D01*
X27220Y15112D01*
X27220Y14387D01*
X27250Y14357D01*
X27251Y14354D01*
X27265Y14332D01*
X27283Y14314D01*
X27304Y14300D01*
X27308Y14298D01*
X27337Y14270D01*
X27385Y14270D01*
X27385Y13991D01*
X27386Y13978D01*
X26887Y13480D01*
X24837Y13480D01*
X24782Y13425D01*
X24775Y13423D01*
X24743Y13406D01*
X24715Y13383D01*
X24692Y13356D01*
X24675Y13324D01*
X24671Y13314D01*
X24670Y13312D01*
X24670Y13308D01*
X24664Y13290D01*
X24660Y13254D01*
X24660Y13251D01*
X24660Y12980D01*
X24187Y12980D01*
X24160Y12952D01*
X24154Y12949D01*
X24132Y12935D01*
X24114Y12917D01*
X24100Y12896D01*
X24097Y12890D01*
X24070Y12862D01*
X24070Y12783D01*
X23798Y12783D01*
X23762Y12780D01*
X23762Y12780D01*
X23737Y12780D01*
X23726Y12768D01*
X23695Y12752D01*
X23667Y12729D01*
X23644Y12701D01*
X23627Y12670D01*
X23520Y12562D01*
X23520Y12530D01*
X23230Y12530D01*
X23230Y14870D01*
X23512Y14870D01*
X24080Y15437D01*
X24080Y15646D01*
X24085Y15665D01*
X24089Y15700D01*
X24089Y15703D01*
X24089Y15970D01*
X24310Y15970D01*
X24310Y15703D01*
X24313Y15667D01*
X24320Y15646D01*
X24320Y14487D01*
X24487Y14320D01*
X26530Y14320D01*
X26530Y15537D01*
X26562Y15570D01*
X27087Y15570D01*
X27137Y15520D01*
X27543Y15520D01*
X27543Y15520D01*
G37*
G54D59*
X27543Y15520D02*
X27542Y15510D01*
X27542Y15508D01*
X27542Y15230D01*
X27337Y15230D01*
X27308Y15201D01*
X27305Y15199D01*
X27284Y15185D01*
X27266Y15167D01*
X27252Y15146D01*
X27250Y15142D01*
X27220Y15112D01*
X27220Y14387D01*
X27250Y14357D01*
X27251Y14354D01*
X27265Y14332D01*
X27283Y14314D01*
X27304Y14300D01*
X27308Y14298D01*
X27337Y14270D01*
X27385Y14270D01*
X27385Y13991D01*
X27386Y13978D01*
X26887Y13480D01*
X24837Y13480D01*
X24782Y13425D01*
X24775Y13423D01*
X24743Y13406D01*
X24715Y13383D01*
X24692Y13356D01*
X24675Y13324D01*
X24671Y13314D01*
X24670Y13312D01*
X24670Y13308D01*
X24664Y13290D01*
X24660Y13254D01*
X24660Y13251D01*
X24660Y12980D01*
X24187Y12980D01*
X24160Y12952D01*
X24154Y12949D01*
X24132Y12935D01*
X24114Y12917D01*
X24100Y12896D01*
X24097Y12890D01*
X24070Y12862D01*
X24070Y12783D01*
X23798Y12783D01*
X23762Y12780D01*
X23762Y12780D01*
X23737Y12780D01*
X23726Y12768D01*
X23695Y12752D01*
X23667Y12729D01*
X23644Y12701D01*
X23627Y12670D01*
X23520Y12562D01*
X23520Y12530D01*
X23230Y12530D01*
X23230Y14870D01*
X23512Y14870D01*
X24080Y15437D01*
X24080Y15646D01*
X24085Y15665D01*
X24089Y15700D01*
X24089Y15703D01*
X24089Y15970D01*
X24310Y15970D01*
X24310Y15703D01*
X24313Y15667D01*
X24320Y15646D01*
X24320Y14487D01*
X24487Y14320D01*
X26530Y14320D01*
X26530Y15537D01*
X26562Y15570D01*
X27087Y15570D01*
X27137Y15520D01*
X27543Y15520D01*
G54D10*
G36*
X26370Y14630D02*
X24480Y14630D01*
X24480Y15519D01*
X24493Y15518D01*
X24511Y15520D01*
X24675Y15520D01*
X24690Y15518D01*
X24708Y15520D01*
X24880Y15520D01*
X24880Y15600D01*
X24880Y16366D01*
X25146Y16366D01*
X25156Y16367D01*
X25236Y16286D01*
X25248Y16277D01*
X25259Y16267D01*
X25260Y16267D01*
X25260Y16267D01*
X25274Y16260D01*
X25286Y16252D01*
X25287Y16252D01*
X25288Y16252D01*
X25302Y16247D01*
X25316Y16243D01*
X25317Y16243D01*
X25318Y16243D01*
X25333Y16241D01*
X25347Y16240D01*
X25349Y16240D01*
X25349Y16240D01*
X25349Y16240D01*
X25350Y16240D01*
X25651Y16240D01*
X25720Y16171D01*
X25720Y15687D01*
X25837Y15570D01*
X26337Y15570D01*
X26370Y15537D01*
X26370Y14630D01*
X26370Y14630D01*
G37*
G54D59*
X26370Y14630D02*
X24480Y14630D01*
X24480Y15519D01*
X24493Y15518D01*
X24511Y15520D01*
X24675Y15520D01*
X24690Y15518D01*
X24708Y15520D01*
X24880Y15520D01*
X24880Y15600D01*
X24880Y16366D01*
X25146Y16366D01*
X25156Y16367D01*
X25236Y16286D01*
X25248Y16277D01*
X25259Y16267D01*
X25260Y16267D01*
X25260Y16267D01*
X25274Y16260D01*
X25286Y16252D01*
X25287Y16252D01*
X25288Y16252D01*
X25302Y16247D01*
X25316Y16243D01*
X25317Y16243D01*
X25318Y16243D01*
X25333Y16241D01*
X25347Y16240D01*
X25349Y16240D01*
X25349Y16240D01*
X25349Y16240D01*
X25350Y16240D01*
X25651Y16240D01*
X25720Y16171D01*
X25720Y15687D01*
X25837Y15570D01*
X26337Y15570D01*
X26370Y15537D01*
X26370Y14630D01*
G54D10*
G36*
X29670Y15230D02*
X28537Y15230D01*
X28420Y15112D01*
X28420Y14112D01*
X28337Y14030D01*
X28214Y14030D01*
X28214Y14285D01*
X28245Y14285D01*
X28270Y14290D01*
X28294Y14300D01*
X28315Y14314D01*
X28321Y14320D01*
X28330Y14320D01*
X28330Y14328D01*
X28333Y14332D01*
X28347Y14353D01*
X28357Y14376D01*
X28362Y14401D01*
X28363Y14427D01*
X28363Y15097D01*
X28358Y15122D01*
X28348Y15145D01*
X28334Y15167D01*
X28330Y15171D01*
X28330Y15180D01*
X28321Y15180D01*
X28316Y15185D01*
X28295Y15199D01*
X28271Y15209D01*
X28246Y15214D01*
X28221Y15214D01*
X28214Y15214D01*
X28214Y15508D01*
X28212Y15535D01*
X28296Y15620D01*
X29637Y15620D01*
X29670Y15587D01*
X29670Y15230D01*
X29670Y15230D01*
G37*
G54D59*
X29670Y15230D02*
X28537Y15230D01*
X28420Y15112D01*
X28420Y14112D01*
X28337Y14030D01*
X28214Y14030D01*
X28214Y14285D01*
X28245Y14285D01*
X28270Y14290D01*
X28294Y14300D01*
X28315Y14314D01*
X28321Y14320D01*
X28330Y14320D01*
X28330Y14328D01*
X28333Y14332D01*
X28347Y14353D01*
X28357Y14376D01*
X28362Y14401D01*
X28363Y14427D01*
X28363Y15097D01*
X28358Y15122D01*
X28348Y15145D01*
X28334Y15167D01*
X28330Y15171D01*
X28330Y15180D01*
X28321Y15180D01*
X28316Y15185D01*
X28295Y15199D01*
X28271Y15209D01*
X28246Y15214D01*
X28221Y15214D01*
X28214Y15214D01*
X28214Y15508D01*
X28212Y15535D01*
X28296Y15620D01*
X29637Y15620D01*
X29670Y15587D01*
X29670Y15230D01*
G54D10*
G36*
X21320Y18080D02*
X20787Y18080D01*
X20728Y18021D01*
X20687Y17980D01*
X20462Y17980D01*
X20362Y18080D01*
X20230Y18080D01*
X20230Y18187D01*
X20416Y18187D01*
X20417Y18185D01*
X20462Y18154D01*
X20513Y18132D01*
X20566Y18120D01*
X20621Y18119D01*
X20675Y18129D01*
X20726Y18148D01*
X20760Y18170D01*
X21320Y18170D01*
X21320Y18080D01*
X21320Y18080D01*
G37*
G54D59*
X21320Y18080D02*
X20787Y18080D01*
X20728Y18021D01*
X20687Y17980D01*
X20462Y17980D01*
X20362Y18080D01*
X20230Y18080D01*
X20230Y18187D01*
X20416Y18187D01*
X20417Y18185D01*
X20462Y18154D01*
X20513Y18132D01*
X20566Y18120D01*
X20621Y18119D01*
X20675Y18129D01*
X20726Y18148D01*
X20760Y18170D01*
X21320Y18170D01*
X21320Y18080D01*
G54D10*
G36*
X50720Y4630D02*
X46480Y4630D01*
X46480Y5312D01*
X46380Y5412D01*
X46380Y5587D01*
X46480Y5687D01*
X46480Y8650D01*
X46480Y8770D01*
X50720Y8770D01*
X50720Y4630D01*
X50720Y4630D01*
G37*
G54D59*
X50720Y4630D02*
X46480Y4630D01*
X46480Y5312D01*
X46380Y5412D01*
X46380Y5587D01*
X46480Y5687D01*
X46480Y8650D01*
X46480Y8770D01*
X50720Y8770D01*
X50720Y4630D01*
G54D10*
G36*
X50720Y230D02*
X46480Y230D01*
X46480Y3250D01*
X46480Y3312D01*
X46380Y3412D01*
X46380Y3587D01*
X46480Y3687D01*
X46480Y4350D01*
X46480Y4370D01*
X50720Y4370D01*
X50720Y230D01*
X50720Y230D01*
G37*
G54D59*
X50720Y230D02*
X46480Y230D01*
X46480Y3250D01*
X46480Y3312D01*
X46380Y3412D01*
X46380Y3587D01*
X46480Y3687D01*
X46480Y4350D01*
X46480Y4370D01*
X50720Y4370D01*
X50720Y230D01*
G54D10*
G36*
X39320Y4412D02*
X39220Y4312D01*
X39220Y230D01*
X22799Y230D01*
X22799Y4494D01*
X22798Y4508D01*
X22799Y4521D01*
X22798Y4523D01*
X22775Y4746D01*
X22772Y4760D01*
X22770Y4773D01*
X22769Y4775D01*
X22769Y4775D01*
X22769Y4775D01*
X22769Y4775D01*
X22703Y4989D01*
X22697Y5002D01*
X22692Y5014D01*
X22691Y5016D01*
X22691Y5016D01*
X22585Y5214D01*
X22577Y5225D01*
X22570Y5236D01*
X22568Y5238D01*
X22425Y5411D01*
X22416Y5420D01*
X22406Y5430D01*
X22404Y5432D01*
X22231Y5573D01*
X22219Y5581D01*
X22208Y5589D01*
X22206Y5590D01*
X22008Y5695D01*
X21995Y5700D01*
X21983Y5705D01*
X21981Y5706D01*
X21766Y5771D01*
X21753Y5774D01*
X21740Y5776D01*
X21737Y5777D01*
X21737Y5777D01*
X21737Y5777D01*
X21514Y5798D01*
X21507Y5798D01*
X21499Y5799D01*
X21497Y5799D01*
X21465Y5799D01*
X21458Y5798D01*
X21451Y5798D01*
X21449Y5798D01*
X21226Y5769D01*
X21213Y5766D01*
X21199Y5764D01*
X21197Y5763D01*
X20985Y5692D01*
X20972Y5687D01*
X20960Y5681D01*
X20958Y5680D01*
X20763Y5569D01*
X20752Y5562D01*
X20740Y5554D01*
X20739Y5553D01*
X20569Y5406D01*
X20560Y5396D01*
X20550Y5386D01*
X20549Y5385D01*
X20411Y5208D01*
X20403Y5196D01*
X20396Y5185D01*
X20395Y5183D01*
X20294Y4983D01*
X20289Y4970D01*
X20284Y4958D01*
X20283Y4956D01*
X20223Y4739D01*
X20220Y4726D01*
X20218Y4713D01*
X20218Y4711D01*
X20201Y4487D01*
X20201Y4473D01*
X20201Y4460D01*
X20201Y4458D01*
X20228Y4235D01*
X20231Y4222D01*
X20233Y4208D01*
X20234Y4206D01*
X20303Y3993D01*
X20309Y3980D01*
X20314Y3968D01*
X20315Y3966D01*
X20425Y3770D01*
X20432Y3759D01*
X20440Y3748D01*
X20441Y3746D01*
X20441Y3746D01*
X20441Y3746D01*
X20441Y3746D01*
X20587Y3575D01*
X20596Y3566D01*
X20606Y3556D01*
X20608Y3555D01*
X20784Y3416D01*
X20795Y3408D01*
X20806Y3401D01*
X20808Y3400D01*
X21008Y3297D01*
X21020Y3292D01*
X21033Y3287D01*
X21035Y3286D01*
X21035Y3286D01*
X21035Y3286D01*
X21035Y3286D01*
X21251Y3225D01*
X21264Y3222D01*
X21277Y3219D01*
X21279Y3219D01*
X21279Y3219D01*
X21279Y3219D01*
X21279Y3219D01*
X21503Y3200D01*
X21517Y3201D01*
X21530Y3201D01*
X21532Y3201D01*
X21532Y3201D01*
X21755Y3226D01*
X21769Y3229D01*
X21782Y3231D01*
X21784Y3232D01*
X21784Y3232D01*
X21998Y3300D01*
X22010Y3305D01*
X22023Y3310D01*
X22025Y3311D01*
X22221Y3419D01*
X22232Y3427D01*
X22244Y3435D01*
X22245Y3436D01*
X22417Y3580D01*
X22427Y3590D01*
X22436Y3599D01*
X22438Y3601D01*
X22578Y3776D01*
X22586Y3787D01*
X22593Y3799D01*
X22594Y3800D01*
X22594Y3800D01*
X22698Y3999D01*
X22703Y4012D01*
X22709Y4024D01*
X22709Y4026D01*
X22709Y4026D01*
X22709Y4026D01*
X22709Y4026D01*
X22773Y4242D01*
X22775Y4255D01*
X22778Y4268D01*
X22778Y4270D01*
X22799Y4494D01*
X22799Y230D01*
X16080Y230D01*
X16080Y1030D01*
X14180Y1030D01*
X14180Y7970D01*
X16080Y7970D01*
X16080Y8770D01*
X39220Y8770D01*
X39220Y8700D01*
X39220Y4687D01*
X39320Y4587D01*
X39320Y4412D01*
X39320Y4412D01*
G37*
G54D59*
X39320Y4412D02*
X39220Y4312D01*
X39220Y230D01*
X22799Y230D01*
X22799Y4494D01*
X22798Y4508D01*
X22799Y4521D01*
X22798Y4523D01*
X22775Y4746D01*
X22772Y4760D01*
X22770Y4773D01*
X22769Y4775D01*
X22769Y4775D01*
X22769Y4775D01*
X22769Y4775D01*
X22703Y4989D01*
X22697Y5002D01*
X22692Y5014D01*
X22691Y5016D01*
X22691Y5016D01*
X22585Y5214D01*
X22577Y5225D01*
X22570Y5236D01*
X22568Y5238D01*
X22425Y5411D01*
X22416Y5420D01*
X22406Y5430D01*
X22404Y5432D01*
X22231Y5573D01*
X22219Y5581D01*
X22208Y5589D01*
X22206Y5590D01*
X22008Y5695D01*
X21995Y5700D01*
X21983Y5705D01*
X21981Y5706D01*
X21766Y5771D01*
X21753Y5774D01*
X21740Y5776D01*
X21737Y5777D01*
X21737Y5777D01*
X21737Y5777D01*
X21514Y5798D01*
X21507Y5798D01*
X21499Y5799D01*
X21497Y5799D01*
X21465Y5799D01*
X21458Y5798D01*
X21451Y5798D01*
X21449Y5798D01*
X21226Y5769D01*
X21213Y5766D01*
X21199Y5764D01*
X21197Y5763D01*
X20985Y5692D01*
X20972Y5687D01*
X20960Y5681D01*
X20958Y5680D01*
X20763Y5569D01*
X20752Y5562D01*
X20740Y5554D01*
X20739Y5553D01*
X20569Y5406D01*
X20560Y5396D01*
X20550Y5386D01*
X20549Y5385D01*
X20411Y5208D01*
X20403Y5196D01*
X20396Y5185D01*
X20395Y5183D01*
X20294Y4983D01*
X20289Y4970D01*
X20284Y4958D01*
X20283Y4956D01*
X20223Y4739D01*
X20220Y4726D01*
X20218Y4713D01*
X20218Y4711D01*
X20201Y4487D01*
X20201Y4473D01*
X20201Y4460D01*
X20201Y4458D01*
X20228Y4235D01*
X20231Y4222D01*
X20233Y4208D01*
X20234Y4206D01*
X20303Y3993D01*
X20309Y3980D01*
X20314Y3968D01*
X20315Y3966D01*
X20425Y3770D01*
X20432Y3759D01*
X20440Y3748D01*
X20441Y3746D01*
X20441Y3746D01*
X20441Y3746D01*
X20441Y3746D01*
X20587Y3575D01*
X20596Y3566D01*
X20606Y3556D01*
X20608Y3555D01*
X20784Y3416D01*
X20795Y3408D01*
X20806Y3401D01*
X20808Y3400D01*
X21008Y3297D01*
X21020Y3292D01*
X21033Y3287D01*
X21035Y3286D01*
X21035Y3286D01*
X21035Y3286D01*
X21035Y3286D01*
X21251Y3225D01*
X21264Y3222D01*
X21277Y3219D01*
X21279Y3219D01*
X21279Y3219D01*
X21279Y3219D01*
X21279Y3219D01*
X21503Y3200D01*
X21517Y3201D01*
X21530Y3201D01*
X21532Y3201D01*
X21532Y3201D01*
X21755Y3226D01*
X21769Y3229D01*
X21782Y3231D01*
X21784Y3232D01*
X21784Y3232D01*
X21998Y3300D01*
X22010Y3305D01*
X22023Y3310D01*
X22025Y3311D01*
X22221Y3419D01*
X22232Y3427D01*
X22244Y3435D01*
X22245Y3436D01*
X22417Y3580D01*
X22427Y3590D01*
X22436Y3599D01*
X22438Y3601D01*
X22578Y3776D01*
X22586Y3787D01*
X22593Y3799D01*
X22594Y3800D01*
X22594Y3800D01*
X22698Y3999D01*
X22703Y4012D01*
X22709Y4024D01*
X22709Y4026D01*
X22709Y4026D01*
X22709Y4026D01*
X22709Y4026D01*
X22773Y4242D01*
X22775Y4255D01*
X22778Y4268D01*
X22778Y4270D01*
X22799Y4494D01*
X22799Y230D01*
X16080Y230D01*
X16080Y1030D01*
X14180Y1030D01*
X14180Y7970D01*
X16080Y7970D01*
X16080Y8770D01*
X39220Y8770D01*
X39220Y8700D01*
X39220Y4687D01*
X39320Y4587D01*
X39320Y4412D01*
G54D10*
G36*
X48990Y14964D02*
X48461Y14964D01*
X48436Y14959D01*
X48413Y14949D01*
X48391Y14935D01*
X48373Y14917D01*
X48359Y14896D01*
X48349Y14873D01*
X48344Y14848D01*
X48344Y14822D01*
X48344Y14680D01*
X48300Y14680D01*
X48177Y14680D01*
X47922Y14680D01*
X47830Y14680D01*
X47830Y14720D01*
X48012Y14720D01*
X48412Y15120D01*
X48990Y15120D01*
X48990Y14964D01*
X48990Y14964D01*
G37*
G54D59*
X48990Y14964D02*
X48461Y14964D01*
X48436Y14959D01*
X48413Y14949D01*
X48391Y14935D01*
X48373Y14917D01*
X48359Y14896D01*
X48349Y14873D01*
X48344Y14848D01*
X48344Y14822D01*
X48344Y14680D01*
X48300Y14680D01*
X48177Y14680D01*
X47922Y14680D01*
X47830Y14680D01*
X47830Y14720D01*
X48012Y14720D01*
X48412Y15120D01*
X48990Y15120D01*
X48990Y14964D01*
G54D10*
G36*
X49020Y14196D02*
X49013Y14197D01*
X48461Y14196D01*
X48436Y14191D01*
X48413Y14182D01*
X48409Y14180D01*
X48262Y14180D01*
X48134Y14307D01*
X48134Y14311D01*
X48134Y14320D01*
X48177Y14320D01*
X48300Y14320D01*
X48350Y14320D01*
X48392Y14320D01*
X48412Y14306D01*
X48435Y14296D01*
X48460Y14291D01*
X48486Y14291D01*
X49020Y14291D01*
X49020Y14196D01*
X49020Y14196D01*
G37*
G54D59*
X49020Y14196D02*
X49013Y14197D01*
X48461Y14196D01*
X48436Y14191D01*
X48413Y14182D01*
X48409Y14180D01*
X48262Y14180D01*
X48134Y14307D01*
X48134Y14311D01*
X48134Y14320D01*
X48177Y14320D01*
X48300Y14320D01*
X48350Y14320D01*
X48392Y14320D01*
X48412Y14306D01*
X48435Y14296D01*
X48460Y14291D01*
X48486Y14291D01*
X49020Y14291D01*
X49020Y14196D01*
G54D10*
G36*
X48990Y13880D02*
X48162Y13880D01*
X47830Y14212D01*
X47830Y14320D01*
X47922Y14320D01*
X47965Y14320D01*
X47965Y14286D01*
X47970Y14262D01*
X47970Y14187D01*
X48137Y14020D01*
X48990Y14020D01*
X48990Y13880D01*
X48990Y13880D01*
G37*
G54D59*
X48990Y13880D02*
X48162Y13880D01*
X47830Y14212D01*
X47830Y14320D01*
X47922Y14320D01*
X47965Y14320D01*
X47965Y14286D01*
X47970Y14262D01*
X47970Y14187D01*
X48137Y14020D01*
X48990Y14020D01*
X48990Y13880D01*
G54D10*
G36*
X22970Y12530D02*
X22162Y12530D01*
X22130Y12562D01*
X22130Y12887D01*
X22180Y12937D01*
X22180Y13337D01*
X22212Y13370D01*
X22462Y13370D01*
X22530Y13437D01*
X22530Y13492D01*
X22534Y13516D01*
X22535Y13541D01*
X22535Y13702D01*
X22530Y13727D01*
X22530Y13727D01*
X22530Y14770D01*
X22870Y14770D01*
X22870Y14287D01*
X22928Y14228D01*
X22970Y14187D01*
X22970Y12530D01*
X22970Y12530D01*
G37*
G54D59*
X22970Y12530D02*
X22162Y12530D01*
X22130Y12562D01*
X22130Y12887D01*
X22180Y12937D01*
X22180Y13337D01*
X22212Y13370D01*
X22462Y13370D01*
X22530Y13437D01*
X22530Y13492D01*
X22534Y13516D01*
X22535Y13541D01*
X22535Y13702D01*
X22530Y13727D01*
X22530Y13727D01*
X22530Y14770D01*
X22870Y14770D01*
X22870Y14287D01*
X22928Y14228D01*
X22970Y14187D01*
X22970Y12530D01*
G54D10*
G36*
X60300Y14507D02*
X60216Y13655D01*
X59971Y12842D01*
X59572Y12092D01*
X59205Y11641D01*
X59205Y12458D01*
X59205Y13875D01*
X59203Y13891D01*
X59201Y13908D01*
X59201Y13909D01*
X59201Y13909D01*
X59196Y13925D01*
X59192Y13941D01*
X59191Y13942D01*
X59191Y13943D01*
X59183Y13958D01*
X59175Y13973D01*
X59175Y13973D01*
X59174Y13974D01*
X59164Y13987D01*
X59154Y14000D01*
X59152Y14001D01*
X59152Y14001D01*
X59152Y14001D01*
X59152Y14002D01*
X59039Y14114D01*
X59039Y15585D01*
X59039Y16015D01*
X59034Y16040D01*
X59025Y16064D01*
X59010Y16085D01*
X58992Y16103D01*
X58971Y16118D01*
X58948Y16127D01*
X58934Y16130D01*
X58934Y16145D01*
X58933Y16161D01*
X58931Y16178D01*
X58931Y16179D01*
X58931Y16180D01*
X58926Y16196D01*
X58921Y16212D01*
X58921Y16212D01*
X58921Y16213D01*
X58913Y16228D01*
X58905Y16243D01*
X58905Y16244D01*
X58904Y16244D01*
X58894Y16257D01*
X58883Y16270D01*
X58882Y16272D01*
X58882Y16272D01*
X58882Y16272D01*
X58882Y16272D01*
X58702Y16452D01*
X58689Y16462D01*
X58676Y16473D01*
X58675Y16473D01*
X58675Y16474D01*
X58660Y16482D01*
X58645Y16490D01*
X58645Y16490D01*
X58644Y16491D01*
X58628Y16496D01*
X58612Y16501D01*
X58611Y16501D01*
X58610Y16501D01*
X58593Y16503D01*
X58577Y16504D01*
X58575Y16504D01*
X58575Y16504D01*
X58575Y16504D01*
X58575Y16505D01*
X58340Y16505D01*
X58304Y16541D01*
X58258Y16572D01*
X58208Y16593D01*
X58154Y16604D01*
X58099Y16605D01*
X58045Y16594D01*
X58005Y16578D01*
X58005Y16800D01*
X58003Y16816D01*
X58001Y16833D01*
X58001Y16834D01*
X58001Y16834D01*
X57996Y16850D01*
X57992Y16866D01*
X57991Y16867D01*
X57991Y16868D01*
X57983Y16883D01*
X57975Y16898D01*
X57975Y16898D01*
X57974Y16899D01*
X57964Y16912D01*
X57954Y16925D01*
X57952Y16926D01*
X57952Y16926D01*
X57952Y16926D01*
X57952Y16927D01*
X57577Y17302D01*
X57564Y17312D01*
X57551Y17323D01*
X57550Y17323D01*
X57550Y17324D01*
X57535Y17332D01*
X57520Y17340D01*
X57520Y17340D01*
X57519Y17341D01*
X57503Y17346D01*
X57487Y17351D01*
X57486Y17351D01*
X57485Y17351D01*
X57468Y17353D01*
X57452Y17354D01*
X57450Y17354D01*
X57450Y17354D01*
X57450Y17354D01*
X57450Y17355D01*
X57256Y17355D01*
X56930Y17681D01*
X56930Y17939D01*
X56925Y17964D01*
X56915Y17988D01*
X56901Y18009D01*
X56883Y18027D01*
X56862Y18041D01*
X56838Y18051D01*
X56813Y18056D01*
X56788Y18056D01*
X56477Y18056D01*
X56452Y18051D01*
X56428Y18042D01*
X56407Y18028D01*
X56389Y18010D01*
X56375Y17988D01*
X56365Y17965D01*
X56360Y17940D01*
X56360Y17914D01*
X56360Y17484D01*
X56365Y17459D01*
X56374Y17435D01*
X56389Y17414D01*
X56407Y17396D01*
X56428Y17381D01*
X56451Y17372D01*
X56476Y17366D01*
X56502Y17366D01*
X56735Y17366D01*
X57054Y17047D01*
X57067Y17037D01*
X57080Y17026D01*
X57081Y17026D01*
X57081Y17025D01*
X57096Y17017D01*
X57111Y17009D01*
X57112Y17009D01*
X57112Y17008D01*
X57128Y17003D01*
X57144Y16998D01*
X57145Y16998D01*
X57146Y16998D01*
X57163Y16996D01*
X57179Y16995D01*
X57181Y16995D01*
X57181Y16995D01*
X57181Y16995D01*
X57182Y16995D01*
X57375Y16995D01*
X57645Y16725D01*
X57645Y16340D01*
X57609Y16305D01*
X57578Y16260D01*
X57556Y16210D01*
X57545Y16156D01*
X57544Y16101D01*
X57554Y16047D01*
X57574Y15996D01*
X57604Y15950D01*
X57642Y15910D01*
X57687Y15879D01*
X57738Y15857D01*
X57791Y15845D01*
X57846Y15844D01*
X57900Y15854D01*
X57951Y15873D01*
X57998Y15903D01*
X58037Y15941D01*
X58069Y15986D01*
X58091Y16036D01*
X58094Y16045D01*
X58146Y16044D01*
X58200Y16054D01*
X58251Y16073D01*
X58298Y16103D01*
X58337Y16141D01*
X58340Y16145D01*
X58500Y16145D01*
X58531Y16113D01*
X58517Y16104D01*
X58499Y16086D01*
X58484Y16065D01*
X58474Y16041D01*
X58469Y16016D01*
X58469Y15991D01*
X58469Y15560D01*
X58474Y15535D01*
X58484Y15511D01*
X58498Y15490D01*
X58516Y15472D01*
X58537Y15458D01*
X58561Y15448D01*
X58586Y15443D01*
X58611Y15443D01*
X58922Y15443D01*
X58947Y15448D01*
X58971Y15457D01*
X58992Y15471D01*
X59010Y15489D01*
X59024Y15511D01*
X59034Y15534D01*
X59039Y15559D01*
X59039Y15585D01*
X59039Y14114D01*
X58927Y14227D01*
X58914Y14237D01*
X58901Y14248D01*
X58900Y14248D01*
X58900Y14249D01*
X58885Y14257D01*
X58870Y14265D01*
X58870Y14265D01*
X58869Y14266D01*
X58853Y14271D01*
X58837Y14276D01*
X58836Y14276D01*
X58835Y14276D01*
X58818Y14278D01*
X58802Y14279D01*
X58800Y14279D01*
X58800Y14279D01*
X58800Y14279D01*
X58800Y14280D01*
X58640Y14280D01*
X58604Y14316D01*
X58558Y14347D01*
X58534Y14357D01*
X58537Y14360D01*
X58550Y14370D01*
X58551Y14372D01*
X58551Y14372D01*
X58551Y14372D01*
X58552Y14372D01*
X58827Y14647D01*
X58837Y14660D01*
X58848Y14673D01*
X58848Y14674D01*
X58849Y14674D01*
X58857Y14689D01*
X58865Y14704D01*
X58865Y14704D01*
X58866Y14705D01*
X58871Y14721D01*
X58876Y14737D01*
X58876Y14738D01*
X58876Y14739D01*
X58878Y14755D01*
X58879Y14772D01*
X58879Y14774D01*
X58879Y14774D01*
X58879Y14774D01*
X58880Y14775D01*
X58880Y14909D01*
X58912Y14941D01*
X58944Y14986D01*
X58966Y15036D01*
X58979Y15089D01*
X58980Y15152D01*
X58969Y15206D01*
X58948Y15257D01*
X58918Y15302D01*
X58879Y15341D01*
X58833Y15372D01*
X58783Y15393D01*
X58729Y15404D01*
X58674Y15405D01*
X58620Y15394D01*
X58569Y15374D01*
X58523Y15344D01*
X58484Y15305D01*
X58453Y15260D01*
X58431Y15210D01*
X58420Y15156D01*
X58420Y15155D01*
X58399Y15155D01*
X58345Y15144D01*
X58294Y15124D01*
X58248Y15094D01*
X58209Y15055D01*
X58208Y15055D01*
X58124Y15055D01*
X57652Y15527D01*
X57639Y15537D01*
X57626Y15548D01*
X57625Y15548D01*
X57625Y15549D01*
X57610Y15557D01*
X57595Y15565D01*
X57595Y15565D01*
X57594Y15566D01*
X57578Y15571D01*
X57562Y15576D01*
X57561Y15576D01*
X57560Y15576D01*
X57543Y15578D01*
X57527Y15579D01*
X57525Y15579D01*
X57525Y15579D01*
X57525Y15579D01*
X57525Y15580D01*
X57231Y15580D01*
X56930Y15881D01*
X56930Y16139D01*
X56925Y16164D01*
X56915Y16188D01*
X56901Y16209D01*
X56883Y16227D01*
X56862Y16241D01*
X56838Y16251D01*
X56813Y16256D01*
X56788Y16256D01*
X56477Y16256D01*
X56452Y16251D01*
X56428Y16242D01*
X56407Y16228D01*
X56389Y16210D01*
X56375Y16188D01*
X56365Y16165D01*
X56360Y16140D01*
X56360Y16114D01*
X56360Y15684D01*
X56365Y15659D01*
X56374Y15635D01*
X56389Y15614D01*
X56407Y15596D01*
X56428Y15581D01*
X56451Y15572D01*
X56476Y15566D01*
X56502Y15566D01*
X56735Y15566D01*
X57029Y15272D01*
X57042Y15262D01*
X57055Y15251D01*
X57056Y15251D01*
X57056Y15250D01*
X57071Y15242D01*
X57086Y15234D01*
X57087Y15234D01*
X57087Y15233D01*
X57103Y15228D01*
X57119Y15223D01*
X57120Y15223D01*
X57121Y15223D01*
X57138Y15221D01*
X57154Y15220D01*
X57156Y15220D01*
X57156Y15220D01*
X57156Y15220D01*
X57157Y15220D01*
X57450Y15220D01*
X57922Y14747D01*
X57935Y14737D01*
X57948Y14726D01*
X57949Y14726D01*
X57949Y14725D01*
X57964Y14717D01*
X57979Y14709D01*
X57979Y14709D01*
X57980Y14708D01*
X57996Y14703D01*
X58012Y14698D01*
X58013Y14698D01*
X58014Y14698D01*
X58030Y14696D01*
X58047Y14695D01*
X58049Y14695D01*
X58049Y14695D01*
X58049Y14695D01*
X58050Y14695D01*
X58209Y14695D01*
X58224Y14680D01*
X57575Y14680D01*
X57033Y14680D01*
X57016Y14678D01*
X57000Y14676D01*
X56999Y14676D01*
X56998Y14676D01*
X56982Y14671D01*
X56966Y14667D01*
X56965Y14666D01*
X56964Y14666D01*
X56950Y14658D01*
X56935Y14650D01*
X56934Y14650D01*
X56933Y14649D01*
X56920Y14639D01*
X56907Y14629D01*
X56906Y14627D01*
X56906Y14627D01*
X56906Y14627D01*
X56906Y14627D01*
X56735Y14456D01*
X56477Y14456D01*
X56452Y14451D01*
X56428Y14442D01*
X56407Y14428D01*
X56389Y14410D01*
X56375Y14388D01*
X56365Y14365D01*
X56360Y14340D01*
X56360Y14314D01*
X56360Y13884D01*
X56365Y13859D01*
X56374Y13835D01*
X56389Y13814D01*
X56407Y13796D01*
X56428Y13781D01*
X56451Y13772D01*
X56476Y13766D01*
X56502Y13766D01*
X56813Y13766D01*
X56838Y13771D01*
X56861Y13781D01*
X56882Y13795D01*
X56900Y13813D01*
X56915Y13834D01*
X56925Y13858D01*
X56930Y13883D01*
X56930Y13908D01*
X56930Y14142D01*
X57108Y14320D01*
X57575Y14320D01*
X58249Y14320D01*
X58248Y14319D01*
X58209Y14280D01*
X58178Y14235D01*
X58156Y14185D01*
X58145Y14131D01*
X58144Y14076D01*
X58154Y14022D01*
X58161Y14005D01*
X57725Y14005D01*
X57708Y14003D01*
X57691Y14001D01*
X57690Y14001D01*
X57690Y14001D01*
X57674Y13996D01*
X57658Y13992D01*
X57657Y13991D01*
X57656Y13991D01*
X57641Y13983D01*
X57626Y13975D01*
X57626Y13975D01*
X57625Y13974D01*
X57612Y13964D01*
X57599Y13954D01*
X57598Y13952D01*
X57598Y13952D01*
X57598Y13952D01*
X57597Y13952D01*
X57375Y13730D01*
X57000Y13730D01*
X56983Y13728D01*
X56966Y13726D01*
X56965Y13726D01*
X56965Y13726D01*
X56949Y13721D01*
X56933Y13717D01*
X56932Y13716D01*
X56931Y13716D01*
X56916Y13708D01*
X56901Y13700D01*
X56901Y13700D01*
X56900Y13699D01*
X56887Y13689D01*
X56874Y13679D01*
X56873Y13677D01*
X56873Y13677D01*
X56873Y13677D01*
X56872Y13677D01*
X56797Y13602D01*
X56787Y13589D01*
X56776Y13576D01*
X56776Y13575D01*
X56775Y13575D01*
X56767Y13560D01*
X56759Y13545D01*
X56759Y13545D01*
X56758Y13544D01*
X56753Y13528D01*
X56748Y13512D01*
X56748Y13511D01*
X56748Y13510D01*
X56746Y13493D01*
X56745Y13477D01*
X56745Y13475D01*
X56745Y13475D01*
X56745Y13475D01*
X56745Y13475D01*
X56745Y12666D01*
X56735Y12656D01*
X56477Y12656D01*
X56452Y12651D01*
X56428Y12642D01*
X56407Y12628D01*
X56389Y12610D01*
X56375Y12588D01*
X56365Y12565D01*
X56360Y12540D01*
X56360Y12514D01*
X56360Y12084D01*
X56365Y12059D01*
X56374Y12035D01*
X56389Y12014D01*
X56407Y11996D01*
X56428Y11981D01*
X56451Y11972D01*
X56476Y11966D01*
X56502Y11966D01*
X56813Y11966D01*
X56838Y11971D01*
X56861Y11981D01*
X56882Y11995D01*
X56900Y12013D01*
X56915Y12034D01*
X56925Y12058D01*
X56930Y12083D01*
X56930Y12108D01*
X56930Y12342D01*
X57052Y12464D01*
X57062Y12477D01*
X57073Y12489D01*
X57073Y12490D01*
X57074Y12491D01*
X57082Y12506D01*
X57090Y12520D01*
X57090Y12521D01*
X57091Y12522D01*
X57096Y12538D01*
X57101Y12554D01*
X57101Y12555D01*
X57101Y12555D01*
X57103Y12572D01*
X57104Y12589D01*
X57104Y12590D01*
X57104Y12590D01*
X57104Y12590D01*
X57105Y12591D01*
X57105Y13370D01*
X57450Y13370D01*
X57466Y13371D01*
X57483Y13373D01*
X57484Y13373D01*
X57484Y13373D01*
X57500Y13378D01*
X57516Y13382D01*
X57517Y13383D01*
X57518Y13383D01*
X57533Y13391D01*
X57548Y13399D01*
X57548Y13399D01*
X57549Y13400D01*
X57562Y13410D01*
X57575Y13420D01*
X57576Y13422D01*
X57576Y13422D01*
X57576Y13422D01*
X57577Y13422D01*
X57799Y13645D01*
X58484Y13645D01*
X58517Y13610D01*
X58562Y13579D01*
X58613Y13557D01*
X58666Y13545D01*
X58721Y13544D01*
X58775Y13554D01*
X58826Y13573D01*
X58845Y13585D01*
X58845Y12533D01*
X58586Y12533D01*
X58561Y12528D01*
X58538Y12518D01*
X58517Y12504D01*
X58499Y12486D01*
X58484Y12465D01*
X58474Y12441D01*
X58469Y12416D01*
X58469Y12391D01*
X58469Y11960D01*
X58474Y11935D01*
X58484Y11911D01*
X58498Y11890D01*
X58516Y11872D01*
X58537Y11858D01*
X58561Y11848D01*
X58586Y11843D01*
X58611Y11843D01*
X58922Y11843D01*
X58947Y11848D01*
X58971Y11857D01*
X58992Y11871D01*
X59010Y11889D01*
X59024Y11911D01*
X59034Y11934D01*
X59039Y11959D01*
X59039Y11985D01*
X59039Y12218D01*
X59152Y12331D01*
X59162Y12344D01*
X59173Y12356D01*
X59173Y12357D01*
X59174Y12358D01*
X59182Y12372D01*
X59190Y12387D01*
X59190Y12388D01*
X59191Y12389D01*
X59196Y12405D01*
X59201Y12421D01*
X59201Y12421D01*
X59201Y12422D01*
X59203Y12439D01*
X59204Y12455D01*
X59204Y12457D01*
X59204Y12457D01*
X59204Y12457D01*
X59205Y12458D01*
X59205Y11641D01*
X59036Y11435D01*
X58382Y10894D01*
X57635Y10490D01*
X56824Y10239D01*
X55973Y10149D01*
X55949Y10149D01*
X55855Y10149D01*
X55855Y12039D01*
X55839Y12117D01*
X55809Y12191D01*
X55765Y12257D01*
X55709Y12313D01*
X55643Y12357D01*
X55570Y12388D01*
X55492Y12404D01*
X55413Y12405D01*
X55335Y12390D01*
X55261Y12360D01*
X55194Y12317D01*
X55138Y12261D01*
X55093Y12196D01*
X55062Y12123D01*
X55045Y12045D01*
X55044Y11965D01*
X55058Y11887D01*
X55088Y11813D01*
X55131Y11747D01*
X55186Y11690D01*
X55251Y11644D01*
X55324Y11612D01*
X55401Y11595D01*
X55481Y11594D01*
X55559Y11608D01*
X55633Y11636D01*
X55700Y11679D01*
X55758Y11734D01*
X55803Y11798D01*
X55836Y11871D01*
X55853Y11948D01*
X55855Y12039D01*
X55855Y10149D01*
X54999Y10149D01*
X54999Y10679D01*
X55041Y10670D01*
X55096Y10669D01*
X55150Y10679D01*
X55201Y10698D01*
X55248Y10728D01*
X55287Y10766D01*
X55319Y10811D01*
X55341Y10861D01*
X55354Y10914D01*
X55355Y10977D01*
X55344Y11031D01*
X55323Y11082D01*
X55293Y11127D01*
X55254Y11166D01*
X55208Y11197D01*
X55158Y11218D01*
X55104Y11229D01*
X55049Y11230D01*
X54999Y11220D01*
X54999Y13595D01*
X55222Y13372D01*
X55235Y13362D01*
X55247Y13351D01*
X55194Y13317D01*
X55138Y13261D01*
X55093Y13196D01*
X55062Y13123D01*
X55045Y13045D01*
X55044Y12965D01*
X55058Y12887D01*
X55088Y12813D01*
X55131Y12747D01*
X55186Y12690D01*
X55251Y12644D01*
X55324Y12612D01*
X55401Y12595D01*
X55481Y12594D01*
X55559Y12608D01*
X55633Y12636D01*
X55700Y12679D01*
X55758Y12734D01*
X55803Y12798D01*
X55836Y12871D01*
X55853Y12948D01*
X55855Y13039D01*
X55839Y13117D01*
X55809Y13191D01*
X55765Y13257D01*
X55709Y13313D01*
X55699Y13320D01*
X55834Y13320D01*
X55867Y13285D01*
X55912Y13254D01*
X55963Y13232D01*
X56016Y13220D01*
X56071Y13219D01*
X56125Y13229D01*
X56176Y13248D01*
X56223Y13278D01*
X56262Y13316D01*
X56294Y13361D01*
X56316Y13411D01*
X56329Y13464D01*
X56330Y13527D01*
X56319Y13581D01*
X56298Y13632D01*
X56268Y13677D01*
X56229Y13716D01*
X56183Y13747D01*
X56133Y13768D01*
X56079Y13779D01*
X56077Y13779D01*
X56126Y13798D01*
X56173Y13828D01*
X56212Y13866D01*
X56244Y13911D01*
X56266Y13961D01*
X56279Y14014D01*
X56280Y14077D01*
X56269Y14131D01*
X56248Y14182D01*
X56218Y14227D01*
X56179Y14266D01*
X56133Y14297D01*
X56083Y14318D01*
X56029Y14329D01*
X55974Y14330D01*
X55950Y14325D01*
X55637Y14639D01*
X55700Y14679D01*
X55758Y14734D01*
X55803Y14798D01*
X55836Y14871D01*
X55853Y14948D01*
X55855Y15039D01*
X55839Y15117D01*
X55809Y15191D01*
X55765Y15257D01*
X55709Y15313D01*
X55643Y15357D01*
X55570Y15388D01*
X55492Y15404D01*
X55413Y15405D01*
X55335Y15390D01*
X55261Y15360D01*
X55230Y15340D01*
X55230Y15525D01*
X55319Y15615D01*
X55324Y15612D01*
X55401Y15595D01*
X55481Y15594D01*
X55559Y15608D01*
X55633Y15636D01*
X55700Y15679D01*
X55758Y15734D01*
X55803Y15798D01*
X55836Y15871D01*
X55853Y15948D01*
X55855Y16039D01*
X55839Y16117D01*
X55809Y16191D01*
X55765Y16257D01*
X55709Y16313D01*
X55643Y16357D01*
X55570Y16388D01*
X55492Y16404D01*
X55413Y16405D01*
X55335Y16390D01*
X55261Y16360D01*
X55194Y16317D01*
X55138Y16261D01*
X55093Y16196D01*
X55062Y16123D01*
X55045Y16045D01*
X55044Y15965D01*
X55058Y15887D01*
X55065Y15870D01*
X54999Y15804D01*
X54999Y17654D01*
X55041Y17645D01*
X55096Y17644D01*
X55150Y17654D01*
X55201Y17673D01*
X55248Y17703D01*
X55287Y17741D01*
X55319Y17786D01*
X55341Y17836D01*
X55354Y17889D01*
X55355Y17952D01*
X55344Y18006D01*
X55323Y18057D01*
X55293Y18102D01*
X55254Y18141D01*
X55208Y18172D01*
X55158Y18193D01*
X55104Y18204D01*
X55049Y18205D01*
X54999Y18195D01*
X54999Y18850D01*
X55942Y18850D01*
X56794Y18766D01*
X57607Y18521D01*
X58357Y18122D01*
X59014Y17586D01*
X59555Y16932D01*
X59959Y16185D01*
X60210Y15374D01*
X60300Y14523D01*
X60300Y14507D01*
X60300Y14507D01*
G37*
G54D59*
X60300Y14507D02*
X60216Y13655D01*
X59971Y12842D01*
X59572Y12092D01*
X59205Y11641D01*
X59205Y12458D01*
X59205Y13875D01*
X59203Y13891D01*
X59201Y13908D01*
X59201Y13909D01*
X59201Y13909D01*
X59196Y13925D01*
X59192Y13941D01*
X59191Y13942D01*
X59191Y13943D01*
X59183Y13958D01*
X59175Y13973D01*
X59175Y13973D01*
X59174Y13974D01*
X59164Y13987D01*
X59154Y14000D01*
X59152Y14001D01*
X59152Y14001D01*
X59152Y14001D01*
X59152Y14002D01*
X59039Y14114D01*
X59039Y15585D01*
X59039Y16015D01*
X59034Y16040D01*
X59025Y16064D01*
X59010Y16085D01*
X58992Y16103D01*
X58971Y16118D01*
X58948Y16127D01*
X58934Y16130D01*
X58934Y16145D01*
X58933Y16161D01*
X58931Y16178D01*
X58931Y16179D01*
X58931Y16180D01*
X58926Y16196D01*
X58921Y16212D01*
X58921Y16212D01*
X58921Y16213D01*
X58913Y16228D01*
X58905Y16243D01*
X58905Y16244D01*
X58904Y16244D01*
X58894Y16257D01*
X58883Y16270D01*
X58882Y16272D01*
X58882Y16272D01*
X58882Y16272D01*
X58882Y16272D01*
X58702Y16452D01*
X58689Y16462D01*
X58676Y16473D01*
X58675Y16473D01*
X58675Y16474D01*
X58660Y16482D01*
X58645Y16490D01*
X58645Y16490D01*
X58644Y16491D01*
X58628Y16496D01*
X58612Y16501D01*
X58611Y16501D01*
X58610Y16501D01*
X58593Y16503D01*
X58577Y16504D01*
X58575Y16504D01*
X58575Y16504D01*
X58575Y16504D01*
X58575Y16505D01*
X58340Y16505D01*
X58304Y16541D01*
X58258Y16572D01*
X58208Y16593D01*
X58154Y16604D01*
X58099Y16605D01*
X58045Y16594D01*
X58005Y16578D01*
X58005Y16800D01*
X58003Y16816D01*
X58001Y16833D01*
X58001Y16834D01*
X58001Y16834D01*
X57996Y16850D01*
X57992Y16866D01*
X57991Y16867D01*
X57991Y16868D01*
X57983Y16883D01*
X57975Y16898D01*
X57975Y16898D01*
X57974Y16899D01*
X57964Y16912D01*
X57954Y16925D01*
X57952Y16926D01*
X57952Y16926D01*
X57952Y16926D01*
X57952Y16927D01*
X57577Y17302D01*
X57564Y17312D01*
X57551Y17323D01*
X57550Y17323D01*
X57550Y17324D01*
X57535Y17332D01*
X57520Y17340D01*
X57520Y17340D01*
X57519Y17341D01*
X57503Y17346D01*
X57487Y17351D01*
X57486Y17351D01*
X57485Y17351D01*
X57468Y17353D01*
X57452Y17354D01*
X57450Y17354D01*
X57450Y17354D01*
X57450Y17354D01*
X57450Y17355D01*
X57256Y17355D01*
X56930Y17681D01*
X56930Y17939D01*
X56925Y17964D01*
X56915Y17988D01*
X56901Y18009D01*
X56883Y18027D01*
X56862Y18041D01*
X56838Y18051D01*
X56813Y18056D01*
X56788Y18056D01*
X56477Y18056D01*
X56452Y18051D01*
X56428Y18042D01*
X56407Y18028D01*
X56389Y18010D01*
X56375Y17988D01*
X56365Y17965D01*
X56360Y17940D01*
X56360Y17914D01*
X56360Y17484D01*
X56365Y17459D01*
X56374Y17435D01*
X56389Y17414D01*
X56407Y17396D01*
X56428Y17381D01*
X56451Y17372D01*
X56476Y17366D01*
X56502Y17366D01*
X56735Y17366D01*
X57054Y17047D01*
X57067Y17037D01*
X57080Y17026D01*
X57081Y17026D01*
X57081Y17025D01*
X57096Y17017D01*
X57111Y17009D01*
X57112Y17009D01*
X57112Y17008D01*
X57128Y17003D01*
X57144Y16998D01*
X57145Y16998D01*
X57146Y16998D01*
X57163Y16996D01*
X57179Y16995D01*
X57181Y16995D01*
X57181Y16995D01*
X57181Y16995D01*
X57182Y16995D01*
X57375Y16995D01*
X57645Y16725D01*
X57645Y16340D01*
X57609Y16305D01*
X57578Y16260D01*
X57556Y16210D01*
X57545Y16156D01*
X57544Y16101D01*
X57554Y16047D01*
X57574Y15996D01*
X57604Y15950D01*
X57642Y15910D01*
X57687Y15879D01*
X57738Y15857D01*
X57791Y15845D01*
X57846Y15844D01*
X57900Y15854D01*
X57951Y15873D01*
X57998Y15903D01*
X58037Y15941D01*
X58069Y15986D01*
X58091Y16036D01*
X58094Y16045D01*
X58146Y16044D01*
X58200Y16054D01*
X58251Y16073D01*
X58298Y16103D01*
X58337Y16141D01*
X58340Y16145D01*
X58500Y16145D01*
X58531Y16113D01*
X58517Y16104D01*
X58499Y16086D01*
X58484Y16065D01*
X58474Y16041D01*
X58469Y16016D01*
X58469Y15991D01*
X58469Y15560D01*
X58474Y15535D01*
X58484Y15511D01*
X58498Y15490D01*
X58516Y15472D01*
X58537Y15458D01*
X58561Y15448D01*
X58586Y15443D01*
X58611Y15443D01*
X58922Y15443D01*
X58947Y15448D01*
X58971Y15457D01*
X58992Y15471D01*
X59010Y15489D01*
X59024Y15511D01*
X59034Y15534D01*
X59039Y15559D01*
X59039Y15585D01*
X59039Y14114D01*
X58927Y14227D01*
X58914Y14237D01*
X58901Y14248D01*
X58900Y14248D01*
X58900Y14249D01*
X58885Y14257D01*
X58870Y14265D01*
X58870Y14265D01*
X58869Y14266D01*
X58853Y14271D01*
X58837Y14276D01*
X58836Y14276D01*
X58835Y14276D01*
X58818Y14278D01*
X58802Y14279D01*
X58800Y14279D01*
X58800Y14279D01*
X58800Y14279D01*
X58800Y14280D01*
X58640Y14280D01*
X58604Y14316D01*
X58558Y14347D01*
X58534Y14357D01*
X58537Y14360D01*
X58550Y14370D01*
X58551Y14372D01*
X58551Y14372D01*
X58551Y14372D01*
X58552Y14372D01*
X58827Y14647D01*
X58837Y14660D01*
X58848Y14673D01*
X58848Y14674D01*
X58849Y14674D01*
X58857Y14689D01*
X58865Y14704D01*
X58865Y14704D01*
X58866Y14705D01*
X58871Y14721D01*
X58876Y14737D01*
X58876Y14738D01*
X58876Y14739D01*
X58878Y14755D01*
X58879Y14772D01*
X58879Y14774D01*
X58879Y14774D01*
X58879Y14774D01*
X58880Y14775D01*
X58880Y14909D01*
X58912Y14941D01*
X58944Y14986D01*
X58966Y15036D01*
X58979Y15089D01*
X58980Y15152D01*
X58969Y15206D01*
X58948Y15257D01*
X58918Y15302D01*
X58879Y15341D01*
X58833Y15372D01*
X58783Y15393D01*
X58729Y15404D01*
X58674Y15405D01*
X58620Y15394D01*
X58569Y15374D01*
X58523Y15344D01*
X58484Y15305D01*
X58453Y15260D01*
X58431Y15210D01*
X58420Y15156D01*
X58420Y15155D01*
X58399Y15155D01*
X58345Y15144D01*
X58294Y15124D01*
X58248Y15094D01*
X58209Y15055D01*
X58208Y15055D01*
X58124Y15055D01*
X57652Y15527D01*
X57639Y15537D01*
X57626Y15548D01*
X57625Y15548D01*
X57625Y15549D01*
X57610Y15557D01*
X57595Y15565D01*
X57595Y15565D01*
X57594Y15566D01*
X57578Y15571D01*
X57562Y15576D01*
X57561Y15576D01*
X57560Y15576D01*
X57543Y15578D01*
X57527Y15579D01*
X57525Y15579D01*
X57525Y15579D01*
X57525Y15579D01*
X57525Y15580D01*
X57231Y15580D01*
X56930Y15881D01*
X56930Y16139D01*
X56925Y16164D01*
X56915Y16188D01*
X56901Y16209D01*
X56883Y16227D01*
X56862Y16241D01*
X56838Y16251D01*
X56813Y16256D01*
X56788Y16256D01*
X56477Y16256D01*
X56452Y16251D01*
X56428Y16242D01*
X56407Y16228D01*
X56389Y16210D01*
X56375Y16188D01*
X56365Y16165D01*
X56360Y16140D01*
X56360Y16114D01*
X56360Y15684D01*
X56365Y15659D01*
X56374Y15635D01*
X56389Y15614D01*
X56407Y15596D01*
X56428Y15581D01*
X56451Y15572D01*
X56476Y15566D01*
X56502Y15566D01*
X56735Y15566D01*
X57029Y15272D01*
X57042Y15262D01*
X57055Y15251D01*
X57056Y15251D01*
X57056Y15250D01*
X57071Y15242D01*
X57086Y15234D01*
X57087Y15234D01*
X57087Y15233D01*
X57103Y15228D01*
X57119Y15223D01*
X57120Y15223D01*
X57121Y15223D01*
X57138Y15221D01*
X57154Y15220D01*
X57156Y15220D01*
X57156Y15220D01*
X57156Y15220D01*
X57157Y15220D01*
X57450Y15220D01*
X57922Y14747D01*
X57935Y14737D01*
X57948Y14726D01*
X57949Y14726D01*
X57949Y14725D01*
X57964Y14717D01*
X57979Y14709D01*
X57979Y14709D01*
X57980Y14708D01*
X57996Y14703D01*
X58012Y14698D01*
X58013Y14698D01*
X58014Y14698D01*
X58030Y14696D01*
X58047Y14695D01*
X58049Y14695D01*
X58049Y14695D01*
X58049Y14695D01*
X58050Y14695D01*
X58209Y14695D01*
X58224Y14680D01*
X57575Y14680D01*
X57033Y14680D01*
X57016Y14678D01*
X57000Y14676D01*
X56999Y14676D01*
X56998Y14676D01*
X56982Y14671D01*
X56966Y14667D01*
X56965Y14666D01*
X56964Y14666D01*
X56950Y14658D01*
X56935Y14650D01*
X56934Y14650D01*
X56933Y14649D01*
X56920Y14639D01*
X56907Y14629D01*
X56906Y14627D01*
X56906Y14627D01*
X56906Y14627D01*
X56906Y14627D01*
X56735Y14456D01*
X56477Y14456D01*
X56452Y14451D01*
X56428Y14442D01*
X56407Y14428D01*
X56389Y14410D01*
X56375Y14388D01*
X56365Y14365D01*
X56360Y14340D01*
X56360Y14314D01*
X56360Y13884D01*
X56365Y13859D01*
X56374Y13835D01*
X56389Y13814D01*
X56407Y13796D01*
X56428Y13781D01*
X56451Y13772D01*
X56476Y13766D01*
X56502Y13766D01*
X56813Y13766D01*
X56838Y13771D01*
X56861Y13781D01*
X56882Y13795D01*
X56900Y13813D01*
X56915Y13834D01*
X56925Y13858D01*
X56930Y13883D01*
X56930Y13908D01*
X56930Y14142D01*
X57108Y14320D01*
X57575Y14320D01*
X58249Y14320D01*
X58248Y14319D01*
X58209Y14280D01*
X58178Y14235D01*
X58156Y14185D01*
X58145Y14131D01*
X58144Y14076D01*
X58154Y14022D01*
X58161Y14005D01*
X57725Y14005D01*
X57708Y14003D01*
X57691Y14001D01*
X57690Y14001D01*
X57690Y14001D01*
X57674Y13996D01*
X57658Y13992D01*
X57657Y13991D01*
X57656Y13991D01*
X57641Y13983D01*
X57626Y13975D01*
X57626Y13975D01*
X57625Y13974D01*
X57612Y13964D01*
X57599Y13954D01*
X57598Y13952D01*
X57598Y13952D01*
X57598Y13952D01*
X57597Y13952D01*
X57375Y13730D01*
X57000Y13730D01*
X56983Y13728D01*
X56966Y13726D01*
X56965Y13726D01*
X56965Y13726D01*
X56949Y13721D01*
X56933Y13717D01*
X56932Y13716D01*
X56931Y13716D01*
X56916Y13708D01*
X56901Y13700D01*
X56901Y13700D01*
X56900Y13699D01*
X56887Y13689D01*
X56874Y13679D01*
X56873Y13677D01*
X56873Y13677D01*
X56873Y13677D01*
X56872Y13677D01*
X56797Y13602D01*
X56787Y13589D01*
X56776Y13576D01*
X56776Y13575D01*
X56775Y13575D01*
X56767Y13560D01*
X56759Y13545D01*
X56759Y13545D01*
X56758Y13544D01*
X56753Y13528D01*
X56748Y13512D01*
X56748Y13511D01*
X56748Y13510D01*
X56746Y13493D01*
X56745Y13477D01*
X56745Y13475D01*
X56745Y13475D01*
X56745Y13475D01*
X56745Y13475D01*
X56745Y12666D01*
X56735Y12656D01*
X56477Y12656D01*
X56452Y12651D01*
X56428Y12642D01*
X56407Y12628D01*
X56389Y12610D01*
X56375Y12588D01*
X56365Y12565D01*
X56360Y12540D01*
X56360Y12514D01*
X56360Y12084D01*
X56365Y12059D01*
X56374Y12035D01*
X56389Y12014D01*
X56407Y11996D01*
X56428Y11981D01*
X56451Y11972D01*
X56476Y11966D01*
X56502Y11966D01*
X56813Y11966D01*
X56838Y11971D01*
X56861Y11981D01*
X56882Y11995D01*
X56900Y12013D01*
X56915Y12034D01*
X56925Y12058D01*
X56930Y12083D01*
X56930Y12108D01*
X56930Y12342D01*
X57052Y12464D01*
X57062Y12477D01*
X57073Y12489D01*
X57073Y12490D01*
X57074Y12491D01*
X57082Y12506D01*
X57090Y12520D01*
X57090Y12521D01*
X57091Y12522D01*
X57096Y12538D01*
X57101Y12554D01*
X57101Y12555D01*
X57101Y12555D01*
X57103Y12572D01*
X57104Y12589D01*
X57104Y12590D01*
X57104Y12590D01*
X57104Y12590D01*
X57105Y12591D01*
X57105Y13370D01*
X57450Y13370D01*
X57466Y13371D01*
X57483Y13373D01*
X57484Y13373D01*
X57484Y13373D01*
X57500Y13378D01*
X57516Y13382D01*
X57517Y13383D01*
X57518Y13383D01*
X57533Y13391D01*
X57548Y13399D01*
X57548Y13399D01*
X57549Y13400D01*
X57562Y13410D01*
X57575Y13420D01*
X57576Y13422D01*
X57576Y13422D01*
X57576Y13422D01*
X57577Y13422D01*
X57799Y13645D01*
X58484Y13645D01*
X58517Y13610D01*
X58562Y13579D01*
X58613Y13557D01*
X58666Y13545D01*
X58721Y13544D01*
X58775Y13554D01*
X58826Y13573D01*
X58845Y13585D01*
X58845Y12533D01*
X58586Y12533D01*
X58561Y12528D01*
X58538Y12518D01*
X58517Y12504D01*
X58499Y12486D01*
X58484Y12465D01*
X58474Y12441D01*
X58469Y12416D01*
X58469Y12391D01*
X58469Y11960D01*
X58474Y11935D01*
X58484Y11911D01*
X58498Y11890D01*
X58516Y11872D01*
X58537Y11858D01*
X58561Y11848D01*
X58586Y11843D01*
X58611Y11843D01*
X58922Y11843D01*
X58947Y11848D01*
X58971Y11857D01*
X58992Y11871D01*
X59010Y11889D01*
X59024Y11911D01*
X59034Y11934D01*
X59039Y11959D01*
X59039Y11985D01*
X59039Y12218D01*
X59152Y12331D01*
X59162Y12344D01*
X59173Y12356D01*
X59173Y12357D01*
X59174Y12358D01*
X59182Y12372D01*
X59190Y12387D01*
X59190Y12388D01*
X59191Y12389D01*
X59196Y12405D01*
X59201Y12421D01*
X59201Y12421D01*
X59201Y12422D01*
X59203Y12439D01*
X59204Y12455D01*
X59204Y12457D01*
X59204Y12457D01*
X59204Y12457D01*
X59205Y12458D01*
X59205Y11641D01*
X59036Y11435D01*
X58382Y10894D01*
X57635Y10490D01*
X56824Y10239D01*
X55973Y10149D01*
X55949Y10149D01*
X55855Y10149D01*
X55855Y12039D01*
X55839Y12117D01*
X55809Y12191D01*
X55765Y12257D01*
X55709Y12313D01*
X55643Y12357D01*
X55570Y12388D01*
X55492Y12404D01*
X55413Y12405D01*
X55335Y12390D01*
X55261Y12360D01*
X55194Y12317D01*
X55138Y12261D01*
X55093Y12196D01*
X55062Y12123D01*
X55045Y12045D01*
X55044Y11965D01*
X55058Y11887D01*
X55088Y11813D01*
X55131Y11747D01*
X55186Y11690D01*
X55251Y11644D01*
X55324Y11612D01*
X55401Y11595D01*
X55481Y11594D01*
X55559Y11608D01*
X55633Y11636D01*
X55700Y11679D01*
X55758Y11734D01*
X55803Y11798D01*
X55836Y11871D01*
X55853Y11948D01*
X55855Y12039D01*
X55855Y10149D01*
X54999Y10149D01*
X54999Y10679D01*
X55041Y10670D01*
X55096Y10669D01*
X55150Y10679D01*
X55201Y10698D01*
X55248Y10728D01*
X55287Y10766D01*
X55319Y10811D01*
X55341Y10861D01*
X55354Y10914D01*
X55355Y10977D01*
X55344Y11031D01*
X55323Y11082D01*
X55293Y11127D01*
X55254Y11166D01*
X55208Y11197D01*
X55158Y11218D01*
X55104Y11229D01*
X55049Y11230D01*
X54999Y11220D01*
X54999Y13595D01*
X55222Y13372D01*
X55235Y13362D01*
X55247Y13351D01*
X55194Y13317D01*
X55138Y13261D01*
X55093Y13196D01*
X55062Y13123D01*
X55045Y13045D01*
X55044Y12965D01*
X55058Y12887D01*
X55088Y12813D01*
X55131Y12747D01*
X55186Y12690D01*
X55251Y12644D01*
X55324Y12612D01*
X55401Y12595D01*
X55481Y12594D01*
X55559Y12608D01*
X55633Y12636D01*
X55700Y12679D01*
X55758Y12734D01*
X55803Y12798D01*
X55836Y12871D01*
X55853Y12948D01*
X55855Y13039D01*
X55839Y13117D01*
X55809Y13191D01*
X55765Y13257D01*
X55709Y13313D01*
X55699Y13320D01*
X55834Y13320D01*
X55867Y13285D01*
X55912Y13254D01*
X55963Y13232D01*
X56016Y13220D01*
X56071Y13219D01*
X56125Y13229D01*
X56176Y13248D01*
X56223Y13278D01*
X56262Y13316D01*
X56294Y13361D01*
X56316Y13411D01*
X56329Y13464D01*
X56330Y13527D01*
X56319Y13581D01*
X56298Y13632D01*
X56268Y13677D01*
X56229Y13716D01*
X56183Y13747D01*
X56133Y13768D01*
X56079Y13779D01*
X56077Y13779D01*
X56126Y13798D01*
X56173Y13828D01*
X56212Y13866D01*
X56244Y13911D01*
X56266Y13961D01*
X56279Y14014D01*
X56280Y14077D01*
X56269Y14131D01*
X56248Y14182D01*
X56218Y14227D01*
X56179Y14266D01*
X56133Y14297D01*
X56083Y14318D01*
X56029Y14329D01*
X55974Y14330D01*
X55950Y14325D01*
X55637Y14639D01*
X55700Y14679D01*
X55758Y14734D01*
X55803Y14798D01*
X55836Y14871D01*
X55853Y14948D01*
X55855Y15039D01*
X55839Y15117D01*
X55809Y15191D01*
X55765Y15257D01*
X55709Y15313D01*
X55643Y15357D01*
X55570Y15388D01*
X55492Y15404D01*
X55413Y15405D01*
X55335Y15390D01*
X55261Y15360D01*
X55230Y15340D01*
X55230Y15525D01*
X55319Y15615D01*
X55324Y15612D01*
X55401Y15595D01*
X55481Y15594D01*
X55559Y15608D01*
X55633Y15636D01*
X55700Y15679D01*
X55758Y15734D01*
X55803Y15798D01*
X55836Y15871D01*
X55853Y15948D01*
X55855Y16039D01*
X55839Y16117D01*
X55809Y16191D01*
X55765Y16257D01*
X55709Y16313D01*
X55643Y16357D01*
X55570Y16388D01*
X55492Y16404D01*
X55413Y16405D01*
X55335Y16390D01*
X55261Y16360D01*
X55194Y16317D01*
X55138Y16261D01*
X55093Y16196D01*
X55062Y16123D01*
X55045Y16045D01*
X55044Y15965D01*
X55058Y15887D01*
X55065Y15870D01*
X54999Y15804D01*
X54999Y17654D01*
X55041Y17645D01*
X55096Y17644D01*
X55150Y17654D01*
X55201Y17673D01*
X55248Y17703D01*
X55287Y17741D01*
X55319Y17786D01*
X55341Y17836D01*
X55354Y17889D01*
X55355Y17952D01*
X55344Y18006D01*
X55323Y18057D01*
X55293Y18102D01*
X55254Y18141D01*
X55208Y18172D01*
X55158Y18193D01*
X55104Y18204D01*
X55049Y18205D01*
X54999Y18195D01*
X54999Y18850D01*
X55942Y18850D01*
X56794Y18766D01*
X57607Y18521D01*
X58357Y18122D01*
X59014Y17586D01*
X59555Y16932D01*
X59959Y16185D01*
X60210Y15374D01*
X60300Y14523D01*
X60300Y14507D01*
M02*
