M48
;DRILL file {Pcbnew (2013-07-07 BZR 4022)-stable} date 3/1/2014 5:07:30 PM
;FORMAT={2:4/ absolute / inch / suppress leading zeros}
FMAT,2
INCH,TZ
T1C0.012
T2C0.015
T3C0.035
T4C0.105
T5C0.126
%
G90
G05
M72
T1
X24346Y37504
X24346Y37150
X24346Y36796
X24346Y17504
X24346Y17150
X24346Y16796
X24700Y37504
X24700Y37150
X24700Y36796
X24700Y17504
X24700Y17150
X24700Y16796
X25054Y37504
X25054Y37150
X25054Y36796
X25054Y17504
X25054Y17150
X25054Y16796
T2
X1705Y35512
X1705Y15512
X3150Y35625
X3150Y33008
X3150Y15625
X3150Y13008
X4025Y34075
X4025Y14075
X4550Y37700
X4550Y17700
X4625Y35000
X4625Y15000
X4675Y33075
X4675Y13075
X4725Y34650
X4725Y14650
X4750Y37250
X4750Y17250
X5200Y36675
X5200Y16675
X5250Y33150
X5250Y13150
X5500Y36925
X5500Y16925
X5650Y33150
X5650Y13150
X5800Y37508
X5800Y17508
X5950Y36650
X5950Y16650
X6025Y33300
X6025Y13300
X6200Y36925
X6200Y16925
X6225Y33000
X6225Y28425
X6225Y21450
X6225Y13000
X6225Y8425
X6225Y1450
X7150Y24550
X7150Y4550
X7200Y24000
X7200Y4000
X7325Y32275
X7325Y12275
X7650Y33250
X7650Y13250
X7700Y37125
X7700Y32875
X7700Y17125
X7700Y12875
X7725Y32475
X7725Y12475
X7950Y36825
X7950Y16825
X8225Y38275
X8225Y18275
X8250Y33225
X8250Y13225
X8350Y35575
X8350Y15575
X8750Y36800
X8750Y16800
X8800Y33225
X8800Y13225
X8975Y26625
X8975Y6625
X9150Y36825
X9150Y16825
X9275Y26825
X9275Y6825
X9475Y33900
X9475Y13900
X9575Y25375
X9575Y24600
X9575Y5375
X9575Y4600
X9850Y25625
X9850Y24325
X9850Y5625
X9850Y4325
X15750Y31950
X15750Y11950
X16118Y37500
X16118Y17500
X16533Y35550
X16533Y15550
X16800Y34350
X16800Y14350
X17174Y34881
X17174Y33819
X17174Y14881
X17174Y13819
X18200Y33968
X18200Y13967
X19500Y35750
X19500Y15750
X19700Y32400
X19700Y12400
X19800Y34450
X19800Y33317
X19800Y14450
X19800Y13317
X20175Y34450
X20175Y14450
X20225Y33725
X20225Y13725
X20300Y36550
X20300Y16550
X20350Y36150
X20350Y35650
X20350Y16150
X20350Y15650
X20450Y39350
X20450Y38950
X20450Y38550
X20450Y19350
X20450Y18950
X20450Y18550
X20650Y36450
X20650Y35950
X20650Y16450
X20650Y15950
X20750Y33733
X20750Y13733
X21000Y34800
X21000Y14800
X21025Y35175
X21025Y15175
X21100Y38900
X21100Y38500
X21100Y18900
X21100Y18500
X21733Y33850
X21733Y13850
X22050Y38400
X22050Y18400
X22068Y37750
X22068Y17750
X22268Y33850
X22268Y13850
X22500Y32375
X22500Y12375
X22632Y37750
X22632Y37250
X22632Y36250
X22632Y17750
X22632Y17250
X22632Y16250
X22750Y39150
X22750Y19150
X22768Y33200
X22768Y13200
X23000Y32370
X23000Y12370
X23167Y37750
X23167Y17750
X23333Y33850
X23333Y33200
X23333Y13850
X23333Y13200
X23500Y32375
X23500Y12375
X23600Y36250
X23600Y16250
X23868Y33200
X23868Y13200
X23895Y38275
X23895Y18275
X23900Y39167
X23900Y36050
X23900Y19168
X23900Y16050
X24853Y33197
X24853Y32803
X24853Y13197
X24853Y12803
X24900Y31800
X24900Y11800
X25050Y33000
X25050Y13000
X25068Y39150
X25068Y19150
X25247Y33197
X25247Y32803
X25247Y13197
X25247Y12803
X25633Y39150
X25633Y19150
X25900Y38550
X25900Y18550
X26033Y37900
X26033Y37250
X26033Y17900
X26033Y17250
X26300Y38450
X26300Y18450
X26567Y37250
X26567Y17250
X26733Y39150
X26733Y19150
X28103Y35447
X28103Y35053
X28103Y15447
X28103Y15053
X28300Y35250
X28300Y15250
X28497Y35447
X28497Y35053
X28497Y15447
X28497Y15053
X29250Y35383
X29250Y15383
X29408Y38375
X29408Y18375
X29433Y36550
X29433Y16550
X29900Y35917
X29900Y15918
X31000Y36550
X31000Y16550
X31275Y33033
X31275Y13033
X31350Y33575
X31350Y13575
X31750Y33575
X31750Y13575
X32125Y33700
X32125Y13700
X32533Y34200
X32533Y14200
X32775Y33325
X32775Y13325
X33050Y35250
X33050Y15250
X33895Y33400
X33895Y13400
X35990Y36246
X35990Y16246
X36450Y34800
X36450Y14800
X36950Y35300
X36950Y15300
X37275Y34100
X37275Y14100
X37449Y36246
X37449Y16246
X39050Y35267
X39050Y15268
X39167Y32250
X39167Y12250
X39350Y37350
X39350Y17350
X39550Y35833
X39550Y15833
X39633Y34200
X39633Y14200
X39700Y37100
X39700Y17100
X40025Y32450
X40025Y12450
X40100Y37100
X40100Y17100
X40167Y33200
X40167Y13200
X40217Y31250
X40217Y11250
X40250Y35833
X40250Y15833
X40750Y35267
X40750Y34732
X40750Y15268
X40750Y14733
X40950Y37900
X40950Y17900
X41000Y36667
X41000Y16668
X41033Y33575
X41033Y13575
X41083Y31625
X41083Y30875
X41083Y11625
X41083Y10875
X41650Y36133
X41650Y16133
X41750Y33918
X41750Y13918
X41850Y32468
X41850Y31933
X41850Y12468
X41850Y11933
X41900Y30750
X41900Y10750
X41950Y24500
X41950Y4500
X42175Y33425
X42175Y13425
X42225Y33800
X42225Y13800
X42300Y36667
X42300Y36133
X42300Y16668
X42300Y16133
X42475Y32675
X42475Y12675
X42700Y34400
X42700Y14400
X42850Y32675
X42850Y12675
X43050Y34050
X43050Y14050
X43500Y32675
X43500Y12675
X43675Y31650
X43675Y11650
X43750Y33750
X43750Y13750
X44000Y34050
X44000Y14050
X44050Y31600
X44050Y11600
X44450Y34200
X44450Y14200
X44700Y31650
X44700Y11650
X44900Y34250
X44900Y14250
X45025Y32725
X45025Y12725
X45050Y31550
X45050Y11550
X45150Y33950
X45150Y13950
X45400Y31650
X45400Y11650
X45417Y36625
X45417Y16625
X45950Y31700
X45950Y11700
X46000Y35250
X46000Y28683
X46000Y15250
X46000Y8682
X46100Y33250
X46100Y13250
X46250Y31100
X46250Y11100
X46283Y36250
X46283Y16250
X46433Y33000
X46433Y13000
X46732Y33650
X46732Y13650
X47268Y33650
X47268Y13650
X47275Y31150
X47275Y11150
X47550Y36400
X47550Y16400
X47975Y36400
X47975Y16400
X48475Y36400
X48475Y16400
X49100Y30775
X49100Y10775
X49250Y35900
X49250Y15900
X49500Y34025
X49500Y14025
T3
X6600Y27500
X6600Y26500
X6600Y25500
X6600Y24500
X6600Y23500
X6600Y22500
X6600Y7500
X6600Y6500
X6600Y5500
X6600Y4500
X6600Y3500
X6600Y2500
X8900Y39000
X8900Y38000
X8900Y32000
X8900Y31000
X8900Y19000
X8900Y18000
X8900Y12000
X8900Y11000
X9900Y39000
X9900Y38000
X9900Y32000
X9900Y31000
X9900Y19000
X9900Y18000
X9900Y12000
X9900Y11000
X14950Y37500
X14950Y36500
X14950Y35500
X14950Y34500
X14950Y33500
X14950Y32500
X14950Y17500
X14950Y16500
X14950Y15500
X14950Y14500
X14950Y13500
X14950Y12500
X15050Y39000
X15050Y31000
X15050Y29000
X15050Y21000
X15050Y19000
X15050Y11000
X15050Y9000
X15050Y1000
X16050Y39000
X16050Y31000
X16050Y29000
X16050Y21000
X16050Y19000
X16050Y11000
X16050Y9000
X16050Y1000
X30450Y33400
X30450Y32400
X30450Y31400
X30450Y13400
X30450Y12400
X30450Y11400
X31950Y31400
X31950Y11400
X32116Y36128
X32116Y16128
X32300Y38950
X32300Y37950
X32300Y18950
X32300Y17950
X32950Y31400
X32950Y11400
X33116Y36128
X33116Y16128
X33300Y38950
X33300Y37950
X33300Y18950
X33300Y17950
X34300Y38950
X34300Y37950
X34300Y18950
X34300Y17950
X35300Y38950
X35300Y37950
X35300Y18950
X35300Y17950
X36300Y38950
X36300Y37950
X36300Y18950
X36300Y17950
X37300Y38950
X37300Y37950
X37300Y18950
X37300Y17950
X38300Y38950
X38300Y37950
X38300Y18950
X38300Y17950
X43400Y38800
X43400Y37800
X43400Y36800
X43400Y28800
X43400Y27800
X43400Y26800
X43400Y18800
X43400Y17800
X43400Y16800
X43400Y8800
X43400Y7800
X43400Y6800
X44400Y38800
X44400Y37800
X44400Y36800
X44400Y28800
X44400Y27800
X44400Y26800
X44400Y18800
X44400Y17800
X44400Y16800
X44400Y8800
X44400Y7800
X44400Y6800
X49950Y39000
X49950Y38000
X49950Y32000
X49950Y31000
X49950Y19000
X49950Y18000
X49950Y12000
X49950Y11000
X50950Y39000
X50950Y38000
X50950Y32000
X50950Y31000
X50950Y19000
X50950Y18000
X50950Y12000
X50950Y11000
T4
X18600Y35000
X18600Y15000
X47300Y35000
X47300Y15000
T5
X22000Y35000
X22000Y15000
X43900Y35000
X43900Y15000
T0
M30
