G04 (created by PCBNEW (2013-07-07 BZR 4022)-stable) date 2/22/2014 5:21:18 PM*
%MOIN*%
G04 Gerber Fmt 3.4, Leading zero omitted, Abs format*
%FSLAX34Y34*%
G01*
G70*
G90*
G04 APERTURE LIST*
%ADD10C,0.00590551*%
%ADD11R,0.055X0.055*%
%ADD12C,0.055*%
%ADD13C,0.025*%
%ADD14C,0.023622*%
%ADD15C,0.146*%
%ADD16C,0.125*%
%ADD17C,0.03*%
%ADD18C,0.006*%
G04 APERTURE END LIST*
G54D10*
G54D11*
X31800Y17450D03*
G54D12*
X31800Y18450D03*
X32800Y17450D03*
X32800Y18450D03*
X33800Y17450D03*
X33800Y18450D03*
X34800Y17450D03*
X34800Y18450D03*
X35800Y17450D03*
X35800Y18450D03*
X36800Y17450D03*
X36800Y18450D03*
X37800Y17450D03*
X37800Y18450D03*
G54D11*
X55450Y17000D03*
G54D12*
X55450Y16000D03*
X55450Y15000D03*
X55450Y14000D03*
X55450Y13000D03*
X55450Y12000D03*
G54D11*
X14450Y12000D03*
G54D12*
X14450Y13000D03*
X14450Y14000D03*
X14450Y15000D03*
X14450Y16000D03*
X14450Y17000D03*
G54D13*
X24550Y12500D03*
X24746Y12696D03*
X24746Y12303D03*
X24353Y12303D03*
X24353Y12696D03*
G54D11*
X50450Y18500D03*
G54D12*
X49450Y18500D03*
X49450Y17500D03*
X50450Y17500D03*
G54D11*
X9400Y17500D03*
G54D12*
X8400Y17500D03*
X8400Y18500D03*
X9400Y18500D03*
G54D11*
X9400Y10500D03*
G54D12*
X8400Y10500D03*
X8400Y11500D03*
X9400Y11500D03*
G54D11*
X50450Y11500D03*
G54D12*
X49450Y11500D03*
X49450Y10500D03*
X50450Y10500D03*
G54D11*
X14550Y18500D03*
G54D12*
X15550Y18500D03*
G54D11*
X14550Y10500D03*
G54D12*
X15550Y10500D03*
G54D11*
X42900Y18300D03*
G54D12*
X43900Y18300D03*
G54D11*
X42900Y17300D03*
G54D12*
X43900Y17300D03*
G54D11*
X42900Y16300D03*
G54D12*
X43900Y16300D03*
G54D11*
X14550Y8500D03*
G54D12*
X15550Y8500D03*
G54D11*
X14550Y500D03*
G54D12*
X15550Y500D03*
G54D11*
X42900Y6300D03*
G54D12*
X43900Y6300D03*
G54D11*
X42900Y7300D03*
G54D12*
X43900Y7300D03*
G54D11*
X42900Y8300D03*
G54D12*
X43900Y8300D03*
G54D14*
X24554Y16295D03*
X24200Y16295D03*
X23845Y16295D03*
X23845Y16650D03*
X24200Y16650D03*
X24554Y16650D03*
X24554Y17004D03*
X24200Y17004D03*
X23845Y17004D03*
G54D15*
X21500Y14500D03*
X43400Y14500D03*
G54D16*
X18100Y14500D03*
X46800Y14500D03*
G54D11*
X29950Y10900D03*
G54D12*
X29950Y11900D03*
X29950Y12900D03*
G54D11*
X31450Y10900D03*
G54D12*
X32450Y10900D03*
G54D13*
X27800Y14750D03*
X27603Y14553D03*
X27603Y14946D03*
X27996Y14946D03*
X27996Y14553D03*
G54D17*
X22000Y11875D03*
X22500Y11870D03*
X23000Y11875D03*
X56050Y13500D03*
X3525Y13575D03*
X6825Y11775D03*
X7200Y16625D03*
X4250Y16750D03*
X40250Y14232D03*
X41450Y4000D03*
X45500Y8182D03*
X41350Y11432D03*
X41250Y13417D03*
X41800Y16167D03*
X45783Y15750D03*
X45932Y12500D03*
X29400Y15417D03*
X22132Y16750D03*
X19300Y12817D03*
X19000Y15250D03*
X15617Y17000D03*
X16032Y15050D03*
X46767Y13150D03*
X26232Y18650D03*
X23400Y18667D03*
X19950Y18450D03*
X21550Y17900D03*
X44400Y13750D03*
X23394Y17775D03*
X7200Y12375D03*
X4225Y14150D03*
X56000Y14050D03*
X47050Y15900D03*
X43500Y13550D03*
X41800Y15632D03*
X25132Y18650D03*
X7225Y11975D03*
X4125Y14500D03*
X47475Y15900D03*
X43250Y13250D03*
X41150Y15632D03*
X24567Y18650D03*
X25532Y17400D03*
X39600Y16600D03*
X38850Y16850D03*
X25800Y17950D03*
X49000Y13525D03*
X25400Y18050D03*
X39200Y16600D03*
X47975Y15900D03*
X20600Y18000D03*
X19850Y15150D03*
X19950Y18050D03*
X19800Y16050D03*
X20150Y15450D03*
X16674Y13318D03*
X16674Y14381D03*
X19850Y15650D03*
X42200Y13900D03*
X42550Y13550D03*
X41400Y10250D03*
X30500Y16050D03*
X30850Y13075D03*
X22667Y17250D03*
X39132Y13700D03*
X43175Y11150D03*
X43550Y11100D03*
X19675Y13950D03*
X45450Y11200D03*
X31250Y13075D03*
X44917Y16125D03*
X45750Y10600D03*
X44550Y11050D03*
X44900Y11150D03*
X44650Y13450D03*
X48600Y10275D03*
X46775Y10650D03*
X35950Y14300D03*
X36450Y14800D03*
X40450Y17400D03*
X43950Y13700D03*
X41675Y12925D03*
X43000Y12175D03*
X44525Y12225D03*
X36775Y13600D03*
X40583Y10375D03*
X45600Y12750D03*
X23367Y12700D03*
X24400Y11300D03*
X7450Y16325D03*
X7725Y17775D03*
X8250Y16300D03*
X7850Y15075D03*
X8650Y16325D03*
X8975Y13400D03*
X8300Y12725D03*
X7750Y12725D03*
X5300Y17007D03*
X4700Y16175D03*
X4050Y17200D03*
X5000Y16425D03*
X5450Y16150D03*
X5700Y16425D03*
X5725Y12500D03*
X5525Y12800D03*
X5150Y12650D03*
X1204Y15011D03*
X2650Y15125D03*
X4750Y12650D03*
X2650Y12507D03*
X58125Y16325D03*
X57825Y16125D03*
X58425Y14875D03*
X58700Y15125D03*
X58700Y13825D03*
X58425Y14100D03*
X55075Y17925D03*
X55075Y10950D03*
X4175Y12575D03*
X7150Y12750D03*
X41725Y13300D03*
X44200Y11150D03*
X39750Y15332D03*
X41975Y12175D03*
X42350Y12175D03*
X39050Y15332D03*
X15250Y11450D03*
X30775Y12533D03*
X39525Y11950D03*
X40583Y11125D03*
X20525Y14675D03*
X46232Y13150D03*
X33395Y12900D03*
X48750Y15400D03*
X41350Y11967D03*
X40533Y13075D03*
X40250Y14767D03*
X40500Y16167D03*
X38550Y14767D03*
X28750Y14882D03*
X28932Y16050D03*
X27550Y17800D03*
X26067Y16750D03*
X22267Y12700D03*
X22832Y12700D03*
X22832Y13350D03*
X22132Y15750D03*
X22132Y17250D03*
X22250Y18650D03*
X17700Y13467D03*
X19200Y11900D03*
X16300Y13850D03*
X21567Y17250D03*
X20600Y18400D03*
X21767Y13350D03*
X23400Y15550D03*
X21232Y13350D03*
X25532Y16750D03*
X23100Y15750D03*
X19725Y13225D03*
X20150Y15950D03*
X19950Y18850D03*
X39667Y12700D03*
X19300Y13950D03*
X31625Y13200D03*
X45500Y14750D03*
X38667Y11750D03*
X32550Y14750D03*
X20500Y14300D03*
X39717Y10750D03*
X32275Y12825D03*
X32032Y13700D03*
X20250Y13232D03*
G54D10*
G36*
X49920Y12530D02*
X49855Y12530D01*
X49855Y17539D01*
X49839Y17617D01*
X49809Y17691D01*
X49765Y17757D01*
X49709Y17813D01*
X49643Y17857D01*
X49570Y17888D01*
X49492Y17904D01*
X49413Y17905D01*
X49335Y17890D01*
X49261Y17860D01*
X49194Y17817D01*
X49138Y17761D01*
X49093Y17696D01*
X49062Y17623D01*
X49045Y17545D01*
X49044Y17465D01*
X49058Y17387D01*
X49088Y17313D01*
X49131Y17247D01*
X49186Y17190D01*
X49251Y17144D01*
X49324Y17112D01*
X49401Y17095D01*
X49481Y17094D01*
X49559Y17108D01*
X49633Y17136D01*
X49700Y17179D01*
X49758Y17234D01*
X49803Y17298D01*
X49836Y17371D01*
X49853Y17448D01*
X49855Y17539D01*
X49855Y12530D01*
X49280Y12530D01*
X49280Y13552D01*
X49269Y13606D01*
X49248Y13657D01*
X49218Y13702D01*
X49179Y13741D01*
X49133Y13772D01*
X49083Y13793D01*
X49030Y13804D01*
X49030Y15427D01*
X49019Y15481D01*
X48998Y15532D01*
X48968Y15577D01*
X48929Y15616D01*
X48883Y15647D01*
X48833Y15668D01*
X48779Y15679D01*
X48724Y15680D01*
X48670Y15669D01*
X48619Y15649D01*
X48573Y15619D01*
X48534Y15580D01*
X48503Y15535D01*
X48481Y15485D01*
X48470Y15431D01*
X48469Y15376D01*
X48479Y15322D01*
X48499Y15271D01*
X48529Y15225D01*
X48567Y15185D01*
X48612Y15154D01*
X48663Y15132D01*
X48716Y15120D01*
X48771Y15119D01*
X48825Y15129D01*
X48876Y15148D01*
X48923Y15178D01*
X48962Y15216D01*
X48994Y15261D01*
X49016Y15311D01*
X49029Y15364D01*
X49030Y15427D01*
X49030Y13804D01*
X49029Y13804D01*
X48974Y13805D01*
X48920Y13794D01*
X48869Y13774D01*
X48823Y13744D01*
X48784Y13705D01*
X48753Y13660D01*
X48731Y13610D01*
X48720Y13556D01*
X48719Y13501D01*
X48729Y13447D01*
X48749Y13396D01*
X48779Y13350D01*
X48817Y13310D01*
X48862Y13279D01*
X48913Y13257D01*
X48966Y13245D01*
X49021Y13244D01*
X49075Y13254D01*
X49126Y13273D01*
X49173Y13303D01*
X49212Y13341D01*
X49244Y13386D01*
X49266Y13436D01*
X49279Y13489D01*
X49280Y13552D01*
X49280Y12530D01*
X48255Y12530D01*
X48255Y15927D01*
X48244Y15981D01*
X48223Y16032D01*
X48193Y16077D01*
X48154Y16116D01*
X48108Y16147D01*
X48058Y16168D01*
X48004Y16179D01*
X47949Y16180D01*
X47895Y16169D01*
X47844Y16149D01*
X47798Y16119D01*
X47759Y16080D01*
X47728Y16035D01*
X47725Y16027D01*
X47723Y16032D01*
X47693Y16077D01*
X47654Y16116D01*
X47608Y16147D01*
X47558Y16168D01*
X47504Y16179D01*
X47449Y16180D01*
X47395Y16169D01*
X47344Y16149D01*
X47298Y16119D01*
X47262Y16083D01*
X47229Y16116D01*
X47183Y16147D01*
X47133Y16168D01*
X47079Y16179D01*
X47024Y16180D01*
X46970Y16169D01*
X46919Y16149D01*
X46873Y16119D01*
X46834Y16080D01*
X46803Y16035D01*
X46781Y15985D01*
X46770Y15931D01*
X46769Y15876D01*
X46779Y15822D01*
X46799Y15771D01*
X46829Y15725D01*
X46867Y15685D01*
X46912Y15654D01*
X46963Y15632D01*
X47016Y15620D01*
X47071Y15619D01*
X47125Y15629D01*
X47176Y15648D01*
X47223Y15678D01*
X47262Y15716D01*
X47263Y15716D01*
X47292Y15685D01*
X47337Y15654D01*
X47388Y15632D01*
X47441Y15620D01*
X47496Y15619D01*
X47550Y15629D01*
X47601Y15648D01*
X47648Y15678D01*
X47687Y15716D01*
X47719Y15761D01*
X47724Y15771D01*
X47724Y15771D01*
X47754Y15725D01*
X47792Y15685D01*
X47837Y15654D01*
X47888Y15632D01*
X47941Y15620D01*
X47996Y15619D01*
X48050Y15629D01*
X48101Y15648D01*
X48148Y15678D01*
X48187Y15716D01*
X48219Y15761D01*
X48241Y15811D01*
X48254Y15864D01*
X48255Y15927D01*
X48255Y12530D01*
X47555Y12530D01*
X47555Y14574D01*
X47526Y14719D01*
X47469Y14856D01*
X47387Y14979D01*
X47283Y15084D01*
X47160Y15167D01*
X47024Y15224D01*
X46879Y15254D01*
X46731Y15255D01*
X46585Y15227D01*
X46448Y15172D01*
X46324Y15091D01*
X46218Y14987D01*
X46135Y14865D01*
X46076Y14729D01*
X46046Y14584D01*
X46044Y14436D01*
X46070Y14290D01*
X46125Y14153D01*
X46205Y14028D01*
X46308Y13922D01*
X46429Y13837D01*
X46565Y13778D01*
X46710Y13746D01*
X46858Y13743D01*
X47004Y13769D01*
X47142Y13822D01*
X47267Y13902D01*
X47374Y14004D01*
X47459Y14125D01*
X47519Y14260D01*
X47552Y14404D01*
X47555Y14574D01*
X47555Y12530D01*
X46512Y12530D01*
X46512Y13177D01*
X46501Y13231D01*
X46480Y13282D01*
X46450Y13327D01*
X46411Y13366D01*
X46366Y13397D01*
X46315Y13418D01*
X46261Y13429D01*
X46207Y13430D01*
X46153Y13419D01*
X46102Y13399D01*
X46056Y13369D01*
X46016Y13330D01*
X45985Y13285D01*
X45964Y13235D01*
X45952Y13181D01*
X45952Y13126D01*
X45962Y13072D01*
X45982Y13021D01*
X46012Y12975D01*
X46050Y12935D01*
X46095Y12904D01*
X46145Y12882D01*
X46199Y12870D01*
X46254Y12869D01*
X46308Y12879D01*
X46359Y12898D01*
X46405Y12928D01*
X46445Y12966D01*
X46477Y13011D01*
X46499Y13061D01*
X46511Y13114D01*
X46512Y13177D01*
X46512Y12530D01*
X46437Y12530D01*
X46137Y12230D01*
X45762Y12230D01*
X45507Y12484D01*
X45513Y12482D01*
X45566Y12470D01*
X45621Y12469D01*
X45675Y12479D01*
X45726Y12498D01*
X45773Y12528D01*
X45812Y12566D01*
X45844Y12611D01*
X45866Y12661D01*
X45879Y12714D01*
X45880Y12777D01*
X45869Y12831D01*
X45848Y12882D01*
X45818Y12927D01*
X45780Y12966D01*
X45780Y14777D01*
X45769Y14831D01*
X45748Y14882D01*
X45718Y14927D01*
X45679Y14966D01*
X45633Y14997D01*
X45583Y15018D01*
X45529Y15029D01*
X45474Y15030D01*
X45420Y15019D01*
X45369Y14999D01*
X45323Y14969D01*
X45284Y14930D01*
X45253Y14885D01*
X45231Y14835D01*
X45220Y14781D01*
X45219Y14726D01*
X45229Y14672D01*
X45249Y14621D01*
X45279Y14575D01*
X45317Y14535D01*
X45362Y14504D01*
X45413Y14482D01*
X45466Y14470D01*
X45521Y14469D01*
X45575Y14479D01*
X45626Y14498D01*
X45673Y14528D01*
X45712Y14566D01*
X45744Y14611D01*
X45766Y14661D01*
X45779Y14714D01*
X45780Y14777D01*
X45780Y12966D01*
X45779Y12966D01*
X45733Y12997D01*
X45683Y13018D01*
X45629Y13029D01*
X45574Y13030D01*
X45520Y13019D01*
X45469Y12999D01*
X45423Y12969D01*
X45384Y12930D01*
X45353Y12885D01*
X45331Y12835D01*
X45320Y12781D01*
X45319Y12726D01*
X45329Y12672D01*
X45349Y12621D01*
X45379Y12575D01*
X45417Y12535D01*
X45425Y12530D01*
X45197Y12530D01*
X45197Y16152D01*
X45186Y16206D01*
X45165Y16257D01*
X45135Y16302D01*
X45096Y16341D01*
X45050Y16372D01*
X45000Y16393D01*
X44946Y16404D01*
X44891Y16405D01*
X44837Y16394D01*
X44786Y16374D01*
X44740Y16344D01*
X44701Y16305D01*
X44670Y16260D01*
X44648Y16210D01*
X44637Y16156D01*
X44636Y16101D01*
X44646Y16047D01*
X44666Y15996D01*
X44696Y15950D01*
X44734Y15910D01*
X44779Y15879D01*
X44830Y15857D01*
X44883Y15845D01*
X44938Y15844D01*
X44992Y15854D01*
X45043Y15873D01*
X45090Y15903D01*
X45129Y15941D01*
X45161Y15986D01*
X45183Y16036D01*
X45196Y16089D01*
X45197Y16152D01*
X45197Y12530D01*
X44930Y12530D01*
X44930Y13477D01*
X44919Y13531D01*
X44898Y13582D01*
X44868Y13627D01*
X44829Y13666D01*
X44783Y13697D01*
X44733Y13718D01*
X44679Y13729D01*
X44679Y13729D01*
X44680Y13777D01*
X44669Y13831D01*
X44648Y13882D01*
X44618Y13927D01*
X44579Y13966D01*
X44533Y13997D01*
X44483Y14018D01*
X44429Y14029D01*
X44374Y14030D01*
X44320Y14019D01*
X44305Y14013D01*
X44305Y16339D01*
X44305Y17339D01*
X44289Y17417D01*
X44259Y17491D01*
X44215Y17557D01*
X44159Y17613D01*
X44093Y17657D01*
X44020Y17688D01*
X43942Y17704D01*
X43863Y17705D01*
X43785Y17690D01*
X43711Y17660D01*
X43644Y17617D01*
X43588Y17561D01*
X43543Y17496D01*
X43512Y17423D01*
X43495Y17345D01*
X43494Y17265D01*
X43508Y17187D01*
X43538Y17113D01*
X43581Y17047D01*
X43636Y16990D01*
X43701Y16944D01*
X43774Y16912D01*
X43851Y16895D01*
X43931Y16894D01*
X44009Y16908D01*
X44083Y16936D01*
X44150Y16979D01*
X44208Y17034D01*
X44253Y17098D01*
X44286Y17171D01*
X44303Y17248D01*
X44305Y17339D01*
X44305Y16339D01*
X44289Y16417D01*
X44259Y16491D01*
X44215Y16557D01*
X44159Y16613D01*
X44093Y16657D01*
X44020Y16688D01*
X43942Y16704D01*
X43863Y16705D01*
X43785Y16690D01*
X43711Y16660D01*
X43644Y16617D01*
X43588Y16561D01*
X43543Y16496D01*
X43512Y16423D01*
X43495Y16345D01*
X43494Y16265D01*
X43508Y16187D01*
X43538Y16113D01*
X43581Y16047D01*
X43636Y15990D01*
X43701Y15944D01*
X43774Y15912D01*
X43851Y15895D01*
X43931Y15894D01*
X44009Y15908D01*
X44083Y15936D01*
X44150Y15979D01*
X44208Y16034D01*
X44253Y16098D01*
X44286Y16171D01*
X44303Y16248D01*
X44305Y16339D01*
X44305Y14013D01*
X44269Y13999D01*
X44223Y13969D01*
X44184Y13930D01*
X44156Y13889D01*
X44129Y13916D01*
X44083Y13947D01*
X44067Y13954D01*
X44151Y14073D01*
X44219Y14227D01*
X44257Y14391D01*
X44260Y14584D01*
X44227Y14749D01*
X44163Y14905D01*
X44069Y15046D01*
X43950Y15165D01*
X43811Y15260D01*
X43655Y15325D01*
X43490Y15359D01*
X43321Y15360D01*
X43305Y15357D01*
X43305Y16036D01*
X43305Y17036D01*
X43305Y18036D01*
X43305Y18587D01*
X43300Y18612D01*
X43290Y18636D01*
X43276Y18657D01*
X43258Y18675D01*
X43237Y18689D01*
X43213Y18699D01*
X43188Y18704D01*
X43163Y18705D01*
X42612Y18705D01*
X42587Y18700D01*
X42563Y18690D01*
X42542Y18676D01*
X42524Y18658D01*
X42510Y18637D01*
X42500Y18613D01*
X42495Y18588D01*
X42494Y18563D01*
X42494Y18012D01*
X42499Y17987D01*
X42509Y17963D01*
X42523Y17942D01*
X42541Y17924D01*
X42562Y17910D01*
X42586Y17900D01*
X42611Y17895D01*
X42636Y17894D01*
X43187Y17894D01*
X43212Y17899D01*
X43236Y17909D01*
X43257Y17923D01*
X43275Y17941D01*
X43289Y17962D01*
X43299Y17986D01*
X43304Y18011D01*
X43305Y18036D01*
X43305Y17036D01*
X43305Y17587D01*
X43300Y17612D01*
X43290Y17636D01*
X43276Y17657D01*
X43258Y17675D01*
X43237Y17689D01*
X43213Y17699D01*
X43188Y17704D01*
X43163Y17705D01*
X42612Y17705D01*
X42587Y17700D01*
X42563Y17690D01*
X42542Y17676D01*
X42524Y17658D01*
X42510Y17637D01*
X42500Y17613D01*
X42495Y17588D01*
X42494Y17563D01*
X42494Y17012D01*
X42499Y16987D01*
X42509Y16963D01*
X42523Y16942D01*
X42541Y16924D01*
X42562Y16910D01*
X42586Y16900D01*
X42611Y16895D01*
X42636Y16894D01*
X43187Y16894D01*
X43212Y16899D01*
X43236Y16909D01*
X43257Y16923D01*
X43275Y16941D01*
X43289Y16962D01*
X43299Y16986D01*
X43304Y17011D01*
X43305Y17036D01*
X43305Y16036D01*
X43305Y16587D01*
X43300Y16612D01*
X43290Y16636D01*
X43276Y16657D01*
X43258Y16675D01*
X43237Y16689D01*
X43213Y16699D01*
X43188Y16704D01*
X43163Y16705D01*
X42612Y16705D01*
X42587Y16700D01*
X42563Y16690D01*
X42542Y16676D01*
X42524Y16658D01*
X42510Y16637D01*
X42500Y16613D01*
X42495Y16588D01*
X42494Y16563D01*
X42494Y16012D01*
X42499Y15987D01*
X42509Y15963D01*
X42523Y15942D01*
X42541Y15924D01*
X42562Y15910D01*
X42586Y15900D01*
X42611Y15895D01*
X42636Y15894D01*
X43187Y15894D01*
X43212Y15899D01*
X43236Y15909D01*
X43257Y15923D01*
X43275Y15941D01*
X43289Y15962D01*
X43299Y15986D01*
X43304Y16011D01*
X43305Y16036D01*
X43305Y15357D01*
X43156Y15329D01*
X42999Y15265D01*
X42858Y15173D01*
X42738Y15055D01*
X42642Y14916D01*
X42576Y14761D01*
X42541Y14596D01*
X42538Y14427D01*
X42569Y14261D01*
X42631Y14104D01*
X42722Y13963D01*
X42839Y13841D01*
X42978Y13745D01*
X43132Y13678D01*
X43240Y13654D01*
X43231Y13635D01*
X43220Y13581D01*
X43219Y13529D01*
X43170Y13519D01*
X43119Y13499D01*
X43073Y13469D01*
X43034Y13430D01*
X43003Y13385D01*
X42981Y13335D01*
X42970Y13281D01*
X42969Y13226D01*
X42979Y13172D01*
X42999Y13121D01*
X43029Y13075D01*
X43067Y13035D01*
X43112Y13004D01*
X43163Y12982D01*
X43216Y12970D01*
X43271Y12969D01*
X43325Y12979D01*
X43376Y12998D01*
X43423Y13028D01*
X43462Y13066D01*
X43494Y13111D01*
X43516Y13161D01*
X43529Y13214D01*
X43529Y13270D01*
X43575Y13279D01*
X43626Y13298D01*
X43673Y13328D01*
X43712Y13366D01*
X43744Y13411D01*
X43766Y13461D01*
X43771Y13482D01*
X43812Y13454D01*
X43863Y13432D01*
X43916Y13420D01*
X43971Y13419D01*
X44025Y13429D01*
X44076Y13448D01*
X44123Y13478D01*
X44162Y13516D01*
X44194Y13560D01*
X44217Y13535D01*
X44262Y13504D01*
X44313Y13482D01*
X44366Y13470D01*
X44370Y13470D01*
X44369Y13426D01*
X44379Y13372D01*
X44399Y13321D01*
X44429Y13275D01*
X44467Y13235D01*
X44512Y13204D01*
X44563Y13182D01*
X44616Y13170D01*
X44671Y13169D01*
X44725Y13179D01*
X44776Y13198D01*
X44823Y13228D01*
X44862Y13266D01*
X44894Y13311D01*
X44916Y13361D01*
X44929Y13414D01*
X44930Y13477D01*
X44930Y12530D01*
X42830Y12530D01*
X42830Y13577D01*
X42819Y13631D01*
X42798Y13682D01*
X42768Y13727D01*
X42729Y13766D01*
X42683Y13797D01*
X42633Y13818D01*
X42579Y13829D01*
X42524Y13830D01*
X42470Y13819D01*
X42468Y13819D01*
X42479Y13864D01*
X42480Y13927D01*
X42469Y13981D01*
X42448Y14032D01*
X42418Y14077D01*
X42379Y14116D01*
X42333Y14147D01*
X42283Y14168D01*
X42229Y14179D01*
X42174Y14180D01*
X42120Y14169D01*
X42080Y14153D01*
X42080Y15659D01*
X42069Y15713D01*
X42048Y15764D01*
X42018Y15810D01*
X41979Y15849D01*
X41933Y15879D01*
X41883Y15901D01*
X41829Y15912D01*
X41774Y15912D01*
X41720Y15902D01*
X41669Y15881D01*
X41623Y15851D01*
X41584Y15813D01*
X41553Y15768D01*
X41531Y15717D01*
X41520Y15663D01*
X41519Y15608D01*
X41529Y15554D01*
X41549Y15503D01*
X41579Y15457D01*
X41617Y15418D01*
X41662Y15386D01*
X41713Y15364D01*
X41766Y15353D01*
X41821Y15351D01*
X41875Y15361D01*
X41926Y15381D01*
X41973Y15410D01*
X42012Y15448D01*
X42044Y15493D01*
X42066Y15543D01*
X42079Y15597D01*
X42080Y15659D01*
X42080Y14153D01*
X42069Y14149D01*
X42023Y14119D01*
X41984Y14080D01*
X41953Y14035D01*
X41931Y13985D01*
X41920Y13931D01*
X41919Y13876D01*
X41929Y13822D01*
X41949Y13771D01*
X41979Y13725D01*
X42017Y13685D01*
X42062Y13654D01*
X42113Y13632D01*
X42166Y13620D01*
X42221Y13619D01*
X42275Y13629D01*
X42280Y13631D01*
X42270Y13581D01*
X42269Y13526D01*
X42279Y13472D01*
X42299Y13421D01*
X42329Y13375D01*
X42367Y13335D01*
X42412Y13304D01*
X42463Y13282D01*
X42516Y13270D01*
X42571Y13269D01*
X42625Y13279D01*
X42676Y13298D01*
X42723Y13328D01*
X42762Y13366D01*
X42794Y13411D01*
X42816Y13461D01*
X42829Y13514D01*
X42830Y13577D01*
X42830Y12530D01*
X42037Y12530D01*
X42005Y12497D01*
X42005Y13327D01*
X41994Y13381D01*
X41973Y13432D01*
X41943Y13477D01*
X41904Y13516D01*
X41858Y13547D01*
X41808Y13568D01*
X41754Y13579D01*
X41699Y13580D01*
X41645Y13569D01*
X41594Y13549D01*
X41548Y13519D01*
X41509Y13480D01*
X41478Y13435D01*
X41456Y13385D01*
X41445Y13331D01*
X41444Y13276D01*
X41454Y13222D01*
X41474Y13171D01*
X41494Y13140D01*
X41459Y13105D01*
X41430Y13062D01*
X41430Y15659D01*
X41419Y15713D01*
X41398Y15764D01*
X41368Y15810D01*
X41329Y15849D01*
X41283Y15879D01*
X41233Y15901D01*
X41179Y15912D01*
X41124Y15912D01*
X41070Y15902D01*
X41019Y15881D01*
X40973Y15851D01*
X40934Y15813D01*
X40903Y15768D01*
X40881Y15717D01*
X40870Y15663D01*
X40869Y15608D01*
X40879Y15554D01*
X40899Y15503D01*
X40929Y15457D01*
X40967Y15418D01*
X41012Y15386D01*
X41063Y15364D01*
X41116Y15353D01*
X41171Y15351D01*
X41225Y15361D01*
X41276Y15381D01*
X41323Y15410D01*
X41362Y15448D01*
X41394Y15493D01*
X41416Y15543D01*
X41429Y15597D01*
X41430Y15659D01*
X41430Y13062D01*
X41428Y13060D01*
X41406Y13010D01*
X41395Y12956D01*
X41394Y12901D01*
X41404Y12847D01*
X41424Y12796D01*
X41454Y12750D01*
X41492Y12710D01*
X41537Y12679D01*
X41588Y12657D01*
X41641Y12645D01*
X41696Y12644D01*
X41750Y12654D01*
X41801Y12673D01*
X41848Y12703D01*
X41887Y12741D01*
X41919Y12786D01*
X41941Y12836D01*
X41954Y12889D01*
X41955Y12952D01*
X41944Y13006D01*
X41923Y13057D01*
X41905Y13084D01*
X41937Y13116D01*
X41969Y13161D01*
X41991Y13211D01*
X42004Y13264D01*
X42005Y13327D01*
X42005Y12497D01*
X41962Y12455D01*
X41949Y12455D01*
X41895Y12444D01*
X41844Y12424D01*
X41798Y12394D01*
X41759Y12355D01*
X41728Y12310D01*
X41706Y12260D01*
X41695Y12206D01*
X41694Y12151D01*
X41704Y12097D01*
X41724Y12046D01*
X41754Y12000D01*
X41792Y11960D01*
X41820Y11941D01*
X41820Y11412D01*
X41637Y11230D01*
X41630Y11230D01*
X41630Y11994D01*
X41619Y12048D01*
X41598Y12099D01*
X41568Y12145D01*
X41529Y12184D01*
X41483Y12214D01*
X41433Y12236D01*
X41379Y12247D01*
X41324Y12247D01*
X41270Y12237D01*
X41219Y12216D01*
X41173Y12186D01*
X41134Y12148D01*
X41103Y12103D01*
X41081Y12052D01*
X41070Y11998D01*
X41069Y11943D01*
X41079Y11889D01*
X41099Y11838D01*
X41129Y11792D01*
X41167Y11753D01*
X41212Y11721D01*
X41263Y11699D01*
X41316Y11688D01*
X41371Y11686D01*
X41425Y11696D01*
X41476Y11716D01*
X41523Y11745D01*
X41562Y11783D01*
X41594Y11828D01*
X41616Y11878D01*
X41629Y11932D01*
X41630Y11994D01*
X41630Y11230D01*
X41062Y11230D01*
X40880Y11412D01*
X40880Y12312D01*
X40813Y12379D01*
X40813Y13102D01*
X40802Y13156D01*
X40781Y13207D01*
X40780Y13209D01*
X40780Y16194D01*
X40769Y16248D01*
X40748Y16299D01*
X40730Y16327D01*
X40730Y17427D01*
X40719Y17481D01*
X40698Y17532D01*
X40668Y17577D01*
X40629Y17616D01*
X40583Y17647D01*
X40533Y17668D01*
X40479Y17679D01*
X40424Y17680D01*
X40370Y17669D01*
X40319Y17649D01*
X40273Y17619D01*
X40234Y17580D01*
X40203Y17535D01*
X40181Y17485D01*
X40170Y17431D01*
X40169Y17376D01*
X40179Y17322D01*
X40199Y17271D01*
X40229Y17225D01*
X40267Y17185D01*
X40312Y17154D01*
X40363Y17132D01*
X40416Y17120D01*
X40471Y17119D01*
X40525Y17129D01*
X40576Y17148D01*
X40623Y17178D01*
X40662Y17216D01*
X40694Y17261D01*
X40716Y17311D01*
X40729Y17364D01*
X40730Y17427D01*
X40730Y16327D01*
X40718Y16345D01*
X40679Y16384D01*
X40633Y16414D01*
X40583Y16436D01*
X40529Y16447D01*
X40474Y16447D01*
X40420Y16437D01*
X40369Y16416D01*
X40323Y16386D01*
X40284Y16348D01*
X40253Y16303D01*
X40231Y16252D01*
X40220Y16198D01*
X40219Y16143D01*
X40229Y16089D01*
X40249Y16038D01*
X40279Y15992D01*
X40317Y15953D01*
X40362Y15921D01*
X40413Y15899D01*
X40466Y15888D01*
X40521Y15886D01*
X40575Y15896D01*
X40626Y15916D01*
X40673Y15945D01*
X40712Y15983D01*
X40744Y16028D01*
X40766Y16078D01*
X40779Y16132D01*
X40780Y16194D01*
X40780Y13209D01*
X40751Y13252D01*
X40712Y13291D01*
X40666Y13322D01*
X40616Y13343D01*
X40562Y13354D01*
X40530Y13355D01*
X40530Y14794D01*
X40519Y14848D01*
X40498Y14899D01*
X40468Y14945D01*
X40429Y14984D01*
X40383Y15014D01*
X40333Y15036D01*
X40279Y15047D01*
X40224Y15047D01*
X40170Y15037D01*
X40119Y15016D01*
X40073Y14986D01*
X40034Y14948D01*
X40030Y14941D01*
X40030Y15359D01*
X40019Y15413D01*
X39998Y15464D01*
X39968Y15510D01*
X39929Y15549D01*
X39883Y15579D01*
X39880Y15581D01*
X39880Y16627D01*
X39869Y16681D01*
X39848Y16732D01*
X39818Y16777D01*
X39779Y16816D01*
X39733Y16847D01*
X39683Y16868D01*
X39629Y16879D01*
X39574Y16880D01*
X39520Y16869D01*
X39469Y16849D01*
X39423Y16819D01*
X39399Y16796D01*
X39379Y16816D01*
X39333Y16847D01*
X39283Y16868D01*
X39229Y16879D01*
X39174Y16880D01*
X39129Y16871D01*
X39130Y16877D01*
X39119Y16931D01*
X39098Y16982D01*
X39068Y17027D01*
X39029Y17066D01*
X38983Y17097D01*
X38933Y17118D01*
X38879Y17129D01*
X38824Y17130D01*
X38770Y17119D01*
X38719Y17099D01*
X38673Y17069D01*
X38634Y17030D01*
X38603Y16985D01*
X38581Y16935D01*
X38570Y16881D01*
X38569Y16826D01*
X38579Y16772D01*
X38599Y16721D01*
X38629Y16675D01*
X38667Y16635D01*
X38712Y16604D01*
X38763Y16582D01*
X38816Y16570D01*
X38871Y16569D01*
X38919Y16577D01*
X38919Y16576D01*
X38929Y16522D01*
X38949Y16471D01*
X38979Y16425D01*
X39017Y16385D01*
X39062Y16354D01*
X39113Y16332D01*
X39166Y16320D01*
X39221Y16319D01*
X39275Y16329D01*
X39326Y16348D01*
X39373Y16378D01*
X39400Y16403D01*
X39417Y16385D01*
X39462Y16354D01*
X39513Y16332D01*
X39566Y16320D01*
X39621Y16319D01*
X39675Y16329D01*
X39726Y16348D01*
X39773Y16378D01*
X39812Y16416D01*
X39844Y16461D01*
X39866Y16511D01*
X39879Y16564D01*
X39880Y16627D01*
X39880Y15581D01*
X39833Y15601D01*
X39779Y15612D01*
X39724Y15612D01*
X39670Y15602D01*
X39619Y15581D01*
X39573Y15551D01*
X39534Y15513D01*
X39503Y15468D01*
X39481Y15417D01*
X39470Y15363D01*
X39469Y15308D01*
X39479Y15254D01*
X39499Y15203D01*
X39529Y15157D01*
X39567Y15118D01*
X39612Y15086D01*
X39663Y15064D01*
X39716Y15053D01*
X39771Y15051D01*
X39825Y15061D01*
X39876Y15081D01*
X39923Y15110D01*
X39962Y15148D01*
X39994Y15193D01*
X40016Y15243D01*
X40029Y15297D01*
X40030Y15359D01*
X40030Y14941D01*
X40003Y14903D01*
X39981Y14852D01*
X39970Y14798D01*
X39969Y14743D01*
X39979Y14689D01*
X39999Y14638D01*
X40029Y14592D01*
X40067Y14553D01*
X40112Y14521D01*
X40163Y14499D01*
X40216Y14488D01*
X40271Y14486D01*
X40325Y14496D01*
X40376Y14516D01*
X40423Y14545D01*
X40462Y14583D01*
X40494Y14628D01*
X40516Y14678D01*
X40529Y14732D01*
X40530Y14794D01*
X40530Y13355D01*
X40507Y13355D01*
X40453Y13344D01*
X40402Y13324D01*
X40356Y13294D01*
X40317Y13255D01*
X40286Y13210D01*
X40264Y13160D01*
X40253Y13106D01*
X40252Y13051D01*
X40262Y12997D01*
X40282Y12946D01*
X40312Y12900D01*
X40350Y12860D01*
X40395Y12829D01*
X40446Y12807D01*
X40499Y12795D01*
X40554Y12794D01*
X40608Y12804D01*
X40659Y12823D01*
X40706Y12853D01*
X40745Y12891D01*
X40777Y12936D01*
X40799Y12986D01*
X40812Y13039D01*
X40813Y13102D01*
X40813Y12379D01*
X40662Y12530D01*
X39889Y12530D01*
X39911Y12561D01*
X39933Y12611D01*
X39946Y12664D01*
X39947Y12727D01*
X39936Y12781D01*
X39915Y12832D01*
X39885Y12877D01*
X39846Y12916D01*
X39800Y12947D01*
X39750Y12968D01*
X39696Y12979D01*
X39641Y12980D01*
X39587Y12969D01*
X39536Y12949D01*
X39490Y12919D01*
X39451Y12880D01*
X39420Y12835D01*
X39412Y12817D01*
X39412Y13727D01*
X39401Y13781D01*
X39380Y13832D01*
X39350Y13877D01*
X39330Y13898D01*
X39330Y15359D01*
X39319Y15413D01*
X39298Y15464D01*
X39268Y15510D01*
X39229Y15549D01*
X39183Y15579D01*
X39133Y15601D01*
X39079Y15612D01*
X39024Y15612D01*
X38970Y15602D01*
X38919Y15581D01*
X38873Y15551D01*
X38834Y15513D01*
X38803Y15468D01*
X38781Y15417D01*
X38770Y15363D01*
X38769Y15308D01*
X38779Y15254D01*
X38799Y15203D01*
X38829Y15157D01*
X38867Y15118D01*
X38912Y15086D01*
X38963Y15064D01*
X39016Y15053D01*
X39071Y15051D01*
X39125Y15061D01*
X39176Y15081D01*
X39223Y15110D01*
X39262Y15148D01*
X39294Y15193D01*
X39316Y15243D01*
X39329Y15297D01*
X39330Y15359D01*
X39330Y13898D01*
X39311Y13916D01*
X39266Y13947D01*
X39215Y13968D01*
X39161Y13979D01*
X39107Y13980D01*
X39053Y13969D01*
X39002Y13949D01*
X38956Y13919D01*
X38916Y13880D01*
X38885Y13835D01*
X38864Y13785D01*
X38852Y13731D01*
X38852Y13676D01*
X38862Y13622D01*
X38882Y13571D01*
X38912Y13525D01*
X38950Y13485D01*
X38995Y13454D01*
X39045Y13432D01*
X39099Y13420D01*
X39154Y13419D01*
X39208Y13429D01*
X39259Y13448D01*
X39305Y13478D01*
X39345Y13516D01*
X39377Y13561D01*
X39399Y13611D01*
X39411Y13664D01*
X39412Y13727D01*
X39412Y12817D01*
X39398Y12785D01*
X39387Y12731D01*
X39386Y12676D01*
X39396Y12622D01*
X39416Y12571D01*
X39443Y12530D01*
X38830Y12530D01*
X38830Y14794D01*
X38819Y14848D01*
X38798Y14899D01*
X38768Y14945D01*
X38729Y14984D01*
X38683Y15014D01*
X38633Y15036D01*
X38579Y15047D01*
X38524Y15047D01*
X38470Y15037D01*
X38419Y15016D01*
X38373Y14986D01*
X38334Y14948D01*
X38303Y14903D01*
X38281Y14852D01*
X38270Y14798D01*
X38269Y14743D01*
X38279Y14689D01*
X38299Y14638D01*
X38329Y14592D01*
X38367Y14553D01*
X38412Y14521D01*
X38463Y14499D01*
X38516Y14488D01*
X38571Y14486D01*
X38625Y14496D01*
X38676Y14516D01*
X38723Y14545D01*
X38762Y14583D01*
X38794Y14628D01*
X38816Y14678D01*
X38829Y14732D01*
X38830Y14794D01*
X38830Y12530D01*
X38205Y12530D01*
X38205Y17489D01*
X38189Y17567D01*
X38159Y17641D01*
X38115Y17707D01*
X38059Y17763D01*
X37993Y17807D01*
X37920Y17838D01*
X37842Y17854D01*
X37763Y17855D01*
X37685Y17840D01*
X37611Y17810D01*
X37544Y17767D01*
X37488Y17711D01*
X37443Y17646D01*
X37412Y17573D01*
X37395Y17495D01*
X37394Y17415D01*
X37408Y17337D01*
X37438Y17263D01*
X37481Y17197D01*
X37536Y17140D01*
X37601Y17094D01*
X37674Y17062D01*
X37751Y17045D01*
X37831Y17044D01*
X37909Y17058D01*
X37983Y17086D01*
X38050Y17129D01*
X38108Y17184D01*
X38153Y17248D01*
X38186Y17321D01*
X38203Y17398D01*
X38205Y17489D01*
X38205Y12530D01*
X37205Y12530D01*
X37205Y17489D01*
X37189Y17567D01*
X37159Y17641D01*
X37115Y17707D01*
X37059Y17763D01*
X36993Y17807D01*
X36920Y17838D01*
X36842Y17854D01*
X36763Y17855D01*
X36685Y17840D01*
X36611Y17810D01*
X36544Y17767D01*
X36488Y17711D01*
X36443Y17646D01*
X36412Y17573D01*
X36395Y17495D01*
X36394Y17415D01*
X36408Y17337D01*
X36438Y17263D01*
X36481Y17197D01*
X36536Y17140D01*
X36601Y17094D01*
X36674Y17062D01*
X36751Y17045D01*
X36831Y17044D01*
X36909Y17058D01*
X36983Y17086D01*
X37050Y17129D01*
X37108Y17184D01*
X37153Y17248D01*
X37186Y17321D01*
X37203Y17398D01*
X37205Y17489D01*
X37205Y12530D01*
X37055Y12530D01*
X37055Y13627D01*
X37044Y13681D01*
X37023Y13732D01*
X36993Y13777D01*
X36954Y13816D01*
X36908Y13847D01*
X36858Y13868D01*
X36804Y13879D01*
X36749Y13880D01*
X36730Y13876D01*
X36730Y14827D01*
X36719Y14881D01*
X36698Y14932D01*
X36668Y14977D01*
X36629Y15016D01*
X36583Y15047D01*
X36533Y15068D01*
X36479Y15079D01*
X36424Y15080D01*
X36370Y15069D01*
X36319Y15049D01*
X36273Y15019D01*
X36234Y14980D01*
X36205Y14937D01*
X36205Y17489D01*
X36189Y17567D01*
X36159Y17641D01*
X36115Y17707D01*
X36059Y17763D01*
X35993Y17807D01*
X35920Y17838D01*
X35842Y17854D01*
X35763Y17855D01*
X35685Y17840D01*
X35611Y17810D01*
X35544Y17767D01*
X35488Y17711D01*
X35443Y17646D01*
X35412Y17573D01*
X35395Y17495D01*
X35394Y17415D01*
X35408Y17337D01*
X35438Y17263D01*
X35481Y17197D01*
X35536Y17140D01*
X35601Y17094D01*
X35674Y17062D01*
X35751Y17045D01*
X35831Y17044D01*
X35909Y17058D01*
X35983Y17086D01*
X36050Y17129D01*
X36108Y17184D01*
X36153Y17248D01*
X36186Y17321D01*
X36203Y17398D01*
X36205Y17489D01*
X36205Y14937D01*
X36203Y14935D01*
X36181Y14885D01*
X36170Y14831D01*
X36169Y14776D01*
X36179Y14722D01*
X36199Y14671D01*
X36229Y14625D01*
X36267Y14585D01*
X36312Y14554D01*
X36363Y14532D01*
X36416Y14520D01*
X36471Y14519D01*
X36525Y14529D01*
X36576Y14548D01*
X36623Y14578D01*
X36662Y14616D01*
X36694Y14661D01*
X36716Y14711D01*
X36729Y14764D01*
X36730Y14827D01*
X36730Y13876D01*
X36695Y13869D01*
X36644Y13849D01*
X36598Y13819D01*
X36559Y13780D01*
X36528Y13735D01*
X36506Y13685D01*
X36495Y13631D01*
X36494Y13576D01*
X36504Y13522D01*
X36524Y13471D01*
X36554Y13425D01*
X36592Y13385D01*
X36637Y13354D01*
X36688Y13332D01*
X36741Y13320D01*
X36796Y13319D01*
X36850Y13329D01*
X36901Y13348D01*
X36948Y13378D01*
X36987Y13416D01*
X37019Y13461D01*
X37041Y13511D01*
X37054Y13564D01*
X37055Y13627D01*
X37055Y12530D01*
X36230Y12530D01*
X36230Y14327D01*
X36219Y14381D01*
X36198Y14432D01*
X36168Y14477D01*
X36129Y14516D01*
X36083Y14547D01*
X36033Y14568D01*
X35979Y14579D01*
X35924Y14580D01*
X35870Y14569D01*
X35819Y14549D01*
X35773Y14519D01*
X35734Y14480D01*
X35703Y14435D01*
X35681Y14385D01*
X35670Y14331D01*
X35669Y14276D01*
X35679Y14222D01*
X35699Y14171D01*
X35729Y14125D01*
X35767Y14085D01*
X35812Y14054D01*
X35863Y14032D01*
X35916Y14020D01*
X35971Y14019D01*
X36025Y14029D01*
X36076Y14048D01*
X36123Y14078D01*
X36162Y14116D01*
X36194Y14161D01*
X36216Y14211D01*
X36229Y14264D01*
X36230Y14327D01*
X36230Y12530D01*
X35205Y12530D01*
X35205Y17489D01*
X35189Y17567D01*
X35159Y17641D01*
X35115Y17707D01*
X35059Y17763D01*
X34993Y17807D01*
X34920Y17838D01*
X34842Y17854D01*
X34763Y17855D01*
X34685Y17840D01*
X34611Y17810D01*
X34544Y17767D01*
X34488Y17711D01*
X34443Y17646D01*
X34412Y17573D01*
X34395Y17495D01*
X34394Y17415D01*
X34408Y17337D01*
X34438Y17263D01*
X34481Y17197D01*
X34536Y17140D01*
X34601Y17094D01*
X34674Y17062D01*
X34751Y17045D01*
X34831Y17044D01*
X34909Y17058D01*
X34983Y17086D01*
X35050Y17129D01*
X35108Y17184D01*
X35153Y17248D01*
X35186Y17321D01*
X35203Y17398D01*
X35205Y17489D01*
X35205Y12530D01*
X34205Y12530D01*
X34205Y17489D01*
X34189Y17567D01*
X34159Y17641D01*
X34115Y17707D01*
X34059Y17763D01*
X33993Y17807D01*
X33920Y17838D01*
X33842Y17854D01*
X33763Y17855D01*
X33685Y17840D01*
X33611Y17810D01*
X33544Y17767D01*
X33488Y17711D01*
X33443Y17646D01*
X33412Y17573D01*
X33395Y17495D01*
X33394Y17415D01*
X33408Y17337D01*
X33438Y17263D01*
X33481Y17197D01*
X33536Y17140D01*
X33601Y17094D01*
X33674Y17062D01*
X33751Y17045D01*
X33831Y17044D01*
X33909Y17058D01*
X33983Y17086D01*
X34050Y17129D01*
X34108Y17184D01*
X34153Y17248D01*
X34186Y17321D01*
X34203Y17398D01*
X34205Y17489D01*
X34205Y12530D01*
X33675Y12530D01*
X33675Y12927D01*
X33664Y12981D01*
X33643Y13032D01*
X33613Y13077D01*
X33574Y13116D01*
X33529Y13147D01*
X33478Y13168D01*
X33424Y13179D01*
X33369Y13180D01*
X33315Y13169D01*
X33264Y13149D01*
X33218Y13119D01*
X33205Y13105D01*
X33205Y17489D01*
X33189Y17567D01*
X33159Y17641D01*
X33115Y17707D01*
X33059Y17763D01*
X32993Y17807D01*
X32920Y17838D01*
X32842Y17854D01*
X32763Y17855D01*
X32685Y17840D01*
X32611Y17810D01*
X32544Y17767D01*
X32488Y17711D01*
X32443Y17646D01*
X32412Y17573D01*
X32395Y17495D01*
X32394Y17415D01*
X32408Y17337D01*
X32438Y17263D01*
X32481Y17197D01*
X32536Y17140D01*
X32601Y17094D01*
X32674Y17062D01*
X32751Y17045D01*
X32831Y17044D01*
X32909Y17058D01*
X32983Y17086D01*
X33050Y17129D01*
X33108Y17184D01*
X33153Y17248D01*
X33186Y17321D01*
X33203Y17398D01*
X33205Y17489D01*
X33205Y13105D01*
X33179Y13080D01*
X33148Y13035D01*
X33127Y12985D01*
X33115Y12931D01*
X33114Y12876D01*
X33124Y12822D01*
X33145Y12771D01*
X33174Y12725D01*
X33212Y12685D01*
X33258Y12654D01*
X33308Y12632D01*
X33361Y12620D01*
X33416Y12619D01*
X33470Y12629D01*
X33522Y12648D01*
X33568Y12678D01*
X33608Y12716D01*
X33639Y12761D01*
X33662Y12811D01*
X33674Y12864D01*
X33675Y12927D01*
X33675Y12530D01*
X32830Y12530D01*
X32830Y14777D01*
X32819Y14831D01*
X32798Y14882D01*
X32768Y14927D01*
X32729Y14966D01*
X32683Y14997D01*
X32633Y15018D01*
X32579Y15029D01*
X32524Y15030D01*
X32470Y15019D01*
X32419Y14999D01*
X32373Y14969D01*
X32334Y14930D01*
X32303Y14885D01*
X32281Y14835D01*
X32270Y14781D01*
X32269Y14726D01*
X32279Y14672D01*
X32299Y14621D01*
X32329Y14575D01*
X32367Y14535D01*
X32412Y14504D01*
X32463Y14482D01*
X32516Y14470D01*
X32571Y14469D01*
X32625Y14479D01*
X32676Y14498D01*
X32723Y14528D01*
X32762Y14566D01*
X32794Y14611D01*
X32816Y14661D01*
X32829Y14714D01*
X32830Y14777D01*
X32830Y12530D01*
X32555Y12530D01*
X32555Y12852D01*
X32544Y12906D01*
X32523Y12957D01*
X32493Y13002D01*
X32454Y13041D01*
X32408Y13072D01*
X32358Y13093D01*
X32312Y13103D01*
X32312Y13727D01*
X32301Y13781D01*
X32280Y13832D01*
X32250Y13877D01*
X32211Y13916D01*
X32205Y13921D01*
X32205Y17186D01*
X32205Y17737D01*
X32200Y17762D01*
X32190Y17786D01*
X32176Y17807D01*
X32158Y17825D01*
X32137Y17839D01*
X32113Y17849D01*
X32088Y17854D01*
X32063Y17855D01*
X31512Y17855D01*
X31487Y17850D01*
X31463Y17840D01*
X31442Y17826D01*
X31424Y17808D01*
X31410Y17787D01*
X31400Y17763D01*
X31395Y17738D01*
X31394Y17713D01*
X31394Y17162D01*
X31399Y17137D01*
X31409Y17113D01*
X31423Y17092D01*
X31441Y17074D01*
X31462Y17060D01*
X31486Y17050D01*
X31511Y17045D01*
X31536Y17044D01*
X32087Y17044D01*
X32112Y17049D01*
X32136Y17059D01*
X32157Y17073D01*
X32175Y17091D01*
X32189Y17112D01*
X32199Y17136D01*
X32204Y17161D01*
X32205Y17186D01*
X32205Y13921D01*
X32166Y13947D01*
X32115Y13968D01*
X32061Y13979D01*
X32007Y13980D01*
X31953Y13969D01*
X31902Y13949D01*
X31856Y13919D01*
X31816Y13880D01*
X31785Y13835D01*
X31764Y13785D01*
X31752Y13731D01*
X31752Y13676D01*
X31762Y13622D01*
X31782Y13571D01*
X31812Y13525D01*
X31850Y13485D01*
X31895Y13454D01*
X31945Y13432D01*
X31999Y13420D01*
X32054Y13419D01*
X32108Y13429D01*
X32159Y13448D01*
X32205Y13478D01*
X32245Y13516D01*
X32277Y13561D01*
X32299Y13611D01*
X32311Y13664D01*
X32312Y13727D01*
X32312Y13103D01*
X32304Y13104D01*
X32249Y13105D01*
X32195Y13094D01*
X32144Y13074D01*
X32098Y13044D01*
X32059Y13005D01*
X32028Y12960D01*
X32006Y12910D01*
X31995Y12856D01*
X31994Y12801D01*
X32004Y12747D01*
X32024Y12696D01*
X32054Y12650D01*
X32092Y12610D01*
X32137Y12579D01*
X32188Y12557D01*
X32241Y12545D01*
X32296Y12544D01*
X32350Y12554D01*
X32401Y12573D01*
X32448Y12603D01*
X32487Y12641D01*
X32519Y12686D01*
X32541Y12736D01*
X32554Y12789D01*
X32555Y12852D01*
X32555Y12530D01*
X31054Y12530D01*
X31055Y12560D01*
X31044Y12614D01*
X31023Y12665D01*
X30993Y12710D01*
X30954Y12749D01*
X30908Y12780D01*
X30874Y12794D01*
X30925Y12804D01*
X30976Y12823D01*
X31023Y12853D01*
X31050Y12878D01*
X31067Y12860D01*
X31112Y12829D01*
X31163Y12807D01*
X31216Y12795D01*
X31271Y12794D01*
X31325Y12804D01*
X31376Y12823D01*
X31423Y12853D01*
X31462Y12891D01*
X31494Y12936D01*
X31500Y12948D01*
X31538Y12932D01*
X31591Y12920D01*
X31646Y12919D01*
X31700Y12929D01*
X31751Y12948D01*
X31798Y12978D01*
X31837Y13016D01*
X31869Y13061D01*
X31891Y13111D01*
X31904Y13164D01*
X31905Y13227D01*
X31894Y13281D01*
X31873Y13332D01*
X31843Y13377D01*
X31804Y13416D01*
X31758Y13447D01*
X31708Y13468D01*
X31654Y13479D01*
X31599Y13480D01*
X31545Y13469D01*
X31494Y13449D01*
X31448Y13419D01*
X31409Y13380D01*
X31378Y13335D01*
X31374Y13326D01*
X31333Y13343D01*
X31279Y13354D01*
X31224Y13355D01*
X31170Y13344D01*
X31119Y13324D01*
X31073Y13294D01*
X31049Y13271D01*
X31029Y13291D01*
X30983Y13322D01*
X30933Y13343D01*
X30879Y13354D01*
X30824Y13355D01*
X30780Y13346D01*
X30780Y16077D01*
X30769Y16131D01*
X30748Y16182D01*
X30718Y16227D01*
X30679Y16266D01*
X30633Y16297D01*
X30583Y16318D01*
X30529Y16329D01*
X30474Y16330D01*
X30420Y16319D01*
X30369Y16299D01*
X30323Y16269D01*
X30284Y16230D01*
X30253Y16185D01*
X30231Y16135D01*
X30220Y16081D01*
X30219Y16026D01*
X30229Y15972D01*
X30249Y15921D01*
X30279Y15875D01*
X30317Y15835D01*
X30362Y15804D01*
X30413Y15782D01*
X30466Y15770D01*
X30521Y15769D01*
X30575Y15779D01*
X30626Y15798D01*
X30673Y15828D01*
X30712Y15866D01*
X30744Y15911D01*
X30766Y15961D01*
X30779Y16014D01*
X30780Y16077D01*
X30780Y13346D01*
X30770Y13344D01*
X30719Y13324D01*
X30673Y13294D01*
X30634Y13255D01*
X30603Y13210D01*
X30581Y13160D01*
X30570Y13106D01*
X30569Y13051D01*
X30579Y12997D01*
X30599Y12946D01*
X30629Y12900D01*
X30667Y12860D01*
X30712Y12829D01*
X30749Y12813D01*
X30749Y12813D01*
X30695Y12802D01*
X30644Y12782D01*
X30598Y12752D01*
X30559Y12713D01*
X30528Y12668D01*
X30506Y12618D01*
X30495Y12564D01*
X30494Y12530D01*
X29212Y12530D01*
X29212Y16077D01*
X29201Y16131D01*
X29180Y16182D01*
X29150Y16227D01*
X29111Y16266D01*
X29066Y16297D01*
X29015Y16318D01*
X28961Y16329D01*
X28907Y16330D01*
X28853Y16319D01*
X28802Y16299D01*
X28756Y16269D01*
X28716Y16230D01*
X28685Y16185D01*
X28664Y16135D01*
X28652Y16081D01*
X28652Y16026D01*
X28662Y15972D01*
X28682Y15921D01*
X28712Y15875D01*
X28750Y15835D01*
X28795Y15804D01*
X28845Y15782D01*
X28899Y15770D01*
X28954Y15769D01*
X29008Y15779D01*
X29059Y15798D01*
X29105Y15828D01*
X29145Y15866D01*
X29177Y15911D01*
X29199Y15961D01*
X29211Y16014D01*
X29212Y16077D01*
X29212Y12530D01*
X29030Y12530D01*
X29030Y14909D01*
X29019Y14963D01*
X28998Y15014D01*
X28968Y15060D01*
X28929Y15099D01*
X28883Y15129D01*
X28833Y15151D01*
X28779Y15162D01*
X28724Y15162D01*
X28670Y15152D01*
X28619Y15131D01*
X28573Y15101D01*
X28534Y15063D01*
X28503Y15018D01*
X28481Y14967D01*
X28470Y14913D01*
X28469Y14858D01*
X28479Y14804D01*
X28499Y14753D01*
X28529Y14707D01*
X28567Y14668D01*
X28612Y14636D01*
X28663Y14614D01*
X28716Y14603D01*
X28771Y14601D01*
X28825Y14611D01*
X28876Y14631D01*
X28923Y14660D01*
X28962Y14698D01*
X28994Y14743D01*
X29016Y14793D01*
X29029Y14847D01*
X29030Y14909D01*
X29030Y12530D01*
X28251Y12530D01*
X28251Y14578D01*
X28242Y14627D01*
X28223Y14673D01*
X28195Y14715D01*
X28160Y14750D01*
X28190Y14779D01*
X28219Y14820D01*
X28239Y14865D01*
X28251Y14914D01*
X28251Y14971D01*
X28242Y15020D01*
X28223Y15067D01*
X28195Y15108D01*
X28160Y15144D01*
X28118Y15172D01*
X28072Y15191D01*
X28023Y15201D01*
X27973Y15202D01*
X27924Y15192D01*
X27878Y15173D01*
X27836Y15146D01*
X27830Y15140D01*
X27830Y17827D01*
X27819Y17881D01*
X27798Y17932D01*
X27768Y17977D01*
X27729Y18016D01*
X27683Y18047D01*
X27633Y18068D01*
X27579Y18079D01*
X27524Y18080D01*
X27470Y18069D01*
X27419Y18049D01*
X27373Y18019D01*
X27334Y17980D01*
X27303Y17935D01*
X27281Y17885D01*
X27270Y17831D01*
X27269Y17776D01*
X27279Y17722D01*
X27299Y17671D01*
X27329Y17625D01*
X27367Y17585D01*
X27412Y17554D01*
X27463Y17532D01*
X27516Y17520D01*
X27571Y17519D01*
X27625Y17529D01*
X27676Y17548D01*
X27723Y17578D01*
X27762Y17616D01*
X27794Y17661D01*
X27816Y17711D01*
X27829Y17764D01*
X27830Y17827D01*
X27830Y15140D01*
X27800Y15111D01*
X27799Y15110D01*
X27766Y15144D01*
X27725Y15172D01*
X27678Y15191D01*
X27629Y15201D01*
X27579Y15202D01*
X27530Y15192D01*
X27484Y15173D01*
X27442Y15146D01*
X27406Y15111D01*
X27378Y15070D01*
X27358Y15024D01*
X27348Y14975D01*
X27347Y14925D01*
X27356Y14876D01*
X27375Y14829D01*
X27402Y14787D01*
X27437Y14751D01*
X27439Y14749D01*
X27406Y14717D01*
X27378Y14676D01*
X27358Y14630D01*
X27348Y14581D01*
X27347Y14531D01*
X27356Y14482D01*
X27375Y14436D01*
X27402Y14393D01*
X27437Y14358D01*
X27478Y14329D01*
X27523Y14309D01*
X27572Y14298D01*
X27622Y14297D01*
X27672Y14306D01*
X27718Y14324D01*
X27760Y14351D01*
X27797Y14385D01*
X27800Y14389D01*
X27830Y14358D01*
X27871Y14329D01*
X27917Y14309D01*
X27966Y14298D01*
X28016Y14297D01*
X28065Y14306D01*
X28112Y14324D01*
X28154Y14351D01*
X28190Y14385D01*
X28219Y14426D01*
X28239Y14472D01*
X28251Y14521D01*
X28251Y14578D01*
X28251Y12530D01*
X26347Y12530D01*
X26347Y16777D01*
X26336Y16831D01*
X26315Y16882D01*
X26285Y16927D01*
X26246Y16966D01*
X26201Y16997D01*
X26150Y17018D01*
X26096Y17029D01*
X26080Y17029D01*
X26080Y17977D01*
X26069Y18031D01*
X26048Y18082D01*
X26018Y18127D01*
X25979Y18166D01*
X25933Y18197D01*
X25883Y18218D01*
X25829Y18229D01*
X25774Y18230D01*
X25720Y18219D01*
X25669Y18199D01*
X25646Y18184D01*
X25618Y18227D01*
X25579Y18266D01*
X25533Y18297D01*
X25483Y18318D01*
X25429Y18329D01*
X25374Y18330D01*
X25320Y18319D01*
X25269Y18299D01*
X25223Y18269D01*
X25184Y18230D01*
X25153Y18185D01*
X25131Y18135D01*
X25120Y18081D01*
X25119Y18026D01*
X25129Y17972D01*
X25149Y17921D01*
X25179Y17875D01*
X25217Y17835D01*
X25262Y17804D01*
X25313Y17782D01*
X25366Y17770D01*
X25421Y17769D01*
X25475Y17779D01*
X25526Y17798D01*
X25553Y17815D01*
X25579Y17775D01*
X25617Y17735D01*
X25662Y17704D01*
X25713Y17682D01*
X25766Y17670D01*
X25821Y17669D01*
X25875Y17679D01*
X25926Y17698D01*
X25973Y17728D01*
X26012Y17766D01*
X26044Y17811D01*
X26066Y17861D01*
X26079Y17914D01*
X26080Y17977D01*
X26080Y17029D01*
X26042Y17030D01*
X25988Y17019D01*
X25937Y16999D01*
X25891Y16969D01*
X25851Y16930D01*
X25820Y16885D01*
X25812Y16865D01*
X25812Y17427D01*
X25801Y17481D01*
X25780Y17532D01*
X25750Y17577D01*
X25711Y17616D01*
X25666Y17647D01*
X25615Y17668D01*
X25561Y17679D01*
X25507Y17680D01*
X25453Y17669D01*
X25402Y17649D01*
X25356Y17619D01*
X25316Y17580D01*
X25285Y17535D01*
X25264Y17485D01*
X25252Y17431D01*
X25252Y17376D01*
X25262Y17322D01*
X25282Y17271D01*
X25312Y17225D01*
X25350Y17185D01*
X25395Y17154D01*
X25445Y17132D01*
X25499Y17120D01*
X25554Y17119D01*
X25608Y17129D01*
X25659Y17148D01*
X25705Y17178D01*
X25745Y17216D01*
X25777Y17261D01*
X25799Y17311D01*
X25811Y17364D01*
X25812Y17427D01*
X25812Y16865D01*
X25799Y16836D01*
X25780Y16882D01*
X25750Y16927D01*
X25711Y16966D01*
X25666Y16997D01*
X25615Y17018D01*
X25561Y17029D01*
X25507Y17030D01*
X25453Y17019D01*
X25402Y16999D01*
X25356Y16969D01*
X25316Y16930D01*
X25285Y16885D01*
X25264Y16835D01*
X25252Y16781D01*
X25252Y16726D01*
X25262Y16672D01*
X25282Y16621D01*
X25312Y16575D01*
X25350Y16535D01*
X25395Y16504D01*
X25445Y16482D01*
X25499Y16470D01*
X25554Y16469D01*
X25608Y16479D01*
X25659Y16498D01*
X25705Y16528D01*
X25745Y16566D01*
X25777Y16611D01*
X25799Y16661D01*
X25800Y16664D01*
X25817Y16621D01*
X25847Y16575D01*
X25885Y16535D01*
X25930Y16504D01*
X25980Y16482D01*
X26034Y16470D01*
X26089Y16469D01*
X26143Y16479D01*
X26194Y16498D01*
X26240Y16528D01*
X26280Y16566D01*
X26312Y16611D01*
X26334Y16661D01*
X26346Y16714D01*
X26347Y16777D01*
X26347Y12530D01*
X24941Y12530D01*
X24969Y12570D01*
X24989Y12615D01*
X25001Y12664D01*
X25001Y12721D01*
X24992Y12770D01*
X24973Y12817D01*
X24945Y12858D01*
X24910Y12894D01*
X24868Y12922D01*
X24822Y12941D01*
X24802Y12945D01*
X24802Y16319D01*
X24793Y16367D01*
X24774Y16412D01*
X24747Y16453D01*
X24728Y16472D01*
X24743Y16487D01*
X24771Y16526D01*
X24790Y16571D01*
X24801Y16618D01*
X24802Y16674D01*
X24793Y16722D01*
X24774Y16767D01*
X24747Y16807D01*
X24728Y16827D01*
X24743Y16841D01*
X24771Y16881D01*
X24790Y16925D01*
X24801Y16973D01*
X24802Y17028D01*
X24793Y17076D01*
X24774Y17121D01*
X24747Y17161D01*
X24713Y17196D01*
X24672Y17223D01*
X24628Y17242D01*
X24580Y17252D01*
X24531Y17252D01*
X24483Y17243D01*
X24438Y17225D01*
X24398Y17198D01*
X24377Y17178D01*
X24358Y17196D01*
X24318Y17223D01*
X24273Y17242D01*
X24226Y17252D01*
X24177Y17252D01*
X24129Y17243D01*
X24084Y17225D01*
X24043Y17198D01*
X24022Y17178D01*
X24004Y17196D01*
X23964Y17223D01*
X23919Y17242D01*
X23871Y17252D01*
X23823Y17252D01*
X23775Y17243D01*
X23730Y17225D01*
X23689Y17198D01*
X23674Y17184D01*
X23674Y17802D01*
X23664Y17856D01*
X23643Y17907D01*
X23612Y17952D01*
X23574Y17991D01*
X23528Y18022D01*
X23478Y18043D01*
X23424Y18054D01*
X23369Y18055D01*
X23315Y18044D01*
X23264Y18024D01*
X23218Y17994D01*
X23179Y17955D01*
X23148Y17910D01*
X23126Y17860D01*
X23115Y17806D01*
X23114Y17751D01*
X23124Y17697D01*
X23144Y17646D01*
X23174Y17600D01*
X23212Y17560D01*
X23257Y17529D01*
X23307Y17507D01*
X23361Y17495D01*
X23416Y17494D01*
X23470Y17504D01*
X23521Y17523D01*
X23568Y17553D01*
X23607Y17591D01*
X23639Y17636D01*
X23661Y17686D01*
X23674Y17739D01*
X23674Y17802D01*
X23674Y17184D01*
X23654Y17164D01*
X23627Y17124D01*
X23608Y17079D01*
X23597Y17032D01*
X23597Y16983D01*
X23606Y16935D01*
X23623Y16890D01*
X23650Y16849D01*
X23671Y16827D01*
X23654Y16810D01*
X23627Y16770D01*
X23608Y16725D01*
X23597Y16677D01*
X23597Y16629D01*
X23606Y16581D01*
X23623Y16536D01*
X23650Y16495D01*
X23671Y16472D01*
X23654Y16455D01*
X23627Y16415D01*
X23608Y16371D01*
X23597Y16323D01*
X23597Y16274D01*
X23606Y16226D01*
X23623Y16181D01*
X23650Y16140D01*
X23684Y16105D01*
X23724Y16078D01*
X23768Y16058D01*
X23816Y16048D01*
X23864Y16047D01*
X23912Y16055D01*
X23958Y16073D01*
X23999Y16099D01*
X24022Y16121D01*
X24038Y16105D01*
X24078Y16078D01*
X24122Y16058D01*
X24170Y16048D01*
X24219Y16047D01*
X24267Y16055D01*
X24312Y16073D01*
X24353Y16099D01*
X24377Y16121D01*
X24392Y16105D01*
X24432Y16078D01*
X24477Y16058D01*
X24524Y16048D01*
X24573Y16047D01*
X24621Y16055D01*
X24666Y16073D01*
X24707Y16099D01*
X24743Y16132D01*
X24771Y16172D01*
X24790Y16216D01*
X24801Y16264D01*
X24802Y16319D01*
X24802Y12945D01*
X24773Y12951D01*
X24723Y12952D01*
X24674Y12942D01*
X24628Y12923D01*
X24586Y12896D01*
X24550Y12861D01*
X24549Y12860D01*
X24516Y12894D01*
X24475Y12922D01*
X24428Y12941D01*
X24379Y12951D01*
X24329Y12952D01*
X24280Y12942D01*
X24234Y12923D01*
X24192Y12896D01*
X24156Y12861D01*
X24128Y12820D01*
X24108Y12774D01*
X24098Y12725D01*
X24097Y12675D01*
X24106Y12626D01*
X24125Y12579D01*
X24152Y12537D01*
X24159Y12530D01*
X23680Y12530D01*
X23680Y15577D01*
X23669Y15631D01*
X23648Y15682D01*
X23618Y15727D01*
X23579Y15766D01*
X23533Y15797D01*
X23483Y15818D01*
X23429Y15829D01*
X23374Y15830D01*
X23369Y15829D01*
X23369Y15831D01*
X23348Y15882D01*
X23318Y15927D01*
X23279Y15966D01*
X23233Y15997D01*
X23183Y16018D01*
X23129Y16029D01*
X23074Y16030D01*
X23020Y16019D01*
X22969Y15999D01*
X22947Y15984D01*
X22947Y17277D01*
X22936Y17331D01*
X22915Y17382D01*
X22885Y17427D01*
X22846Y17466D01*
X22801Y17497D01*
X22750Y17518D01*
X22696Y17529D01*
X22642Y17530D01*
X22588Y17519D01*
X22537Y17499D01*
X22491Y17469D01*
X22451Y17430D01*
X22420Y17385D01*
X22399Y17336D01*
X22380Y17382D01*
X22350Y17427D01*
X22311Y17466D01*
X22266Y17497D01*
X22215Y17518D01*
X22161Y17529D01*
X22107Y17530D01*
X22053Y17519D01*
X22002Y17499D01*
X21956Y17469D01*
X21916Y17430D01*
X21885Y17385D01*
X21864Y17335D01*
X21852Y17281D01*
X21852Y17226D01*
X21862Y17172D01*
X21882Y17121D01*
X21912Y17075D01*
X21950Y17035D01*
X21995Y17004D01*
X22045Y16982D01*
X22099Y16970D01*
X22154Y16969D01*
X22208Y16979D01*
X22259Y16998D01*
X22305Y17028D01*
X22345Y17066D01*
X22377Y17111D01*
X22399Y17161D01*
X22400Y17164D01*
X22417Y17121D01*
X22447Y17075D01*
X22485Y17035D01*
X22530Y17004D01*
X22580Y16982D01*
X22634Y16970D01*
X22689Y16969D01*
X22743Y16979D01*
X22794Y16998D01*
X22840Y17028D01*
X22880Y17066D01*
X22912Y17111D01*
X22934Y17161D01*
X22946Y17214D01*
X22947Y17277D01*
X22947Y15984D01*
X22923Y15969D01*
X22884Y15930D01*
X22853Y15885D01*
X22831Y15835D01*
X22820Y15781D01*
X22819Y15726D01*
X22829Y15672D01*
X22849Y15621D01*
X22879Y15575D01*
X22917Y15535D01*
X22962Y15504D01*
X23013Y15482D01*
X23066Y15470D01*
X23121Y15469D01*
X23130Y15470D01*
X23149Y15421D01*
X23179Y15375D01*
X23217Y15335D01*
X23262Y15304D01*
X23313Y15282D01*
X23366Y15270D01*
X23421Y15269D01*
X23475Y15279D01*
X23526Y15298D01*
X23573Y15328D01*
X23612Y15366D01*
X23644Y15411D01*
X23666Y15461D01*
X23679Y15514D01*
X23680Y15577D01*
X23680Y12530D01*
X23590Y12530D01*
X23612Y12561D01*
X23634Y12611D01*
X23646Y12664D01*
X23647Y12727D01*
X23636Y12781D01*
X23615Y12832D01*
X23585Y12877D01*
X23546Y12916D01*
X23501Y12947D01*
X23450Y12968D01*
X23396Y12979D01*
X23342Y12980D01*
X23288Y12969D01*
X23237Y12949D01*
X23191Y12919D01*
X23151Y12880D01*
X23120Y12835D01*
X23112Y12815D01*
X23112Y13377D01*
X23101Y13431D01*
X23080Y13482D01*
X23050Y13527D01*
X23011Y13566D01*
X22966Y13597D01*
X22915Y13618D01*
X22861Y13629D01*
X22807Y13630D01*
X22753Y13619D01*
X22702Y13599D01*
X22656Y13569D01*
X22616Y13530D01*
X22585Y13485D01*
X22564Y13435D01*
X22552Y13381D01*
X22552Y13326D01*
X22562Y13272D01*
X22582Y13221D01*
X22612Y13175D01*
X22650Y13135D01*
X22695Y13104D01*
X22745Y13082D01*
X22799Y13070D01*
X22854Y13069D01*
X22908Y13079D01*
X22959Y13098D01*
X23005Y13128D01*
X23045Y13166D01*
X23077Y13211D01*
X23099Y13261D01*
X23111Y13314D01*
X23112Y13377D01*
X23112Y12815D01*
X23099Y12786D01*
X23080Y12832D01*
X23050Y12877D01*
X23011Y12916D01*
X22966Y12947D01*
X22915Y12968D01*
X22861Y12979D01*
X22807Y12980D01*
X22753Y12969D01*
X22702Y12949D01*
X22656Y12919D01*
X22616Y12880D01*
X22585Y12835D01*
X22564Y12785D01*
X22552Y12731D01*
X22552Y12676D01*
X22562Y12622D01*
X22582Y12571D01*
X22608Y12530D01*
X22490Y12530D01*
X22512Y12561D01*
X22534Y12611D01*
X22546Y12664D01*
X22547Y12727D01*
X22536Y12781D01*
X22515Y12832D01*
X22485Y12877D01*
X22446Y12916D01*
X22412Y12939D01*
X22412Y15777D01*
X22401Y15831D01*
X22380Y15882D01*
X22350Y15927D01*
X22311Y15966D01*
X22266Y15997D01*
X22215Y16018D01*
X22161Y16029D01*
X22107Y16030D01*
X22053Y16019D01*
X22002Y15999D01*
X21956Y15969D01*
X21916Y15930D01*
X21885Y15885D01*
X21864Y15835D01*
X21852Y15781D01*
X21852Y15726D01*
X21862Y15672D01*
X21882Y15621D01*
X21912Y15575D01*
X21950Y15535D01*
X21995Y15504D01*
X22045Y15482D01*
X22099Y15470D01*
X22154Y15469D01*
X22208Y15479D01*
X22259Y15498D01*
X22305Y15528D01*
X22345Y15566D01*
X22377Y15611D01*
X22399Y15661D01*
X22411Y15714D01*
X22412Y15777D01*
X22412Y12939D01*
X22401Y12947D01*
X22360Y12964D01*
X22360Y14584D01*
X22327Y14749D01*
X22263Y14905D01*
X22169Y15046D01*
X22050Y15165D01*
X21911Y15260D01*
X21847Y15286D01*
X21847Y17277D01*
X21836Y17331D01*
X21815Y17382D01*
X21785Y17427D01*
X21746Y17466D01*
X21701Y17497D01*
X21650Y17518D01*
X21596Y17529D01*
X21542Y17530D01*
X21488Y17519D01*
X21437Y17499D01*
X21391Y17469D01*
X21351Y17430D01*
X21320Y17385D01*
X21299Y17335D01*
X21287Y17281D01*
X21287Y17226D01*
X21297Y17172D01*
X21317Y17121D01*
X21347Y17075D01*
X21385Y17035D01*
X21430Y17004D01*
X21480Y16982D01*
X21534Y16970D01*
X21589Y16969D01*
X21643Y16979D01*
X21694Y16998D01*
X21740Y17028D01*
X21780Y17066D01*
X21812Y17111D01*
X21834Y17161D01*
X21846Y17214D01*
X21847Y17277D01*
X21847Y15286D01*
X21755Y15325D01*
X21590Y15359D01*
X21421Y15360D01*
X21256Y15329D01*
X21099Y15265D01*
X20958Y15173D01*
X20880Y15096D01*
X20880Y18027D01*
X20869Y18081D01*
X20848Y18132D01*
X20818Y18177D01*
X20796Y18199D01*
X20812Y18216D01*
X20844Y18261D01*
X20866Y18311D01*
X20879Y18364D01*
X20880Y18427D01*
X20869Y18481D01*
X20848Y18532D01*
X20818Y18577D01*
X20779Y18616D01*
X20733Y18647D01*
X20683Y18668D01*
X20629Y18679D01*
X20574Y18680D01*
X20520Y18669D01*
X20469Y18649D01*
X20423Y18619D01*
X20384Y18580D01*
X20353Y18535D01*
X20331Y18485D01*
X20320Y18431D01*
X20319Y18376D01*
X20329Y18322D01*
X20349Y18271D01*
X20379Y18225D01*
X20403Y18199D01*
X20384Y18180D01*
X20353Y18135D01*
X20331Y18085D01*
X20320Y18031D01*
X20319Y17976D01*
X20329Y17922D01*
X20349Y17871D01*
X20379Y17825D01*
X20417Y17785D01*
X20462Y17754D01*
X20513Y17732D01*
X20566Y17720D01*
X20621Y17719D01*
X20675Y17729D01*
X20726Y17748D01*
X20773Y17778D01*
X20812Y17816D01*
X20844Y17861D01*
X20866Y17911D01*
X20879Y17964D01*
X20880Y18027D01*
X20880Y15096D01*
X20838Y15055D01*
X20742Y14916D01*
X20723Y14872D01*
X20704Y14891D01*
X20658Y14922D01*
X20608Y14943D01*
X20554Y14954D01*
X20499Y14955D01*
X20445Y14944D01*
X20430Y14938D01*
X20430Y15477D01*
X20419Y15531D01*
X20398Y15582D01*
X20368Y15627D01*
X20329Y15666D01*
X20283Y15697D01*
X20278Y15699D01*
X20323Y15728D01*
X20362Y15766D01*
X20394Y15811D01*
X20416Y15861D01*
X20429Y15914D01*
X20430Y15977D01*
X20419Y16031D01*
X20398Y16082D01*
X20368Y16127D01*
X20329Y16166D01*
X20283Y16197D01*
X20233Y16218D01*
X20230Y16219D01*
X20230Y18077D01*
X20219Y18131D01*
X20198Y18182D01*
X20168Y18227D01*
X20129Y18266D01*
X20083Y18297D01*
X20033Y18318D01*
X19979Y18329D01*
X19924Y18330D01*
X19870Y18319D01*
X19819Y18299D01*
X19773Y18269D01*
X19734Y18230D01*
X19703Y18185D01*
X19681Y18135D01*
X19670Y18081D01*
X19669Y18026D01*
X19679Y17972D01*
X19699Y17921D01*
X19729Y17875D01*
X19767Y17835D01*
X19812Y17804D01*
X19863Y17782D01*
X19916Y17770D01*
X19971Y17769D01*
X20025Y17779D01*
X20076Y17798D01*
X20123Y17828D01*
X20162Y17866D01*
X20194Y17911D01*
X20216Y17961D01*
X20229Y18014D01*
X20230Y18077D01*
X20230Y16219D01*
X20179Y16229D01*
X20124Y16230D01*
X20070Y16219D01*
X20033Y16204D01*
X20018Y16227D01*
X19979Y16266D01*
X19933Y16297D01*
X19883Y16318D01*
X19829Y16329D01*
X19774Y16330D01*
X19720Y16319D01*
X19669Y16299D01*
X19623Y16269D01*
X19584Y16230D01*
X19553Y16185D01*
X19531Y16135D01*
X19520Y16081D01*
X19519Y16026D01*
X19529Y15972D01*
X19549Y15921D01*
X19579Y15875D01*
X19617Y15835D01*
X19631Y15826D01*
X19603Y15785D01*
X19581Y15735D01*
X19570Y15681D01*
X19569Y15626D01*
X19579Y15572D01*
X19599Y15521D01*
X19629Y15475D01*
X19667Y15435D01*
X19712Y15404D01*
X19722Y15400D01*
X19719Y15399D01*
X19673Y15369D01*
X19634Y15330D01*
X19603Y15285D01*
X19581Y15235D01*
X19570Y15181D01*
X19569Y15126D01*
X19579Y15072D01*
X19599Y15021D01*
X19629Y14975D01*
X19667Y14935D01*
X19712Y14904D01*
X19763Y14882D01*
X19816Y14870D01*
X19871Y14869D01*
X19925Y14879D01*
X19976Y14898D01*
X20023Y14928D01*
X20062Y14966D01*
X20094Y15011D01*
X20116Y15061D01*
X20129Y15114D01*
X20129Y15170D01*
X20171Y15169D01*
X20225Y15179D01*
X20276Y15198D01*
X20323Y15228D01*
X20362Y15266D01*
X20394Y15311D01*
X20416Y15361D01*
X20429Y15414D01*
X20430Y15477D01*
X20430Y14938D01*
X20394Y14924D01*
X20348Y14894D01*
X20309Y14855D01*
X20278Y14810D01*
X20256Y14760D01*
X20245Y14706D01*
X20244Y14651D01*
X20254Y14597D01*
X20274Y14546D01*
X20304Y14500D01*
X20284Y14480D01*
X20253Y14435D01*
X20231Y14385D01*
X20220Y14331D01*
X20219Y14276D01*
X20229Y14222D01*
X20249Y14171D01*
X20279Y14125D01*
X20317Y14085D01*
X20362Y14054D01*
X20413Y14032D01*
X20466Y14020D01*
X20521Y14019D01*
X20575Y14029D01*
X20626Y14048D01*
X20673Y14078D01*
X20712Y14116D01*
X20721Y14128D01*
X20731Y14104D01*
X20822Y13963D01*
X20939Y13841D01*
X21078Y13745D01*
X21232Y13678D01*
X21397Y13641D01*
X21566Y13638D01*
X21732Y13667D01*
X21889Y13728D01*
X22032Y13819D01*
X22154Y13935D01*
X22251Y14073D01*
X22319Y14227D01*
X22357Y14391D01*
X22360Y14584D01*
X22360Y12964D01*
X22350Y12968D01*
X22296Y12979D01*
X22242Y12980D01*
X22188Y12969D01*
X22137Y12949D01*
X22091Y12919D01*
X22051Y12880D01*
X22047Y12874D01*
X22047Y13377D01*
X22036Y13431D01*
X22015Y13482D01*
X21985Y13527D01*
X21946Y13566D01*
X21901Y13597D01*
X21850Y13618D01*
X21796Y13629D01*
X21742Y13630D01*
X21688Y13619D01*
X21637Y13599D01*
X21591Y13569D01*
X21551Y13530D01*
X21520Y13485D01*
X21499Y13436D01*
X21480Y13482D01*
X21450Y13527D01*
X21411Y13566D01*
X21366Y13597D01*
X21315Y13618D01*
X21261Y13629D01*
X21207Y13630D01*
X21153Y13619D01*
X21102Y13599D01*
X21056Y13569D01*
X21016Y13530D01*
X20985Y13485D01*
X20964Y13435D01*
X20952Y13381D01*
X20952Y13326D01*
X20962Y13272D01*
X20982Y13221D01*
X21012Y13175D01*
X21050Y13135D01*
X21095Y13104D01*
X21145Y13082D01*
X21199Y13070D01*
X21254Y13069D01*
X21308Y13079D01*
X21359Y13098D01*
X21405Y13128D01*
X21445Y13166D01*
X21477Y13211D01*
X21499Y13261D01*
X21500Y13264D01*
X21517Y13221D01*
X21547Y13175D01*
X21585Y13135D01*
X21630Y13104D01*
X21680Y13082D01*
X21734Y13070D01*
X21789Y13069D01*
X21843Y13079D01*
X21894Y13098D01*
X21940Y13128D01*
X21980Y13166D01*
X22012Y13211D01*
X22034Y13261D01*
X22046Y13314D01*
X22047Y13377D01*
X22047Y12874D01*
X22020Y12835D01*
X21999Y12785D01*
X21987Y12731D01*
X21987Y12676D01*
X21997Y12622D01*
X22017Y12571D01*
X22043Y12530D01*
X20530Y12530D01*
X20530Y13259D01*
X20519Y13313D01*
X20498Y13364D01*
X20468Y13410D01*
X20429Y13449D01*
X20383Y13479D01*
X20333Y13501D01*
X20279Y13512D01*
X20224Y13512D01*
X20170Y13502D01*
X20119Y13481D01*
X20073Y13451D01*
X20034Y13413D01*
X20003Y13368D01*
X19985Y13326D01*
X19973Y13357D01*
X19955Y13384D01*
X19955Y13977D01*
X19944Y14031D01*
X19923Y14082D01*
X19893Y14127D01*
X19854Y14166D01*
X19808Y14197D01*
X19758Y14218D01*
X19704Y14229D01*
X19649Y14230D01*
X19595Y14219D01*
X19544Y14199D01*
X19498Y14169D01*
X19487Y14158D01*
X19479Y14166D01*
X19433Y14197D01*
X19383Y14218D01*
X19329Y14229D01*
X19274Y14230D01*
X19220Y14219D01*
X19169Y14199D01*
X19123Y14169D01*
X19084Y14130D01*
X19053Y14085D01*
X19031Y14035D01*
X19020Y13981D01*
X19019Y13926D01*
X19029Y13872D01*
X19049Y13821D01*
X19079Y13775D01*
X19117Y13735D01*
X19162Y13704D01*
X19213Y13682D01*
X19266Y13670D01*
X19321Y13669D01*
X19375Y13679D01*
X19426Y13698D01*
X19473Y13728D01*
X19487Y13741D01*
X19492Y13735D01*
X19537Y13704D01*
X19588Y13682D01*
X19641Y13670D01*
X19696Y13669D01*
X19750Y13679D01*
X19801Y13698D01*
X19848Y13728D01*
X19887Y13766D01*
X19919Y13811D01*
X19941Y13861D01*
X19954Y13914D01*
X19955Y13977D01*
X19955Y13384D01*
X19943Y13402D01*
X19904Y13441D01*
X19858Y13472D01*
X19808Y13493D01*
X19754Y13504D01*
X19699Y13505D01*
X19645Y13494D01*
X19594Y13474D01*
X19548Y13444D01*
X19509Y13405D01*
X19478Y13360D01*
X19456Y13310D01*
X19445Y13256D01*
X19444Y13201D01*
X19454Y13147D01*
X19474Y13096D01*
X19504Y13050D01*
X19542Y13010D01*
X19587Y12979D01*
X19638Y12957D01*
X19691Y12945D01*
X19746Y12944D01*
X19800Y12954D01*
X19851Y12973D01*
X19898Y13003D01*
X19937Y13041D01*
X19969Y13086D01*
X19989Y13130D01*
X19999Y13103D01*
X20029Y13057D01*
X20067Y13018D01*
X20112Y12986D01*
X20163Y12964D01*
X20216Y12953D01*
X20271Y12951D01*
X20325Y12961D01*
X20376Y12981D01*
X20423Y13010D01*
X20462Y13048D01*
X20494Y13093D01*
X20516Y13143D01*
X20529Y13197D01*
X20530Y13259D01*
X20530Y12530D01*
X18855Y12530D01*
X18855Y14574D01*
X18826Y14719D01*
X18769Y14856D01*
X18687Y14979D01*
X18583Y15084D01*
X18460Y15167D01*
X18324Y15224D01*
X18179Y15254D01*
X18031Y15255D01*
X17885Y15227D01*
X17748Y15172D01*
X17624Y15091D01*
X17518Y14987D01*
X17435Y14865D01*
X17376Y14729D01*
X17346Y14584D01*
X17344Y14436D01*
X17370Y14290D01*
X17425Y14153D01*
X17505Y14028D01*
X17608Y13922D01*
X17729Y13837D01*
X17865Y13778D01*
X18010Y13746D01*
X18158Y13743D01*
X18304Y13769D01*
X18442Y13822D01*
X18567Y13902D01*
X18674Y14004D01*
X18759Y14125D01*
X18819Y14260D01*
X18852Y14404D01*
X18855Y14574D01*
X18855Y12530D01*
X17980Y12530D01*
X17980Y13494D01*
X17969Y13548D01*
X17948Y13599D01*
X17918Y13645D01*
X17879Y13684D01*
X17833Y13714D01*
X17783Y13736D01*
X17729Y13747D01*
X17674Y13747D01*
X17620Y13737D01*
X17569Y13716D01*
X17523Y13686D01*
X17484Y13648D01*
X17453Y13603D01*
X17431Y13552D01*
X17420Y13498D01*
X17419Y13443D01*
X17429Y13389D01*
X17449Y13338D01*
X17479Y13292D01*
X17517Y13253D01*
X17562Y13221D01*
X17613Y13199D01*
X17666Y13188D01*
X17721Y13186D01*
X17775Y13196D01*
X17826Y13216D01*
X17873Y13245D01*
X17912Y13283D01*
X17944Y13328D01*
X17966Y13378D01*
X17979Y13432D01*
X17980Y13494D01*
X17980Y12530D01*
X16954Y12530D01*
X16954Y13345D01*
X16954Y14408D01*
X16943Y14462D01*
X16922Y14513D01*
X16892Y14559D01*
X16853Y14598D01*
X16807Y14628D01*
X16757Y14650D01*
X16703Y14661D01*
X16648Y14661D01*
X16594Y14651D01*
X16543Y14630D01*
X16497Y14600D01*
X16458Y14562D01*
X16427Y14517D01*
X16405Y14466D01*
X16394Y14412D01*
X16393Y14357D01*
X16403Y14303D01*
X16423Y14252D01*
X16453Y14206D01*
X16491Y14167D01*
X16536Y14135D01*
X16587Y14113D01*
X16640Y14102D01*
X16695Y14100D01*
X16749Y14110D01*
X16800Y14130D01*
X16847Y14159D01*
X16887Y14197D01*
X16918Y14242D01*
X16940Y14292D01*
X16953Y14346D01*
X16954Y14408D01*
X16954Y13345D01*
X16943Y13399D01*
X16922Y13450D01*
X16892Y13496D01*
X16853Y13535D01*
X16807Y13565D01*
X16757Y13587D01*
X16703Y13598D01*
X16648Y13598D01*
X16594Y13588D01*
X16580Y13582D01*
X16580Y13877D01*
X16569Y13931D01*
X16548Y13982D01*
X16518Y14027D01*
X16479Y14066D01*
X16433Y14097D01*
X16383Y14118D01*
X16329Y14129D01*
X16274Y14130D01*
X16220Y14119D01*
X16169Y14099D01*
X16123Y14069D01*
X16084Y14030D01*
X16053Y13985D01*
X16031Y13935D01*
X16020Y13881D01*
X16019Y13826D01*
X16029Y13772D01*
X16049Y13721D01*
X16079Y13675D01*
X16117Y13635D01*
X16162Y13604D01*
X16213Y13582D01*
X16266Y13570D01*
X16321Y13569D01*
X16375Y13579D01*
X16426Y13598D01*
X16473Y13628D01*
X16512Y13666D01*
X16544Y13711D01*
X16566Y13761D01*
X16579Y13814D01*
X16580Y13877D01*
X16580Y13582D01*
X16543Y13567D01*
X16497Y13537D01*
X16458Y13499D01*
X16427Y13454D01*
X16405Y13403D01*
X16394Y13349D01*
X16393Y13294D01*
X16403Y13240D01*
X16423Y13189D01*
X16453Y13143D01*
X16491Y13104D01*
X16536Y13072D01*
X16587Y13050D01*
X16640Y13039D01*
X16695Y13037D01*
X16749Y13047D01*
X16800Y13067D01*
X16847Y13096D01*
X16887Y13134D01*
X16918Y13179D01*
X16940Y13229D01*
X16953Y13283D01*
X16954Y13345D01*
X16954Y12530D01*
X14180Y12530D01*
X14180Y13696D01*
X14186Y13690D01*
X14251Y13644D01*
X14324Y13612D01*
X14401Y13595D01*
X14481Y13594D01*
X14559Y13608D01*
X14633Y13636D01*
X14700Y13679D01*
X14758Y13734D01*
X14803Y13798D01*
X14836Y13871D01*
X14853Y13948D01*
X14855Y14039D01*
X14839Y14117D01*
X14809Y14191D01*
X14765Y14257D01*
X14709Y14313D01*
X14643Y14357D01*
X14570Y14388D01*
X14492Y14404D01*
X14413Y14405D01*
X14335Y14390D01*
X14261Y14360D01*
X14194Y14317D01*
X14180Y14302D01*
X14180Y14696D01*
X14186Y14690D01*
X14251Y14644D01*
X14324Y14612D01*
X14401Y14595D01*
X14481Y14594D01*
X14559Y14608D01*
X14633Y14636D01*
X14700Y14679D01*
X14758Y14734D01*
X14803Y14798D01*
X14836Y14871D01*
X14853Y14948D01*
X14855Y15039D01*
X14839Y15117D01*
X14809Y15191D01*
X14765Y15257D01*
X14709Y15313D01*
X14643Y15357D01*
X14570Y15388D01*
X14492Y15404D01*
X14413Y15405D01*
X14335Y15390D01*
X14261Y15360D01*
X14194Y15317D01*
X14180Y15302D01*
X14180Y15696D01*
X14186Y15690D01*
X14251Y15644D01*
X14324Y15612D01*
X14401Y15595D01*
X14481Y15594D01*
X14559Y15608D01*
X14633Y15636D01*
X14700Y15679D01*
X14758Y15734D01*
X14803Y15798D01*
X14836Y15871D01*
X14853Y15948D01*
X14855Y16039D01*
X14839Y16117D01*
X14809Y16191D01*
X14765Y16257D01*
X14709Y16313D01*
X14643Y16357D01*
X14570Y16388D01*
X14492Y16404D01*
X14413Y16405D01*
X14335Y16390D01*
X14261Y16360D01*
X14194Y16317D01*
X14180Y16302D01*
X14180Y16696D01*
X14186Y16690D01*
X14251Y16644D01*
X14324Y16612D01*
X14401Y16595D01*
X14481Y16594D01*
X14559Y16608D01*
X14633Y16636D01*
X14700Y16679D01*
X14758Y16734D01*
X14803Y16798D01*
X14836Y16871D01*
X14853Y16948D01*
X14855Y17039D01*
X14839Y17117D01*
X14809Y17191D01*
X14765Y17257D01*
X14709Y17313D01*
X14643Y17357D01*
X14570Y17388D01*
X14492Y17404D01*
X14413Y17405D01*
X14335Y17390D01*
X14261Y17360D01*
X14194Y17317D01*
X14180Y17302D01*
X14180Y18136D01*
X14191Y18124D01*
X14212Y18110D01*
X14236Y18100D01*
X14261Y18095D01*
X14286Y18094D01*
X14837Y18094D01*
X14862Y18099D01*
X14886Y18109D01*
X14907Y18123D01*
X14925Y18141D01*
X14939Y18162D01*
X14949Y18186D01*
X14954Y18211D01*
X14955Y18236D01*
X14955Y18770D01*
X15246Y18770D01*
X15238Y18761D01*
X15193Y18696D01*
X15162Y18623D01*
X15145Y18545D01*
X15144Y18465D01*
X15158Y18387D01*
X15188Y18313D01*
X15231Y18247D01*
X15286Y18190D01*
X15351Y18144D01*
X15424Y18112D01*
X15501Y18095D01*
X15581Y18094D01*
X15659Y18108D01*
X15733Y18136D01*
X15800Y18179D01*
X15858Y18234D01*
X15903Y18298D01*
X15936Y18371D01*
X15953Y18448D01*
X15955Y18539D01*
X15939Y18617D01*
X15909Y18691D01*
X15865Y18757D01*
X15852Y18770D01*
X19680Y18770D01*
X19699Y18721D01*
X19729Y18675D01*
X19767Y18635D01*
X19812Y18604D01*
X19863Y18582D01*
X19916Y18570D01*
X19971Y18569D01*
X20025Y18579D01*
X20076Y18598D01*
X20123Y18628D01*
X20162Y18666D01*
X20194Y18711D01*
X20216Y18761D01*
X20218Y18770D01*
X21996Y18770D01*
X21981Y18735D01*
X21970Y18681D01*
X21969Y18626D01*
X21979Y18572D01*
X21999Y18521D01*
X22029Y18475D01*
X22067Y18435D01*
X22112Y18404D01*
X22163Y18382D01*
X22216Y18370D01*
X22271Y18369D01*
X22325Y18379D01*
X22376Y18398D01*
X22423Y18428D01*
X22462Y18466D01*
X22494Y18511D01*
X22516Y18561D01*
X22529Y18614D01*
X22530Y18677D01*
X22519Y18731D01*
X22503Y18770D01*
X24314Y18770D01*
X24299Y18735D01*
X24287Y18681D01*
X24287Y18626D01*
X24297Y18572D01*
X24317Y18521D01*
X24347Y18475D01*
X24385Y18435D01*
X24430Y18404D01*
X24480Y18382D01*
X24534Y18370D01*
X24589Y18369D01*
X24643Y18379D01*
X24694Y18398D01*
X24740Y18428D01*
X24780Y18466D01*
X24812Y18511D01*
X24834Y18561D01*
X24846Y18614D01*
X24847Y18677D01*
X24836Y18731D01*
X24820Y18770D01*
X24879Y18770D01*
X24864Y18735D01*
X24852Y18681D01*
X24852Y18626D01*
X24862Y18572D01*
X24882Y18521D01*
X24912Y18475D01*
X24950Y18435D01*
X24995Y18404D01*
X25045Y18382D01*
X25099Y18370D01*
X25154Y18369D01*
X25208Y18379D01*
X25259Y18398D01*
X25305Y18428D01*
X25345Y18466D01*
X25377Y18511D01*
X25399Y18561D01*
X25411Y18614D01*
X25412Y18677D01*
X25401Y18731D01*
X25385Y18770D01*
X31549Y18770D01*
X31544Y18767D01*
X31488Y18711D01*
X31443Y18646D01*
X31412Y18573D01*
X31395Y18495D01*
X31394Y18415D01*
X31408Y18337D01*
X31438Y18263D01*
X31481Y18197D01*
X31536Y18140D01*
X31601Y18094D01*
X31674Y18062D01*
X31751Y18045D01*
X31831Y18044D01*
X31909Y18058D01*
X31983Y18086D01*
X32050Y18129D01*
X32108Y18184D01*
X32153Y18248D01*
X32186Y18321D01*
X32203Y18398D01*
X32205Y18489D01*
X32189Y18567D01*
X32159Y18641D01*
X32115Y18707D01*
X32059Y18763D01*
X32049Y18770D01*
X33549Y18770D01*
X33544Y18767D01*
X33488Y18711D01*
X33443Y18646D01*
X33412Y18573D01*
X33395Y18495D01*
X33394Y18415D01*
X33408Y18337D01*
X33438Y18263D01*
X33481Y18197D01*
X33536Y18140D01*
X33601Y18094D01*
X33674Y18062D01*
X33751Y18045D01*
X33831Y18044D01*
X33909Y18058D01*
X33983Y18086D01*
X34050Y18129D01*
X34108Y18184D01*
X34153Y18248D01*
X34186Y18321D01*
X34203Y18398D01*
X34205Y18489D01*
X34189Y18567D01*
X34159Y18641D01*
X34115Y18707D01*
X34059Y18763D01*
X34049Y18770D01*
X34549Y18770D01*
X34544Y18767D01*
X34488Y18711D01*
X34443Y18646D01*
X34412Y18573D01*
X34395Y18495D01*
X34394Y18415D01*
X34408Y18337D01*
X34438Y18263D01*
X34481Y18197D01*
X34536Y18140D01*
X34601Y18094D01*
X34674Y18062D01*
X34751Y18045D01*
X34831Y18044D01*
X34909Y18058D01*
X34983Y18086D01*
X35050Y18129D01*
X35108Y18184D01*
X35153Y18248D01*
X35186Y18321D01*
X35203Y18398D01*
X35205Y18489D01*
X35189Y18567D01*
X35159Y18641D01*
X35115Y18707D01*
X35059Y18763D01*
X35049Y18770D01*
X35549Y18770D01*
X35544Y18767D01*
X35488Y18711D01*
X35443Y18646D01*
X35412Y18573D01*
X35395Y18495D01*
X35394Y18415D01*
X35408Y18337D01*
X35438Y18263D01*
X35481Y18197D01*
X35536Y18140D01*
X35601Y18094D01*
X35674Y18062D01*
X35751Y18045D01*
X35831Y18044D01*
X35909Y18058D01*
X35983Y18086D01*
X36050Y18129D01*
X36108Y18184D01*
X36153Y18248D01*
X36186Y18321D01*
X36203Y18398D01*
X36205Y18489D01*
X36189Y18567D01*
X36159Y18641D01*
X36115Y18707D01*
X36059Y18763D01*
X36049Y18770D01*
X36549Y18770D01*
X36544Y18767D01*
X36488Y18711D01*
X36443Y18646D01*
X36412Y18573D01*
X36395Y18495D01*
X36394Y18415D01*
X36408Y18337D01*
X36438Y18263D01*
X36481Y18197D01*
X36536Y18140D01*
X36601Y18094D01*
X36674Y18062D01*
X36751Y18045D01*
X36831Y18044D01*
X36909Y18058D01*
X36983Y18086D01*
X37050Y18129D01*
X37108Y18184D01*
X37153Y18248D01*
X37186Y18321D01*
X37203Y18398D01*
X37205Y18489D01*
X37189Y18567D01*
X37159Y18641D01*
X37115Y18707D01*
X37059Y18763D01*
X37049Y18770D01*
X37549Y18770D01*
X37544Y18767D01*
X37488Y18711D01*
X37443Y18646D01*
X37412Y18573D01*
X37395Y18495D01*
X37394Y18415D01*
X37408Y18337D01*
X37438Y18263D01*
X37481Y18197D01*
X37536Y18140D01*
X37601Y18094D01*
X37674Y18062D01*
X37751Y18045D01*
X37831Y18044D01*
X37909Y18058D01*
X37983Y18086D01*
X38050Y18129D01*
X38108Y18184D01*
X38153Y18248D01*
X38186Y18321D01*
X38203Y18398D01*
X38205Y18489D01*
X38189Y18567D01*
X38159Y18641D01*
X38115Y18707D01*
X38059Y18763D01*
X38049Y18770D01*
X49920Y18770D01*
X49920Y12530D01*
X49920Y12530D01*
G37*
G54D18*
X49920Y12530D02*
X49855Y12530D01*
X49855Y17539D01*
X49839Y17617D01*
X49809Y17691D01*
X49765Y17757D01*
X49709Y17813D01*
X49643Y17857D01*
X49570Y17888D01*
X49492Y17904D01*
X49413Y17905D01*
X49335Y17890D01*
X49261Y17860D01*
X49194Y17817D01*
X49138Y17761D01*
X49093Y17696D01*
X49062Y17623D01*
X49045Y17545D01*
X49044Y17465D01*
X49058Y17387D01*
X49088Y17313D01*
X49131Y17247D01*
X49186Y17190D01*
X49251Y17144D01*
X49324Y17112D01*
X49401Y17095D01*
X49481Y17094D01*
X49559Y17108D01*
X49633Y17136D01*
X49700Y17179D01*
X49758Y17234D01*
X49803Y17298D01*
X49836Y17371D01*
X49853Y17448D01*
X49855Y17539D01*
X49855Y12530D01*
X49280Y12530D01*
X49280Y13552D01*
X49269Y13606D01*
X49248Y13657D01*
X49218Y13702D01*
X49179Y13741D01*
X49133Y13772D01*
X49083Y13793D01*
X49030Y13804D01*
X49030Y15427D01*
X49019Y15481D01*
X48998Y15532D01*
X48968Y15577D01*
X48929Y15616D01*
X48883Y15647D01*
X48833Y15668D01*
X48779Y15679D01*
X48724Y15680D01*
X48670Y15669D01*
X48619Y15649D01*
X48573Y15619D01*
X48534Y15580D01*
X48503Y15535D01*
X48481Y15485D01*
X48470Y15431D01*
X48469Y15376D01*
X48479Y15322D01*
X48499Y15271D01*
X48529Y15225D01*
X48567Y15185D01*
X48612Y15154D01*
X48663Y15132D01*
X48716Y15120D01*
X48771Y15119D01*
X48825Y15129D01*
X48876Y15148D01*
X48923Y15178D01*
X48962Y15216D01*
X48994Y15261D01*
X49016Y15311D01*
X49029Y15364D01*
X49030Y15427D01*
X49030Y13804D01*
X49029Y13804D01*
X48974Y13805D01*
X48920Y13794D01*
X48869Y13774D01*
X48823Y13744D01*
X48784Y13705D01*
X48753Y13660D01*
X48731Y13610D01*
X48720Y13556D01*
X48719Y13501D01*
X48729Y13447D01*
X48749Y13396D01*
X48779Y13350D01*
X48817Y13310D01*
X48862Y13279D01*
X48913Y13257D01*
X48966Y13245D01*
X49021Y13244D01*
X49075Y13254D01*
X49126Y13273D01*
X49173Y13303D01*
X49212Y13341D01*
X49244Y13386D01*
X49266Y13436D01*
X49279Y13489D01*
X49280Y13552D01*
X49280Y12530D01*
X48255Y12530D01*
X48255Y15927D01*
X48244Y15981D01*
X48223Y16032D01*
X48193Y16077D01*
X48154Y16116D01*
X48108Y16147D01*
X48058Y16168D01*
X48004Y16179D01*
X47949Y16180D01*
X47895Y16169D01*
X47844Y16149D01*
X47798Y16119D01*
X47759Y16080D01*
X47728Y16035D01*
X47725Y16027D01*
X47723Y16032D01*
X47693Y16077D01*
X47654Y16116D01*
X47608Y16147D01*
X47558Y16168D01*
X47504Y16179D01*
X47449Y16180D01*
X47395Y16169D01*
X47344Y16149D01*
X47298Y16119D01*
X47262Y16083D01*
X47229Y16116D01*
X47183Y16147D01*
X47133Y16168D01*
X47079Y16179D01*
X47024Y16180D01*
X46970Y16169D01*
X46919Y16149D01*
X46873Y16119D01*
X46834Y16080D01*
X46803Y16035D01*
X46781Y15985D01*
X46770Y15931D01*
X46769Y15876D01*
X46779Y15822D01*
X46799Y15771D01*
X46829Y15725D01*
X46867Y15685D01*
X46912Y15654D01*
X46963Y15632D01*
X47016Y15620D01*
X47071Y15619D01*
X47125Y15629D01*
X47176Y15648D01*
X47223Y15678D01*
X47262Y15716D01*
X47263Y15716D01*
X47292Y15685D01*
X47337Y15654D01*
X47388Y15632D01*
X47441Y15620D01*
X47496Y15619D01*
X47550Y15629D01*
X47601Y15648D01*
X47648Y15678D01*
X47687Y15716D01*
X47719Y15761D01*
X47724Y15771D01*
X47724Y15771D01*
X47754Y15725D01*
X47792Y15685D01*
X47837Y15654D01*
X47888Y15632D01*
X47941Y15620D01*
X47996Y15619D01*
X48050Y15629D01*
X48101Y15648D01*
X48148Y15678D01*
X48187Y15716D01*
X48219Y15761D01*
X48241Y15811D01*
X48254Y15864D01*
X48255Y15927D01*
X48255Y12530D01*
X47555Y12530D01*
X47555Y14574D01*
X47526Y14719D01*
X47469Y14856D01*
X47387Y14979D01*
X47283Y15084D01*
X47160Y15167D01*
X47024Y15224D01*
X46879Y15254D01*
X46731Y15255D01*
X46585Y15227D01*
X46448Y15172D01*
X46324Y15091D01*
X46218Y14987D01*
X46135Y14865D01*
X46076Y14729D01*
X46046Y14584D01*
X46044Y14436D01*
X46070Y14290D01*
X46125Y14153D01*
X46205Y14028D01*
X46308Y13922D01*
X46429Y13837D01*
X46565Y13778D01*
X46710Y13746D01*
X46858Y13743D01*
X47004Y13769D01*
X47142Y13822D01*
X47267Y13902D01*
X47374Y14004D01*
X47459Y14125D01*
X47519Y14260D01*
X47552Y14404D01*
X47555Y14574D01*
X47555Y12530D01*
X46512Y12530D01*
X46512Y13177D01*
X46501Y13231D01*
X46480Y13282D01*
X46450Y13327D01*
X46411Y13366D01*
X46366Y13397D01*
X46315Y13418D01*
X46261Y13429D01*
X46207Y13430D01*
X46153Y13419D01*
X46102Y13399D01*
X46056Y13369D01*
X46016Y13330D01*
X45985Y13285D01*
X45964Y13235D01*
X45952Y13181D01*
X45952Y13126D01*
X45962Y13072D01*
X45982Y13021D01*
X46012Y12975D01*
X46050Y12935D01*
X46095Y12904D01*
X46145Y12882D01*
X46199Y12870D01*
X46254Y12869D01*
X46308Y12879D01*
X46359Y12898D01*
X46405Y12928D01*
X46445Y12966D01*
X46477Y13011D01*
X46499Y13061D01*
X46511Y13114D01*
X46512Y13177D01*
X46512Y12530D01*
X46437Y12530D01*
X46137Y12230D01*
X45762Y12230D01*
X45507Y12484D01*
X45513Y12482D01*
X45566Y12470D01*
X45621Y12469D01*
X45675Y12479D01*
X45726Y12498D01*
X45773Y12528D01*
X45812Y12566D01*
X45844Y12611D01*
X45866Y12661D01*
X45879Y12714D01*
X45880Y12777D01*
X45869Y12831D01*
X45848Y12882D01*
X45818Y12927D01*
X45780Y12966D01*
X45780Y14777D01*
X45769Y14831D01*
X45748Y14882D01*
X45718Y14927D01*
X45679Y14966D01*
X45633Y14997D01*
X45583Y15018D01*
X45529Y15029D01*
X45474Y15030D01*
X45420Y15019D01*
X45369Y14999D01*
X45323Y14969D01*
X45284Y14930D01*
X45253Y14885D01*
X45231Y14835D01*
X45220Y14781D01*
X45219Y14726D01*
X45229Y14672D01*
X45249Y14621D01*
X45279Y14575D01*
X45317Y14535D01*
X45362Y14504D01*
X45413Y14482D01*
X45466Y14470D01*
X45521Y14469D01*
X45575Y14479D01*
X45626Y14498D01*
X45673Y14528D01*
X45712Y14566D01*
X45744Y14611D01*
X45766Y14661D01*
X45779Y14714D01*
X45780Y14777D01*
X45780Y12966D01*
X45779Y12966D01*
X45733Y12997D01*
X45683Y13018D01*
X45629Y13029D01*
X45574Y13030D01*
X45520Y13019D01*
X45469Y12999D01*
X45423Y12969D01*
X45384Y12930D01*
X45353Y12885D01*
X45331Y12835D01*
X45320Y12781D01*
X45319Y12726D01*
X45329Y12672D01*
X45349Y12621D01*
X45379Y12575D01*
X45417Y12535D01*
X45425Y12530D01*
X45197Y12530D01*
X45197Y16152D01*
X45186Y16206D01*
X45165Y16257D01*
X45135Y16302D01*
X45096Y16341D01*
X45050Y16372D01*
X45000Y16393D01*
X44946Y16404D01*
X44891Y16405D01*
X44837Y16394D01*
X44786Y16374D01*
X44740Y16344D01*
X44701Y16305D01*
X44670Y16260D01*
X44648Y16210D01*
X44637Y16156D01*
X44636Y16101D01*
X44646Y16047D01*
X44666Y15996D01*
X44696Y15950D01*
X44734Y15910D01*
X44779Y15879D01*
X44830Y15857D01*
X44883Y15845D01*
X44938Y15844D01*
X44992Y15854D01*
X45043Y15873D01*
X45090Y15903D01*
X45129Y15941D01*
X45161Y15986D01*
X45183Y16036D01*
X45196Y16089D01*
X45197Y16152D01*
X45197Y12530D01*
X44930Y12530D01*
X44930Y13477D01*
X44919Y13531D01*
X44898Y13582D01*
X44868Y13627D01*
X44829Y13666D01*
X44783Y13697D01*
X44733Y13718D01*
X44679Y13729D01*
X44679Y13729D01*
X44680Y13777D01*
X44669Y13831D01*
X44648Y13882D01*
X44618Y13927D01*
X44579Y13966D01*
X44533Y13997D01*
X44483Y14018D01*
X44429Y14029D01*
X44374Y14030D01*
X44320Y14019D01*
X44305Y14013D01*
X44305Y16339D01*
X44305Y17339D01*
X44289Y17417D01*
X44259Y17491D01*
X44215Y17557D01*
X44159Y17613D01*
X44093Y17657D01*
X44020Y17688D01*
X43942Y17704D01*
X43863Y17705D01*
X43785Y17690D01*
X43711Y17660D01*
X43644Y17617D01*
X43588Y17561D01*
X43543Y17496D01*
X43512Y17423D01*
X43495Y17345D01*
X43494Y17265D01*
X43508Y17187D01*
X43538Y17113D01*
X43581Y17047D01*
X43636Y16990D01*
X43701Y16944D01*
X43774Y16912D01*
X43851Y16895D01*
X43931Y16894D01*
X44009Y16908D01*
X44083Y16936D01*
X44150Y16979D01*
X44208Y17034D01*
X44253Y17098D01*
X44286Y17171D01*
X44303Y17248D01*
X44305Y17339D01*
X44305Y16339D01*
X44289Y16417D01*
X44259Y16491D01*
X44215Y16557D01*
X44159Y16613D01*
X44093Y16657D01*
X44020Y16688D01*
X43942Y16704D01*
X43863Y16705D01*
X43785Y16690D01*
X43711Y16660D01*
X43644Y16617D01*
X43588Y16561D01*
X43543Y16496D01*
X43512Y16423D01*
X43495Y16345D01*
X43494Y16265D01*
X43508Y16187D01*
X43538Y16113D01*
X43581Y16047D01*
X43636Y15990D01*
X43701Y15944D01*
X43774Y15912D01*
X43851Y15895D01*
X43931Y15894D01*
X44009Y15908D01*
X44083Y15936D01*
X44150Y15979D01*
X44208Y16034D01*
X44253Y16098D01*
X44286Y16171D01*
X44303Y16248D01*
X44305Y16339D01*
X44305Y14013D01*
X44269Y13999D01*
X44223Y13969D01*
X44184Y13930D01*
X44156Y13889D01*
X44129Y13916D01*
X44083Y13947D01*
X44067Y13954D01*
X44151Y14073D01*
X44219Y14227D01*
X44257Y14391D01*
X44260Y14584D01*
X44227Y14749D01*
X44163Y14905D01*
X44069Y15046D01*
X43950Y15165D01*
X43811Y15260D01*
X43655Y15325D01*
X43490Y15359D01*
X43321Y15360D01*
X43305Y15357D01*
X43305Y16036D01*
X43305Y17036D01*
X43305Y18036D01*
X43305Y18587D01*
X43300Y18612D01*
X43290Y18636D01*
X43276Y18657D01*
X43258Y18675D01*
X43237Y18689D01*
X43213Y18699D01*
X43188Y18704D01*
X43163Y18705D01*
X42612Y18705D01*
X42587Y18700D01*
X42563Y18690D01*
X42542Y18676D01*
X42524Y18658D01*
X42510Y18637D01*
X42500Y18613D01*
X42495Y18588D01*
X42494Y18563D01*
X42494Y18012D01*
X42499Y17987D01*
X42509Y17963D01*
X42523Y17942D01*
X42541Y17924D01*
X42562Y17910D01*
X42586Y17900D01*
X42611Y17895D01*
X42636Y17894D01*
X43187Y17894D01*
X43212Y17899D01*
X43236Y17909D01*
X43257Y17923D01*
X43275Y17941D01*
X43289Y17962D01*
X43299Y17986D01*
X43304Y18011D01*
X43305Y18036D01*
X43305Y17036D01*
X43305Y17587D01*
X43300Y17612D01*
X43290Y17636D01*
X43276Y17657D01*
X43258Y17675D01*
X43237Y17689D01*
X43213Y17699D01*
X43188Y17704D01*
X43163Y17705D01*
X42612Y17705D01*
X42587Y17700D01*
X42563Y17690D01*
X42542Y17676D01*
X42524Y17658D01*
X42510Y17637D01*
X42500Y17613D01*
X42495Y17588D01*
X42494Y17563D01*
X42494Y17012D01*
X42499Y16987D01*
X42509Y16963D01*
X42523Y16942D01*
X42541Y16924D01*
X42562Y16910D01*
X42586Y16900D01*
X42611Y16895D01*
X42636Y16894D01*
X43187Y16894D01*
X43212Y16899D01*
X43236Y16909D01*
X43257Y16923D01*
X43275Y16941D01*
X43289Y16962D01*
X43299Y16986D01*
X43304Y17011D01*
X43305Y17036D01*
X43305Y16036D01*
X43305Y16587D01*
X43300Y16612D01*
X43290Y16636D01*
X43276Y16657D01*
X43258Y16675D01*
X43237Y16689D01*
X43213Y16699D01*
X43188Y16704D01*
X43163Y16705D01*
X42612Y16705D01*
X42587Y16700D01*
X42563Y16690D01*
X42542Y16676D01*
X42524Y16658D01*
X42510Y16637D01*
X42500Y16613D01*
X42495Y16588D01*
X42494Y16563D01*
X42494Y16012D01*
X42499Y15987D01*
X42509Y15963D01*
X42523Y15942D01*
X42541Y15924D01*
X42562Y15910D01*
X42586Y15900D01*
X42611Y15895D01*
X42636Y15894D01*
X43187Y15894D01*
X43212Y15899D01*
X43236Y15909D01*
X43257Y15923D01*
X43275Y15941D01*
X43289Y15962D01*
X43299Y15986D01*
X43304Y16011D01*
X43305Y16036D01*
X43305Y15357D01*
X43156Y15329D01*
X42999Y15265D01*
X42858Y15173D01*
X42738Y15055D01*
X42642Y14916D01*
X42576Y14761D01*
X42541Y14596D01*
X42538Y14427D01*
X42569Y14261D01*
X42631Y14104D01*
X42722Y13963D01*
X42839Y13841D01*
X42978Y13745D01*
X43132Y13678D01*
X43240Y13654D01*
X43231Y13635D01*
X43220Y13581D01*
X43219Y13529D01*
X43170Y13519D01*
X43119Y13499D01*
X43073Y13469D01*
X43034Y13430D01*
X43003Y13385D01*
X42981Y13335D01*
X42970Y13281D01*
X42969Y13226D01*
X42979Y13172D01*
X42999Y13121D01*
X43029Y13075D01*
X43067Y13035D01*
X43112Y13004D01*
X43163Y12982D01*
X43216Y12970D01*
X43271Y12969D01*
X43325Y12979D01*
X43376Y12998D01*
X43423Y13028D01*
X43462Y13066D01*
X43494Y13111D01*
X43516Y13161D01*
X43529Y13214D01*
X43529Y13270D01*
X43575Y13279D01*
X43626Y13298D01*
X43673Y13328D01*
X43712Y13366D01*
X43744Y13411D01*
X43766Y13461D01*
X43771Y13482D01*
X43812Y13454D01*
X43863Y13432D01*
X43916Y13420D01*
X43971Y13419D01*
X44025Y13429D01*
X44076Y13448D01*
X44123Y13478D01*
X44162Y13516D01*
X44194Y13560D01*
X44217Y13535D01*
X44262Y13504D01*
X44313Y13482D01*
X44366Y13470D01*
X44370Y13470D01*
X44369Y13426D01*
X44379Y13372D01*
X44399Y13321D01*
X44429Y13275D01*
X44467Y13235D01*
X44512Y13204D01*
X44563Y13182D01*
X44616Y13170D01*
X44671Y13169D01*
X44725Y13179D01*
X44776Y13198D01*
X44823Y13228D01*
X44862Y13266D01*
X44894Y13311D01*
X44916Y13361D01*
X44929Y13414D01*
X44930Y13477D01*
X44930Y12530D01*
X42830Y12530D01*
X42830Y13577D01*
X42819Y13631D01*
X42798Y13682D01*
X42768Y13727D01*
X42729Y13766D01*
X42683Y13797D01*
X42633Y13818D01*
X42579Y13829D01*
X42524Y13830D01*
X42470Y13819D01*
X42468Y13819D01*
X42479Y13864D01*
X42480Y13927D01*
X42469Y13981D01*
X42448Y14032D01*
X42418Y14077D01*
X42379Y14116D01*
X42333Y14147D01*
X42283Y14168D01*
X42229Y14179D01*
X42174Y14180D01*
X42120Y14169D01*
X42080Y14153D01*
X42080Y15659D01*
X42069Y15713D01*
X42048Y15764D01*
X42018Y15810D01*
X41979Y15849D01*
X41933Y15879D01*
X41883Y15901D01*
X41829Y15912D01*
X41774Y15912D01*
X41720Y15902D01*
X41669Y15881D01*
X41623Y15851D01*
X41584Y15813D01*
X41553Y15768D01*
X41531Y15717D01*
X41520Y15663D01*
X41519Y15608D01*
X41529Y15554D01*
X41549Y15503D01*
X41579Y15457D01*
X41617Y15418D01*
X41662Y15386D01*
X41713Y15364D01*
X41766Y15353D01*
X41821Y15351D01*
X41875Y15361D01*
X41926Y15381D01*
X41973Y15410D01*
X42012Y15448D01*
X42044Y15493D01*
X42066Y15543D01*
X42079Y15597D01*
X42080Y15659D01*
X42080Y14153D01*
X42069Y14149D01*
X42023Y14119D01*
X41984Y14080D01*
X41953Y14035D01*
X41931Y13985D01*
X41920Y13931D01*
X41919Y13876D01*
X41929Y13822D01*
X41949Y13771D01*
X41979Y13725D01*
X42017Y13685D01*
X42062Y13654D01*
X42113Y13632D01*
X42166Y13620D01*
X42221Y13619D01*
X42275Y13629D01*
X42280Y13631D01*
X42270Y13581D01*
X42269Y13526D01*
X42279Y13472D01*
X42299Y13421D01*
X42329Y13375D01*
X42367Y13335D01*
X42412Y13304D01*
X42463Y13282D01*
X42516Y13270D01*
X42571Y13269D01*
X42625Y13279D01*
X42676Y13298D01*
X42723Y13328D01*
X42762Y13366D01*
X42794Y13411D01*
X42816Y13461D01*
X42829Y13514D01*
X42830Y13577D01*
X42830Y12530D01*
X42037Y12530D01*
X42005Y12497D01*
X42005Y13327D01*
X41994Y13381D01*
X41973Y13432D01*
X41943Y13477D01*
X41904Y13516D01*
X41858Y13547D01*
X41808Y13568D01*
X41754Y13579D01*
X41699Y13580D01*
X41645Y13569D01*
X41594Y13549D01*
X41548Y13519D01*
X41509Y13480D01*
X41478Y13435D01*
X41456Y13385D01*
X41445Y13331D01*
X41444Y13276D01*
X41454Y13222D01*
X41474Y13171D01*
X41494Y13140D01*
X41459Y13105D01*
X41430Y13062D01*
X41430Y15659D01*
X41419Y15713D01*
X41398Y15764D01*
X41368Y15810D01*
X41329Y15849D01*
X41283Y15879D01*
X41233Y15901D01*
X41179Y15912D01*
X41124Y15912D01*
X41070Y15902D01*
X41019Y15881D01*
X40973Y15851D01*
X40934Y15813D01*
X40903Y15768D01*
X40881Y15717D01*
X40870Y15663D01*
X40869Y15608D01*
X40879Y15554D01*
X40899Y15503D01*
X40929Y15457D01*
X40967Y15418D01*
X41012Y15386D01*
X41063Y15364D01*
X41116Y15353D01*
X41171Y15351D01*
X41225Y15361D01*
X41276Y15381D01*
X41323Y15410D01*
X41362Y15448D01*
X41394Y15493D01*
X41416Y15543D01*
X41429Y15597D01*
X41430Y15659D01*
X41430Y13062D01*
X41428Y13060D01*
X41406Y13010D01*
X41395Y12956D01*
X41394Y12901D01*
X41404Y12847D01*
X41424Y12796D01*
X41454Y12750D01*
X41492Y12710D01*
X41537Y12679D01*
X41588Y12657D01*
X41641Y12645D01*
X41696Y12644D01*
X41750Y12654D01*
X41801Y12673D01*
X41848Y12703D01*
X41887Y12741D01*
X41919Y12786D01*
X41941Y12836D01*
X41954Y12889D01*
X41955Y12952D01*
X41944Y13006D01*
X41923Y13057D01*
X41905Y13084D01*
X41937Y13116D01*
X41969Y13161D01*
X41991Y13211D01*
X42004Y13264D01*
X42005Y13327D01*
X42005Y12497D01*
X41962Y12455D01*
X41949Y12455D01*
X41895Y12444D01*
X41844Y12424D01*
X41798Y12394D01*
X41759Y12355D01*
X41728Y12310D01*
X41706Y12260D01*
X41695Y12206D01*
X41694Y12151D01*
X41704Y12097D01*
X41724Y12046D01*
X41754Y12000D01*
X41792Y11960D01*
X41820Y11941D01*
X41820Y11412D01*
X41637Y11230D01*
X41630Y11230D01*
X41630Y11994D01*
X41619Y12048D01*
X41598Y12099D01*
X41568Y12145D01*
X41529Y12184D01*
X41483Y12214D01*
X41433Y12236D01*
X41379Y12247D01*
X41324Y12247D01*
X41270Y12237D01*
X41219Y12216D01*
X41173Y12186D01*
X41134Y12148D01*
X41103Y12103D01*
X41081Y12052D01*
X41070Y11998D01*
X41069Y11943D01*
X41079Y11889D01*
X41099Y11838D01*
X41129Y11792D01*
X41167Y11753D01*
X41212Y11721D01*
X41263Y11699D01*
X41316Y11688D01*
X41371Y11686D01*
X41425Y11696D01*
X41476Y11716D01*
X41523Y11745D01*
X41562Y11783D01*
X41594Y11828D01*
X41616Y11878D01*
X41629Y11932D01*
X41630Y11994D01*
X41630Y11230D01*
X41062Y11230D01*
X40880Y11412D01*
X40880Y12312D01*
X40813Y12379D01*
X40813Y13102D01*
X40802Y13156D01*
X40781Y13207D01*
X40780Y13209D01*
X40780Y16194D01*
X40769Y16248D01*
X40748Y16299D01*
X40730Y16327D01*
X40730Y17427D01*
X40719Y17481D01*
X40698Y17532D01*
X40668Y17577D01*
X40629Y17616D01*
X40583Y17647D01*
X40533Y17668D01*
X40479Y17679D01*
X40424Y17680D01*
X40370Y17669D01*
X40319Y17649D01*
X40273Y17619D01*
X40234Y17580D01*
X40203Y17535D01*
X40181Y17485D01*
X40170Y17431D01*
X40169Y17376D01*
X40179Y17322D01*
X40199Y17271D01*
X40229Y17225D01*
X40267Y17185D01*
X40312Y17154D01*
X40363Y17132D01*
X40416Y17120D01*
X40471Y17119D01*
X40525Y17129D01*
X40576Y17148D01*
X40623Y17178D01*
X40662Y17216D01*
X40694Y17261D01*
X40716Y17311D01*
X40729Y17364D01*
X40730Y17427D01*
X40730Y16327D01*
X40718Y16345D01*
X40679Y16384D01*
X40633Y16414D01*
X40583Y16436D01*
X40529Y16447D01*
X40474Y16447D01*
X40420Y16437D01*
X40369Y16416D01*
X40323Y16386D01*
X40284Y16348D01*
X40253Y16303D01*
X40231Y16252D01*
X40220Y16198D01*
X40219Y16143D01*
X40229Y16089D01*
X40249Y16038D01*
X40279Y15992D01*
X40317Y15953D01*
X40362Y15921D01*
X40413Y15899D01*
X40466Y15888D01*
X40521Y15886D01*
X40575Y15896D01*
X40626Y15916D01*
X40673Y15945D01*
X40712Y15983D01*
X40744Y16028D01*
X40766Y16078D01*
X40779Y16132D01*
X40780Y16194D01*
X40780Y13209D01*
X40751Y13252D01*
X40712Y13291D01*
X40666Y13322D01*
X40616Y13343D01*
X40562Y13354D01*
X40530Y13355D01*
X40530Y14794D01*
X40519Y14848D01*
X40498Y14899D01*
X40468Y14945D01*
X40429Y14984D01*
X40383Y15014D01*
X40333Y15036D01*
X40279Y15047D01*
X40224Y15047D01*
X40170Y15037D01*
X40119Y15016D01*
X40073Y14986D01*
X40034Y14948D01*
X40030Y14941D01*
X40030Y15359D01*
X40019Y15413D01*
X39998Y15464D01*
X39968Y15510D01*
X39929Y15549D01*
X39883Y15579D01*
X39880Y15581D01*
X39880Y16627D01*
X39869Y16681D01*
X39848Y16732D01*
X39818Y16777D01*
X39779Y16816D01*
X39733Y16847D01*
X39683Y16868D01*
X39629Y16879D01*
X39574Y16880D01*
X39520Y16869D01*
X39469Y16849D01*
X39423Y16819D01*
X39399Y16796D01*
X39379Y16816D01*
X39333Y16847D01*
X39283Y16868D01*
X39229Y16879D01*
X39174Y16880D01*
X39129Y16871D01*
X39130Y16877D01*
X39119Y16931D01*
X39098Y16982D01*
X39068Y17027D01*
X39029Y17066D01*
X38983Y17097D01*
X38933Y17118D01*
X38879Y17129D01*
X38824Y17130D01*
X38770Y17119D01*
X38719Y17099D01*
X38673Y17069D01*
X38634Y17030D01*
X38603Y16985D01*
X38581Y16935D01*
X38570Y16881D01*
X38569Y16826D01*
X38579Y16772D01*
X38599Y16721D01*
X38629Y16675D01*
X38667Y16635D01*
X38712Y16604D01*
X38763Y16582D01*
X38816Y16570D01*
X38871Y16569D01*
X38919Y16577D01*
X38919Y16576D01*
X38929Y16522D01*
X38949Y16471D01*
X38979Y16425D01*
X39017Y16385D01*
X39062Y16354D01*
X39113Y16332D01*
X39166Y16320D01*
X39221Y16319D01*
X39275Y16329D01*
X39326Y16348D01*
X39373Y16378D01*
X39400Y16403D01*
X39417Y16385D01*
X39462Y16354D01*
X39513Y16332D01*
X39566Y16320D01*
X39621Y16319D01*
X39675Y16329D01*
X39726Y16348D01*
X39773Y16378D01*
X39812Y16416D01*
X39844Y16461D01*
X39866Y16511D01*
X39879Y16564D01*
X39880Y16627D01*
X39880Y15581D01*
X39833Y15601D01*
X39779Y15612D01*
X39724Y15612D01*
X39670Y15602D01*
X39619Y15581D01*
X39573Y15551D01*
X39534Y15513D01*
X39503Y15468D01*
X39481Y15417D01*
X39470Y15363D01*
X39469Y15308D01*
X39479Y15254D01*
X39499Y15203D01*
X39529Y15157D01*
X39567Y15118D01*
X39612Y15086D01*
X39663Y15064D01*
X39716Y15053D01*
X39771Y15051D01*
X39825Y15061D01*
X39876Y15081D01*
X39923Y15110D01*
X39962Y15148D01*
X39994Y15193D01*
X40016Y15243D01*
X40029Y15297D01*
X40030Y15359D01*
X40030Y14941D01*
X40003Y14903D01*
X39981Y14852D01*
X39970Y14798D01*
X39969Y14743D01*
X39979Y14689D01*
X39999Y14638D01*
X40029Y14592D01*
X40067Y14553D01*
X40112Y14521D01*
X40163Y14499D01*
X40216Y14488D01*
X40271Y14486D01*
X40325Y14496D01*
X40376Y14516D01*
X40423Y14545D01*
X40462Y14583D01*
X40494Y14628D01*
X40516Y14678D01*
X40529Y14732D01*
X40530Y14794D01*
X40530Y13355D01*
X40507Y13355D01*
X40453Y13344D01*
X40402Y13324D01*
X40356Y13294D01*
X40317Y13255D01*
X40286Y13210D01*
X40264Y13160D01*
X40253Y13106D01*
X40252Y13051D01*
X40262Y12997D01*
X40282Y12946D01*
X40312Y12900D01*
X40350Y12860D01*
X40395Y12829D01*
X40446Y12807D01*
X40499Y12795D01*
X40554Y12794D01*
X40608Y12804D01*
X40659Y12823D01*
X40706Y12853D01*
X40745Y12891D01*
X40777Y12936D01*
X40799Y12986D01*
X40812Y13039D01*
X40813Y13102D01*
X40813Y12379D01*
X40662Y12530D01*
X39889Y12530D01*
X39911Y12561D01*
X39933Y12611D01*
X39946Y12664D01*
X39947Y12727D01*
X39936Y12781D01*
X39915Y12832D01*
X39885Y12877D01*
X39846Y12916D01*
X39800Y12947D01*
X39750Y12968D01*
X39696Y12979D01*
X39641Y12980D01*
X39587Y12969D01*
X39536Y12949D01*
X39490Y12919D01*
X39451Y12880D01*
X39420Y12835D01*
X39412Y12817D01*
X39412Y13727D01*
X39401Y13781D01*
X39380Y13832D01*
X39350Y13877D01*
X39330Y13898D01*
X39330Y15359D01*
X39319Y15413D01*
X39298Y15464D01*
X39268Y15510D01*
X39229Y15549D01*
X39183Y15579D01*
X39133Y15601D01*
X39079Y15612D01*
X39024Y15612D01*
X38970Y15602D01*
X38919Y15581D01*
X38873Y15551D01*
X38834Y15513D01*
X38803Y15468D01*
X38781Y15417D01*
X38770Y15363D01*
X38769Y15308D01*
X38779Y15254D01*
X38799Y15203D01*
X38829Y15157D01*
X38867Y15118D01*
X38912Y15086D01*
X38963Y15064D01*
X39016Y15053D01*
X39071Y15051D01*
X39125Y15061D01*
X39176Y15081D01*
X39223Y15110D01*
X39262Y15148D01*
X39294Y15193D01*
X39316Y15243D01*
X39329Y15297D01*
X39330Y15359D01*
X39330Y13898D01*
X39311Y13916D01*
X39266Y13947D01*
X39215Y13968D01*
X39161Y13979D01*
X39107Y13980D01*
X39053Y13969D01*
X39002Y13949D01*
X38956Y13919D01*
X38916Y13880D01*
X38885Y13835D01*
X38864Y13785D01*
X38852Y13731D01*
X38852Y13676D01*
X38862Y13622D01*
X38882Y13571D01*
X38912Y13525D01*
X38950Y13485D01*
X38995Y13454D01*
X39045Y13432D01*
X39099Y13420D01*
X39154Y13419D01*
X39208Y13429D01*
X39259Y13448D01*
X39305Y13478D01*
X39345Y13516D01*
X39377Y13561D01*
X39399Y13611D01*
X39411Y13664D01*
X39412Y13727D01*
X39412Y12817D01*
X39398Y12785D01*
X39387Y12731D01*
X39386Y12676D01*
X39396Y12622D01*
X39416Y12571D01*
X39443Y12530D01*
X38830Y12530D01*
X38830Y14794D01*
X38819Y14848D01*
X38798Y14899D01*
X38768Y14945D01*
X38729Y14984D01*
X38683Y15014D01*
X38633Y15036D01*
X38579Y15047D01*
X38524Y15047D01*
X38470Y15037D01*
X38419Y15016D01*
X38373Y14986D01*
X38334Y14948D01*
X38303Y14903D01*
X38281Y14852D01*
X38270Y14798D01*
X38269Y14743D01*
X38279Y14689D01*
X38299Y14638D01*
X38329Y14592D01*
X38367Y14553D01*
X38412Y14521D01*
X38463Y14499D01*
X38516Y14488D01*
X38571Y14486D01*
X38625Y14496D01*
X38676Y14516D01*
X38723Y14545D01*
X38762Y14583D01*
X38794Y14628D01*
X38816Y14678D01*
X38829Y14732D01*
X38830Y14794D01*
X38830Y12530D01*
X38205Y12530D01*
X38205Y17489D01*
X38189Y17567D01*
X38159Y17641D01*
X38115Y17707D01*
X38059Y17763D01*
X37993Y17807D01*
X37920Y17838D01*
X37842Y17854D01*
X37763Y17855D01*
X37685Y17840D01*
X37611Y17810D01*
X37544Y17767D01*
X37488Y17711D01*
X37443Y17646D01*
X37412Y17573D01*
X37395Y17495D01*
X37394Y17415D01*
X37408Y17337D01*
X37438Y17263D01*
X37481Y17197D01*
X37536Y17140D01*
X37601Y17094D01*
X37674Y17062D01*
X37751Y17045D01*
X37831Y17044D01*
X37909Y17058D01*
X37983Y17086D01*
X38050Y17129D01*
X38108Y17184D01*
X38153Y17248D01*
X38186Y17321D01*
X38203Y17398D01*
X38205Y17489D01*
X38205Y12530D01*
X37205Y12530D01*
X37205Y17489D01*
X37189Y17567D01*
X37159Y17641D01*
X37115Y17707D01*
X37059Y17763D01*
X36993Y17807D01*
X36920Y17838D01*
X36842Y17854D01*
X36763Y17855D01*
X36685Y17840D01*
X36611Y17810D01*
X36544Y17767D01*
X36488Y17711D01*
X36443Y17646D01*
X36412Y17573D01*
X36395Y17495D01*
X36394Y17415D01*
X36408Y17337D01*
X36438Y17263D01*
X36481Y17197D01*
X36536Y17140D01*
X36601Y17094D01*
X36674Y17062D01*
X36751Y17045D01*
X36831Y17044D01*
X36909Y17058D01*
X36983Y17086D01*
X37050Y17129D01*
X37108Y17184D01*
X37153Y17248D01*
X37186Y17321D01*
X37203Y17398D01*
X37205Y17489D01*
X37205Y12530D01*
X37055Y12530D01*
X37055Y13627D01*
X37044Y13681D01*
X37023Y13732D01*
X36993Y13777D01*
X36954Y13816D01*
X36908Y13847D01*
X36858Y13868D01*
X36804Y13879D01*
X36749Y13880D01*
X36730Y13876D01*
X36730Y14827D01*
X36719Y14881D01*
X36698Y14932D01*
X36668Y14977D01*
X36629Y15016D01*
X36583Y15047D01*
X36533Y15068D01*
X36479Y15079D01*
X36424Y15080D01*
X36370Y15069D01*
X36319Y15049D01*
X36273Y15019D01*
X36234Y14980D01*
X36205Y14937D01*
X36205Y17489D01*
X36189Y17567D01*
X36159Y17641D01*
X36115Y17707D01*
X36059Y17763D01*
X35993Y17807D01*
X35920Y17838D01*
X35842Y17854D01*
X35763Y17855D01*
X35685Y17840D01*
X35611Y17810D01*
X35544Y17767D01*
X35488Y17711D01*
X35443Y17646D01*
X35412Y17573D01*
X35395Y17495D01*
X35394Y17415D01*
X35408Y17337D01*
X35438Y17263D01*
X35481Y17197D01*
X35536Y17140D01*
X35601Y17094D01*
X35674Y17062D01*
X35751Y17045D01*
X35831Y17044D01*
X35909Y17058D01*
X35983Y17086D01*
X36050Y17129D01*
X36108Y17184D01*
X36153Y17248D01*
X36186Y17321D01*
X36203Y17398D01*
X36205Y17489D01*
X36205Y14937D01*
X36203Y14935D01*
X36181Y14885D01*
X36170Y14831D01*
X36169Y14776D01*
X36179Y14722D01*
X36199Y14671D01*
X36229Y14625D01*
X36267Y14585D01*
X36312Y14554D01*
X36363Y14532D01*
X36416Y14520D01*
X36471Y14519D01*
X36525Y14529D01*
X36576Y14548D01*
X36623Y14578D01*
X36662Y14616D01*
X36694Y14661D01*
X36716Y14711D01*
X36729Y14764D01*
X36730Y14827D01*
X36730Y13876D01*
X36695Y13869D01*
X36644Y13849D01*
X36598Y13819D01*
X36559Y13780D01*
X36528Y13735D01*
X36506Y13685D01*
X36495Y13631D01*
X36494Y13576D01*
X36504Y13522D01*
X36524Y13471D01*
X36554Y13425D01*
X36592Y13385D01*
X36637Y13354D01*
X36688Y13332D01*
X36741Y13320D01*
X36796Y13319D01*
X36850Y13329D01*
X36901Y13348D01*
X36948Y13378D01*
X36987Y13416D01*
X37019Y13461D01*
X37041Y13511D01*
X37054Y13564D01*
X37055Y13627D01*
X37055Y12530D01*
X36230Y12530D01*
X36230Y14327D01*
X36219Y14381D01*
X36198Y14432D01*
X36168Y14477D01*
X36129Y14516D01*
X36083Y14547D01*
X36033Y14568D01*
X35979Y14579D01*
X35924Y14580D01*
X35870Y14569D01*
X35819Y14549D01*
X35773Y14519D01*
X35734Y14480D01*
X35703Y14435D01*
X35681Y14385D01*
X35670Y14331D01*
X35669Y14276D01*
X35679Y14222D01*
X35699Y14171D01*
X35729Y14125D01*
X35767Y14085D01*
X35812Y14054D01*
X35863Y14032D01*
X35916Y14020D01*
X35971Y14019D01*
X36025Y14029D01*
X36076Y14048D01*
X36123Y14078D01*
X36162Y14116D01*
X36194Y14161D01*
X36216Y14211D01*
X36229Y14264D01*
X36230Y14327D01*
X36230Y12530D01*
X35205Y12530D01*
X35205Y17489D01*
X35189Y17567D01*
X35159Y17641D01*
X35115Y17707D01*
X35059Y17763D01*
X34993Y17807D01*
X34920Y17838D01*
X34842Y17854D01*
X34763Y17855D01*
X34685Y17840D01*
X34611Y17810D01*
X34544Y17767D01*
X34488Y17711D01*
X34443Y17646D01*
X34412Y17573D01*
X34395Y17495D01*
X34394Y17415D01*
X34408Y17337D01*
X34438Y17263D01*
X34481Y17197D01*
X34536Y17140D01*
X34601Y17094D01*
X34674Y17062D01*
X34751Y17045D01*
X34831Y17044D01*
X34909Y17058D01*
X34983Y17086D01*
X35050Y17129D01*
X35108Y17184D01*
X35153Y17248D01*
X35186Y17321D01*
X35203Y17398D01*
X35205Y17489D01*
X35205Y12530D01*
X34205Y12530D01*
X34205Y17489D01*
X34189Y17567D01*
X34159Y17641D01*
X34115Y17707D01*
X34059Y17763D01*
X33993Y17807D01*
X33920Y17838D01*
X33842Y17854D01*
X33763Y17855D01*
X33685Y17840D01*
X33611Y17810D01*
X33544Y17767D01*
X33488Y17711D01*
X33443Y17646D01*
X33412Y17573D01*
X33395Y17495D01*
X33394Y17415D01*
X33408Y17337D01*
X33438Y17263D01*
X33481Y17197D01*
X33536Y17140D01*
X33601Y17094D01*
X33674Y17062D01*
X33751Y17045D01*
X33831Y17044D01*
X33909Y17058D01*
X33983Y17086D01*
X34050Y17129D01*
X34108Y17184D01*
X34153Y17248D01*
X34186Y17321D01*
X34203Y17398D01*
X34205Y17489D01*
X34205Y12530D01*
X33675Y12530D01*
X33675Y12927D01*
X33664Y12981D01*
X33643Y13032D01*
X33613Y13077D01*
X33574Y13116D01*
X33529Y13147D01*
X33478Y13168D01*
X33424Y13179D01*
X33369Y13180D01*
X33315Y13169D01*
X33264Y13149D01*
X33218Y13119D01*
X33205Y13105D01*
X33205Y17489D01*
X33189Y17567D01*
X33159Y17641D01*
X33115Y17707D01*
X33059Y17763D01*
X32993Y17807D01*
X32920Y17838D01*
X32842Y17854D01*
X32763Y17855D01*
X32685Y17840D01*
X32611Y17810D01*
X32544Y17767D01*
X32488Y17711D01*
X32443Y17646D01*
X32412Y17573D01*
X32395Y17495D01*
X32394Y17415D01*
X32408Y17337D01*
X32438Y17263D01*
X32481Y17197D01*
X32536Y17140D01*
X32601Y17094D01*
X32674Y17062D01*
X32751Y17045D01*
X32831Y17044D01*
X32909Y17058D01*
X32983Y17086D01*
X33050Y17129D01*
X33108Y17184D01*
X33153Y17248D01*
X33186Y17321D01*
X33203Y17398D01*
X33205Y17489D01*
X33205Y13105D01*
X33179Y13080D01*
X33148Y13035D01*
X33127Y12985D01*
X33115Y12931D01*
X33114Y12876D01*
X33124Y12822D01*
X33145Y12771D01*
X33174Y12725D01*
X33212Y12685D01*
X33258Y12654D01*
X33308Y12632D01*
X33361Y12620D01*
X33416Y12619D01*
X33470Y12629D01*
X33522Y12648D01*
X33568Y12678D01*
X33608Y12716D01*
X33639Y12761D01*
X33662Y12811D01*
X33674Y12864D01*
X33675Y12927D01*
X33675Y12530D01*
X32830Y12530D01*
X32830Y14777D01*
X32819Y14831D01*
X32798Y14882D01*
X32768Y14927D01*
X32729Y14966D01*
X32683Y14997D01*
X32633Y15018D01*
X32579Y15029D01*
X32524Y15030D01*
X32470Y15019D01*
X32419Y14999D01*
X32373Y14969D01*
X32334Y14930D01*
X32303Y14885D01*
X32281Y14835D01*
X32270Y14781D01*
X32269Y14726D01*
X32279Y14672D01*
X32299Y14621D01*
X32329Y14575D01*
X32367Y14535D01*
X32412Y14504D01*
X32463Y14482D01*
X32516Y14470D01*
X32571Y14469D01*
X32625Y14479D01*
X32676Y14498D01*
X32723Y14528D01*
X32762Y14566D01*
X32794Y14611D01*
X32816Y14661D01*
X32829Y14714D01*
X32830Y14777D01*
X32830Y12530D01*
X32555Y12530D01*
X32555Y12852D01*
X32544Y12906D01*
X32523Y12957D01*
X32493Y13002D01*
X32454Y13041D01*
X32408Y13072D01*
X32358Y13093D01*
X32312Y13103D01*
X32312Y13727D01*
X32301Y13781D01*
X32280Y13832D01*
X32250Y13877D01*
X32211Y13916D01*
X32205Y13921D01*
X32205Y17186D01*
X32205Y17737D01*
X32200Y17762D01*
X32190Y17786D01*
X32176Y17807D01*
X32158Y17825D01*
X32137Y17839D01*
X32113Y17849D01*
X32088Y17854D01*
X32063Y17855D01*
X31512Y17855D01*
X31487Y17850D01*
X31463Y17840D01*
X31442Y17826D01*
X31424Y17808D01*
X31410Y17787D01*
X31400Y17763D01*
X31395Y17738D01*
X31394Y17713D01*
X31394Y17162D01*
X31399Y17137D01*
X31409Y17113D01*
X31423Y17092D01*
X31441Y17074D01*
X31462Y17060D01*
X31486Y17050D01*
X31511Y17045D01*
X31536Y17044D01*
X32087Y17044D01*
X32112Y17049D01*
X32136Y17059D01*
X32157Y17073D01*
X32175Y17091D01*
X32189Y17112D01*
X32199Y17136D01*
X32204Y17161D01*
X32205Y17186D01*
X32205Y13921D01*
X32166Y13947D01*
X32115Y13968D01*
X32061Y13979D01*
X32007Y13980D01*
X31953Y13969D01*
X31902Y13949D01*
X31856Y13919D01*
X31816Y13880D01*
X31785Y13835D01*
X31764Y13785D01*
X31752Y13731D01*
X31752Y13676D01*
X31762Y13622D01*
X31782Y13571D01*
X31812Y13525D01*
X31850Y13485D01*
X31895Y13454D01*
X31945Y13432D01*
X31999Y13420D01*
X32054Y13419D01*
X32108Y13429D01*
X32159Y13448D01*
X32205Y13478D01*
X32245Y13516D01*
X32277Y13561D01*
X32299Y13611D01*
X32311Y13664D01*
X32312Y13727D01*
X32312Y13103D01*
X32304Y13104D01*
X32249Y13105D01*
X32195Y13094D01*
X32144Y13074D01*
X32098Y13044D01*
X32059Y13005D01*
X32028Y12960D01*
X32006Y12910D01*
X31995Y12856D01*
X31994Y12801D01*
X32004Y12747D01*
X32024Y12696D01*
X32054Y12650D01*
X32092Y12610D01*
X32137Y12579D01*
X32188Y12557D01*
X32241Y12545D01*
X32296Y12544D01*
X32350Y12554D01*
X32401Y12573D01*
X32448Y12603D01*
X32487Y12641D01*
X32519Y12686D01*
X32541Y12736D01*
X32554Y12789D01*
X32555Y12852D01*
X32555Y12530D01*
X31054Y12530D01*
X31055Y12560D01*
X31044Y12614D01*
X31023Y12665D01*
X30993Y12710D01*
X30954Y12749D01*
X30908Y12780D01*
X30874Y12794D01*
X30925Y12804D01*
X30976Y12823D01*
X31023Y12853D01*
X31050Y12878D01*
X31067Y12860D01*
X31112Y12829D01*
X31163Y12807D01*
X31216Y12795D01*
X31271Y12794D01*
X31325Y12804D01*
X31376Y12823D01*
X31423Y12853D01*
X31462Y12891D01*
X31494Y12936D01*
X31500Y12948D01*
X31538Y12932D01*
X31591Y12920D01*
X31646Y12919D01*
X31700Y12929D01*
X31751Y12948D01*
X31798Y12978D01*
X31837Y13016D01*
X31869Y13061D01*
X31891Y13111D01*
X31904Y13164D01*
X31905Y13227D01*
X31894Y13281D01*
X31873Y13332D01*
X31843Y13377D01*
X31804Y13416D01*
X31758Y13447D01*
X31708Y13468D01*
X31654Y13479D01*
X31599Y13480D01*
X31545Y13469D01*
X31494Y13449D01*
X31448Y13419D01*
X31409Y13380D01*
X31378Y13335D01*
X31374Y13326D01*
X31333Y13343D01*
X31279Y13354D01*
X31224Y13355D01*
X31170Y13344D01*
X31119Y13324D01*
X31073Y13294D01*
X31049Y13271D01*
X31029Y13291D01*
X30983Y13322D01*
X30933Y13343D01*
X30879Y13354D01*
X30824Y13355D01*
X30780Y13346D01*
X30780Y16077D01*
X30769Y16131D01*
X30748Y16182D01*
X30718Y16227D01*
X30679Y16266D01*
X30633Y16297D01*
X30583Y16318D01*
X30529Y16329D01*
X30474Y16330D01*
X30420Y16319D01*
X30369Y16299D01*
X30323Y16269D01*
X30284Y16230D01*
X30253Y16185D01*
X30231Y16135D01*
X30220Y16081D01*
X30219Y16026D01*
X30229Y15972D01*
X30249Y15921D01*
X30279Y15875D01*
X30317Y15835D01*
X30362Y15804D01*
X30413Y15782D01*
X30466Y15770D01*
X30521Y15769D01*
X30575Y15779D01*
X30626Y15798D01*
X30673Y15828D01*
X30712Y15866D01*
X30744Y15911D01*
X30766Y15961D01*
X30779Y16014D01*
X30780Y16077D01*
X30780Y13346D01*
X30770Y13344D01*
X30719Y13324D01*
X30673Y13294D01*
X30634Y13255D01*
X30603Y13210D01*
X30581Y13160D01*
X30570Y13106D01*
X30569Y13051D01*
X30579Y12997D01*
X30599Y12946D01*
X30629Y12900D01*
X30667Y12860D01*
X30712Y12829D01*
X30749Y12813D01*
X30749Y12813D01*
X30695Y12802D01*
X30644Y12782D01*
X30598Y12752D01*
X30559Y12713D01*
X30528Y12668D01*
X30506Y12618D01*
X30495Y12564D01*
X30494Y12530D01*
X29212Y12530D01*
X29212Y16077D01*
X29201Y16131D01*
X29180Y16182D01*
X29150Y16227D01*
X29111Y16266D01*
X29066Y16297D01*
X29015Y16318D01*
X28961Y16329D01*
X28907Y16330D01*
X28853Y16319D01*
X28802Y16299D01*
X28756Y16269D01*
X28716Y16230D01*
X28685Y16185D01*
X28664Y16135D01*
X28652Y16081D01*
X28652Y16026D01*
X28662Y15972D01*
X28682Y15921D01*
X28712Y15875D01*
X28750Y15835D01*
X28795Y15804D01*
X28845Y15782D01*
X28899Y15770D01*
X28954Y15769D01*
X29008Y15779D01*
X29059Y15798D01*
X29105Y15828D01*
X29145Y15866D01*
X29177Y15911D01*
X29199Y15961D01*
X29211Y16014D01*
X29212Y16077D01*
X29212Y12530D01*
X29030Y12530D01*
X29030Y14909D01*
X29019Y14963D01*
X28998Y15014D01*
X28968Y15060D01*
X28929Y15099D01*
X28883Y15129D01*
X28833Y15151D01*
X28779Y15162D01*
X28724Y15162D01*
X28670Y15152D01*
X28619Y15131D01*
X28573Y15101D01*
X28534Y15063D01*
X28503Y15018D01*
X28481Y14967D01*
X28470Y14913D01*
X28469Y14858D01*
X28479Y14804D01*
X28499Y14753D01*
X28529Y14707D01*
X28567Y14668D01*
X28612Y14636D01*
X28663Y14614D01*
X28716Y14603D01*
X28771Y14601D01*
X28825Y14611D01*
X28876Y14631D01*
X28923Y14660D01*
X28962Y14698D01*
X28994Y14743D01*
X29016Y14793D01*
X29029Y14847D01*
X29030Y14909D01*
X29030Y12530D01*
X28251Y12530D01*
X28251Y14578D01*
X28242Y14627D01*
X28223Y14673D01*
X28195Y14715D01*
X28160Y14750D01*
X28190Y14779D01*
X28219Y14820D01*
X28239Y14865D01*
X28251Y14914D01*
X28251Y14971D01*
X28242Y15020D01*
X28223Y15067D01*
X28195Y15108D01*
X28160Y15144D01*
X28118Y15172D01*
X28072Y15191D01*
X28023Y15201D01*
X27973Y15202D01*
X27924Y15192D01*
X27878Y15173D01*
X27836Y15146D01*
X27830Y15140D01*
X27830Y17827D01*
X27819Y17881D01*
X27798Y17932D01*
X27768Y17977D01*
X27729Y18016D01*
X27683Y18047D01*
X27633Y18068D01*
X27579Y18079D01*
X27524Y18080D01*
X27470Y18069D01*
X27419Y18049D01*
X27373Y18019D01*
X27334Y17980D01*
X27303Y17935D01*
X27281Y17885D01*
X27270Y17831D01*
X27269Y17776D01*
X27279Y17722D01*
X27299Y17671D01*
X27329Y17625D01*
X27367Y17585D01*
X27412Y17554D01*
X27463Y17532D01*
X27516Y17520D01*
X27571Y17519D01*
X27625Y17529D01*
X27676Y17548D01*
X27723Y17578D01*
X27762Y17616D01*
X27794Y17661D01*
X27816Y17711D01*
X27829Y17764D01*
X27830Y17827D01*
X27830Y15140D01*
X27800Y15111D01*
X27799Y15110D01*
X27766Y15144D01*
X27725Y15172D01*
X27678Y15191D01*
X27629Y15201D01*
X27579Y15202D01*
X27530Y15192D01*
X27484Y15173D01*
X27442Y15146D01*
X27406Y15111D01*
X27378Y15070D01*
X27358Y15024D01*
X27348Y14975D01*
X27347Y14925D01*
X27356Y14876D01*
X27375Y14829D01*
X27402Y14787D01*
X27437Y14751D01*
X27439Y14749D01*
X27406Y14717D01*
X27378Y14676D01*
X27358Y14630D01*
X27348Y14581D01*
X27347Y14531D01*
X27356Y14482D01*
X27375Y14436D01*
X27402Y14393D01*
X27437Y14358D01*
X27478Y14329D01*
X27523Y14309D01*
X27572Y14298D01*
X27622Y14297D01*
X27672Y14306D01*
X27718Y14324D01*
X27760Y14351D01*
X27797Y14385D01*
X27800Y14389D01*
X27830Y14358D01*
X27871Y14329D01*
X27917Y14309D01*
X27966Y14298D01*
X28016Y14297D01*
X28065Y14306D01*
X28112Y14324D01*
X28154Y14351D01*
X28190Y14385D01*
X28219Y14426D01*
X28239Y14472D01*
X28251Y14521D01*
X28251Y14578D01*
X28251Y12530D01*
X26347Y12530D01*
X26347Y16777D01*
X26336Y16831D01*
X26315Y16882D01*
X26285Y16927D01*
X26246Y16966D01*
X26201Y16997D01*
X26150Y17018D01*
X26096Y17029D01*
X26080Y17029D01*
X26080Y17977D01*
X26069Y18031D01*
X26048Y18082D01*
X26018Y18127D01*
X25979Y18166D01*
X25933Y18197D01*
X25883Y18218D01*
X25829Y18229D01*
X25774Y18230D01*
X25720Y18219D01*
X25669Y18199D01*
X25646Y18184D01*
X25618Y18227D01*
X25579Y18266D01*
X25533Y18297D01*
X25483Y18318D01*
X25429Y18329D01*
X25374Y18330D01*
X25320Y18319D01*
X25269Y18299D01*
X25223Y18269D01*
X25184Y18230D01*
X25153Y18185D01*
X25131Y18135D01*
X25120Y18081D01*
X25119Y18026D01*
X25129Y17972D01*
X25149Y17921D01*
X25179Y17875D01*
X25217Y17835D01*
X25262Y17804D01*
X25313Y17782D01*
X25366Y17770D01*
X25421Y17769D01*
X25475Y17779D01*
X25526Y17798D01*
X25553Y17815D01*
X25579Y17775D01*
X25617Y17735D01*
X25662Y17704D01*
X25713Y17682D01*
X25766Y17670D01*
X25821Y17669D01*
X25875Y17679D01*
X25926Y17698D01*
X25973Y17728D01*
X26012Y17766D01*
X26044Y17811D01*
X26066Y17861D01*
X26079Y17914D01*
X26080Y17977D01*
X26080Y17029D01*
X26042Y17030D01*
X25988Y17019D01*
X25937Y16999D01*
X25891Y16969D01*
X25851Y16930D01*
X25820Y16885D01*
X25812Y16865D01*
X25812Y17427D01*
X25801Y17481D01*
X25780Y17532D01*
X25750Y17577D01*
X25711Y17616D01*
X25666Y17647D01*
X25615Y17668D01*
X25561Y17679D01*
X25507Y17680D01*
X25453Y17669D01*
X25402Y17649D01*
X25356Y17619D01*
X25316Y17580D01*
X25285Y17535D01*
X25264Y17485D01*
X25252Y17431D01*
X25252Y17376D01*
X25262Y17322D01*
X25282Y17271D01*
X25312Y17225D01*
X25350Y17185D01*
X25395Y17154D01*
X25445Y17132D01*
X25499Y17120D01*
X25554Y17119D01*
X25608Y17129D01*
X25659Y17148D01*
X25705Y17178D01*
X25745Y17216D01*
X25777Y17261D01*
X25799Y17311D01*
X25811Y17364D01*
X25812Y17427D01*
X25812Y16865D01*
X25799Y16836D01*
X25780Y16882D01*
X25750Y16927D01*
X25711Y16966D01*
X25666Y16997D01*
X25615Y17018D01*
X25561Y17029D01*
X25507Y17030D01*
X25453Y17019D01*
X25402Y16999D01*
X25356Y16969D01*
X25316Y16930D01*
X25285Y16885D01*
X25264Y16835D01*
X25252Y16781D01*
X25252Y16726D01*
X25262Y16672D01*
X25282Y16621D01*
X25312Y16575D01*
X25350Y16535D01*
X25395Y16504D01*
X25445Y16482D01*
X25499Y16470D01*
X25554Y16469D01*
X25608Y16479D01*
X25659Y16498D01*
X25705Y16528D01*
X25745Y16566D01*
X25777Y16611D01*
X25799Y16661D01*
X25800Y16664D01*
X25817Y16621D01*
X25847Y16575D01*
X25885Y16535D01*
X25930Y16504D01*
X25980Y16482D01*
X26034Y16470D01*
X26089Y16469D01*
X26143Y16479D01*
X26194Y16498D01*
X26240Y16528D01*
X26280Y16566D01*
X26312Y16611D01*
X26334Y16661D01*
X26346Y16714D01*
X26347Y16777D01*
X26347Y12530D01*
X24941Y12530D01*
X24969Y12570D01*
X24989Y12615D01*
X25001Y12664D01*
X25001Y12721D01*
X24992Y12770D01*
X24973Y12817D01*
X24945Y12858D01*
X24910Y12894D01*
X24868Y12922D01*
X24822Y12941D01*
X24802Y12945D01*
X24802Y16319D01*
X24793Y16367D01*
X24774Y16412D01*
X24747Y16453D01*
X24728Y16472D01*
X24743Y16487D01*
X24771Y16526D01*
X24790Y16571D01*
X24801Y16618D01*
X24802Y16674D01*
X24793Y16722D01*
X24774Y16767D01*
X24747Y16807D01*
X24728Y16827D01*
X24743Y16841D01*
X24771Y16881D01*
X24790Y16925D01*
X24801Y16973D01*
X24802Y17028D01*
X24793Y17076D01*
X24774Y17121D01*
X24747Y17161D01*
X24713Y17196D01*
X24672Y17223D01*
X24628Y17242D01*
X24580Y17252D01*
X24531Y17252D01*
X24483Y17243D01*
X24438Y17225D01*
X24398Y17198D01*
X24377Y17178D01*
X24358Y17196D01*
X24318Y17223D01*
X24273Y17242D01*
X24226Y17252D01*
X24177Y17252D01*
X24129Y17243D01*
X24084Y17225D01*
X24043Y17198D01*
X24022Y17178D01*
X24004Y17196D01*
X23964Y17223D01*
X23919Y17242D01*
X23871Y17252D01*
X23823Y17252D01*
X23775Y17243D01*
X23730Y17225D01*
X23689Y17198D01*
X23674Y17184D01*
X23674Y17802D01*
X23664Y17856D01*
X23643Y17907D01*
X23612Y17952D01*
X23574Y17991D01*
X23528Y18022D01*
X23478Y18043D01*
X23424Y18054D01*
X23369Y18055D01*
X23315Y18044D01*
X23264Y18024D01*
X23218Y17994D01*
X23179Y17955D01*
X23148Y17910D01*
X23126Y17860D01*
X23115Y17806D01*
X23114Y17751D01*
X23124Y17697D01*
X23144Y17646D01*
X23174Y17600D01*
X23212Y17560D01*
X23257Y17529D01*
X23307Y17507D01*
X23361Y17495D01*
X23416Y17494D01*
X23470Y17504D01*
X23521Y17523D01*
X23568Y17553D01*
X23607Y17591D01*
X23639Y17636D01*
X23661Y17686D01*
X23674Y17739D01*
X23674Y17802D01*
X23674Y17184D01*
X23654Y17164D01*
X23627Y17124D01*
X23608Y17079D01*
X23597Y17032D01*
X23597Y16983D01*
X23606Y16935D01*
X23623Y16890D01*
X23650Y16849D01*
X23671Y16827D01*
X23654Y16810D01*
X23627Y16770D01*
X23608Y16725D01*
X23597Y16677D01*
X23597Y16629D01*
X23606Y16581D01*
X23623Y16536D01*
X23650Y16495D01*
X23671Y16472D01*
X23654Y16455D01*
X23627Y16415D01*
X23608Y16371D01*
X23597Y16323D01*
X23597Y16274D01*
X23606Y16226D01*
X23623Y16181D01*
X23650Y16140D01*
X23684Y16105D01*
X23724Y16078D01*
X23768Y16058D01*
X23816Y16048D01*
X23864Y16047D01*
X23912Y16055D01*
X23958Y16073D01*
X23999Y16099D01*
X24022Y16121D01*
X24038Y16105D01*
X24078Y16078D01*
X24122Y16058D01*
X24170Y16048D01*
X24219Y16047D01*
X24267Y16055D01*
X24312Y16073D01*
X24353Y16099D01*
X24377Y16121D01*
X24392Y16105D01*
X24432Y16078D01*
X24477Y16058D01*
X24524Y16048D01*
X24573Y16047D01*
X24621Y16055D01*
X24666Y16073D01*
X24707Y16099D01*
X24743Y16132D01*
X24771Y16172D01*
X24790Y16216D01*
X24801Y16264D01*
X24802Y16319D01*
X24802Y12945D01*
X24773Y12951D01*
X24723Y12952D01*
X24674Y12942D01*
X24628Y12923D01*
X24586Y12896D01*
X24550Y12861D01*
X24549Y12860D01*
X24516Y12894D01*
X24475Y12922D01*
X24428Y12941D01*
X24379Y12951D01*
X24329Y12952D01*
X24280Y12942D01*
X24234Y12923D01*
X24192Y12896D01*
X24156Y12861D01*
X24128Y12820D01*
X24108Y12774D01*
X24098Y12725D01*
X24097Y12675D01*
X24106Y12626D01*
X24125Y12579D01*
X24152Y12537D01*
X24159Y12530D01*
X23680Y12530D01*
X23680Y15577D01*
X23669Y15631D01*
X23648Y15682D01*
X23618Y15727D01*
X23579Y15766D01*
X23533Y15797D01*
X23483Y15818D01*
X23429Y15829D01*
X23374Y15830D01*
X23369Y15829D01*
X23369Y15831D01*
X23348Y15882D01*
X23318Y15927D01*
X23279Y15966D01*
X23233Y15997D01*
X23183Y16018D01*
X23129Y16029D01*
X23074Y16030D01*
X23020Y16019D01*
X22969Y15999D01*
X22947Y15984D01*
X22947Y17277D01*
X22936Y17331D01*
X22915Y17382D01*
X22885Y17427D01*
X22846Y17466D01*
X22801Y17497D01*
X22750Y17518D01*
X22696Y17529D01*
X22642Y17530D01*
X22588Y17519D01*
X22537Y17499D01*
X22491Y17469D01*
X22451Y17430D01*
X22420Y17385D01*
X22399Y17336D01*
X22380Y17382D01*
X22350Y17427D01*
X22311Y17466D01*
X22266Y17497D01*
X22215Y17518D01*
X22161Y17529D01*
X22107Y17530D01*
X22053Y17519D01*
X22002Y17499D01*
X21956Y17469D01*
X21916Y17430D01*
X21885Y17385D01*
X21864Y17335D01*
X21852Y17281D01*
X21852Y17226D01*
X21862Y17172D01*
X21882Y17121D01*
X21912Y17075D01*
X21950Y17035D01*
X21995Y17004D01*
X22045Y16982D01*
X22099Y16970D01*
X22154Y16969D01*
X22208Y16979D01*
X22259Y16998D01*
X22305Y17028D01*
X22345Y17066D01*
X22377Y17111D01*
X22399Y17161D01*
X22400Y17164D01*
X22417Y17121D01*
X22447Y17075D01*
X22485Y17035D01*
X22530Y17004D01*
X22580Y16982D01*
X22634Y16970D01*
X22689Y16969D01*
X22743Y16979D01*
X22794Y16998D01*
X22840Y17028D01*
X22880Y17066D01*
X22912Y17111D01*
X22934Y17161D01*
X22946Y17214D01*
X22947Y17277D01*
X22947Y15984D01*
X22923Y15969D01*
X22884Y15930D01*
X22853Y15885D01*
X22831Y15835D01*
X22820Y15781D01*
X22819Y15726D01*
X22829Y15672D01*
X22849Y15621D01*
X22879Y15575D01*
X22917Y15535D01*
X22962Y15504D01*
X23013Y15482D01*
X23066Y15470D01*
X23121Y15469D01*
X23130Y15470D01*
X23149Y15421D01*
X23179Y15375D01*
X23217Y15335D01*
X23262Y15304D01*
X23313Y15282D01*
X23366Y15270D01*
X23421Y15269D01*
X23475Y15279D01*
X23526Y15298D01*
X23573Y15328D01*
X23612Y15366D01*
X23644Y15411D01*
X23666Y15461D01*
X23679Y15514D01*
X23680Y15577D01*
X23680Y12530D01*
X23590Y12530D01*
X23612Y12561D01*
X23634Y12611D01*
X23646Y12664D01*
X23647Y12727D01*
X23636Y12781D01*
X23615Y12832D01*
X23585Y12877D01*
X23546Y12916D01*
X23501Y12947D01*
X23450Y12968D01*
X23396Y12979D01*
X23342Y12980D01*
X23288Y12969D01*
X23237Y12949D01*
X23191Y12919D01*
X23151Y12880D01*
X23120Y12835D01*
X23112Y12815D01*
X23112Y13377D01*
X23101Y13431D01*
X23080Y13482D01*
X23050Y13527D01*
X23011Y13566D01*
X22966Y13597D01*
X22915Y13618D01*
X22861Y13629D01*
X22807Y13630D01*
X22753Y13619D01*
X22702Y13599D01*
X22656Y13569D01*
X22616Y13530D01*
X22585Y13485D01*
X22564Y13435D01*
X22552Y13381D01*
X22552Y13326D01*
X22562Y13272D01*
X22582Y13221D01*
X22612Y13175D01*
X22650Y13135D01*
X22695Y13104D01*
X22745Y13082D01*
X22799Y13070D01*
X22854Y13069D01*
X22908Y13079D01*
X22959Y13098D01*
X23005Y13128D01*
X23045Y13166D01*
X23077Y13211D01*
X23099Y13261D01*
X23111Y13314D01*
X23112Y13377D01*
X23112Y12815D01*
X23099Y12786D01*
X23080Y12832D01*
X23050Y12877D01*
X23011Y12916D01*
X22966Y12947D01*
X22915Y12968D01*
X22861Y12979D01*
X22807Y12980D01*
X22753Y12969D01*
X22702Y12949D01*
X22656Y12919D01*
X22616Y12880D01*
X22585Y12835D01*
X22564Y12785D01*
X22552Y12731D01*
X22552Y12676D01*
X22562Y12622D01*
X22582Y12571D01*
X22608Y12530D01*
X22490Y12530D01*
X22512Y12561D01*
X22534Y12611D01*
X22546Y12664D01*
X22547Y12727D01*
X22536Y12781D01*
X22515Y12832D01*
X22485Y12877D01*
X22446Y12916D01*
X22412Y12939D01*
X22412Y15777D01*
X22401Y15831D01*
X22380Y15882D01*
X22350Y15927D01*
X22311Y15966D01*
X22266Y15997D01*
X22215Y16018D01*
X22161Y16029D01*
X22107Y16030D01*
X22053Y16019D01*
X22002Y15999D01*
X21956Y15969D01*
X21916Y15930D01*
X21885Y15885D01*
X21864Y15835D01*
X21852Y15781D01*
X21852Y15726D01*
X21862Y15672D01*
X21882Y15621D01*
X21912Y15575D01*
X21950Y15535D01*
X21995Y15504D01*
X22045Y15482D01*
X22099Y15470D01*
X22154Y15469D01*
X22208Y15479D01*
X22259Y15498D01*
X22305Y15528D01*
X22345Y15566D01*
X22377Y15611D01*
X22399Y15661D01*
X22411Y15714D01*
X22412Y15777D01*
X22412Y12939D01*
X22401Y12947D01*
X22360Y12964D01*
X22360Y14584D01*
X22327Y14749D01*
X22263Y14905D01*
X22169Y15046D01*
X22050Y15165D01*
X21911Y15260D01*
X21847Y15286D01*
X21847Y17277D01*
X21836Y17331D01*
X21815Y17382D01*
X21785Y17427D01*
X21746Y17466D01*
X21701Y17497D01*
X21650Y17518D01*
X21596Y17529D01*
X21542Y17530D01*
X21488Y17519D01*
X21437Y17499D01*
X21391Y17469D01*
X21351Y17430D01*
X21320Y17385D01*
X21299Y17335D01*
X21287Y17281D01*
X21287Y17226D01*
X21297Y17172D01*
X21317Y17121D01*
X21347Y17075D01*
X21385Y17035D01*
X21430Y17004D01*
X21480Y16982D01*
X21534Y16970D01*
X21589Y16969D01*
X21643Y16979D01*
X21694Y16998D01*
X21740Y17028D01*
X21780Y17066D01*
X21812Y17111D01*
X21834Y17161D01*
X21846Y17214D01*
X21847Y17277D01*
X21847Y15286D01*
X21755Y15325D01*
X21590Y15359D01*
X21421Y15360D01*
X21256Y15329D01*
X21099Y15265D01*
X20958Y15173D01*
X20880Y15096D01*
X20880Y18027D01*
X20869Y18081D01*
X20848Y18132D01*
X20818Y18177D01*
X20796Y18199D01*
X20812Y18216D01*
X20844Y18261D01*
X20866Y18311D01*
X20879Y18364D01*
X20880Y18427D01*
X20869Y18481D01*
X20848Y18532D01*
X20818Y18577D01*
X20779Y18616D01*
X20733Y18647D01*
X20683Y18668D01*
X20629Y18679D01*
X20574Y18680D01*
X20520Y18669D01*
X20469Y18649D01*
X20423Y18619D01*
X20384Y18580D01*
X20353Y18535D01*
X20331Y18485D01*
X20320Y18431D01*
X20319Y18376D01*
X20329Y18322D01*
X20349Y18271D01*
X20379Y18225D01*
X20403Y18199D01*
X20384Y18180D01*
X20353Y18135D01*
X20331Y18085D01*
X20320Y18031D01*
X20319Y17976D01*
X20329Y17922D01*
X20349Y17871D01*
X20379Y17825D01*
X20417Y17785D01*
X20462Y17754D01*
X20513Y17732D01*
X20566Y17720D01*
X20621Y17719D01*
X20675Y17729D01*
X20726Y17748D01*
X20773Y17778D01*
X20812Y17816D01*
X20844Y17861D01*
X20866Y17911D01*
X20879Y17964D01*
X20880Y18027D01*
X20880Y15096D01*
X20838Y15055D01*
X20742Y14916D01*
X20723Y14872D01*
X20704Y14891D01*
X20658Y14922D01*
X20608Y14943D01*
X20554Y14954D01*
X20499Y14955D01*
X20445Y14944D01*
X20430Y14938D01*
X20430Y15477D01*
X20419Y15531D01*
X20398Y15582D01*
X20368Y15627D01*
X20329Y15666D01*
X20283Y15697D01*
X20278Y15699D01*
X20323Y15728D01*
X20362Y15766D01*
X20394Y15811D01*
X20416Y15861D01*
X20429Y15914D01*
X20430Y15977D01*
X20419Y16031D01*
X20398Y16082D01*
X20368Y16127D01*
X20329Y16166D01*
X20283Y16197D01*
X20233Y16218D01*
X20230Y16219D01*
X20230Y18077D01*
X20219Y18131D01*
X20198Y18182D01*
X20168Y18227D01*
X20129Y18266D01*
X20083Y18297D01*
X20033Y18318D01*
X19979Y18329D01*
X19924Y18330D01*
X19870Y18319D01*
X19819Y18299D01*
X19773Y18269D01*
X19734Y18230D01*
X19703Y18185D01*
X19681Y18135D01*
X19670Y18081D01*
X19669Y18026D01*
X19679Y17972D01*
X19699Y17921D01*
X19729Y17875D01*
X19767Y17835D01*
X19812Y17804D01*
X19863Y17782D01*
X19916Y17770D01*
X19971Y17769D01*
X20025Y17779D01*
X20076Y17798D01*
X20123Y17828D01*
X20162Y17866D01*
X20194Y17911D01*
X20216Y17961D01*
X20229Y18014D01*
X20230Y18077D01*
X20230Y16219D01*
X20179Y16229D01*
X20124Y16230D01*
X20070Y16219D01*
X20033Y16204D01*
X20018Y16227D01*
X19979Y16266D01*
X19933Y16297D01*
X19883Y16318D01*
X19829Y16329D01*
X19774Y16330D01*
X19720Y16319D01*
X19669Y16299D01*
X19623Y16269D01*
X19584Y16230D01*
X19553Y16185D01*
X19531Y16135D01*
X19520Y16081D01*
X19519Y16026D01*
X19529Y15972D01*
X19549Y15921D01*
X19579Y15875D01*
X19617Y15835D01*
X19631Y15826D01*
X19603Y15785D01*
X19581Y15735D01*
X19570Y15681D01*
X19569Y15626D01*
X19579Y15572D01*
X19599Y15521D01*
X19629Y15475D01*
X19667Y15435D01*
X19712Y15404D01*
X19722Y15400D01*
X19719Y15399D01*
X19673Y15369D01*
X19634Y15330D01*
X19603Y15285D01*
X19581Y15235D01*
X19570Y15181D01*
X19569Y15126D01*
X19579Y15072D01*
X19599Y15021D01*
X19629Y14975D01*
X19667Y14935D01*
X19712Y14904D01*
X19763Y14882D01*
X19816Y14870D01*
X19871Y14869D01*
X19925Y14879D01*
X19976Y14898D01*
X20023Y14928D01*
X20062Y14966D01*
X20094Y15011D01*
X20116Y15061D01*
X20129Y15114D01*
X20129Y15170D01*
X20171Y15169D01*
X20225Y15179D01*
X20276Y15198D01*
X20323Y15228D01*
X20362Y15266D01*
X20394Y15311D01*
X20416Y15361D01*
X20429Y15414D01*
X20430Y15477D01*
X20430Y14938D01*
X20394Y14924D01*
X20348Y14894D01*
X20309Y14855D01*
X20278Y14810D01*
X20256Y14760D01*
X20245Y14706D01*
X20244Y14651D01*
X20254Y14597D01*
X20274Y14546D01*
X20304Y14500D01*
X20284Y14480D01*
X20253Y14435D01*
X20231Y14385D01*
X20220Y14331D01*
X20219Y14276D01*
X20229Y14222D01*
X20249Y14171D01*
X20279Y14125D01*
X20317Y14085D01*
X20362Y14054D01*
X20413Y14032D01*
X20466Y14020D01*
X20521Y14019D01*
X20575Y14029D01*
X20626Y14048D01*
X20673Y14078D01*
X20712Y14116D01*
X20721Y14128D01*
X20731Y14104D01*
X20822Y13963D01*
X20939Y13841D01*
X21078Y13745D01*
X21232Y13678D01*
X21397Y13641D01*
X21566Y13638D01*
X21732Y13667D01*
X21889Y13728D01*
X22032Y13819D01*
X22154Y13935D01*
X22251Y14073D01*
X22319Y14227D01*
X22357Y14391D01*
X22360Y14584D01*
X22360Y12964D01*
X22350Y12968D01*
X22296Y12979D01*
X22242Y12980D01*
X22188Y12969D01*
X22137Y12949D01*
X22091Y12919D01*
X22051Y12880D01*
X22047Y12874D01*
X22047Y13377D01*
X22036Y13431D01*
X22015Y13482D01*
X21985Y13527D01*
X21946Y13566D01*
X21901Y13597D01*
X21850Y13618D01*
X21796Y13629D01*
X21742Y13630D01*
X21688Y13619D01*
X21637Y13599D01*
X21591Y13569D01*
X21551Y13530D01*
X21520Y13485D01*
X21499Y13436D01*
X21480Y13482D01*
X21450Y13527D01*
X21411Y13566D01*
X21366Y13597D01*
X21315Y13618D01*
X21261Y13629D01*
X21207Y13630D01*
X21153Y13619D01*
X21102Y13599D01*
X21056Y13569D01*
X21016Y13530D01*
X20985Y13485D01*
X20964Y13435D01*
X20952Y13381D01*
X20952Y13326D01*
X20962Y13272D01*
X20982Y13221D01*
X21012Y13175D01*
X21050Y13135D01*
X21095Y13104D01*
X21145Y13082D01*
X21199Y13070D01*
X21254Y13069D01*
X21308Y13079D01*
X21359Y13098D01*
X21405Y13128D01*
X21445Y13166D01*
X21477Y13211D01*
X21499Y13261D01*
X21500Y13264D01*
X21517Y13221D01*
X21547Y13175D01*
X21585Y13135D01*
X21630Y13104D01*
X21680Y13082D01*
X21734Y13070D01*
X21789Y13069D01*
X21843Y13079D01*
X21894Y13098D01*
X21940Y13128D01*
X21980Y13166D01*
X22012Y13211D01*
X22034Y13261D01*
X22046Y13314D01*
X22047Y13377D01*
X22047Y12874D01*
X22020Y12835D01*
X21999Y12785D01*
X21987Y12731D01*
X21987Y12676D01*
X21997Y12622D01*
X22017Y12571D01*
X22043Y12530D01*
X20530Y12530D01*
X20530Y13259D01*
X20519Y13313D01*
X20498Y13364D01*
X20468Y13410D01*
X20429Y13449D01*
X20383Y13479D01*
X20333Y13501D01*
X20279Y13512D01*
X20224Y13512D01*
X20170Y13502D01*
X20119Y13481D01*
X20073Y13451D01*
X20034Y13413D01*
X20003Y13368D01*
X19985Y13326D01*
X19973Y13357D01*
X19955Y13384D01*
X19955Y13977D01*
X19944Y14031D01*
X19923Y14082D01*
X19893Y14127D01*
X19854Y14166D01*
X19808Y14197D01*
X19758Y14218D01*
X19704Y14229D01*
X19649Y14230D01*
X19595Y14219D01*
X19544Y14199D01*
X19498Y14169D01*
X19487Y14158D01*
X19479Y14166D01*
X19433Y14197D01*
X19383Y14218D01*
X19329Y14229D01*
X19274Y14230D01*
X19220Y14219D01*
X19169Y14199D01*
X19123Y14169D01*
X19084Y14130D01*
X19053Y14085D01*
X19031Y14035D01*
X19020Y13981D01*
X19019Y13926D01*
X19029Y13872D01*
X19049Y13821D01*
X19079Y13775D01*
X19117Y13735D01*
X19162Y13704D01*
X19213Y13682D01*
X19266Y13670D01*
X19321Y13669D01*
X19375Y13679D01*
X19426Y13698D01*
X19473Y13728D01*
X19487Y13741D01*
X19492Y13735D01*
X19537Y13704D01*
X19588Y13682D01*
X19641Y13670D01*
X19696Y13669D01*
X19750Y13679D01*
X19801Y13698D01*
X19848Y13728D01*
X19887Y13766D01*
X19919Y13811D01*
X19941Y13861D01*
X19954Y13914D01*
X19955Y13977D01*
X19955Y13384D01*
X19943Y13402D01*
X19904Y13441D01*
X19858Y13472D01*
X19808Y13493D01*
X19754Y13504D01*
X19699Y13505D01*
X19645Y13494D01*
X19594Y13474D01*
X19548Y13444D01*
X19509Y13405D01*
X19478Y13360D01*
X19456Y13310D01*
X19445Y13256D01*
X19444Y13201D01*
X19454Y13147D01*
X19474Y13096D01*
X19504Y13050D01*
X19542Y13010D01*
X19587Y12979D01*
X19638Y12957D01*
X19691Y12945D01*
X19746Y12944D01*
X19800Y12954D01*
X19851Y12973D01*
X19898Y13003D01*
X19937Y13041D01*
X19969Y13086D01*
X19989Y13130D01*
X19999Y13103D01*
X20029Y13057D01*
X20067Y13018D01*
X20112Y12986D01*
X20163Y12964D01*
X20216Y12953D01*
X20271Y12951D01*
X20325Y12961D01*
X20376Y12981D01*
X20423Y13010D01*
X20462Y13048D01*
X20494Y13093D01*
X20516Y13143D01*
X20529Y13197D01*
X20530Y13259D01*
X20530Y12530D01*
X18855Y12530D01*
X18855Y14574D01*
X18826Y14719D01*
X18769Y14856D01*
X18687Y14979D01*
X18583Y15084D01*
X18460Y15167D01*
X18324Y15224D01*
X18179Y15254D01*
X18031Y15255D01*
X17885Y15227D01*
X17748Y15172D01*
X17624Y15091D01*
X17518Y14987D01*
X17435Y14865D01*
X17376Y14729D01*
X17346Y14584D01*
X17344Y14436D01*
X17370Y14290D01*
X17425Y14153D01*
X17505Y14028D01*
X17608Y13922D01*
X17729Y13837D01*
X17865Y13778D01*
X18010Y13746D01*
X18158Y13743D01*
X18304Y13769D01*
X18442Y13822D01*
X18567Y13902D01*
X18674Y14004D01*
X18759Y14125D01*
X18819Y14260D01*
X18852Y14404D01*
X18855Y14574D01*
X18855Y12530D01*
X17980Y12530D01*
X17980Y13494D01*
X17969Y13548D01*
X17948Y13599D01*
X17918Y13645D01*
X17879Y13684D01*
X17833Y13714D01*
X17783Y13736D01*
X17729Y13747D01*
X17674Y13747D01*
X17620Y13737D01*
X17569Y13716D01*
X17523Y13686D01*
X17484Y13648D01*
X17453Y13603D01*
X17431Y13552D01*
X17420Y13498D01*
X17419Y13443D01*
X17429Y13389D01*
X17449Y13338D01*
X17479Y13292D01*
X17517Y13253D01*
X17562Y13221D01*
X17613Y13199D01*
X17666Y13188D01*
X17721Y13186D01*
X17775Y13196D01*
X17826Y13216D01*
X17873Y13245D01*
X17912Y13283D01*
X17944Y13328D01*
X17966Y13378D01*
X17979Y13432D01*
X17980Y13494D01*
X17980Y12530D01*
X16954Y12530D01*
X16954Y13345D01*
X16954Y14408D01*
X16943Y14462D01*
X16922Y14513D01*
X16892Y14559D01*
X16853Y14598D01*
X16807Y14628D01*
X16757Y14650D01*
X16703Y14661D01*
X16648Y14661D01*
X16594Y14651D01*
X16543Y14630D01*
X16497Y14600D01*
X16458Y14562D01*
X16427Y14517D01*
X16405Y14466D01*
X16394Y14412D01*
X16393Y14357D01*
X16403Y14303D01*
X16423Y14252D01*
X16453Y14206D01*
X16491Y14167D01*
X16536Y14135D01*
X16587Y14113D01*
X16640Y14102D01*
X16695Y14100D01*
X16749Y14110D01*
X16800Y14130D01*
X16847Y14159D01*
X16887Y14197D01*
X16918Y14242D01*
X16940Y14292D01*
X16953Y14346D01*
X16954Y14408D01*
X16954Y13345D01*
X16943Y13399D01*
X16922Y13450D01*
X16892Y13496D01*
X16853Y13535D01*
X16807Y13565D01*
X16757Y13587D01*
X16703Y13598D01*
X16648Y13598D01*
X16594Y13588D01*
X16580Y13582D01*
X16580Y13877D01*
X16569Y13931D01*
X16548Y13982D01*
X16518Y14027D01*
X16479Y14066D01*
X16433Y14097D01*
X16383Y14118D01*
X16329Y14129D01*
X16274Y14130D01*
X16220Y14119D01*
X16169Y14099D01*
X16123Y14069D01*
X16084Y14030D01*
X16053Y13985D01*
X16031Y13935D01*
X16020Y13881D01*
X16019Y13826D01*
X16029Y13772D01*
X16049Y13721D01*
X16079Y13675D01*
X16117Y13635D01*
X16162Y13604D01*
X16213Y13582D01*
X16266Y13570D01*
X16321Y13569D01*
X16375Y13579D01*
X16426Y13598D01*
X16473Y13628D01*
X16512Y13666D01*
X16544Y13711D01*
X16566Y13761D01*
X16579Y13814D01*
X16580Y13877D01*
X16580Y13582D01*
X16543Y13567D01*
X16497Y13537D01*
X16458Y13499D01*
X16427Y13454D01*
X16405Y13403D01*
X16394Y13349D01*
X16393Y13294D01*
X16403Y13240D01*
X16423Y13189D01*
X16453Y13143D01*
X16491Y13104D01*
X16536Y13072D01*
X16587Y13050D01*
X16640Y13039D01*
X16695Y13037D01*
X16749Y13047D01*
X16800Y13067D01*
X16847Y13096D01*
X16887Y13134D01*
X16918Y13179D01*
X16940Y13229D01*
X16953Y13283D01*
X16954Y13345D01*
X16954Y12530D01*
X14180Y12530D01*
X14180Y13696D01*
X14186Y13690D01*
X14251Y13644D01*
X14324Y13612D01*
X14401Y13595D01*
X14481Y13594D01*
X14559Y13608D01*
X14633Y13636D01*
X14700Y13679D01*
X14758Y13734D01*
X14803Y13798D01*
X14836Y13871D01*
X14853Y13948D01*
X14855Y14039D01*
X14839Y14117D01*
X14809Y14191D01*
X14765Y14257D01*
X14709Y14313D01*
X14643Y14357D01*
X14570Y14388D01*
X14492Y14404D01*
X14413Y14405D01*
X14335Y14390D01*
X14261Y14360D01*
X14194Y14317D01*
X14180Y14302D01*
X14180Y14696D01*
X14186Y14690D01*
X14251Y14644D01*
X14324Y14612D01*
X14401Y14595D01*
X14481Y14594D01*
X14559Y14608D01*
X14633Y14636D01*
X14700Y14679D01*
X14758Y14734D01*
X14803Y14798D01*
X14836Y14871D01*
X14853Y14948D01*
X14855Y15039D01*
X14839Y15117D01*
X14809Y15191D01*
X14765Y15257D01*
X14709Y15313D01*
X14643Y15357D01*
X14570Y15388D01*
X14492Y15404D01*
X14413Y15405D01*
X14335Y15390D01*
X14261Y15360D01*
X14194Y15317D01*
X14180Y15302D01*
X14180Y15696D01*
X14186Y15690D01*
X14251Y15644D01*
X14324Y15612D01*
X14401Y15595D01*
X14481Y15594D01*
X14559Y15608D01*
X14633Y15636D01*
X14700Y15679D01*
X14758Y15734D01*
X14803Y15798D01*
X14836Y15871D01*
X14853Y15948D01*
X14855Y16039D01*
X14839Y16117D01*
X14809Y16191D01*
X14765Y16257D01*
X14709Y16313D01*
X14643Y16357D01*
X14570Y16388D01*
X14492Y16404D01*
X14413Y16405D01*
X14335Y16390D01*
X14261Y16360D01*
X14194Y16317D01*
X14180Y16302D01*
X14180Y16696D01*
X14186Y16690D01*
X14251Y16644D01*
X14324Y16612D01*
X14401Y16595D01*
X14481Y16594D01*
X14559Y16608D01*
X14633Y16636D01*
X14700Y16679D01*
X14758Y16734D01*
X14803Y16798D01*
X14836Y16871D01*
X14853Y16948D01*
X14855Y17039D01*
X14839Y17117D01*
X14809Y17191D01*
X14765Y17257D01*
X14709Y17313D01*
X14643Y17357D01*
X14570Y17388D01*
X14492Y17404D01*
X14413Y17405D01*
X14335Y17390D01*
X14261Y17360D01*
X14194Y17317D01*
X14180Y17302D01*
X14180Y18136D01*
X14191Y18124D01*
X14212Y18110D01*
X14236Y18100D01*
X14261Y18095D01*
X14286Y18094D01*
X14837Y18094D01*
X14862Y18099D01*
X14886Y18109D01*
X14907Y18123D01*
X14925Y18141D01*
X14939Y18162D01*
X14949Y18186D01*
X14954Y18211D01*
X14955Y18236D01*
X14955Y18770D01*
X15246Y18770D01*
X15238Y18761D01*
X15193Y18696D01*
X15162Y18623D01*
X15145Y18545D01*
X15144Y18465D01*
X15158Y18387D01*
X15188Y18313D01*
X15231Y18247D01*
X15286Y18190D01*
X15351Y18144D01*
X15424Y18112D01*
X15501Y18095D01*
X15581Y18094D01*
X15659Y18108D01*
X15733Y18136D01*
X15800Y18179D01*
X15858Y18234D01*
X15903Y18298D01*
X15936Y18371D01*
X15953Y18448D01*
X15955Y18539D01*
X15939Y18617D01*
X15909Y18691D01*
X15865Y18757D01*
X15852Y18770D01*
X19680Y18770D01*
X19699Y18721D01*
X19729Y18675D01*
X19767Y18635D01*
X19812Y18604D01*
X19863Y18582D01*
X19916Y18570D01*
X19971Y18569D01*
X20025Y18579D01*
X20076Y18598D01*
X20123Y18628D01*
X20162Y18666D01*
X20194Y18711D01*
X20216Y18761D01*
X20218Y18770D01*
X21996Y18770D01*
X21981Y18735D01*
X21970Y18681D01*
X21969Y18626D01*
X21979Y18572D01*
X21999Y18521D01*
X22029Y18475D01*
X22067Y18435D01*
X22112Y18404D01*
X22163Y18382D01*
X22216Y18370D01*
X22271Y18369D01*
X22325Y18379D01*
X22376Y18398D01*
X22423Y18428D01*
X22462Y18466D01*
X22494Y18511D01*
X22516Y18561D01*
X22529Y18614D01*
X22530Y18677D01*
X22519Y18731D01*
X22503Y18770D01*
X24314Y18770D01*
X24299Y18735D01*
X24287Y18681D01*
X24287Y18626D01*
X24297Y18572D01*
X24317Y18521D01*
X24347Y18475D01*
X24385Y18435D01*
X24430Y18404D01*
X24480Y18382D01*
X24534Y18370D01*
X24589Y18369D01*
X24643Y18379D01*
X24694Y18398D01*
X24740Y18428D01*
X24780Y18466D01*
X24812Y18511D01*
X24834Y18561D01*
X24846Y18614D01*
X24847Y18677D01*
X24836Y18731D01*
X24820Y18770D01*
X24879Y18770D01*
X24864Y18735D01*
X24852Y18681D01*
X24852Y18626D01*
X24862Y18572D01*
X24882Y18521D01*
X24912Y18475D01*
X24950Y18435D01*
X24995Y18404D01*
X25045Y18382D01*
X25099Y18370D01*
X25154Y18369D01*
X25208Y18379D01*
X25259Y18398D01*
X25305Y18428D01*
X25345Y18466D01*
X25377Y18511D01*
X25399Y18561D01*
X25411Y18614D01*
X25412Y18677D01*
X25401Y18731D01*
X25385Y18770D01*
X31549Y18770D01*
X31544Y18767D01*
X31488Y18711D01*
X31443Y18646D01*
X31412Y18573D01*
X31395Y18495D01*
X31394Y18415D01*
X31408Y18337D01*
X31438Y18263D01*
X31481Y18197D01*
X31536Y18140D01*
X31601Y18094D01*
X31674Y18062D01*
X31751Y18045D01*
X31831Y18044D01*
X31909Y18058D01*
X31983Y18086D01*
X32050Y18129D01*
X32108Y18184D01*
X32153Y18248D01*
X32186Y18321D01*
X32203Y18398D01*
X32205Y18489D01*
X32189Y18567D01*
X32159Y18641D01*
X32115Y18707D01*
X32059Y18763D01*
X32049Y18770D01*
X33549Y18770D01*
X33544Y18767D01*
X33488Y18711D01*
X33443Y18646D01*
X33412Y18573D01*
X33395Y18495D01*
X33394Y18415D01*
X33408Y18337D01*
X33438Y18263D01*
X33481Y18197D01*
X33536Y18140D01*
X33601Y18094D01*
X33674Y18062D01*
X33751Y18045D01*
X33831Y18044D01*
X33909Y18058D01*
X33983Y18086D01*
X34050Y18129D01*
X34108Y18184D01*
X34153Y18248D01*
X34186Y18321D01*
X34203Y18398D01*
X34205Y18489D01*
X34189Y18567D01*
X34159Y18641D01*
X34115Y18707D01*
X34059Y18763D01*
X34049Y18770D01*
X34549Y18770D01*
X34544Y18767D01*
X34488Y18711D01*
X34443Y18646D01*
X34412Y18573D01*
X34395Y18495D01*
X34394Y18415D01*
X34408Y18337D01*
X34438Y18263D01*
X34481Y18197D01*
X34536Y18140D01*
X34601Y18094D01*
X34674Y18062D01*
X34751Y18045D01*
X34831Y18044D01*
X34909Y18058D01*
X34983Y18086D01*
X35050Y18129D01*
X35108Y18184D01*
X35153Y18248D01*
X35186Y18321D01*
X35203Y18398D01*
X35205Y18489D01*
X35189Y18567D01*
X35159Y18641D01*
X35115Y18707D01*
X35059Y18763D01*
X35049Y18770D01*
X35549Y18770D01*
X35544Y18767D01*
X35488Y18711D01*
X35443Y18646D01*
X35412Y18573D01*
X35395Y18495D01*
X35394Y18415D01*
X35408Y18337D01*
X35438Y18263D01*
X35481Y18197D01*
X35536Y18140D01*
X35601Y18094D01*
X35674Y18062D01*
X35751Y18045D01*
X35831Y18044D01*
X35909Y18058D01*
X35983Y18086D01*
X36050Y18129D01*
X36108Y18184D01*
X36153Y18248D01*
X36186Y18321D01*
X36203Y18398D01*
X36205Y18489D01*
X36189Y18567D01*
X36159Y18641D01*
X36115Y18707D01*
X36059Y18763D01*
X36049Y18770D01*
X36549Y18770D01*
X36544Y18767D01*
X36488Y18711D01*
X36443Y18646D01*
X36412Y18573D01*
X36395Y18495D01*
X36394Y18415D01*
X36408Y18337D01*
X36438Y18263D01*
X36481Y18197D01*
X36536Y18140D01*
X36601Y18094D01*
X36674Y18062D01*
X36751Y18045D01*
X36831Y18044D01*
X36909Y18058D01*
X36983Y18086D01*
X37050Y18129D01*
X37108Y18184D01*
X37153Y18248D01*
X37186Y18321D01*
X37203Y18398D01*
X37205Y18489D01*
X37189Y18567D01*
X37159Y18641D01*
X37115Y18707D01*
X37059Y18763D01*
X37049Y18770D01*
X37549Y18770D01*
X37544Y18767D01*
X37488Y18711D01*
X37443Y18646D01*
X37412Y18573D01*
X37395Y18495D01*
X37394Y18415D01*
X37408Y18337D01*
X37438Y18263D01*
X37481Y18197D01*
X37536Y18140D01*
X37601Y18094D01*
X37674Y18062D01*
X37751Y18045D01*
X37831Y18044D01*
X37909Y18058D01*
X37983Y18086D01*
X38050Y18129D01*
X38108Y18184D01*
X38153Y18248D01*
X38186Y18321D01*
X38203Y18398D01*
X38205Y18489D01*
X38189Y18567D01*
X38159Y18641D01*
X38115Y18707D01*
X38059Y18763D01*
X38049Y18770D01*
X49920Y18770D01*
X49920Y12530D01*
G54D10*
G36*
X50720Y10802D02*
X50709Y10813D01*
X50643Y10857D01*
X50570Y10888D01*
X50492Y10904D01*
X50413Y10905D01*
X50335Y10890D01*
X50261Y10860D01*
X50194Y10817D01*
X50138Y10761D01*
X50093Y10696D01*
X50062Y10623D01*
X50045Y10545D01*
X50044Y10465D01*
X50058Y10387D01*
X50088Y10313D01*
X50131Y10247D01*
X50147Y10230D01*
X49753Y10230D01*
X49758Y10234D01*
X49803Y10298D01*
X49836Y10371D01*
X49853Y10448D01*
X49855Y10539D01*
X49855Y11539D01*
X49839Y11617D01*
X49809Y11691D01*
X49765Y11757D01*
X49709Y11813D01*
X49643Y11857D01*
X49570Y11888D01*
X49492Y11904D01*
X49413Y11905D01*
X49335Y11890D01*
X49261Y11860D01*
X49194Y11817D01*
X49138Y11761D01*
X49093Y11696D01*
X49062Y11623D01*
X49045Y11545D01*
X49044Y11465D01*
X49058Y11387D01*
X49088Y11313D01*
X49131Y11247D01*
X49186Y11190D01*
X49251Y11144D01*
X49324Y11112D01*
X49401Y11095D01*
X49481Y11094D01*
X49559Y11108D01*
X49633Y11136D01*
X49700Y11179D01*
X49758Y11234D01*
X49803Y11298D01*
X49836Y11371D01*
X49853Y11448D01*
X49855Y11539D01*
X49855Y10539D01*
X49839Y10617D01*
X49809Y10691D01*
X49765Y10757D01*
X49709Y10813D01*
X49643Y10857D01*
X49570Y10888D01*
X49492Y10904D01*
X49413Y10905D01*
X49335Y10890D01*
X49261Y10860D01*
X49194Y10817D01*
X49138Y10761D01*
X49093Y10696D01*
X49062Y10623D01*
X49045Y10545D01*
X49044Y10465D01*
X49058Y10387D01*
X49088Y10313D01*
X49131Y10247D01*
X49147Y10230D01*
X48876Y10230D01*
X48879Y10239D01*
X48880Y10302D01*
X48869Y10356D01*
X48848Y10407D01*
X48818Y10452D01*
X48779Y10491D01*
X48733Y10522D01*
X48683Y10543D01*
X48629Y10554D01*
X48574Y10555D01*
X48520Y10544D01*
X48469Y10524D01*
X48423Y10494D01*
X48384Y10455D01*
X48353Y10410D01*
X48331Y10360D01*
X48320Y10306D01*
X48319Y10251D01*
X48323Y10230D01*
X47055Y10230D01*
X47055Y10677D01*
X47044Y10731D01*
X47023Y10782D01*
X46993Y10827D01*
X46954Y10866D01*
X46908Y10897D01*
X46858Y10918D01*
X46804Y10929D01*
X46749Y10930D01*
X46695Y10919D01*
X46644Y10899D01*
X46598Y10869D01*
X46559Y10830D01*
X46528Y10785D01*
X46506Y10735D01*
X46495Y10681D01*
X46494Y10626D01*
X46504Y10572D01*
X46524Y10521D01*
X46554Y10475D01*
X46592Y10435D01*
X46637Y10404D01*
X46688Y10382D01*
X46741Y10370D01*
X46796Y10369D01*
X46850Y10379D01*
X46901Y10398D01*
X46948Y10428D01*
X46987Y10466D01*
X47019Y10511D01*
X47041Y10561D01*
X47054Y10614D01*
X47055Y10677D01*
X47055Y10230D01*
X46030Y10230D01*
X46030Y10627D01*
X46019Y10681D01*
X45998Y10732D01*
X45968Y10777D01*
X45929Y10816D01*
X45883Y10847D01*
X45833Y10868D01*
X45779Y10879D01*
X45730Y10880D01*
X45730Y11227D01*
X45719Y11281D01*
X45698Y11332D01*
X45668Y11377D01*
X45629Y11416D01*
X45583Y11447D01*
X45533Y11468D01*
X45479Y11479D01*
X45424Y11480D01*
X45370Y11469D01*
X45319Y11449D01*
X45273Y11419D01*
X45234Y11380D01*
X45203Y11335D01*
X45181Y11285D01*
X45170Y11231D01*
X45170Y11226D01*
X45169Y11231D01*
X45148Y11282D01*
X45118Y11327D01*
X45079Y11366D01*
X45033Y11397D01*
X44983Y11418D01*
X44929Y11429D01*
X44874Y11430D01*
X44820Y11419D01*
X44769Y11399D01*
X44723Y11369D01*
X44684Y11330D01*
X44666Y11304D01*
X44633Y11318D01*
X44579Y11329D01*
X44524Y11330D01*
X44470Y11319D01*
X44433Y11304D01*
X44418Y11327D01*
X44379Y11366D01*
X44333Y11397D01*
X44283Y11418D01*
X44229Y11429D01*
X44174Y11430D01*
X44120Y11419D01*
X44069Y11399D01*
X44023Y11369D01*
X43984Y11330D01*
X43953Y11285D01*
X43931Y11235D01*
X43920Y11181D01*
X43919Y11126D01*
X43929Y11072D01*
X43949Y11021D01*
X43979Y10975D01*
X44017Y10935D01*
X44062Y10904D01*
X44113Y10882D01*
X44166Y10870D01*
X44221Y10869D01*
X44275Y10879D01*
X44316Y10894D01*
X44329Y10875D01*
X44367Y10835D01*
X44412Y10804D01*
X44463Y10782D01*
X44516Y10770D01*
X44571Y10769D01*
X44625Y10779D01*
X44676Y10798D01*
X44723Y10828D01*
X44762Y10866D01*
X44783Y10895D01*
X44813Y10882D01*
X44866Y10870D01*
X44921Y10869D01*
X44975Y10879D01*
X45026Y10898D01*
X45073Y10928D01*
X45112Y10966D01*
X45144Y11011D01*
X45166Y11061D01*
X45179Y11114D01*
X45179Y11123D01*
X45179Y11122D01*
X45199Y11071D01*
X45229Y11025D01*
X45267Y10985D01*
X45312Y10954D01*
X45363Y10932D01*
X45416Y10920D01*
X45471Y10919D01*
X45525Y10929D01*
X45576Y10948D01*
X45623Y10978D01*
X45662Y11016D01*
X45694Y11061D01*
X45716Y11111D01*
X45729Y11164D01*
X45730Y11227D01*
X45730Y10880D01*
X45724Y10880D01*
X45670Y10869D01*
X45619Y10849D01*
X45573Y10819D01*
X45534Y10780D01*
X45503Y10735D01*
X45481Y10685D01*
X45470Y10631D01*
X45469Y10576D01*
X45479Y10522D01*
X45499Y10471D01*
X45529Y10425D01*
X45567Y10385D01*
X45612Y10354D01*
X45663Y10332D01*
X45716Y10320D01*
X45771Y10319D01*
X45825Y10329D01*
X45876Y10348D01*
X45923Y10378D01*
X45962Y10416D01*
X45994Y10461D01*
X46016Y10511D01*
X46029Y10564D01*
X46030Y10627D01*
X46030Y10230D01*
X43830Y10230D01*
X43830Y11127D01*
X43819Y11181D01*
X43798Y11232D01*
X43768Y11277D01*
X43729Y11316D01*
X43683Y11347D01*
X43633Y11368D01*
X43579Y11379D01*
X43524Y11380D01*
X43470Y11369D01*
X43419Y11349D01*
X43390Y11330D01*
X43354Y11366D01*
X43308Y11397D01*
X43258Y11418D01*
X43204Y11429D01*
X43149Y11430D01*
X43095Y11419D01*
X43044Y11399D01*
X42998Y11369D01*
X42959Y11330D01*
X42928Y11285D01*
X42906Y11235D01*
X42895Y11181D01*
X42894Y11126D01*
X42904Y11072D01*
X42924Y11021D01*
X42954Y10975D01*
X42992Y10935D01*
X43037Y10904D01*
X43088Y10882D01*
X43141Y10870D01*
X43196Y10869D01*
X43250Y10879D01*
X43301Y10898D01*
X43334Y10919D01*
X43367Y10885D01*
X43412Y10854D01*
X43463Y10832D01*
X43516Y10820D01*
X43571Y10819D01*
X43625Y10829D01*
X43676Y10848D01*
X43723Y10878D01*
X43762Y10916D01*
X43794Y10961D01*
X43816Y11011D01*
X43829Y11064D01*
X43830Y11127D01*
X43830Y10230D01*
X41679Y10230D01*
X41680Y10277D01*
X41669Y10331D01*
X41648Y10382D01*
X41618Y10427D01*
X41579Y10466D01*
X41533Y10497D01*
X41483Y10518D01*
X41429Y10529D01*
X41374Y10530D01*
X41320Y10519D01*
X41269Y10499D01*
X41223Y10469D01*
X41184Y10430D01*
X41153Y10385D01*
X41131Y10335D01*
X41120Y10281D01*
X41119Y10230D01*
X40823Y10230D01*
X40827Y10236D01*
X40849Y10286D01*
X40862Y10339D01*
X40863Y10402D01*
X40852Y10456D01*
X40831Y10507D01*
X40801Y10552D01*
X40762Y10591D01*
X40716Y10622D01*
X40666Y10643D01*
X40612Y10654D01*
X40557Y10655D01*
X40503Y10644D01*
X40452Y10624D01*
X40406Y10594D01*
X40367Y10555D01*
X40336Y10510D01*
X40314Y10460D01*
X40303Y10406D01*
X40302Y10351D01*
X40312Y10297D01*
X40332Y10246D01*
X40343Y10230D01*
X39997Y10230D01*
X39997Y10777D01*
X39986Y10831D01*
X39965Y10882D01*
X39935Y10927D01*
X39896Y10966D01*
X39850Y10997D01*
X39805Y11016D01*
X39805Y11977D01*
X39794Y12031D01*
X39773Y12082D01*
X39743Y12127D01*
X39704Y12166D01*
X39658Y12197D01*
X39608Y12218D01*
X39554Y12229D01*
X39499Y12230D01*
X39445Y12219D01*
X39394Y12199D01*
X39348Y12169D01*
X39309Y12130D01*
X39278Y12085D01*
X39256Y12035D01*
X39245Y11981D01*
X39244Y11926D01*
X39254Y11872D01*
X39274Y11821D01*
X39304Y11775D01*
X39342Y11735D01*
X39387Y11704D01*
X39438Y11682D01*
X39491Y11670D01*
X39546Y11669D01*
X39600Y11679D01*
X39651Y11698D01*
X39698Y11728D01*
X39737Y11766D01*
X39769Y11811D01*
X39791Y11861D01*
X39804Y11914D01*
X39805Y11977D01*
X39805Y11016D01*
X39800Y11018D01*
X39746Y11029D01*
X39691Y11030D01*
X39637Y11019D01*
X39586Y10999D01*
X39540Y10969D01*
X39501Y10930D01*
X39470Y10885D01*
X39448Y10835D01*
X39437Y10781D01*
X39436Y10726D01*
X39446Y10672D01*
X39466Y10621D01*
X39496Y10575D01*
X39534Y10535D01*
X39579Y10504D01*
X39630Y10482D01*
X39683Y10470D01*
X39738Y10469D01*
X39792Y10479D01*
X39843Y10498D01*
X39890Y10528D01*
X39929Y10566D01*
X39961Y10611D01*
X39983Y10661D01*
X39996Y10714D01*
X39997Y10777D01*
X39997Y10230D01*
X38947Y10230D01*
X38947Y11777D01*
X38936Y11831D01*
X38915Y11882D01*
X38885Y11927D01*
X38846Y11966D01*
X38800Y11997D01*
X38750Y12018D01*
X38696Y12029D01*
X38641Y12030D01*
X38587Y12019D01*
X38536Y11999D01*
X38490Y11969D01*
X38451Y11930D01*
X38420Y11885D01*
X38398Y11835D01*
X38387Y11781D01*
X38386Y11726D01*
X38396Y11672D01*
X38416Y11621D01*
X38446Y11575D01*
X38484Y11535D01*
X38529Y11504D01*
X38580Y11482D01*
X38633Y11470D01*
X38688Y11469D01*
X38742Y11479D01*
X38793Y11498D01*
X38840Y11528D01*
X38879Y11566D01*
X38911Y11611D01*
X38933Y11661D01*
X38946Y11714D01*
X38947Y11777D01*
X38947Y10230D01*
X32855Y10230D01*
X32855Y10939D01*
X32839Y11017D01*
X32809Y11091D01*
X32765Y11157D01*
X32709Y11213D01*
X32643Y11257D01*
X32570Y11288D01*
X32492Y11304D01*
X32413Y11305D01*
X32335Y11290D01*
X32261Y11260D01*
X32194Y11217D01*
X32138Y11161D01*
X32093Y11096D01*
X32062Y11023D01*
X32045Y10945D01*
X32044Y10865D01*
X32058Y10787D01*
X32088Y10713D01*
X32131Y10647D01*
X32186Y10590D01*
X32251Y10544D01*
X32324Y10512D01*
X32401Y10495D01*
X32481Y10494D01*
X32559Y10508D01*
X32633Y10536D01*
X32700Y10579D01*
X32758Y10634D01*
X32803Y10698D01*
X32836Y10771D01*
X32853Y10848D01*
X32855Y10939D01*
X32855Y10230D01*
X31855Y10230D01*
X31855Y10636D01*
X31855Y11187D01*
X31850Y11212D01*
X31840Y11236D01*
X31826Y11257D01*
X31808Y11275D01*
X31787Y11289D01*
X31763Y11299D01*
X31738Y11304D01*
X31713Y11305D01*
X31162Y11305D01*
X31137Y11300D01*
X31113Y11290D01*
X31092Y11276D01*
X31074Y11258D01*
X31060Y11237D01*
X31050Y11213D01*
X31045Y11188D01*
X31044Y11163D01*
X31044Y10612D01*
X31049Y10587D01*
X31059Y10563D01*
X31073Y10542D01*
X31091Y10524D01*
X31112Y10510D01*
X31136Y10500D01*
X31161Y10495D01*
X31186Y10494D01*
X31737Y10494D01*
X31762Y10499D01*
X31786Y10509D01*
X31807Y10523D01*
X31825Y10541D01*
X31839Y10562D01*
X31849Y10586D01*
X31854Y10611D01*
X31855Y10636D01*
X31855Y10230D01*
X30355Y10230D01*
X30355Y11939D01*
X30339Y12017D01*
X30309Y12091D01*
X30265Y12157D01*
X30209Y12213D01*
X30143Y12257D01*
X30070Y12288D01*
X29992Y12304D01*
X29913Y12305D01*
X29835Y12290D01*
X29761Y12260D01*
X29694Y12217D01*
X29638Y12161D01*
X29593Y12096D01*
X29562Y12023D01*
X29545Y11945D01*
X29544Y11865D01*
X29558Y11787D01*
X29588Y11713D01*
X29631Y11647D01*
X29686Y11590D01*
X29751Y11544D01*
X29824Y11512D01*
X29901Y11495D01*
X29981Y11494D01*
X30059Y11508D01*
X30133Y11536D01*
X30200Y11579D01*
X30258Y11634D01*
X30303Y11698D01*
X30336Y11771D01*
X30353Y11848D01*
X30355Y11939D01*
X30355Y10230D01*
X24680Y10230D01*
X24680Y11327D01*
X24669Y11381D01*
X24648Y11432D01*
X24618Y11477D01*
X24579Y11516D01*
X24533Y11547D01*
X24483Y11568D01*
X24429Y11579D01*
X24374Y11580D01*
X24320Y11569D01*
X24269Y11549D01*
X24223Y11519D01*
X24184Y11480D01*
X24153Y11435D01*
X24131Y11385D01*
X24120Y11331D01*
X24119Y11276D01*
X24129Y11222D01*
X24149Y11171D01*
X24179Y11125D01*
X24217Y11085D01*
X24262Y11054D01*
X24313Y11032D01*
X24366Y11020D01*
X24421Y11019D01*
X24475Y11029D01*
X24526Y11048D01*
X24573Y11078D01*
X24612Y11116D01*
X24644Y11161D01*
X24666Y11211D01*
X24679Y11264D01*
X24680Y11327D01*
X24680Y10230D01*
X19480Y10230D01*
X19480Y11927D01*
X19469Y11981D01*
X19448Y12032D01*
X19418Y12077D01*
X19379Y12116D01*
X19333Y12147D01*
X19283Y12168D01*
X19229Y12179D01*
X19174Y12180D01*
X19120Y12169D01*
X19069Y12149D01*
X19023Y12119D01*
X18984Y12080D01*
X18953Y12035D01*
X18931Y11985D01*
X18920Y11931D01*
X18919Y11876D01*
X18929Y11822D01*
X18949Y11771D01*
X18979Y11725D01*
X19017Y11685D01*
X19062Y11654D01*
X19113Y11632D01*
X19166Y11620D01*
X19221Y11619D01*
X19275Y11629D01*
X19326Y11648D01*
X19373Y11678D01*
X19412Y11716D01*
X19444Y11761D01*
X19466Y11811D01*
X19479Y11864D01*
X19480Y11927D01*
X19480Y10230D01*
X15853Y10230D01*
X15858Y10234D01*
X15903Y10298D01*
X15936Y10371D01*
X15953Y10448D01*
X15955Y10539D01*
X15939Y10617D01*
X15909Y10691D01*
X15865Y10757D01*
X15809Y10813D01*
X15743Y10857D01*
X15670Y10888D01*
X15592Y10904D01*
X15530Y10905D01*
X15530Y11477D01*
X15519Y11531D01*
X15498Y11582D01*
X15468Y11627D01*
X15429Y11666D01*
X15383Y11697D01*
X15333Y11718D01*
X15279Y11729D01*
X15224Y11730D01*
X15170Y11719D01*
X15119Y11699D01*
X15073Y11669D01*
X15034Y11630D01*
X15003Y11585D01*
X14981Y11535D01*
X14970Y11481D01*
X14969Y11426D01*
X14979Y11372D01*
X14999Y11321D01*
X15029Y11275D01*
X15067Y11235D01*
X15112Y11204D01*
X15163Y11182D01*
X15216Y11170D01*
X15271Y11169D01*
X15325Y11179D01*
X15376Y11198D01*
X15423Y11228D01*
X15462Y11266D01*
X15494Y11311D01*
X15516Y11361D01*
X15529Y11414D01*
X15530Y11477D01*
X15530Y10905D01*
X15513Y10905D01*
X15435Y10890D01*
X15361Y10860D01*
X15294Y10817D01*
X15238Y10761D01*
X15193Y10696D01*
X15162Y10623D01*
X15145Y10545D01*
X15144Y10465D01*
X15158Y10387D01*
X15188Y10313D01*
X15231Y10247D01*
X15247Y10230D01*
X14955Y10230D01*
X14955Y10236D01*
X14955Y10787D01*
X14950Y10812D01*
X14940Y10836D01*
X14926Y10857D01*
X14908Y10875D01*
X14887Y10889D01*
X14863Y10899D01*
X14838Y10904D01*
X14813Y10905D01*
X14262Y10905D01*
X14237Y10900D01*
X14213Y10890D01*
X14192Y10876D01*
X14180Y10863D01*
X14180Y12370D01*
X24106Y12370D01*
X24098Y12331D01*
X24097Y12281D01*
X24106Y12232D01*
X24125Y12186D01*
X24152Y12143D01*
X24187Y12108D01*
X24228Y12079D01*
X24273Y12059D01*
X24322Y12048D01*
X24372Y12047D01*
X24422Y12056D01*
X24468Y12074D01*
X24510Y12101D01*
X24547Y12135D01*
X24550Y12139D01*
X24580Y12108D01*
X24621Y12079D01*
X24667Y12059D01*
X24716Y12048D01*
X24766Y12047D01*
X24815Y12056D01*
X24862Y12074D01*
X24904Y12101D01*
X24940Y12135D01*
X24969Y12176D01*
X24989Y12222D01*
X25001Y12271D01*
X25001Y12328D01*
X24993Y12370D01*
X30546Y12370D01*
X30554Y12358D01*
X30592Y12318D01*
X30637Y12287D01*
X30688Y12265D01*
X30741Y12253D01*
X30796Y12252D01*
X30850Y12262D01*
X30901Y12281D01*
X30948Y12311D01*
X30987Y12349D01*
X31002Y12370D01*
X40596Y12370D01*
X40720Y12246D01*
X40720Y11370D01*
X40716Y11372D01*
X40666Y11393D01*
X40612Y11404D01*
X40557Y11405D01*
X40503Y11394D01*
X40452Y11374D01*
X40406Y11344D01*
X40367Y11305D01*
X40336Y11260D01*
X40314Y11210D01*
X40303Y11156D01*
X40302Y11101D01*
X40312Y11047D01*
X40332Y10996D01*
X40362Y10950D01*
X40400Y10910D01*
X40445Y10879D01*
X40496Y10857D01*
X40549Y10845D01*
X40604Y10844D01*
X40658Y10854D01*
X40709Y10873D01*
X40756Y10903D01*
X40795Y10941D01*
X40827Y10986D01*
X40849Y11036D01*
X40862Y11089D01*
X40863Y11152D01*
X40852Y11206D01*
X40847Y11219D01*
X40996Y11070D01*
X41703Y11070D01*
X41980Y11346D01*
X41980Y11894D01*
X41996Y11894D01*
X42050Y11904D01*
X42101Y11923D01*
X42148Y11953D01*
X42162Y11966D01*
X42167Y11960D01*
X42212Y11929D01*
X42263Y11907D01*
X42316Y11895D01*
X42371Y11894D01*
X42425Y11904D01*
X42476Y11923D01*
X42523Y11953D01*
X42562Y11991D01*
X42594Y12036D01*
X42616Y12086D01*
X42629Y12139D01*
X42630Y12202D01*
X42619Y12256D01*
X42598Y12307D01*
X42568Y12352D01*
X42550Y12370D01*
X42798Y12370D01*
X42784Y12355D01*
X42753Y12310D01*
X42731Y12260D01*
X42720Y12206D01*
X42719Y12151D01*
X42729Y12097D01*
X42749Y12046D01*
X42779Y12000D01*
X42817Y11960D01*
X42862Y11929D01*
X42913Y11907D01*
X42966Y11895D01*
X43021Y11894D01*
X43075Y11904D01*
X43126Y11923D01*
X43173Y11953D01*
X43212Y11991D01*
X43244Y12036D01*
X43266Y12086D01*
X43279Y12139D01*
X43280Y12202D01*
X43269Y12256D01*
X43248Y12307D01*
X43218Y12352D01*
X43200Y12370D01*
X44284Y12370D01*
X44278Y12360D01*
X44256Y12310D01*
X44245Y12256D01*
X44244Y12201D01*
X44254Y12147D01*
X44274Y12096D01*
X44304Y12050D01*
X44342Y12010D01*
X44387Y11979D01*
X44438Y11957D01*
X44491Y11945D01*
X44546Y11944D01*
X44600Y11954D01*
X44651Y11973D01*
X44698Y12003D01*
X44737Y12041D01*
X44769Y12086D01*
X44791Y12136D01*
X44804Y12189D01*
X44805Y12252D01*
X44794Y12306D01*
X44773Y12357D01*
X44764Y12370D01*
X45396Y12370D01*
X45696Y12070D01*
X46203Y12070D01*
X46503Y12370D01*
X50080Y12370D01*
X50080Y18770D01*
X50720Y18770D01*
X50720Y17900D01*
X50720Y11905D01*
X50713Y11905D01*
X50162Y11905D01*
X50137Y11900D01*
X50113Y11890D01*
X50092Y11876D01*
X50074Y11858D01*
X50060Y11837D01*
X50050Y11813D01*
X50045Y11788D01*
X50044Y11763D01*
X50044Y11212D01*
X50049Y11187D01*
X50059Y11163D01*
X50073Y11142D01*
X50091Y11124D01*
X50112Y11110D01*
X50136Y11100D01*
X50161Y11095D01*
X50186Y11094D01*
X50720Y11094D01*
X50720Y10802D01*
X50720Y10802D01*
G37*
G54D18*
X50720Y10802D02*
X50709Y10813D01*
X50643Y10857D01*
X50570Y10888D01*
X50492Y10904D01*
X50413Y10905D01*
X50335Y10890D01*
X50261Y10860D01*
X50194Y10817D01*
X50138Y10761D01*
X50093Y10696D01*
X50062Y10623D01*
X50045Y10545D01*
X50044Y10465D01*
X50058Y10387D01*
X50088Y10313D01*
X50131Y10247D01*
X50147Y10230D01*
X49753Y10230D01*
X49758Y10234D01*
X49803Y10298D01*
X49836Y10371D01*
X49853Y10448D01*
X49855Y10539D01*
X49855Y11539D01*
X49839Y11617D01*
X49809Y11691D01*
X49765Y11757D01*
X49709Y11813D01*
X49643Y11857D01*
X49570Y11888D01*
X49492Y11904D01*
X49413Y11905D01*
X49335Y11890D01*
X49261Y11860D01*
X49194Y11817D01*
X49138Y11761D01*
X49093Y11696D01*
X49062Y11623D01*
X49045Y11545D01*
X49044Y11465D01*
X49058Y11387D01*
X49088Y11313D01*
X49131Y11247D01*
X49186Y11190D01*
X49251Y11144D01*
X49324Y11112D01*
X49401Y11095D01*
X49481Y11094D01*
X49559Y11108D01*
X49633Y11136D01*
X49700Y11179D01*
X49758Y11234D01*
X49803Y11298D01*
X49836Y11371D01*
X49853Y11448D01*
X49855Y11539D01*
X49855Y10539D01*
X49839Y10617D01*
X49809Y10691D01*
X49765Y10757D01*
X49709Y10813D01*
X49643Y10857D01*
X49570Y10888D01*
X49492Y10904D01*
X49413Y10905D01*
X49335Y10890D01*
X49261Y10860D01*
X49194Y10817D01*
X49138Y10761D01*
X49093Y10696D01*
X49062Y10623D01*
X49045Y10545D01*
X49044Y10465D01*
X49058Y10387D01*
X49088Y10313D01*
X49131Y10247D01*
X49147Y10230D01*
X48876Y10230D01*
X48879Y10239D01*
X48880Y10302D01*
X48869Y10356D01*
X48848Y10407D01*
X48818Y10452D01*
X48779Y10491D01*
X48733Y10522D01*
X48683Y10543D01*
X48629Y10554D01*
X48574Y10555D01*
X48520Y10544D01*
X48469Y10524D01*
X48423Y10494D01*
X48384Y10455D01*
X48353Y10410D01*
X48331Y10360D01*
X48320Y10306D01*
X48319Y10251D01*
X48323Y10230D01*
X47055Y10230D01*
X47055Y10677D01*
X47044Y10731D01*
X47023Y10782D01*
X46993Y10827D01*
X46954Y10866D01*
X46908Y10897D01*
X46858Y10918D01*
X46804Y10929D01*
X46749Y10930D01*
X46695Y10919D01*
X46644Y10899D01*
X46598Y10869D01*
X46559Y10830D01*
X46528Y10785D01*
X46506Y10735D01*
X46495Y10681D01*
X46494Y10626D01*
X46504Y10572D01*
X46524Y10521D01*
X46554Y10475D01*
X46592Y10435D01*
X46637Y10404D01*
X46688Y10382D01*
X46741Y10370D01*
X46796Y10369D01*
X46850Y10379D01*
X46901Y10398D01*
X46948Y10428D01*
X46987Y10466D01*
X47019Y10511D01*
X47041Y10561D01*
X47054Y10614D01*
X47055Y10677D01*
X47055Y10230D01*
X46030Y10230D01*
X46030Y10627D01*
X46019Y10681D01*
X45998Y10732D01*
X45968Y10777D01*
X45929Y10816D01*
X45883Y10847D01*
X45833Y10868D01*
X45779Y10879D01*
X45730Y10880D01*
X45730Y11227D01*
X45719Y11281D01*
X45698Y11332D01*
X45668Y11377D01*
X45629Y11416D01*
X45583Y11447D01*
X45533Y11468D01*
X45479Y11479D01*
X45424Y11480D01*
X45370Y11469D01*
X45319Y11449D01*
X45273Y11419D01*
X45234Y11380D01*
X45203Y11335D01*
X45181Y11285D01*
X45170Y11231D01*
X45170Y11226D01*
X45169Y11231D01*
X45148Y11282D01*
X45118Y11327D01*
X45079Y11366D01*
X45033Y11397D01*
X44983Y11418D01*
X44929Y11429D01*
X44874Y11430D01*
X44820Y11419D01*
X44769Y11399D01*
X44723Y11369D01*
X44684Y11330D01*
X44666Y11304D01*
X44633Y11318D01*
X44579Y11329D01*
X44524Y11330D01*
X44470Y11319D01*
X44433Y11304D01*
X44418Y11327D01*
X44379Y11366D01*
X44333Y11397D01*
X44283Y11418D01*
X44229Y11429D01*
X44174Y11430D01*
X44120Y11419D01*
X44069Y11399D01*
X44023Y11369D01*
X43984Y11330D01*
X43953Y11285D01*
X43931Y11235D01*
X43920Y11181D01*
X43919Y11126D01*
X43929Y11072D01*
X43949Y11021D01*
X43979Y10975D01*
X44017Y10935D01*
X44062Y10904D01*
X44113Y10882D01*
X44166Y10870D01*
X44221Y10869D01*
X44275Y10879D01*
X44316Y10894D01*
X44329Y10875D01*
X44367Y10835D01*
X44412Y10804D01*
X44463Y10782D01*
X44516Y10770D01*
X44571Y10769D01*
X44625Y10779D01*
X44676Y10798D01*
X44723Y10828D01*
X44762Y10866D01*
X44783Y10895D01*
X44813Y10882D01*
X44866Y10870D01*
X44921Y10869D01*
X44975Y10879D01*
X45026Y10898D01*
X45073Y10928D01*
X45112Y10966D01*
X45144Y11011D01*
X45166Y11061D01*
X45179Y11114D01*
X45179Y11123D01*
X45179Y11122D01*
X45199Y11071D01*
X45229Y11025D01*
X45267Y10985D01*
X45312Y10954D01*
X45363Y10932D01*
X45416Y10920D01*
X45471Y10919D01*
X45525Y10929D01*
X45576Y10948D01*
X45623Y10978D01*
X45662Y11016D01*
X45694Y11061D01*
X45716Y11111D01*
X45729Y11164D01*
X45730Y11227D01*
X45730Y10880D01*
X45724Y10880D01*
X45670Y10869D01*
X45619Y10849D01*
X45573Y10819D01*
X45534Y10780D01*
X45503Y10735D01*
X45481Y10685D01*
X45470Y10631D01*
X45469Y10576D01*
X45479Y10522D01*
X45499Y10471D01*
X45529Y10425D01*
X45567Y10385D01*
X45612Y10354D01*
X45663Y10332D01*
X45716Y10320D01*
X45771Y10319D01*
X45825Y10329D01*
X45876Y10348D01*
X45923Y10378D01*
X45962Y10416D01*
X45994Y10461D01*
X46016Y10511D01*
X46029Y10564D01*
X46030Y10627D01*
X46030Y10230D01*
X43830Y10230D01*
X43830Y11127D01*
X43819Y11181D01*
X43798Y11232D01*
X43768Y11277D01*
X43729Y11316D01*
X43683Y11347D01*
X43633Y11368D01*
X43579Y11379D01*
X43524Y11380D01*
X43470Y11369D01*
X43419Y11349D01*
X43390Y11330D01*
X43354Y11366D01*
X43308Y11397D01*
X43258Y11418D01*
X43204Y11429D01*
X43149Y11430D01*
X43095Y11419D01*
X43044Y11399D01*
X42998Y11369D01*
X42959Y11330D01*
X42928Y11285D01*
X42906Y11235D01*
X42895Y11181D01*
X42894Y11126D01*
X42904Y11072D01*
X42924Y11021D01*
X42954Y10975D01*
X42992Y10935D01*
X43037Y10904D01*
X43088Y10882D01*
X43141Y10870D01*
X43196Y10869D01*
X43250Y10879D01*
X43301Y10898D01*
X43334Y10919D01*
X43367Y10885D01*
X43412Y10854D01*
X43463Y10832D01*
X43516Y10820D01*
X43571Y10819D01*
X43625Y10829D01*
X43676Y10848D01*
X43723Y10878D01*
X43762Y10916D01*
X43794Y10961D01*
X43816Y11011D01*
X43829Y11064D01*
X43830Y11127D01*
X43830Y10230D01*
X41679Y10230D01*
X41680Y10277D01*
X41669Y10331D01*
X41648Y10382D01*
X41618Y10427D01*
X41579Y10466D01*
X41533Y10497D01*
X41483Y10518D01*
X41429Y10529D01*
X41374Y10530D01*
X41320Y10519D01*
X41269Y10499D01*
X41223Y10469D01*
X41184Y10430D01*
X41153Y10385D01*
X41131Y10335D01*
X41120Y10281D01*
X41119Y10230D01*
X40823Y10230D01*
X40827Y10236D01*
X40849Y10286D01*
X40862Y10339D01*
X40863Y10402D01*
X40852Y10456D01*
X40831Y10507D01*
X40801Y10552D01*
X40762Y10591D01*
X40716Y10622D01*
X40666Y10643D01*
X40612Y10654D01*
X40557Y10655D01*
X40503Y10644D01*
X40452Y10624D01*
X40406Y10594D01*
X40367Y10555D01*
X40336Y10510D01*
X40314Y10460D01*
X40303Y10406D01*
X40302Y10351D01*
X40312Y10297D01*
X40332Y10246D01*
X40343Y10230D01*
X39997Y10230D01*
X39997Y10777D01*
X39986Y10831D01*
X39965Y10882D01*
X39935Y10927D01*
X39896Y10966D01*
X39850Y10997D01*
X39805Y11016D01*
X39805Y11977D01*
X39794Y12031D01*
X39773Y12082D01*
X39743Y12127D01*
X39704Y12166D01*
X39658Y12197D01*
X39608Y12218D01*
X39554Y12229D01*
X39499Y12230D01*
X39445Y12219D01*
X39394Y12199D01*
X39348Y12169D01*
X39309Y12130D01*
X39278Y12085D01*
X39256Y12035D01*
X39245Y11981D01*
X39244Y11926D01*
X39254Y11872D01*
X39274Y11821D01*
X39304Y11775D01*
X39342Y11735D01*
X39387Y11704D01*
X39438Y11682D01*
X39491Y11670D01*
X39546Y11669D01*
X39600Y11679D01*
X39651Y11698D01*
X39698Y11728D01*
X39737Y11766D01*
X39769Y11811D01*
X39791Y11861D01*
X39804Y11914D01*
X39805Y11977D01*
X39805Y11016D01*
X39800Y11018D01*
X39746Y11029D01*
X39691Y11030D01*
X39637Y11019D01*
X39586Y10999D01*
X39540Y10969D01*
X39501Y10930D01*
X39470Y10885D01*
X39448Y10835D01*
X39437Y10781D01*
X39436Y10726D01*
X39446Y10672D01*
X39466Y10621D01*
X39496Y10575D01*
X39534Y10535D01*
X39579Y10504D01*
X39630Y10482D01*
X39683Y10470D01*
X39738Y10469D01*
X39792Y10479D01*
X39843Y10498D01*
X39890Y10528D01*
X39929Y10566D01*
X39961Y10611D01*
X39983Y10661D01*
X39996Y10714D01*
X39997Y10777D01*
X39997Y10230D01*
X38947Y10230D01*
X38947Y11777D01*
X38936Y11831D01*
X38915Y11882D01*
X38885Y11927D01*
X38846Y11966D01*
X38800Y11997D01*
X38750Y12018D01*
X38696Y12029D01*
X38641Y12030D01*
X38587Y12019D01*
X38536Y11999D01*
X38490Y11969D01*
X38451Y11930D01*
X38420Y11885D01*
X38398Y11835D01*
X38387Y11781D01*
X38386Y11726D01*
X38396Y11672D01*
X38416Y11621D01*
X38446Y11575D01*
X38484Y11535D01*
X38529Y11504D01*
X38580Y11482D01*
X38633Y11470D01*
X38688Y11469D01*
X38742Y11479D01*
X38793Y11498D01*
X38840Y11528D01*
X38879Y11566D01*
X38911Y11611D01*
X38933Y11661D01*
X38946Y11714D01*
X38947Y11777D01*
X38947Y10230D01*
X32855Y10230D01*
X32855Y10939D01*
X32839Y11017D01*
X32809Y11091D01*
X32765Y11157D01*
X32709Y11213D01*
X32643Y11257D01*
X32570Y11288D01*
X32492Y11304D01*
X32413Y11305D01*
X32335Y11290D01*
X32261Y11260D01*
X32194Y11217D01*
X32138Y11161D01*
X32093Y11096D01*
X32062Y11023D01*
X32045Y10945D01*
X32044Y10865D01*
X32058Y10787D01*
X32088Y10713D01*
X32131Y10647D01*
X32186Y10590D01*
X32251Y10544D01*
X32324Y10512D01*
X32401Y10495D01*
X32481Y10494D01*
X32559Y10508D01*
X32633Y10536D01*
X32700Y10579D01*
X32758Y10634D01*
X32803Y10698D01*
X32836Y10771D01*
X32853Y10848D01*
X32855Y10939D01*
X32855Y10230D01*
X31855Y10230D01*
X31855Y10636D01*
X31855Y11187D01*
X31850Y11212D01*
X31840Y11236D01*
X31826Y11257D01*
X31808Y11275D01*
X31787Y11289D01*
X31763Y11299D01*
X31738Y11304D01*
X31713Y11305D01*
X31162Y11305D01*
X31137Y11300D01*
X31113Y11290D01*
X31092Y11276D01*
X31074Y11258D01*
X31060Y11237D01*
X31050Y11213D01*
X31045Y11188D01*
X31044Y11163D01*
X31044Y10612D01*
X31049Y10587D01*
X31059Y10563D01*
X31073Y10542D01*
X31091Y10524D01*
X31112Y10510D01*
X31136Y10500D01*
X31161Y10495D01*
X31186Y10494D01*
X31737Y10494D01*
X31762Y10499D01*
X31786Y10509D01*
X31807Y10523D01*
X31825Y10541D01*
X31839Y10562D01*
X31849Y10586D01*
X31854Y10611D01*
X31855Y10636D01*
X31855Y10230D01*
X30355Y10230D01*
X30355Y11939D01*
X30339Y12017D01*
X30309Y12091D01*
X30265Y12157D01*
X30209Y12213D01*
X30143Y12257D01*
X30070Y12288D01*
X29992Y12304D01*
X29913Y12305D01*
X29835Y12290D01*
X29761Y12260D01*
X29694Y12217D01*
X29638Y12161D01*
X29593Y12096D01*
X29562Y12023D01*
X29545Y11945D01*
X29544Y11865D01*
X29558Y11787D01*
X29588Y11713D01*
X29631Y11647D01*
X29686Y11590D01*
X29751Y11544D01*
X29824Y11512D01*
X29901Y11495D01*
X29981Y11494D01*
X30059Y11508D01*
X30133Y11536D01*
X30200Y11579D01*
X30258Y11634D01*
X30303Y11698D01*
X30336Y11771D01*
X30353Y11848D01*
X30355Y11939D01*
X30355Y10230D01*
X24680Y10230D01*
X24680Y11327D01*
X24669Y11381D01*
X24648Y11432D01*
X24618Y11477D01*
X24579Y11516D01*
X24533Y11547D01*
X24483Y11568D01*
X24429Y11579D01*
X24374Y11580D01*
X24320Y11569D01*
X24269Y11549D01*
X24223Y11519D01*
X24184Y11480D01*
X24153Y11435D01*
X24131Y11385D01*
X24120Y11331D01*
X24119Y11276D01*
X24129Y11222D01*
X24149Y11171D01*
X24179Y11125D01*
X24217Y11085D01*
X24262Y11054D01*
X24313Y11032D01*
X24366Y11020D01*
X24421Y11019D01*
X24475Y11029D01*
X24526Y11048D01*
X24573Y11078D01*
X24612Y11116D01*
X24644Y11161D01*
X24666Y11211D01*
X24679Y11264D01*
X24680Y11327D01*
X24680Y10230D01*
X19480Y10230D01*
X19480Y11927D01*
X19469Y11981D01*
X19448Y12032D01*
X19418Y12077D01*
X19379Y12116D01*
X19333Y12147D01*
X19283Y12168D01*
X19229Y12179D01*
X19174Y12180D01*
X19120Y12169D01*
X19069Y12149D01*
X19023Y12119D01*
X18984Y12080D01*
X18953Y12035D01*
X18931Y11985D01*
X18920Y11931D01*
X18919Y11876D01*
X18929Y11822D01*
X18949Y11771D01*
X18979Y11725D01*
X19017Y11685D01*
X19062Y11654D01*
X19113Y11632D01*
X19166Y11620D01*
X19221Y11619D01*
X19275Y11629D01*
X19326Y11648D01*
X19373Y11678D01*
X19412Y11716D01*
X19444Y11761D01*
X19466Y11811D01*
X19479Y11864D01*
X19480Y11927D01*
X19480Y10230D01*
X15853Y10230D01*
X15858Y10234D01*
X15903Y10298D01*
X15936Y10371D01*
X15953Y10448D01*
X15955Y10539D01*
X15939Y10617D01*
X15909Y10691D01*
X15865Y10757D01*
X15809Y10813D01*
X15743Y10857D01*
X15670Y10888D01*
X15592Y10904D01*
X15530Y10905D01*
X15530Y11477D01*
X15519Y11531D01*
X15498Y11582D01*
X15468Y11627D01*
X15429Y11666D01*
X15383Y11697D01*
X15333Y11718D01*
X15279Y11729D01*
X15224Y11730D01*
X15170Y11719D01*
X15119Y11699D01*
X15073Y11669D01*
X15034Y11630D01*
X15003Y11585D01*
X14981Y11535D01*
X14970Y11481D01*
X14969Y11426D01*
X14979Y11372D01*
X14999Y11321D01*
X15029Y11275D01*
X15067Y11235D01*
X15112Y11204D01*
X15163Y11182D01*
X15216Y11170D01*
X15271Y11169D01*
X15325Y11179D01*
X15376Y11198D01*
X15423Y11228D01*
X15462Y11266D01*
X15494Y11311D01*
X15516Y11361D01*
X15529Y11414D01*
X15530Y11477D01*
X15530Y10905D01*
X15513Y10905D01*
X15435Y10890D01*
X15361Y10860D01*
X15294Y10817D01*
X15238Y10761D01*
X15193Y10696D01*
X15162Y10623D01*
X15145Y10545D01*
X15144Y10465D01*
X15158Y10387D01*
X15188Y10313D01*
X15231Y10247D01*
X15247Y10230D01*
X14955Y10230D01*
X14955Y10236D01*
X14955Y10787D01*
X14950Y10812D01*
X14940Y10836D01*
X14926Y10857D01*
X14908Y10875D01*
X14887Y10889D01*
X14863Y10899D01*
X14838Y10904D01*
X14813Y10905D01*
X14262Y10905D01*
X14237Y10900D01*
X14213Y10890D01*
X14192Y10876D01*
X14180Y10863D01*
X14180Y12370D01*
X24106Y12370D01*
X24098Y12331D01*
X24097Y12281D01*
X24106Y12232D01*
X24125Y12186D01*
X24152Y12143D01*
X24187Y12108D01*
X24228Y12079D01*
X24273Y12059D01*
X24322Y12048D01*
X24372Y12047D01*
X24422Y12056D01*
X24468Y12074D01*
X24510Y12101D01*
X24547Y12135D01*
X24550Y12139D01*
X24580Y12108D01*
X24621Y12079D01*
X24667Y12059D01*
X24716Y12048D01*
X24766Y12047D01*
X24815Y12056D01*
X24862Y12074D01*
X24904Y12101D01*
X24940Y12135D01*
X24969Y12176D01*
X24989Y12222D01*
X25001Y12271D01*
X25001Y12328D01*
X24993Y12370D01*
X30546Y12370D01*
X30554Y12358D01*
X30592Y12318D01*
X30637Y12287D01*
X30688Y12265D01*
X30741Y12253D01*
X30796Y12252D01*
X30850Y12262D01*
X30901Y12281D01*
X30948Y12311D01*
X30987Y12349D01*
X31002Y12370D01*
X40596Y12370D01*
X40720Y12246D01*
X40720Y11370D01*
X40716Y11372D01*
X40666Y11393D01*
X40612Y11404D01*
X40557Y11405D01*
X40503Y11394D01*
X40452Y11374D01*
X40406Y11344D01*
X40367Y11305D01*
X40336Y11260D01*
X40314Y11210D01*
X40303Y11156D01*
X40302Y11101D01*
X40312Y11047D01*
X40332Y10996D01*
X40362Y10950D01*
X40400Y10910D01*
X40445Y10879D01*
X40496Y10857D01*
X40549Y10845D01*
X40604Y10844D01*
X40658Y10854D01*
X40709Y10873D01*
X40756Y10903D01*
X40795Y10941D01*
X40827Y10986D01*
X40849Y11036D01*
X40862Y11089D01*
X40863Y11152D01*
X40852Y11206D01*
X40847Y11219D01*
X40996Y11070D01*
X41703Y11070D01*
X41980Y11346D01*
X41980Y11894D01*
X41996Y11894D01*
X42050Y11904D01*
X42101Y11923D01*
X42148Y11953D01*
X42162Y11966D01*
X42167Y11960D01*
X42212Y11929D01*
X42263Y11907D01*
X42316Y11895D01*
X42371Y11894D01*
X42425Y11904D01*
X42476Y11923D01*
X42523Y11953D01*
X42562Y11991D01*
X42594Y12036D01*
X42616Y12086D01*
X42629Y12139D01*
X42630Y12202D01*
X42619Y12256D01*
X42598Y12307D01*
X42568Y12352D01*
X42550Y12370D01*
X42798Y12370D01*
X42784Y12355D01*
X42753Y12310D01*
X42731Y12260D01*
X42720Y12206D01*
X42719Y12151D01*
X42729Y12097D01*
X42749Y12046D01*
X42779Y12000D01*
X42817Y11960D01*
X42862Y11929D01*
X42913Y11907D01*
X42966Y11895D01*
X43021Y11894D01*
X43075Y11904D01*
X43126Y11923D01*
X43173Y11953D01*
X43212Y11991D01*
X43244Y12036D01*
X43266Y12086D01*
X43279Y12139D01*
X43280Y12202D01*
X43269Y12256D01*
X43248Y12307D01*
X43218Y12352D01*
X43200Y12370D01*
X44284Y12370D01*
X44278Y12360D01*
X44256Y12310D01*
X44245Y12256D01*
X44244Y12201D01*
X44254Y12147D01*
X44274Y12096D01*
X44304Y12050D01*
X44342Y12010D01*
X44387Y11979D01*
X44438Y11957D01*
X44491Y11945D01*
X44546Y11944D01*
X44600Y11954D01*
X44651Y11973D01*
X44698Y12003D01*
X44737Y12041D01*
X44769Y12086D01*
X44791Y12136D01*
X44804Y12189D01*
X44805Y12252D01*
X44794Y12306D01*
X44773Y12357D01*
X44764Y12370D01*
X45396Y12370D01*
X45696Y12070D01*
X46203Y12070D01*
X46503Y12370D01*
X50080Y12370D01*
X50080Y18770D01*
X50720Y18770D01*
X50720Y17900D01*
X50720Y11905D01*
X50713Y11905D01*
X50162Y11905D01*
X50137Y11900D01*
X50113Y11890D01*
X50092Y11876D01*
X50074Y11858D01*
X50060Y11837D01*
X50050Y11813D01*
X50045Y11788D01*
X50044Y11763D01*
X50044Y11212D01*
X50049Y11187D01*
X50059Y11163D01*
X50073Y11142D01*
X50091Y11124D01*
X50112Y11110D01*
X50136Y11100D01*
X50161Y11095D01*
X50186Y11094D01*
X50720Y11094D01*
X50720Y10802D01*
G54D10*
G36*
X9850Y10149D02*
X9781Y10149D01*
X9789Y10162D01*
X9799Y10186D01*
X9804Y10211D01*
X9805Y10236D01*
X9805Y17236D01*
X9805Y17787D01*
X9800Y17812D01*
X9790Y17836D01*
X9776Y17857D01*
X9758Y17875D01*
X9737Y17889D01*
X9713Y17899D01*
X9688Y17904D01*
X9663Y17905D01*
X9112Y17905D01*
X9087Y17900D01*
X9063Y17890D01*
X9042Y17876D01*
X9024Y17858D01*
X9010Y17837D01*
X9000Y17813D01*
X8995Y17788D01*
X8994Y17763D01*
X8994Y17212D01*
X8999Y17187D01*
X9009Y17163D01*
X9023Y17142D01*
X9041Y17124D01*
X9062Y17110D01*
X9086Y17100D01*
X9111Y17095D01*
X9136Y17094D01*
X9687Y17094D01*
X9712Y17099D01*
X9736Y17109D01*
X9757Y17123D01*
X9775Y17141D01*
X9789Y17162D01*
X9799Y17186D01*
X9804Y17211D01*
X9805Y17236D01*
X9805Y10236D01*
X9805Y10709D01*
X9805Y11539D01*
X9789Y11617D01*
X9759Y11691D01*
X9715Y11757D01*
X9659Y11813D01*
X9593Y11857D01*
X9520Y11888D01*
X9442Y11904D01*
X9363Y11905D01*
X9285Y11890D01*
X9255Y11878D01*
X9255Y13427D01*
X9244Y13481D01*
X9223Y13532D01*
X9193Y13577D01*
X9154Y13616D01*
X9108Y13647D01*
X9058Y13668D01*
X9004Y13679D01*
X8949Y13680D01*
X8930Y13676D01*
X8930Y16352D01*
X8919Y16406D01*
X8898Y16457D01*
X8868Y16502D01*
X8829Y16541D01*
X8805Y16558D01*
X8805Y17539D01*
X8789Y17617D01*
X8759Y17691D01*
X8715Y17757D01*
X8659Y17813D01*
X8593Y17857D01*
X8520Y17888D01*
X8442Y17904D01*
X8363Y17905D01*
X8285Y17890D01*
X8211Y17860D01*
X8144Y17817D01*
X8088Y17761D01*
X8043Y17696D01*
X8012Y17623D01*
X8005Y17589D01*
X8005Y17802D01*
X7994Y17856D01*
X7973Y17907D01*
X7943Y17952D01*
X7904Y17991D01*
X7858Y18022D01*
X7808Y18043D01*
X7754Y18054D01*
X7699Y18055D01*
X7645Y18044D01*
X7594Y18024D01*
X7548Y17994D01*
X7509Y17955D01*
X7478Y17910D01*
X7456Y17860D01*
X7445Y17806D01*
X7444Y17751D01*
X7454Y17697D01*
X7474Y17646D01*
X7504Y17600D01*
X7542Y17560D01*
X7587Y17529D01*
X7638Y17507D01*
X7691Y17495D01*
X7746Y17494D01*
X7800Y17504D01*
X7851Y17523D01*
X7898Y17553D01*
X7937Y17591D01*
X7969Y17636D01*
X7991Y17686D01*
X8004Y17739D01*
X8005Y17802D01*
X8005Y17589D01*
X7995Y17545D01*
X7994Y17465D01*
X8008Y17387D01*
X8038Y17313D01*
X8081Y17247D01*
X8136Y17190D01*
X8201Y17144D01*
X8274Y17112D01*
X8351Y17095D01*
X8431Y17094D01*
X8509Y17108D01*
X8583Y17136D01*
X8650Y17179D01*
X8708Y17234D01*
X8753Y17298D01*
X8786Y17371D01*
X8803Y17448D01*
X8805Y17539D01*
X8805Y16558D01*
X8783Y16572D01*
X8733Y16593D01*
X8679Y16604D01*
X8624Y16605D01*
X8570Y16594D01*
X8519Y16574D01*
X8473Y16544D01*
X8437Y16508D01*
X8429Y16516D01*
X8383Y16547D01*
X8333Y16568D01*
X8279Y16579D01*
X8224Y16580D01*
X8170Y16569D01*
X8119Y16549D01*
X8073Y16519D01*
X8034Y16480D01*
X8003Y16435D01*
X7981Y16385D01*
X7970Y16331D01*
X7969Y16276D01*
X7979Y16222D01*
X7999Y16171D01*
X8029Y16125D01*
X8067Y16085D01*
X8112Y16054D01*
X8163Y16032D01*
X8216Y16020D01*
X8271Y16019D01*
X8325Y16029D01*
X8376Y16048D01*
X8423Y16078D01*
X8462Y16115D01*
X8467Y16110D01*
X8512Y16079D01*
X8563Y16057D01*
X8616Y16045D01*
X8671Y16044D01*
X8725Y16054D01*
X8776Y16073D01*
X8823Y16103D01*
X8862Y16141D01*
X8894Y16186D01*
X8916Y16236D01*
X8929Y16289D01*
X8930Y16352D01*
X8930Y13676D01*
X8895Y13669D01*
X8844Y13649D01*
X8798Y13619D01*
X8759Y13580D01*
X8728Y13535D01*
X8706Y13485D01*
X8695Y13431D01*
X8694Y13376D01*
X8704Y13322D01*
X8724Y13271D01*
X8754Y13225D01*
X8792Y13185D01*
X8837Y13154D01*
X8888Y13132D01*
X8941Y13120D01*
X8996Y13119D01*
X9050Y13129D01*
X9101Y13148D01*
X9148Y13178D01*
X9187Y13216D01*
X9219Y13261D01*
X9241Y13311D01*
X9254Y13364D01*
X9255Y13427D01*
X9255Y11878D01*
X9211Y11860D01*
X9144Y11817D01*
X9088Y11761D01*
X9043Y11696D01*
X9012Y11623D01*
X8995Y11545D01*
X8994Y11465D01*
X9008Y11387D01*
X9038Y11313D01*
X9081Y11247D01*
X9136Y11190D01*
X9201Y11144D01*
X9274Y11112D01*
X9351Y11095D01*
X9431Y11094D01*
X9509Y11108D01*
X9583Y11136D01*
X9650Y11179D01*
X9708Y11234D01*
X9753Y11298D01*
X9786Y11371D01*
X9803Y11448D01*
X9805Y11539D01*
X9805Y10709D01*
X9805Y10787D01*
X9800Y10812D01*
X9790Y10836D01*
X9776Y10857D01*
X9758Y10875D01*
X9737Y10889D01*
X9713Y10899D01*
X9688Y10904D01*
X9663Y10905D01*
X9112Y10905D01*
X9087Y10900D01*
X9063Y10890D01*
X9042Y10876D01*
X9024Y10858D01*
X9010Y10837D01*
X9000Y10813D01*
X8995Y10788D01*
X8994Y10763D01*
X8994Y10212D01*
X8999Y10187D01*
X9009Y10163D01*
X9018Y10149D01*
X8806Y10149D01*
X8806Y10502D01*
X8805Y10521D01*
X8805Y11539D01*
X8789Y11617D01*
X8759Y11691D01*
X8715Y11757D01*
X8659Y11813D01*
X8593Y11857D01*
X8580Y11863D01*
X8580Y12752D01*
X8569Y12806D01*
X8548Y12857D01*
X8518Y12902D01*
X8479Y12941D01*
X8433Y12972D01*
X8383Y12993D01*
X8329Y13004D01*
X8274Y13005D01*
X8220Y12994D01*
X8169Y12974D01*
X8130Y12948D01*
X8130Y15102D01*
X8119Y15156D01*
X8098Y15207D01*
X8068Y15252D01*
X8029Y15291D01*
X7983Y15322D01*
X7933Y15343D01*
X7879Y15354D01*
X7824Y15355D01*
X7770Y15344D01*
X7730Y15328D01*
X7730Y16352D01*
X7719Y16406D01*
X7698Y16457D01*
X7668Y16502D01*
X7629Y16541D01*
X7583Y16572D01*
X7533Y16593D01*
X7479Y16604D01*
X7424Y16605D01*
X7370Y16594D01*
X7319Y16574D01*
X7273Y16544D01*
X7234Y16505D01*
X7203Y16460D01*
X7181Y16410D01*
X7170Y16356D01*
X7169Y16301D01*
X7179Y16247D01*
X7199Y16196D01*
X7229Y16150D01*
X7267Y16110D01*
X7312Y16079D01*
X7363Y16057D01*
X7416Y16045D01*
X7471Y16044D01*
X7525Y16054D01*
X7576Y16073D01*
X7623Y16103D01*
X7662Y16141D01*
X7694Y16186D01*
X7716Y16236D01*
X7729Y16289D01*
X7730Y16352D01*
X7730Y15328D01*
X7719Y15324D01*
X7673Y15294D01*
X7634Y15255D01*
X7603Y15210D01*
X7581Y15160D01*
X7570Y15106D01*
X7569Y15051D01*
X7579Y14997D01*
X7599Y14946D01*
X7629Y14900D01*
X7667Y14860D01*
X7712Y14829D01*
X7763Y14807D01*
X7816Y14795D01*
X7871Y14794D01*
X7925Y14804D01*
X7976Y14823D01*
X8023Y14853D01*
X8062Y14891D01*
X8094Y14936D01*
X8116Y14986D01*
X8129Y15039D01*
X8130Y15102D01*
X8130Y12948D01*
X8123Y12944D01*
X8084Y12905D01*
X8053Y12860D01*
X8031Y12810D01*
X8024Y12777D01*
X8019Y12806D01*
X7998Y12857D01*
X7968Y12902D01*
X7929Y12941D01*
X7883Y12972D01*
X7833Y12993D01*
X7779Y13004D01*
X7724Y13005D01*
X7670Y12994D01*
X7619Y12974D01*
X7573Y12944D01*
X7534Y12905D01*
X7503Y12860D01*
X7481Y12810D01*
X7470Y12756D01*
X7469Y12701D01*
X7479Y12647D01*
X7499Y12596D01*
X7529Y12550D01*
X7567Y12510D01*
X7612Y12479D01*
X7663Y12457D01*
X7716Y12445D01*
X7771Y12444D01*
X7825Y12454D01*
X7876Y12473D01*
X7923Y12503D01*
X7962Y12541D01*
X7994Y12586D01*
X8016Y12636D01*
X8025Y12671D01*
X8029Y12647D01*
X8049Y12596D01*
X8079Y12550D01*
X8117Y12510D01*
X8162Y12479D01*
X8213Y12457D01*
X8266Y12445D01*
X8321Y12444D01*
X8375Y12454D01*
X8426Y12473D01*
X8473Y12503D01*
X8512Y12541D01*
X8544Y12586D01*
X8566Y12636D01*
X8579Y12689D01*
X8580Y12752D01*
X8580Y11863D01*
X8520Y11888D01*
X8442Y11904D01*
X8363Y11905D01*
X8285Y11890D01*
X8211Y11860D01*
X8144Y11817D01*
X8088Y11761D01*
X8043Y11696D01*
X8012Y11623D01*
X7995Y11545D01*
X7994Y11465D01*
X8008Y11387D01*
X8038Y11313D01*
X8081Y11247D01*
X8136Y11190D01*
X8201Y11144D01*
X8274Y11112D01*
X8351Y11095D01*
X8431Y11094D01*
X8509Y11108D01*
X8583Y11136D01*
X8650Y11179D01*
X8708Y11234D01*
X8753Y11298D01*
X8786Y11371D01*
X8803Y11448D01*
X8805Y11539D01*
X8805Y10521D01*
X8798Y10581D01*
X8775Y10657D01*
X8740Y10722D01*
X8678Y10750D01*
X8650Y10721D01*
X8650Y10778D01*
X8622Y10840D01*
X8552Y10877D01*
X8476Y10899D01*
X8397Y10906D01*
X8318Y10898D01*
X8242Y10875D01*
X8177Y10840D01*
X8149Y10778D01*
X8400Y10528D01*
X8650Y10778D01*
X8650Y10721D01*
X8428Y10500D01*
X8678Y10249D01*
X8740Y10277D01*
X8777Y10347D01*
X8799Y10423D01*
X8806Y10502D01*
X8806Y10149D01*
X8604Y10149D01*
X8622Y10159D01*
X8650Y10221D01*
X8400Y10471D01*
X8371Y10443D01*
X8371Y10500D01*
X8121Y10750D01*
X8059Y10722D01*
X8022Y10652D01*
X8000Y10576D01*
X7993Y10497D01*
X8001Y10418D01*
X8024Y10342D01*
X8059Y10277D01*
X8121Y10249D01*
X8371Y10500D01*
X8371Y10443D01*
X8149Y10221D01*
X8177Y10159D01*
X8195Y10149D01*
X7505Y10149D01*
X7505Y12002D01*
X7494Y12056D01*
X7473Y12107D01*
X7443Y12152D01*
X7408Y12187D01*
X7412Y12191D01*
X7444Y12236D01*
X7466Y12286D01*
X7479Y12339D01*
X7480Y12402D01*
X7469Y12456D01*
X7448Y12507D01*
X7418Y12552D01*
X7380Y12590D01*
X7394Y12611D01*
X7416Y12661D01*
X7429Y12714D01*
X7430Y12777D01*
X7419Y12831D01*
X7398Y12882D01*
X7368Y12927D01*
X7329Y12966D01*
X7283Y12997D01*
X7233Y13018D01*
X7179Y13029D01*
X7124Y13030D01*
X7070Y13019D01*
X7019Y12999D01*
X6973Y12969D01*
X6934Y12930D01*
X6903Y12885D01*
X6881Y12835D01*
X6870Y12781D01*
X6869Y12726D01*
X6879Y12672D01*
X6899Y12621D01*
X6929Y12575D01*
X6967Y12535D01*
X6969Y12534D01*
X6953Y12510D01*
X6931Y12460D01*
X6920Y12406D01*
X6919Y12351D01*
X6929Y12297D01*
X6949Y12246D01*
X6979Y12200D01*
X7016Y12162D01*
X7009Y12155D01*
X6978Y12110D01*
X6956Y12060D01*
X6945Y12006D01*
X6944Y11951D01*
X6954Y11897D01*
X6974Y11846D01*
X7004Y11800D01*
X7042Y11760D01*
X7087Y11729D01*
X7138Y11707D01*
X7191Y11695D01*
X7246Y11694D01*
X7300Y11704D01*
X7351Y11723D01*
X7398Y11753D01*
X7437Y11791D01*
X7469Y11836D01*
X7491Y11886D01*
X7504Y11939D01*
X7505Y12002D01*
X7505Y10149D01*
X6005Y10149D01*
X6005Y12527D01*
X5994Y12581D01*
X5980Y12616D01*
X5980Y16452D01*
X5969Y16506D01*
X5948Y16557D01*
X5918Y16602D01*
X5879Y16641D01*
X5833Y16672D01*
X5783Y16693D01*
X5729Y16704D01*
X5674Y16705D01*
X5620Y16694D01*
X5580Y16678D01*
X5580Y17035D01*
X5569Y17089D01*
X5548Y17139D01*
X5518Y17185D01*
X5479Y17224D01*
X5433Y17255D01*
X5383Y17276D01*
X5329Y17287D01*
X5274Y17288D01*
X5220Y17277D01*
X5169Y17257D01*
X5123Y17227D01*
X5084Y17188D01*
X5053Y17143D01*
X5031Y17092D01*
X5020Y17039D01*
X5019Y16984D01*
X5029Y16930D01*
X5049Y16879D01*
X5079Y16833D01*
X5117Y16793D01*
X5162Y16762D01*
X5213Y16740D01*
X5266Y16728D01*
X5321Y16727D01*
X5375Y16736D01*
X5426Y16756D01*
X5473Y16786D01*
X5512Y16824D01*
X5544Y16868D01*
X5566Y16919D01*
X5579Y16972D01*
X5580Y17035D01*
X5580Y16678D01*
X5569Y16674D01*
X5523Y16644D01*
X5484Y16605D01*
X5453Y16560D01*
X5431Y16510D01*
X5420Y16456D01*
X5420Y16429D01*
X5370Y16419D01*
X5319Y16399D01*
X5274Y16369D01*
X5279Y16389D01*
X5280Y16452D01*
X5269Y16506D01*
X5248Y16557D01*
X5218Y16602D01*
X5179Y16641D01*
X5133Y16672D01*
X5083Y16693D01*
X5029Y16704D01*
X4974Y16705D01*
X4920Y16694D01*
X4869Y16674D01*
X4823Y16644D01*
X4784Y16605D01*
X4753Y16560D01*
X4731Y16510D01*
X4720Y16456D01*
X4720Y16454D01*
X4674Y16455D01*
X4620Y16444D01*
X4569Y16424D01*
X4523Y16394D01*
X4484Y16355D01*
X4453Y16310D01*
X4431Y16260D01*
X4420Y16206D01*
X4419Y16151D01*
X4429Y16097D01*
X4449Y16046D01*
X4479Y16000D01*
X4517Y15960D01*
X4562Y15929D01*
X4613Y15907D01*
X4666Y15895D01*
X4721Y15894D01*
X4775Y15904D01*
X4826Y15923D01*
X4873Y15953D01*
X4912Y15991D01*
X4944Y16036D01*
X4966Y16086D01*
X4979Y16139D01*
X4979Y16145D01*
X5021Y16144D01*
X5075Y16154D01*
X5126Y16173D01*
X5173Y16203D01*
X5175Y16205D01*
X5170Y16181D01*
X5169Y16126D01*
X5179Y16072D01*
X5199Y16021D01*
X5229Y15975D01*
X5267Y15935D01*
X5312Y15904D01*
X5363Y15882D01*
X5416Y15870D01*
X5471Y15869D01*
X5525Y15879D01*
X5576Y15898D01*
X5623Y15928D01*
X5662Y15966D01*
X5694Y16011D01*
X5716Y16061D01*
X5729Y16114D01*
X5729Y16145D01*
X5775Y16154D01*
X5826Y16173D01*
X5873Y16203D01*
X5912Y16241D01*
X5944Y16286D01*
X5966Y16336D01*
X5979Y16389D01*
X5980Y16452D01*
X5980Y12616D01*
X5973Y12632D01*
X5943Y12677D01*
X5904Y12716D01*
X5858Y12747D01*
X5808Y12768D01*
X5804Y12769D01*
X5805Y12827D01*
X5794Y12881D01*
X5773Y12932D01*
X5743Y12977D01*
X5704Y13016D01*
X5658Y13047D01*
X5608Y13068D01*
X5554Y13079D01*
X5499Y13080D01*
X5445Y13069D01*
X5394Y13049D01*
X5348Y13019D01*
X5309Y12980D01*
X5278Y12935D01*
X5265Y12905D01*
X5233Y12918D01*
X5179Y12929D01*
X5124Y12930D01*
X5070Y12919D01*
X5019Y12899D01*
X4973Y12869D01*
X4949Y12846D01*
X4929Y12866D01*
X4883Y12897D01*
X4833Y12918D01*
X4779Y12929D01*
X4724Y12930D01*
X4670Y12919D01*
X4619Y12899D01*
X4573Y12869D01*
X4534Y12830D01*
X4505Y12787D01*
X4505Y14177D01*
X4494Y14231D01*
X4473Y14282D01*
X4443Y14327D01*
X4404Y14366D01*
X4379Y14383D01*
X4391Y14411D01*
X4404Y14464D01*
X4405Y14527D01*
X4394Y14581D01*
X4373Y14632D01*
X4343Y14677D01*
X4330Y14690D01*
X4330Y17227D01*
X4319Y17281D01*
X4298Y17332D01*
X4268Y17377D01*
X4229Y17416D01*
X4183Y17447D01*
X4133Y17468D01*
X4079Y17479D01*
X4024Y17480D01*
X3970Y17469D01*
X3919Y17449D01*
X3873Y17419D01*
X3834Y17380D01*
X3803Y17335D01*
X3781Y17285D01*
X3770Y17231D01*
X3769Y17176D01*
X3779Y17122D01*
X3799Y17071D01*
X3829Y17025D01*
X3867Y16985D01*
X3912Y16954D01*
X3963Y16932D01*
X4016Y16920D01*
X4071Y16919D01*
X4125Y16929D01*
X4176Y16948D01*
X4223Y16978D01*
X4262Y17016D01*
X4294Y17061D01*
X4316Y17111D01*
X4329Y17164D01*
X4330Y17227D01*
X4330Y14690D01*
X4304Y14716D01*
X4258Y14747D01*
X4208Y14768D01*
X4154Y14779D01*
X4099Y14780D01*
X4045Y14769D01*
X3994Y14749D01*
X3948Y14719D01*
X3909Y14680D01*
X3878Y14635D01*
X3856Y14585D01*
X3845Y14531D01*
X3844Y14476D01*
X3854Y14422D01*
X3874Y14371D01*
X3904Y14325D01*
X3942Y14285D01*
X3970Y14266D01*
X3956Y14235D01*
X3945Y14181D01*
X3944Y14126D01*
X3954Y14072D01*
X3974Y14021D01*
X4004Y13975D01*
X4042Y13935D01*
X4087Y13904D01*
X4138Y13882D01*
X4191Y13870D01*
X4246Y13869D01*
X4300Y13879D01*
X4351Y13898D01*
X4398Y13928D01*
X4437Y13966D01*
X4469Y14011D01*
X4491Y14061D01*
X4504Y14114D01*
X4505Y14177D01*
X4505Y12787D01*
X4503Y12785D01*
X4481Y12735D01*
X4470Y12681D01*
X4469Y12626D01*
X4479Y12572D01*
X4499Y12521D01*
X4529Y12475D01*
X4567Y12435D01*
X4612Y12404D01*
X4663Y12382D01*
X4716Y12370D01*
X4771Y12369D01*
X4825Y12379D01*
X4876Y12398D01*
X4923Y12428D01*
X4950Y12453D01*
X4967Y12435D01*
X5012Y12404D01*
X5063Y12382D01*
X5116Y12370D01*
X5171Y12369D01*
X5225Y12379D01*
X5276Y12398D01*
X5323Y12428D01*
X5362Y12466D01*
X5394Y12511D01*
X5409Y12544D01*
X5438Y12532D01*
X5445Y12530D01*
X5444Y12476D01*
X5454Y12422D01*
X5474Y12371D01*
X5504Y12325D01*
X5542Y12285D01*
X5587Y12254D01*
X5638Y12232D01*
X5691Y12220D01*
X5746Y12219D01*
X5800Y12229D01*
X5851Y12248D01*
X5898Y12278D01*
X5937Y12316D01*
X5969Y12361D01*
X5991Y12411D01*
X6004Y12464D01*
X6005Y12527D01*
X6005Y10149D01*
X4507Y10149D01*
X4455Y10154D01*
X4455Y12602D01*
X4444Y12656D01*
X4423Y12707D01*
X4393Y12752D01*
X4354Y12791D01*
X4308Y12822D01*
X4258Y12843D01*
X4204Y12854D01*
X4149Y12855D01*
X4095Y12844D01*
X4044Y12824D01*
X3998Y12794D01*
X3959Y12755D01*
X3928Y12710D01*
X3906Y12660D01*
X3895Y12606D01*
X3894Y12551D01*
X3904Y12497D01*
X3924Y12446D01*
X3954Y12400D01*
X3992Y12360D01*
X4037Y12329D01*
X4088Y12307D01*
X4141Y12295D01*
X4196Y12294D01*
X4250Y12304D01*
X4301Y12323D01*
X4348Y12353D01*
X4387Y12391D01*
X4419Y12436D01*
X4441Y12486D01*
X4454Y12539D01*
X4455Y12602D01*
X4455Y10154D01*
X3655Y10233D01*
X2930Y10452D01*
X2930Y12535D01*
X2930Y15152D01*
X2919Y15206D01*
X2898Y15257D01*
X2868Y15302D01*
X2829Y15341D01*
X2783Y15372D01*
X2733Y15393D01*
X2679Y15404D01*
X2624Y15405D01*
X2570Y15394D01*
X2519Y15374D01*
X2473Y15344D01*
X2434Y15305D01*
X2403Y15260D01*
X2381Y15210D01*
X2370Y15156D01*
X2369Y15101D01*
X2379Y15047D01*
X2399Y14996D01*
X2429Y14950D01*
X2467Y14910D01*
X2512Y14879D01*
X2563Y14857D01*
X2616Y14845D01*
X2671Y14844D01*
X2725Y14854D01*
X2776Y14873D01*
X2823Y14903D01*
X2862Y14941D01*
X2894Y14986D01*
X2916Y15036D01*
X2929Y15089D01*
X2930Y15152D01*
X2930Y12535D01*
X2919Y12589D01*
X2898Y12639D01*
X2868Y12685D01*
X2829Y12724D01*
X2783Y12755D01*
X2733Y12776D01*
X2679Y12787D01*
X2624Y12788D01*
X2570Y12777D01*
X2519Y12757D01*
X2473Y12727D01*
X2434Y12688D01*
X2403Y12643D01*
X2381Y12592D01*
X2370Y12539D01*
X2369Y12484D01*
X2379Y12430D01*
X2399Y12379D01*
X2429Y12333D01*
X2467Y12293D01*
X2512Y12262D01*
X2563Y12240D01*
X2616Y12228D01*
X2671Y12227D01*
X2725Y12236D01*
X2776Y12256D01*
X2823Y12286D01*
X2862Y12324D01*
X2894Y12368D01*
X2916Y12419D01*
X2929Y12472D01*
X2930Y12535D01*
X2930Y10452D01*
X2842Y10478D01*
X2092Y10877D01*
X1484Y11373D01*
X1484Y15039D01*
X1474Y15093D01*
X1453Y15143D01*
X1422Y15189D01*
X1384Y15228D01*
X1338Y15259D01*
X1287Y15280D01*
X1234Y15291D01*
X1179Y15292D01*
X1125Y15281D01*
X1074Y15261D01*
X1028Y15231D01*
X989Y15192D01*
X958Y15147D01*
X936Y15096D01*
X925Y15043D01*
X924Y14988D01*
X934Y14934D01*
X954Y14883D01*
X984Y14837D01*
X1022Y14797D01*
X1067Y14766D01*
X1117Y14744D01*
X1171Y14732D01*
X1226Y14731D01*
X1280Y14740D01*
X1331Y14760D01*
X1377Y14790D01*
X1417Y14827D01*
X1449Y14872D01*
X1471Y14923D01*
X1483Y14976D01*
X1484Y15039D01*
X1484Y11373D01*
X1435Y11413D01*
X894Y12067D01*
X490Y12814D01*
X239Y13625D01*
X149Y14476D01*
X149Y14492D01*
X233Y15344D01*
X478Y16157D01*
X877Y16907D01*
X1413Y17564D01*
X2067Y18105D01*
X2814Y18509D01*
X3625Y18760D01*
X4476Y18850D01*
X4500Y18850D01*
X8195Y18850D01*
X8144Y18817D01*
X8088Y18761D01*
X8043Y18696D01*
X8012Y18623D01*
X7995Y18545D01*
X7994Y18465D01*
X8008Y18387D01*
X8038Y18313D01*
X8081Y18247D01*
X8136Y18190D01*
X8201Y18144D01*
X8274Y18112D01*
X8351Y18095D01*
X8431Y18094D01*
X8509Y18108D01*
X8583Y18136D01*
X8650Y18179D01*
X8708Y18234D01*
X8753Y18298D01*
X8786Y18371D01*
X8803Y18448D01*
X8805Y18539D01*
X8789Y18617D01*
X8759Y18691D01*
X8715Y18757D01*
X8659Y18813D01*
X8604Y18850D01*
X9195Y18850D01*
X9144Y18817D01*
X9088Y18761D01*
X9043Y18696D01*
X9012Y18623D01*
X8995Y18545D01*
X8994Y18465D01*
X9008Y18387D01*
X9038Y18313D01*
X9081Y18247D01*
X9136Y18190D01*
X9201Y18144D01*
X9274Y18112D01*
X9351Y18095D01*
X9431Y18094D01*
X9509Y18108D01*
X9583Y18136D01*
X9650Y18179D01*
X9708Y18234D01*
X9753Y18298D01*
X9786Y18371D01*
X9803Y18448D01*
X9805Y18539D01*
X9789Y18617D01*
X9759Y18691D01*
X9715Y18757D01*
X9659Y18813D01*
X9604Y18850D01*
X9850Y18850D01*
X9850Y17500D01*
X9850Y11500D01*
X9850Y10149D01*
X9850Y10149D01*
G37*
G54D18*
X9850Y10149D02*
X9781Y10149D01*
X9789Y10162D01*
X9799Y10186D01*
X9804Y10211D01*
X9805Y10236D01*
X9805Y17236D01*
X9805Y17787D01*
X9800Y17812D01*
X9790Y17836D01*
X9776Y17857D01*
X9758Y17875D01*
X9737Y17889D01*
X9713Y17899D01*
X9688Y17904D01*
X9663Y17905D01*
X9112Y17905D01*
X9087Y17900D01*
X9063Y17890D01*
X9042Y17876D01*
X9024Y17858D01*
X9010Y17837D01*
X9000Y17813D01*
X8995Y17788D01*
X8994Y17763D01*
X8994Y17212D01*
X8999Y17187D01*
X9009Y17163D01*
X9023Y17142D01*
X9041Y17124D01*
X9062Y17110D01*
X9086Y17100D01*
X9111Y17095D01*
X9136Y17094D01*
X9687Y17094D01*
X9712Y17099D01*
X9736Y17109D01*
X9757Y17123D01*
X9775Y17141D01*
X9789Y17162D01*
X9799Y17186D01*
X9804Y17211D01*
X9805Y17236D01*
X9805Y10236D01*
X9805Y10709D01*
X9805Y11539D01*
X9789Y11617D01*
X9759Y11691D01*
X9715Y11757D01*
X9659Y11813D01*
X9593Y11857D01*
X9520Y11888D01*
X9442Y11904D01*
X9363Y11905D01*
X9285Y11890D01*
X9255Y11878D01*
X9255Y13427D01*
X9244Y13481D01*
X9223Y13532D01*
X9193Y13577D01*
X9154Y13616D01*
X9108Y13647D01*
X9058Y13668D01*
X9004Y13679D01*
X8949Y13680D01*
X8930Y13676D01*
X8930Y16352D01*
X8919Y16406D01*
X8898Y16457D01*
X8868Y16502D01*
X8829Y16541D01*
X8805Y16558D01*
X8805Y17539D01*
X8789Y17617D01*
X8759Y17691D01*
X8715Y17757D01*
X8659Y17813D01*
X8593Y17857D01*
X8520Y17888D01*
X8442Y17904D01*
X8363Y17905D01*
X8285Y17890D01*
X8211Y17860D01*
X8144Y17817D01*
X8088Y17761D01*
X8043Y17696D01*
X8012Y17623D01*
X8005Y17589D01*
X8005Y17802D01*
X7994Y17856D01*
X7973Y17907D01*
X7943Y17952D01*
X7904Y17991D01*
X7858Y18022D01*
X7808Y18043D01*
X7754Y18054D01*
X7699Y18055D01*
X7645Y18044D01*
X7594Y18024D01*
X7548Y17994D01*
X7509Y17955D01*
X7478Y17910D01*
X7456Y17860D01*
X7445Y17806D01*
X7444Y17751D01*
X7454Y17697D01*
X7474Y17646D01*
X7504Y17600D01*
X7542Y17560D01*
X7587Y17529D01*
X7638Y17507D01*
X7691Y17495D01*
X7746Y17494D01*
X7800Y17504D01*
X7851Y17523D01*
X7898Y17553D01*
X7937Y17591D01*
X7969Y17636D01*
X7991Y17686D01*
X8004Y17739D01*
X8005Y17802D01*
X8005Y17589D01*
X7995Y17545D01*
X7994Y17465D01*
X8008Y17387D01*
X8038Y17313D01*
X8081Y17247D01*
X8136Y17190D01*
X8201Y17144D01*
X8274Y17112D01*
X8351Y17095D01*
X8431Y17094D01*
X8509Y17108D01*
X8583Y17136D01*
X8650Y17179D01*
X8708Y17234D01*
X8753Y17298D01*
X8786Y17371D01*
X8803Y17448D01*
X8805Y17539D01*
X8805Y16558D01*
X8783Y16572D01*
X8733Y16593D01*
X8679Y16604D01*
X8624Y16605D01*
X8570Y16594D01*
X8519Y16574D01*
X8473Y16544D01*
X8437Y16508D01*
X8429Y16516D01*
X8383Y16547D01*
X8333Y16568D01*
X8279Y16579D01*
X8224Y16580D01*
X8170Y16569D01*
X8119Y16549D01*
X8073Y16519D01*
X8034Y16480D01*
X8003Y16435D01*
X7981Y16385D01*
X7970Y16331D01*
X7969Y16276D01*
X7979Y16222D01*
X7999Y16171D01*
X8029Y16125D01*
X8067Y16085D01*
X8112Y16054D01*
X8163Y16032D01*
X8216Y16020D01*
X8271Y16019D01*
X8325Y16029D01*
X8376Y16048D01*
X8423Y16078D01*
X8462Y16115D01*
X8467Y16110D01*
X8512Y16079D01*
X8563Y16057D01*
X8616Y16045D01*
X8671Y16044D01*
X8725Y16054D01*
X8776Y16073D01*
X8823Y16103D01*
X8862Y16141D01*
X8894Y16186D01*
X8916Y16236D01*
X8929Y16289D01*
X8930Y16352D01*
X8930Y13676D01*
X8895Y13669D01*
X8844Y13649D01*
X8798Y13619D01*
X8759Y13580D01*
X8728Y13535D01*
X8706Y13485D01*
X8695Y13431D01*
X8694Y13376D01*
X8704Y13322D01*
X8724Y13271D01*
X8754Y13225D01*
X8792Y13185D01*
X8837Y13154D01*
X8888Y13132D01*
X8941Y13120D01*
X8996Y13119D01*
X9050Y13129D01*
X9101Y13148D01*
X9148Y13178D01*
X9187Y13216D01*
X9219Y13261D01*
X9241Y13311D01*
X9254Y13364D01*
X9255Y13427D01*
X9255Y11878D01*
X9211Y11860D01*
X9144Y11817D01*
X9088Y11761D01*
X9043Y11696D01*
X9012Y11623D01*
X8995Y11545D01*
X8994Y11465D01*
X9008Y11387D01*
X9038Y11313D01*
X9081Y11247D01*
X9136Y11190D01*
X9201Y11144D01*
X9274Y11112D01*
X9351Y11095D01*
X9431Y11094D01*
X9509Y11108D01*
X9583Y11136D01*
X9650Y11179D01*
X9708Y11234D01*
X9753Y11298D01*
X9786Y11371D01*
X9803Y11448D01*
X9805Y11539D01*
X9805Y10709D01*
X9805Y10787D01*
X9800Y10812D01*
X9790Y10836D01*
X9776Y10857D01*
X9758Y10875D01*
X9737Y10889D01*
X9713Y10899D01*
X9688Y10904D01*
X9663Y10905D01*
X9112Y10905D01*
X9087Y10900D01*
X9063Y10890D01*
X9042Y10876D01*
X9024Y10858D01*
X9010Y10837D01*
X9000Y10813D01*
X8995Y10788D01*
X8994Y10763D01*
X8994Y10212D01*
X8999Y10187D01*
X9009Y10163D01*
X9018Y10149D01*
X8806Y10149D01*
X8806Y10502D01*
X8805Y10521D01*
X8805Y11539D01*
X8789Y11617D01*
X8759Y11691D01*
X8715Y11757D01*
X8659Y11813D01*
X8593Y11857D01*
X8580Y11863D01*
X8580Y12752D01*
X8569Y12806D01*
X8548Y12857D01*
X8518Y12902D01*
X8479Y12941D01*
X8433Y12972D01*
X8383Y12993D01*
X8329Y13004D01*
X8274Y13005D01*
X8220Y12994D01*
X8169Y12974D01*
X8130Y12948D01*
X8130Y15102D01*
X8119Y15156D01*
X8098Y15207D01*
X8068Y15252D01*
X8029Y15291D01*
X7983Y15322D01*
X7933Y15343D01*
X7879Y15354D01*
X7824Y15355D01*
X7770Y15344D01*
X7730Y15328D01*
X7730Y16352D01*
X7719Y16406D01*
X7698Y16457D01*
X7668Y16502D01*
X7629Y16541D01*
X7583Y16572D01*
X7533Y16593D01*
X7479Y16604D01*
X7424Y16605D01*
X7370Y16594D01*
X7319Y16574D01*
X7273Y16544D01*
X7234Y16505D01*
X7203Y16460D01*
X7181Y16410D01*
X7170Y16356D01*
X7169Y16301D01*
X7179Y16247D01*
X7199Y16196D01*
X7229Y16150D01*
X7267Y16110D01*
X7312Y16079D01*
X7363Y16057D01*
X7416Y16045D01*
X7471Y16044D01*
X7525Y16054D01*
X7576Y16073D01*
X7623Y16103D01*
X7662Y16141D01*
X7694Y16186D01*
X7716Y16236D01*
X7729Y16289D01*
X7730Y16352D01*
X7730Y15328D01*
X7719Y15324D01*
X7673Y15294D01*
X7634Y15255D01*
X7603Y15210D01*
X7581Y15160D01*
X7570Y15106D01*
X7569Y15051D01*
X7579Y14997D01*
X7599Y14946D01*
X7629Y14900D01*
X7667Y14860D01*
X7712Y14829D01*
X7763Y14807D01*
X7816Y14795D01*
X7871Y14794D01*
X7925Y14804D01*
X7976Y14823D01*
X8023Y14853D01*
X8062Y14891D01*
X8094Y14936D01*
X8116Y14986D01*
X8129Y15039D01*
X8130Y15102D01*
X8130Y12948D01*
X8123Y12944D01*
X8084Y12905D01*
X8053Y12860D01*
X8031Y12810D01*
X8024Y12777D01*
X8019Y12806D01*
X7998Y12857D01*
X7968Y12902D01*
X7929Y12941D01*
X7883Y12972D01*
X7833Y12993D01*
X7779Y13004D01*
X7724Y13005D01*
X7670Y12994D01*
X7619Y12974D01*
X7573Y12944D01*
X7534Y12905D01*
X7503Y12860D01*
X7481Y12810D01*
X7470Y12756D01*
X7469Y12701D01*
X7479Y12647D01*
X7499Y12596D01*
X7529Y12550D01*
X7567Y12510D01*
X7612Y12479D01*
X7663Y12457D01*
X7716Y12445D01*
X7771Y12444D01*
X7825Y12454D01*
X7876Y12473D01*
X7923Y12503D01*
X7962Y12541D01*
X7994Y12586D01*
X8016Y12636D01*
X8025Y12671D01*
X8029Y12647D01*
X8049Y12596D01*
X8079Y12550D01*
X8117Y12510D01*
X8162Y12479D01*
X8213Y12457D01*
X8266Y12445D01*
X8321Y12444D01*
X8375Y12454D01*
X8426Y12473D01*
X8473Y12503D01*
X8512Y12541D01*
X8544Y12586D01*
X8566Y12636D01*
X8579Y12689D01*
X8580Y12752D01*
X8580Y11863D01*
X8520Y11888D01*
X8442Y11904D01*
X8363Y11905D01*
X8285Y11890D01*
X8211Y11860D01*
X8144Y11817D01*
X8088Y11761D01*
X8043Y11696D01*
X8012Y11623D01*
X7995Y11545D01*
X7994Y11465D01*
X8008Y11387D01*
X8038Y11313D01*
X8081Y11247D01*
X8136Y11190D01*
X8201Y11144D01*
X8274Y11112D01*
X8351Y11095D01*
X8431Y11094D01*
X8509Y11108D01*
X8583Y11136D01*
X8650Y11179D01*
X8708Y11234D01*
X8753Y11298D01*
X8786Y11371D01*
X8803Y11448D01*
X8805Y11539D01*
X8805Y10521D01*
X8798Y10581D01*
X8775Y10657D01*
X8740Y10722D01*
X8678Y10750D01*
X8650Y10721D01*
X8650Y10778D01*
X8622Y10840D01*
X8552Y10877D01*
X8476Y10899D01*
X8397Y10906D01*
X8318Y10898D01*
X8242Y10875D01*
X8177Y10840D01*
X8149Y10778D01*
X8400Y10528D01*
X8650Y10778D01*
X8650Y10721D01*
X8428Y10500D01*
X8678Y10249D01*
X8740Y10277D01*
X8777Y10347D01*
X8799Y10423D01*
X8806Y10502D01*
X8806Y10149D01*
X8604Y10149D01*
X8622Y10159D01*
X8650Y10221D01*
X8400Y10471D01*
X8371Y10443D01*
X8371Y10500D01*
X8121Y10750D01*
X8059Y10722D01*
X8022Y10652D01*
X8000Y10576D01*
X7993Y10497D01*
X8001Y10418D01*
X8024Y10342D01*
X8059Y10277D01*
X8121Y10249D01*
X8371Y10500D01*
X8371Y10443D01*
X8149Y10221D01*
X8177Y10159D01*
X8195Y10149D01*
X7505Y10149D01*
X7505Y12002D01*
X7494Y12056D01*
X7473Y12107D01*
X7443Y12152D01*
X7408Y12187D01*
X7412Y12191D01*
X7444Y12236D01*
X7466Y12286D01*
X7479Y12339D01*
X7480Y12402D01*
X7469Y12456D01*
X7448Y12507D01*
X7418Y12552D01*
X7380Y12590D01*
X7394Y12611D01*
X7416Y12661D01*
X7429Y12714D01*
X7430Y12777D01*
X7419Y12831D01*
X7398Y12882D01*
X7368Y12927D01*
X7329Y12966D01*
X7283Y12997D01*
X7233Y13018D01*
X7179Y13029D01*
X7124Y13030D01*
X7070Y13019D01*
X7019Y12999D01*
X6973Y12969D01*
X6934Y12930D01*
X6903Y12885D01*
X6881Y12835D01*
X6870Y12781D01*
X6869Y12726D01*
X6879Y12672D01*
X6899Y12621D01*
X6929Y12575D01*
X6967Y12535D01*
X6969Y12534D01*
X6953Y12510D01*
X6931Y12460D01*
X6920Y12406D01*
X6919Y12351D01*
X6929Y12297D01*
X6949Y12246D01*
X6979Y12200D01*
X7016Y12162D01*
X7009Y12155D01*
X6978Y12110D01*
X6956Y12060D01*
X6945Y12006D01*
X6944Y11951D01*
X6954Y11897D01*
X6974Y11846D01*
X7004Y11800D01*
X7042Y11760D01*
X7087Y11729D01*
X7138Y11707D01*
X7191Y11695D01*
X7246Y11694D01*
X7300Y11704D01*
X7351Y11723D01*
X7398Y11753D01*
X7437Y11791D01*
X7469Y11836D01*
X7491Y11886D01*
X7504Y11939D01*
X7505Y12002D01*
X7505Y10149D01*
X6005Y10149D01*
X6005Y12527D01*
X5994Y12581D01*
X5980Y12616D01*
X5980Y16452D01*
X5969Y16506D01*
X5948Y16557D01*
X5918Y16602D01*
X5879Y16641D01*
X5833Y16672D01*
X5783Y16693D01*
X5729Y16704D01*
X5674Y16705D01*
X5620Y16694D01*
X5580Y16678D01*
X5580Y17035D01*
X5569Y17089D01*
X5548Y17139D01*
X5518Y17185D01*
X5479Y17224D01*
X5433Y17255D01*
X5383Y17276D01*
X5329Y17287D01*
X5274Y17288D01*
X5220Y17277D01*
X5169Y17257D01*
X5123Y17227D01*
X5084Y17188D01*
X5053Y17143D01*
X5031Y17092D01*
X5020Y17039D01*
X5019Y16984D01*
X5029Y16930D01*
X5049Y16879D01*
X5079Y16833D01*
X5117Y16793D01*
X5162Y16762D01*
X5213Y16740D01*
X5266Y16728D01*
X5321Y16727D01*
X5375Y16736D01*
X5426Y16756D01*
X5473Y16786D01*
X5512Y16824D01*
X5544Y16868D01*
X5566Y16919D01*
X5579Y16972D01*
X5580Y17035D01*
X5580Y16678D01*
X5569Y16674D01*
X5523Y16644D01*
X5484Y16605D01*
X5453Y16560D01*
X5431Y16510D01*
X5420Y16456D01*
X5420Y16429D01*
X5370Y16419D01*
X5319Y16399D01*
X5274Y16369D01*
X5279Y16389D01*
X5280Y16452D01*
X5269Y16506D01*
X5248Y16557D01*
X5218Y16602D01*
X5179Y16641D01*
X5133Y16672D01*
X5083Y16693D01*
X5029Y16704D01*
X4974Y16705D01*
X4920Y16694D01*
X4869Y16674D01*
X4823Y16644D01*
X4784Y16605D01*
X4753Y16560D01*
X4731Y16510D01*
X4720Y16456D01*
X4720Y16454D01*
X4674Y16455D01*
X4620Y16444D01*
X4569Y16424D01*
X4523Y16394D01*
X4484Y16355D01*
X4453Y16310D01*
X4431Y16260D01*
X4420Y16206D01*
X4419Y16151D01*
X4429Y16097D01*
X4449Y16046D01*
X4479Y16000D01*
X4517Y15960D01*
X4562Y15929D01*
X4613Y15907D01*
X4666Y15895D01*
X4721Y15894D01*
X4775Y15904D01*
X4826Y15923D01*
X4873Y15953D01*
X4912Y15991D01*
X4944Y16036D01*
X4966Y16086D01*
X4979Y16139D01*
X4979Y16145D01*
X5021Y16144D01*
X5075Y16154D01*
X5126Y16173D01*
X5173Y16203D01*
X5175Y16205D01*
X5170Y16181D01*
X5169Y16126D01*
X5179Y16072D01*
X5199Y16021D01*
X5229Y15975D01*
X5267Y15935D01*
X5312Y15904D01*
X5363Y15882D01*
X5416Y15870D01*
X5471Y15869D01*
X5525Y15879D01*
X5576Y15898D01*
X5623Y15928D01*
X5662Y15966D01*
X5694Y16011D01*
X5716Y16061D01*
X5729Y16114D01*
X5729Y16145D01*
X5775Y16154D01*
X5826Y16173D01*
X5873Y16203D01*
X5912Y16241D01*
X5944Y16286D01*
X5966Y16336D01*
X5979Y16389D01*
X5980Y16452D01*
X5980Y12616D01*
X5973Y12632D01*
X5943Y12677D01*
X5904Y12716D01*
X5858Y12747D01*
X5808Y12768D01*
X5804Y12769D01*
X5805Y12827D01*
X5794Y12881D01*
X5773Y12932D01*
X5743Y12977D01*
X5704Y13016D01*
X5658Y13047D01*
X5608Y13068D01*
X5554Y13079D01*
X5499Y13080D01*
X5445Y13069D01*
X5394Y13049D01*
X5348Y13019D01*
X5309Y12980D01*
X5278Y12935D01*
X5265Y12905D01*
X5233Y12918D01*
X5179Y12929D01*
X5124Y12930D01*
X5070Y12919D01*
X5019Y12899D01*
X4973Y12869D01*
X4949Y12846D01*
X4929Y12866D01*
X4883Y12897D01*
X4833Y12918D01*
X4779Y12929D01*
X4724Y12930D01*
X4670Y12919D01*
X4619Y12899D01*
X4573Y12869D01*
X4534Y12830D01*
X4505Y12787D01*
X4505Y14177D01*
X4494Y14231D01*
X4473Y14282D01*
X4443Y14327D01*
X4404Y14366D01*
X4379Y14383D01*
X4391Y14411D01*
X4404Y14464D01*
X4405Y14527D01*
X4394Y14581D01*
X4373Y14632D01*
X4343Y14677D01*
X4330Y14690D01*
X4330Y17227D01*
X4319Y17281D01*
X4298Y17332D01*
X4268Y17377D01*
X4229Y17416D01*
X4183Y17447D01*
X4133Y17468D01*
X4079Y17479D01*
X4024Y17480D01*
X3970Y17469D01*
X3919Y17449D01*
X3873Y17419D01*
X3834Y17380D01*
X3803Y17335D01*
X3781Y17285D01*
X3770Y17231D01*
X3769Y17176D01*
X3779Y17122D01*
X3799Y17071D01*
X3829Y17025D01*
X3867Y16985D01*
X3912Y16954D01*
X3963Y16932D01*
X4016Y16920D01*
X4071Y16919D01*
X4125Y16929D01*
X4176Y16948D01*
X4223Y16978D01*
X4262Y17016D01*
X4294Y17061D01*
X4316Y17111D01*
X4329Y17164D01*
X4330Y17227D01*
X4330Y14690D01*
X4304Y14716D01*
X4258Y14747D01*
X4208Y14768D01*
X4154Y14779D01*
X4099Y14780D01*
X4045Y14769D01*
X3994Y14749D01*
X3948Y14719D01*
X3909Y14680D01*
X3878Y14635D01*
X3856Y14585D01*
X3845Y14531D01*
X3844Y14476D01*
X3854Y14422D01*
X3874Y14371D01*
X3904Y14325D01*
X3942Y14285D01*
X3970Y14266D01*
X3956Y14235D01*
X3945Y14181D01*
X3944Y14126D01*
X3954Y14072D01*
X3974Y14021D01*
X4004Y13975D01*
X4042Y13935D01*
X4087Y13904D01*
X4138Y13882D01*
X4191Y13870D01*
X4246Y13869D01*
X4300Y13879D01*
X4351Y13898D01*
X4398Y13928D01*
X4437Y13966D01*
X4469Y14011D01*
X4491Y14061D01*
X4504Y14114D01*
X4505Y14177D01*
X4505Y12787D01*
X4503Y12785D01*
X4481Y12735D01*
X4470Y12681D01*
X4469Y12626D01*
X4479Y12572D01*
X4499Y12521D01*
X4529Y12475D01*
X4567Y12435D01*
X4612Y12404D01*
X4663Y12382D01*
X4716Y12370D01*
X4771Y12369D01*
X4825Y12379D01*
X4876Y12398D01*
X4923Y12428D01*
X4950Y12453D01*
X4967Y12435D01*
X5012Y12404D01*
X5063Y12382D01*
X5116Y12370D01*
X5171Y12369D01*
X5225Y12379D01*
X5276Y12398D01*
X5323Y12428D01*
X5362Y12466D01*
X5394Y12511D01*
X5409Y12544D01*
X5438Y12532D01*
X5445Y12530D01*
X5444Y12476D01*
X5454Y12422D01*
X5474Y12371D01*
X5504Y12325D01*
X5542Y12285D01*
X5587Y12254D01*
X5638Y12232D01*
X5691Y12220D01*
X5746Y12219D01*
X5800Y12229D01*
X5851Y12248D01*
X5898Y12278D01*
X5937Y12316D01*
X5969Y12361D01*
X5991Y12411D01*
X6004Y12464D01*
X6005Y12527D01*
X6005Y10149D01*
X4507Y10149D01*
X4455Y10154D01*
X4455Y12602D01*
X4444Y12656D01*
X4423Y12707D01*
X4393Y12752D01*
X4354Y12791D01*
X4308Y12822D01*
X4258Y12843D01*
X4204Y12854D01*
X4149Y12855D01*
X4095Y12844D01*
X4044Y12824D01*
X3998Y12794D01*
X3959Y12755D01*
X3928Y12710D01*
X3906Y12660D01*
X3895Y12606D01*
X3894Y12551D01*
X3904Y12497D01*
X3924Y12446D01*
X3954Y12400D01*
X3992Y12360D01*
X4037Y12329D01*
X4088Y12307D01*
X4141Y12295D01*
X4196Y12294D01*
X4250Y12304D01*
X4301Y12323D01*
X4348Y12353D01*
X4387Y12391D01*
X4419Y12436D01*
X4441Y12486D01*
X4454Y12539D01*
X4455Y12602D01*
X4455Y10154D01*
X3655Y10233D01*
X2930Y10452D01*
X2930Y12535D01*
X2930Y15152D01*
X2919Y15206D01*
X2898Y15257D01*
X2868Y15302D01*
X2829Y15341D01*
X2783Y15372D01*
X2733Y15393D01*
X2679Y15404D01*
X2624Y15405D01*
X2570Y15394D01*
X2519Y15374D01*
X2473Y15344D01*
X2434Y15305D01*
X2403Y15260D01*
X2381Y15210D01*
X2370Y15156D01*
X2369Y15101D01*
X2379Y15047D01*
X2399Y14996D01*
X2429Y14950D01*
X2467Y14910D01*
X2512Y14879D01*
X2563Y14857D01*
X2616Y14845D01*
X2671Y14844D01*
X2725Y14854D01*
X2776Y14873D01*
X2823Y14903D01*
X2862Y14941D01*
X2894Y14986D01*
X2916Y15036D01*
X2929Y15089D01*
X2930Y15152D01*
X2930Y12535D01*
X2919Y12589D01*
X2898Y12639D01*
X2868Y12685D01*
X2829Y12724D01*
X2783Y12755D01*
X2733Y12776D01*
X2679Y12787D01*
X2624Y12788D01*
X2570Y12777D01*
X2519Y12757D01*
X2473Y12727D01*
X2434Y12688D01*
X2403Y12643D01*
X2381Y12592D01*
X2370Y12539D01*
X2369Y12484D01*
X2379Y12430D01*
X2399Y12379D01*
X2429Y12333D01*
X2467Y12293D01*
X2512Y12262D01*
X2563Y12240D01*
X2616Y12228D01*
X2671Y12227D01*
X2725Y12236D01*
X2776Y12256D01*
X2823Y12286D01*
X2862Y12324D01*
X2894Y12368D01*
X2916Y12419D01*
X2929Y12472D01*
X2930Y12535D01*
X2930Y10452D01*
X2842Y10478D01*
X2092Y10877D01*
X1484Y11373D01*
X1484Y15039D01*
X1474Y15093D01*
X1453Y15143D01*
X1422Y15189D01*
X1384Y15228D01*
X1338Y15259D01*
X1287Y15280D01*
X1234Y15291D01*
X1179Y15292D01*
X1125Y15281D01*
X1074Y15261D01*
X1028Y15231D01*
X989Y15192D01*
X958Y15147D01*
X936Y15096D01*
X925Y15043D01*
X924Y14988D01*
X934Y14934D01*
X954Y14883D01*
X984Y14837D01*
X1022Y14797D01*
X1067Y14766D01*
X1117Y14744D01*
X1171Y14732D01*
X1226Y14731D01*
X1280Y14740D01*
X1331Y14760D01*
X1377Y14790D01*
X1417Y14827D01*
X1449Y14872D01*
X1471Y14923D01*
X1483Y14976D01*
X1484Y15039D01*
X1484Y11373D01*
X1435Y11413D01*
X894Y12067D01*
X490Y12814D01*
X239Y13625D01*
X149Y14476D01*
X149Y14492D01*
X233Y15344D01*
X478Y16157D01*
X877Y16907D01*
X1413Y17564D01*
X2067Y18105D01*
X2814Y18509D01*
X3625Y18760D01*
X4476Y18850D01*
X4500Y18850D01*
X8195Y18850D01*
X8144Y18817D01*
X8088Y18761D01*
X8043Y18696D01*
X8012Y18623D01*
X7995Y18545D01*
X7994Y18465D01*
X8008Y18387D01*
X8038Y18313D01*
X8081Y18247D01*
X8136Y18190D01*
X8201Y18144D01*
X8274Y18112D01*
X8351Y18095D01*
X8431Y18094D01*
X8509Y18108D01*
X8583Y18136D01*
X8650Y18179D01*
X8708Y18234D01*
X8753Y18298D01*
X8786Y18371D01*
X8803Y18448D01*
X8805Y18539D01*
X8789Y18617D01*
X8759Y18691D01*
X8715Y18757D01*
X8659Y18813D01*
X8604Y18850D01*
X9195Y18850D01*
X9144Y18817D01*
X9088Y18761D01*
X9043Y18696D01*
X9012Y18623D01*
X8995Y18545D01*
X8994Y18465D01*
X9008Y18387D01*
X9038Y18313D01*
X9081Y18247D01*
X9136Y18190D01*
X9201Y18144D01*
X9274Y18112D01*
X9351Y18095D01*
X9431Y18094D01*
X9509Y18108D01*
X9583Y18136D01*
X9650Y18179D01*
X9708Y18234D01*
X9753Y18298D01*
X9786Y18371D01*
X9803Y18448D01*
X9805Y18539D01*
X9789Y18617D01*
X9759Y18691D01*
X9715Y18757D01*
X9659Y18813D01*
X9604Y18850D01*
X9850Y18850D01*
X9850Y17500D01*
X9850Y11500D01*
X9850Y10149D01*
M02*
