G04 (created by PCBNEW (2013-07-07 BZR 4022)-stable) date 2/22/2014 5:21:18 PM*
%MOIN*%
G04 Gerber Fmt 3.4, Leading zero omitted, Abs format*
%FSLAX34Y34*%
G01*
G70*
G90*
G04 APERTURE LIST*
%ADD10C,0.00590551*%
%ADD11C,0.005*%
%ADD12C,0.0031*%
%ADD13C,0.008*%
%ADD14R,0.0691181X0.029748*%
%ADD15R,0.0888031X0.0868346*%
%ADD16R,0.0888031X0.104551*%
%ADD17R,0.0305X0.0719*%
%ADD18C,0.029*%
%ADD19R,0.0691181X0.0687244*%
%ADD20R,0.205339X0.146283*%
%ADD21R,0.0612441X0.17148*%
%ADD22R,0.0416X0.0534*%
%ADD23R,0.0534X0.0416*%
%ADD24R,0.0534X0.0455*%
%ADD25R,0.0455X0.0534*%
%ADD26R,0.064X0.029*%
%ADD27R,0.059X0.039*%
%ADD28R,0.0652X0.073*%
%ADD29R,0.073X0.0652*%
%ADD30R,0.199039X0.0966772*%
%ADD31R,0.0494331X0.100614*%
%ADD32R,0.069X0.069*%
%ADD33C,0.069*%
%ADD34R,0.035X0.03*%
%ADD35R,0.025811X0.0464803*%
%ADD36R,0.0277795X0.0238425*%
%ADD37R,0.037622X0.0573071*%
%ADD38O,0.0533701X0.0250236*%
%ADD39O,0.0250236X0.0533701*%
%ADD40R,0.0809291X0.0809291*%
%ADD41C,0.039*%
%ADD42R,0.0415591X0.025811*%
%ADD43R,0.033685X0.0277795*%
%ADD44R,0.025811X0.029748*%
%ADD45R,0.0919528X0.110457*%
%ADD46R,0.0309291X0.0289606*%
%ADD47R,0.037622X0.0305354*%
%ADD48O,0.0250236X0.0529764*%
%ADD49O,0.0529764X0.0250236*%
%ADD50R,0.120299X0.120299*%
%ADD51C,0.037622*%
%ADD52R,0.0305354X0.0226614*%
%ADD53C,0.16*%
%ADD54C,0.139*%
%ADD55R,0.045X0.057*%
%ADD56R,0.0495X0.04*%
%ADD57R,0.04X0.0495*%
%ADD58C,0.024*%
%ADD59R,0.100614X0.0809291*%
%ADD60O,0.0237244X0.0533701*%
G04 APERTURE END LIST*
G54D10*
X50718Y13023D02*
X50954Y12767D01*
X50954Y12767D02*
X50954Y16232D01*
X50954Y16232D02*
X50718Y15976D01*
X50718Y13023D02*
X50718Y15976D01*
X50718Y15976D02*
X48750Y15976D01*
X48750Y15976D02*
X48750Y13023D01*
X48750Y13023D02*
X50718Y13023D01*
G54D11*
X45600Y12550D02*
X41700Y12550D01*
X41700Y12550D02*
X41700Y10750D01*
X41700Y10750D02*
X45600Y10750D01*
X45600Y10750D02*
X45600Y12550D01*
X42161Y11050D02*
G75*
G03X42161Y11050I-111J0D01*
G74*
G01*
G54D10*
X37962Y10537D02*
X33237Y10537D01*
X33237Y10537D02*
X33237Y15262D01*
X33237Y15262D02*
X37962Y15262D01*
X37962Y15262D02*
X37962Y10537D01*
G54D11*
X41650Y4800D02*
X41950Y4600D01*
X40950Y4800D02*
X41975Y4800D01*
X41975Y4800D02*
X41975Y4200D01*
X41975Y4200D02*
X40950Y4200D01*
X40950Y4200D02*
X40950Y4800D01*
X45200Y1700D02*
X45000Y1400D01*
X45200Y2400D02*
X45200Y1375D01*
X45200Y1375D02*
X44600Y1375D01*
X44600Y1375D02*
X44600Y2400D01*
X44600Y2400D02*
X45200Y2400D01*
X44950Y6750D02*
X44650Y6950D01*
X45650Y6750D02*
X44625Y6750D01*
X44625Y6750D02*
X44625Y7350D01*
X44625Y7350D02*
X45650Y7350D01*
X45650Y7350D02*
X45650Y6750D01*
G54D12*
X45274Y16213D02*
G75*
G03X45274Y16213I-62J0D01*
G74*
G01*
X45550Y15250D02*
X45150Y15250D01*
X45550Y16275D02*
X45150Y16275D01*
X45150Y15250D02*
X45150Y16275D01*
X45550Y16275D02*
X45550Y15250D01*
X40300Y12237D02*
G75*
G03X40300Y12237I-62J0D01*
G74*
G01*
X39900Y13200D02*
X40300Y13200D01*
X39900Y12175D02*
X40300Y12175D01*
X40300Y13200D02*
X40300Y12175D01*
X39900Y12175D02*
X39900Y13200D01*
X40350Y10287D02*
G75*
G03X40350Y10287I-62J0D01*
G74*
G01*
X39950Y11250D02*
X40350Y11250D01*
X39950Y10225D02*
X40350Y10225D01*
X40350Y11250D02*
X40350Y10225D01*
X39950Y10225D02*
X39950Y11250D01*
X39300Y11287D02*
G75*
G03X39300Y11287I-62J0D01*
G74*
G01*
X38900Y12250D02*
X39300Y12250D01*
X38900Y11225D02*
X39300Y11225D01*
X39300Y12250D02*
X39300Y11225D01*
X38900Y11225D02*
X38900Y12250D01*
X31050Y14037D02*
G75*
G03X31050Y14037I-62J0D01*
G74*
G01*
X30650Y15000D02*
X31050Y15000D01*
X30650Y13975D02*
X31050Y13975D01*
X31050Y15000D02*
X31050Y13975D01*
X30650Y13975D02*
X30650Y15000D01*
X19825Y13388D02*
G75*
G03X19825Y13388I-62J0D01*
G74*
G01*
X18800Y13050D02*
X18800Y13450D01*
X19825Y13050D02*
X19825Y13450D01*
X18800Y13450D02*
X19825Y13450D01*
X19825Y13050D02*
X18800Y13050D01*
G54D13*
X22575Y18125D02*
X22100Y17625D01*
X22575Y17625D02*
X22575Y18875D01*
X22575Y18875D02*
X21325Y18875D01*
X21325Y18875D02*
X21325Y17625D01*
X21325Y17625D02*
X22575Y17625D01*
G54D10*
X19550Y15025D02*
X19750Y15025D01*
X32100Y15025D02*
X32300Y15025D01*
X45050Y15025D02*
X45250Y15025D01*
X28444Y13655D02*
X28444Y13955D01*
X28444Y14545D02*
X28444Y14445D01*
X28444Y13655D02*
X28744Y13655D01*
X28544Y14545D02*
X28444Y14545D01*
X30006Y13655D02*
X30006Y13755D01*
X30006Y14545D02*
X29906Y14545D01*
X30006Y14545D02*
X30006Y14445D01*
X30006Y13655D02*
X29906Y13655D01*
X27995Y17394D02*
X27695Y17394D01*
X27105Y17394D02*
X27205Y17394D01*
X27995Y17394D02*
X27995Y17694D01*
X27105Y17494D02*
X27105Y17394D01*
X27995Y18956D02*
X27895Y18956D01*
X27105Y18956D02*
X27105Y18856D01*
X27105Y18956D02*
X27205Y18956D01*
X27995Y18956D02*
X27995Y18856D01*
X18794Y11455D02*
X18794Y11755D01*
X18794Y12345D02*
X18794Y12245D01*
X18794Y11455D02*
X19094Y11455D01*
X18894Y12345D02*
X18794Y12345D01*
X20356Y11455D02*
X20356Y11555D01*
X20356Y12345D02*
X20256Y12345D01*
X20356Y12345D02*
X20356Y12245D01*
X20356Y11455D02*
X20256Y11455D01*
X21692Y10374D02*
X21692Y12146D01*
X21692Y12146D02*
X23307Y12146D01*
X23307Y12146D02*
X23307Y10374D01*
X23307Y10374D02*
X21692Y10374D01*
X26207Y15375D02*
X26207Y13603D01*
X26207Y13603D02*
X24592Y13603D01*
X24592Y13603D02*
X24592Y15375D01*
X24592Y15375D02*
X26207Y15375D01*
X28328Y15856D02*
X27344Y15856D01*
X27344Y15856D02*
X27344Y16643D01*
X27344Y16643D02*
X28328Y16643D01*
X28328Y16643D02*
X28328Y15856D01*
X20905Y16906D02*
X21005Y16906D01*
X21795Y16906D02*
X21695Y16906D01*
X20905Y16906D02*
X20905Y16806D01*
X21795Y16806D02*
X21795Y16906D01*
X20905Y15344D02*
X21005Y15344D01*
X21795Y15344D02*
X21795Y15444D01*
X21795Y15344D02*
X21695Y15344D01*
X20905Y15344D02*
X20905Y15444D01*
X32300Y16200D02*
X31800Y15950D01*
X31800Y15950D02*
X31300Y16200D01*
X31300Y16200D02*
X31800Y16450D01*
X31800Y16450D02*
X32300Y16200D01*
X29800Y19700D02*
X39800Y19700D01*
X39800Y19700D02*
X39800Y16200D01*
X39800Y16200D02*
X29800Y16200D01*
X29800Y16200D02*
X29800Y19700D01*
X22095Y13110D02*
X22195Y13110D01*
X22095Y13110D02*
X22095Y13210D01*
X22505Y13110D02*
X22505Y13210D01*
X22505Y13110D02*
X22405Y13110D01*
X22505Y13790D02*
X22405Y13790D01*
X22505Y13790D02*
X22505Y13690D01*
X22095Y13790D02*
X22195Y13790D01*
X22095Y13790D02*
X22095Y13690D01*
X17355Y13690D02*
X17255Y13690D01*
X17355Y13690D02*
X17355Y13590D01*
X16945Y13690D02*
X16945Y13590D01*
X16945Y13690D02*
X17045Y13690D01*
X16945Y13010D02*
X17045Y13010D01*
X16945Y13010D02*
X16945Y13110D01*
X17355Y13010D02*
X17255Y13010D01*
X17355Y13010D02*
X17355Y13110D01*
X40647Y13699D02*
X40647Y13799D01*
X40647Y13699D02*
X40747Y13699D01*
X39875Y14104D02*
X39775Y14104D01*
X39875Y14104D02*
X39875Y14204D01*
X16942Y14747D02*
X16942Y14647D01*
X16942Y14747D02*
X16842Y14747D01*
X24050Y11545D02*
X24050Y11645D01*
X24050Y11545D02*
X24150Y11545D01*
X20819Y15245D02*
X20719Y15245D01*
X20819Y15245D02*
X20819Y15345D01*
X19248Y17703D02*
X19148Y17703D01*
X19148Y17703D02*
X19148Y17603D01*
X20592Y17911D02*
X20492Y17911D01*
X20592Y17911D02*
X20592Y18011D01*
X48828Y11800D02*
X48898Y11871D01*
X48898Y11871D02*
X48828Y11942D01*
X13980Y18000D02*
X13980Y19000D01*
X13980Y19000D02*
X16120Y19000D01*
X16120Y19000D02*
X16120Y18000D01*
X16120Y18000D02*
X13980Y18000D01*
X13980Y10000D02*
X13980Y11000D01*
X13980Y11000D02*
X16120Y11000D01*
X16120Y11000D02*
X16120Y10000D01*
X16120Y10000D02*
X13980Y10000D01*
X42330Y17800D02*
X42330Y18800D01*
X42330Y18800D02*
X44470Y18800D01*
X44470Y18800D02*
X44470Y17800D01*
X44470Y17800D02*
X42330Y17800D01*
X42330Y16800D02*
X42330Y17800D01*
X42330Y17800D02*
X44470Y17800D01*
X44470Y17800D02*
X44470Y16800D01*
X44470Y16800D02*
X42330Y16800D01*
X42330Y15800D02*
X42330Y16800D01*
X42330Y16800D02*
X44470Y16800D01*
X44470Y16800D02*
X44470Y15800D01*
X44470Y15800D02*
X42330Y15800D01*
X14050Y8000D02*
X14050Y9000D01*
X14050Y9000D02*
X16050Y9000D01*
X16050Y9000D02*
X16050Y8000D01*
X16050Y8000D02*
X14050Y8000D01*
X14050Y0D02*
X14050Y1000D01*
X14050Y1000D02*
X16050Y1000D01*
X16050Y1000D02*
X16050Y0D01*
X16050Y0D02*
X14050Y0D01*
X42400Y5800D02*
X42400Y6800D01*
X42400Y6800D02*
X44400Y6800D01*
X44400Y6800D02*
X44400Y5800D01*
X44400Y5800D02*
X42400Y5800D01*
X42400Y6800D02*
X42400Y7800D01*
X42400Y7800D02*
X44400Y7800D01*
X44400Y7800D02*
X44400Y6800D01*
X44400Y6800D02*
X42400Y6800D01*
X42400Y7800D02*
X42400Y8800D01*
X42400Y8800D02*
X44400Y8800D01*
X44400Y8800D02*
X44400Y7800D01*
X44400Y7800D02*
X42400Y7800D01*
X24897Y17800D02*
X24897Y17700D01*
X24897Y17800D02*
X24797Y17800D01*
X48410Y14149D02*
X48410Y14249D01*
X48410Y14149D02*
X48310Y14149D01*
G54D12*
X31675Y12238D02*
G75*
G03X31675Y12238I-62J0D01*
G74*
G01*
X30650Y11900D02*
X30650Y12300D01*
X31675Y11900D02*
X31675Y12300D01*
X30650Y12300D02*
X31675Y12300D01*
X31675Y11900D02*
X30650Y11900D01*
G54D10*
X29450Y10400D02*
X29450Y13400D01*
X29450Y13400D02*
X30450Y13400D01*
X30450Y10400D02*
X30450Y13400D01*
X29450Y10400D02*
X30450Y10400D01*
X30950Y10400D02*
X30950Y11400D01*
X30950Y11400D02*
X32950Y11400D01*
X32950Y11400D02*
X32950Y10400D01*
X32950Y10400D02*
X30950Y10400D01*
X8560Y11823D02*
X8460Y11823D01*
X8560Y11823D02*
X8560Y11923D01*
X8460Y11823D02*
X8560Y11923D01*
X2890Y18077D02*
X2990Y18077D01*
X2890Y18077D02*
X2890Y17977D01*
X2990Y18077D02*
X2890Y17977D01*
X5840Y12677D02*
X5940Y12677D01*
X5840Y12677D02*
X5840Y12577D01*
X5940Y12677D02*
X5840Y12577D01*
X5840Y16277D02*
X5940Y16277D01*
X5840Y16277D02*
X5840Y16177D01*
X5940Y16277D02*
X5840Y16177D01*
X56340Y16277D02*
X56440Y16277D01*
X56340Y16277D02*
X56340Y16177D01*
X56440Y16277D02*
X56340Y16177D01*
X2890Y12677D02*
X2990Y12677D01*
X2890Y12677D02*
X2890Y12577D01*
X2990Y12677D02*
X2890Y12577D01*
X56340Y12677D02*
X56440Y12677D01*
X56340Y12677D02*
X56340Y12577D01*
X56440Y12677D02*
X56340Y12577D01*
X8560Y15423D02*
X8460Y15423D01*
X8560Y15423D02*
X8560Y15523D01*
X8460Y15423D02*
X8560Y15523D01*
X5840Y14477D02*
X5940Y14477D01*
X5840Y14477D02*
X5840Y14377D01*
X5940Y14477D02*
X5840Y14377D01*
X5840Y18077D02*
X5940Y18077D01*
X5840Y18077D02*
X5840Y17977D01*
X5940Y18077D02*
X5840Y17977D01*
X2610Y11823D02*
X2510Y11823D01*
X2610Y11823D02*
X2610Y11923D01*
X2510Y11823D02*
X2610Y11923D01*
X2890Y14477D02*
X2990Y14477D01*
X2890Y14477D02*
X2890Y14377D01*
X2990Y14477D02*
X2890Y14377D01*
X59060Y15423D02*
X58960Y15423D01*
X59060Y15423D02*
X59060Y15523D01*
X58960Y15423D02*
X59060Y15523D01*
X56340Y18077D02*
X56440Y18077D01*
X56340Y18077D02*
X56340Y17977D01*
X56440Y18077D02*
X56340Y17977D01*
X56340Y14477D02*
X56440Y14477D01*
X56340Y14477D02*
X56340Y14377D01*
X56440Y14477D02*
X56340Y14377D01*
X59060Y11823D02*
X58960Y11823D01*
X59060Y11823D02*
X59060Y11923D01*
X58960Y11823D02*
X59060Y11923D01*
X2610Y15423D02*
X2510Y15423D01*
X2610Y15423D02*
X2610Y15523D01*
X2510Y15423D02*
X2610Y15523D01*
X2890Y16277D02*
X2990Y16277D01*
X2890Y16277D02*
X2890Y16177D01*
X2990Y16277D02*
X2890Y16177D01*
X26522Y16147D02*
X26622Y16147D01*
X27077Y16147D02*
X27077Y16047D01*
X26522Y16147D02*
X26522Y16047D01*
X27077Y16147D02*
X26977Y16147D01*
X26522Y15152D02*
X26622Y15152D01*
X26522Y15152D02*
X26522Y15252D01*
X26977Y15152D02*
X27077Y15152D01*
X27077Y15152D02*
X27077Y15252D01*
X14852Y16722D02*
X14852Y16822D01*
X14852Y17277D02*
X14952Y17277D01*
X14852Y16722D02*
X14952Y16722D01*
X14852Y17277D02*
X14852Y17177D01*
X15847Y16722D02*
X15847Y16822D01*
X15847Y16722D02*
X15747Y16722D01*
X15847Y17177D02*
X15847Y17277D01*
X15847Y17277D02*
X15747Y17277D01*
X22602Y12422D02*
X22602Y12522D01*
X22602Y12977D02*
X22702Y12977D01*
X22602Y12422D02*
X22702Y12422D01*
X22602Y12977D02*
X22602Y12877D01*
X23597Y12422D02*
X23597Y12522D01*
X23597Y12422D02*
X23497Y12422D01*
X23597Y12877D02*
X23597Y12977D01*
X23597Y12977D02*
X23497Y12977D01*
X26497Y12777D02*
X26497Y12677D01*
X26497Y12222D02*
X26397Y12222D01*
X26497Y12777D02*
X26397Y12777D01*
X26497Y12222D02*
X26497Y12322D01*
X25502Y12777D02*
X25502Y12677D01*
X25502Y12777D02*
X25602Y12777D01*
X25502Y12322D02*
X25502Y12222D01*
X25502Y12222D02*
X25602Y12222D01*
X26497Y13427D02*
X26497Y13327D01*
X26497Y12872D02*
X26397Y12872D01*
X26497Y13427D02*
X26397Y13427D01*
X26497Y12872D02*
X26497Y12972D01*
X25502Y13427D02*
X25502Y13327D01*
X25502Y13427D02*
X25602Y13427D01*
X25502Y12972D02*
X25502Y12872D01*
X25502Y12872D02*
X25602Y12872D01*
X22497Y12977D02*
X22497Y12877D01*
X22497Y12422D02*
X22397Y12422D01*
X22497Y12977D02*
X22397Y12977D01*
X22497Y12422D02*
X22497Y12522D01*
X21502Y12977D02*
X21502Y12877D01*
X21502Y12977D02*
X21602Y12977D01*
X21502Y12522D02*
X21502Y12422D01*
X21502Y12422D02*
X21602Y12422D01*
X29027Y14652D02*
X28927Y14652D01*
X28472Y14652D02*
X28472Y14752D01*
X29027Y14652D02*
X29027Y14752D01*
X28472Y14652D02*
X28572Y14652D01*
X29027Y15647D02*
X28927Y15647D01*
X29027Y15647D02*
X29027Y15547D01*
X28572Y15647D02*
X28472Y15647D01*
X28472Y15647D02*
X28472Y15547D01*
X21902Y16972D02*
X21902Y17072D01*
X21902Y17527D02*
X22002Y17527D01*
X21902Y16972D02*
X22002Y16972D01*
X21902Y17527D02*
X21902Y17427D01*
X22897Y16972D02*
X22897Y17072D01*
X22897Y16972D02*
X22797Y16972D01*
X22897Y17427D02*
X22897Y17527D01*
X22897Y17527D02*
X22797Y17527D01*
X22602Y13072D02*
X22602Y13172D01*
X22602Y13627D02*
X22702Y13627D01*
X22602Y13072D02*
X22702Y13072D01*
X22602Y13627D02*
X22602Y13527D01*
X23597Y13072D02*
X23597Y13172D01*
X23597Y13072D02*
X23497Y13072D01*
X23597Y13527D02*
X23597Y13627D01*
X23597Y13627D02*
X23497Y13627D01*
X22602Y13722D02*
X22602Y13822D01*
X22602Y14277D02*
X22702Y14277D01*
X22602Y13722D02*
X22702Y13722D01*
X22602Y14277D02*
X22602Y14177D01*
X23597Y13722D02*
X23597Y13822D01*
X23597Y13722D02*
X23497Y13722D01*
X23597Y14177D02*
X23597Y14277D01*
X23597Y14277D02*
X23497Y14277D01*
X26297Y17027D02*
X26297Y16927D01*
X26297Y16472D02*
X26197Y16472D01*
X26297Y17027D02*
X26197Y17027D01*
X26297Y16472D02*
X26297Y16572D01*
X25302Y17027D02*
X25302Y16927D01*
X25302Y17027D02*
X25402Y17027D01*
X25302Y16572D02*
X25302Y16472D01*
X25302Y16472D02*
X25402Y16472D01*
X26297Y16327D02*
X26297Y16227D01*
X26297Y15772D02*
X26197Y15772D01*
X26297Y16327D02*
X26197Y16327D01*
X26297Y15772D02*
X26297Y15872D01*
X25302Y16327D02*
X25302Y16227D01*
X25302Y16327D02*
X25402Y16327D01*
X25302Y15872D02*
X25302Y15772D01*
X25302Y15772D02*
X25402Y15772D01*
X22977Y14402D02*
X22877Y14402D01*
X22422Y14402D02*
X22422Y14502D01*
X22977Y14402D02*
X22977Y14502D01*
X22422Y14402D02*
X22522Y14402D01*
X22977Y15397D02*
X22877Y15397D01*
X22977Y15397D02*
X22977Y15297D01*
X22522Y15397D02*
X22422Y15397D01*
X22422Y15397D02*
X22422Y15297D01*
X26927Y16252D02*
X26827Y16252D01*
X26372Y16252D02*
X26372Y16352D01*
X26927Y16252D02*
X26927Y16352D01*
X26372Y16252D02*
X26472Y16252D01*
X26927Y17247D02*
X26827Y17247D01*
X26927Y17247D02*
X26927Y17147D01*
X26472Y17247D02*
X26372Y17247D01*
X26372Y17247D02*
X26372Y17147D01*
X26297Y17677D02*
X26297Y17577D01*
X26297Y17122D02*
X26197Y17122D01*
X26297Y17677D02*
X26197Y17677D01*
X26297Y17122D02*
X26297Y17222D01*
X25302Y17677D02*
X25302Y17577D01*
X25302Y17677D02*
X25402Y17677D01*
X25302Y17222D02*
X25302Y17122D01*
X25302Y17122D02*
X25402Y17122D01*
X46002Y12872D02*
X46002Y12972D01*
X46002Y13427D02*
X46102Y13427D01*
X46002Y12872D02*
X46102Y12872D01*
X46002Y13427D02*
X46002Y13327D01*
X46997Y12872D02*
X46997Y12972D01*
X46997Y12872D02*
X46897Y12872D01*
X46997Y13327D02*
X46997Y13427D01*
X46997Y13427D02*
X46897Y13427D01*
X21797Y17527D02*
X21797Y17427D01*
X21797Y16972D02*
X21697Y16972D01*
X21797Y17527D02*
X21697Y17527D01*
X21797Y16972D02*
X21797Y17072D01*
X20802Y17527D02*
X20802Y17427D01*
X20802Y17527D02*
X20902Y17527D01*
X20802Y17072D02*
X20802Y16972D01*
X20802Y16972D02*
X20902Y16972D01*
X28702Y15772D02*
X28702Y15872D01*
X28702Y16327D02*
X28802Y16327D01*
X28702Y15772D02*
X28802Y15772D01*
X28702Y16327D02*
X28702Y16227D01*
X29697Y15772D02*
X29697Y15872D01*
X29697Y15772D02*
X29597Y15772D01*
X29697Y16227D02*
X29697Y16327D01*
X29697Y16327D02*
X29597Y16327D01*
X28677Y18297D02*
X28677Y18397D01*
X28677Y18852D02*
X28777Y18852D01*
X28677Y18297D02*
X28777Y18297D01*
X28677Y18852D02*
X28677Y18752D01*
X29672Y18297D02*
X29672Y18397D01*
X29672Y18297D02*
X29572Y18297D01*
X29672Y18752D02*
X29672Y18852D01*
X29672Y18852D02*
X29572Y18852D01*
X28677Y17597D02*
X28677Y17697D01*
X28677Y18152D02*
X28777Y18152D01*
X28677Y17597D02*
X28777Y17597D01*
X28677Y18152D02*
X28677Y18052D01*
X29672Y17597D02*
X29672Y17697D01*
X29672Y17597D02*
X29572Y17597D01*
X29672Y18052D02*
X29672Y18152D01*
X29672Y18152D02*
X29572Y18152D01*
X46377Y6852D02*
X46277Y6852D01*
X45822Y6852D02*
X45822Y6952D01*
X46377Y6852D02*
X46377Y6952D01*
X45822Y6852D02*
X45922Y6852D01*
X46377Y7847D02*
X46277Y7847D01*
X46377Y7847D02*
X46377Y7747D01*
X45922Y7847D02*
X45822Y7847D01*
X45822Y7847D02*
X45822Y7747D01*
X40952Y5372D02*
X40952Y5472D01*
X40952Y5927D02*
X41052Y5927D01*
X40952Y5372D02*
X41052Y5372D01*
X40952Y5927D02*
X40952Y5827D01*
X41947Y5372D02*
X41947Y5472D01*
X41947Y5372D02*
X41847Y5372D01*
X41947Y5827D02*
X41947Y5927D01*
X41947Y5927D02*
X41847Y5927D01*
X45397Y3127D02*
X45397Y3027D01*
X45397Y2572D02*
X45297Y2572D01*
X45397Y3127D02*
X45297Y3127D01*
X45397Y2572D02*
X45397Y2672D01*
X44402Y3127D02*
X44402Y3027D01*
X44402Y3127D02*
X44502Y3127D01*
X44402Y2672D02*
X44402Y2572D01*
X44402Y2572D02*
X44502Y2572D01*
X43052Y1622D02*
X43052Y1722D01*
X43052Y2177D02*
X43152Y2177D01*
X43052Y1622D02*
X43152Y1622D01*
X43052Y2177D02*
X43052Y2077D01*
X44047Y1622D02*
X44047Y1722D01*
X44047Y1622D02*
X43947Y1622D01*
X44047Y2077D02*
X44047Y2177D01*
X44047Y2177D02*
X43947Y2177D01*
X45672Y1277D02*
X45672Y1177D01*
X45672Y722D02*
X45572Y722D01*
X45672Y1277D02*
X45572Y1277D01*
X45672Y722D02*
X45672Y822D01*
X44677Y1277D02*
X44677Y1177D01*
X44677Y1277D02*
X44777Y1277D01*
X44677Y822D02*
X44677Y722D01*
X44677Y722D02*
X44777Y722D01*
X41677Y2652D02*
X41577Y2652D01*
X41122Y2652D02*
X41122Y2752D01*
X41677Y2652D02*
X41677Y2752D01*
X41122Y2652D02*
X41222Y2652D01*
X41677Y3647D02*
X41577Y3647D01*
X41677Y3647D02*
X41677Y3547D01*
X41222Y3647D02*
X41122Y3647D01*
X41122Y3647D02*
X41122Y3547D01*
X45222Y8947D02*
X45322Y8947D01*
X45777Y8947D02*
X45777Y8847D01*
X45222Y8947D02*
X45222Y8847D01*
X45777Y8947D02*
X45677Y8947D01*
X45222Y7952D02*
X45322Y7952D01*
X45222Y7952D02*
X45222Y8052D01*
X45677Y7952D02*
X45777Y7952D01*
X45777Y7952D02*
X45777Y8052D01*
X38272Y14997D02*
X38372Y14997D01*
X38827Y14997D02*
X38827Y14897D01*
X38272Y14997D02*
X38272Y14897D01*
X38827Y14997D02*
X38727Y14997D01*
X38272Y14002D02*
X38372Y14002D01*
X38272Y14002D02*
X38272Y14102D01*
X38727Y14002D02*
X38827Y14002D01*
X38827Y14002D02*
X38827Y14102D01*
X41072Y12197D02*
X41172Y12197D01*
X41627Y12197D02*
X41627Y12097D01*
X41072Y12197D02*
X41072Y12097D01*
X41627Y12197D02*
X41527Y12197D01*
X41072Y11202D02*
X41172Y11202D01*
X41072Y11202D02*
X41072Y11302D01*
X41527Y11202D02*
X41627Y11202D01*
X41627Y11202D02*
X41627Y11302D01*
X39972Y14997D02*
X40072Y14997D01*
X40527Y14997D02*
X40527Y14897D01*
X39972Y14997D02*
X39972Y14897D01*
X40527Y14997D02*
X40427Y14997D01*
X39972Y14002D02*
X40072Y14002D01*
X39972Y14002D02*
X39972Y14102D01*
X40427Y14002D02*
X40527Y14002D01*
X40527Y14002D02*
X40527Y14102D01*
X45547Y6177D02*
X45547Y6077D01*
X45547Y5622D02*
X45447Y5622D01*
X45547Y6177D02*
X45447Y6177D01*
X45547Y5622D02*
X45547Y5722D01*
X44552Y6177D02*
X44552Y6077D01*
X44552Y6177D02*
X44652Y6177D01*
X44552Y5722D02*
X44552Y5622D01*
X44552Y5622D02*
X44652Y5622D01*
X40222Y16397D02*
X40322Y16397D01*
X40777Y16397D02*
X40777Y16297D01*
X40222Y16397D02*
X40222Y16297D01*
X40777Y16397D02*
X40677Y16397D01*
X40222Y15402D02*
X40322Y15402D01*
X40222Y15402D02*
X40222Y15502D01*
X40677Y15402D02*
X40777Y15402D01*
X40777Y15402D02*
X40777Y15502D01*
X41527Y12652D02*
X41427Y12652D01*
X40972Y12652D02*
X40972Y12752D01*
X41527Y12652D02*
X41527Y12752D01*
X40972Y12652D02*
X41072Y12652D01*
X41527Y13647D02*
X41427Y13647D01*
X41527Y13647D02*
X41527Y13547D01*
X41072Y13647D02*
X40972Y13647D01*
X40972Y13647D02*
X40972Y13547D01*
X40222Y4997D02*
X40322Y4997D01*
X40777Y4997D02*
X40777Y4897D01*
X40222Y4997D02*
X40222Y4897D01*
X40777Y4997D02*
X40677Y4997D01*
X40222Y4002D02*
X40322Y4002D01*
X40222Y4002D02*
X40222Y4102D01*
X40677Y4002D02*
X40777Y4002D01*
X40777Y4002D02*
X40777Y4102D01*
X29122Y15647D02*
X29222Y15647D01*
X29677Y15647D02*
X29677Y15547D01*
X29122Y15647D02*
X29122Y15547D01*
X29677Y15647D02*
X29577Y15647D01*
X29122Y14652D02*
X29222Y14652D01*
X29122Y14652D02*
X29122Y14752D01*
X29577Y14652D02*
X29677Y14652D01*
X29677Y14652D02*
X29677Y14752D01*
X20402Y11622D02*
X20402Y11722D01*
X20402Y12177D02*
X20502Y12177D01*
X20402Y11622D02*
X20502Y11622D01*
X20402Y12177D02*
X20402Y12077D01*
X21397Y11622D02*
X21397Y11722D01*
X21397Y11622D02*
X21297Y11622D01*
X21397Y12077D02*
X21397Y12177D01*
X21397Y12177D02*
X21297Y12177D01*
X24572Y11397D02*
X24672Y11397D01*
X25127Y11397D02*
X25127Y11297D01*
X24572Y11397D02*
X24572Y11297D01*
X25127Y11397D02*
X25027Y11397D01*
X24572Y10402D02*
X24672Y10402D01*
X24572Y10402D02*
X24572Y10502D01*
X25027Y10402D02*
X25127Y10402D01*
X25127Y10402D02*
X25127Y10502D01*
X14852Y15722D02*
X14852Y15822D01*
X14852Y16277D02*
X14952Y16277D01*
X14852Y15722D02*
X14952Y15722D01*
X14852Y16277D02*
X14852Y16177D01*
X15847Y15722D02*
X15847Y15822D01*
X15847Y15722D02*
X15747Y15722D01*
X15847Y16177D02*
X15847Y16277D01*
X15847Y16277D02*
X15747Y16277D01*
X25472Y11397D02*
X25572Y11397D01*
X26027Y11397D02*
X26027Y11297D01*
X25472Y11397D02*
X25472Y11297D01*
X26027Y11397D02*
X25927Y11397D01*
X25472Y10402D02*
X25572Y10402D01*
X25472Y10402D02*
X25472Y10502D01*
X25927Y10402D02*
X26027Y10402D01*
X26027Y10402D02*
X26027Y10502D01*
X26497Y12127D02*
X26497Y12027D01*
X26497Y11572D02*
X26397Y11572D01*
X26497Y12127D02*
X26397Y12127D01*
X26497Y11572D02*
X26497Y11672D01*
X25502Y12127D02*
X25502Y12027D01*
X25502Y12127D02*
X25602Y12127D01*
X25502Y11672D02*
X25502Y11572D01*
X25502Y11572D02*
X25602Y11572D01*
X21997Y13627D02*
X21997Y13527D01*
X21997Y13072D02*
X21897Y13072D01*
X21997Y13627D02*
X21897Y13627D01*
X21997Y13072D02*
X21997Y13172D01*
X21002Y13627D02*
X21002Y13527D01*
X21002Y13627D02*
X21102Y13627D01*
X21002Y13172D02*
X21002Y13072D01*
X21002Y13072D02*
X21102Y13072D01*
X21902Y15972D02*
X21902Y16072D01*
X21902Y16527D02*
X22002Y16527D01*
X21902Y15972D02*
X22002Y15972D01*
X21902Y16527D02*
X21902Y16427D01*
X22897Y15972D02*
X22897Y16072D01*
X22897Y15972D02*
X22797Y15972D01*
X22897Y16427D02*
X22897Y16527D01*
X22897Y16527D02*
X22797Y16527D01*
X26997Y18927D02*
X26997Y18827D01*
X26997Y18372D02*
X26897Y18372D01*
X26997Y18927D02*
X26897Y18927D01*
X26997Y18372D02*
X26997Y18472D01*
X26002Y18927D02*
X26002Y18827D01*
X26002Y18927D02*
X26102Y18927D01*
X26002Y18472D02*
X26002Y18372D01*
X26002Y18372D02*
X26102Y18372D01*
X22897Y17027D02*
X22897Y16927D01*
X22897Y16472D02*
X22797Y16472D01*
X22897Y17027D02*
X22797Y17027D01*
X22897Y16472D02*
X22897Y16572D01*
X21902Y17027D02*
X21902Y16927D01*
X21902Y17027D02*
X22002Y17027D01*
X21902Y16572D02*
X21902Y16472D01*
X21902Y16472D02*
X22002Y16472D01*
X22897Y16027D02*
X22897Y15927D01*
X22897Y15472D02*
X22797Y15472D01*
X22897Y16027D02*
X22797Y16027D01*
X22897Y15472D02*
X22897Y15572D01*
X21902Y16027D02*
X21902Y15927D01*
X21902Y16027D02*
X22002Y16027D01*
X21902Y15572D02*
X21902Y15472D01*
X21902Y15472D02*
X22002Y15472D01*
X20402Y12322D02*
X20402Y12422D01*
X20402Y12877D02*
X20502Y12877D01*
X20402Y12322D02*
X20502Y12322D01*
X20402Y12877D02*
X20402Y12777D01*
X21397Y12322D02*
X21397Y12422D01*
X21397Y12322D02*
X21297Y12322D01*
X21397Y12777D02*
X21397Y12877D01*
X21397Y12877D02*
X21297Y12877D01*
X17422Y13697D02*
X17522Y13697D01*
X17977Y13697D02*
X17977Y13597D01*
X17422Y13697D02*
X17422Y13597D01*
X17977Y13697D02*
X17877Y13697D01*
X17422Y12702D02*
X17522Y12702D01*
X17422Y12702D02*
X17422Y12802D01*
X17877Y12702D02*
X17977Y12702D01*
X17977Y12702D02*
X17977Y12802D01*
X18072Y13697D02*
X18172Y13697D01*
X18627Y13697D02*
X18627Y13597D01*
X18072Y13697D02*
X18072Y13597D01*
X18627Y13697D02*
X18527Y13697D01*
X18072Y12702D02*
X18172Y12702D01*
X18072Y12702D02*
X18072Y12802D01*
X18527Y12702D02*
X18627Y12702D01*
X18627Y12702D02*
X18627Y12802D01*
X24902Y18372D02*
X24902Y18472D01*
X24902Y18927D02*
X25002Y18927D01*
X24902Y18372D02*
X25002Y18372D01*
X24902Y18927D02*
X24902Y18827D01*
X25897Y18372D02*
X25897Y18472D01*
X25897Y18372D02*
X25797Y18372D01*
X25897Y18827D02*
X25897Y18927D01*
X25897Y18927D02*
X25797Y18927D01*
X24797Y18927D02*
X24797Y18827D01*
X24797Y18372D02*
X24697Y18372D01*
X24797Y18927D02*
X24697Y18927D01*
X24797Y18372D02*
X24797Y18472D01*
X23802Y18927D02*
X23802Y18827D01*
X23802Y18927D02*
X23902Y18927D01*
X23802Y18472D02*
X23802Y18372D01*
X23802Y18372D02*
X23902Y18372D01*
X23677Y17902D02*
X23577Y17902D01*
X23122Y17902D02*
X23122Y18002D01*
X23677Y17902D02*
X23677Y18002D01*
X23122Y17902D02*
X23222Y17902D01*
X23677Y18897D02*
X23577Y18897D01*
X23677Y18897D02*
X23677Y18797D01*
X23222Y18897D02*
X23122Y18897D01*
X23122Y18897D02*
X23122Y18797D01*
X46697Y12777D02*
X46697Y12677D01*
X46697Y12222D02*
X46597Y12222D01*
X46697Y12777D02*
X46597Y12777D01*
X46697Y12222D02*
X46697Y12322D01*
X45702Y12777D02*
X45702Y12677D01*
X45702Y12777D02*
X45802Y12777D01*
X45702Y12322D02*
X45702Y12222D01*
X45702Y12222D02*
X45802Y12222D01*
X29697Y16977D02*
X29697Y16877D01*
X29697Y16422D02*
X29597Y16422D01*
X29697Y16977D02*
X29597Y16977D01*
X29697Y16422D02*
X29697Y16522D01*
X28702Y16977D02*
X28702Y16877D01*
X28702Y16977D02*
X28802Y16977D01*
X28702Y16522D02*
X28702Y16422D01*
X28702Y16422D02*
X28802Y16422D01*
X44902Y3222D02*
X44902Y3322D01*
X44902Y3777D02*
X45002Y3777D01*
X44902Y3222D02*
X45002Y3222D01*
X44902Y3777D02*
X44902Y3677D01*
X45897Y3222D02*
X45897Y3322D01*
X45897Y3222D02*
X45797Y3222D01*
X45897Y3677D02*
X45897Y3777D01*
X45897Y3777D02*
X45797Y3777D01*
X45822Y6747D02*
X45922Y6747D01*
X46377Y6747D02*
X46377Y6647D01*
X45822Y6747D02*
X45822Y6647D01*
X46377Y6747D02*
X46277Y6747D01*
X45822Y5752D02*
X45922Y5752D01*
X45822Y5752D02*
X45822Y5852D01*
X46277Y5752D02*
X46377Y5752D01*
X46377Y5752D02*
X46377Y5852D01*
X42327Y2652D02*
X42227Y2652D01*
X41772Y2652D02*
X41772Y2752D01*
X42327Y2652D02*
X42327Y2752D01*
X41772Y2652D02*
X41872Y2652D01*
X42327Y3647D02*
X42227Y3647D01*
X42327Y3647D02*
X42327Y3547D01*
X41872Y3647D02*
X41772Y3647D01*
X41772Y3647D02*
X41772Y3547D01*
X43052Y922D02*
X43052Y1022D01*
X43052Y1477D02*
X43152Y1477D01*
X43052Y922D02*
X43152Y922D01*
X43052Y1477D02*
X43052Y1377D01*
X44047Y922D02*
X44047Y1022D01*
X44047Y922D02*
X43947Y922D01*
X44047Y1377D02*
X44047Y1477D01*
X44047Y1477D02*
X43947Y1477D01*
X44572Y8947D02*
X44672Y8947D01*
X45127Y8947D02*
X45127Y8847D01*
X44572Y8947D02*
X44572Y8847D01*
X45127Y8947D02*
X45027Y8947D01*
X44572Y7952D02*
X44672Y7952D01*
X44572Y7952D02*
X44572Y8052D01*
X45027Y7952D02*
X45127Y7952D01*
X45127Y7952D02*
X45127Y8052D01*
X20527Y13002D02*
X20427Y13002D01*
X19972Y13002D02*
X19972Y13102D01*
X20527Y13002D02*
X20527Y13102D01*
X19972Y13002D02*
X20072Y13002D01*
X20527Y13997D02*
X20427Y13997D01*
X20527Y13997D02*
X20527Y13897D01*
X20072Y13997D02*
X19972Y13997D01*
X19972Y13997D02*
X19972Y13897D01*
X31802Y13422D02*
X31802Y13522D01*
X31802Y13977D02*
X31902Y13977D01*
X31802Y13422D02*
X31902Y13422D01*
X31802Y13977D02*
X31802Y13877D01*
X32797Y13422D02*
X32797Y13522D01*
X32797Y13422D02*
X32697Y13422D01*
X32797Y13877D02*
X32797Y13977D01*
X32797Y13977D02*
X32697Y13977D01*
X44752Y13422D02*
X44752Y13522D01*
X44752Y13977D02*
X44852Y13977D01*
X44752Y13422D02*
X44852Y13422D01*
X44752Y13977D02*
X44752Y13877D01*
X45747Y13422D02*
X45747Y13522D01*
X45747Y13422D02*
X45647Y13422D01*
X45747Y13877D02*
X45747Y13977D01*
X45747Y13977D02*
X45647Y13977D01*
X39472Y16097D02*
X39572Y16097D01*
X40027Y16097D02*
X40027Y15997D01*
X39472Y16097D02*
X39472Y15997D01*
X40027Y16097D02*
X39927Y16097D01*
X39472Y15102D02*
X39572Y15102D01*
X39472Y15102D02*
X39472Y15202D01*
X39927Y15102D02*
X40027Y15102D01*
X40027Y15102D02*
X40027Y15202D01*
X39897Y13977D02*
X39897Y13877D01*
X39897Y13422D02*
X39797Y13422D01*
X39897Y13977D02*
X39797Y13977D01*
X39897Y13422D02*
X39897Y13522D01*
X38902Y13977D02*
X38902Y13877D01*
X38902Y13977D02*
X39002Y13977D01*
X38902Y13522D02*
X38902Y13422D01*
X38902Y13422D02*
X39002Y13422D01*
X38772Y16097D02*
X38872Y16097D01*
X39327Y16097D02*
X39327Y15997D01*
X38772Y16097D02*
X38772Y15997D01*
X39327Y16097D02*
X39227Y16097D01*
X38772Y15102D02*
X38872Y15102D01*
X38772Y15102D02*
X38772Y15202D01*
X39227Y15102D02*
X39327Y15102D01*
X39327Y15102D02*
X39327Y15202D01*
X42077Y15402D02*
X41977Y15402D01*
X41522Y15402D02*
X41522Y15502D01*
X42077Y15402D02*
X42077Y15502D01*
X41522Y15402D02*
X41622Y15402D01*
X42077Y16397D02*
X41977Y16397D01*
X42077Y16397D02*
X42077Y16297D01*
X41622Y16397D02*
X41522Y16397D01*
X41522Y16397D02*
X41522Y16297D01*
X41427Y15402D02*
X41327Y15402D01*
X40872Y15402D02*
X40872Y15502D01*
X41427Y15402D02*
X41427Y15502D01*
X40872Y15402D02*
X40972Y15402D01*
X41427Y16397D02*
X41327Y16397D01*
X41427Y16397D02*
X41427Y16297D01*
X40972Y16397D02*
X40872Y16397D01*
X40872Y16397D02*
X40872Y16297D01*
X39522Y4997D02*
X39622Y4997D01*
X40077Y4997D02*
X40077Y4897D01*
X39522Y4997D02*
X39522Y4897D01*
X40077Y4997D02*
X39977Y4997D01*
X39522Y4002D02*
X39622Y4002D01*
X39522Y4002D02*
X39522Y4102D01*
X39977Y4002D02*
X40077Y4002D01*
X40077Y4002D02*
X40077Y4102D01*
X16797Y12927D02*
X16797Y12827D01*
X16797Y12372D02*
X16697Y12372D01*
X16797Y12927D02*
X16697Y12927D01*
X16797Y12372D02*
X16797Y12472D01*
X15802Y12927D02*
X15802Y12827D01*
X15802Y12927D02*
X15902Y12927D01*
X15802Y12472D02*
X15802Y12372D01*
X15802Y12372D02*
X15902Y12372D01*
X16797Y15327D02*
X16797Y15227D01*
X16797Y14772D02*
X16697Y14772D01*
X16797Y15327D02*
X16697Y15327D01*
X16797Y14772D02*
X16797Y14872D01*
X15802Y15327D02*
X15802Y15227D01*
X15802Y15327D02*
X15902Y15327D01*
X15802Y14872D02*
X15802Y14772D01*
X15802Y14772D02*
X15902Y14772D01*
X24550Y10900D02*
G75*
G03X24550Y10900I-200J0D01*
G74*
G01*
X48750Y10600D02*
G75*
G03X48750Y10600I-200J0D01*
G74*
G01*
X24300Y15150D02*
G75*
G03X24300Y15150I-200J0D01*
G74*
G01*
X24100Y18100D02*
G75*
G03X24100Y18100I-200J0D01*
G74*
G01*
X23950Y18350D02*
G75*
G03X23950Y18350I-200J0D01*
G74*
G01*
X49650Y16900D02*
G75*
G03X49650Y16900I-200J0D01*
G74*
G01*
X46500Y12000D02*
G75*
G03X46500Y12000I-200J0D01*
G74*
G01*
X48350Y13950D02*
G75*
G03X48350Y13950I-200J0D01*
G74*
G01*
X48650Y15650D02*
G75*
G03X48650Y15650I-200J0D01*
G74*
G01*
X49100Y12400D02*
G75*
G03X49100Y12400I-200J0D01*
G74*
G01*
X48650Y12850D02*
G75*
G03X48650Y12850I-200J0D01*
G74*
G01*
X23450Y15150D02*
G75*
G03X23450Y15150I-200J0D01*
G74*
G01*
X41325Y10250D02*
G75*
G03X41325Y10250I-200J0D01*
G74*
G01*
X48550Y10500D02*
G75*
G03X48550Y10500I-200J0D01*
G74*
G01*
X47050Y12500D02*
G75*
G03X47050Y12500I-200J0D01*
G74*
G01*
X43225Y10125D02*
G75*
G03X43225Y10125I-200J0D01*
G74*
G01*
X23250Y16750D02*
G75*
G03X23250Y16750I-200J0D01*
G74*
G01*
X23250Y17150D02*
G75*
G03X23250Y17150I-200J0D01*
G74*
G01*
X24300Y17900D02*
G75*
G03X24300Y17900I-200J0D01*
G74*
G01*
X28399Y15705D02*
X28399Y15605D01*
X28399Y15705D02*
X28299Y15705D01*
X15695Y14244D02*
X15595Y14244D01*
X14805Y14244D02*
X14905Y14244D01*
X15695Y14244D02*
X15695Y14344D01*
X14805Y14344D02*
X14805Y14244D01*
X15695Y15806D02*
X15595Y15806D01*
X14805Y15806D02*
X14805Y15706D01*
X14805Y15806D02*
X14905Y15806D01*
X15695Y15806D02*
X15695Y15706D01*
X15695Y12644D02*
X15595Y12644D01*
X14805Y12644D02*
X14905Y12644D01*
X15695Y12644D02*
X15695Y12744D01*
X14805Y12744D02*
X14805Y12644D01*
X15695Y14206D02*
X15595Y14206D01*
X14805Y14206D02*
X14805Y14106D01*
X14805Y14206D02*
X14905Y14206D01*
X15695Y14206D02*
X15695Y14106D01*
X15695Y11044D02*
X15595Y11044D01*
X14805Y11044D02*
X14905Y11044D01*
X15695Y11044D02*
X15695Y11144D01*
X14805Y11144D02*
X14805Y11044D01*
X15695Y12606D02*
X15595Y12606D01*
X14805Y12606D02*
X14805Y12506D01*
X14805Y12606D02*
X14905Y12606D01*
X15695Y12606D02*
X15695Y12506D01*
%LPC*%
G54D14*
X48750Y13988D03*
X48750Y14244D03*
X48750Y14500D03*
X48750Y14755D03*
X48750Y15011D03*
G54D15*
X49872Y14057D03*
X49872Y14942D03*
G54D16*
X49872Y13023D03*
X49872Y15976D03*
G54D17*
X43522Y10548D03*
X43778Y10548D03*
X44034Y10548D03*
X44290Y10548D03*
X42758Y12750D03*
X42754Y10548D03*
X43010Y10548D03*
X43266Y10548D03*
X44546Y12752D03*
X44290Y12752D03*
X44034Y12752D03*
X43778Y12752D03*
X43522Y12752D03*
X43266Y12752D03*
X44546Y10548D03*
X43010Y12750D03*
X42498Y10548D03*
X44802Y10548D03*
X44802Y12752D03*
X42498Y12752D03*
X42243Y10548D03*
X45057Y10548D03*
X45057Y12752D03*
X42243Y12752D03*
X41987Y10548D03*
X45313Y10548D03*
X45313Y12752D03*
X41987Y12752D03*
G54D18*
X39250Y4500D03*
X46450Y3500D03*
X46450Y5500D03*
G54D19*
X18700Y15900D03*
X18700Y16624D03*
G54D20*
X17132Y16262D03*
G54D19*
X16450Y18200D03*
X16450Y17475D03*
G54D20*
X18017Y17837D03*
G54D21*
X37804Y12900D03*
X33395Y12900D03*
G54D22*
X41825Y4000D03*
X41450Y4000D03*
X41075Y4000D03*
X41075Y5000D03*
X41450Y5000D03*
X41825Y5000D03*
G54D23*
X44400Y1525D03*
X44400Y1900D03*
X44400Y2275D03*
X45400Y2275D03*
X45400Y1900D03*
X45400Y1525D03*
G54D22*
X44775Y7550D03*
X45150Y7550D03*
X45525Y7550D03*
X45525Y6550D03*
X45150Y6550D03*
X44775Y6550D03*
G54D24*
X45783Y15750D03*
X44917Y15375D03*
X44917Y16125D03*
X39667Y12700D03*
X40533Y13075D03*
X40533Y12325D03*
X39717Y10750D03*
X40583Y11125D03*
X40583Y10375D03*
X38667Y11750D03*
X39533Y12125D03*
X39533Y11375D03*
X30417Y14500D03*
X31283Y14875D03*
X31283Y14125D03*
G54D25*
X19300Y12817D03*
X18925Y13683D03*
X19675Y13683D03*
G54D26*
X22800Y17866D03*
X22800Y18122D03*
X22800Y18378D03*
X22800Y18634D03*
X21100Y18634D03*
X21100Y18378D03*
X21100Y18122D03*
X21100Y17866D03*
G54D27*
X19450Y14300D03*
X20000Y14300D03*
X20000Y14750D03*
X19450Y14750D03*
X32000Y14300D03*
X32550Y14300D03*
X32550Y14750D03*
X32000Y14750D03*
X44950Y14300D03*
X45500Y14300D03*
X45500Y14750D03*
X44950Y14750D03*
G54D28*
X29600Y14100D03*
X28850Y14100D03*
G54D29*
X27550Y18550D03*
X27550Y17800D03*
G54D28*
X19950Y11900D03*
X19200Y11900D03*
G54D30*
X22500Y10650D03*
X22500Y11870D03*
X25400Y15100D03*
X25400Y13879D03*
G54D31*
X28250Y16250D03*
X27423Y16250D03*
G54D29*
X21350Y15750D03*
X21350Y16500D03*
G54D32*
X31800Y17450D03*
G54D33*
X31800Y18450D03*
X32800Y17450D03*
X32800Y18450D03*
X33800Y17450D03*
X33800Y18450D03*
X34800Y17450D03*
X34800Y18450D03*
X35800Y17450D03*
X35800Y18450D03*
X36800Y17450D03*
X36800Y18450D03*
X37800Y17450D03*
X37800Y18450D03*
G54D32*
X55450Y17000D03*
G54D33*
X55450Y16000D03*
X55450Y15000D03*
X55450Y14000D03*
X55450Y13000D03*
X55450Y12000D03*
G54D32*
X14450Y12000D03*
G54D33*
X14450Y13000D03*
X14450Y14000D03*
X14450Y15000D03*
X14450Y16000D03*
X14450Y17000D03*
G54D34*
X22300Y13610D03*
X22300Y13290D03*
X17150Y13190D03*
X17150Y13510D03*
G54D35*
X40856Y14011D03*
X41053Y14011D03*
X41250Y14011D03*
X41446Y14011D03*
X41643Y14011D03*
X41643Y14988D03*
X41446Y14988D03*
X41250Y14988D03*
X41053Y14988D03*
X40856Y14988D03*
G54D36*
X39655Y14303D03*
X39655Y14500D03*
X39655Y14696D03*
X39144Y14696D03*
X39144Y14303D03*
G54D37*
X16674Y14381D03*
X16300Y14381D03*
X15925Y14381D03*
X15925Y13318D03*
X16300Y13318D03*
X16674Y13318D03*
G54D38*
X25158Y12204D03*
X25158Y12401D03*
X25158Y12598D03*
X25158Y12795D03*
X23941Y12795D03*
X23941Y12598D03*
X23941Y12401D03*
X23941Y12204D03*
G54D39*
X24254Y11891D03*
X24451Y11891D03*
X24648Y11891D03*
X24845Y11891D03*
X24845Y13108D03*
X24648Y13108D03*
X24451Y13108D03*
X24254Y13108D03*
G54D40*
X24550Y12500D03*
G54D41*
X24550Y12500D03*
X24746Y12696D03*
X24746Y12303D03*
X24353Y12303D03*
X24353Y12696D03*
G54D42*
X20531Y15454D03*
X20531Y15651D03*
X20531Y15848D03*
X20531Y16045D03*
X19468Y16045D03*
X19468Y15848D03*
X19468Y15651D03*
X19468Y15454D03*
G54D43*
X19398Y17483D03*
X19398Y17227D03*
X19398Y16972D03*
X19398Y16716D03*
G54D44*
X20540Y17483D03*
X20540Y17227D03*
X20540Y16972D03*
X20540Y16716D03*
G54D45*
X20091Y17100D03*
G54D46*
X19950Y17657D03*
X19950Y16542D03*
G54D47*
X20324Y18144D03*
X20324Y18400D03*
X20324Y18655D03*
X19575Y18655D03*
X19575Y18400D03*
X19575Y18144D03*
G54D32*
X50450Y18500D03*
G54D33*
X49450Y18500D03*
X49450Y17500D03*
X50450Y17500D03*
G54D32*
X9400Y17500D03*
G54D33*
X8400Y17500D03*
X8400Y18500D03*
X9400Y18500D03*
G54D32*
X9400Y10500D03*
G54D33*
X8400Y10500D03*
X8400Y11500D03*
X9400Y11500D03*
G54D32*
X50450Y11500D03*
G54D33*
X49450Y11500D03*
X49450Y10500D03*
X50450Y10500D03*
G54D10*
G36*
X48785Y11871D02*
X48492Y11577D01*
X48323Y11746D01*
X48617Y12040D01*
X48785Y11871D01*
X48785Y11871D01*
G37*
G36*
X48646Y12010D02*
X48352Y11716D01*
X48184Y11885D01*
X48478Y12179D01*
X48646Y12010D01*
X48646Y12010D01*
G37*
G36*
X48507Y12149D02*
X48213Y11855D01*
X48045Y12024D01*
X48339Y12318D01*
X48507Y12149D01*
X48507Y12149D01*
G37*
G36*
X48368Y12289D02*
X48074Y11995D01*
X47905Y12163D01*
X48199Y12457D01*
X48368Y12289D01*
X48368Y12289D01*
G37*
G36*
X48229Y12428D02*
X47935Y12134D01*
X47766Y12302D01*
X48060Y12596D01*
X48229Y12428D01*
X48229Y12428D01*
G37*
G36*
X48090Y12567D02*
X47796Y12273D01*
X47627Y12442D01*
X47921Y12735D01*
X48090Y12567D01*
X48090Y12567D01*
G37*
G36*
X46976Y11453D02*
X46682Y11159D01*
X46514Y11328D01*
X46807Y11622D01*
X46976Y11453D01*
X46976Y11453D01*
G37*
G36*
X47115Y11314D02*
X46821Y11020D01*
X46653Y11189D01*
X46947Y11483D01*
X47115Y11314D01*
X47115Y11314D01*
G37*
G36*
X47254Y11175D02*
X46960Y10881D01*
X46792Y11050D01*
X47086Y11344D01*
X47254Y11175D01*
X47254Y11175D01*
G37*
G36*
X47394Y11036D02*
X47100Y10742D01*
X46931Y10910D01*
X47225Y11204D01*
X47394Y11036D01*
X47394Y11036D01*
G37*
G36*
X47533Y10897D02*
X47239Y10603D01*
X47070Y10771D01*
X47364Y11065D01*
X47533Y10897D01*
X47533Y10897D01*
G37*
G36*
X47672Y10757D02*
X47378Y10464D01*
X47209Y10632D01*
X47503Y10926D01*
X47672Y10757D01*
X47672Y10757D01*
G37*
G36*
X47378Y12735D02*
X47672Y12442D01*
X47503Y12273D01*
X47209Y12567D01*
X47378Y12735D01*
X47378Y12735D01*
G37*
G36*
X47239Y12596D02*
X47533Y12302D01*
X47364Y12134D01*
X47070Y12428D01*
X47239Y12596D01*
X47239Y12596D01*
G37*
G36*
X47100Y12457D02*
X47394Y12163D01*
X47225Y11995D01*
X46931Y12289D01*
X47100Y12457D01*
X47100Y12457D01*
G37*
G36*
X46960Y12318D02*
X47254Y12024D01*
X47086Y11855D01*
X46792Y12149D01*
X46960Y12318D01*
X46960Y12318D01*
G37*
G36*
X46821Y12179D02*
X47115Y11885D01*
X46947Y11716D01*
X46653Y12010D01*
X46821Y12179D01*
X46821Y12179D01*
G37*
G36*
X46682Y12040D02*
X46976Y11746D01*
X46807Y11577D01*
X46514Y11871D01*
X46682Y12040D01*
X46682Y12040D01*
G37*
G36*
X47796Y10926D02*
X48090Y10632D01*
X47921Y10464D01*
X47627Y10757D01*
X47796Y10926D01*
X47796Y10926D01*
G37*
G36*
X47935Y11065D02*
X48229Y10771D01*
X48060Y10603D01*
X47766Y10897D01*
X47935Y11065D01*
X47935Y11065D01*
G37*
G36*
X48074Y11204D02*
X48368Y10910D01*
X48199Y10742D01*
X47905Y11036D01*
X48074Y11204D01*
X48074Y11204D01*
G37*
G36*
X48213Y11344D02*
X48507Y11050D01*
X48339Y10881D01*
X48045Y11175D01*
X48213Y11344D01*
X48213Y11344D01*
G37*
G36*
X48352Y11483D02*
X48646Y11189D01*
X48478Y11020D01*
X48184Y11314D01*
X48352Y11483D01*
X48352Y11483D01*
G37*
G36*
X48492Y11622D02*
X48785Y11328D01*
X48617Y11159D01*
X48323Y11453D01*
X48492Y11622D01*
X48492Y11622D01*
G37*
G36*
X48514Y11600D02*
X47650Y10735D01*
X46785Y11600D01*
X47650Y12464D01*
X48514Y11600D01*
X48514Y11600D01*
G37*
G54D32*
X14550Y18500D03*
G54D33*
X15550Y18500D03*
G54D32*
X14550Y10500D03*
G54D33*
X15550Y10500D03*
G54D32*
X42900Y18300D03*
G54D33*
X43900Y18300D03*
G54D32*
X42900Y17300D03*
G54D33*
X43900Y17300D03*
G54D32*
X42900Y16300D03*
G54D33*
X43900Y16300D03*
G54D32*
X14550Y8500D03*
G54D33*
X15550Y8500D03*
G54D32*
X14550Y500D03*
G54D33*
X15550Y500D03*
G54D32*
X42900Y6300D03*
G54D33*
X43900Y6300D03*
G54D32*
X42900Y7300D03*
G54D33*
X43900Y7300D03*
G54D32*
X42900Y8300D03*
G54D33*
X43900Y8300D03*
G54D48*
X24692Y17455D03*
X24495Y17455D03*
X24298Y17455D03*
X24101Y17455D03*
X23904Y17455D03*
X23707Y17455D03*
X23707Y15844D03*
X23904Y15844D03*
X24101Y15844D03*
X24298Y15844D03*
X24495Y15844D03*
X24692Y15844D03*
G54D49*
X23394Y17142D03*
X23394Y16945D03*
X23394Y16748D03*
X23394Y16551D03*
X23394Y16354D03*
X23394Y16157D03*
X25005Y16157D03*
X25005Y16354D03*
X25005Y16551D03*
X25005Y16748D03*
X25005Y16945D03*
X25005Y17142D03*
G54D50*
X24200Y16650D03*
G54D51*
X24554Y16295D03*
X24200Y16295D03*
X23845Y16295D03*
X23845Y16650D03*
X24200Y16650D03*
X24554Y16650D03*
X24554Y17004D03*
X24200Y17004D03*
X23845Y17004D03*
G54D52*
X48177Y14342D03*
X48177Y14500D03*
X48177Y14657D03*
X47922Y14657D03*
X47922Y14500D03*
X47922Y14342D03*
G54D53*
X21500Y14500D03*
X43400Y14500D03*
G54D54*
X18100Y14500D03*
X46800Y14500D03*
G54D25*
X31150Y11667D03*
X30775Y12533D03*
X31525Y12533D03*
G54D32*
X29950Y10900D03*
G54D33*
X29950Y11900D03*
X29950Y12900D03*
G54D32*
X31450Y10900D03*
G54D33*
X32450Y10900D03*
G54D55*
X7654Y12188D03*
X8254Y12188D03*
X8254Y13218D03*
X7654Y13218D03*
X3795Y17711D03*
X3195Y17711D03*
X3195Y16681D03*
X3795Y16681D03*
X6745Y12311D03*
X6145Y12311D03*
X6145Y11281D03*
X6745Y11281D03*
X6745Y15911D03*
X6145Y15911D03*
X6145Y14881D03*
X6745Y14881D03*
X57245Y15911D03*
X56645Y15911D03*
X56645Y14881D03*
X57245Y14881D03*
X3795Y12311D03*
X3195Y12311D03*
X3195Y11281D03*
X3795Y11281D03*
X57245Y12311D03*
X56645Y12311D03*
X56645Y11281D03*
X57245Y11281D03*
X7654Y15788D03*
X8254Y15788D03*
X8254Y16818D03*
X7654Y16818D03*
X6745Y14111D03*
X6145Y14111D03*
X6145Y13081D03*
X6745Y13081D03*
X6745Y17711D03*
X6145Y17711D03*
X6145Y16681D03*
X6745Y16681D03*
X1704Y12188D03*
X2304Y12188D03*
X2304Y13218D03*
X1704Y13218D03*
X3795Y14111D03*
X3195Y14111D03*
X3195Y13081D03*
X3795Y13081D03*
X58154Y15788D03*
X58754Y15788D03*
X58754Y16818D03*
X58154Y16818D03*
X57245Y17711D03*
X56645Y17711D03*
X56645Y16681D03*
X57245Y16681D03*
X57245Y14111D03*
X56645Y14111D03*
X56645Y13081D03*
X57245Y13081D03*
X58154Y12188D03*
X58754Y12188D03*
X58754Y13218D03*
X58154Y13218D03*
X1704Y15788D03*
X2304Y15788D03*
X2304Y16818D03*
X1704Y16818D03*
X3795Y15911D03*
X3195Y15911D03*
X3195Y14881D03*
X3795Y14881D03*
G54D56*
X26800Y15382D03*
X26800Y15917D03*
G54D57*
X15617Y17000D03*
X15082Y17000D03*
X23367Y12700D03*
X22832Y12700D03*
X25732Y12500D03*
X26267Y12500D03*
X25732Y13150D03*
X26267Y13150D03*
X21732Y12700D03*
X22267Y12700D03*
G54D56*
X28750Y15417D03*
X28750Y14882D03*
G54D57*
X22667Y17250D03*
X22132Y17250D03*
X23367Y13350D03*
X22832Y13350D03*
X23367Y14000D03*
X22832Y14000D03*
X25532Y16750D03*
X26067Y16750D03*
X25532Y16050D03*
X26067Y16050D03*
G54D56*
X22700Y15167D03*
X22700Y14632D03*
X26650Y17017D03*
X26650Y16482D03*
G54D57*
X25532Y17400D03*
X26067Y17400D03*
X46767Y13150D03*
X46232Y13150D03*
X21032Y17250D03*
X21567Y17250D03*
X29467Y16050D03*
X28932Y16050D03*
X29442Y18575D03*
X28907Y18575D03*
X29442Y17875D03*
X28907Y17875D03*
G54D56*
X46100Y7617D03*
X46100Y7082D03*
G54D57*
X41717Y5650D03*
X41182Y5650D03*
X44632Y2850D03*
X45167Y2850D03*
X43817Y1900D03*
X43282Y1900D03*
X44907Y1000D03*
X45442Y1000D03*
G54D56*
X41400Y3417D03*
X41400Y2882D03*
X45500Y8182D03*
X45500Y8717D03*
X38550Y14232D03*
X38550Y14767D03*
X41350Y11432D03*
X41350Y11967D03*
X40250Y14232D03*
X40250Y14767D03*
G54D57*
X44782Y5900D03*
X45317Y5900D03*
G54D56*
X40500Y15632D03*
X40500Y16167D03*
X41250Y13417D03*
X41250Y12882D03*
X40500Y4232D03*
X40500Y4767D03*
X29400Y14882D03*
X29400Y15417D03*
G54D57*
X21167Y11900D03*
X20632Y11900D03*
G54D56*
X24850Y10632D03*
X24850Y11167D03*
G54D57*
X15617Y16000D03*
X15082Y16000D03*
G54D56*
X25750Y10632D03*
X25750Y11167D03*
G54D57*
X25732Y11850D03*
X26267Y11850D03*
X21232Y13350D03*
X21767Y13350D03*
X22667Y16250D03*
X22132Y16250D03*
X26232Y18650D03*
X26767Y18650D03*
X22132Y16750D03*
X22667Y16750D03*
X22132Y15750D03*
X22667Y15750D03*
X21167Y12600D03*
X20632Y12600D03*
G54D56*
X17700Y12932D03*
X17700Y13467D03*
X18350Y12932D03*
X18350Y13467D03*
G54D57*
X25667Y18650D03*
X25132Y18650D03*
X24032Y18650D03*
X24567Y18650D03*
G54D56*
X23400Y18667D03*
X23400Y18132D03*
G54D57*
X45932Y12500D03*
X46467Y12500D03*
X28932Y16700D03*
X29467Y16700D03*
X45667Y3500D03*
X45132Y3500D03*
G54D56*
X46100Y5982D03*
X46100Y6517D03*
X42050Y3417D03*
X42050Y2882D03*
G54D57*
X43817Y1200D03*
X43282Y1200D03*
G54D56*
X44850Y8182D03*
X44850Y8717D03*
X20250Y13767D03*
X20250Y13232D03*
G54D57*
X32567Y13700D03*
X32032Y13700D03*
X45517Y13700D03*
X44982Y13700D03*
G54D56*
X39750Y15332D03*
X39750Y15867D03*
G54D57*
X39132Y13700D03*
X39667Y13700D03*
G54D56*
X39050Y15332D03*
X39050Y15867D03*
X41800Y16167D03*
X41800Y15632D03*
X41150Y16167D03*
X41150Y15632D03*
X39800Y4232D03*
X39800Y4767D03*
G54D57*
X16032Y12650D03*
X16567Y12650D03*
X16032Y15050D03*
X16567Y15050D03*
G54D58*
X24350Y10900D03*
X48550Y10600D03*
X24100Y15150D03*
X23900Y18100D03*
X23750Y18350D03*
X49450Y16900D03*
X46300Y12000D03*
X48150Y13950D03*
X48450Y15650D03*
X48900Y12400D03*
X48450Y12850D03*
X23250Y15150D03*
X41125Y10250D03*
X48350Y10500D03*
X46850Y12500D03*
X43025Y10125D03*
X23050Y16750D03*
X23050Y17150D03*
X24100Y17900D03*
G54D59*
X27800Y14750D03*
G54D41*
X27800Y14750D03*
X27603Y14553D03*
X27603Y14946D03*
X27996Y14946D03*
X27996Y14553D03*
G54D60*
X27878Y15358D03*
X27721Y15358D03*
X27563Y15358D03*
X27406Y15358D03*
X28193Y15358D03*
X28036Y15358D03*
X27406Y14141D03*
X27563Y14141D03*
X27721Y14141D03*
X27878Y14141D03*
X28036Y14141D03*
X28193Y14141D03*
G54D29*
X15250Y15400D03*
X15250Y14650D03*
X15250Y13800D03*
X15250Y13050D03*
X15250Y12200D03*
X15250Y11450D03*
M02*
