G04 (created by PCBNEW (2013-07-07 BZR 4022)-stable) date 3/1/2014 5:06:07 PM*
%MOIN*%
G04 Gerber Fmt 3.4, Leading zero omitted, Abs format*
%FSLAX34Y34*%
G01*
G70*
G90*
G04 APERTURE LIST*
%ADD10C,0.00590551*%
%ADD11C,0.001*%
G04 APERTURE END LIST*
G54D10*
G54D11*
X1400Y1000D02*
G75*
G03X1400Y1000I-400J0D01*
G74*
G01*
X500Y1500D02*
X500Y0D01*
X1500Y1500D02*
X500Y1500D01*
X1500Y500D02*
X1500Y1500D01*
X0Y500D02*
X1500Y500D01*
X500Y11500D02*
X500Y10000D01*
X1500Y11500D02*
X500Y11500D01*
X1500Y10500D02*
X1500Y11500D01*
X0Y10500D02*
X1500Y10500D01*
X1400Y11000D02*
G75*
G03X1400Y11000I-400J0D01*
G74*
G01*
X1400Y19000D02*
G75*
G03X1400Y19000I-400J0D01*
G74*
G01*
X1500Y19500D02*
X0Y19500D01*
X1500Y18500D02*
X1500Y19500D01*
X500Y18500D02*
X1500Y18500D01*
X500Y20000D02*
X500Y18500D01*
X500Y31500D02*
X500Y30000D01*
X1500Y31500D02*
X500Y31500D01*
X1500Y30500D02*
X1500Y31500D01*
X0Y30500D02*
X1500Y30500D01*
X1400Y31000D02*
G75*
G03X1400Y31000I-400J0D01*
G74*
G01*
X1400Y39000D02*
G75*
G03X1400Y39000I-400J0D01*
G74*
G01*
X1500Y39500D02*
X0Y39500D01*
X1500Y38500D02*
X1500Y39500D01*
X500Y38500D02*
X1500Y38500D01*
X500Y40000D02*
X500Y38500D01*
X45050Y25000D02*
G75*
G03X45050Y25000I-1150J0D01*
G74*
G01*
X23150Y25000D02*
G75*
G03X23150Y25000I-1150J0D01*
G74*
G01*
X10500Y39500D02*
X5000Y39500D01*
X10500Y39500D02*
X10500Y30500D01*
X10500Y30500D02*
X5000Y30500D01*
X500Y35000D02*
G75*
G03X5000Y30500I4500J0D01*
G74*
G01*
X5000Y39500D02*
G75*
G03X500Y35000I0J-4500D01*
G74*
G01*
X14450Y39500D02*
X51450Y39500D01*
X51450Y39500D02*
X51450Y30500D01*
X51450Y30500D02*
X14450Y30500D01*
X14450Y30500D02*
X14450Y39500D01*
X14450Y29500D02*
X51450Y29500D01*
X51450Y29500D02*
X51450Y20500D01*
X51450Y20500D02*
X14450Y20500D01*
X14450Y20500D02*
X14450Y29500D01*
X6000Y29500D02*
X7100Y29500D01*
X6000Y29500D02*
X6000Y20500D01*
X6000Y20500D02*
X7100Y20500D01*
X7100Y20500D02*
G75*
G03X11600Y25000I0J4500D01*
G74*
G01*
X11600Y25000D02*
G75*
G03X7100Y29500I-4500J0D01*
G74*
G01*
X11600Y5000D02*
G75*
G03X7100Y9500I-4500J0D01*
G74*
G01*
X7100Y500D02*
G75*
G03X11600Y5000I0J4500D01*
G74*
G01*
X6000Y500D02*
X7100Y500D01*
X6000Y9500D02*
X6000Y500D01*
X6000Y9500D02*
X7100Y9500D01*
X14450Y500D02*
X14450Y9500D01*
X51450Y500D02*
X14450Y500D01*
X51450Y9500D02*
X51450Y500D01*
X14450Y9500D02*
X51450Y9500D01*
X14450Y10500D02*
X14450Y19500D01*
X51450Y10500D02*
X14450Y10500D01*
X51450Y19500D02*
X51450Y10500D01*
X14450Y19500D02*
X51450Y19500D01*
X5000Y19500D02*
G75*
G03X500Y15000I0J-4500D01*
G74*
G01*
X500Y15000D02*
G75*
G03X5000Y10500I4500J0D01*
G74*
G01*
X10500Y10500D02*
X5000Y10500D01*
X10500Y19500D02*
X10500Y10500D01*
X10500Y19500D02*
X5000Y19500D01*
X23150Y5000D02*
G75*
G03X23150Y5000I-1150J0D01*
G74*
G01*
X45050Y5000D02*
G75*
G03X45050Y5000I-1150J0D01*
G74*
G01*
M02*
