G04 (created by PCBNEW (2013-07-07 BZR 4022)-stable) date 2/23/2014 11:45:34 PM*
%MOIN*%
G04 Gerber Fmt 3.4, Leading zero omitted, Abs format*
%FSLAX34Y34*%
G01*
G70*
G90*
G04 APERTURE LIST*
%ADD10C,0.00590551*%
%ADD11R,0.0165X0.0579*%
%ADD12R,0.055X0.055*%
%ADD13C,0.055*%
%ADD14C,0.023622*%
%ADD15C,0.146*%
%ADD16C,0.125*%
%ADD17R,0.11811X0.0472441*%
%ADD18R,0.031X0.043*%
%ADD19R,0.026X0.0355*%
%ADD20R,0.0355X0.026*%
%ADD21C,0.029*%
%ADD22C,0.03*%
%ADD23C,0.01*%
%ADD24C,0.006*%
G04 APERTURE END LIST*
G54D10*
G54D11*
X7422Y15602D03*
X7678Y15602D03*
X7934Y15602D03*
X8190Y15602D03*
X6658Y13400D03*
X6654Y15602D03*
X6910Y15602D03*
X7166Y15602D03*
X8446Y13398D03*
X8190Y13398D03*
X7934Y13398D03*
X7678Y13398D03*
X7422Y13398D03*
X7166Y13398D03*
X8446Y15602D03*
X6910Y13400D03*
X6398Y15602D03*
X8702Y15602D03*
X8702Y13398D03*
X6398Y13398D03*
X57322Y15602D03*
X57578Y15602D03*
X57834Y15602D03*
X58090Y15602D03*
X56558Y13400D03*
X56554Y15602D03*
X56810Y15602D03*
X57066Y15602D03*
X58346Y13398D03*
X58090Y13398D03*
X57834Y13398D03*
X57578Y13398D03*
X57322Y13398D03*
X57066Y13398D03*
X58346Y15602D03*
X56810Y13400D03*
X56298Y15602D03*
X58602Y15602D03*
X58602Y13398D03*
X56298Y13398D03*
X4672Y15602D03*
X4928Y15602D03*
X5184Y15602D03*
X5440Y15602D03*
X3908Y13400D03*
X3904Y15602D03*
X4160Y15602D03*
X4416Y15602D03*
X5696Y13398D03*
X5440Y13398D03*
X5184Y13398D03*
X4928Y13398D03*
X4672Y13398D03*
X4416Y13398D03*
X5696Y15602D03*
X4160Y13400D03*
X3648Y15602D03*
X5952Y15602D03*
X5952Y13398D03*
X3648Y13398D03*
G54D12*
X31800Y17450D03*
G54D13*
X31800Y18450D03*
X32800Y17450D03*
X32800Y18450D03*
X33800Y17450D03*
X33800Y18450D03*
X34800Y17450D03*
X34800Y18450D03*
X35800Y17450D03*
X35800Y18450D03*
X36800Y17450D03*
X36800Y18450D03*
X37800Y17450D03*
X37800Y18450D03*
G54D12*
X14450Y12000D03*
G54D13*
X14450Y13000D03*
X14450Y14000D03*
X14450Y15000D03*
X14450Y16000D03*
X14450Y17000D03*
G54D12*
X50450Y18500D03*
G54D13*
X49450Y18500D03*
X49450Y17500D03*
X50450Y17500D03*
G54D12*
X50450Y11500D03*
G54D13*
X49450Y11500D03*
X49450Y10500D03*
X50450Y10500D03*
G54D12*
X14550Y18500D03*
G54D13*
X15550Y18500D03*
G54D12*
X14550Y10500D03*
G54D13*
X15550Y10500D03*
G54D12*
X42900Y18300D03*
G54D13*
X43900Y18300D03*
G54D12*
X42900Y17300D03*
G54D13*
X43900Y17300D03*
G54D12*
X42900Y16300D03*
G54D13*
X43900Y16300D03*
G54D12*
X14550Y8500D03*
G54D13*
X15550Y8500D03*
G54D12*
X14550Y500D03*
G54D13*
X15550Y500D03*
G54D12*
X42900Y6300D03*
G54D13*
X43900Y6300D03*
G54D12*
X42900Y7300D03*
G54D13*
X43900Y7300D03*
G54D12*
X42900Y8300D03*
G54D13*
X43900Y8300D03*
G54D14*
X24554Y16295D03*
X24200Y16295D03*
X23845Y16295D03*
X23845Y16650D03*
X24200Y16650D03*
X24554Y16650D03*
X24554Y17004D03*
X24200Y17004D03*
X23845Y17004D03*
G54D15*
X21500Y14500D03*
X43400Y14500D03*
G54D16*
X18100Y14500D03*
X46800Y14500D03*
G54D12*
X29950Y10900D03*
G54D13*
X29950Y11900D03*
X29950Y12900D03*
G54D12*
X31450Y10900D03*
G54D13*
X32450Y10900D03*
G54D17*
X56950Y11007D03*
X56950Y11992D03*
X2650Y13492D03*
X2650Y12507D03*
X5350Y11992D03*
X5350Y11007D03*
X5300Y17992D03*
X5300Y17007D03*
X56950Y17007D03*
X56950Y17992D03*
X2650Y16542D03*
X2650Y15557D03*
G54D18*
X604Y15011D03*
X1204Y15011D03*
X1204Y13981D03*
X604Y13981D03*
X59254Y15011D03*
X59854Y15011D03*
X59854Y13981D03*
X59254Y13981D03*
G54D19*
X6832Y11500D03*
X7367Y11500D03*
G54D20*
X3800Y12817D03*
X3800Y12282D03*
G54D19*
X56782Y12800D03*
X57317Y12800D03*
X56282Y16300D03*
X56817Y16300D03*
X6382Y16300D03*
X6917Y16300D03*
X3782Y16300D03*
X4317Y16300D03*
G54D20*
X4350Y11767D03*
X4350Y11232D03*
X6500Y17767D03*
X6500Y17232D03*
X7150Y17767D03*
X7150Y17232D03*
X55450Y10432D03*
X55450Y10967D03*
X2650Y14232D03*
X2650Y14767D03*
X6275Y11767D03*
X6275Y11232D03*
G54D21*
X27800Y14750D03*
X27603Y14553D03*
X27603Y14946D03*
X27996Y14946D03*
X27996Y14553D03*
X24550Y12500D03*
X24746Y12696D03*
X24746Y12303D03*
X24353Y12303D03*
X24353Y12696D03*
G54D12*
X9400Y10500D03*
G54D13*
X8400Y10500D03*
X8400Y11500D03*
X9400Y11500D03*
G54D12*
X9400Y17500D03*
G54D13*
X8400Y17500D03*
X8400Y18500D03*
X9400Y18500D03*
G54D12*
X55450Y17000D03*
G54D13*
X55450Y16000D03*
X55450Y15000D03*
X55450Y14000D03*
X55450Y13000D03*
X55450Y12000D03*
G54D22*
X22000Y11875D03*
X22500Y11870D03*
X23000Y11875D03*
X56050Y13500D03*
X3525Y13575D03*
X6825Y11775D03*
X7200Y16625D03*
X4250Y16750D03*
X40250Y14232D03*
X41450Y4000D03*
X45500Y8182D03*
X41350Y11432D03*
X41250Y13417D03*
X41800Y16167D03*
X45783Y15750D03*
X45932Y12500D03*
X29400Y15417D03*
X22132Y16750D03*
X19300Y12817D03*
X19000Y15250D03*
X15617Y17000D03*
X16032Y15050D03*
X46767Y13150D03*
X26232Y18650D03*
X23400Y18667D03*
X19950Y18450D03*
X21550Y17900D03*
X44400Y13750D03*
X23394Y17775D03*
X7200Y12375D03*
X4225Y14150D03*
X56000Y14050D03*
X47050Y15900D03*
X43500Y13550D03*
X41800Y15632D03*
X25132Y18650D03*
X7225Y11975D03*
X4125Y14500D03*
X47475Y15900D03*
X43250Y13250D03*
X41150Y15632D03*
X24567Y18650D03*
X25532Y17400D03*
X39600Y16600D03*
X38850Y16850D03*
X25800Y17950D03*
X49000Y13525D03*
X25400Y18050D03*
X39200Y16600D03*
X47975Y15900D03*
X20600Y18000D03*
X19850Y15150D03*
X19950Y18050D03*
X19800Y16050D03*
X20150Y15450D03*
X16674Y13318D03*
X16674Y14381D03*
X19850Y15650D03*
X42200Y13900D03*
X42550Y13550D03*
X41400Y10250D03*
X30500Y16050D03*
X30850Y13075D03*
X22667Y17250D03*
X39132Y13700D03*
X43175Y11150D03*
X43550Y11100D03*
X19675Y13950D03*
X45450Y11200D03*
X31250Y13075D03*
X44917Y16125D03*
X45750Y10600D03*
X44550Y11050D03*
X44900Y11150D03*
X44650Y13450D03*
X48600Y10275D03*
X46775Y10650D03*
X35950Y14300D03*
X36450Y14800D03*
X40450Y17400D03*
X43950Y13700D03*
X41675Y12925D03*
X43000Y12175D03*
X44525Y12225D03*
X36775Y13600D03*
X40583Y10375D03*
X45600Y12750D03*
X23367Y12700D03*
X24400Y11300D03*
X7450Y16325D03*
X7725Y17775D03*
X8250Y16300D03*
X7850Y15075D03*
X8650Y16325D03*
X8975Y13400D03*
X8300Y12725D03*
X7750Y12725D03*
X5300Y17007D03*
X4700Y16175D03*
X4050Y17200D03*
X5000Y16425D03*
X5450Y16150D03*
X5700Y16425D03*
X5725Y12500D03*
X5525Y12800D03*
X5150Y12650D03*
X1204Y15011D03*
X2650Y15125D03*
X4750Y12650D03*
X2650Y12507D03*
X58125Y16325D03*
X57825Y16125D03*
X58425Y14875D03*
X58700Y15125D03*
X58700Y13825D03*
X58425Y14100D03*
X55075Y17925D03*
X55075Y10950D03*
X4175Y12575D03*
X7150Y12750D03*
X41725Y13300D03*
X44200Y11150D03*
X39750Y15332D03*
X41975Y12175D03*
X42350Y12175D03*
X39050Y15332D03*
X15250Y11450D03*
X30775Y12533D03*
X39525Y11950D03*
X40583Y11125D03*
X20525Y14675D03*
X46232Y13150D03*
X33395Y12900D03*
X48750Y15400D03*
X41350Y11967D03*
X40533Y13075D03*
X40250Y14767D03*
X40500Y16167D03*
X38550Y14767D03*
X28750Y14882D03*
X28932Y16050D03*
X27550Y17800D03*
X26067Y16750D03*
X22267Y12700D03*
X22832Y12700D03*
X22832Y13350D03*
X22132Y15750D03*
X22132Y17250D03*
X22250Y18650D03*
X17700Y13467D03*
X19200Y11900D03*
X16300Y13850D03*
X21567Y17250D03*
X20600Y18400D03*
X21767Y13350D03*
X23400Y15550D03*
X21232Y13350D03*
X25532Y16750D03*
X23100Y15750D03*
X19725Y13225D03*
X20150Y15950D03*
X19950Y18850D03*
X39667Y12700D03*
X19300Y13950D03*
X31625Y13200D03*
X45500Y14750D03*
X38667Y11750D03*
X32550Y14750D03*
X20500Y14300D03*
X39717Y10750D03*
X32275Y12825D03*
X32032Y13700D03*
X20250Y13232D03*
G54D23*
X22500Y11870D02*
X22004Y11870D01*
X22004Y11870D02*
X22000Y11875D01*
X22504Y11875D02*
X23000Y11875D01*
X22500Y11870D02*
X22504Y11875D01*
G54D24*
X56298Y13398D02*
X56152Y13398D01*
X56152Y13398D02*
X56050Y13500D01*
G54D23*
X56554Y15602D02*
X56554Y15204D01*
X56554Y15204D02*
X56500Y15150D01*
X56500Y15150D02*
X56150Y15150D01*
X56150Y15150D02*
X55450Y15850D01*
X55450Y15850D02*
X55450Y16000D01*
X3648Y13398D02*
X3525Y13521D01*
X3525Y13521D02*
X3525Y13575D01*
X3800Y12817D02*
X3648Y12969D01*
X3648Y12969D02*
X3648Y13398D01*
X6832Y11825D02*
X6832Y11782D01*
X6832Y11782D02*
X6825Y11775D01*
X6398Y13398D02*
X6398Y12575D01*
X6832Y12141D02*
X6832Y11825D01*
X6832Y11825D02*
X6832Y11500D01*
X6398Y12575D02*
X6832Y12141D01*
X6398Y13398D02*
X6398Y13477D01*
G54D24*
X6654Y15602D02*
X6654Y16504D01*
X6775Y16625D02*
X7200Y16625D01*
X6654Y16504D02*
X6775Y16625D01*
X4160Y15602D02*
X4160Y15890D01*
X4050Y16550D02*
X4250Y16750D01*
X4050Y16000D02*
X4050Y16550D01*
X4160Y15890D02*
X4050Y16000D01*
G54D23*
X6654Y15602D02*
X6910Y15602D01*
G54D24*
X56298Y13398D02*
X56298Y12952D01*
X56450Y12800D02*
X56782Y12800D01*
X56298Y12952D02*
X56450Y12800D01*
X40250Y14232D02*
X40250Y14225D01*
X43450Y5850D02*
X43900Y6300D01*
X42925Y5850D02*
X43450Y5850D01*
X42100Y5025D02*
X42925Y5850D01*
X42100Y4650D02*
X42100Y5025D01*
X41450Y4000D02*
X42100Y4650D01*
X45500Y8182D02*
X43900Y6582D01*
X43900Y6582D02*
X43900Y6300D01*
X41350Y11432D02*
X41350Y11450D01*
X41250Y13417D02*
X41250Y13400D01*
X41800Y16167D02*
X41800Y16150D01*
X45783Y15750D02*
X45800Y15750D01*
X45932Y12500D02*
X45950Y12500D01*
X29400Y15417D02*
X29400Y15400D01*
X22132Y16750D02*
X22150Y16750D01*
X19300Y12817D02*
X19300Y12800D01*
X15617Y17000D02*
X15600Y17000D01*
X16032Y15050D02*
X16050Y15050D01*
X46767Y13150D02*
X46750Y13150D01*
X26232Y18650D02*
X26250Y18650D01*
X23400Y18667D02*
X23400Y18650D01*
X41620Y13950D02*
X41620Y13935D01*
X41620Y13935D02*
X42555Y13000D01*
X43650Y13000D02*
X44400Y13750D01*
X42555Y13000D02*
X43650Y13000D01*
X25075Y18175D02*
X25100Y18175D01*
X23394Y17775D02*
X23779Y18159D01*
X23779Y18159D02*
X25059Y18159D01*
X25075Y18175D02*
X25059Y18159D01*
X41620Y14340D02*
X41620Y13950D01*
X40129Y15831D02*
X41620Y14340D01*
X40129Y16624D02*
X40129Y15831D01*
X39653Y17100D02*
X40129Y16624D01*
X38750Y17100D02*
X39653Y17100D01*
X38600Y16950D02*
X38750Y17100D01*
X38600Y16775D02*
X38600Y16950D01*
X38485Y16660D02*
X38600Y16775D01*
X29429Y16660D02*
X38485Y16660D01*
X28609Y17480D02*
X29429Y16660D01*
X26650Y17480D02*
X28609Y17480D01*
X25830Y18300D02*
X26650Y17480D01*
X25325Y18300D02*
X25830Y18300D01*
X25304Y18279D02*
X25325Y18300D01*
X25204Y18279D02*
X25304Y18279D01*
X25100Y18175D02*
X25204Y18279D01*
G54D23*
X6910Y12860D02*
X6875Y12825D01*
X6875Y12825D02*
X6875Y12650D01*
X6875Y12650D02*
X7150Y12375D01*
X7150Y12375D02*
X7200Y12375D01*
X6910Y13400D02*
X6910Y12860D01*
X4160Y14085D02*
X4225Y14150D01*
X4160Y13400D02*
X4160Y14085D01*
G54D24*
X56150Y13925D02*
X56125Y13925D01*
X56810Y13400D02*
X56810Y13765D01*
X56650Y13925D02*
X56404Y13925D01*
X56700Y13875D02*
X56650Y13925D01*
X56810Y13765D02*
X56700Y13875D01*
X56404Y13925D02*
X56150Y13925D01*
X56125Y13925D02*
X56000Y14050D01*
X47050Y15900D02*
X47050Y15375D01*
X48625Y12325D02*
X49450Y11500D01*
X48625Y13800D02*
X48625Y12325D01*
X47050Y15375D02*
X48625Y13800D01*
X24325Y18775D02*
X23950Y18400D01*
X19162Y14382D02*
X17850Y13070D01*
X17850Y13070D02*
X16549Y13070D01*
X16549Y13070D02*
X14900Y14719D01*
X14900Y14719D02*
X14900Y15175D01*
X14900Y15175D02*
X14650Y15425D01*
X14650Y15425D02*
X14275Y15425D01*
X14275Y15425D02*
X14025Y15175D01*
X14025Y15175D02*
X14025Y14425D01*
X14450Y14000D02*
X14025Y14425D01*
X20305Y14975D02*
X20300Y14975D01*
X24925Y18650D02*
X24675Y18900D01*
X24675Y18900D02*
X24450Y18900D01*
X24450Y18900D02*
X24325Y18775D01*
X21850Y16875D02*
X21850Y16519D01*
X21850Y16519D02*
X20305Y14975D01*
X24925Y18650D02*
X25132Y18650D01*
X19620Y14870D02*
X19162Y14412D01*
X20195Y14870D02*
X19620Y14870D01*
X20300Y14975D02*
X20195Y14870D01*
X19162Y14412D02*
X19162Y14382D01*
X21850Y17350D02*
X21850Y16875D01*
X22900Y18400D02*
X21850Y17350D01*
X23950Y18400D02*
X22900Y18400D01*
X25132Y18650D02*
X25850Y18650D01*
X38532Y18900D02*
X41800Y15632D01*
X38100Y18900D02*
X38532Y18900D01*
X31600Y18900D02*
X38100Y18900D01*
X31350Y18650D02*
X31600Y18900D01*
X26600Y18650D02*
X31350Y18650D01*
X26350Y18400D02*
X26600Y18650D01*
X26100Y18400D02*
X26350Y18400D01*
X25850Y18650D02*
X26100Y18400D01*
X41800Y15632D02*
X41800Y14850D01*
X41800Y14850D02*
X43100Y13550D01*
X43100Y13550D02*
X43500Y13550D01*
X41800Y15632D02*
X41800Y15650D01*
X25132Y18650D02*
X25150Y18650D01*
G54D23*
X6658Y12542D02*
X7225Y11975D01*
X6658Y13400D02*
X6658Y12542D01*
X3908Y14283D02*
X4125Y14500D01*
X3908Y13400D02*
X3908Y14283D01*
G54D24*
X56558Y13400D02*
X56558Y13792D01*
X55650Y13800D02*
X55450Y14000D01*
X56550Y13800D02*
X55650Y13800D01*
X56558Y13792D02*
X56550Y13800D01*
X24817Y18400D02*
X25250Y18400D01*
X41150Y16100D02*
X41150Y16112D01*
X41150Y16112D02*
X39356Y17906D01*
X39356Y17906D02*
X39343Y17906D01*
X39343Y17906D02*
X39300Y17950D01*
X39300Y17950D02*
X31650Y17950D01*
X31650Y17950D02*
X31100Y18500D01*
X31100Y18500D02*
X26619Y18500D01*
X26619Y18500D02*
X26619Y18469D01*
X26619Y18469D02*
X26425Y18275D01*
X26425Y18275D02*
X26025Y18275D01*
X26025Y18275D02*
X25800Y18500D01*
X25800Y18500D02*
X25350Y18500D01*
X25350Y18500D02*
X25250Y18400D01*
X24567Y18650D02*
X24817Y18400D01*
X41150Y16100D02*
X41150Y15632D01*
X47475Y15900D02*
X47475Y15119D01*
X49925Y11350D02*
X49925Y10975D01*
X49450Y10500D02*
X49925Y10975D01*
X47475Y15119D02*
X48750Y13844D01*
X48750Y13844D02*
X48750Y12775D01*
X48750Y12775D02*
X49925Y11600D01*
X49925Y11600D02*
X49925Y11350D01*
X22000Y16500D02*
X22350Y16500D01*
X14450Y15000D02*
X16500Y12950D01*
X19700Y14750D02*
X17900Y12950D01*
X20250Y14750D02*
X19700Y14750D01*
X22000Y16500D02*
X20250Y14750D01*
X16500Y12950D02*
X17900Y12950D01*
X24197Y18279D02*
X24567Y18650D01*
X23254Y18279D02*
X24197Y18279D01*
X22400Y17425D02*
X23254Y18279D01*
X22400Y16550D02*
X22400Y17425D01*
X22350Y16500D02*
X22400Y16550D01*
X43250Y13250D02*
X43230Y13250D01*
X43230Y13250D02*
X41350Y15130D01*
X41350Y15130D02*
X41350Y15432D01*
X41350Y15432D02*
X41150Y15632D01*
X41150Y15632D02*
X41150Y15650D01*
X24567Y18650D02*
X24550Y18650D01*
X27850Y17120D02*
X28250Y17120D01*
X25812Y17120D02*
X27850Y17120D01*
X25525Y17400D02*
X25532Y17400D01*
X25532Y17400D02*
X25812Y17120D01*
X39300Y16300D02*
X39600Y16600D01*
X29269Y16300D02*
X39300Y16300D01*
X28449Y17120D02*
X29269Y16300D01*
X28250Y17120D02*
X28449Y17120D01*
X26389Y17360D02*
X28559Y17360D01*
X28559Y17360D02*
X29379Y16540D01*
X29379Y16540D02*
X38540Y16540D01*
X38540Y16540D02*
X38850Y16850D01*
X25800Y17950D02*
X26389Y17360D01*
X49000Y13525D02*
X48875Y13650D01*
X48875Y13650D02*
X48875Y13889D01*
X48875Y13889D02*
X47975Y14789D01*
X47975Y14789D02*
X47975Y15900D01*
X25400Y18050D02*
X25400Y18000D01*
X39020Y16420D02*
X39200Y16600D01*
X29329Y16420D02*
X39020Y16420D01*
X28509Y17240D02*
X29329Y16420D01*
X26159Y17240D02*
X28509Y17240D01*
X25400Y18000D02*
X26159Y17240D01*
X20600Y15550D02*
X20600Y18000D01*
X20200Y15150D02*
X20600Y15550D01*
X19850Y15150D02*
X20200Y15150D01*
X19800Y16050D02*
X19800Y17900D01*
X19800Y17900D02*
X19950Y18050D01*
X20100Y15400D02*
X19950Y15400D01*
X20150Y15450D02*
X20100Y15400D01*
X19750Y15400D02*
X19950Y15400D01*
X19420Y15729D02*
X19750Y15400D01*
X18192Y15729D02*
X19420Y15729D01*
X16981Y14518D02*
X18192Y15729D01*
X16981Y13625D02*
X16981Y14518D01*
X16674Y13318D02*
X16981Y13625D01*
X16674Y14381D02*
X18142Y15850D01*
X18142Y15850D02*
X19200Y15850D01*
X19650Y15850D02*
X19200Y15850D01*
X19850Y15650D02*
X19650Y15850D01*
X35225Y17025D02*
X34800Y17450D01*
X38000Y17025D02*
X35225Y17025D01*
X38475Y17500D02*
X38000Y17025D01*
X39593Y17500D02*
X38475Y17500D01*
X40900Y16193D02*
X39593Y17500D01*
X40900Y15400D02*
X40900Y16193D01*
X41894Y14405D02*
X40900Y15400D01*
X41894Y14405D02*
X41894Y14405D01*
X42200Y14100D02*
X41894Y14405D01*
X42200Y14100D02*
X42200Y14100D01*
X42200Y13900D02*
X42200Y14100D01*
X31800Y17450D02*
X32345Y16904D01*
X42175Y13550D02*
X42550Y13550D01*
X41740Y13984D02*
X42175Y13550D01*
X41740Y14009D02*
X41740Y13984D01*
X41740Y14384D02*
X41740Y14009D01*
X41740Y14390D02*
X41740Y14384D01*
X40249Y15881D02*
X41740Y14390D01*
X40249Y15999D02*
X40249Y15881D01*
X40249Y16674D02*
X40249Y15999D01*
X40199Y16724D02*
X40249Y16674D01*
X39545Y17377D02*
X40199Y16724D01*
X38897Y17377D02*
X39545Y17377D01*
X38522Y17377D02*
X38897Y17377D01*
X38049Y16904D02*
X38522Y17377D01*
X32345Y16904D02*
X38049Y16904D01*
X35300Y10100D02*
X33825Y10100D01*
X23025Y17250D02*
X23125Y17350D01*
X23125Y17350D02*
X24925Y17350D01*
X24925Y17350D02*
X25275Y17000D01*
X25275Y17000D02*
X28400Y17000D01*
X35300Y10100D02*
X41250Y10100D01*
X41400Y10250D02*
X41250Y10100D01*
X23025Y17250D02*
X22667Y17250D01*
X29350Y16050D02*
X28400Y17000D01*
X30500Y16050D02*
X29350Y16050D01*
X33825Y10100D02*
X30850Y13075D01*
X22667Y17250D02*
X22675Y17250D01*
X42630Y11150D02*
X40955Y12825D01*
X40955Y12825D02*
X40525Y12825D01*
X43175Y11150D02*
X42630Y11150D01*
X40375Y12825D02*
X40525Y12825D01*
X39500Y13700D02*
X40375Y12825D01*
X39132Y13700D02*
X39500Y13700D01*
X19437Y13687D02*
X19050Y13300D01*
X43350Y10900D02*
X43550Y11100D01*
X43075Y10900D02*
X43350Y10900D01*
X42945Y11029D02*
X43075Y10900D01*
X42580Y11029D02*
X42945Y11029D01*
X41885Y11725D02*
X42580Y11029D01*
X41250Y11725D02*
X41885Y11725D01*
X41100Y11875D02*
X41250Y11725D01*
X41100Y12510D02*
X41100Y11875D01*
X40905Y12704D02*
X41100Y12510D01*
X40325Y12704D02*
X40905Y12704D01*
X39700Y13329D02*
X40325Y12704D01*
X31875Y13329D02*
X39700Y13329D01*
X31745Y13459D02*
X31875Y13329D01*
X23224Y13459D02*
X31745Y13459D01*
X23195Y13430D02*
X23224Y13459D01*
X23195Y13175D02*
X23195Y13430D01*
X22999Y12979D02*
X23195Y13175D01*
X22675Y12979D02*
X22999Y12979D01*
X22525Y12829D02*
X22675Y12979D01*
X22525Y12600D02*
X22525Y12829D01*
X22375Y12450D02*
X22525Y12600D01*
X22150Y12450D02*
X22375Y12450D01*
X21860Y12739D02*
X22150Y12450D01*
X21120Y12739D02*
X21860Y12739D01*
X21030Y12829D02*
X21120Y12739D01*
X19679Y12829D02*
X21030Y12829D01*
X19425Y12575D02*
X19679Y12829D01*
X19175Y12575D02*
X19425Y12575D01*
X19050Y12700D02*
X19175Y12575D01*
X19050Y13300D02*
X19050Y12700D01*
X19650Y13900D02*
X19437Y13687D01*
X19437Y13687D02*
X19432Y13682D01*
X19650Y13925D02*
X19650Y13900D01*
X19650Y13950D02*
X19650Y13925D01*
X19675Y13950D02*
X19650Y13950D01*
X45450Y11180D02*
X45450Y11200D01*
X45049Y10779D02*
X45450Y11180D01*
X44695Y10779D02*
X45049Y10779D01*
X44675Y10800D02*
X44695Y10779D01*
X44450Y10800D02*
X44675Y10800D01*
X44400Y10850D02*
X44450Y10800D01*
X43469Y10850D02*
X44400Y10850D01*
X43399Y10779D02*
X43469Y10850D01*
X43025Y10779D02*
X43399Y10779D01*
X42895Y10909D02*
X43025Y10779D01*
X42530Y10909D02*
X42895Y10909D01*
X41932Y11507D02*
X42530Y10909D01*
X41782Y11507D02*
X41932Y11507D01*
X41450Y11175D02*
X41782Y11507D01*
X41250Y11175D02*
X41450Y11175D01*
X41100Y11325D02*
X41250Y11175D01*
X41100Y11705D02*
X41100Y11325D01*
X40979Y11825D02*
X41100Y11705D01*
X40979Y12460D02*
X40979Y11825D01*
X40855Y12584D02*
X40979Y12460D01*
X39934Y12584D02*
X40855Y12584D01*
X39800Y12450D02*
X39934Y12584D01*
X39575Y12450D02*
X39800Y12450D01*
X39425Y12600D02*
X39575Y12450D01*
X39425Y12965D02*
X39425Y12600D01*
X39300Y13089D02*
X39425Y12965D01*
X33675Y13089D02*
X39300Y13089D01*
X33650Y13064D02*
X33675Y13089D01*
X33650Y12800D02*
X33650Y13064D01*
X33500Y12650D02*
X33650Y12800D01*
X33275Y12650D02*
X33500Y12650D01*
X33150Y12775D02*
X33275Y12650D01*
X33150Y13050D02*
X33150Y12775D01*
X33110Y13089D02*
X33150Y13050D01*
X31864Y13089D02*
X33110Y13089D01*
X31725Y12950D02*
X31864Y13089D01*
X31375Y12950D02*
X31725Y12950D01*
X31250Y13075D02*
X31375Y12950D01*
X45940Y10790D02*
X45750Y10600D01*
X45940Y12140D02*
X45940Y10790D01*
X46175Y12375D02*
X45940Y12140D01*
X46175Y12625D02*
X46175Y12375D01*
X46050Y12750D02*
X46175Y12625D01*
X45950Y12750D02*
X46050Y12750D01*
X45700Y13000D02*
X45950Y12750D01*
X45475Y13000D02*
X45700Y13000D01*
X45390Y13084D02*
X45475Y13000D01*
X45390Y14450D02*
X45390Y13084D01*
X45430Y14490D02*
X45390Y14450D01*
X45590Y14490D02*
X45430Y14490D01*
X45750Y14650D02*
X45590Y14490D01*
X45750Y15292D02*
X45750Y14650D01*
X45750Y15292D02*
X44917Y16125D01*
X44550Y11050D02*
X44650Y11050D01*
X43400Y17800D02*
X42900Y18300D01*
X44300Y17800D02*
X43400Y17800D01*
X44500Y17600D02*
X44300Y17800D01*
X44500Y15250D02*
X44500Y17600D01*
X45150Y14600D02*
X44500Y15250D01*
X45150Y11050D02*
X45150Y14600D01*
X45000Y10900D02*
X45150Y11050D01*
X44800Y10900D02*
X45000Y10900D01*
X44650Y11050D02*
X44800Y10900D01*
X44900Y11150D02*
X44900Y11220D01*
X43400Y16800D02*
X42900Y17300D01*
X44150Y16800D02*
X43400Y16800D01*
X44379Y16570D02*
X44150Y16800D01*
X44379Y15170D02*
X44379Y16570D01*
X45029Y14520D02*
X44379Y15170D01*
X45029Y11350D02*
X45029Y14520D01*
X44900Y11220D02*
X45029Y11350D01*
X44650Y13450D02*
X44650Y14700D01*
X43400Y15800D02*
X42900Y16300D01*
X44159Y15800D02*
X43400Y15800D01*
X44259Y15700D02*
X44159Y15800D01*
X44259Y15090D02*
X44259Y15700D01*
X44650Y14700D02*
X44259Y15090D01*
X47150Y10275D02*
X48600Y10275D01*
X46775Y10650D02*
X47150Y10275D01*
X44255Y14600D02*
X44255Y14925D01*
X36450Y14800D02*
X35950Y14300D01*
X40450Y17152D02*
X40450Y17400D01*
X41676Y15926D02*
X40450Y17152D01*
X41923Y15926D02*
X41676Y15926D01*
X42450Y15400D02*
X41923Y15926D01*
X43780Y15400D02*
X42450Y15400D01*
X44255Y14925D02*
X43780Y15400D01*
X44255Y14005D02*
X44255Y14600D01*
X44255Y14600D02*
X44255Y14605D01*
X43950Y13700D02*
X44255Y14005D01*
X41675Y12925D02*
X42121Y12925D01*
X43000Y12405D02*
X43000Y12175D01*
X42765Y12639D02*
X43000Y12405D01*
X42406Y12639D02*
X42765Y12639D01*
X42121Y12925D02*
X42406Y12639D01*
X43870Y12879D02*
X44525Y12225D01*
X42505Y12879D02*
X43870Y12879D01*
X41500Y13885D02*
X42505Y12879D01*
X41500Y14290D02*
X41500Y13885D01*
X40095Y15695D02*
X41500Y14290D01*
X38870Y15695D02*
X40095Y15695D01*
X36775Y13600D02*
X38870Y15695D01*
X45390Y12540D02*
X45600Y12750D01*
X45390Y11779D02*
X45390Y12540D01*
X45820Y11349D02*
X45390Y11779D01*
X45820Y11050D02*
X45820Y11349D01*
X45599Y10829D02*
X45820Y11050D01*
X45449Y10829D02*
X45599Y10829D01*
X45159Y10539D02*
X45449Y10829D01*
X42925Y10539D02*
X45159Y10539D01*
X42795Y10669D02*
X42925Y10539D01*
X40877Y10669D02*
X42795Y10669D01*
X40877Y10669D02*
X40583Y10375D01*
X23367Y12332D02*
X24400Y11300D01*
X23367Y12332D02*
X23367Y12700D01*
G54D23*
X7678Y16097D02*
X7450Y16325D01*
X7678Y15602D02*
X7678Y16097D01*
X7934Y17566D02*
X7725Y17775D01*
X7934Y15602D02*
X7934Y17566D01*
X8446Y16104D02*
X8250Y16300D01*
X8446Y16104D02*
X8446Y15602D01*
X8702Y16273D02*
X8650Y16325D01*
X8702Y16273D02*
X8702Y15602D01*
X8973Y13398D02*
X8975Y13400D01*
X8973Y13398D02*
X8702Y13398D01*
X8446Y13398D02*
X8446Y12871D01*
X8446Y12871D02*
X8300Y12725D01*
X7700Y11450D02*
X7700Y11175D01*
X7934Y12941D02*
X8025Y12850D01*
X8025Y12850D02*
X8025Y12625D01*
X8025Y12625D02*
X7825Y12425D01*
X7825Y12425D02*
X7825Y11575D01*
X7825Y11575D02*
X7700Y11450D01*
X7934Y13398D02*
X7934Y12941D01*
X5457Y10900D02*
X5350Y11007D01*
X7425Y10900D02*
X5457Y10900D01*
X7700Y11175D02*
X7425Y10900D01*
X7678Y12797D02*
X7750Y12725D01*
X7678Y13398D02*
X7678Y12797D01*
X4928Y15947D02*
X4700Y16175D01*
X4928Y15602D02*
X4928Y15947D01*
X5184Y15602D02*
X5184Y16241D01*
X5184Y16241D02*
X5000Y16425D01*
X5696Y15904D02*
X5450Y16150D01*
X5696Y15602D02*
X5696Y15904D01*
X5952Y16173D02*
X5700Y16425D01*
X5952Y15602D02*
X5952Y16173D01*
X5952Y12727D02*
X5725Y12500D01*
X5952Y13398D02*
X5952Y12727D01*
X5696Y12971D02*
X5525Y12800D01*
X5696Y12971D02*
X5696Y13398D01*
X5184Y12684D02*
X5150Y12650D01*
X5184Y13398D02*
X5184Y12684D01*
X2650Y15125D02*
X2650Y15557D01*
X4928Y12828D02*
X4750Y12650D01*
X4928Y13398D02*
X4928Y12828D01*
X57578Y15602D02*
X57578Y15997D01*
X58000Y16325D02*
X58125Y16325D01*
X57925Y16400D02*
X58000Y16325D01*
X57725Y16400D02*
X57925Y16400D01*
X57550Y16225D02*
X57725Y16400D01*
X57550Y16025D02*
X57550Y16225D01*
X57578Y15997D02*
X57550Y16025D01*
X57834Y16116D02*
X57825Y16125D01*
X57834Y15602D02*
X57834Y16116D01*
X58346Y14954D02*
X58425Y14875D01*
X58346Y15602D02*
X58346Y14954D01*
X58602Y15223D02*
X58700Y15125D01*
X58602Y15602D02*
X58602Y15223D01*
X58602Y13398D02*
X58602Y13727D01*
X58602Y13727D02*
X58700Y13825D01*
X58346Y14021D02*
X58425Y14100D01*
X58346Y13398D02*
X58346Y14021D01*
X57834Y13398D02*
X57834Y13041D01*
X59854Y14554D02*
X59854Y15011D01*
X59825Y14525D02*
X59854Y14554D01*
X58975Y14525D02*
X59825Y14525D01*
X58975Y14525D02*
X58975Y14525D01*
X58975Y13200D02*
X58975Y14525D01*
X58750Y12975D02*
X58975Y13200D01*
X57900Y12975D02*
X58750Y12975D01*
X57834Y13041D02*
X57900Y12975D01*
X55075Y10950D02*
X55432Y10950D01*
X55432Y10950D02*
X55450Y10967D01*
X55142Y17992D02*
X55075Y17925D01*
X56950Y17992D02*
X55142Y17992D01*
X57578Y13398D02*
X57578Y12478D01*
X57092Y11992D02*
X56950Y11992D01*
X57578Y12478D02*
X57092Y11992D01*
X4416Y13041D02*
X4175Y12800D01*
X4175Y12800D02*
X4175Y12575D01*
X4416Y13398D02*
X4416Y13041D01*
X7166Y12766D02*
X7150Y12750D01*
X7166Y13398D02*
X7166Y12766D01*
G54D24*
X57066Y13398D02*
X57066Y12566D01*
X56080Y13000D02*
X55450Y13000D01*
X56580Y12500D02*
X56080Y13000D01*
X57000Y12500D02*
X56580Y12500D01*
X57066Y12566D02*
X57000Y12500D01*
X41725Y13300D02*
X41915Y13300D01*
X44200Y11375D02*
X44200Y11150D01*
X42815Y12759D02*
X44200Y11375D01*
X42455Y12759D02*
X42815Y12759D01*
X41915Y13300D02*
X42455Y12759D01*
X41775Y12175D02*
X41975Y12175D01*
X39900Y14050D02*
X41775Y12175D01*
X39900Y15182D02*
X39900Y14050D01*
X39750Y15332D02*
X39900Y15182D01*
X40000Y15425D02*
X40550Y14875D01*
X40550Y13569D02*
X40594Y13525D01*
X40550Y14875D02*
X40550Y13569D01*
X41584Y12534D02*
X40600Y13519D01*
X42350Y12175D02*
X42325Y12175D01*
X41965Y12534D02*
X41584Y12534D01*
X42325Y12175D02*
X41965Y12534D01*
X40600Y13519D02*
X40572Y13547D01*
X40000Y15425D02*
X40000Y15425D01*
X40000Y15425D02*
X39850Y15575D01*
X39850Y15575D02*
X39400Y15575D01*
X39292Y15575D02*
X39400Y15575D01*
X39050Y15332D02*
X39292Y15575D01*
G54D23*
X30750Y12500D02*
X30775Y12525D01*
X30775Y12525D02*
X30775Y12533D01*
G54D24*
X40583Y11125D02*
X40575Y11125D01*
X20525Y14675D02*
X20525Y14650D01*
G54D23*
X4672Y13398D02*
X4672Y12972D01*
X4282Y12282D02*
X3800Y12282D01*
X4475Y12475D02*
X4282Y12282D01*
X4475Y12775D02*
X4475Y12475D01*
X4672Y12972D02*
X4475Y12775D01*
X7367Y11500D02*
X7367Y11742D01*
X7422Y12678D02*
X7422Y13398D01*
X7500Y12600D02*
X7422Y12678D01*
X7500Y11875D02*
X7500Y12600D01*
X7367Y11742D02*
X7500Y11875D01*
X4317Y16300D02*
X4416Y16201D01*
X4416Y16201D02*
X4416Y15602D01*
X6917Y16300D02*
X7166Y16051D01*
X7166Y16051D02*
X7166Y15602D01*
X7166Y15602D02*
X7166Y15016D01*
X7166Y15016D02*
X7150Y15000D01*
X7422Y15602D02*
X7422Y14997D01*
X7422Y14997D02*
X7400Y14975D01*
X8190Y15602D02*
X8190Y15085D01*
X8190Y15085D02*
X8250Y15025D01*
X8190Y13398D02*
X8190Y13960D01*
X8190Y13960D02*
X8175Y13975D01*
X7422Y13398D02*
X7422Y14072D01*
X7422Y14072D02*
X7425Y14075D01*
X5440Y13398D02*
X5440Y13985D01*
X5440Y13985D02*
X5425Y14000D01*
X4672Y13398D02*
X4672Y14047D01*
X4672Y14047D02*
X4675Y14050D01*
X5440Y15602D02*
X5440Y15115D01*
X5440Y15115D02*
X5425Y15100D01*
X4672Y15602D02*
X4672Y15122D01*
X4672Y15122D02*
X4650Y15100D01*
X4416Y15602D02*
X4416Y15084D01*
X4416Y15084D02*
X4425Y15075D01*
X3904Y15602D02*
X3904Y15096D01*
X3904Y15096D02*
X3900Y15100D01*
X57317Y12800D02*
X57317Y12542D01*
X55965Y12359D02*
X55950Y12375D01*
X57134Y12359D02*
X55965Y12359D01*
X57317Y12542D02*
X57134Y12359D01*
X56810Y15602D02*
X56810Y15040D01*
X56810Y15040D02*
X56825Y15025D01*
X57066Y15602D02*
X57066Y15034D01*
X57066Y15034D02*
X57075Y15025D01*
X58090Y15602D02*
X58090Y15115D01*
X57322Y15053D02*
X57322Y15602D01*
X57375Y15000D02*
X57322Y15053D01*
X57975Y15000D02*
X57375Y15000D01*
X58090Y15115D02*
X57975Y15000D01*
X57322Y13398D02*
X57322Y13897D01*
X58090Y13935D02*
X58090Y13398D01*
X58050Y13975D02*
X58090Y13935D01*
X57400Y13975D02*
X58050Y13975D01*
X57322Y13897D02*
X57400Y13975D01*
G54D24*
X57317Y12800D02*
X57317Y13393D01*
X57317Y13393D02*
X57322Y13398D01*
X57325Y15605D02*
X57322Y15602D01*
X57066Y15602D02*
X57322Y15602D01*
X56810Y15602D02*
X57066Y15602D01*
X56817Y16300D02*
X56817Y15609D01*
X56817Y15609D02*
X56810Y15602D01*
X46232Y13150D02*
X46225Y13150D01*
X33395Y12900D02*
X33400Y12900D01*
X41350Y11967D02*
X41350Y11950D01*
X40533Y13075D02*
X40550Y13058D01*
X40550Y13058D02*
X40550Y13050D01*
X40250Y14767D02*
X40250Y14750D01*
X40500Y16167D02*
X40500Y16150D01*
X38550Y14767D02*
X38550Y14750D01*
X28750Y14882D02*
X28750Y14900D01*
X28932Y16050D02*
X28950Y16050D01*
X26067Y16750D02*
X26050Y16750D01*
X22267Y12700D02*
X22250Y12700D01*
X22832Y12700D02*
X22850Y12700D01*
X22832Y13350D02*
X22850Y13350D01*
X22132Y15750D02*
X22150Y15750D01*
X22132Y17250D02*
X22150Y17250D01*
X17700Y13467D02*
X17700Y13450D01*
X23400Y14982D02*
X23400Y15550D01*
X23400Y14982D02*
X21767Y13350D01*
X21400Y13350D02*
X21650Y13100D01*
X21650Y13100D02*
X21900Y13100D01*
X21900Y13100D02*
X22150Y13350D01*
X22150Y13350D02*
X22150Y13550D01*
X22150Y13550D02*
X25350Y16750D01*
X25350Y16750D02*
X25532Y16750D01*
X21232Y13350D02*
X21400Y13350D01*
X21207Y13325D02*
X21232Y13350D01*
X25500Y16717D02*
X25500Y16650D01*
X25532Y16750D02*
X25500Y16717D01*
X21847Y13600D02*
X23100Y14852D01*
X23100Y14852D02*
X23100Y15750D01*
X21100Y13600D02*
X21847Y13600D01*
X21025Y13525D02*
X21100Y13600D01*
X20025Y13525D02*
X21025Y13525D01*
X19725Y13225D02*
X20025Y13525D01*
X56282Y16300D02*
X56282Y15617D01*
X56282Y15617D02*
X56298Y15602D01*
G54D23*
X6398Y15602D02*
X6398Y16284D01*
X6398Y16284D02*
X6382Y16300D01*
X3648Y15602D02*
X3648Y16165D01*
X3648Y16165D02*
X3782Y16300D01*
G54D24*
X20150Y15950D02*
X20200Y16000D01*
X20200Y16000D02*
X20200Y18200D01*
X20200Y18600D02*
X20200Y18200D01*
X19950Y18850D02*
X20200Y18600D01*
X31634Y13209D02*
X39350Y13209D01*
X31625Y13200D02*
X31634Y13209D01*
X39667Y12892D02*
X39350Y13209D01*
X39667Y12892D02*
X39667Y12700D01*
X19152Y13802D02*
X19152Y13572D01*
X19300Y13950D02*
X19152Y13802D01*
X31539Y13200D02*
X31625Y13200D01*
X31400Y13339D02*
X31539Y13200D01*
X23325Y13339D02*
X31400Y13339D01*
X23315Y13329D02*
X23325Y13339D01*
X23315Y13125D02*
X23315Y13329D01*
X23075Y12885D02*
X23315Y13125D01*
X23075Y12600D02*
X23075Y12885D01*
X22925Y12450D02*
X23075Y12600D01*
X22544Y12450D02*
X22925Y12450D01*
X22424Y12329D02*
X22544Y12450D01*
X22100Y12329D02*
X22424Y12329D01*
X21810Y12619D02*
X22100Y12329D01*
X21070Y12619D02*
X21810Y12619D01*
X20980Y12709D02*
X21070Y12619D01*
X19729Y12709D02*
X20980Y12709D01*
X19474Y12454D02*
X19729Y12709D01*
X19125Y12454D02*
X19474Y12454D01*
X18929Y12650D02*
X19125Y12454D01*
X18929Y13349D02*
X18929Y12650D01*
X19152Y13572D02*
X18929Y13349D01*
X38667Y11750D02*
X39246Y12329D01*
X39246Y12329D02*
X39849Y12329D01*
X39849Y12329D02*
X39984Y12464D01*
X39984Y12464D02*
X40795Y12464D01*
X40795Y12464D02*
X40859Y12400D01*
X40859Y12400D02*
X40859Y11770D01*
X40859Y11770D02*
X40979Y11650D01*
X40979Y11650D02*
X40979Y11275D01*
X40979Y11275D02*
X41200Y11054D01*
X41200Y11054D02*
X41499Y11054D01*
X41499Y11054D02*
X41764Y10789D01*
X41764Y10789D02*
X42845Y10789D01*
X42845Y10789D02*
X42975Y10659D01*
X42975Y10659D02*
X45109Y10659D01*
X45109Y10659D02*
X45400Y10950D01*
X45400Y10950D02*
X45550Y10950D01*
X45550Y10950D02*
X45700Y11100D01*
X45700Y11100D02*
X45700Y11300D01*
X45700Y11300D02*
X45270Y11729D01*
X45270Y11729D02*
X45270Y14100D01*
X45270Y14520D02*
X45270Y14100D01*
X45270Y14520D02*
X45500Y14750D01*
X21080Y12950D02*
X21170Y12859D01*
X21170Y12859D02*
X21999Y12859D01*
X21999Y12859D02*
X22239Y13100D01*
X22239Y13100D02*
X22950Y13100D01*
X22950Y13100D02*
X23075Y13225D01*
X23075Y13225D02*
X23075Y13479D01*
X23075Y13479D02*
X23175Y13579D01*
X23175Y13579D02*
X31795Y13579D01*
X31795Y13579D02*
X31925Y13450D01*
X31925Y13450D02*
X32150Y13450D01*
X32150Y13450D02*
X32275Y13575D01*
X32275Y13575D02*
X32275Y14525D01*
X19587Y13487D02*
X19450Y13350D01*
X19600Y12950D02*
X20350Y12950D01*
X19450Y13100D02*
X19600Y12950D01*
X19450Y13350D02*
X19450Y13100D01*
X20350Y12950D02*
X21080Y12950D01*
X32500Y14750D02*
X32275Y14525D01*
X32500Y14750D02*
X32550Y14750D01*
X20500Y14300D02*
X20400Y14300D01*
X20400Y14300D02*
X19587Y13487D01*
X19587Y13487D02*
X19575Y13475D01*
X20500Y14300D02*
X20500Y14325D01*
X32275Y12825D02*
X34350Y10750D01*
X34350Y10750D02*
X39300Y10750D01*
X39300Y10750D02*
X39717Y10750D01*
X20967Y13232D02*
X21220Y12979D01*
X21220Y12979D02*
X21949Y12979D01*
X21949Y12979D02*
X22270Y13300D01*
X22270Y13300D02*
X22270Y13500D01*
X22270Y13500D02*
X22469Y13700D01*
X22469Y13700D02*
X31425Y13700D01*
X20250Y13225D02*
X20250Y13232D01*
X20250Y13232D02*
X20967Y13232D01*
X31425Y13700D02*
X32032Y13700D01*
G54D10*
G36*
X9830Y10169D02*
X8669Y10169D01*
X8723Y10220D01*
X8771Y10289D01*
X8805Y10365D01*
X8823Y10446D01*
X8825Y10541D01*
X8808Y10623D01*
X8777Y10700D01*
X8730Y10769D01*
X8672Y10829D01*
X8603Y10875D01*
X8526Y10907D01*
X8444Y10924D01*
X8361Y10925D01*
X8279Y10909D01*
X8202Y10878D01*
X8132Y10832D01*
X8072Y10774D01*
X8025Y10705D01*
X7992Y10629D01*
X7975Y10547D01*
X7974Y10464D01*
X7989Y10382D01*
X8020Y10304D01*
X8065Y10234D01*
X8123Y10174D01*
X8130Y10169D01*
X4508Y10169D01*
X3659Y10252D01*
X2850Y10497D01*
X2104Y10893D01*
X1509Y11378D01*
X1509Y14810D01*
X1509Y15241D01*
X1504Y15270D01*
X1492Y15297D01*
X1476Y15322D01*
X1455Y15342D01*
X1431Y15359D01*
X1404Y15370D01*
X1375Y15376D01*
X1346Y15376D01*
X1035Y15376D01*
X1006Y15371D01*
X978Y15359D01*
X954Y15343D01*
X933Y15322D01*
X917Y15298D01*
X905Y15271D01*
X899Y15242D01*
X899Y15213D01*
X899Y14782D01*
X905Y14753D01*
X916Y14726D01*
X932Y14701D01*
X953Y14680D01*
X978Y14664D01*
X1005Y14652D01*
X1033Y14646D01*
X1063Y14646D01*
X1374Y14646D01*
X1403Y14652D01*
X1430Y14663D01*
X1454Y14680D01*
X1475Y14700D01*
X1492Y14725D01*
X1503Y14752D01*
X1509Y14781D01*
X1509Y14810D01*
X1509Y11378D01*
X1449Y11427D01*
X910Y12078D01*
X508Y12822D01*
X258Y13629D01*
X169Y14477D01*
X169Y14491D01*
X252Y15340D01*
X497Y16149D01*
X893Y16895D01*
X1427Y17550D01*
X2078Y18089D01*
X2822Y18491D01*
X3629Y18741D01*
X4477Y18830D01*
X4500Y18830D01*
X8129Y18830D01*
X8072Y18774D01*
X8025Y18705D01*
X7992Y18629D01*
X7975Y18547D01*
X7974Y18464D01*
X7989Y18382D01*
X8020Y18304D01*
X8065Y18234D01*
X8123Y18174D01*
X8191Y18127D01*
X8268Y18093D01*
X8349Y18075D01*
X8432Y18074D01*
X8514Y18088D01*
X8592Y18118D01*
X8662Y18163D01*
X8723Y18220D01*
X8750Y18258D01*
X8750Y17741D01*
X8730Y17769D01*
X8672Y17829D01*
X8603Y17875D01*
X8526Y17907D01*
X8444Y17924D01*
X8361Y17925D01*
X8279Y17909D01*
X8202Y17878D01*
X8132Y17832D01*
X8072Y17774D01*
X8046Y17736D01*
X8024Y17758D01*
X8025Y17804D01*
X8013Y17862D01*
X7991Y17916D01*
X7958Y17965D01*
X7917Y18007D01*
X7868Y18040D01*
X7814Y18062D01*
X7756Y18074D01*
X7697Y18075D01*
X7639Y18064D01*
X7585Y18042D01*
X7536Y18009D01*
X7494Y17968D01*
X7460Y17920D01*
X7437Y17866D01*
X7425Y17808D01*
X7424Y17749D01*
X7435Y17691D01*
X7451Y17650D01*
X5600Y17650D01*
X4400Y17650D01*
X4400Y17010D01*
X4393Y17015D01*
X4339Y17037D01*
X4307Y17044D01*
X4312Y17051D01*
X4336Y17104D01*
X4349Y17162D01*
X4350Y17229D01*
X4338Y17287D01*
X4316Y17341D01*
X4283Y17390D01*
X4242Y17432D01*
X4193Y17465D01*
X4139Y17487D01*
X4081Y17499D01*
X4022Y17500D01*
X3964Y17489D01*
X3910Y17467D01*
X3861Y17434D01*
X3819Y17393D01*
X3785Y17345D01*
X3762Y17291D01*
X3750Y17233D01*
X3749Y17174D01*
X3760Y17116D01*
X3781Y17062D01*
X3813Y17012D01*
X3854Y16970D01*
X3902Y16936D01*
X3956Y16913D01*
X3992Y16905D01*
X3985Y16895D01*
X3962Y16841D01*
X3950Y16783D01*
X3949Y16724D01*
X3952Y16707D01*
X3922Y16677D01*
X3912Y16664D01*
X3901Y16651D01*
X3901Y16650D01*
X3900Y16650D01*
X3892Y16635D01*
X3888Y16627D01*
X3637Y16627D01*
X3608Y16621D01*
X3581Y16610D01*
X3557Y16594D01*
X3536Y16573D01*
X3519Y16549D01*
X3508Y16522D01*
X3502Y16493D01*
X3502Y16463D01*
X3502Y16301D01*
X3494Y16292D01*
X3482Y16278D01*
X3482Y16277D01*
X3481Y16276D01*
X3473Y16260D01*
X3464Y16244D01*
X3463Y16243D01*
X3463Y16242D01*
X3457Y16224D01*
X3452Y16207D01*
X3452Y16206D01*
X3451Y16205D01*
X3450Y16186D01*
X3448Y16168D01*
X3448Y16166D01*
X3448Y16166D01*
X3448Y16166D01*
X3448Y16165D01*
X3448Y16150D01*
X3050Y16150D01*
X1750Y16150D01*
X1750Y14350D01*
X3400Y14350D01*
X3400Y13848D01*
X3385Y13842D01*
X3336Y13809D01*
X3294Y13768D01*
X3260Y13720D01*
X3237Y13666D01*
X3225Y13608D01*
X3224Y13549D01*
X3235Y13491D01*
X3256Y13437D01*
X3288Y13387D01*
X3329Y13345D01*
X3377Y13311D01*
X3415Y13295D01*
X3415Y13150D01*
X2800Y13150D01*
X1750Y13150D01*
X1750Y11760D01*
X3550Y10800D01*
X3550Y12020D01*
X3550Y12019D01*
X3577Y12008D01*
X3606Y12002D01*
X3636Y12002D01*
X3992Y12002D01*
X4021Y12008D01*
X4048Y12019D01*
X4072Y12035D01*
X4093Y12056D01*
X4110Y12080D01*
X4110Y12082D01*
X4282Y12082D01*
X4300Y12084D01*
X4319Y12085D01*
X4320Y12086D01*
X4321Y12086D01*
X4339Y12091D01*
X4356Y12096D01*
X4357Y12097D01*
X4358Y12097D01*
X4375Y12106D01*
X4391Y12114D01*
X4392Y12115D01*
X4393Y12115D01*
X4407Y12127D01*
X4421Y12139D01*
X4423Y12140D01*
X4423Y12140D01*
X4423Y12140D01*
X4423Y12141D01*
X4616Y12333D01*
X4628Y12347D01*
X4640Y12362D01*
X4640Y12362D01*
X4641Y12363D01*
X4643Y12368D01*
X4656Y12363D01*
X4714Y12350D01*
X4773Y12349D01*
X4831Y12359D01*
X4885Y12380D01*
X4935Y12412D01*
X4949Y12425D01*
X4954Y12420D01*
X5002Y12386D01*
X5056Y12363D01*
X5114Y12350D01*
X5173Y12349D01*
X5231Y12359D01*
X5285Y12380D01*
X5335Y12412D01*
X5378Y12453D01*
X5412Y12501D01*
X5419Y12518D01*
X5425Y12516D01*
X5424Y12474D01*
X5435Y12416D01*
X5456Y12362D01*
X5488Y12312D01*
X5529Y12270D01*
X5577Y12236D01*
X5631Y12213D01*
X5689Y12200D01*
X5748Y12199D01*
X5806Y12209D01*
X5860Y12230D01*
X5910Y12262D01*
X5953Y12303D01*
X5987Y12351D01*
X6011Y12404D01*
X6024Y12462D01*
X6024Y12516D01*
X6093Y12585D01*
X6105Y12599D01*
X6117Y12614D01*
X6117Y12614D01*
X6118Y12615D01*
X6126Y12632D01*
X6135Y12648D01*
X6136Y12649D01*
X6136Y12650D01*
X6142Y12667D01*
X6147Y12685D01*
X6147Y12686D01*
X6148Y12687D01*
X6149Y12705D01*
X6151Y12724D01*
X6151Y12726D01*
X6151Y12726D01*
X6151Y12726D01*
X6152Y12727D01*
X6152Y13014D01*
X6167Y13036D01*
X6175Y13055D01*
X6182Y13037D01*
X6198Y13014D01*
X6198Y12575D01*
X6199Y12557D01*
X6201Y12538D01*
X6201Y12537D01*
X6201Y12536D01*
X6207Y12519D01*
X6212Y12501D01*
X6212Y12500D01*
X6213Y12499D01*
X6221Y12483D01*
X6230Y12466D01*
X6230Y12465D01*
X6231Y12465D01*
X6243Y12450D01*
X6254Y12436D01*
X6256Y12434D01*
X6256Y12434D01*
X6256Y12434D01*
X6256Y12434D01*
X6632Y12058D01*
X6632Y12006D01*
X6594Y11968D01*
X6560Y11920D01*
X6537Y11866D01*
X6525Y11808D01*
X6524Y11749D01*
X6535Y11691D01*
X6551Y11650D01*
X4900Y11650D01*
X3925Y11650D01*
X3925Y10600D01*
X7612Y10600D01*
X7900Y10887D01*
X7900Y11175D01*
X7900Y11367D01*
X7966Y11433D01*
X7977Y11447D01*
X7989Y11382D01*
X8020Y11304D01*
X8065Y11234D01*
X8123Y11174D01*
X8191Y11127D01*
X8268Y11093D01*
X8349Y11075D01*
X8432Y11074D01*
X8514Y11088D01*
X8592Y11118D01*
X8662Y11163D01*
X8723Y11220D01*
X8771Y11289D01*
X8805Y11365D01*
X8823Y11446D01*
X8825Y11541D01*
X8808Y11623D01*
X8777Y11700D01*
X8730Y11769D01*
X8672Y11829D01*
X8603Y11875D01*
X8526Y11907D01*
X8444Y11924D01*
X8361Y11925D01*
X8279Y11909D01*
X8202Y11878D01*
X8132Y11832D01*
X8072Y11774D01*
X8025Y11705D01*
X8025Y11703D01*
X8025Y12342D01*
X8148Y12465D01*
X8152Y12461D01*
X8206Y12438D01*
X8264Y12425D01*
X8323Y12424D01*
X8381Y12434D01*
X8435Y12455D01*
X8485Y12487D01*
X8528Y12528D01*
X8562Y12576D01*
X8586Y12629D01*
X8599Y12687D01*
X8599Y12744D01*
X8611Y12758D01*
X8611Y12758D01*
X8612Y12759D01*
X8620Y12775D01*
X8629Y12792D01*
X8630Y12793D01*
X8630Y12794D01*
X8636Y12811D01*
X8641Y12829D01*
X8641Y12830D01*
X8642Y12831D01*
X8643Y12849D01*
X8645Y12868D01*
X8645Y12870D01*
X8645Y12870D01*
X8645Y12870D01*
X8646Y12871D01*
X8646Y12958D01*
X8799Y12958D01*
X8828Y12964D01*
X8855Y12975D01*
X8879Y12991D01*
X8900Y13012D01*
X8917Y13036D01*
X8928Y13063D01*
X8934Y13092D01*
X8934Y13101D01*
X8939Y13100D01*
X8998Y13099D01*
X9056Y13109D01*
X9110Y13130D01*
X9160Y13162D01*
X9203Y13203D01*
X9237Y13251D01*
X9261Y13304D01*
X9274Y13362D01*
X9275Y13429D01*
X9263Y13487D01*
X9241Y13541D01*
X9208Y13590D01*
X9167Y13632D01*
X9140Y13650D01*
X9830Y13650D01*
X9830Y11500D01*
X9830Y10169D01*
X9830Y10169D01*
G37*
G54D23*
X9830Y10169D02*
X8669Y10169D01*
X8723Y10220D01*
X8771Y10289D01*
X8805Y10365D01*
X8823Y10446D01*
X8825Y10541D01*
X8808Y10623D01*
X8777Y10700D01*
X8730Y10769D01*
X8672Y10829D01*
X8603Y10875D01*
X8526Y10907D01*
X8444Y10924D01*
X8361Y10925D01*
X8279Y10909D01*
X8202Y10878D01*
X8132Y10832D01*
X8072Y10774D01*
X8025Y10705D01*
X7992Y10629D01*
X7975Y10547D01*
X7974Y10464D01*
X7989Y10382D01*
X8020Y10304D01*
X8065Y10234D01*
X8123Y10174D01*
X8130Y10169D01*
X4508Y10169D01*
X3659Y10252D01*
X2850Y10497D01*
X2104Y10893D01*
X1509Y11378D01*
X1509Y14810D01*
X1509Y15241D01*
X1504Y15270D01*
X1492Y15297D01*
X1476Y15322D01*
X1455Y15342D01*
X1431Y15359D01*
X1404Y15370D01*
X1375Y15376D01*
X1346Y15376D01*
X1035Y15376D01*
X1006Y15371D01*
X978Y15359D01*
X954Y15343D01*
X933Y15322D01*
X917Y15298D01*
X905Y15271D01*
X899Y15242D01*
X899Y15213D01*
X899Y14782D01*
X905Y14753D01*
X916Y14726D01*
X932Y14701D01*
X953Y14680D01*
X978Y14664D01*
X1005Y14652D01*
X1033Y14646D01*
X1063Y14646D01*
X1374Y14646D01*
X1403Y14652D01*
X1430Y14663D01*
X1454Y14680D01*
X1475Y14700D01*
X1492Y14725D01*
X1503Y14752D01*
X1509Y14781D01*
X1509Y14810D01*
X1509Y11378D01*
X1449Y11427D01*
X910Y12078D01*
X508Y12822D01*
X258Y13629D01*
X169Y14477D01*
X169Y14491D01*
X252Y15340D01*
X497Y16149D01*
X893Y16895D01*
X1427Y17550D01*
X2078Y18089D01*
X2822Y18491D01*
X3629Y18741D01*
X4477Y18830D01*
X4500Y18830D01*
X8129Y18830D01*
X8072Y18774D01*
X8025Y18705D01*
X7992Y18629D01*
X7975Y18547D01*
X7974Y18464D01*
X7989Y18382D01*
X8020Y18304D01*
X8065Y18234D01*
X8123Y18174D01*
X8191Y18127D01*
X8268Y18093D01*
X8349Y18075D01*
X8432Y18074D01*
X8514Y18088D01*
X8592Y18118D01*
X8662Y18163D01*
X8723Y18220D01*
X8750Y18258D01*
X8750Y17741D01*
X8730Y17769D01*
X8672Y17829D01*
X8603Y17875D01*
X8526Y17907D01*
X8444Y17924D01*
X8361Y17925D01*
X8279Y17909D01*
X8202Y17878D01*
X8132Y17832D01*
X8072Y17774D01*
X8046Y17736D01*
X8024Y17758D01*
X8025Y17804D01*
X8013Y17862D01*
X7991Y17916D01*
X7958Y17965D01*
X7917Y18007D01*
X7868Y18040D01*
X7814Y18062D01*
X7756Y18074D01*
X7697Y18075D01*
X7639Y18064D01*
X7585Y18042D01*
X7536Y18009D01*
X7494Y17968D01*
X7460Y17920D01*
X7437Y17866D01*
X7425Y17808D01*
X7424Y17749D01*
X7435Y17691D01*
X7451Y17650D01*
X5600Y17650D01*
X4400Y17650D01*
X4400Y17010D01*
X4393Y17015D01*
X4339Y17037D01*
X4307Y17044D01*
X4312Y17051D01*
X4336Y17104D01*
X4349Y17162D01*
X4350Y17229D01*
X4338Y17287D01*
X4316Y17341D01*
X4283Y17390D01*
X4242Y17432D01*
X4193Y17465D01*
X4139Y17487D01*
X4081Y17499D01*
X4022Y17500D01*
X3964Y17489D01*
X3910Y17467D01*
X3861Y17434D01*
X3819Y17393D01*
X3785Y17345D01*
X3762Y17291D01*
X3750Y17233D01*
X3749Y17174D01*
X3760Y17116D01*
X3781Y17062D01*
X3813Y17012D01*
X3854Y16970D01*
X3902Y16936D01*
X3956Y16913D01*
X3992Y16905D01*
X3985Y16895D01*
X3962Y16841D01*
X3950Y16783D01*
X3949Y16724D01*
X3952Y16707D01*
X3922Y16677D01*
X3912Y16664D01*
X3901Y16651D01*
X3901Y16650D01*
X3900Y16650D01*
X3892Y16635D01*
X3888Y16627D01*
X3637Y16627D01*
X3608Y16621D01*
X3581Y16610D01*
X3557Y16594D01*
X3536Y16573D01*
X3519Y16549D01*
X3508Y16522D01*
X3502Y16493D01*
X3502Y16463D01*
X3502Y16301D01*
X3494Y16292D01*
X3482Y16278D01*
X3482Y16277D01*
X3481Y16276D01*
X3473Y16260D01*
X3464Y16244D01*
X3463Y16243D01*
X3463Y16242D01*
X3457Y16224D01*
X3452Y16207D01*
X3452Y16206D01*
X3451Y16205D01*
X3450Y16186D01*
X3448Y16168D01*
X3448Y16166D01*
X3448Y16166D01*
X3448Y16166D01*
X3448Y16165D01*
X3448Y16150D01*
X3050Y16150D01*
X1750Y16150D01*
X1750Y14350D01*
X3400Y14350D01*
X3400Y13848D01*
X3385Y13842D01*
X3336Y13809D01*
X3294Y13768D01*
X3260Y13720D01*
X3237Y13666D01*
X3225Y13608D01*
X3224Y13549D01*
X3235Y13491D01*
X3256Y13437D01*
X3288Y13387D01*
X3329Y13345D01*
X3377Y13311D01*
X3415Y13295D01*
X3415Y13150D01*
X2800Y13150D01*
X1750Y13150D01*
X1750Y11760D01*
X3550Y10800D01*
X3550Y12020D01*
X3550Y12019D01*
X3577Y12008D01*
X3606Y12002D01*
X3636Y12002D01*
X3992Y12002D01*
X4021Y12008D01*
X4048Y12019D01*
X4072Y12035D01*
X4093Y12056D01*
X4110Y12080D01*
X4110Y12082D01*
X4282Y12082D01*
X4300Y12084D01*
X4319Y12085D01*
X4320Y12086D01*
X4321Y12086D01*
X4339Y12091D01*
X4356Y12096D01*
X4357Y12097D01*
X4358Y12097D01*
X4375Y12106D01*
X4391Y12114D01*
X4392Y12115D01*
X4393Y12115D01*
X4407Y12127D01*
X4421Y12139D01*
X4423Y12140D01*
X4423Y12140D01*
X4423Y12140D01*
X4423Y12141D01*
X4616Y12333D01*
X4628Y12347D01*
X4640Y12362D01*
X4640Y12362D01*
X4641Y12363D01*
X4643Y12368D01*
X4656Y12363D01*
X4714Y12350D01*
X4773Y12349D01*
X4831Y12359D01*
X4885Y12380D01*
X4935Y12412D01*
X4949Y12425D01*
X4954Y12420D01*
X5002Y12386D01*
X5056Y12363D01*
X5114Y12350D01*
X5173Y12349D01*
X5231Y12359D01*
X5285Y12380D01*
X5335Y12412D01*
X5378Y12453D01*
X5412Y12501D01*
X5419Y12518D01*
X5425Y12516D01*
X5424Y12474D01*
X5435Y12416D01*
X5456Y12362D01*
X5488Y12312D01*
X5529Y12270D01*
X5577Y12236D01*
X5631Y12213D01*
X5689Y12200D01*
X5748Y12199D01*
X5806Y12209D01*
X5860Y12230D01*
X5910Y12262D01*
X5953Y12303D01*
X5987Y12351D01*
X6011Y12404D01*
X6024Y12462D01*
X6024Y12516D01*
X6093Y12585D01*
X6105Y12599D01*
X6117Y12614D01*
X6117Y12614D01*
X6118Y12615D01*
X6126Y12632D01*
X6135Y12648D01*
X6136Y12649D01*
X6136Y12650D01*
X6142Y12667D01*
X6147Y12685D01*
X6147Y12686D01*
X6148Y12687D01*
X6149Y12705D01*
X6151Y12724D01*
X6151Y12726D01*
X6151Y12726D01*
X6151Y12726D01*
X6152Y12727D01*
X6152Y13014D01*
X6167Y13036D01*
X6175Y13055D01*
X6182Y13037D01*
X6198Y13014D01*
X6198Y12575D01*
X6199Y12557D01*
X6201Y12538D01*
X6201Y12537D01*
X6201Y12536D01*
X6207Y12519D01*
X6212Y12501D01*
X6212Y12500D01*
X6213Y12499D01*
X6221Y12483D01*
X6230Y12466D01*
X6230Y12465D01*
X6231Y12465D01*
X6243Y12450D01*
X6254Y12436D01*
X6256Y12434D01*
X6256Y12434D01*
X6256Y12434D01*
X6256Y12434D01*
X6632Y12058D01*
X6632Y12006D01*
X6594Y11968D01*
X6560Y11920D01*
X6537Y11866D01*
X6525Y11808D01*
X6524Y11749D01*
X6535Y11691D01*
X6551Y11650D01*
X4900Y11650D01*
X3925Y11650D01*
X3925Y10600D01*
X7612Y10600D01*
X7900Y10887D01*
X7900Y11175D01*
X7900Y11367D01*
X7966Y11433D01*
X7977Y11447D01*
X7989Y11382D01*
X8020Y11304D01*
X8065Y11234D01*
X8123Y11174D01*
X8191Y11127D01*
X8268Y11093D01*
X8349Y11075D01*
X8432Y11074D01*
X8514Y11088D01*
X8592Y11118D01*
X8662Y11163D01*
X8723Y11220D01*
X8771Y11289D01*
X8805Y11365D01*
X8823Y11446D01*
X8825Y11541D01*
X8808Y11623D01*
X8777Y11700D01*
X8730Y11769D01*
X8672Y11829D01*
X8603Y11875D01*
X8526Y11907D01*
X8444Y11924D01*
X8361Y11925D01*
X8279Y11909D01*
X8202Y11878D01*
X8132Y11832D01*
X8072Y11774D01*
X8025Y11705D01*
X8025Y11703D01*
X8025Y12342D01*
X8148Y12465D01*
X8152Y12461D01*
X8206Y12438D01*
X8264Y12425D01*
X8323Y12424D01*
X8381Y12434D01*
X8435Y12455D01*
X8485Y12487D01*
X8528Y12528D01*
X8562Y12576D01*
X8586Y12629D01*
X8599Y12687D01*
X8599Y12744D01*
X8611Y12758D01*
X8611Y12758D01*
X8612Y12759D01*
X8620Y12775D01*
X8629Y12792D01*
X8630Y12793D01*
X8630Y12794D01*
X8636Y12811D01*
X8641Y12829D01*
X8641Y12830D01*
X8642Y12831D01*
X8643Y12849D01*
X8645Y12868D01*
X8645Y12870D01*
X8645Y12870D01*
X8645Y12870D01*
X8646Y12871D01*
X8646Y12958D01*
X8799Y12958D01*
X8828Y12964D01*
X8855Y12975D01*
X8879Y12991D01*
X8900Y13012D01*
X8917Y13036D01*
X8928Y13063D01*
X8934Y13092D01*
X8934Y13101D01*
X8939Y13100D01*
X8998Y13099D01*
X9056Y13109D01*
X9110Y13130D01*
X9160Y13162D01*
X9203Y13203D01*
X9237Y13251D01*
X9261Y13304D01*
X9274Y13362D01*
X9275Y13429D01*
X9263Y13487D01*
X9241Y13541D01*
X9208Y13590D01*
X9167Y13632D01*
X9140Y13650D01*
X9830Y13650D01*
X9830Y11500D01*
X9830Y10169D01*
G54D10*
G36*
X3350Y11133D02*
X1950Y11880D01*
X1950Y12950D01*
X2800Y12950D01*
X3350Y12950D01*
X3350Y11133D01*
X3350Y11133D01*
G37*
G54D23*
X3350Y11133D02*
X1950Y11880D01*
X1950Y12950D01*
X2800Y12950D01*
X3350Y12950D01*
X3350Y11133D01*
G54D10*
G36*
X7700Y10970D02*
X7529Y10800D01*
X4125Y10800D01*
X4125Y11450D01*
X4900Y11450D01*
X6552Y11450D01*
X6552Y11307D01*
X6558Y11278D01*
X6569Y11251D01*
X6585Y11227D01*
X6606Y11206D01*
X6630Y11189D01*
X6657Y11178D01*
X6686Y11172D01*
X6716Y11172D01*
X6977Y11172D01*
X7006Y11178D01*
X7033Y11189D01*
X7057Y11205D01*
X7078Y11226D01*
X7094Y11250D01*
X7105Y11250D01*
X7120Y11227D01*
X7141Y11206D01*
X7165Y11189D01*
X7192Y11178D01*
X7221Y11172D01*
X7251Y11172D01*
X7512Y11172D01*
X7541Y11178D01*
X7568Y11189D01*
X7592Y11205D01*
X7613Y11226D01*
X7630Y11250D01*
X7641Y11277D01*
X7647Y11306D01*
X7647Y11336D01*
X7647Y11450D01*
X7700Y11450D01*
X7700Y10970D01*
X7700Y10970D01*
G37*
G54D23*
X7700Y10970D02*
X7529Y10800D01*
X4125Y10800D01*
X4125Y11450D01*
X4900Y11450D01*
X6552Y11450D01*
X6552Y11307D01*
X6558Y11278D01*
X6569Y11251D01*
X6585Y11227D01*
X6606Y11206D01*
X6630Y11189D01*
X6657Y11178D01*
X6686Y11172D01*
X6716Y11172D01*
X6977Y11172D01*
X7006Y11178D01*
X7033Y11189D01*
X7057Y11205D01*
X7078Y11226D01*
X7094Y11250D01*
X7105Y11250D01*
X7120Y11227D01*
X7141Y11206D01*
X7165Y11189D01*
X7192Y11178D01*
X7221Y11172D01*
X7251Y11172D01*
X7512Y11172D01*
X7541Y11178D01*
X7568Y11189D01*
X7592Y11205D01*
X7613Y11226D01*
X7630Y11250D01*
X7641Y11277D01*
X7647Y11306D01*
X7647Y11336D01*
X7647Y11450D01*
X7700Y11450D01*
X7700Y10970D01*
G54D10*
G36*
X3350Y14550D02*
X1950Y14550D01*
X1950Y15950D01*
X3050Y15950D01*
X3350Y15950D01*
X3350Y14550D01*
X3350Y14550D01*
G37*
G54D23*
X3350Y14550D02*
X1950Y14550D01*
X1950Y15950D01*
X3050Y15950D01*
X3350Y15950D01*
X3350Y14550D01*
G54D10*
G36*
X7700Y16700D02*
X7490Y16700D01*
X7488Y16712D01*
X7466Y16766D01*
X7433Y16815D01*
X7392Y16857D01*
X7343Y16890D01*
X7289Y16912D01*
X7231Y16924D01*
X7172Y16925D01*
X7114Y16914D01*
X7060Y16892D01*
X7011Y16859D01*
X6969Y16818D01*
X6959Y16805D01*
X6775Y16805D01*
X6758Y16803D01*
X6741Y16801D01*
X6740Y16801D01*
X6740Y16801D01*
X6724Y16796D01*
X6708Y16792D01*
X6707Y16791D01*
X6706Y16791D01*
X6691Y16783D01*
X6676Y16775D01*
X6676Y16775D01*
X6675Y16774D01*
X6662Y16764D01*
X6649Y16754D01*
X6648Y16752D01*
X6648Y16752D01*
X6648Y16752D01*
X6647Y16752D01*
X6595Y16700D01*
X6100Y16700D01*
X5819Y16700D01*
X5789Y16712D01*
X5731Y16724D01*
X5672Y16725D01*
X5614Y16714D01*
X5579Y16700D01*
X5119Y16700D01*
X5089Y16712D01*
X5031Y16724D01*
X4972Y16725D01*
X4914Y16714D01*
X4879Y16700D01*
X4600Y16700D01*
X4600Y17450D01*
X5600Y17450D01*
X7700Y17450D01*
X7700Y16700D01*
X7700Y16700D01*
G37*
G54D23*
X7700Y16700D02*
X7490Y16700D01*
X7488Y16712D01*
X7466Y16766D01*
X7433Y16815D01*
X7392Y16857D01*
X7343Y16890D01*
X7289Y16912D01*
X7231Y16924D01*
X7172Y16925D01*
X7114Y16914D01*
X7060Y16892D01*
X7011Y16859D01*
X6969Y16818D01*
X6959Y16805D01*
X6775Y16805D01*
X6758Y16803D01*
X6741Y16801D01*
X6740Y16801D01*
X6740Y16801D01*
X6724Y16796D01*
X6708Y16792D01*
X6707Y16791D01*
X6706Y16791D01*
X6691Y16783D01*
X6676Y16775D01*
X6676Y16775D01*
X6675Y16774D01*
X6662Y16764D01*
X6649Y16754D01*
X6648Y16752D01*
X6648Y16752D01*
X6648Y16752D01*
X6647Y16752D01*
X6595Y16700D01*
X6100Y16700D01*
X5819Y16700D01*
X5789Y16712D01*
X5731Y16724D01*
X5672Y16725D01*
X5614Y16714D01*
X5579Y16700D01*
X5119Y16700D01*
X5089Y16712D01*
X5031Y16724D01*
X4972Y16725D01*
X4914Y16714D01*
X4879Y16700D01*
X4600Y16700D01*
X4600Y17450D01*
X5600Y17450D01*
X7700Y17450D01*
X7700Y16700D01*
G54D10*
G36*
X9850Y13830D02*
X4340Y13830D01*
X4340Y13894D01*
X4351Y13898D01*
X4398Y13928D01*
X4437Y13966D01*
X4469Y14011D01*
X4491Y14061D01*
X4504Y14114D01*
X4505Y14177D01*
X4494Y14231D01*
X4473Y14282D01*
X4443Y14327D01*
X4404Y14366D01*
X4379Y14383D01*
X4391Y14411D01*
X4404Y14464D01*
X4405Y14527D01*
X4394Y14581D01*
X4373Y14632D01*
X4343Y14677D01*
X4304Y14716D01*
X4258Y14747D01*
X4208Y14768D01*
X4154Y14779D01*
X4099Y14780D01*
X4045Y14769D01*
X3994Y14749D01*
X3948Y14719D01*
X3909Y14680D01*
X3878Y14635D01*
X3856Y14585D01*
X3845Y14531D01*
X3844Y14476D01*
X3844Y14474D01*
X3780Y14410D01*
X3770Y14397D01*
X3759Y14384D01*
X3759Y14383D01*
X3758Y14383D01*
X3750Y14368D01*
X3742Y14353D01*
X3742Y14353D01*
X3741Y14352D01*
X3736Y14336D01*
X3731Y14320D01*
X3731Y14319D01*
X3731Y14318D01*
X3729Y14301D01*
X3728Y14285D01*
X3728Y14283D01*
X3728Y14283D01*
X3728Y14283D01*
X3728Y14283D01*
X3728Y13830D01*
X3640Y13830D01*
X3608Y13843D01*
X3580Y13849D01*
X3580Y15170D01*
X7586Y15170D01*
X7581Y15160D01*
X7570Y15106D01*
X7569Y15051D01*
X7579Y14997D01*
X7599Y14946D01*
X7629Y14900D01*
X7667Y14860D01*
X7712Y14829D01*
X7763Y14807D01*
X7816Y14795D01*
X7871Y14794D01*
X7925Y14804D01*
X7976Y14823D01*
X8023Y14853D01*
X8062Y14891D01*
X8094Y14936D01*
X8116Y14986D01*
X8129Y15039D01*
X8130Y15102D01*
X8119Y15156D01*
X8113Y15170D01*
X8930Y15170D01*
X8930Y16351D01*
X8930Y16352D01*
X8930Y16352D01*
X8930Y18850D01*
X9850Y18850D01*
X9850Y17500D01*
X9850Y13830D01*
X9850Y13830D01*
G37*
G54D24*
X9850Y13830D02*
X4340Y13830D01*
X4340Y13894D01*
X4351Y13898D01*
X4398Y13928D01*
X4437Y13966D01*
X4469Y14011D01*
X4491Y14061D01*
X4504Y14114D01*
X4505Y14177D01*
X4494Y14231D01*
X4473Y14282D01*
X4443Y14327D01*
X4404Y14366D01*
X4379Y14383D01*
X4391Y14411D01*
X4404Y14464D01*
X4405Y14527D01*
X4394Y14581D01*
X4373Y14632D01*
X4343Y14677D01*
X4304Y14716D01*
X4258Y14747D01*
X4208Y14768D01*
X4154Y14779D01*
X4099Y14780D01*
X4045Y14769D01*
X3994Y14749D01*
X3948Y14719D01*
X3909Y14680D01*
X3878Y14635D01*
X3856Y14585D01*
X3845Y14531D01*
X3844Y14476D01*
X3844Y14474D01*
X3780Y14410D01*
X3770Y14397D01*
X3759Y14384D01*
X3759Y14383D01*
X3758Y14383D01*
X3750Y14368D01*
X3742Y14353D01*
X3742Y14353D01*
X3741Y14352D01*
X3736Y14336D01*
X3731Y14320D01*
X3731Y14319D01*
X3731Y14318D01*
X3729Y14301D01*
X3728Y14285D01*
X3728Y14283D01*
X3728Y14283D01*
X3728Y14283D01*
X3728Y14283D01*
X3728Y13830D01*
X3640Y13830D01*
X3608Y13843D01*
X3580Y13849D01*
X3580Y15170D01*
X7586Y15170D01*
X7581Y15160D01*
X7570Y15106D01*
X7569Y15051D01*
X7579Y14997D01*
X7599Y14946D01*
X7629Y14900D01*
X7667Y14860D01*
X7712Y14829D01*
X7763Y14807D01*
X7816Y14795D01*
X7871Y14794D01*
X7925Y14804D01*
X7976Y14823D01*
X8023Y14853D01*
X8062Y14891D01*
X8094Y14936D01*
X8116Y14986D01*
X8129Y15039D01*
X8130Y15102D01*
X8119Y15156D01*
X8113Y15170D01*
X8930Y15170D01*
X8930Y16351D01*
X8930Y16352D01*
X8930Y16352D01*
X8930Y18850D01*
X9850Y18850D01*
X9850Y17500D01*
X9850Y13830D01*
G54D10*
G36*
X58170Y14215D02*
X58156Y14185D01*
X58145Y14131D01*
X58144Y14076D01*
X58154Y14022D01*
X58166Y13993D01*
X58166Y13830D01*
X56955Y13830D01*
X56950Y13839D01*
X56944Y13852D01*
X56943Y13852D01*
X56943Y13853D01*
X56933Y13864D01*
X56924Y13876D01*
X56923Y13877D01*
X56923Y13877D01*
X56923Y13877D01*
X56923Y13878D01*
X56813Y13988D01*
X56763Y14038D01*
X56751Y14047D01*
X56740Y14057D01*
X56739Y14057D01*
X56739Y14057D01*
X56725Y14064D01*
X56713Y14072D01*
X56712Y14072D01*
X56711Y14072D01*
X56697Y14077D01*
X56683Y14081D01*
X56682Y14081D01*
X56681Y14081D01*
X56666Y14083D01*
X56652Y14084D01*
X56650Y14084D01*
X56650Y14084D01*
X56650Y14084D01*
X56650Y14085D01*
X56404Y14085D01*
X56278Y14085D01*
X56269Y14131D01*
X56248Y14182D01*
X56218Y14227D01*
X56179Y14266D01*
X56133Y14297D01*
X56083Y14318D01*
X56029Y14329D01*
X55974Y14330D01*
X55920Y14319D01*
X55869Y14299D01*
X55823Y14269D01*
X55784Y14230D01*
X55783Y14229D01*
X55765Y14257D01*
X55709Y14313D01*
X55643Y14357D01*
X55570Y14388D01*
X55492Y14404D01*
X55413Y14405D01*
X55335Y14390D01*
X55261Y14360D01*
X55194Y14317D01*
X55138Y14261D01*
X55093Y14196D01*
X55062Y14123D01*
X55045Y14045D01*
X55044Y13965D01*
X55058Y13887D01*
X55088Y13813D01*
X55131Y13747D01*
X55186Y13690D01*
X55251Y13644D01*
X55324Y13612D01*
X55401Y13595D01*
X55481Y13594D01*
X55559Y13608D01*
X55633Y13636D01*
X55640Y13640D01*
X55647Y13640D01*
X55649Y13640D01*
X55649Y13640D01*
X55649Y13640D01*
X55650Y13640D01*
X55806Y13640D01*
X55803Y13635D01*
X55781Y13585D01*
X55770Y13531D01*
X55769Y13476D01*
X55779Y13422D01*
X55799Y13371D01*
X55829Y13325D01*
X55867Y13285D01*
X55912Y13254D01*
X55963Y13232D01*
X56016Y13220D01*
X56020Y13220D01*
X56020Y13160D01*
X55822Y13160D01*
X55809Y13191D01*
X55765Y13257D01*
X55709Y13313D01*
X55643Y13357D01*
X55570Y13388D01*
X55492Y13404D01*
X55413Y13405D01*
X55335Y13390D01*
X55261Y13360D01*
X55194Y13317D01*
X55138Y13261D01*
X55093Y13196D01*
X55062Y13123D01*
X55045Y13045D01*
X55044Y12965D01*
X55058Y12887D01*
X55088Y12813D01*
X55131Y12747D01*
X55186Y12690D01*
X55251Y12644D01*
X55324Y12612D01*
X55401Y12595D01*
X55481Y12594D01*
X55559Y12608D01*
X55633Y12636D01*
X55700Y12679D01*
X55758Y12734D01*
X55803Y12798D01*
X55822Y12840D01*
X56014Y12840D01*
X56020Y12834D01*
X56020Y11480D01*
X55856Y11480D01*
X55856Y12002D01*
X55848Y12081D01*
X55825Y12157D01*
X55790Y12222D01*
X55728Y12250D01*
X55700Y12221D01*
X55700Y12278D01*
X55672Y12340D01*
X55602Y12377D01*
X55526Y12399D01*
X55447Y12406D01*
X55368Y12398D01*
X55292Y12375D01*
X55227Y12340D01*
X55199Y12278D01*
X55450Y12028D01*
X55700Y12278D01*
X55700Y12221D01*
X55478Y12000D01*
X55728Y11749D01*
X55790Y11777D01*
X55827Y11847D01*
X55849Y11923D01*
X55856Y12002D01*
X55856Y11480D01*
X55700Y11480D01*
X55700Y11721D01*
X55450Y11971D01*
X55421Y11943D01*
X55421Y12000D01*
X55171Y12250D01*
X55109Y12222D01*
X55072Y12152D01*
X55050Y12076D01*
X55043Y11997D01*
X55051Y11918D01*
X55074Y11842D01*
X55109Y11777D01*
X55171Y11749D01*
X55421Y12000D01*
X55421Y11943D01*
X55199Y11721D01*
X55227Y11659D01*
X55297Y11622D01*
X55373Y11600D01*
X55452Y11593D01*
X55531Y11601D01*
X55607Y11624D01*
X55672Y11659D01*
X55700Y11721D01*
X55700Y11480D01*
X54999Y11480D01*
X54999Y15170D01*
X55082Y15170D01*
X55062Y15123D01*
X55045Y15045D01*
X55044Y14965D01*
X55058Y14887D01*
X55088Y14813D01*
X55131Y14747D01*
X55186Y14690D01*
X55251Y14644D01*
X55324Y14612D01*
X55401Y14595D01*
X55481Y14594D01*
X55559Y14608D01*
X55633Y14636D01*
X55700Y14679D01*
X55758Y14734D01*
X55803Y14798D01*
X55836Y14871D01*
X55853Y14948D01*
X55855Y15039D01*
X55839Y15117D01*
X55818Y15170D01*
X55875Y15170D01*
X56022Y15022D01*
X56035Y15012D01*
X56048Y15001D01*
X56049Y15001D01*
X56049Y15000D01*
X56064Y14992D01*
X56079Y14984D01*
X56079Y14984D01*
X56080Y14983D01*
X56096Y14978D01*
X56112Y14973D01*
X56113Y14973D01*
X56114Y14973D01*
X56130Y14971D01*
X56147Y14970D01*
X56149Y14970D01*
X56149Y14970D01*
X56149Y14970D01*
X56150Y14970D01*
X56500Y14970D01*
X56516Y14971D01*
X56533Y14973D01*
X56534Y14973D01*
X56534Y14973D01*
X56550Y14978D01*
X56566Y14982D01*
X56567Y14983D01*
X56568Y14983D01*
X56583Y14991D01*
X56598Y14999D01*
X56598Y14999D01*
X56599Y15000D01*
X56612Y15010D01*
X56625Y15020D01*
X56626Y15022D01*
X56626Y15022D01*
X56626Y15022D01*
X56627Y15022D01*
X56681Y15076D01*
X56691Y15089D01*
X56702Y15102D01*
X56702Y15103D01*
X56703Y15103D01*
X56711Y15118D01*
X56719Y15133D01*
X56719Y15133D01*
X56720Y15134D01*
X56725Y15150D01*
X56730Y15166D01*
X56730Y15167D01*
X56730Y15168D01*
X56730Y15170D01*
X58166Y15170D01*
X58166Y14981D01*
X58156Y14960D01*
X58145Y14906D01*
X58144Y14851D01*
X58154Y14797D01*
X58170Y14758D01*
X58170Y14215D01*
X58170Y14215D01*
G37*
G54D24*
X58170Y14215D02*
X58156Y14185D01*
X58145Y14131D01*
X58144Y14076D01*
X58154Y14022D01*
X58166Y13993D01*
X58166Y13830D01*
X56955Y13830D01*
X56950Y13839D01*
X56944Y13852D01*
X56943Y13852D01*
X56943Y13853D01*
X56933Y13864D01*
X56924Y13876D01*
X56923Y13877D01*
X56923Y13877D01*
X56923Y13877D01*
X56923Y13878D01*
X56813Y13988D01*
X56763Y14038D01*
X56751Y14047D01*
X56740Y14057D01*
X56739Y14057D01*
X56739Y14057D01*
X56725Y14064D01*
X56713Y14072D01*
X56712Y14072D01*
X56711Y14072D01*
X56697Y14077D01*
X56683Y14081D01*
X56682Y14081D01*
X56681Y14081D01*
X56666Y14083D01*
X56652Y14084D01*
X56650Y14084D01*
X56650Y14084D01*
X56650Y14084D01*
X56650Y14085D01*
X56404Y14085D01*
X56278Y14085D01*
X56269Y14131D01*
X56248Y14182D01*
X56218Y14227D01*
X56179Y14266D01*
X56133Y14297D01*
X56083Y14318D01*
X56029Y14329D01*
X55974Y14330D01*
X55920Y14319D01*
X55869Y14299D01*
X55823Y14269D01*
X55784Y14230D01*
X55783Y14229D01*
X55765Y14257D01*
X55709Y14313D01*
X55643Y14357D01*
X55570Y14388D01*
X55492Y14404D01*
X55413Y14405D01*
X55335Y14390D01*
X55261Y14360D01*
X55194Y14317D01*
X55138Y14261D01*
X55093Y14196D01*
X55062Y14123D01*
X55045Y14045D01*
X55044Y13965D01*
X55058Y13887D01*
X55088Y13813D01*
X55131Y13747D01*
X55186Y13690D01*
X55251Y13644D01*
X55324Y13612D01*
X55401Y13595D01*
X55481Y13594D01*
X55559Y13608D01*
X55633Y13636D01*
X55640Y13640D01*
X55647Y13640D01*
X55649Y13640D01*
X55649Y13640D01*
X55649Y13640D01*
X55650Y13640D01*
X55806Y13640D01*
X55803Y13635D01*
X55781Y13585D01*
X55770Y13531D01*
X55769Y13476D01*
X55779Y13422D01*
X55799Y13371D01*
X55829Y13325D01*
X55867Y13285D01*
X55912Y13254D01*
X55963Y13232D01*
X56016Y13220D01*
X56020Y13220D01*
X56020Y13160D01*
X55822Y13160D01*
X55809Y13191D01*
X55765Y13257D01*
X55709Y13313D01*
X55643Y13357D01*
X55570Y13388D01*
X55492Y13404D01*
X55413Y13405D01*
X55335Y13390D01*
X55261Y13360D01*
X55194Y13317D01*
X55138Y13261D01*
X55093Y13196D01*
X55062Y13123D01*
X55045Y13045D01*
X55044Y12965D01*
X55058Y12887D01*
X55088Y12813D01*
X55131Y12747D01*
X55186Y12690D01*
X55251Y12644D01*
X55324Y12612D01*
X55401Y12595D01*
X55481Y12594D01*
X55559Y12608D01*
X55633Y12636D01*
X55700Y12679D01*
X55758Y12734D01*
X55803Y12798D01*
X55822Y12840D01*
X56014Y12840D01*
X56020Y12834D01*
X56020Y11480D01*
X55856Y11480D01*
X55856Y12002D01*
X55848Y12081D01*
X55825Y12157D01*
X55790Y12222D01*
X55728Y12250D01*
X55700Y12221D01*
X55700Y12278D01*
X55672Y12340D01*
X55602Y12377D01*
X55526Y12399D01*
X55447Y12406D01*
X55368Y12398D01*
X55292Y12375D01*
X55227Y12340D01*
X55199Y12278D01*
X55450Y12028D01*
X55700Y12278D01*
X55700Y12221D01*
X55478Y12000D01*
X55728Y11749D01*
X55790Y11777D01*
X55827Y11847D01*
X55849Y11923D01*
X55856Y12002D01*
X55856Y11480D01*
X55700Y11480D01*
X55700Y11721D01*
X55450Y11971D01*
X55421Y11943D01*
X55421Y12000D01*
X55171Y12250D01*
X55109Y12222D01*
X55072Y12152D01*
X55050Y12076D01*
X55043Y11997D01*
X55051Y11918D01*
X55074Y11842D01*
X55109Y11777D01*
X55171Y11749D01*
X55421Y12000D01*
X55421Y11943D01*
X55199Y11721D01*
X55227Y11659D01*
X55297Y11622D01*
X55373Y11600D01*
X55452Y11593D01*
X55531Y11601D01*
X55607Y11624D01*
X55672Y11659D01*
X55700Y11721D01*
X55700Y11480D01*
X54999Y11480D01*
X54999Y15170D01*
X55082Y15170D01*
X55062Y15123D01*
X55045Y15045D01*
X55044Y14965D01*
X55058Y14887D01*
X55088Y14813D01*
X55131Y14747D01*
X55186Y14690D01*
X55251Y14644D01*
X55324Y14612D01*
X55401Y14595D01*
X55481Y14594D01*
X55559Y14608D01*
X55633Y14636D01*
X55700Y14679D01*
X55758Y14734D01*
X55803Y14798D01*
X55836Y14871D01*
X55853Y14948D01*
X55855Y15039D01*
X55839Y15117D01*
X55818Y15170D01*
X55875Y15170D01*
X56022Y15022D01*
X56035Y15012D01*
X56048Y15001D01*
X56049Y15001D01*
X56049Y15000D01*
X56064Y14992D01*
X56079Y14984D01*
X56079Y14984D01*
X56080Y14983D01*
X56096Y14978D01*
X56112Y14973D01*
X56113Y14973D01*
X56114Y14973D01*
X56130Y14971D01*
X56147Y14970D01*
X56149Y14970D01*
X56149Y14970D01*
X56149Y14970D01*
X56150Y14970D01*
X56500Y14970D01*
X56516Y14971D01*
X56533Y14973D01*
X56534Y14973D01*
X56534Y14973D01*
X56550Y14978D01*
X56566Y14982D01*
X56567Y14983D01*
X56568Y14983D01*
X56583Y14991D01*
X56598Y14999D01*
X56598Y14999D01*
X56599Y15000D01*
X56612Y15010D01*
X56625Y15020D01*
X56626Y15022D01*
X56626Y15022D01*
X56626Y15022D01*
X56627Y15022D01*
X56681Y15076D01*
X56691Y15089D01*
X56702Y15102D01*
X56702Y15103D01*
X56703Y15103D01*
X56711Y15118D01*
X56719Y15133D01*
X56719Y15133D01*
X56720Y15134D01*
X56725Y15150D01*
X56730Y15166D01*
X56730Y15167D01*
X56730Y15168D01*
X56730Y15170D01*
X58166Y15170D01*
X58166Y14981D01*
X58156Y14960D01*
X58145Y14906D01*
X58144Y14851D01*
X58154Y14797D01*
X58170Y14758D01*
X58170Y14215D01*
G54D10*
G36*
X60300Y14507D02*
X60216Y13655D01*
X59971Y12842D01*
X59572Y12092D01*
X59036Y11435D01*
X58382Y10894D01*
X57635Y10490D01*
X56824Y10239D01*
X55973Y10149D01*
X55949Y10149D01*
X54999Y10149D01*
X54999Y10520D01*
X55853Y10520D01*
X56403Y11070D01*
X58455Y11070D01*
X58455Y12480D01*
X57758Y12480D01*
X57758Y12862D01*
X57772Y12847D01*
X57785Y12837D01*
X57798Y12826D01*
X57799Y12826D01*
X57799Y12825D01*
X57814Y12817D01*
X57829Y12809D01*
X57829Y12809D01*
X57830Y12808D01*
X57846Y12803D01*
X57862Y12798D01*
X57863Y12798D01*
X57864Y12798D01*
X57880Y12796D01*
X57897Y12795D01*
X57899Y12795D01*
X57899Y12795D01*
X57899Y12795D01*
X57900Y12795D01*
X58750Y12795D01*
X58766Y12796D01*
X58783Y12798D01*
X58784Y12798D01*
X58784Y12798D01*
X58800Y12803D01*
X58816Y12807D01*
X58817Y12808D01*
X58818Y12808D01*
X58833Y12816D01*
X58848Y12824D01*
X58848Y12824D01*
X58849Y12825D01*
X58862Y12835D01*
X58875Y12845D01*
X58876Y12847D01*
X58876Y12847D01*
X58876Y12847D01*
X58877Y12847D01*
X59102Y13072D01*
X59112Y13085D01*
X59123Y13098D01*
X59123Y13099D01*
X59124Y13099D01*
X59132Y13114D01*
X59140Y13129D01*
X59140Y13129D01*
X59141Y13130D01*
X59146Y13146D01*
X59151Y13162D01*
X59151Y13163D01*
X59151Y13164D01*
X59153Y13181D01*
X59154Y13197D01*
X59154Y13199D01*
X59154Y13199D01*
X59154Y13199D01*
X59155Y13200D01*
X59155Y14345D01*
X59825Y14345D01*
X59841Y14346D01*
X59858Y14348D01*
X59859Y14348D01*
X59859Y14348D01*
X59875Y14353D01*
X59891Y14357D01*
X59892Y14358D01*
X59893Y14358D01*
X59908Y14366D01*
X59923Y14374D01*
X59923Y14374D01*
X59924Y14375D01*
X59937Y14385D01*
X59950Y14395D01*
X59951Y14397D01*
X59951Y14397D01*
X59951Y14397D01*
X59952Y14397D01*
X59982Y14427D01*
X59992Y14440D01*
X60003Y14453D01*
X60003Y14453D01*
X60004Y14454D01*
X60012Y14469D01*
X60020Y14483D01*
X60020Y14484D01*
X60020Y14485D01*
X60025Y14501D01*
X60030Y14517D01*
X60030Y14518D01*
X60031Y14519D01*
X60032Y14535D01*
X60034Y14552D01*
X60034Y14554D01*
X60034Y14554D01*
X60034Y14554D01*
X60034Y14554D01*
X60034Y14669D01*
X60047Y14671D01*
X60071Y14681D01*
X60092Y14695D01*
X60110Y14713D01*
X60124Y14734D01*
X60134Y14758D01*
X60139Y14783D01*
X60139Y14808D01*
X60139Y15239D01*
X60134Y15264D01*
X60125Y15288D01*
X60110Y15309D01*
X60092Y15327D01*
X60071Y15341D01*
X60048Y15351D01*
X60023Y15356D01*
X59997Y15356D01*
X59686Y15356D01*
X59661Y15351D01*
X59638Y15342D01*
X59617Y15328D01*
X59599Y15310D01*
X59584Y15288D01*
X59574Y15265D01*
X59569Y15240D01*
X59569Y15214D01*
X59569Y14784D01*
X59574Y14759D01*
X59584Y14735D01*
X59598Y14714D01*
X59607Y14705D01*
X58975Y14705D01*
X58958Y14703D01*
X58941Y14701D01*
X58940Y14701D01*
X58940Y14701D01*
X58923Y14696D01*
X58907Y14691D01*
X58907Y14691D01*
X58906Y14691D01*
X58891Y14683D01*
X58876Y14675D01*
X58875Y14675D01*
X58875Y14674D01*
X58862Y14664D01*
X58849Y14653D01*
X58848Y14653D01*
X58848Y14652D01*
X58837Y14639D01*
X58826Y14626D01*
X58826Y14626D01*
X58825Y14625D01*
X58817Y14610D01*
X58809Y14595D01*
X58809Y14595D01*
X58809Y14594D01*
X58804Y14578D01*
X58798Y14562D01*
X58798Y14561D01*
X58798Y14561D01*
X58796Y14544D01*
X58795Y14527D01*
X58795Y14526D01*
X58795Y14526D01*
X58795Y14526D01*
X58795Y14525D01*
X58795Y14088D01*
X58783Y14093D01*
X58729Y14104D01*
X58704Y14104D01*
X58705Y14127D01*
X58694Y14181D01*
X58673Y14232D01*
X58643Y14277D01*
X58604Y14316D01*
X58558Y14347D01*
X58508Y14368D01*
X58454Y14379D01*
X58399Y14380D01*
X58345Y14369D01*
X58330Y14363D01*
X58330Y14610D01*
X58338Y14607D01*
X58391Y14595D01*
X58446Y14594D01*
X58500Y14604D01*
X58551Y14623D01*
X58598Y14653D01*
X58637Y14691D01*
X58669Y14736D01*
X58691Y14786D01*
X58704Y14839D01*
X58704Y14844D01*
X58721Y14844D01*
X58775Y14854D01*
X58826Y14873D01*
X58873Y14903D01*
X58912Y14941D01*
X58944Y14986D01*
X58966Y15036D01*
X58979Y15089D01*
X58980Y15152D01*
X58969Y15206D01*
X58948Y15257D01*
X58918Y15302D01*
X58879Y15341D01*
X58833Y15372D01*
X58814Y15380D01*
X58814Y15904D01*
X58809Y15929D01*
X58799Y15952D01*
X58785Y15974D01*
X58767Y15992D01*
X58746Y16006D01*
X58723Y16016D01*
X58698Y16021D01*
X58672Y16021D01*
X58506Y16021D01*
X58481Y16016D01*
X58474Y16013D01*
X58467Y16016D01*
X58442Y16021D01*
X58416Y16021D01*
X58250Y16021D01*
X58225Y16016D01*
X58218Y16013D01*
X58211Y16016D01*
X58186Y16021D01*
X58160Y16021D01*
X58085Y16021D01*
X58091Y16036D01*
X58094Y16045D01*
X58146Y16044D01*
X58200Y16054D01*
X58251Y16073D01*
X58298Y16103D01*
X58337Y16141D01*
X58369Y16186D01*
X58391Y16236D01*
X58404Y16289D01*
X58405Y16352D01*
X58394Y16406D01*
X58373Y16457D01*
X58343Y16502D01*
X58304Y16541D01*
X58258Y16572D01*
X58208Y16593D01*
X58154Y16604D01*
X58099Y16605D01*
X58045Y16594D01*
X57994Y16574D01*
X57985Y16568D01*
X57978Y16571D01*
X57962Y16576D01*
X57961Y16576D01*
X57960Y16576D01*
X57943Y16578D01*
X57927Y16579D01*
X57925Y16579D01*
X57925Y16579D01*
X57925Y16579D01*
X57925Y16580D01*
X57725Y16580D01*
X57708Y16578D01*
X57691Y16576D01*
X57690Y16576D01*
X57690Y16576D01*
X57674Y16571D01*
X57658Y16567D01*
X57657Y16566D01*
X57656Y16566D01*
X57641Y16558D01*
X57626Y16550D01*
X57626Y16550D01*
X57625Y16549D01*
X57612Y16539D01*
X57599Y16529D01*
X57598Y16527D01*
X57598Y16527D01*
X57598Y16527D01*
X57597Y16527D01*
X57422Y16352D01*
X57412Y16339D01*
X57401Y16326D01*
X57401Y16325D01*
X57400Y16325D01*
X57392Y16310D01*
X57384Y16295D01*
X57384Y16295D01*
X57383Y16294D01*
X57378Y16278D01*
X57373Y16262D01*
X57373Y16261D01*
X57373Y16260D01*
X57371Y16243D01*
X57370Y16227D01*
X57370Y16225D01*
X57370Y16225D01*
X57370Y16225D01*
X57370Y16225D01*
X57370Y16025D01*
X57370Y16021D01*
X57226Y16021D01*
X57201Y16016D01*
X57194Y16013D01*
X57187Y16016D01*
X57162Y16021D01*
X57136Y16021D01*
X57030Y16021D01*
X57048Y16039D01*
X57062Y16060D01*
X57072Y16083D01*
X57077Y16108D01*
X57077Y16134D01*
X57077Y16490D01*
X57072Y16515D01*
X57062Y16538D01*
X57048Y16560D01*
X57030Y16578D01*
X57009Y16592D01*
X56986Y16602D01*
X56961Y16607D01*
X56935Y16607D01*
X56674Y16607D01*
X56649Y16602D01*
X56626Y16592D01*
X56604Y16578D01*
X56586Y16560D01*
X56572Y16539D01*
X56562Y16516D01*
X56557Y16491D01*
X56557Y16465D01*
X56557Y16109D01*
X56562Y16084D01*
X56572Y16061D01*
X56586Y16039D01*
X56604Y16021D01*
X56604Y16021D01*
X56495Y16021D01*
X56513Y16039D01*
X56527Y16060D01*
X56537Y16083D01*
X56542Y16108D01*
X56542Y16134D01*
X56542Y16490D01*
X56537Y16515D01*
X56527Y16538D01*
X56513Y16560D01*
X56495Y16578D01*
X56474Y16592D01*
X56451Y16602D01*
X56426Y16607D01*
X56400Y16607D01*
X56139Y16607D01*
X56114Y16602D01*
X56091Y16592D01*
X56069Y16578D01*
X56051Y16560D01*
X56037Y16539D01*
X56027Y16516D01*
X56022Y16491D01*
X56022Y16465D01*
X56022Y16109D01*
X56027Y16084D01*
X56037Y16061D01*
X56051Y16039D01*
X56069Y16021D01*
X56090Y16007D01*
X56113Y15997D01*
X56122Y15995D01*
X56122Y15982D01*
X56114Y15974D01*
X56100Y15953D01*
X56090Y15930D01*
X56085Y15905D01*
X56085Y15879D01*
X56085Y15469D01*
X55783Y15770D01*
X55803Y15798D01*
X55836Y15871D01*
X55853Y15948D01*
X55855Y16039D01*
X55839Y16117D01*
X55809Y16191D01*
X55765Y16257D01*
X55709Y16313D01*
X55643Y16357D01*
X55570Y16388D01*
X55492Y16404D01*
X55413Y16405D01*
X55335Y16390D01*
X55261Y16360D01*
X55194Y16317D01*
X55138Y16261D01*
X55093Y16196D01*
X55062Y16123D01*
X55045Y16045D01*
X55044Y15965D01*
X55058Y15887D01*
X55088Y15813D01*
X55131Y15747D01*
X55186Y15690D01*
X55251Y15644D01*
X55324Y15612D01*
X55401Y15595D01*
X55450Y15594D01*
X55715Y15330D01*
X55685Y15330D01*
X55643Y15357D01*
X55570Y15388D01*
X55492Y15404D01*
X55413Y15405D01*
X55335Y15390D01*
X55261Y15360D01*
X55214Y15330D01*
X54999Y15330D01*
X54999Y17620D01*
X58225Y17620D01*
X58973Y17620D01*
X59014Y17586D01*
X59555Y16932D01*
X59959Y16185D01*
X60210Y15374D01*
X60300Y14523D01*
X60300Y14507D01*
X60300Y14507D01*
G37*
G54D24*
X60300Y14507D02*
X60216Y13655D01*
X59971Y12842D01*
X59572Y12092D01*
X59036Y11435D01*
X58382Y10894D01*
X57635Y10490D01*
X56824Y10239D01*
X55973Y10149D01*
X55949Y10149D01*
X54999Y10149D01*
X54999Y10520D01*
X55853Y10520D01*
X56403Y11070D01*
X58455Y11070D01*
X58455Y12480D01*
X57758Y12480D01*
X57758Y12862D01*
X57772Y12847D01*
X57785Y12837D01*
X57798Y12826D01*
X57799Y12826D01*
X57799Y12825D01*
X57814Y12817D01*
X57829Y12809D01*
X57829Y12809D01*
X57830Y12808D01*
X57846Y12803D01*
X57862Y12798D01*
X57863Y12798D01*
X57864Y12798D01*
X57880Y12796D01*
X57897Y12795D01*
X57899Y12795D01*
X57899Y12795D01*
X57899Y12795D01*
X57900Y12795D01*
X58750Y12795D01*
X58766Y12796D01*
X58783Y12798D01*
X58784Y12798D01*
X58784Y12798D01*
X58800Y12803D01*
X58816Y12807D01*
X58817Y12808D01*
X58818Y12808D01*
X58833Y12816D01*
X58848Y12824D01*
X58848Y12824D01*
X58849Y12825D01*
X58862Y12835D01*
X58875Y12845D01*
X58876Y12847D01*
X58876Y12847D01*
X58876Y12847D01*
X58877Y12847D01*
X59102Y13072D01*
X59112Y13085D01*
X59123Y13098D01*
X59123Y13099D01*
X59124Y13099D01*
X59132Y13114D01*
X59140Y13129D01*
X59140Y13129D01*
X59141Y13130D01*
X59146Y13146D01*
X59151Y13162D01*
X59151Y13163D01*
X59151Y13164D01*
X59153Y13181D01*
X59154Y13197D01*
X59154Y13199D01*
X59154Y13199D01*
X59154Y13199D01*
X59155Y13200D01*
X59155Y14345D01*
X59825Y14345D01*
X59841Y14346D01*
X59858Y14348D01*
X59859Y14348D01*
X59859Y14348D01*
X59875Y14353D01*
X59891Y14357D01*
X59892Y14358D01*
X59893Y14358D01*
X59908Y14366D01*
X59923Y14374D01*
X59923Y14374D01*
X59924Y14375D01*
X59937Y14385D01*
X59950Y14395D01*
X59951Y14397D01*
X59951Y14397D01*
X59951Y14397D01*
X59952Y14397D01*
X59982Y14427D01*
X59992Y14440D01*
X60003Y14453D01*
X60003Y14453D01*
X60004Y14454D01*
X60012Y14469D01*
X60020Y14483D01*
X60020Y14484D01*
X60020Y14485D01*
X60025Y14501D01*
X60030Y14517D01*
X60030Y14518D01*
X60031Y14519D01*
X60032Y14535D01*
X60034Y14552D01*
X60034Y14554D01*
X60034Y14554D01*
X60034Y14554D01*
X60034Y14554D01*
X60034Y14669D01*
X60047Y14671D01*
X60071Y14681D01*
X60092Y14695D01*
X60110Y14713D01*
X60124Y14734D01*
X60134Y14758D01*
X60139Y14783D01*
X60139Y14808D01*
X60139Y15239D01*
X60134Y15264D01*
X60125Y15288D01*
X60110Y15309D01*
X60092Y15327D01*
X60071Y15341D01*
X60048Y15351D01*
X60023Y15356D01*
X59997Y15356D01*
X59686Y15356D01*
X59661Y15351D01*
X59638Y15342D01*
X59617Y15328D01*
X59599Y15310D01*
X59584Y15288D01*
X59574Y15265D01*
X59569Y15240D01*
X59569Y15214D01*
X59569Y14784D01*
X59574Y14759D01*
X59584Y14735D01*
X59598Y14714D01*
X59607Y14705D01*
X58975Y14705D01*
X58958Y14703D01*
X58941Y14701D01*
X58940Y14701D01*
X58940Y14701D01*
X58923Y14696D01*
X58907Y14691D01*
X58907Y14691D01*
X58906Y14691D01*
X58891Y14683D01*
X58876Y14675D01*
X58875Y14675D01*
X58875Y14674D01*
X58862Y14664D01*
X58849Y14653D01*
X58848Y14653D01*
X58848Y14652D01*
X58837Y14639D01*
X58826Y14626D01*
X58826Y14626D01*
X58825Y14625D01*
X58817Y14610D01*
X58809Y14595D01*
X58809Y14595D01*
X58809Y14594D01*
X58804Y14578D01*
X58798Y14562D01*
X58798Y14561D01*
X58798Y14561D01*
X58796Y14544D01*
X58795Y14527D01*
X58795Y14526D01*
X58795Y14526D01*
X58795Y14526D01*
X58795Y14525D01*
X58795Y14088D01*
X58783Y14093D01*
X58729Y14104D01*
X58704Y14104D01*
X58705Y14127D01*
X58694Y14181D01*
X58673Y14232D01*
X58643Y14277D01*
X58604Y14316D01*
X58558Y14347D01*
X58508Y14368D01*
X58454Y14379D01*
X58399Y14380D01*
X58345Y14369D01*
X58330Y14363D01*
X58330Y14610D01*
X58338Y14607D01*
X58391Y14595D01*
X58446Y14594D01*
X58500Y14604D01*
X58551Y14623D01*
X58598Y14653D01*
X58637Y14691D01*
X58669Y14736D01*
X58691Y14786D01*
X58704Y14839D01*
X58704Y14844D01*
X58721Y14844D01*
X58775Y14854D01*
X58826Y14873D01*
X58873Y14903D01*
X58912Y14941D01*
X58944Y14986D01*
X58966Y15036D01*
X58979Y15089D01*
X58980Y15152D01*
X58969Y15206D01*
X58948Y15257D01*
X58918Y15302D01*
X58879Y15341D01*
X58833Y15372D01*
X58814Y15380D01*
X58814Y15904D01*
X58809Y15929D01*
X58799Y15952D01*
X58785Y15974D01*
X58767Y15992D01*
X58746Y16006D01*
X58723Y16016D01*
X58698Y16021D01*
X58672Y16021D01*
X58506Y16021D01*
X58481Y16016D01*
X58474Y16013D01*
X58467Y16016D01*
X58442Y16021D01*
X58416Y16021D01*
X58250Y16021D01*
X58225Y16016D01*
X58218Y16013D01*
X58211Y16016D01*
X58186Y16021D01*
X58160Y16021D01*
X58085Y16021D01*
X58091Y16036D01*
X58094Y16045D01*
X58146Y16044D01*
X58200Y16054D01*
X58251Y16073D01*
X58298Y16103D01*
X58337Y16141D01*
X58369Y16186D01*
X58391Y16236D01*
X58404Y16289D01*
X58405Y16352D01*
X58394Y16406D01*
X58373Y16457D01*
X58343Y16502D01*
X58304Y16541D01*
X58258Y16572D01*
X58208Y16593D01*
X58154Y16604D01*
X58099Y16605D01*
X58045Y16594D01*
X57994Y16574D01*
X57985Y16568D01*
X57978Y16571D01*
X57962Y16576D01*
X57961Y16576D01*
X57960Y16576D01*
X57943Y16578D01*
X57927Y16579D01*
X57925Y16579D01*
X57925Y16579D01*
X57925Y16579D01*
X57925Y16580D01*
X57725Y16580D01*
X57708Y16578D01*
X57691Y16576D01*
X57690Y16576D01*
X57690Y16576D01*
X57674Y16571D01*
X57658Y16567D01*
X57657Y16566D01*
X57656Y16566D01*
X57641Y16558D01*
X57626Y16550D01*
X57626Y16550D01*
X57625Y16549D01*
X57612Y16539D01*
X57599Y16529D01*
X57598Y16527D01*
X57598Y16527D01*
X57598Y16527D01*
X57597Y16527D01*
X57422Y16352D01*
X57412Y16339D01*
X57401Y16326D01*
X57401Y16325D01*
X57400Y16325D01*
X57392Y16310D01*
X57384Y16295D01*
X57384Y16295D01*
X57383Y16294D01*
X57378Y16278D01*
X57373Y16262D01*
X57373Y16261D01*
X57373Y16260D01*
X57371Y16243D01*
X57370Y16227D01*
X57370Y16225D01*
X57370Y16225D01*
X57370Y16225D01*
X57370Y16225D01*
X57370Y16025D01*
X57370Y16021D01*
X57226Y16021D01*
X57201Y16016D01*
X57194Y16013D01*
X57187Y16016D01*
X57162Y16021D01*
X57136Y16021D01*
X57030Y16021D01*
X57048Y16039D01*
X57062Y16060D01*
X57072Y16083D01*
X57077Y16108D01*
X57077Y16134D01*
X57077Y16490D01*
X57072Y16515D01*
X57062Y16538D01*
X57048Y16560D01*
X57030Y16578D01*
X57009Y16592D01*
X56986Y16602D01*
X56961Y16607D01*
X56935Y16607D01*
X56674Y16607D01*
X56649Y16602D01*
X56626Y16592D01*
X56604Y16578D01*
X56586Y16560D01*
X56572Y16539D01*
X56562Y16516D01*
X56557Y16491D01*
X56557Y16465D01*
X56557Y16109D01*
X56562Y16084D01*
X56572Y16061D01*
X56586Y16039D01*
X56604Y16021D01*
X56604Y16021D01*
X56495Y16021D01*
X56513Y16039D01*
X56527Y16060D01*
X56537Y16083D01*
X56542Y16108D01*
X56542Y16134D01*
X56542Y16490D01*
X56537Y16515D01*
X56527Y16538D01*
X56513Y16560D01*
X56495Y16578D01*
X56474Y16592D01*
X56451Y16602D01*
X56426Y16607D01*
X56400Y16607D01*
X56139Y16607D01*
X56114Y16602D01*
X56091Y16592D01*
X56069Y16578D01*
X56051Y16560D01*
X56037Y16539D01*
X56027Y16516D01*
X56022Y16491D01*
X56022Y16465D01*
X56022Y16109D01*
X56027Y16084D01*
X56037Y16061D01*
X56051Y16039D01*
X56069Y16021D01*
X56090Y16007D01*
X56113Y15997D01*
X56122Y15995D01*
X56122Y15982D01*
X56114Y15974D01*
X56100Y15953D01*
X56090Y15930D01*
X56085Y15905D01*
X56085Y15879D01*
X56085Y15469D01*
X55783Y15770D01*
X55803Y15798D01*
X55836Y15871D01*
X55853Y15948D01*
X55855Y16039D01*
X55839Y16117D01*
X55809Y16191D01*
X55765Y16257D01*
X55709Y16313D01*
X55643Y16357D01*
X55570Y16388D01*
X55492Y16404D01*
X55413Y16405D01*
X55335Y16390D01*
X55261Y16360D01*
X55194Y16317D01*
X55138Y16261D01*
X55093Y16196D01*
X55062Y16123D01*
X55045Y16045D01*
X55044Y15965D01*
X55058Y15887D01*
X55088Y15813D01*
X55131Y15747D01*
X55186Y15690D01*
X55251Y15644D01*
X55324Y15612D01*
X55401Y15595D01*
X55450Y15594D01*
X55715Y15330D01*
X55685Y15330D01*
X55643Y15357D01*
X55570Y15388D01*
X55492Y15404D01*
X55413Y15405D01*
X55335Y15390D01*
X55261Y15360D01*
X55214Y15330D01*
X54999Y15330D01*
X54999Y17620D01*
X58225Y17620D01*
X58973Y17620D01*
X59014Y17586D01*
X59555Y16932D01*
X59959Y16185D01*
X60210Y15374D01*
X60300Y14523D01*
X60300Y14507D01*
G54D10*
G36*
X58777Y17780D02*
X58225Y17780D01*
X54999Y17780D01*
X54999Y18850D01*
X55942Y18850D01*
X56794Y18766D01*
X57607Y18521D01*
X58357Y18122D01*
X58777Y17780D01*
X58777Y17780D01*
G37*
G54D24*
X58777Y17780D02*
X58225Y17780D01*
X54999Y17780D01*
X54999Y18850D01*
X55942Y18850D01*
X56794Y18766D01*
X57607Y18521D01*
X58357Y18122D01*
X58777Y17780D01*
G54D10*
G36*
X58295Y11230D02*
X57670Y11230D01*
X57670Y11256D01*
X57665Y11281D01*
X57655Y11305D01*
X57641Y11326D01*
X57623Y11344D01*
X57602Y11359D01*
X57579Y11368D01*
X57554Y11374D01*
X57528Y11374D01*
X56346Y11374D01*
X56321Y11369D01*
X56298Y11359D01*
X56276Y11345D01*
X56258Y11327D01*
X56244Y11306D01*
X56234Y11282D01*
X56229Y11257D01*
X56229Y11232D01*
X56229Y11121D01*
X55787Y10680D01*
X55683Y10680D01*
X55666Y10687D01*
X55641Y10692D01*
X55615Y10692D01*
X55259Y10692D01*
X55234Y10687D01*
X55216Y10680D01*
X54999Y10680D01*
X54999Y11320D01*
X56180Y11320D01*
X56180Y12179D01*
X57134Y12179D01*
X57151Y12181D01*
X57168Y12183D01*
X57169Y12183D01*
X57169Y12183D01*
X57185Y12188D01*
X57201Y12192D01*
X57202Y12193D01*
X57203Y12193D01*
X57218Y12201D01*
X57233Y12209D01*
X57233Y12209D01*
X57234Y12210D01*
X57247Y12220D01*
X57260Y12230D01*
X57261Y12232D01*
X57261Y12232D01*
X57261Y12232D01*
X57262Y12232D01*
X57349Y12320D01*
X58295Y12320D01*
X58295Y11230D01*
X58295Y11230D01*
G37*
G54D24*
X58295Y11230D02*
X57670Y11230D01*
X57670Y11256D01*
X57665Y11281D01*
X57655Y11305D01*
X57641Y11326D01*
X57623Y11344D01*
X57602Y11359D01*
X57579Y11368D01*
X57554Y11374D01*
X57528Y11374D01*
X56346Y11374D01*
X56321Y11369D01*
X56298Y11359D01*
X56276Y11345D01*
X56258Y11327D01*
X56244Y11306D01*
X56234Y11282D01*
X56229Y11257D01*
X56229Y11232D01*
X56229Y11121D01*
X55787Y10680D01*
X55683Y10680D01*
X55666Y10687D01*
X55641Y10692D01*
X55615Y10692D01*
X55259Y10692D01*
X55234Y10687D01*
X55216Y10680D01*
X54999Y10680D01*
X54999Y11320D01*
X56180Y11320D01*
X56180Y12179D01*
X57134Y12179D01*
X57151Y12181D01*
X57168Y12183D01*
X57169Y12183D01*
X57169Y12183D01*
X57185Y12188D01*
X57201Y12192D01*
X57202Y12193D01*
X57203Y12193D01*
X57218Y12201D01*
X57233Y12209D01*
X57233Y12209D01*
X57234Y12210D01*
X57247Y12220D01*
X57260Y12230D01*
X57261Y12232D01*
X57261Y12232D01*
X57261Y12232D01*
X57262Y12232D01*
X57349Y12320D01*
X58295Y12320D01*
X58295Y11230D01*
M02*
